<?xml version="1.0" standalone="no"?>
<!DOCTYPE svg PUBLIC "-//W3C//DTD SVG 1.1//EN" "http://www.w3.org/Graphics/SVG/1.1/DTD/svg11.dtd" >
<svg>
<metadata>
Created by FontForge 20090914 at Fri Feb 24 14:28:49 2012
 By root
Dalelands &#194;&#169; (Neale Davidson). 2011. All Rights Reserved
</metadata>
<defs>
<font id="Dalelands" horiz-adv-x="1372" >
  <font-face 
    font-family="Dalelands"
    font-weight="400"
    font-stretch="normal"
    units-per-em="2048"
    panose-1="2 0 5 0 0 0 0 0 0 0"
    ascent="1638"
    descent="-410"
    x-height="961"
    cap-height="1372"
    bbox="-342 -418 2048 1716"
    underline-thickness="150"
    underline-position="-142"
    unicode-range="U+0020-U+F002"
  />
<missing-glyph horiz-adv-x="1024" 
d="M100 0v1434h824v-1434h-824zM150 50h724v1334h-724v-1334zM325 1148q31 28 58 43q53 30 112 30q92 0 148 -47.5t56 -127.5q0 -49 -23 -98.5t-87 -129.5q-63 -80 -99 -132t-36 -99q0 -38 24 -133h-32q-35 97 -35 148q0 76 81.5 218t81.5 217q0 57 -33 90t-91 33
q-38 0 -69 -17q-26 -15 -56 -40v45zM389 334l57 58q11 10 20 10q10 0 22 -11l56 -60q9 -11 9 -20q0 -11 -10 -22l-56 -62q-14 -14 -21 -14q-11 0 -20 10l-61 71q-7 9 -7 18q0 10 11 22z" />
    <glyph glyph-name=".notdef" horiz-adv-x="1024" 
d="M100 0v1434h824v-1434h-824zM150 50h724v1334h-724v-1334zM325 1148q31 28 58 43q53 30 112 30q92 0 148 -47.5t56 -127.5q0 -49 -23 -98.5t-87 -129.5q-63 -80 -99 -132t-36 -99q0 -38 24 -133h-32q-35 97 -35 148q0 76 81.5 218t81.5 217q0 57 -33 90t-91 33
q-38 0 -69 -17q-26 -15 -56 -40v45zM389 334l57 58q11 10 20 10q10 0 22 -11l56 -60q9 -11 9 -20q0 -11 -10 -22l-56 -62q-14 -14 -21 -14q-11 0 -20 10l-61 71q-7 9 -7 18q0 10 11 22z" />
    <glyph glyph-name=".null" horiz-adv-x="0" 
 />
    <glyph glyph-name="nonmarkingreturn" horiz-adv-x="508" 
 />
    <glyph glyph-name="space" unicode=" " horiz-adv-x="1220" 
 />
    <glyph glyph-name="space" unicode="&#xa0;" horiz-adv-x="1220" 
 />
    <glyph glyph-name="exclam" unicode="!" horiz-adv-x="549" 
d="M82 445q28 18 28 170q0 286 -63 604q-26 135 -47 153l275 -54q-22 -3 -22 -265q0 -229 11 -487l11 -259l-275 110zM165 231q122 -22 142 -154l-120 -77q-78 142 -154 142z" />
    <glyph glyph-name="quotedbl" unicode="&#x22;" horiz-adv-x="892" 
d="M138 1004l-138 138q61 0 124 154q21 52 30 76l121 -77q15 -1 15 -37q0 -105 -74 -200q-35 -46 -78 -54zM481 1004l-137 138q62 0 123 154l30 76l121 -77q16 -1 16 -37q0 -105 -75 -200q-35 -46 -78 -54z" />
    <glyph glyph-name="numbersign" unicode="#" horiz-adv-x="823" 
d="M338 479l2 162h-97l-4 -164zM130 474l3 167h-122l34 101h91l2 87l109 11v-94l93 2v98l121 5l-1 -101l89 2v-111h-92l-3 -159l95 1l-28 -115h-70l-1 -82l-115 4l2 77l-100 -2l-1 -96l-110 11l1 84l-110 -1l48 110z" />
    <glyph glyph-name="dollar" unicode="$" horiz-adv-x="1373" 
d="M480 995q-238 -31 -238 -146q0 -67 92 -93q31 -8 146 -22v261zM463 335l3 66l9 160q-269 5 -402 113q-72 59 -72 152q0 185 239 283q110 43 234 56q-13 138 -34 153l247 54q-1 -23 -3 -99l-5 -112q227 -26 340 -126q63 -58 79 -142h-273q-22 54 -149 91q-4 -80 -7 -259
h41q122 0 173 -8q211 -31 211 -201v-2q0 -274 -427 -305q6 -152 20 -154l-275 -55q20 19 40 206q-187 0 -292 51q-144 70 -164 262h219q0 -122 125 -162q54 -17 123 -22zM665 337q65 9 127 41q80 42 80 95q0 83 -206 90q0 -6 -1 -33v-193z" />
    <glyph glyph-name="percent" unicode="%" 
d="M695 652q-79 -92 -263 -400l-124 -205q-27 -45 -33 -47h-275q21 13 247 333l172 246q102 140 189 234q126 136 238 425q42 107 47 134h205q-23 -77 -138 -303q-140 -275 -265 -417zM335 1148q-6 6 -28 6q-55 0 -100 -42q-20 -19 -20 -41q2 -13 8 -37q9 -41 63 -41
q38 7 68 38.5t30 69.5q0 30 -21 47zM445 1017q-72 -149 -231 -149q-68 7 -108 83q-31 62 -34 142v5q0 33 35 84q87 122 199 122q34 0 67 -18q92 -81 92 -187q0 -42 -20 -82zM1017 417q-8 7 -28 7q-56 0 -102 -42q-19 -20 -19 -42q3 -27 25 -68q11 -9 46 -9q38 7 67.5 38
t29.5 70q0 28 -19 46zM1125 286q-50 -104 -148 -135q-41 -13 -82 -13q-87 9 -124 125q-17 54 -19 100v3q0 43 44 97q89 111 191 111q36 0 67 -19q90 -78 90 -185q0 -44 -19 -84z" />
    <glyph glyph-name="ampersand" unicode="&#x26;" 
d="M465 1232q-9 74 -26 86l247 54q-1 -18 -5 -138q348 -12 417 -42v-157q-47 43 -421 62l-5 -184q-2 -62 -4 -158h178l22 -143l-202 4v-346q338 0 398 74l34 -161q-67 -64 -281 -64q-52 0 -146 6q5 -68 15 -70l-275 -55q16 15 33 139q-255 8 -379 127q-65 64 -65 159
q0 135 93 190q54 31 167 78q-117 1 -194 109q-66 92 -66 149v1q5 255 465 280zM477 1098q-115 -1 -173 -21q-95 -33 -95 -125q0 -87 95 -140q73 -40 175 -53q0 242 -2 339zM475 613q-177 -15 -251 -75q-43 -35 -43 -90q17 -165 275 -173q15 192 19 338z" />
    <glyph glyph-name="quotesingle" unicode="'" horiz-adv-x="549" 
d="M138 1004l-138 138q61 0 124 154q21 52 30 76l121 -77q15 -1 15 -37q0 -105 -74 -200q-35 -46 -78 -54z" />
    <glyph glyph-name="parenleft" unicode="(" horiz-adv-x="823" 
d="M549 1372q-143 -7 -248 -274q-95 -242 -95 -398v-14q3 -128 57 -294q53 -161 126 -273q77 -119 160 -119q-176 0 -354 193q-195 209 -195 493q0 213 134 432q156 254 415 254z" />
    <glyph glyph-name="parenright" unicode=")" horiz-adv-x="823" 
d="M0 1372q192 0 336 -151q125 -129 180 -331q33 -118 33 -204q0 -284 -192 -491q-182 -195 -357 -195q124 0 235 256q105 242 109 430v11q0 161 -95 399q-106 269 -249 276z" />
    <glyph glyph-name="asterisk" unicode="*" horiz-adv-x="823" 
d="M176 626l-88 176l99 32l75 -134l56 84l33 50l115 -27l-118 -181h163l-38 -105h1q-17 2 -116 6l87 -154q-111 -22 -131 -22l-65 126l-84 -131q-4 -6 -13 -6q-28 0 -103 50l98 138q-122 -5 -136 -12l27 110h138z" />
    <glyph glyph-name="plus" unicode="+" horiz-adv-x="823" 
d="M179 532q-133 0 -168 -16l27 110h164l34 137l115 22l-30 -159h190l-38 -105q-16 2 -86 5l-85 5l-28 -147h-132z" />
    <glyph glyph-name="comma" unicode="," horiz-adv-x="549" 
d="M138 -138l-138 138q61 0 124 155q21 51 30 76l121 -77q15 -2 15 -39q0 -104 -74 -200q-35 -44 -78 -53z" />
    <glyph glyph-name="hyphen" unicode="-" horiz-adv-x="823" 
d="M11 505l27 121l473 15l-38 -109z" />
    <glyph glyph-name="hyphen" unicode="&#xad;" horiz-adv-x="823" 
d="M11 505l27 121l473 15l-38 -109z" />
    <glyph glyph-name="period" unicode="." horiz-adv-x="549" 
d="M132 0l-132 88q78 0 154 143l121 -77q-21 -132 -143 -154z" />
    <glyph glyph-name="slash" unicode="/" 
d="M695 652q-79 -92 -263 -400l-124 -205q-27 -45 -33 -47h-275q21 13 247 333l172 246q102 140 189 234q126 136 238 425q42 107 47 134h205q-23 -77 -138 -303q-140 -275 -265 -417z" />
    <glyph glyph-name="zero" unicode="0" 
d="M549 206q93 0 178 85q73 74 118 183t48 212v12q0 150 -78 303q-93 179 -261 179h-5q-74 -1 -141 -56q-121 -101 -177 -293q-25 -83 -25 -138v-7q3 -110 51 -221q49 -115 128.5 -187t163.5 -72zM549 1372q297 0 438 -252q111 -197 111 -434q0 -284 -193 -491
q-181 -195 -356 -195q-176 0 -354 193q-195 209 -195 493q0 213 134 432q156 254 415 254z" />
    <glyph glyph-name="one" unicode="1" horiz-adv-x="549" 
d="M82 1235l-82 27l275 110q-22 -599 -22 -973q0 -342 22 -344l-275 -55q46 43 81 480q29 350 29 533q0 206 -28 222z" />
    <glyph glyph-name="two" unicode="2" 
d="M0 0q222 86 531 335q347 281 362 489v32q0 171 -134 280q-126 99 -268 99h-10q-161 -3 -232 -108q-40 -60 -43 -166l-206 69q34 257 262 316q97 26 219 26q206 0 392 -124q225 -150 225 -424q0 -39 -47 -198q-23 -78 -172 -224q-137 -135 -305 -253h51q327 0 433 65
q34 22 40 34v-248h-1098z" />
    <glyph glyph-name="three" unicode="3" 
d="M891 1354q43 18 70 18h274q-230 -74 -547 -322q-135 -106 -172 -171q223 -3 381 -89q201 -107 201 -309q0 -278 -158 -393q-123 -88 -322 -88q-257 0 -396 56q-222 90 -222 355h206q5 -150 141 -220q104 -53 271 -53q275 0 275 340v3q-1 137 -186 212q-166 66 -409 66
h-26l-31 -1q34 107 238 299q94 87 184 156q-99 -13 -194 -13q-197 0 -452 46l246 122q232 -26 428 -26q129 0 200 12z" />
    <glyph glyph-name="four" unicode="4" 
d="M0 755q63 61 181 246q134 209 134 286q0 23 -12 31l246 54q-100 -362 -286 -479q-4 0 53 -1h58l147 -2q121 0 154 3l151 16q48 5 67 11q-1 124 -7 213q-10 169 -35 185l247 54l-2 -90q-1 -56 -6 -238l-13 -472v-212q0 -43 8 -189q8 -170 13 -171h-274q32 30 54 407
q9 159 13 348h-891z" />
    <glyph glyph-name="five" unicode="5" 
d="M528 1357l565 15l-132 -131l-530 8q-33 -46 -101 -204q-36 -79 -55 -111q117 29 228 29q277 0 446 -170q149 -149 149 -312q0 -278 -158 -393q-123 -88 -322 -88q-257 0 -396 56q-222 90 -222 355h206q5 -150 141 -220q104 -53 271 -53q266 0 275 343v5q0 63 -48 142
q-113 193 -411 193q-170 0 -386 -74q59 120 132 337l95 288h274q-8 -3 -21 -15z" />
    <glyph glyph-name="six" unicode="6" 
d="M618 138q265 0 275 343v3q0 105 -155 224q-148 116 -257 116q-105 0 -190 -81.5t-85 -184.5v-9q3 -108 69 -205q61 -92 157.5 -149t185.5 -57zM48 747q51 162 210 380q179 245 291 245h275q-132 -43 -250 -170q-96 -108 -167 -235q67 10 124 10q254 0 419 -173
q148 -155 148 -323q0 -278 -158 -393q-123 -88 -322 -88q-205 0 -394 125q-224 149 -224 424q0 51 25 127q7 19 23 71z" />
    <glyph glyph-name="seven" unicode="7" horiz-adv-x="1509" 
d="M540 755h-183v138h288l131 167q75 91 142 157q-60 2 -171 2q-351 0 -562 -23q-54 -5 -180 -27l50 203h1180l-78 -94l-210 -268l-85 -111q250 19 250 62l-68 -206h-291q-329 -442 -478 -673l-275 -82l63 89l126 181z" />
    <glyph glyph-name="eight" unicode="8" 
d="M225 725q-225 71 -225 319q0 151 160 244q145 84 321 84q209 0 392 -75q222 -91 225 -276v-3q0 -56 -66 -147q-78 -108 -193 -109q259 -109 259 -405q0 -219 -105 -299q-78 -61 -240 -61q-22 0 -67 1.5t-68 1.5q-618 0 -618 451q0 57 109 175q52 56 116 99zM549 686
q-67 0 -159 -40q-193 -85 -193 -210v-2q3 -151 143 -230q117 -66 278 -66q155 0 216 37q80 49 83 204v3q0 100 -129 201q-132 102 -239 103zM549 824h10q67 0 145 20q186 51 186 177q0 146 -216 194q-91 20 -193 20q-250 0 -278 -191q0 -94 120 -159q109 -58 226 -61z" />
    <glyph glyph-name="nine" unicode="9" 
d="M481 1235q-176 0 -240 -154q-33 -82 -35 -188v-4q0 -74 89 -164q70 -71 156 -120q99 -56 167 -56q104 0 189.5 83t85.5 186v6q-3 107 -69 205q-62 92 -159 149t-184 57zM841 247q-180 -247 -292 -247h-274q231 74 417 407q-67 -11 -124 -11q-253 0 -419 174
q-149 156 -149 323q0 479 481 479q206 0 392 -124q225 -150 225 -424q0 -119 -92 -305q-70 -141 -165 -272z" />
    <glyph glyph-name="colon" unicode=":" horiz-adv-x="549" 
d="M132 686l-132 89q78 0 154 142l121 -77q-21 -132 -143 -154zM132 0l-132 88q78 0 154 143l121 -77q-21 -132 -143 -154z" />
    <glyph glyph-name="semicolon" unicode=";" horiz-adv-x="549" 
d="M138 -138l-138 138q61 0 124 155q21 51 30 76l121 -77q15 -2 15 -39q0 -104 -74 -200q-35 -44 -78 -53zM132 686l-132 89q78 0 154 142l121 -77q-21 -132 -143 -154z" />
    <glyph glyph-name="semicolon" unicode="&#x37e;" horiz-adv-x="549" 
d="M138 -138l-138 138q61 0 124 155q21 51 30 76l121 -77q15 -2 15 -39q0 -104 -74 -200q-35 -44 -78 -53zM132 686l-132 89q78 0 154 142l121 -77q-21 -132 -143 -154z" />
    <glyph glyph-name="less" unicode="&#x3c;" horiz-adv-x="823" 
d="M480 275h-206q-51 18 -164 163q-53 66 -82 125q93 101 200 171l63 42q49 36 52 48h205l-226 -173q-53 -43 -82 -85q73 -130 166 -236q48 -55 74 -55z" />
    <glyph glyph-name="equal" unicode="=" horiz-adv-x="823" 
d="M32 708l32 99l479 17l-38 -116h-473zM16 314l48 110l424 4l-55 -131z" />
    <glyph glyph-name="greater" unicode="&#x3e;" horiz-adv-x="823" 
d="M69 275q46 0 172 185q50 73 66 106q-43 63 -211 187l-96 71h206q136 -107 314 -261q-29 -60 -110 -160q-91 -113 -135 -128h-206z" />
    <glyph glyph-name="question" unicode="?" horiz-adv-x="1235" 
d="M209 989h-209q23 217 177 312q118 74 281 82l33 2q208 0 343 -128q129 -121 129 -279q0 -18 -2 -39q-9 -70 -153 -130l-203 -75q-171 -63 -240 -105q-145 -87 -145 -198q0 -37 13 -74h-205q0 266 366 429l200 85q163 73 169 112q3 13 3 24q0 114 -182 168q-77 22 -145 22
q-233 0 -233 -170q0 -11 3 -38zM132 0l-132 88q78 0 154 143l121 -77q-21 -132 -143 -154z" />
    <glyph glyph-name="at" unicode="@" 
d="M621 532q-8 8 -28 8q-56 0 -101 -43q-19 -19 -19 -41q4 -29 24 -69q11 -8 47 -8q39 6 68 38t29 69q0 29 -20 46zM481 0q-201 0 -324 89q-157 116 -157 392q0 192 221 339q193 130 397 141q32 2 37 2q178 0 306 -96q140 -107 140 -279q0 -11 -3 -39q-22 -185 -164 -283
q-66 -44 -139 -44q-90 0 -174 75q-21 -44 -122 -44q-67 6 -107 84q-31 61 -35 141v4q0 35 35 84q87 123 199 123q36 0 67 -20l94 34l-21 -319q33 -12 69 -12q82 0 121 81q23 49 23 129v1q0 69 -58 129q-48 51 -120 80q-76 32 -148 32q-130 0 -273 -90q-158 -101 -158 -252
v-4q2 -156 121 -259q108 -93 252 -93h123q193 0 294 29q62 17 121 51l-205 -206h-412z" />
    <glyph glyph-name="A" unicode="A" 
d="M431 481l-66 -188l-52 -149q-33 -87 -65 -144h-248q65 10 281 592q211 577 211 723q0 45 -14 57l241 -27q42 -141 98 -388l90 -391q43 -171 80 -300q73 -249 111 -266h-205q-10 26 -53 154q-55 159 -93 324l-87 3h-229zM708 626q-16 65 -36 233q-13 107 -40 151
q-74 -166 -149 -382h86q14 0 95 -1q40 -1 44 -1z" />
    <glyph glyph-name="B" unicode="B" 
d="M273 1328q95 44 208 44q209 0 392 -75q222 -91 225 -276v-3q0 -56 -66 -147q-78 -108 -193 -109q259 -109 259 -405q0 -219 -105 -299q-78 -61 -240 -61q-22 0 -67 1.5t-68 1.5q-305 0 -429 115l-189 -115q28 25 48 317q21 283 21 565q0 247 -19 367q-9 60 -22 69l247 54
q0 -5 -2 -44zM254 275q113 -137 364 -137q155 0 216 37q80 49 83 204v3q0 100 -129 201q-133 103 -238 103h-1q-71 -1 -158.5 -39.5t-136.5 -88.5v-283zM261 923q51 -41 136 -70q82 -27 152 -29h10q67 0 145 20q186 51 186 177q0 146 -216 194q-91 20 -193 20
q-141 0 -214 -63q-1 -57 -6 -249z" />
    <glyph glyph-name="C" unicode="C" horiz-adv-x="1509" 
d="M1064 1098q-49 42 -210 91q-154 46 -229 46h-7q-107 -3 -213 -116q-88 -91 -142 -214q-57 -130 -57 -250v-3q1 -157 112 -337q116 -189 242 -189h137q288 0 431 38q65 17 107 42l-205 -206h-630q-119 0 -253 177q-147 195 -147 474q0 300 206 516q195 205 412 205
q149 0 340 -46q213 -53 277 -124z" />
    <glyph glyph-name="D" unicode="D" horiz-adv-x="1509" 
d="M253 317q42 -115 261 -115q45 0 104 4q98 7 199 92q88 74 146 174q64 111 67 214v6q0 95 -60 215q-57 113 -132 181q-103 92 -220 92q-278 0 -354 -171l-8 -354q0 -33 -2 -83q-1 -25 -1 -89v-166zM273 1302q111 70 345 70q299 0 471 -253q146 -215 146 -433
q0 -279 -226 -489q-206 -189 -391 -197q-57 -3 -102 -3q-172 0 -255 52q5 -49 14 -49h-275q28 25 48 317q21 283 21 565q0 247 -19 367q-9 60 -22 69l247 54q0 -10 -2 -70z" />
    <glyph glyph-name="E" unicode="E" horiz-adv-x="1235" 
d="M249 755q0 -419 9 -597l177 -3q16 0 93 -3q63 -3 91 -3q260 0 321 48q23 19 23 39q0 6 -2 12v-248h-961q17 30 27 252q8 179 8 469q0 376 -15 547q-9 90 -20 104h961v-247q2 2 2 12q0 86 -341 86q-29 0 -92 -3q-36 -1 -95 -1l-177 -4q-4 -54 -9 -318q42 3 122 5l120 4
q120 3 198 3q148 17 148 52l-68 -206h-520z" />
    <glyph glyph-name="F" unicode="F" horiz-adv-x="1235" 
d="M258 0h-258q17 30 27 252q8 179 8 469q0 376 -15 547q-9 90 -20 104h961v-247q2 2 2 12q0 86 -341 86q-29 0 -92 -3q-36 -1 -95 -1l-177 -4q-4 -54 -9 -318q42 3 122 5l120 4q120 3 198 3q148 17 148 52l-68 -206h-520v-277q0 -160 9 -478z" />
    <glyph glyph-name="G" unicode="G" horiz-adv-x="1509" 
d="M961 0h-561q-119 0 -253 177q-147 195 -147 474q0 300 206 516q195 205 412 205q149 0 340 -46q213 -53 277 -124l-171 -104q-49 42 -210 91q-154 46 -229 46h-7q-107 -3 -213 -116q-88 -91 -142 -214q-57 -130 -57 -250v-3q1 -157 112 -337q116 -189 242 -189
q115 -14 235 -14q105 0 183 11q3 97 3 267v236q0 56 -13 161q-4 36 -7 37h274q-35 -33 -35 -389v-31q1 -28 1 -44v-69l1 -153v-30q0 -83 -5 -108q1 -9 1 -30q0 -183 -200 -287q-181 -94 -380 -94h-39q-297 0 -397 101q-44 47 -44 101l241 33q5 -52 82 -79q58 -21 122 -21
q17 0 35 1q92 9 212 85q135 85 135 167q0 13 -4 23z" />
    <glyph glyph-name="H" unicode="H" horiz-adv-x="1509" 
d="M263 893h274l426 16q34 0 67 11q-1 124 -6 213q-11 169 -35 185l246 54l-2 -90q-1 -50 -5 -182l-13 -528q-2 -67 -2 -74v-138q0 -36 8 -189q10 -170 14 -171h-274q32 30 55 407q9 159 12 348h-768q-3 -47 -6 -183q-1 -32 -1 -74v-138q0 -44 8 -189q9 -170 14 -171h-275
q28 25 48 317q21 283 21 565q0 247 -19 367q-9 60 -22 69l247 54q-1 -29 -3 -122l-5 -144z" />
    <glyph glyph-name="I" unicode="I" horiz-adv-x="960" 
d="M239 114q25 144 25 513q0 257 -11 437q-5 81 -14 161l-89 -7q-45 -5 -68 -10q-79 -18 -79 -83v247h683v-169q-61 18 -141 18q-47 0 -80 -6q-4 -54 -6 -148q-1 -48 -1 -115q0 -369 19 -829q148 0 190 48q19 20 19 42v-213h-683l-3 181q27 -67 239 -67z" />
    <glyph glyph-name="J" unicode="J" 
d="M346 0q-105 -42 -105 -176q7 -52 83 -79q58 -21 123 -21q16 0 34 1q92 9 212 85q135 85 135 167q0 13 -4 23q16 65 16 503v160q0 21 -1 62v211q0 24 1 127q1 37 1 57q0 19 -1 22q0 26 -23 57t-48 36l329 137q-27 -26 -33 -342q-3 -147 -3 -321l2 -507q0 -177 -4 -202v-30
q0 -183 -200 -287q-180 -94 -379 -94h-40q-296 0 -395 101q-46 47 -46 101q0 102 62 162q35 33 145 96z" />
    <glyph glyph-name="K" unicode="K" 
d="M258 830q-1 -69 -2 -173v-174q0 -481 19 -483h-275q28 25 48 317q21 283 21 565q0 247 -19 367q-9 60 -22 69l247 54q-2 -33 -5 -132zM1098 1372q-46 -153 -397 -743q-124 -210 -152 -218l280 -222l130 -100q77 -57 134 -89h-269q-80 47 -286 203l-263 208q73 40 340 467
q261 417 278 494h205z" />
    <glyph glyph-name="L" unicode="L" horiz-adv-x="1235" 
d="M0 0q28 25 48 317q21 283 21 565q0 247 -19 367q-9 60 -22 69l247 54q-22 -585 -22 -959q0 -169 5 -255l177 -3q16 0 93 -3q63 -3 91 -3q260 0 321 48q23 19 23 39q0 6 -2 12v-248h-961z" />
    <glyph glyph-name="M" unicode="M" horiz-adv-x="1922" 
d="M1422 1203l-22 115l247 54q0 -9 -2 -110l-18 -690q-2 -58 -2 -74v-138q0 -36 9 -189q9 -170 13 -171h-275q7 7 32 416l29 491q-21 -13 -229 -398l-172 -316q-63 -116 -109 -193h-171q-86 139 -264 554l-102 237q-80 174 -122 222l-8 -359q-3 -143 -3 -156v-138
q0 -44 8 -189q9 -170 14 -171h-275q28 25 48 317q21 283 21 565q0 247 -19 367q-9 60 -22 69l247 54q0 -7 -2 -57q50 -33 226 -383l341 -701q61 96 151 262l177 326q71 132 116 205q92 151 138 179z" />
    <glyph glyph-name="N" unicode="N" horiz-adv-x="1509" 
d="M273 1315q88 -55 328 -340q187 -221 416 -519q7 103 10 206l1 93q0 276 -18 462q-9 92 -21 101l246 54l-2 -90q-1 -50 -5 -182l-13 -528q-2 -67 -2 -74v-138q0 -36 8 -189q10 -170 14 -171h-274q16 13 32 138q-84 120 -321 403l-408 472l-8 -359q-3 -143 -3 -156v-138
q0 -44 8 -189q9 -170 14 -171h-275q28 25 48 317q21 283 21 565q0 247 -19 367q-9 60 -22 69l247 54q0 -7 -2 -57z" />
    <glyph glyph-name="O" unicode="O" horiz-adv-x="1509" 
d="M618 206q97 0 199 87q88 73 144 172q66 116 69 221v8q0 136 -110 301q-123 185 -296 185h-6q-73 -1 -152 -56q-146 -106 -227 -298q-33 -80 -33 -134v-6q3 -112 71 -228q64 -107 159.5 -179.5t181.5 -72.5zM618 1372q299 0 471 -253q146 -215 146 -433q0 -281 -226 -491
q-208 -195 -391 -195q-182 0 -391 195q-227 212 -227 491q0 200 168 430q189 256 450 256z" />
    <glyph glyph-name="P" unicode="P" 
d="M615 236l-340 5q203 47 406 231q193 175 212 283q2 15 2 34q0 85 -48 196q-44 101 -104 173q-65 77 -125 77q-69 0 -179 -66q-124 -74 -185 -186q-1 -25 -1 -82v-193q0 -227 6 -490q5 -217 16 -218h-275q28 25 48 317q21 283 21 565q0 247 -19 367q-9 60 -22 69l247 54
q-17 -38 -17 -130q129 123 360 130h14q101 0 190 -55q172 -106 247 -332q32 -101 32 -183q0 -21 -3 -47q-13 -96 -119 -222q-69 -81 -169 -165q-112 -95 -195 -132z" />
    <glyph glyph-name="Q" unicode="Q" horiz-adv-x="1509" 
d="M618 206q97 0 199 87q88 73 144 172q66 116 69 221v8q0 136 -110 301q-123 185 -296 185h-6q-73 -1 -152 -56q-146 -106 -227 -298q-33 -80 -33 -134v-6q3 -112 71 -228q64 -107 159.5 -179.5t181.5 -72.5zM618 0q-2 -9 -2 -28q0 -157 133 -219q62 -28 144 -28
q24 0 71.5 -3t71.5 -3q57 0 97 6q-36 -47 -105 -88q-73 -43 -128 -43q-172 0 -305 72q-164 87 -164 246q0 65 32 125q-182 78 -313 241q-150 187 -150 408q0 200 168 430q189 256 450 256q299 0 471 -253q146 -215 146 -433q0 -281 -226 -491q-208 -195 -391 -195z" />
    <glyph glyph-name="R" unicode="R" 
d="M858 0q-114 0 -428 160l-155 81q203 47 406 231q193 175 212 283q2 15 2 34q0 85 -48 196q-44 101 -104 173q-65 77 -125 77q-69 0 -179 -66q-124 -74 -185 -186q-1 -25 -1 -82v-193q0 -227 6 -490q5 -217 16 -218h-275q28 25 48 317q21 283 21 565q0 247 -19 367
q-9 60 -22 69l247 54q-17 -38 -17 -130q129 123 360 130h14q101 0 190 -55q172 -106 247 -332q32 -101 32 -183q0 -21 -3 -47q-13 -96 -119 -222q-69 -81 -169 -165q-112 -95 -195 -132q0 -39 290 -164q120 -52 193 -72h-240z" />
    <glyph glyph-name="S" unicode="S" horiz-adv-x="1373" 
d="M1094 307q0 -233 -297 -287q-105 -20 -247 -20h-85q-194 0 -301 48q-149 68 -168 266h219q0 -120 124 -161q81 -27 222 -27q180 0 273 129q40 56 40 115q0 104 -117 154q-83 35 -207 39q-549 18 -549 469q0 109 92 193q74 68 193 106q126 41 264 41q191 0 335 -52
q184 -67 213 -222h-273q-24 63 -172 96q-63 14 -100 14h-3q-165 -5 -259 -69q-49 -34 -49 -85q0 -15 -2 -45.5t-2 -45.5v-3q0 -159 150 -211q63 -22 162 -22h42q219 0 329 -58q173 -89 173 -362z" />
    <glyph glyph-name="T" unicode="T" horiz-adv-x="1235" 
d="M601 1215q-5 -87 -5 -255q0 -277 12 -630l10 -330l-247 55q27 19 36 224q4 94 4 212q0 190 -9 380q-11 227 -26 354h-30q-346 0 -346 -88q0 -6 3 -12v247h958v-247q-23 36 -141 64q-78 19 -219 26z" />
    <glyph glyph-name="U" unicode="U" horiz-adv-x="1509" 
d="M982 390q2 93 2 275q0 50 -9 371q-8 335 -14 336h275q-34 -32 -55 -421q-13 -267 -13 -460q0 -404 41 -436l-248 -55q16 38 16 130q-58 -56 -234 -95q-134 -29 -261 -35q-11 -1 -37 -2h-5q-117 0 -217 46q-111 49 -171 144q-54 85 -54 180q0 25 3 43q27 197 125 521
q105 338 184 372l-309 -34l103 102h515q-176 -75 -296 -442q-94 -287 -116 -519q0 -108 83 -190.5t192 -82.5q69 0 184 41q250 89 316 211z" />
    <glyph glyph-name="V" unicode="V" 
d="M719 28l-164 -28q-50 99 -104 311l-79 321q-57 225 -82 311q-73 262 -97 265h-193l55 164h252q44 0 155.5 -357.5t169.5 -651.5q88 136 175 546q36 174 58 298l28 165h205q-123 -601 -247 -1001q-65 -211 -132 -343z" />
    <glyph glyph-name="W" unicode="W" horiz-adv-x="1921" 
d="M1648 549q-9 -179 -154.5 -362t-257.5 -187h-7q-69 0 -173 52q-88 45 -152 100q-91 79 -107 155q-38 -162 -174 -257q-70 -48 -141 -50h-10q-103 0 -193 47q-178 92 -248 289q-33 88 -33 169q0 26 3 44q52 384 122 591q43 132 97 155l-219 -25l103 102h374
q-174 -74 -230 -376q-24 -131 -32 -283l-9 -164v-5q0 -113 81 -252q89 -154 194 -154q76 0 181 168q86 143 110 243q2 98 2 251q0 569 -22 572h248q-30 -24 -41 -330q-6 -133 -6 -276q0 -135 6 -217q3 -72 52 -176q109 -235 222 -235h2q46 0 109 97q111 172 111 311v3
q-2 246 -87 545q-78 275 -106 278h276q25 -42 67 -296q43 -262 43 -457q0 -38 -1 -70z" />
    <glyph glyph-name="X" unicode="X" 
d="M440 632q-29 61 -63 154l-74 204q-30 86 -45 120q-41 95 -65 98h-165l27 164h289q33 0 108 -193l72 -186q39 -97 84 -180q126 139 238 425q42 107 47 134h205q-23 -77 -138 -303q-137 -268 -265 -417q47 -83 139 -346q68 -196 86 -196h178l-27 -110h-385q-16 7 -66 183
q-30 107 -41 141q-28 88 -54 136q-79 -88 -161 -273q-50 -113 -89 -187h-275q20 12 156 233q92 149 133 207q78 115 151 192z" />
    <glyph glyph-name="Y" unicode="Y" 
d="M344 1372q170 -111 233 -597q41 -313 41 -672l-184 -103q-5 314 -65 697q-68 432 -163 470h-206l69 205h275zM489 -406q-283 0 -412 158q-58 72 -58 160q0 79 50 157l170 103q-46 -107 -46 -193q0 -161 138 -225q66 -29 150 -29q37 0 94 144q28 68 46 131
q340 1213 340 1372h274q-19 -30 -234 -734l-280 -913q-36 -47 -105 -89q-72 -42 -127 -42z" />
    <glyph glyph-name="Z" unicode="Z" horiz-adv-x="1509" 
d="M963 909q149 17 149 52l-68 -206h-177q-296 -455 -432 -600q97 -6 197 -6q348 0 527 65q60 22 76 34v-248h-1235q36 20 189 226l385 529h-217v138h318q78 110 243 324q-60 2 -171 2q-351 0 -562 -23q-54 -5 -180 -27l50 203h1180q-14 -42 -149 -263z" />
    <glyph glyph-name="bracketleft" unicode="[" horiz-adv-x="823" 
d="M123 1379q86 -31 207 -31q110 0 219 24l-110 -186q-34 -9 -74 -9h-7q-10 1 -36 1l-41 1q-80 1 -84 1q0 -15 -1 -113l-11 -677q0 -14 8 -257q264 0 330 22q26 10 26 15q-19 -5 -110 -170h-439v209q0 71 3 188l10 504q2 78 2 194q0 200 -15 215z" />
    <glyph glyph-name="backslash" unicode="\" 
d="M265 844q-124 201 -219 419q-40 89 -46 109h206q16 -104 153 -366q65 -123 132 -193q114 -122 335 -441q130 -187 272 -372h-274q-7 2 -58 88l-124 204l-111 186q-68 105 -129 174t-137 192z" />
    <glyph glyph-name="bracketright" unicode="]" horiz-adv-x="823" 
d="M425 1379l124 -69q-15 -15 -15 -219q0 -105 2 -183l11 -511q2 -80 2 -190v-207h-439q-30 55 -53 93q-44 74 -57 77q0 -29 128 -35q35 -2 229 -2q6 185 7 257v23q0 55 -2 150l-11 617q-9 1 -28 1q-22 0 -65.5 -2t-64.5 -2q-54 0 -83 9l-110 186q110 -24 220 -24
q120 0 205 31z" />
    <glyph glyph-name="asciicircum" unicode="^" horiz-adv-x="823" 
d="M549 1098q-165 6 -274 137q-25 -46 -116 -91q-61 -31 -159 -46v137q81 15 168 60q60 31 107 77q0 -11 65 -58q46 -33 79 -51q57 -30 102 -30q20 0 28 2v-137z" />
    <glyph glyph-name="underscore" unicode="_" horiz-adv-x="823" 
d="M0 0v69h824v-69h-824z" />
    <glyph glyph-name="grave" unicode="`" horiz-adv-x="549" 
d="M138 1004l-138 138q61 0 124 154q21 52 30 76l121 -77q15 -1 15 -37q0 -105 -74 -200q-35 -46 -78 -54z" />
    <glyph glyph-name="a" unicode="a" 
d="M844 197v375q-80 148 -252 221q-70 31 -111 31q-106 0 -190.5 -82t-84.5 -186v-7q5 -246 128 -357q62 -54 147 -54q223 0 363 59zM840 95q-106 -61 -208 -82q-67 -13 -151 -13q-186 0 -322 124q-159 145 -159 425q0 128 66.5 230t184.5 149q85 35 193 35q7 0 37 -2
q238 -13 359 -131q-5 44 -16 131l247 -54q-41 -30 -41 -305q0 -281 34 -489q16 -96 34 -113h-274q12 2 16 95z" />
    <glyph glyph-name="b" unicode="b" 
d="M254 197q141 -59 364 -59q170 0 238 202q34 98 37 209v6q0 104 -85 186.5t-190 82.5q-69 0 -179 -65q-124 -76 -185 -187v-375zM258 95q5 -93 17 -95h-275q28 25 48 317q21 283 21 565q0 247 -19 367q-9 60 -22 69l247 54q-2 -33 -5 -132l-6 -194q-2 -65 -6 -216
q124 118 360 131q29 2 37 2q214 0 333 -128q110 -117 110 -286q0 -284 -158 -426q-136 -123 -322 -123q-125 0 -219 30q-54 17 -141 65z" />
    <glyph glyph-name="c" unicode="c" 
d="M926 686q-74 65 -258 116q-75 22 -114 22h-5q-79 -3 -161 -57q-74 -48 -124 -119q-58 -84 -58 -197v-3q0 -104 64 -185q60 -78 160 -114q65 -23 130 -23h123q193 0 294 29q62 17 121 51l-205 -206h-493q-218 0 -333 184q-67 107 -67 297q0 179 187 334q178 146 362 146
q136 0 306 -49q178 -51 243 -123z" />
    <glyph glyph-name="d" unicode="d" 
d="M481 138q97 0 195 63q90 58 149 145q65 97 68 203v6q0 104 -85 186.5t-190 82.5q-77 0 -184 -66q-83 -51 -144 -117q-84 -85 -84 -157v-3q8 -343 275 -343zM1051 747q47 -156 47 -198q0 -274 -224 -424q-187 -125 -393 -125q-201 0 -324 89q-157 116 -157 392
q0 186 213 334q186 129 387 145q-145 137 -297 247q-172 124 -303 165h275q57 0 181 -72q264 -156 478 -386q98 -105 117 -167z" />
    <glyph glyph-name="e" unicode="e" 
d="M249 585h646q-61 125 -208 202q-71 37 -133 37h-5q-80 -2 -173 -86q-73 -66 -127 -153zM206 448q5 -151 106 -239q95 -83 248 -83h123q193 0 294 29q62 17 121 51l-205 -206h-493q-218 0 -333 184q-67 107 -67 297q0 179 187 334q178 146 362 146q146 0 277 -78
q125 -76 201 -205q71 -120 71 -230h-892z" />
    <glyph glyph-name="f" unicode="f" horiz-adv-x="1029" 
d="M330 545q25 0 230 16q201 16 215 21q-20 -6 -110 -171h-333l12 -411l-248 55q26 17 35 175q5 71 7 181h-138v138h138q-5 279 -23 491q-8 87 -15 140q-14 110 -31 123l131 69l127 -94l90 63q41 27 90 27q92 0 182 -133l-140 -137q-25 109 -83 109q-53 0 -145 -104v-82
l1 -105l1 -114q0 -68 7 -257z" />
    <glyph glyph-name="g" unicode="g" 
d="M207 49q-94 57 -150.5 155t-56.5 207q0 281 159 426q136 124 322 124q197 0 359 -94q-4 93 -16 94h274q-27 -25 -33 -240q-3 -96 -3 -216v-33q1 -32 1 -57v-80l1 -181v-39q0 -91 -4 -115v-30q0 -183 -200 -287q-180 -94 -379 -94h-40q-296 0 -395 101q-46 47 -46 101
q0 102 62 162q35 33 145 96zM481 0h-7q-11 0 -39.5 2.5t-47.5 2.5q-28 0 -41 -5q-105 -40 -105 -176q7 -52 83 -79q58 -21 123 -21q16 0 34 1q92 9 212 85q135 85 135 167q0 13 -4 23q18 69 18 201q0 32 1 94.5t1 94.5v373q-142 61 -363 61q-158 0 -203 -188
q-22 -95 -25 -212v-8q0 -68 29 -134q65 -144 199 -144q22 0 65.5 -4.5t65.5 -4.5q142 0 212 85l-55 -142q-59 -54 -174 -65q-62 -4 -114 -7z" />
    <glyph glyph-name="h" unicode="h" 
d="M254 572q-1 -26 -1 -74v-138q0 -44 8 -189q9 -170 14 -171h-275q28 25 48 317q21 283 21 565q0 247 -19 367q-9 60 -22 69l247 54q-2 -33 -5 -132l-6 -194q-2 -65 -6 -216q125 119 360 131q31 2 37 2q177 0 305 -95q141 -104 141 -275q0 -19 -3 -44q-25 -186 -230 -375
q-84 -77 -147 -105l377 34l-103 -103h-651q205 91 373 260q170 172 176 289v7q0 49 -24 100q-34 72 -103.5 120t-147.5 48q-69 0 -179 -65q-124 -76 -185 -187z" />
    <glyph glyph-name="i" unicode="i" horiz-adv-x="549" 
d="M82 824l-82 27l275 110q-22 -412 -22 -669q0 -235 22 -237l-275 -55q49 44 92 411q18 149 18 258q0 136 -28 155zM165 1037l-132 88q76 0 154 144l120 -77q-20 -132 -142 -155z" />
    <glyph glyph-name="j" unicode="j" 
d="M346 0q-105 -42 -105 -176q7 -52 83 -79q58 -21 123 -21q16 0 34 1q92 9 212 85q135 85 135 167q0 13 -4 23q16 68 16 297l-1 268v-2q0 25 1 98q1 32 1 49q0 18 -1 21q0 26 -23.5 57t-47.5 36l329 137q-27 -25 -33 -240q-3 -96 -3 -216v-33q1 -32 1 -57v-80l1 -181v-39
q0 -91 -4 -115v-30q0 -183 -200 -287q-180 -94 -379 -94h-40q-296 0 -395 101q-46 47 -46 101q0 102 62 162q35 33 145 96zM920 1037l-132 88q76 0 154 144l120 -77q-21 -132 -142 -155z" />
    <glyph glyph-name="k" unicode="k" 
d="M258 830q-1 -69 -2 -173v-174q0 -481 19 -483h-275q28 25 48 317q21 283 21 565q0 247 -19 367q-9 60 -22 69l247 54q-2 -33 -5 -132zM1098 961q-16 -53 -175 -217q-105 -107 -213 -204q-132 -120 -161 -129l280 -222l130 -100q77 -57 134 -89h-269q-80 47 -286 203
l-263 208q165 88 483 389q126 119 135 161h205z" />
    <glyph glyph-name="l" unicode="l" horiz-adv-x="549" 
d="M28 1318l247 54q-22 -599 -22 -973q0 -342 22 -344l-275 -55q28 25 48 317q21 283 21 565q0 247 -19 367q-9 60 -22 69z" />
    <glyph glyph-name="m" unicode="m" horiz-adv-x="2059" 
d="M944 789q173 162 360 172l17 1q17 1 20 1q177 0 305 -95q141 -104 141 -275q0 -25 -2 -44q-27 -201 -183 -378q-68 -77 -126 -102l309 34l-104 -103h-514q190 83 301 254q103 160 111 295v10q0 97 -84 181q-83 84 -191 84q-69 0 -179 -65q-123 -75 -185 -187q0 -7 -1 -31
v-181q0 -29 9 -189q9 -170 13 -171h-247q45 42 45 466q0 105 -4 192q-5 84 -128 140q-49 21 -78 26q-119 0 -226 -121q-51 -57 -69 -131q-1 -26 -1 -74v-138q0 -44 8 -189q9 -170 14 -171h-275q34 33 55 288q14 179 14 314q0 277 -41 305l247 54q-17 -38 -17 -131
q123 117 291 131q29 2 51 2q120 0 212 -37q114 -44 132 -137z" />
    <glyph glyph-name="n" unicode="n" 
d="M254 572q-1 -26 -1 -74v-138q0 -44 8 -189q9 -170 14 -171h-275q34 33 55 288q14 179 14 314q0 277 -41 305l247 54q-17 -38 -17 -131q125 119 360 131q31 2 37 2q177 0 305 -95q141 -104 141 -275q0 -19 -3 -44q-27 -201 -182 -378q-68 -77 -127 -102l309 34l-103 -103
h-514q190 83 301 254q103 160 111 295v10q0 97 -84 181t-191 84q-69 0 -179 -65q-124 -76 -185 -187z" />
    <glyph glyph-name="o" unicode="o" 
d="M481 138q97 0 195 63q90 58 149 145q65 97 68 203v6q0 104 -85 186.5t-190 82.5q-77 0 -184 -66q-83 -51 -144 -117q-84 -85 -84 -157v-3q8 -343 275 -343zM618 961q30 2 37 2q214 0 333 -128q110 -117 110 -286q0 -274 -224 -424q-187 -125 -393 -125q-201 0 -324 89
q-157 116 -157 392q0 192 221 339q192 130 397 141z" />
    <glyph glyph-name="p" unicode="p" 
d="M254 763v-373q82 -150 252 -222q70 -30 112 -30q104 0 189.5 82.5t85.5 186.5v4q-7 248 -129 358q-60 55 -146 55q-221 0 -364 -61zM258 867q87 48 144 66q90 28 216 28q184 0 321 -123q159 -144 159 -427q0 -238 -199 -354q-100 -59 -244 -59q-5 0 -37 2
q-236 13 -360 130l17 -541l-247 54q41 27 41 437q0 283 -21 563q-6 91 -14 165q-16 137 -34 153h275q-12 -1 -17 -94z" />
    <glyph glyph-name="q" unicode="q" 
d="M844 763q-142 61 -363 61q-170 0 -240 -203q-32 -96 -35 -210v-4q0 -105 85 -187t190 -82q108 0 252 118q69 58 111 134v373zM840 867q-4 93 -16 94h274q-35 -35 -54 -421q-14 -267 -14 -460q0 -408 41 -437l-247 -54q7 178 16 541q-124 -117 -359 -130q-30 -2 -37 -2
q-282 0 -394 212q-50 96 -50 201q0 281 159 426q136 124 322 124q197 0 359 -94z" />
    <glyph glyph-name="r" unicode="r" 
d="M858 0q-114 0 -428 160l-155 81q241 54 412 132q191 89 206 176q2 16 2 32q0 130 -150 209q-64 34 -127 34q-69 0 -179 -65q-124 -76 -185 -187q-1 -26 -1 -74v-138q0 -44 8 -189q9 -170 14 -171h-275q34 33 55 288q14 179 14 314q0 277 -41 305l247 54q-17 -38 -17 -131
q125 119 360 131q31 2 37 2q177 0 305 -95q141 -104 141 -275q0 -18 -3 -44q-16 -125 -193 -205q-49 -23 -145 -54q-100 -34 -145 -54q0 -39 290 -164q120 -52 193 -72h-240z" />
    <glyph glyph-name="s" unicode="s" horiz-adv-x="1373" 
d="M1094 307q0 -307 -544 -307h-85q-194 0 -301 48q-149 68 -168 266h219q0 -121 124 -161q56 -19 105 -23q25 -1 117 -4q21 -1 35 -1q153 0 240 75q38 33 38 66q0 92 -254 92q-51 0 -71 -1t-51 -1q-279 0 -419 107q-78 59 -78 158q0 109 92 192q74 68 193 106
q128 42 264 42q191 0 335 -52q184 -67 213 -223h-273q-25 63 -171 97q-58 13 -96 13h-8q-165 -4 -259 -70q-49 -34 -49 -85q0 -58 67 -82q35 -13 82 -19q54 -8 159 -19q24 -2 181 -2q230 0 311 -73q52 -48 52 -139z" />
    <glyph glyph-name="t" unicode="t" horiz-adv-x="1029" 
d="M163 755h-163v138h29q26 -1 45 -1l122 -1q60 191 148 289l205 55q-111 -177 -175 -342q118 4 166 8q94 7 162 25q53 14 53 35l-69 -206h-355q-28 -111 -28 -206v-8q0 -107 21 -209q33 -151 104 -173q54 -29 138 -29q140 0 189 76l-69 -206h-411q-140 261 -140 509
q0 29 3 67q5 88 25 179z" />
    <glyph glyph-name="u" unicode="u" 
d="M845 390q2 97 2 167v44q0 31 -8 189q-10 170 -14 171h273q-34 -35 -54 -289q-14 -179 -14 -314q0 -271 41 -303l-246 -55q15 38 15 130q-124 -118 -358 -130q-10 -1 -37 -2h-5q-117 0 -217 46q-111 49 -171 144q-54 85 -54 180q0 24 3 43q18 142 121 297q94 143 188 185
l-309 -35l103 103h515q-186 -79 -300 -253q-99 -150 -112 -297q0 -108 83 -190.5t192 -82.5q108 0 251 118q70 58 112 134z" />
    <glyph glyph-name="v" unicode="v" 
d="M1098 549q0 -230 -197 -394q-186 -155 -420 -155q-92 0 -191 43q-97 41 -164 108q-72 71 -72 161q0 17 1 28q27 188 33 225q53 286 153 330l-241 -37l103 103h358q-130 -134 -170 -377q-15 -90 -28 -221q0 -128 135 -199q51 -26 80 -26h3q215 11 349 181q79 102 79 213
q0 148 -112 246q-51 45 -105 56l269 127q99 -26 124 -194q13 -84 13 -218z" />
    <glyph glyph-name="w" unicode="w" horiz-adv-x="1921" 
d="M1648 411q-9 -172 -152 -292q-128 -106 -260 -119q-27 -3 -54 -3q-193 0 -308 72q-64 39 -77 101q-67 -64 -87 -80q-101 -84 -228 -90q-11 -1 -37 -2h-5q-117 0 -217 46q-111 49 -171 144q-54 85 -54 180q0 24 3 43q31 235 118 376q46 72 101 97l-219 -26l103 103h374
q-177 -77 -230 -249q-23 -72 -29 -151q-4 -41 -12 -150v-8q0 -66 40 -129q88 -136 235 -136q79 0 171 91q72 70 120 161q2 75 2 156v55q0 35 -8 189q-9 170 -14 171h248q-47 -41 -47 -467q0 -110 6 -191q5 -97 138 -144q63 -21 133 -21h5q49 1 105 44q47 40 78 90
q37 62 37 136v3q-2 242 -85 409q-68 137 -108 141h276q56 -104 91 -274q19 -101 19 -210q0 -36 -1 -66z" />
    <glyph glyph-name="x" unicode="x" 
d="M440 425q-70 144 -107 206q-92 159 -140 165h-165l27 165h289q68 0 264 -354q84 91 153 174q125 147 132 180h205q-20 -68 -403 -514q67 -125 138 -241q59 -96 87 -96h178l-27 -110h-385q-37 14 -161 254q-222 -247 -250 -254h-275q76 40 440 425z" />
    <glyph glyph-name="y" unicode="y" 
d="M344 961q215 -141 257 -546q17 -159 17 -312l-184 -103q-8 382 -111 612q-50 114 -117 143h-206l69 206h275zM489 -406q-283 0 -412 158q-58 72 -58 160q0 79 50 157l170 103q-46 -107 -46 -193q0 -161 138 -225q66 -29 150 -29q37 0 94 144q46 111 139 483l72 289
q42 187 42 290q0 19 -4 30h274q-21 -33 -191 -611l-123 -415q-43 -148 -63 -210q-36 -47 -105 -89q-72 -42 -127 -42z" />
    <glyph glyph-name="z" unicode="z" 
d="M1098 961q-13 -47 -242 -324q-219 -265 -421 -482q97 -6 192 -6q326 0 431 65q34 22 40 34v-248h-1098q59 30 337 317q290 300 444 487q-62 2 -170 2q-32 0 -314 -22q-292 -22 -292 -26l50 203h1043z" />
    <glyph glyph-name="braceleft" unicode="{" horiz-adv-x="823" 
d="M549 0q-283 0 -370 297l-64 217q-49 151 -115 172q65 20 136 175q4 9 86 224q108 287 327 287q-84 -3 -138 -138q-22 -56 -56 -206q-40 -172 -46 -191q-43 -134 -103 -151q67 -26 91 -140l28 -175q24 -150 59 -224q54 -113 165 -147z" />
    <glyph glyph-name="bar" unicode="|" horiz-adv-x="549" 
d="M28 1318l247 54l-11 -438q-11 -440 -11 -841q0 -51 8 -234q9 -215 14 -216l-275 -54q28 25 48 411q21 371 21 747q0 330 -19 485q-9 77 -22 86z" />
    <glyph glyph-name="braceright" unicode="}" horiz-adv-x="823" 
d="M0 0q112 34 167 153q35 74 59 228q8 57 27 171q22 108 91 134q-62 17 -105 152q-9 31 -44 191q-33 149 -56 206q-55 134 -139 137q221 0 329 -287q73 -199 85 -224q70 -155 135 -175q-65 -22 -114 -171q-2 -6 -63 -215q-88 -300 -372 -300z" />
    <glyph glyph-name="asciitilde" unicode="~" horiz-adv-x="823" 
d="M549 1235q-40 -57 -95 -57q-33 0 -110 31q-84 35 -137 35q-112 0 -207 -146v137q75 136 170 136q45 0 128 -34q77 -32 119 -32q74 0 132 67v-137z" />
    <glyph glyph-name="exclamdown" unicode="&#xa1;" horiz-adv-x="672" 
 />
    <glyph glyph-name="cent" unicode="&#xa2;" horiz-adv-x="1139" 
 />
    <glyph glyph-name="sterling" unicode="&#xa3;" horiz-adv-x="1014" 
d="M748 1347q-72 31 -160 31h-2q-100 0 -190 -101q-84 -93 -84 -241q0 -15 1 -30q0 -135 53 -273h360v-60h-334q14 -30 31 -60q35 -63 35 -138q0 -161 -162 -375h402q130 0 189 132l49 -1l-103 -231h-719l1 50q187 238 187 418q0 77 -34 143q-17 32 -31 62h-161v60h135
q-58 143 -58 253q0 226 123.5 347t306.5 121h4q75 0 185.5 -14t110.5 -34v-161h-58q-5 61 -77 102z" />
    <glyph glyph-name="currency" unicode="&#xa4;" horiz-adv-x="1014" 
d="M350 560q41 -40 99 -57q29 -8 58 -8t58 8q58 17 99 57q40 41 57 99q9 29 9 58t-9 58q-17 58 -57 99q-41 40 -100 57q-29 8 -58 8t-58 -9q-58 -17 -98 -56q-39 -40 -56 -98q-10 -30 -10 -60q0 -28 9 -56q16 -59 57 -100zM240 903l-118 118l80 81l118 -118q44 30 99 46
q44 14 89 14q41 0 83 -12q57 -17 102 -48l118 118l80 -81l-117 -117q31 -46 48 -102q12 -42 12 -85q0 -42 -12 -85q-17 -56 -48 -102l117 -117l-80 -81l-118 118q-45 -32 -101 -48q-42 -12 -85 -12q-42 0 -85 12q-57 16 -102 48l-118 -118l-80 81l118 117q-32 46 -48 103
q-12 42 -12 84q0 44 13 87q16 55 47 99z" />
    <glyph glyph-name="yen" unicode="&#xa5;" horiz-adv-x="1262" 
d="M547 225l-2 242q0 19 -1.5 35t-4.5 32l-484 1q-14 0 -21 6.5t-7 19.5t6.5 19t21.5 6h467l-121 172h-344q-17 0 -23.5 5.5t-6.5 18.5q0 14 6 19.5t22 5.5h307q-43 57 -108 155q-131 197 -227 197q-7 0 -13 5.5t-6 11.5q0 19 10.5 27.5t32.5 8.5q27 0 123 -8t164 -8h57h31
q33 0 41 -6.5t8 -26.5q0 -8 -15 -14t-38 -6q-6 0 -18.5 2t-18.5 2q-24 0 -37.5 -9.5t-13.5 -25.5q0 -18 16.5 -52t46.5 -77l158 -221q13 -19 33 -53q41 -70 71 -70q9 0 16.5 5t14.5 15l277 396q8 12 13 26.5t5 24.5q0 18 -10 27t-37 14q-15 2 -41 4q-47 3 -47 25
q0 15 8 22.5t25 7.5q3 0 15 -1q56 -7 108 -7h139q30 0 65 1t37 1q11 0 18.5 -4.5t8.5 -11.5q0 -28 -38 -34q-18 -3 -27 -5q-63 -15 -147 -117l-12 -15l-169 -206h323q15 0 24 -6t9 -17q0 -15 -6 -20.5t-23 -5.5h-366q-46 -57 -96.5 -112.5t-52.5 -59.5h511q18 0 25.5 -5.5
t7.5 -17.5q0 -14 -7 -21t-22 -7h-530q0 -11 -1 -30.5t-1 -29.5l2 -215q0 -114 5.5 -150t20.5 -44q30 -17 107.5 -19t77.5 -31q0 -12 -10 -20t-25 -8q-2 0 -35.5 4t-64.5 4q-91 0 -208.5 -4t-142.5 -4q-31 0 -40 4t-9 16t8 18.5t37 12.5q9 2 25 5q74 16 92 32q17 13 24 47
t7 102z" />
    <glyph glyph-name="brokenbar" unicode="&#xa6;" horiz-adv-x="1014" 
d="M427 371h160v-789h-160v789zM427 1578h160v-789h-160v789z" />
    <glyph glyph-name="section" unicode="&#xa7;" horiz-adv-x="1014" 
d="M545 321q56 16 97 53q73 65 73 166q0 5 -1 10h-2q-1 14 -4 27q-22 61 -113 127q-59 29 -126 29q-78 0 -125 -44.5t-47 -117.5q0 -123 248 -250zM466 -346q113 6 185 69q72 64 72 165q0 125 -316 276q-123 64 -175.5 137t-52.5 177q0 148 89 237q67 65 170 82l-40 19
q-123 64 -175.5 137t-52.5 177q0 148 89 237q82 79 216 86q8 1 17 1h3q66 0 163 -16.5t97 -41.5v-194h-51q-5 81 -80 132q-70 47 -149 51h-15q-78 0 -125 -44.5t-47 -117.5q0 -132 287 -269q149 -67 204.5 -143.5t55.5 -187.5q0 -171 -101 -282q-47 -39 -99 -64
q108 -56 154 -118q55 -77 55 -187q0 -171 -101 -283q-124 -102 -277 -105v1q-6 -1 -13 -1h-3q-66 0 -163 16.5t-97 41.5v194h51q5 -81 80 -132q68 -45 145 -50z" />
    <glyph glyph-name="dieresis" unicode="&#xa8;" horiz-adv-x="1024" 
d="M223 1289l71 72q13 12 25 12q11 0 27 -14l69 -73q10 -14 10 -25q0 -13 -12 -27l-69 -75q-17 -17 -25 -17q-14 0 -25 12l-76 86q-9 12 -9 23q0 13 14 26zM588 1289l71 72q13 12 25 12q11 0 27 -13l69 -74q10 -14 10 -25q0 -13 -12 -26l-69 -76q-17 -17 -25 -17
q-14 0 -25 12l-76 87q-9 11 -9 22q0 13 14 26z" />
    <glyph glyph-name="copyright" unicode="&#xa9;" horiz-adv-x="1674" 
d="M840 1456q145 0 280 -56.5t239 -160.5q102 -101 158.5 -238t56.5 -283q0 -147 -56.5 -282t-162.5 -240q-105 -105 -239 -159.5t-283 -54.5q-146 0 -278 55.5t-238 160.5q-106 104 -161.5 237.5t-55.5 282.5q0 148 55.5 283t159.5 238q102 104 238.5 160.5t286.5 56.5z
M357 1197q-95 -96 -146 -219.5t-51 -259.5q0 -137 51 -259t148 -219q98 -96 219 -147t256 -51q137 0 259.5 50.5t219.5 145.5q97 98 149 221.5t52 258.5q0 134 -52 259.5t-145 219.5q-96 96 -220 147.5t-258 51.5q-137 0 -262 -51.5t-220 -147.5zM865 223q-142 0 -264 68
t-186 185t-64 243t65.5 244t187.5 184.5t254 66.5q38 0 75 -6.5t76 -20.5q5 -1 9 -1q19 0 26 30h42l72 -198h-44q-52 94 -131 124q-72 26 -147 26h-15q-86 -8 -166.5 -71t-121.5 -177q-33 -90 -33 -184q0 -25 2 -50q11 -121 69.5 -224t149.5 -152q72 -40 166 -42
q124 0 194 56t70 126h53v-100q0 -46 -96.5 -86.5t-242.5 -40.5z" />
    <glyph glyph-name="ordfeminine" unicode="&#xaa;" horiz-adv-x="648" 
 />
    <glyph glyph-name="guillemotleft" unicode="&#xab;" horiz-adv-x="944" 
d="M174 479l342 303h14v-37l-205 -266l205 -266v-37h-14zM487 479l342 303h14v-37l-205 -266l205 -266v-37h-14z" />
    <glyph glyph-name="logicalnot" unicode="&#xac;" horiz-adv-x="1014" 
d="M87 767h840v-491l-1 -1h-98v392h-741v100z" />
    <glyph glyph-name="registered" unicode="&#xae;" horiz-adv-x="1674" 
d="M751 1099v-374l3 -8q23 -56 56 -81q29 -22 56 -22h6q31 4 61.5 38.5t46.5 97.5q13 50 13 103q0 13 -1 27q-4 67 -28 124.5t-56.5 76t-63.5 18.5h-93zM984 576l82 -116q100 -141 150 -141h34v-50h-346v50h45q30 0 30 22q0 29 -69 114l-75 102q-42 0 -84 42v-159
q0 -121 36 -121h53v-50h-316v50h43q37 0 37 121v538q0 121 -37 121h-43v70h356q64 -1 125 -42q60 -41 92.5 -114t32.5 -152q0 -78 -32 -150.5t-114 -134.5zM840 1456q145 0 280 -56.5t239 -160.5q102 -101 158.5 -238t56.5 -283q0 -147 -56.5 -282t-162.5 -240
q-105 -105 -239 -159.5t-283 -54.5q-146 0 -278 55.5t-238 160.5q-106 104 -161.5 237.5t-55.5 282.5q0 148 55.5 283t159.5 238q102 104 238.5 160.5t286.5 56.5zM357 1197q-95 -96 -146 -219.5t-51 -259.5q0 -137 51 -259t148 -219q98 -96 219 -147t256 -51
q137 0 259.5 50.5t219.5 145.5q97 98 149 221.5t52 258.5q0 134 -52 259.5t-145 219.5q-96 96 -220 147.5t-258 51.5q-137 0 -262 -51.5t-220 -147.5z" />
    <glyph glyph-name="macron" unicode="&#xaf;" horiz-adv-x="670" 
 />
    <glyph glyph-name="degree" unicode="&#xb0;" horiz-adv-x="674" 
d="M339 1372q-86 0 -147.5 -61t-61.5 -148t61 -147t148 -60t147 60t60 147t-60.5 148t-146.5 61zM339 1442q115 0 196 -81.5t81 -196.5q0 -114 -82 -196t-197 -82q-117 0 -197 81t-80 197t81.5 197t197.5 81z" />
    <glyph glyph-name="plusminus" unicode="&#xb1;" horiz-adv-x="1014" 
 />
    <glyph glyph-name="uni00B2" unicode="&#xb2;" horiz-adv-x="1014" 
 />
    <glyph glyph-name="uni00B3" unicode="&#xb3;" horiz-adv-x="1014" 
 />
    <glyph glyph-name="acute" unicode="&#xb4;" horiz-adv-x="1024" 
d="M607 1375q35 35 55.5 47t40.5 12q33 0 53.5 -20t20.5 -51q0 -22 -15.5 -42t-46.5 -40l-330 -203h-69z" />
    <glyph glyph-name="mu" unicode="&#xb5;" horiz-adv-x="1180" 
 />
    <glyph glyph-name="paragraph" unicode="&#xb6;" horiz-adv-x="1024" 
d="M929 1435v-70h-127v-1365h-82v1365h-166v-1365h-84v738q-174 8 -275.5 102.5t-101.5 245.5q0 157 107.5 253t285.5 96h443z" />
    <glyph glyph-name="periodcentered" unicode="&#xb7;" horiz-adv-x="508" 
d="M145 740l82 84q15 14 29 14q13 0 31 -16l80 -86q12 -16 12 -29q0 -15 -14 -31l-80 -88q-20 -20 -29 -20q-16 0 -29 14l-88 101q-10 13 -10 26q0 15 16 31z" />
    <glyph glyph-name="periodcentered" unicode="&#x2219;" horiz-adv-x="508" 
d="M145 740l82 84q15 14 29 14q13 0 31 -16l80 -86q12 -16 12 -29q0 -15 -14 -31l-80 -88q-20 -20 -29 -20q-16 0 -29 14l-88 101q-10 13 -10 26q0 15 16 31z" />
    <glyph glyph-name="cedilla" unicode="&#xb8;" horiz-adv-x="1024" 
d="M360 -290q85 -52 152 -52q66 0 94.5 21.5t28.5 66.5t-49 64q-40 16 -102 16q-16 0 -34 -2l48 176h63l-37 -104q32 4 62 5q86 0 134 -40.5t48 -113.5q0 -76 -58.5 -120.5t-160.5 -44.5q-109 0 -189 32v96z" />
    <glyph glyph-name="uni00B9" unicode="&#xb9;" horiz-adv-x="1014" 
 />
    <glyph glyph-name="ordmasculine" unicode="&#xba;" horiz-adv-x="718" 
 />
    <glyph glyph-name="guillemotright" unicode="&#xbb;" horiz-adv-x="944" 
d="M115 176h-14v37l205 266l-205 266v37h14l342 -303zM428 176h-14v37l205 266l-205 266v37h14l342 -303z" />
    <glyph glyph-name="onequarter" unicode="&#xbc;" horiz-adv-x="1708" 
 />
    <glyph glyph-name="onehalf" unicode="&#xbd;" horiz-adv-x="1964" 
 />
    <glyph glyph-name="threequarters" unicode="&#xbe;" horiz-adv-x="1708" 
 />
    <glyph glyph-name="questiondown" unicode="&#xbf;" horiz-adv-x="748" 
 />
    <glyph glyph-name="Agrave" unicode="&#xc0;" horiz-adv-x="1540" 
 />
    <glyph glyph-name="Aacute" unicode="&#xc1;" horiz-adv-x="1540" 
 />
    <glyph glyph-name="Acircumflex" unicode="&#xc2;" horiz-adv-x="1540" 
 />
    <glyph glyph-name="Atilde" unicode="&#xc3;" horiz-adv-x="1540" 
 />
    <glyph glyph-name="Adieresis" unicode="&#xc4;" horiz-adv-x="1540" 
 />
    <glyph glyph-name="Aring" unicode="&#xc5;" horiz-adv-x="1540" 
 />
    <glyph glyph-name="AE" unicode="&#xc6;" horiz-adv-x="2118" 
 />
    <glyph glyph-name="Ccedilla" unicode="&#xc7;" horiz-adv-x="1399" 
 />
    <glyph glyph-name="Egrave" unicode="&#xc8;" horiz-adv-x="1151" 
 />
    <glyph glyph-name="Eacute" unicode="&#xc9;" horiz-adv-x="1151" 
 />
    <glyph glyph-name="Ecircumflex" unicode="&#xca;" horiz-adv-x="1151" 
 />
    <glyph glyph-name="Edieresis" unicode="&#xcb;" horiz-adv-x="1151" 
 />
    <glyph glyph-name="Igrave" unicode="&#xcc;" horiz-adv-x="657" 
 />
    <glyph glyph-name="Iacute" unicode="&#xcd;" horiz-adv-x="657" 
 />
    <glyph glyph-name="Icircumflex" unicode="&#xce;" horiz-adv-x="657" 
 />
    <glyph glyph-name="Idieresis" unicode="&#xcf;" horiz-adv-x="657" 
 />
    <glyph glyph-name="Eth" unicode="&#xd0;" horiz-adv-x="1518" 
 />
    <glyph glyph-name="Ntilde" unicode="&#xd1;" horiz-adv-x="1554" 
 />
    <glyph glyph-name="Ograve" unicode="&#xd2;" horiz-adv-x="1614" 
 />
    <glyph glyph-name="Oacute" unicode="&#xd3;" horiz-adv-x="1614" 
 />
    <glyph glyph-name="Ocircumflex" unicode="&#xd4;" horiz-adv-x="1614" 
 />
    <glyph glyph-name="Otilde" unicode="&#xd5;" horiz-adv-x="1614" 
 />
    <glyph glyph-name="Odieresis" unicode="&#xd6;" horiz-adv-x="1614" 
 />
    <glyph glyph-name="multiply" unicode="&#xd7;" horiz-adv-x="1014" 
d="M507 618l-247 -247l-99 99l247 247l-247 248l99 98l247 -247l248 247l98 -99l-247 -247l247 -247l-99 -99z" />
    <glyph glyph-name="Oslash" unicode="&#xd8;" horiz-adv-x="1614" 
 />
    <glyph glyph-name="Ugrave" unicode="&#xd9;" horiz-adv-x="1501" 
 />
    <glyph glyph-name="Uacute" unicode="&#xda;" horiz-adv-x="1501" 
 />
    <glyph glyph-name="Ucircumflex" unicode="&#xdb;" horiz-adv-x="1501" 
 />
    <glyph glyph-name="Udieresis" unicode="&#xdc;" horiz-adv-x="1501" 
 />
    <glyph glyph-name="Yacute" unicode="&#xdd;" horiz-adv-x="1233" 
 />
    <glyph glyph-name="Thorn" unicode="&#xde;" horiz-adv-x="1120" 
 />
    <glyph glyph-name="germandbls" unicode="&#xdf;" horiz-adv-x="1251" 
 />
    <glyph glyph-name="agrave" unicode="&#xe0;" horiz-adv-x="922" 
 />
    <glyph glyph-name="aacute" unicode="&#xe1;" horiz-adv-x="922" 
 />
    <glyph glyph-name="acircumflex" unicode="&#xe2;" horiz-adv-x="922" 
 />
    <glyph glyph-name="atilde" unicode="&#xe3;" horiz-adv-x="922" 
 />
    <glyph glyph-name="adieresis" unicode="&#xe4;" horiz-adv-x="922" 
 />
    <glyph glyph-name="aring" unicode="&#xe5;" horiz-adv-x="922" 
 />
    <glyph glyph-name="ae" unicode="&#xe6;" horiz-adv-x="1454" 
 />
    <glyph glyph-name="ccedilla" unicode="&#xe7;" horiz-adv-x="905" 
 />
    <glyph glyph-name="egrave" unicode="&#xe8;" horiz-adv-x="909" 
 />
    <glyph glyph-name="eacute" unicode="&#xe9;" horiz-adv-x="909" 
 />
    <glyph glyph-name="ecircumflex" unicode="&#xea;" horiz-adv-x="909" 
 />
    <glyph glyph-name="edieresis" unicode="&#xeb;" horiz-adv-x="909" 
 />
    <glyph glyph-name="igrave" unicode="&#xec;" horiz-adv-x="514" 
 />
    <glyph glyph-name="iacute" unicode="&#xed;" horiz-adv-x="514" 
 />
    <glyph glyph-name="icircumflex" unicode="&#xee;" horiz-adv-x="514" 
 />
    <glyph glyph-name="idieresis" unicode="&#xef;" horiz-adv-x="514" 
 />
    <glyph glyph-name="eth" unicode="&#xf0;" horiz-adv-x="1139" 
 />
    <glyph glyph-name="ntilde" unicode="&#xf1;" horiz-adv-x="1108" 
 />
    <glyph glyph-name="ograve" unicode="&#xf2;" horiz-adv-x="1010" 
 />
    <glyph glyph-name="oacute" unicode="&#xf3;" horiz-adv-x="1010" 
 />
    <glyph glyph-name="ocircumflex" unicode="&#xf4;" horiz-adv-x="1010" 
 />
    <glyph glyph-name="otilde" unicode="&#xf5;" horiz-adv-x="1010" 
 />
    <glyph glyph-name="odieresis" unicode="&#xf6;" horiz-adv-x="1010" 
 />
    <glyph glyph-name="divide" unicode="&#xf7;" horiz-adv-x="1014" 
d="M87 647v140h839l1 -1v-139h-840zM398 408l82 84q15 14 29 14q13 0 31 -16l80 -86q12 -16 12 -29q0 -15 -14 -31l-80 -88q-20 -20 -29 -20q-16 0 -29 14l-88 101q-10 13 -10 26q0 15 16 31zM398 1101l82 84q15 14 29 14q13 0 31 -16l80 -86q12 -16 12 -29q0 -15 -14 -31
l-80 -88q-20 -20 -29 -20q-16 0 -29 14l-88 101q-10 13 -10 26q0 15 16 31z" />
    <glyph glyph-name="oslash" unicode="&#xf8;" horiz-adv-x="1010" 
 />
    <glyph glyph-name="ugrave" unicode="&#xf9;" horiz-adv-x="1059" 
 />
    <glyph glyph-name="uacute" unicode="&#xfa;" horiz-adv-x="1059" 
 />
    <glyph glyph-name="ucircumflex" unicode="&#xfb;" horiz-adv-x="1059" 
 />
    <glyph glyph-name="udieresis" unicode="&#xfc;" horiz-adv-x="1059" 
 />
    <glyph glyph-name="yacute" unicode="&#xfd;" horiz-adv-x="868" 
 />
    <glyph glyph-name="thorn" unicode="&#xfe;" horiz-adv-x="1010" 
 />
    <glyph glyph-name="ydieresis" unicode="&#xff;" horiz-adv-x="868" 
 />
    <glyph glyph-name="dotlessi" unicode="&#x131;" horiz-adv-x="514" 
d="M328 223q0 -173 100 -173h46v-50h-442v50h46q100 0 100 173v432q0 77 -111 77h-48v44q222 69 261 182h48v-735z" />
    <glyph glyph-name="circumflex" unicode="&#x2c6;" horiz-adv-x="1024" 
d="M221 1079l232 355h118l232 -355h-58l-233 216l-233 -216h-58z" />
    <glyph glyph-name="caron" unicode="&#x2c7;" horiz-adv-x="1024" 
d="M221 1434h58l233 -214l233 214h58l-232 -356h-118z" />
    <glyph glyph-name="uni02C9" unicode="&#x2c9;" horiz-adv-x="1024" 
d="M254 1195v125h516v-125h-516z" />
    <glyph glyph-name="breve" unicode="&#x2d8;" horiz-adv-x="1024" 
d="M219 1349h51q17 -73 75 -107t167 -34t166 33.5t74 107.5h51q-20 -133 -94 -201.5t-197 -68.5q-122 0 -197 69t-96 201z" />
    <glyph glyph-name="dotaccent" unicode="&#x2d9;" horiz-adv-x="1024" 
d="M422 1289l69 72q6 6 13 9t14 3q6 0 12.5 -3t12.5 -9l71 -76q5 -4 7 -10t2 -14q-1 -9 -3 -15t-8 -12l-71 -76q-12 -11 -16 -13.5t-7 -2.5q-10 0 -16.5 2.5t-10.5 8.5l-75 87q-4 4 -6 9.5t-2 13.5q0 6 3 12.5t11 13.5z" />
    <glyph glyph-name="ring" unicode="&#x2da;" horiz-adv-x="1024" 
d="M411 1257q0 -42 29 -71t71 -29t71 29t29 71q0 40 -29.5 69.5t-70.5 29.5t-70.5 -29.5t-29.5 -69.5zM335 1257q0 75 51 126t125 51q76 0 127.5 -51.5t51.5 -125.5q0 -75 -51.5 -126.5t-127.5 -51.5q-74 0 -125 51.5t-51 126.5z" />
    <glyph glyph-name="ogonek" unicode="&#x2db;" horiz-adv-x="1024" 
d="M640 0q-71 -62 -110.5 -119.5t-39.5 -112.5q0 -47 27 -75t73 -28q40 0 69.5 15.5t49.5 48.5l28 -16q-36 -63 -90.5 -97t-119.5 -34q-70 0 -114 35.5t-44 90.5q0 76 60.5 156.5t161.5 135.5h49z" />
    <glyph glyph-name="tilde" unicode="&#x2dc;" horiz-adv-x="1024" 
d="M808 1382q-20 -103 -68.5 -154t-126.5 -51h-4q-50 0 -113 23q-66 24 -114 24q-39 0 -60.5 -20.5t-33.5 -71.5h-54q19 106 68 158.5t129 52.5q46 -1 113 -24q64 -23 112 -23h4q36 0 58 20t36 66h54z" />
    <glyph glyph-name="hungarumlaut" unicode="&#x2dd;" horiz-adv-x="1024" 
d="M217 1079l144 273q24 44 45.5 63t46.5 19q28 0 48 -20t20 -47q0 -16 -10.5 -35t-30.5 -41l-205 -212h-58zM502 1079l144 273q24 44 45.5 63t46.5 19q28 0 48 -20t20 -47q0 -16 -10.5 -35t-30.5 -41l-205 -212h-58z" />
    <glyph glyph-name="endash" unicode="&#x2013;" horiz-adv-x="1108" 
d="M56 419v120h996v-120h-996z" />
    <glyph glyph-name="emdash" unicode="&#x2014;" horiz-adv-x="2048" 
d="M0 419v120h2048v-120h-2048z" />
    <glyph glyph-name="quoteleft" unicode="&#x2018;" horiz-adv-x="557" 
d="M319 1016q-44 0 -88.5 65.5t-44.5 151.5q0 109 71 226.5t139 117.5v-43q-73 -43 -87 -190q0 -119 129 -161v-42z" />
    <glyph glyph-name="quoteright" unicode="&#x2019;" horiz-adv-x="557" 
d="M238 1577q44 0 88.5 -65.5t44.5 -151.5q0 -109 -71 -226.5t-139 -117.5v43q73 43 87 190q0 119 -129 161v42z" />
    <glyph glyph-name="quotesinglbase" unicode="&#x201a;" horiz-adv-x="557" 
d="M238 281q44 0 88.5 -65.5t44.5 -151.5q0 -109 -71 -226.5t-139 -117.5v43q73 43 87 190q0 119 -129 161v42z" />
    <glyph glyph-name="quotedblleft" unicode="&#x201c;" horiz-adv-x="910" 
d="M319 1016q-44 0 -88.5 65.5t-44.5 151.5q0 109 71 226.5t139 117.5v-43q-73 -43 -87 -190q0 -119 129 -161v-42zM672 1016q-44 0 -88.5 65.5t-44.5 151.5q0 109 71 226.5t139 117.5v-43q-73 -43 -87 -190q0 -119 129 -161v-42z" />
    <glyph glyph-name="quotedblright" unicode="&#x201d;" horiz-adv-x="910" 
d="M238 1577q44 0 88.5 -65.5t44.5 -151.5q0 -109 -71 -226.5t-139 -117.5v43q73 43 87 190q0 119 -129 161v42zM591 1577q44 0 88.5 -65.5t44.5 -151.5q0 -109 -71 -226.5t-139 -117.5v43q73 43 87 190q0 119 -129 161v42z" />
    <glyph glyph-name="quotedblbase" unicode="&#x201e;" horiz-adv-x="910" 
d="M238 281q44 0 88.5 -65.5t44.5 -151.5q0 -109 -71 -226.5t-139 -117.5v43q73 43 87 190q0 119 -129 161v42zM591 281q44 0 88.5 -65.5t44.5 -151.5q0 -109 -71 -226.5t-139 -117.5v43q73 43 87 190q0 119 -129 161v42z" />
    <glyph glyph-name="dagger" unicode="&#x2020;" horiz-adv-x="1014" 
d="M486 1022q-8 97 -54 178q-57 101 -57 129q0 49 36 78.5t96 29.5q57 0 94.5 -27.5t37.5 -71.5q0 -32 -55 -137q-46 -85 -55 -179q96 8 177 54q101 57 129 57q49 0 79 -36t30 -96q0 -57 -27.5 -94.5t-72.5 -37.5q-32 0 -136 55q-85 46 -179 57q8 -176 110 -277
q-106 -460 -112 -974h-38q-6 514 -114 974q102 101 111 277q-96 -10 -178 -55q-101 -57 -129 -57q-49 0 -78.5 36t-29.5 96q0 57 27.5 94.5t71.5 37.5q32 0 137 -56q85 -46 179 -55z" />
    <glyph glyph-name="daggerdbl" unicode="&#x2021;" horiz-adv-x="1014" 
d="M528 186q94 11 179 57q104 55 136 55q45 0 72.5 -37.5t27.5 -94.5q0 -60 -30 -96t-79 -36q-28 0 -129 57q-81 46 -177 54q9 -94 55 -179q55 -105 55 -137q0 -44 -37.5 -71.5t-94.5 -27.5q-60 0 -96 29.5t-36 78.5q0 28 57 129q46 81 54 178q-94 -9 -179 -55
q-105 -56 -137 -56q-44 0 -71.5 37.5t-27.5 94.5q0 60 29.5 96t78.5 36q28 0 129 -57q82 -45 178 -55q-9 226 -111 398q102 171 111 397q-96 -10 -178 -55q-101 -57 -129 -57q-49 0 -78.5 36t-29.5 96q0 57 27.5 94.5t71.5 37.5q32 0 137 -56q85 -46 179 -55q-8 97 -54 178
q-57 101 -57 129q0 49 36 78.5t96 29.5q57 0 94.5 -27.5t37.5 -71.5q0 -32 -55 -137q-46 -85 -55 -179q96 8 177 54q101 57 129 57q49 0 79 -36t30 -96q0 -57 -27.5 -94.5t-72.5 -37.5q-32 0 -136 55q-85 46 -179 57q8 -226 110 -397q-102 -172 -110 -398z" />
    <glyph glyph-name="bullet" unicode="&#x2022;" horiz-adv-x="1024" 
d="M216 718q0 123 87 209t210 86q122 0 208.5 -86.5t86.5 -208.5t-87.5 -209.5t-209.5 -87.5q-123 0 -209 87t-86 210z" />
    <glyph glyph-name="ellipsis" unicode="&#x2026;" horiz-adv-x="2048" 
d="M145 167l82 84q15 14 29 14q13 0 31 -16l80 -86q12 -16 12 -29q0 -15 -14 -31l-80 -88q-20 -20 -29 -20q-16 0 -29 14l-88 101q-10 13 -10 26q0 15 16 31zM828 167l82 84q15 14 29 14q13 0 31 -16l80 -86q12 -16 12 -29q0 -15 -14 -31l-80 -88q-20 -20 -29 -20
q-16 0 -29 14l-88 101q-10 13 -10 26q0 15 16 31zM1511 167l82 84q15 14 29 14q13 0 31 -16l80 -86q12 -16 12 -29q0 -15 -14 -31l-80 -88q-20 -20 -29 -20q-16 0 -29 14l-88 101q-10 13 -10 26q0 15 16 31z" />
    <glyph glyph-name="guilsinglleft" unicode="&#x2039;" horiz-adv-x="631" 
d="M174 479l342 303h14v-37l-205 -266l205 -266v-37h-14z" />
    <glyph glyph-name="guilsinglright" unicode="&#x203a;" horiz-adv-x="631" 
d="M115 176h-14v37l205 266l-205 266v37h14l342 -303z" />
    <glyph glyph-name="fraction" unicode="&#x2044;" horiz-adv-x="342" 
d="M-342 -29l940 1461h84l-938 -1461h-86z" />
    <glyph glyph-name="fraction" unicode="&#x2215;" horiz-adv-x="342" 
d="M-342 -29l940 1461h84l-938 -1461h-86z" />
    <glyph glyph-name="franc" unicode="&#x20a3;" horiz-adv-x="1014" 
d="M247 357h-194v60h194v732q0 235 -103 235h-96v50h915l103 -231h-49q-59 182 -190 182l-316 -1q-102 0 -102 -235v-352h361q100 0 100 63v58h50v-342h-50v60q0 62 -100 62h-361v-281h194v-60h-194v-72q0 -235 102 -235h97v-50h-560v50h96q103 0 103 235v72z" />
    <glyph glyph-name="lira" unicode="&#x20a4;" horiz-adv-x="1014" 
d="M748 1347q-72 31 -160 31h-2q-100 0 -190 -101q-84 -93 -84 -241q0 -15 1 -30q0 -106 33 -213h380v-60h-360q12 -30 26 -60h352v-60h-321q35 -63 35 -138q0 -161 -162 -375h402q130 0 189 132l49 -1l-103 -231h-719l1 50q187 238 187 418q0 77 -34 143l-2 2h-172v60h143
l-26 60h-135v60h113q-36 107 -36 193q0 226 123.5 347t310.5 121q75 0 185.5 -14t110.5 -34v-161h-58q-5 61 -77 102z" />
    <glyph glyph-name="peseta" unicode="&#x20a7;" horiz-adv-x="2028" 
d="M409 1384v-662q3 -9 7 -17q41 -102 108 -153q57 -44 116 -44q10 0 19 1q68 8 127 75t87 177q22 87 22 179q0 24 -1 47q-7 116 -49.5 218.5t-108.5 144.5q-56 35 -112 35q-10 0 -21 -1h-194zM1496 908h-179v-685q0 -81 34 -119q28 -31 81 -37l-71 192l49 1
q55 -130 114 -174q57 -44 127 -44h7q92 0 151 52q59 53 59 136q0 102 -259 226q-101 52 -144 112t-43 145q0 121 73 194zM1039 910q-7 -101 -48 -194q-50 -114 -141 -177.5t-190 -63.5q-100 0 -191 64q-33 22 -60 51v-305q0 -235 102 -235h97v-50h-560v50h96q103 0 103 235
v864q0 235 -103 235h-96v50h618q92 -2 181 -62q91 -62 143 -177q50 -113 51 -237h10q216 0 216 355h50v-355h259q42 19 110 20h2q54 0 133.5 -13.5t79.5 -33.5v-159h-42q-4 66 -65.5 108t-133.5 42q-64 0 -102.5 -36.5t-38.5 -96.5q0 -108 235 -220q122 -55 167.5 -117.5
t45.5 -153.5q0 -140 -83 -231q-102 -84 -228 -86q-58 0 -105 11q-28 6 -56 6q-18 0 -36 -3q-28 -5 -59 -5q-124 0 -173.5 57t-57.5 176h-1v687h-129z" />
    <glyph glyph-name="Euro" unicode="&#x20ac;" horiz-adv-x="1014" 
d="M140 372q-62 135 -76 281h-108l17 60h87v29q0 16 1 31h-71l17 60h58q14 145 76 281q81 178 226 274t298 96q43 0 87 -8q40 -10 82 -29q8 -6 16 -6q20 0 34 45h41l84 -281l-40 -1q-49 134 -138 178q-43 22 -81 32v3q-50 16 -101 16q-17 0 -34 -2q-120 -12 -226 -113.5
t-157 -273.5q-32 -104 -39 -211h706l-17 -60h-692q0 -30 2 -60h674l-17 -60h-652q17 -158 83 -298q74 -157 193 -236q102 -68 216 -69q186 3 256 91q74 91 74 185h48v-143q0 -70 -111 -127q-105 -54 -267 -56q-181 0 -325.5 98t-223.5 274z" />
    <glyph glyph-name="afii61352" unicode="&#x2116;" horiz-adv-x="2271" 
 />
    <glyph glyph-name="trademark" unicode="&#x2122;" horiz-adv-x="1497" 
 />
    <glyph glyph-name="partialdiff" unicode="&#x2202;" horiz-adv-x="1014" 
d="M232 537q0 -41 5 -79q14 -122 61.5 -230t118.5 -165q64 -53 128 -53q6 0 13 1q70 5 127.5 70.5t80.5 179.5q16 73 16 149q0 42 -5 85q-14 122 -62.5 231.5t-119.5 165.5q-65 50 -128 50h-11q-68 -5 -126 -69.5t-82 -178.5q-16 -84 -16 -157zM937 477q0 -132 -56.5 -251
t-159 -185t-214.5 -66t-214.5 66t-159 185t-56.5 251q0 131 58 251t161 185t211 65q109 0 212 -65q29 -18 54 -41q-84 235 -233.5 377t-326.5 155v55q306 0 515 -285t209 -697z" />
    <glyph glyph-name="Delta" unicode="&#x2206;" horiz-adv-x="1081" 
d="M514 1195l-406 -1072h801zM547 1434l526 -1434h-1067z" />
    <glyph glyph-name="product" unicode="&#x220f;" horiz-adv-x="1515" 
d="M511 1384q-102 0 -102 -235v-1281q0 -235 102 -235h97v-51h-560v51h96q103 0 103 235v1281q0 235 -103 235h-96v50h1419v-50h-97q-102 0 -102 -235v-1281q0 -235 102 -235h97v-50h-560v50h96q103 0 103 235v1281q0 235 -103 235h-492z" />
    <glyph glyph-name="summation" unicode="&#x2211;" horiz-adv-x="1206" 
d="M1059 548l-788 -914h635q130 0 189 182h49l-103 -232h-921v50q62 0 106 53l663 781l-663 859q-44 57 -106 57v50h921l103 -232h-49q-59 182 -189 182h-485z" />
    <glyph glyph-name="minus" unicode="&#x2212;" horiz-adv-x="1014" 
d="M87 647v140h839l1 -1v-139h-840z" />
    <glyph glyph-name="radical" unicode="&#x221a;" horiz-adv-x="1014" 
d="M181 0l-164 359l74 35l85 -185l728 1470h150v-60h-72z" />
    <glyph glyph-name="infinity" unicode="&#x221e;" horiz-adv-x="1014" 
d="M439 755q-15 103 -74 133q-46 22 -84 22q-12 0 -23 -2q-49 -10 -92.5 -44.5t-65.5 -84.5q-20 -46 -20 -90v-8q2 -48 27.5 -89t71.5 -58q29 -11 61 -11q16 0 33 3q47 10 90.5 43.5t75.5 185.5zM466 687q12 -96 94 -153q69 -48 123 -48q11 0 21 2q62 12 117.5 52t84.5 101
q26 54 26 108v11q-2 60 -35.5 108.5t-91.5 68.5q-37 13 -76 13q-22 0 -44 -4q-67 -9 -127 -62t-92 -197zM450 827q9 35 21 69q34 88 95 137t128 49t128 -48t95 -135t34 -182t-34 -182t-95 -135t-128 -48t-128 49t-95 136q-12 35 -21 70q-5 -21 -12 -41q-27 -73 -74 -113
t-99 -40t-100 41t-73.5 113.5t-25.5 149.5q0 76 25.5 149t73.5 114t100 41t99 -40t74 -112q7 -21 12 -42z" />
    <glyph glyph-name="integral" unicode="&#x222b;" horiz-adv-x="665" 
d="M-12 -281q-60 0 -60 29v159h36q1 -43 34.5 -64.5t63.5 -21.5h1q82 0 115 162q32 162 40 316l70 734l8 62q27 238 135 429.5t234 191.5q60 0 60 -29v-159h-36q-1 43 -35 64.5t-63 21.5q-71 0 -116 -155.5t-49 -363.5l-73 -767q-20 -231 -130.5 -420t-234.5 -189z" />
    <glyph glyph-name="approxequal" unicode="&#x2248;" horiz-adv-x="1014" 
d="M923 1053v-156q-63 -72 -122 -97.5t-116 -25.5q-60 0 -177.5 48.5t-176.5 48.5q-51 0 -107.5 -28t-129.5 -112v156q64 73 123 99t114 26q64 0 181.5 -49.5t172.5 -49.5q52 0 108.5 28t129.5 112zM923 705v-156q-63 -72 -122 -97.5t-116 -25.5q-60 0 -177.5 48.5
t-176.5 48.5q-51 0 -107.5 -28t-129.5 -112v156q64 73 123 99t114 26q64 0 181.5 -49.5t172.5 -49.5q52 0 108.5 28t129.5 112z" />
    <glyph glyph-name="lessequal" unicode="&#x2264;" horiz-adv-x="1014" 
d="M927 1074l-625 -359l625 -355v-167l-840 481v83l840 484v-167zM87 1v140h839l1 -1v-139h-840z" />
    <glyph glyph-name="greaterequal" unicode="&#x2265;" horiz-adv-x="1014" 
d="M87 1241l840 -484v-83l-840 -481v167l625 355l-625 359v167zM87 2v140h839l1 -1v-139h-840z" />
    <glyph glyph-name="uniF001" unicode="&#xf001;" horiz-adv-x="1073" 
 />
    <glyph glyph-name="uniF001" unicode="&#xfb01;" horiz-adv-x="1073" 
 />
    <glyph glyph-name="uniF002" unicode="&#xf002;" horiz-adv-x="1081" 
 />
    <glyph glyph-name="uniF002" unicode="&#xfb02;" horiz-adv-x="1081" 
 />
  </font>
</defs>
</svg>
