<?xml version="1.0" standalone="no"?> <!DOCTYPE svg PUBLIC "-//W3C//DTD SVG 1.0//EN" "http://www.w3.org/TR/2001/REC-SVG-20010904/DTD/svg10.dtd" > <svg xmlns="http://www.w3.org/2000/svg" width="100%" height="100%">
<defs >
<font horiz-adv-x="1059" ><font-face
    font-family="Cyrodiil"
    units-per-em="2048"
    panose-1="2 0 5 0 0 0 0 0 0 0"
    ascent="1953"
    descent="-733"
    alphabetic="0" />
<missing-glyph horiz-adv-x="1600" d="M0 0T0 200V1300Q0 1500 200 1500H1300Q1500 1500 1500 1300V200Q1500 0 1300 0H200Q0 0 0 200ZM1475 25T1475 201V1300Q1475 1475 1300 1475H200Q26 1475 25 1300V200Q26 25 200 25H1301Q1475 25 1475 201Z" />
<glyph unicode=" " glyph-name="space" horiz-adv-x="1000" />
<glyph unicode="!" glyph-name="exclam" horiz-adv-x="433" d="M141 1417Q144 1419 154 1419Q192 1419 279 1302V488L213 395L95 469L68 1252L0 1290L141 1419V1417ZM333 141Q333 125 291 65Q249 8 222 -8Q217 -9 209 -9Q194 -9 177 -4L63 122L181 255L215 266L333 141Z" />
<glyph unicode="&quot;" glyph-name="quotedbl" horiz-adv-x="913" d="M467 1205Q517 1298 635 1383Q692 1322 813 1178Q794 1157 752 1077Q711 998 642 859L568 842L576 1055Q561 1081 536 1119Q509 1155 471 1207L467 1205ZM6 1212Q48 1296 169 1391Q207 1349
249 1298Q291 1246 340 1184Q325 1165 281 1085Q238 1005 169 863L97 846L105 1058Q89 1081 63 1119Q38 1157 0 1207V1208L6 1212Z" />
<glyph unicode="#" glyph-name="numbersign" horiz-adv-x="1135" d="M476 874H572L568 1102L641 1219Q644 1219 779 1102L776 874H1035L949 735H775L773 585H1033L947 445H771L769 248L703 155L585 229L581 445H471L469 248L403 155L285 229L281 445H2Q17 471
44 505Q70 540 108 585H278L275 735H2V737Q23 768 49 802Q76 836 110 874H272L268 1102L341 1219Q344 1219 479 1102L476 874ZM575 735H475L473 585H578L575 735Z" />
<glyph unicode="$" glyph-name="dollar" horiz-adv-x="1310" d="M391 745Q492 745 504 747L585 1150Q578 1151 562 1155Q547 1159 524 1169Q504 1176 485 1180Q467 1184 456 1184Q336 1184 287 1146Q226 1100 226 971Q226 849 287 787Q333 741 390 741L391 745ZM498
171Q593 125 762 125Q1009 125 1009 426Q1009 505 920 597Q821 699 709 699Q623 699 593 692L498 175V171ZM622 799Q769 882 847 882Q929 882 1051 796Q1210 682 1210 515Q1210 279 1005 137Q800 -4 464 -4L437 -137Q369 -179 304 -186L350 27Q268 59 181 105Q93
150 0 203Q30 226 74 260Q118 295 175 340Q274 251 399 209L486 627Q416 578 333 578H315Q190 587 112 667Q32 751 32 853Q32 1062 230 1195Q382 1296 543 1296H578Q599 1296 625 1294L648 1419Q694 1454 762 1480L720 1283Q808 1256 895 1218Q982 1180 1074 1131L906
1013H868L682 1112L622 799Z" />
<glyph unicode="%" glyph-name="percent" horiz-adv-x="1193" d="M134 1007L135 1006Q135 660 309 660Q371 660 371 757Q371 904 313 1003Q261 1090 202 1090Q134 1090 134 1007ZM0 872Q0 1015 66 1119Q136 1229 247 1229Q352 1229 430 1143Q517 1047 517 887Q517
717 448 615Q377 511 256 511Q132 511 63 631Q5 731 5 873L0 872ZM710 496L711 495Q711 149 884 149Q946 149 946 246Q946 393 888 492Q837 579 778 579Q710 579 710 496ZM576 361Q576 504 641 608Q712 718 823 718Q927 718 1006 632Q1093 536 1093 376Q1093 206
1024 104Q953 0 831 0Q708 0 638 120Q580 219 580 362L576 361ZM766 1224Q844 1269 937 1286L333 -2Q247 -49 162 -49L766 1226V1224Z" />
<glyph unicode="&amp;" glyph-name="ampersand" horiz-adv-x="1527" d="M718 726Q931 836 1246 836Q1347 836 1427 817L1404 733Q1324 752 1248 752Q1112 752 971 694Q984 695 1022 695H1123Q1180 695 1239 631Q1307 551 1307 445Q1307 -4 540 -4Q338 -4 167 213Q0
426 0 646Q0 903 160 1081Q274 1207 462 1286Q587 1340 637 1340Q823 1340 933 1302Q1081 1256 1207 1131L958 1047Q802 1208 536 1208Q388 1208 296 1060Q217 927 215 758V752Q215 498 386 317Q557 135 821 135Q961 135 1041 196Q1121 257 1121 374Q1121 568 920
644Q908 646 899 646Q857 646 811 623L724 722L718 726ZM648 798L553 654H241L317 798H648Z" />
<glyph unicode="&apos;" glyph-name="quotesingle" horiz-adv-x="442" d="M8 1212Q49 1296 171 1391Q209 1349 251 1298Q293 1246 342 1184Q331 1165 312 1138Q295 1112 268 1075L169 865L97 847L105 1060Q89 1083 63 1121Q38 1159 0 1208V1210L8 1212Z" />
<glyph unicode="(" glyph-name="parenleft" horiz-adv-x="655" d="M464 6Q486 6 547 19L555 -46Q433 -99 306 -99Q158 -99 74 53Q0 192 0 393Q0 646 78 855Q167 1102 350 1227L412 1174Q319 1115 255 899Q224 798 209 692Q194 585 194 473Q194 287 258 158Q334
8 464 8V6Z" />
<glyph unicode=")" glyph-name="parenright" horiz-adv-x="708" d="M0 1227Q21 1246 51 1262Q82 1279 116 1290Q150 1302 184 1309Q219 1317 245 1317Q405 1317 509 1203Q608 1093 608 952Q608 226 209 -47L201 89Q308 150 371 329Q424 481 424 659Q424 861 338
1032Q253 1195 158 1195Q122 1195 67 1172L6 1226V1227H0Z" />
<glyph unicode="*" glyph-name="asterisk" horiz-adv-x="932" d="M330 1088L318 1269L401 1393L529 1309L521 1086L689 1153L832 1112L792 965L577 903L693 764L699 616L545 609L421 793L325 640L185 589L131 733L268 908L93 952L1 1070L121 1165L330 1088Z" />
<glyph unicode="+" glyph-name="plus" horiz-adv-x="786" d="M263 697H4V699H0Q21 730 48 764Q74 798 108 836H257L248 1029L331 1153L459 1069V836H686L599 697H459V459L393 386L275 444L263 697Z" />
<glyph unicode="," glyph-name="comma" horiz-adv-x="467" d="M28 161Q73 256 190 340Q283 241 367 135Q285 -9 200 -142Q116 -274 27 -395L0 -260L182 13Q106 65 28 161Z" />
<glyph unicode="-" glyph-name="hyphen" horiz-adv-x="786" d="M0 699Q21 730 48 764Q74 798 108 836H686L599 697H4V699H0Z" />
<glyph unicode="." glyph-name="period" horiz-adv-x="406" d="M2 157Q51 243 167 333Q215 272 249 226Q283 179 306 148Q272 110 230 76Q188 42 139 8Q97 42 63 80Q29 118 2 156V157Z" />
<glyph unicode="/" glyph-name="slash" horiz-adv-x="875" d="M604 1290Q682 1336 775 1353L171 65Q86 17 0 17L604 1292V1290Z" />
<glyph unicode="0" glyph-name="zero" horiz-adv-x="987" d="M181 903L182 901Q182 125 574 125Q711 125 711 342Q711 673 581 893Q467 1087 334 1087Q181 1087 181 903ZM0 616Q0 861 112 1039Q234 1229 424 1229Q604 1229 739 1081Q887 916 887 642Q887 350 770
175Q648 -4 439 -4Q226 -4 108 201Q8 372 8 618L0 616Z" />
<glyph unicode="1" glyph-name="one" horiz-adv-x="516" d="M416 1229V4H150L173 101V986Q125 1005 76 1005Q38 1005 0 994L11 1051H19Q68 1051 156 1108Q201 1138 243 1169Q285 1199 331 1229H416Z" />
<glyph unicode="2" glyph-name="two" horiz-adv-x="928" d="M741 171Q783 194 806 211L828 169L752 -2H4Q23 78 118 179Q175 241 327 374Q481 511 551 587Q612 694 612 792V798Q610 912 519 994Q429 1077 319 1077Q232 1077 175 1022Q120 969 70 840L0 961Q68
1066 179 1136Q304 1218 422 1218Q570 1218 688 1121Q817 1015 817 838Q817 764 775 657Q456 429 228 201V167H737V169L741 171Z" />
<glyph unicode="3" glyph-name="three" horiz-adv-x="970" d="M832 950Q832 794 646 733Q764 663 817 583Q870 504 870 388Q870 224 741 106Q616 -11 428 -11Q165 -11 0 171Q57 247 139 274Q169 239 200 205Q230 171 260 137Q336 68 431 68Q656 68 656 325Q656
435 599 504Q513 602 327 602L350 667Q498 701 562 766Q619 823 619 882Q619 946 551 1020Q485 1093 428 1093Q405 1093 367 1100Q329 1108 312 1108Q205 1108 106 906L11 958Q49 1015 97 1062Q144 1110 201 1148Q333 1233 462 1233Q595 1233 705 1165Q830 1087
830 954V956L832 950Z" />
<glyph unicode="4" glyph-name="four" horiz-adv-x="949" d="M695 433H849V300H695V0H435L477 129L469 319H0Q30 452 203 752Q327 967 395 1085Q464 1205 477 1231Q602 1208 694 1136V429L695 433ZM403 952T371 895Q340 836 314 783Q245 654 205 566Q165 479 152
431H477V1024L443 1026Q403 952 371 895Z" />
<glyph unicode="5" glyph-name="five" horiz-adv-x="957" d="M177 733Q283 847 443 847H454Q618 846 735 728Q857 606 857 426Q857 239 739 118Q606 -15 390 -15Q152 -15 0 122Q25 181 101 245Q154 167 238 116Q321 65 403 65Q642 65 642 346Q642 471 555 580Q469
690 348 690Q196 690 86 564L99 1208H787L688 1030H179Q152 817 152 756Q152 737 154 732H177V733Z" />
<glyph unicode="6" glyph-name="six" horiz-adv-x="940" d="M219 692Q355 842 494 842Q642 842 741 732Q840 621 840 450Q840 241 699 105Q581 -9 464 -9Q262 -9 129 152Q0 312 0 555Q0 823 173 1024Q344 1226 593 1226H629Q648 1226 665 1224L654 1148Q631 1150
612 1150Q433 1150 331 1024Q224 899 222 697L219 692ZM219 583Q219 353 315 232Q403 122 547 122Q625 122 656 154Q686 186 686 276Q686 481 576 595Q485 692 363 692Q314 692 272 665Q219 633 219 583Z" />
<glyph unicode="7" glyph-name="seven" horiz-adv-x="925" d="M80 1193H825L773 1060Q713 977 659 885Q604 794 555 692Q441 458 441 321Q441 167 536 167Q608 167 614 169L534 -11Q519 -13 504 -13Q439 -13 378 17Q253 82 253 247Q253 350 435 650Q492 743 549
834Q606 925 663 1018Q485 1034 319 1034Q194 1034 72 1026L0 984L80 1189V1193Z" />
<glyph unicode="8" glyph-name="eight" horiz-adv-x="951" d="M181 996Q181 885 348 792Q473 720 523 720Q568 720 602 749Q644 787 644 849Q644 986 507 1068Q405 1131 325 1131Q247 1131 217 1104Q179 1074 179 998L181 996ZM154 376Q154 251 302 162Q428 84
549 84Q694 84 694 230Q694 348 585 429Q574 439 509 477Q443 515 321 583Q276 583 226 538Q160 477 160 374V376H154ZM811 938Q811 849 743 787Q732 777 697 754Q663 730 604 692Q726 625 771 583Q851 511 851 416Q851 230 722 112Q593 -9 420 -9Q260 -9 139 70Q0
158 0 291Q0 433 68 521Q137 608 270 614Q207 648 163 676Q120 703 99 726Q25 800 25 899Q25 1060 177 1151Q293 1224 439 1224Q458 1224 479 1222Q604 1214 707 1132Q811 1047 811 938Z" />
<glyph unicode="9" glyph-name="nine" horiz-adv-x="959" d="M0 796Q0 998 160 1127Q285 1231 395 1231Q616 1231 745 1058Q859 899 859 675Q859 346 682 167Q513 -2 236 -4L253 61Q395 61 517 152Q654 253 654 414Q654 452 635 511Q504 397 340 397H329Q184 399
86 536Q2 654 2 794L0 796ZM163 931Q165 773 251 656Q346 526 486 526Q540 526 578 549Q593 562 608 574Q623 585 638 600Q638 1087 262 1087Q160 1087 160 941V931H163Z" />
<glyph unicode=":" glyph-name="colon" horiz-adv-x="404" d="M1 169Q56 267 163 342Q198 300 232 255Q266 209 304 160Q270 122 228 87Q186 53 137 23Q56 92 1 169ZM1 678Q50 770 163 855Q190 825 224 779Q258 733 304 673Q270 635 228 600Q186 566 137 532Q60
598 1 678Z" />
<glyph unicode=";" glyph-name="semicolon" horiz-adv-x="469" d="M27 707Q80 806 190 887Q232 838 266 790Q300 745 327 703Q293 665 253 629Q213 595 163 561Q86 625 25 709L27 707ZM28 162Q78 254 190 340Q228 298 274 247Q319 196 369 133Q289 -11 205 -144Q122
-275 27 -397L0 -262L182 11Q144 38 106 76Q69 113 28 162Z" />
<glyph unicode="&lt;" glyph-name="less" horiz-adv-x="754" d="M209 840L654 315L452 209L15 697L0 804L494 1222L557 1155L211 840V842L209 840Z" />
<glyph unicode="=" glyph-name="equal" horiz-adv-x="735" d="M2 737Q23 768 49 802Q76 836 110 874H635L549 735H2V737ZM2 445Q17 471 44 505Q70 540 108 585H633L547 445H2Z" />
<glyph unicode="&gt;" glyph-name="greater" horiz-adv-x="744" d="M630 707H629L644 600Q542 515 420 410Q298 308 154 182L97 251Q154 304 238 380Q321 458 437 564Q365 652 255 781Q144 912 0 1087L198 1193L630 707Z" />
<glyph unicode="?" glyph-name="question" horiz-adv-x="925" d="M0 1072Q80 1193 194 1269Q319 1351 452 1351Q593 1351 703 1275Q825 1193 825 1064Q825 956 714 846Q616 743 475 690Q464 663 447 625Q428 587 405 538Q367 513 336 494Q306 475 281 460L342
764Q604 809 604 1003Q604 1106 505 1170Q418 1227 300 1227Q236 1227 188 1159Q167 1125 144 1091Q122 1056 99 1022L2 1072H0ZM237 147Q304 249 399 298Q426 272 460 230Q494 188 536 137Q498 95 456 61Q414 27 372 0Q296 61 237 147Z" />
<glyph unicode="@" glyph-name="at" horiz-adv-x="1375" d="M564 789Q564 656 638 559Q716 451 849 451Q910 451 941 466Q948 470 963 481Q979 491 999 512L994 998Q925 1044 884 1057Q832 1075 751 1075L737 1076Q724 1078 713 1078Q568 1078 568 789V790L564
789ZM691 1153Q597 1172 488 1172Q344 1172 272 1062Q211 967 211 808V809L209 808Q209 498 371 331Q542 150 880 150Q1005 150 1080 220L1182 243Q1160 220 1134 198Q910 -4 659 -4Q380 -4 190 194Q0 395 0 692Q0 931 201 1125Q403 1319 650 1319Q903 1319 1123
1155Q1145 1139 1165 1122Q1191 1106 1210 1087V1079Q1213 1077 1215 1074L1210 1067V466L1207 464L1275 441Q1214 354 1132 319Q1045 361 984 430Q851 330 741 330Q576 330 475 441Q380 545 380 698Q380 941 578 1086Q635 1128 691 1153Z" />
<glyph unicode="A" glyph-name="A" horiz-adv-x="1377" d="M513 1167Q353 1167 300 1064Q262 996 262 842V758Q262 690 257 652H941L899 1017Q625 1165 515 1165V1167H513ZM1193 113L1277 72L1136 -66H1094L973 13L939 542H251L141 57L0 -42L61 148L95 923Q198
1053 270 1138Q342 1224 384 1265Q469 1349 543 1349Q703 1349 878 1281Q961 1246 1034 1205Q1106 1163 1167 1108L1193 113Z" />
<glyph unicode="B" glyph-name="B" horiz-adv-x="1362" d="M834 939Q1007 923 1129 821Q1262 711 1262 551Q1262 264 1024 120Q811 -6 454 -6Q420 -6 340 4Q260 13 131 32L86 1113L0 1182Q42 1284 131 1357H169Q276 1303 344 1207Q380 1227 414 1250Q448 1273
486 1296Q583 1349 678 1349Q773 1349 922 1281Q979 1254 1020 1231Q1062 1208 1085 1189L1098 1113L834 965L840 939H834ZM509 61T650 61Q808 61 918 137Q1051 228 1051 403Q1051 580 929 690Q815 787 675 787Q580 787 473 762L488 819L842 1024Q811 1108 722
1157Q642 1199 549 1199Q450 1199 333 1123L344 120V122Q509 61 650 61Z" />
<glyph unicode="C" glyph-name="C" horiz-adv-x="1147" d="M2 646Q2 893 158 1094Q344 1340 661 1340Q815 1340 910 1286Q963 1256 1047 1163L865 1053Q667 1186 447 1186Q312 1186 247 1064Q192 967 192 827Q192 502 363 336Q511 192 754 186H792Q863 186 916
192Q984 200 1026 219L844 -13Q787 -15 737 -15H650Q304 -15 129 234Q0 416 0 646V648L2 646Z" />
<glyph unicode="D" glyph-name="D" horiz-adv-x="1403" d="M226 1315Q295 1326 382 1332Q469 1338 580 1338Q849 1338 1051 1197Q1303 1022 1303 694Q1303 405 1117 207Q1017 97 882 44Q749 -9 581 -9Q372 -9 106 19V996L270 1098V1125H258Q201 1125 124 1140Q13
1163 0 1201V1273L112 1364H127Q137 1364 146 1362Q192 1321 222 1313L226 1315ZM314 106Q435 76 733 76Q882 76 977 194Q1083 331 1083 580Q1083 809 946 971Q790 1151 528 1151Q443 1151 405 1132Q386 1123 363 1104Q340 1085 314 1055V106Z" />
<glyph unicode="E" glyph-name="E" horiz-adv-x="1223" d="M809 186Q1015 186 1094 232Q1098 232 1108 230Q1117 228 1121 228L933 -4Q815 -15 682 -15Q363 -15 181 165Q0 348 0 663Q0 988 224 1178Q418 1341 682 1341Q830 1341 1123 1189Q1049 1121 942 1060Q868
1098 821 1121Q773 1144 751 1151Q621 1193 435 1193Q234 1193 207 868H880L796 732H200Q200 188 809 188V186Z" />
<glyph unicode="F" glyph-name="F" horiz-adv-x="1042" d="M276 1250Q255 1248 230 1246L228 882H859L758 735L226 758L220 2H0V1321Q78 1322 200 1322Q325 1322 492 1321Q665 1313 779 1309Q893 1305 942 1298L846 1165Q572 1248 329 1248H276V1250Z" />
<glyph unicode="G" glyph-name="G" horiz-adv-x="1421" d="M209 773L213 771Q213 498 395 310Q574 124 819 124Q944 124 1036 188Q1134 260 1134 386Q1134 542 1017 652Q910 745 785 745Q739 745 602 699L587 766L944 990Q923 1089 794 1153Q676 1214 559 1214Q405
1214 302 1070Q210 938 209 773ZM942 895Q956 897 967 897Q1070 897 1172 827Q1321 732 1321 549Q1321 287 1115 133Q929 -8 656 -8Q395 -8 198 182Q0 372 0 635Q0 975 274 1180Q486 1341 711 1341Q851 1341 988 1284Q1129 1226 1210 1132L937 920V897L942 895Z"
/>
<glyph unicode="H" glyph-name="H" horiz-adv-x="1215" d="M255 880Q319 941 422 982Q517 1020 583 1020Q808 1020 954 903Q1115 773 1115 545Q1115 279 969 114Q844 -27 703 -27Q619 -27 513 40L627 194Q768 112 815 112Q868 112 903 194Q931 266 931 374Q931
587 798 732Q665 876 479 876Q331 876 236 781L201 -6L0 0V1326L961 1311L882 1203Q870 1201 859 1201Q825 1201 790 1227L234 1262L253 874V876L255 880Z" />
<glyph unicode="I" glyph-name="I" horiz-adv-x="326" d="M226 -11L0 -4V1330H224L226 -11Z" />
<glyph unicode="J" glyph-name="J" horiz-adv-x="828" d="M112 1329Q262 1273 409 1273Q486 1273 578 1296Q616 1305 652 1317Q690 1328 728 1338L631 1113V-8Q631 -38 581 -112Q519 -198 426 -255Q312 -327 169 -327Q112 -327 55 -315V-270Q203 -258 257 -234Q401
-167 401 27V961L536 1178H505Q369 1104 213 1104Q118 1104 0 1146L112 1329Z" />
<glyph unicode="K" glyph-name="K" horiz-adv-x="1276" d="M1077 834L1075 827Q1022 751 920 678Q897 663 851 637Q804 608 735 566Q1070 369 1176 91L975 -11Q914 106 785 243Q612 422 483 422H410V471L827 692Q796 798 694 851Q599 897 479 897Q312 897 219
796L217 2H0V1343Q78 1347 200 1347Q321 1347 485 1343Q656 1340 768 1336Q878 1332 929 1324L834 1189Q568 1275 329 1275H277Q255 1275 228 1273L226 874Q475 1036 597 1036Q904 1036 1077 834Z" />
<glyph unicode="L" glyph-name="L" horiz-adv-x="1103" d="M158 120Q355 236 585 236Q828 236 1003 163L859 -9Q792 -6 667 32Q606 51 547 63Q490 74 433 76H395Q190 76 46 0Q27 -4 0 -4L23 939Q27 1083 198 1212Q369 1341 545 1341Q648 1341 846 1262L673 1132Q504
1222 401 1227H393Q352 1227 310 1210Q257 1184 253 1138L222 264L158 120Z" />
<glyph unicode="M" glyph-name="M" horiz-adv-x="2114" d="M1271 1309T1408 1309Q1657 1309 1835 1127Q2014 941 2014 682Q2014 477 1841 238Q1784 160 1727 97Q1670 36 1613 -9H1571Q1784 308 1784 597Q1784 789 1657 963Q1520 1150 1322 1165H1309Q1264 1165
1218 1142Q1191 1131 1169 1119Q1146 1108 1119 1096L1074 2H868L861 1001Q830 1043 678 1112Q534 1178 481 1178Q359 1178 276 1037Q200 910 200 770Q200 600 293 418Q380 239 502 146L329 4Q171 101 84 268Q0 428 0 606V614Q4 861 171 1070Q350 1290 576 1290Q732
1290 849 1241Q899 1218 952 1195Q1005 1172 1058 1150Q1271 1309 1408 1309Z" />
<glyph unicode="N" glyph-name="N" horiz-adv-x="1360" d="M354 1173L353 1170Q566 1319 695 1319Q914 1319 1081 1178Q1260 1028 1260 811Q1260 578 1167 409Q1140 359 986 165Q1058 135 1085 135Q1089 135 1100 139Q1113 143 1131 148Q1148 152 1167 156Q1186
160 1201 160Q1218 160 1227 158L1131 36Q1074 21 1024 13Q975 6 937 4Q865 4 808 30V95Q1039 312 1039 627Q1039 859 889 1024Q745 1176 566 1176Q536 1176 350 1096L331 2H106L99 1104L0 1146L19 1212L141 1322H182L354 1173Z" />
<glyph unicode="O" glyph-name="O" horiz-adv-x="1472" d="M0 692Q0 931 201 1125Q403 1319 650 1319Q903 1319 1123 1155Q1372 969 1372 684Q1372 410 1134 198Q910 -4 659 -4Q380 -4 190 194Q0 395 0 692ZM209 808Q209 498 371 331Q542 150 880 150Q1188 150
1188 568Q1188 868 975 1030Q787 1172 488 1172Q344 1172 272 1062Q211 967 211 808V809L209 808Z" />
<glyph unicode="P" glyph-name="P" horiz-adv-x="1434" d="M350 1182Q528 1315 749 1315Q1026 1315 1195 1110Q1334 944 1334 773Q1334 443 1163 234Q986 10 680 10Q532 10 327 112L300 -256Q137 -298 103 -298Q91 -298 91 1131L0 1180Q61 1265 163 1343Q285 1283
350 1180V1182ZM505 260Q547 239 589 217Q631 194 673 171Q752 133 823 133Q838 133 853 135Q990 150 1062 287Q1123 409 1123 568Q1123 825 961 1003Q802 1180 566 1180Q441 1180 338 1075L323 144L471 258H502V260H505Z" />
<glyph unicode="Q" glyph-name="Q" horiz-adv-x="1479" d="M1326 82H1379L1311 -9Q1296 -13 1273 -13Q1250 -13 1220 -9Q1163 17 1115 48Q1068 78 1030 112Q870 2 657 2Q344 2 165 192Q0 365 0 650Q0 906 154 1074Q264 1195 447 1260Q564 1302 638 1302Q923 1302
1132 1142Q1355 969 1355 716Q1355 595 1305 448Q1248 285 1174 217L1332 76L1326 82ZM186 752Q186 475 361 304Q540 133 836 133Q986 133 1074 255Q1153 365 1153 524Q1153 825 944 1007Q747 1174 462 1174Q333 1174 257 1034Q190 916 190 760V762L186 752Z" />
<glyph unicode="R" glyph-name="R" horiz-adv-x="1483" d="M1008 674T1161 486Q1326 285 1383 87Q1326 38 1205 -51Q1003 504 555 650L600 713L1013 944Q986 1022 861 1083Q735 1144 610 1144Q441 1144 346 1034L283 -11H99L80 1094L0 1129Q38 1212 141 1288L226
1265L348 1112Q397 1138 443 1165Q488 1191 538 1218Q595 1248 650 1260Q707 1271 764 1271Q1081 1271 1265 1058L1216 994L870 777L886 726H884Q885 725 887 724Q1008 674 1161 486Z" />
<glyph unicode="S" glyph-name="S" horiz-adv-x="1312" d="M435 741Q496 741 642 808Q794 876 847 876Q992 876 1102 766Q1212 656 1212 511Q1212 310 1022 154Q832 2 566 2Q300 2 0 207L173 344Q291 266 428 205Q599 129 699 129Q866 129 931 190Q1007 255 1007
426Q1007 521 878 621Q756 713 697 713Q684 713 521 644Q363 578 306 578Q196 578 110 657Q27 739 27 846Q27 1051 190 1176Q342 1294 559 1294Q661 1294 808 1248Q954 1203 1072 1131L904 1013H866Q564 1180 405 1180Q308 1180 258 1100Q220 1039 220 960Q220
861 281 800Q342 739 431 739V741H435Z" />
<glyph unicode="T" glyph-name="T" horiz-adv-x="1232" d="M283 1302L336 1298Q391 1294 505 1290Q623 1284 720 1281Q819 1277 893 1275H984Q1106 1275 1132 1279Q1132 1256 1119 1229Q1108 1205 1085 1182Q1062 1159 1034 1140Q1005 1123 975 1115H610Q485 1043
420 912Q357 787 357 638Q357 410 524 293Q665 192 893 192Q1018 192 1104 211L975 2Q960 0 912 0H779Q498 0 333 148Q154 304 154 578Q154 903 519 1121Q414 1138 321 1138Q112 1138 0 1060Q34 1144 114 1218Q201 1294 283 1294V1302Z" />
<glyph unicode="U" glyph-name="U" horiz-adv-x="1396" d="M1250 146L1296 93L1131 -9Q1032 51 944 146L656 -2Q621 -8 557 -8Q325 -8 171 163Q27 325 27 538Q27 876 291 1104Q230 1165 131 1165Q82 1165 0 1142L125 1279Q201 1307 228 1307Q253 1307 342 1269Q388
1250 422 1231Q458 1214 488 1195Q226 963 226 614Q226 405 367 276Q509 143 722 143Q884 143 971 257L922 1112L872 1142L1051 1296L1180 1205L1246 144V146H1250Z" />
<glyph unicode="V" glyph-name="V" horiz-adv-x="1381" d="M1013 1305Q1281 1270 1281 996Q1281 882 1140 646Q1094 572 1028 473Q960 372 866 243Q785 133 743 70Q701 6 694 -9Q675 -13 665 -13Q576 -13 448 120L99 1098L0 1136L19 1207L141 1324Q148 1326 156
1326Q198 1326 243 1300Q304 1269 327 1208L722 171H756Q764 190 790 232Q817 274 865 338Q963 479 1009 578Q1083 735 1083 876Q1083 960 1034 1032Q984 1110 918 1110Q903 1110 884 1104V1161L1013 1305Z" />
<glyph unicode="W" glyph-name="W" horiz-adv-x="2065" d="M1687 1297Q1721 1294 1759 1281Q1801 1265 1851 1239Q1965 1174 1965 1104Q1965 895 1799 545Q1644 213 1465 4Q1376 30 1311 61L1026 749L652 8Q602 13 559 29Q515 42 481 68Q454 86 363 344Q272 602
106 1102Q68 1136 27 1136Q15 1136 0 1132V1186L139 1321Q188 1321 241 1290Q302 1252 321 1199L648 260L697 224L986 923L868 1132H815V1193L933 1311Q1005 1302 1094 1260Q1169 1203 1514 203H1549Q1826 656 1826 1001Q1826 1055 1727 1089Q1651 1113 1556 1113L1568
1170L1687 1297Z" />
<glyph unicode="X" glyph-name="X" horiz-adv-x="1479" d="M730 954Q760 1083 904 1201Q1045 1311 1167 1311Q1227 1311 1379 1250L1214 1100Q1140 1146 1068 1146Q923 1146 840 1005Q766 880 766 714Q766 517 872 359Q982 194 1142 194H1343L1195 0Q1176 -2 1157
-2Q963 -2 804 124Q663 238 618 386Q564 241 471 135Q357 2 236 2Q129 2 0 44V101L146 230Q211 184 325 184Q447 184 511 302Q572 416 572 618V633Q570 857 441 999Q312 1144 110 1144Q65 1144 10 1134L169 1309H179Q357 1309 479 1245Q623 1163 730 958V954Z"
/>
<glyph unicode="Y" glyph-name="Y" horiz-adv-x="1362" d="M1015 1322Q1018 1326 1032 1326Q1081 1326 1167 1275Q1262 1218 1262 1165Q1262 933 1102 648Q1083 618 1011 507Q939 397 806 203Q646 -27 646 -144Q646 -165 737 -199L555 -283Q534 -230 534 -179Q534
-87 599 46Q587 51 570 59Q551 68 526 78Q500 89 481 97Q464 106 450 112L101 1093L0 1138V1203L122 1324Q175 1324 247 1269Q325 1212 350 1138L680 203Q714 198 737 198H749Q768 236 802 296Q836 357 891 441Q937 509 967 566Q998 623 1017 671Q1070 811 1070
982Q1070 1032 1009 1085Q948 1138 891 1138Q884 1138 872 1134L1013 1321V1322H1015Z" />
<glyph unicode="Z" glyph-name="Z" horiz-adv-x="1324" d="M743 931H756Q946 931 1075 828Q1224 716 1224 523Q1224 336 1018 167Q806 -4 547 -4Q473 -4 393 4Q314 11 226 30Q156 44 99 59Q42 76 0 91L148 277Q403 124 650 124Q830 124 908 184Q999 253 1001 420V426Q1001
570 897 667Q783 773 600 773Q555 773 477 747Q395 724 350 724V800L811 1104V1131Q752 1119 707 1115Q661 1112 627 1112Q623 1112 581 1115Q540 1119 452 1127Q365 1134 300 1138Q236 1142 186 1142Q87 1142 8 1085L15 1150Q293 1321 450 1321Q496 1321 553 1317Q610
1313 682 1305Q825 1294 885 1294Q908 1294 944 1296Q980 1298 1030 1302Q1079 1305 1117 1307Q1155 1309 1186 1309L1121 1224L724 973L743 935V931Z" />
<glyph unicode="[" glyph-name="bracketleft" horiz-adv-x="826" d="M726 1436L642 1239L302 1231L279 133L192 -84L724 -38L623 -224L0 -243L86 -13L112 1096L412 1406L726 1436Z" />
<glyph unicode="\" glyph-name="backslash" horiz-adv-x="875" d="M171 1292L775 17Q690 17 604 65L0 1353Q93 1336 171 1290V1292Z" />
<glyph unicode="]" glyph-name="bracketright" horiz-adv-x="830" d="M110 1410L730 1429L644 1205L618 87L350 -213L0 -251L87 -53L429 -46L450 1049L542 1269L545 1303L6 1226L112 1408V1410H110Z" />
<glyph unicode="^" glyph-name="asciicircum" horiz-adv-x="1166" d="M730 1892L1066 1607L929 1421Q815 1511 585 1701L380 1480L302 1545L623 1902L733 1892H730Z" />
<glyph unicode="_" glyph-name="underscore" horiz-adv-x="1185" d="M6 -232T25 -201Q44 -171 82 -114L1085 -95L1020 -217L0 -236V-234Q6 -232 25 -201Z" />
<glyph unicode="`" glyph-name="grave" horiz-adv-x="1020" d="M305 1776Q377 1844 490 1938L920 1429L847 1406Q720 1478 585 1571Q451 1663 305 1776Z" />
<glyph unicode="a" glyph-name="a" horiz-adv-x="995" d="M827 137L895 112Q834 17 752 -21Q665 25 604 101Q471 -9 361 -9Q196 -9 95 112Q0 226 0 393Q0 659 198 817Q344 935 477 935Q570 935 669 908Q775 878 830 819V139L827 137ZM184 492Q184 348 258 241Q336
124 469 124Q530 124 561 141Q568 144 583 156Q599 167 619 190L614 722Q545 771 504 787Q452 806 371 806L357 808Q344 809 333 809Q188 809 188 492V494L184 492Z" />
<glyph unicode="b" glyph-name="b" horiz-adv-x="921" d="M196 190H201Q365 110 483 110Q570 110 608 160Q657 228 657 399Q657 547 570 676Q483 806 357 806Q276 806 215 752L196 190ZM226 836Q369 941 445 941Q608 939 714 821Q821 703 821 534Q821 238 642
95Q517 -4 369 -4Q160 -4 0 125L27 1273L224 1340V834L226 836Z" />
<glyph unicode="c" glyph-name="c" horiz-adv-x="799" d="M0 441Q0 665 144 815Q262 937 380 937Q561 937 699 827Q637 743 568 694Q353 827 315 827Q241 827 207 737Q177 667 177 562Q177 150 568 150H625L612 148Q640 150 682 171Q644 106 519 -8Q302 -8 162
97Q0 219 0 439V441Z" />
<glyph unicode="d" glyph-name="d" horiz-adv-x="1004" d="M211 458L213 452Q213 308 319 209Q426 112 566 112Q756 112 756 374Q756 509 661 650Q580 775 450 866Q214 798 211 458ZM11 1165Q45 1213 82 1254Q120 1296 158 1330Q904 889 904 477Q904 291 752 143Q604
-6 407 -6Q251 -6 125 131Q0 264 0 424Q0 591 118 724Q228 853 395 906Q192 1074 11 1165Z" />
<glyph unicode="e" glyph-name="e" horiz-adv-x="885" d="M305 809L306 808Q181 808 181 555L595 543Q568 808 305 809ZM0 372Q0 602 114 764Q232 925 409 925Q553 925 667 840Q785 749 785 612Q785 542 773 473L181 481Q196 146 583 146Q678 146 735 179Q686
63 587 0Q553 -4 526 -8Q500 -11 485 -11Q295 -11 146 103Q0 215 0 371V372Z" />
<glyph unicode="f" glyph-name="f" horiz-adv-x="564" d="M84 1170Q198 1328 253 1328Q285 1328 464 1222L350 1100Q336 1106 314 1121Q291 1136 257 1157Q215 1184 177 1184V1051Q177 979 276 929Q357 891 433 891H452L445 789H319L312 -6H80L99 798H0L19 863L53
870L78 1172V1174L84 1170Z" />
<glyph unicode="g" glyph-name="g" horiz-adv-x="991" d="M633 547L699 671Q637 732 496 770Q386 800 314 800Q205 800 205 538Q205 137 490 137Q580 137 659 203L633 545V547ZM832 713L891 44Q868 -112 747 -226Q625 -338 479 -338H460Q342 -332 27 -245Q86 -152
175 -97Q217 -123 378 -169Q542 -215 595 -215Q694 -215 694 -66Q694 -63 688 -11Q680 38 667 137Q642 116 619 93Q597 70 572 48Q498 -2 331 -2Q243 -2 125 112Q0 238 0 371Q0 602 177 773Q340 931 517 931Q585 931 675 897Q713 882 747 866Q781 853 819 838Q861
804 876 770L834 713H832Z" />
<glyph unicode="h" glyph-name="h" horiz-adv-x="949" d="M205 779Q253 813 333 851Q420 893 466 893Q648 893 754 756Q849 638 849 473Q849 302 777 173Q720 72 631 11Q562 -38 521 -38Q443 -38 378 11Q416 93 492 154Q526 87 602 87Q633 87 656 194Q675 272
675 333Q675 483 578 619Q479 760 353 760Q236 760 194 665L163 -9H0V1248Q95 1302 207 1315V781L205 779Z" />
<glyph unicode="i" glyph-name="i" horiz-adv-x="450" d="M285 156L350 118L224 -8Q217 -9 207 -9Q192 -9 175 -4Q118 42 68 106L0 771L15 832L141 923L171 904Q200 885 258 847L285 160V156ZM131 1326Q139 1326 156 1324Q175 1322 181 1322L295 1220L177 1079H143L21
1176Q55 1262 131 1326Z" />
<glyph unicode="j" glyph-name="j" horiz-adv-x="438" d="M70 1060Q125 1159 201 1220Q276 1174 338 1096L232 967H194L72 1058L70 1060ZM177 814Q187 817 192 817Q196 817 207 813L310 703L285 -285Q179 -384 165 -391Q91 -441 0 -441Q0 -391 99 -300L106 612L29
661Q82 752 177 813V814Z" />
<glyph unicode="k" glyph-name="k" horiz-adv-x="953" d="M580 481Q853 272 853 97V95L692 0Q650 144 551 274Q452 403 380 403H310V452Q355 475 393 494Q431 513 466 532Q627 623 650 665Q505 840 355 840H352Q298 840 232 798L190 4L0 34L6 1277L224 1359L217
855Q255 868 293 884Q331 897 369 910Q452 941 517 941Q671 941 842 775L823 678Q754 648 694 612Q635 576 580 538V481Z" />
<glyph unicode="l" glyph-name="l" horiz-adv-x="347" d="M215 1315L247 34Q179 -11 97 -30Q46 -11 8 30L0 1254L215 1319V1315Z" />
<glyph unicode="m" glyph-name="m" horiz-adv-x="1462" d="M1362 99L1233 -23H1203L1096 49L1051 711Q1051 730 1001 745Q952 760 922 760Q887 760 834 737Q779 718 779 699L768 -15L570 2L555 711Q555 737 505 760Q458 777 420 777H412Q391 775 367 768Q344 760
317 751Q264 732 264 711L249 -19L63 -2L70 770L0 783L8 825L122 935Q213 874 277 779Q483 922 536 922Q559 922 783 754Q973 912 1022 912Q1072 912 1273 773L1307 133V135L1362 99Z" />
<glyph unicode="n" glyph-name="n" horiz-adv-x="955" d="M787 146L855 112L714 -23Q633 23 587 76L561 716Q561 733 511 756Q458 777 420 777Q378 777 317 754Q258 732 258 716L247 -15L57 2L49 770L0 783Q38 865 114 929H156L277 783Q462 916 515 916Q557 916
657 870Q760 825 760 792L785 144V146H787Z" />
<glyph unicode="o" glyph-name="o" horiz-adv-x="999" d="M0 437Q0 623 137 771Q268 912 420 912Q610 912 747 809Q899 692 899 490Q899 285 773 137Q648 -8 462 -8Q219 -8 97 144Q2 262 2 437H0ZM169 384T283 247Q401 101 574 101Q739 101 739 355Q739 532 602
654Q469 771 291 771Q169 771 169 555Q169 384 283 247Z" />
<glyph unicode="p" glyph-name="p" horiz-adv-x="1014" d="M300 140Q451 80 547 80Q737 80 737 353Q737 532 661 646Q576 768 431 768Q384 768 300 718V140ZM298 802Q500 916 534 916Q680 916 798 806Q914 695 914 555Q914 274 758 124Q619 -9 391 -9Q365 -9 338
-8Q312 -6 285 -2L258 -279Q171 -332 95 -344L84 55Q34 82 0 82V120L93 192L78 735L25 773Q82 866 152 922H179L296 804L298 802Z" />
<glyph unicode="q" glyph-name="q" horiz-adv-x="923" d="M0 369Q0 618 177 771Q321 897 481 897Q678 897 823 771L781 -312Q728 -346 667 -346L656 -338Q644 -332 621 -323L595 63Q568 51 542 40Q515 29 488 17Q458 4 431 0Q403 -4 376 -4Q219 -4 112 101Q6 207
6 374L0 369ZM188 469Q188 321 270 211Q353 93 490 93Q536 93 623 152L616 673Q445 762 344 762H333Q264 762 222 671Q188 589 188 473V469Z" />
<glyph unicode="r" glyph-name="r" horiz-adv-x="721" d="M304 794Q327 815 350 838Q372 859 395 882Q452 931 490 931Q524 931 559 901Q564 897 621 840Q616 813 602 790Q589 766 568 747Q549 728 524 716Q500 705 477 705Q447 705 409 735Q371 766 357 766Q331
766 317 728V192Q317 162 352 144Q382 129 412 129L268 -19Q106 38 105 129L93 730L0 779L19 836L141 933Q243 880 304 790V794Z" />
<glyph unicode="s" glyph-name="s" horiz-adv-x="955" d="M300 521Q365 521 450 566Q536 612 581 612H587Q684 612 766 555Q855 490 855 391Q855 198 684 84Q551 -6 407 -6Q289 -6 175 48Q125 70 0 152Q68 220 173 262Q352 114 568 114Q654 114 680 272Q680 350
633 407Q585 464 504 464Q469 464 443 445Q397 414 371 407Q314 388 203 388Q139 388 84 441Q30 494 30 574Q30 720 171 834Q296 935 418 935Q564 935 773 789Q716 724 621 678Q612 682 570 701Q528 722 456 760Q403 787 365 798Q327 809 306 809Q262 809 226 777Q188
747 188 705Q188 511 310 511V513L300 521Z" />
<glyph unicode="t" glyph-name="t" horiz-adv-x="590" d="M490 895V777H350V169L420 124L314 2Q245 10 188 44Q125 86 125 144V775H0L19 878Q30 882 49 885Q67 889 87 893Q249 1094 283 1265H310L352 893H485V895H490Z" />
<glyph unicode="u" glyph-name="u" horiz-adv-x="961" d="M838 131T861 127L751 -9Q745 -11 732 -11Q676 -11 572 118L314 -4Q260 -4 217 15Q173 34 141 68Q108 103 89 146Q70 190 68 239L53 724Q42 724 11 737Q0 768 0 790V800L141 908Q190 897 226 855Q262 813
266 764L293 217Q293 198 304 179Q315 162 334 150Q352 137 372 129Q391 122 410 122Q486 122 576 190L570 718L536 733L697 895H796L804 154Q838 131 861 127Z" />
<glyph unicode="v" glyph-name="v" horiz-adv-x="938" d="M622 895Q634 897 644 897Q716 897 773 851Q838 798 838 724Q838 412 466 -4L260 99L25 732L0 741L97 893Q97 895 135 895Q215 895 264 777Q272 758 295 684Q317 610 353 481Q418 253 498 91Q564 194 599
247Q635 300 638 312Q709 437 709 559Q709 667 663 705Q625 735 543 735L622 895Z" />
<glyph unicode="w" glyph-name="w" horiz-adv-x="1451" d="M1146 910Q1351 893 1351 690Q1351 599 1313 526L1039 32Q1017 -13 944 -13Q918 -13 899 -6Q815 55 773 150Q770 160 747 224Q722 287 676 409L471 -9Q456 -11 443 -11Q422 -11 403 -8Q369 -2 334 13Q262
48 239 114L46 733L0 752V821L87 920Q141 920 186 889Q232 859 247 809L462 156H488Q574 325 604 414Q619 456 629 502Q638 547 642 602L578 695Q540 749 498 760L600 912H619Q733 912 768 819L1007 148H1041L1199 448Q1210 467 1210 559Q1210 659 1172 697Q1134
735 1034 735L1146 910Z" />
<glyph unicode="x" glyph-name="x" horiz-adv-x="963" d="M587 859Q612 901 669 912Q680 914 707 914H779Q859 914 863 815L756 709Q678 735 652 735Q606 735 561 678Q515 621 515 561Q515 466 585 367Q612 329 661 277Q709 226 777 160L836 150L718 -6Q713 -8
697 -8Q597 -8 414 245Q391 207 359 146Q327 86 289 4Q224 -137 182 -190Q116 -277 27 -308L0 -258Q87 -220 213 11Q331 230 331 295Q331 576 114 758H61Q82 863 165 929Q272 922 346 827Q374 777 405 730Q435 682 462 633L591 857V859H587Z" />
<glyph unicode="y" glyph-name="y" horiz-adv-x="982" d="M572 809Q591 904 661 996Q768 996 828 923Q882 859 882 775Q882 730 865 695L526 23L587 -241L477 -287Q416 -104 409 -30L426 87Q376 101 334 131L42 823L0 838L110 998H125Q171 998 213 975Q258 948
277 899L543 219L713 553Q732 589 732 638Q732 673 724 703Q714 735 699 760Q684 783 661 798Q638 813 610 813Q595 813 578 808V809H572Z" />
<glyph unicode="z" glyph-name="z" horiz-adv-x="894" d="M490 578Q631 543 713 437Q794 331 794 177Q794 -6 642 -160Q492 -315 314 -315Q154 -315 0 -201L125 -68Q247 -209 426 -213Q507 -213 557 -122Q599 -44 599 59Q599 200 528 321Q452 450 350 450Q334
450 186 416L198 473Q357 570 540 771Q486 773 441 773H357Q338 773 314 785Q298 792 287 796Q276 800 268 802Q253 804 241 804H219Q144 804 80 758V808Q217 952 298 952Q314 952 353 948Q393 944 454 937Q517 929 581 925Q646 922 713 922Q732 922 773 937L747
851L473 608Q473 599 488 576V578H490Z" />
<glyph unicode="{" glyph-name="braceleft" horiz-adv-x="832" d="M418 1406L732 1436L648 1239L308 1231L296 684Q296 650 266 612Q251 597 238 580Q224 564 209 549Q289 454 289 416L285 139L198 -78L730 -32L629 -218L6 -237L91 -8L99 409Q99 462 0 545Q30
568 53 591Q106 650 106 688L118 1104L418 1414V1406Z" />
<glyph unicode="|" glyph-name="bar" horiz-adv-x="275" d="M175 -11L0 -4V1322H175V-11Z" />
<glyph unicode="}" glyph-name="braceright" horiz-adv-x="832" d="M633 790Q633 737 732 654Q701 631 678 608Q625 551 625 513L614 95L312 -213L0 -243L84 -46L424 -38L435 507Q435 549 523 646Q443 741 443 783L447 1060L534 1281L2 1233L103 1419L726 1438L640
1210L633 792V790Z" />
<glyph unicode="~" glyph-name="asciitilde" horiz-adv-x="1267" d="M1098 1799L1167 1739L870 1436L796 1448Q751 1490 682 1550Q616 1613 524 1697L327 1492L264 1549L570 1870L648 1858L904 1615L1098 1794V1799Z" />
</font>
</defs>
</svg>
