<?xml version="1.0" standalone="no"?> <!DOCTYPE svg PUBLIC "-//W3C//DTD SVG 1.0//EN" "http://www.w3.org/TR/2001/REC-SVG-20010904/DTD/svg10.dtd" > <svg xmlns="http://www.w3.org/2000/svg" width="100%" height="100%">
<defs >
<font horiz-adv-x="374" ><font-face
    font-family="BlackwoodCastle"
    units-per-em="1000"
    panose-1="0 0 4 0 0 0 0 0 0 0"
    ascent="871"
    descent="-267"
    alphabetic="0" />
<missing-glyph horiz-adv-x="500" d="M63 0V768H438V0H63ZM125 63H375V706H125V63Z" />
<glyph unicode=" " glyph-name="space" horiz-adv-x="367" />
<glyph unicode="!" glyph-name="exclam" horiz-adv-x="288" d="M261 554L257 539L244 528Q234 505 219 431L213 428Q209 417 208 387L214 384L218 379Q211 370 200 329T190 276L186 272L184 267Q185 261 182 254L178 252Q173 210 160 191L151 187H141Q137 191
130 196Q122 210 107 259T93 319L96 327V335L92 343L84 346L78 353V358L86 369L85 376L75 385Q80 400 78 408L67 426V444L61 458V464Q60 469 55 495T27 542V554Q36 563 40 564L54 563Q59 565 65 567Q75 573 82 585Q92 601 95 604Q94 607 97 611T110 636T124 661T139
671Q155 671 162 665L165 660L168 658Q173 650 173 646Q178 643 182 634Q181 622 181 615Q181 607 191 594L198 596L205 593Q204 589 208 578Q212 576 228 564Q252 559 261 554ZM222 81Q214 69 187 49L177 33Q178 23 178 17Q178 14 175 9L167 3L160 1L146 4Q139
7 123 18Q119 23 107 36Q105 41 102 48L97 49L91 56H85Q81 59 73 67L69 76Q74 90 72 94Q84 103 114 126V130Q114 138 111 142Q113 148 112 151L116 158L126 165L130 166L133 169L147 167Q152 159 162 153Q164 142 180 127L181 123Q208 112 221 96L222 81Z" />
<glyph unicode="&quot;" glyph-name="quotedbl" horiz-adv-x="341" d="M308 584L305 575L297 568Q295 567 282 510L278 508Q277 504 275 483L279 481L281 478Q272 457 266 430Q264 420 265 416L262 414Q261 411 261 407L259 402L257 401Q256 378 247 364Q240 361
235 362Q230 367 228 368Q202 427 206 442L208 447Q208 451 200 459L197 463V466L202 472L201 476L195 482Q196 488 197 495L190 507V518Q187 536 177 565Q172 570 170 573L165 568Q157 551 150 510L146 508Q145 504 143 483Q145 482 149 478Q146 473 139 447T132
416L130 414Q129 410 127 402L125 401Q123 379 114 364Q107 361 103 362Q93 369 90 377Q73 422 73 442L75 447V452L73 456L68 459L65 463V466L69 472L68 476L63 482Q64 485 65 489Q65 496 58 507V518L54 526Q58 551 34 577V584Q39 589 41 590L50 589Q54 590 64
597Q70 608 75 620T101 655Q107 655 115 651L117 648L119 647Q120 643 127 633Q127 616 133 608L137 610L141 608Q140 606 143 599Q146 598 155 592T169 587Q170 588 174 590L182 589Q192 595 198 602T207 614V617Q212 632 225 650Q228 651 234 655Q240 655 248
651L249 648L251 647Q252 646 255 641T260 633L259 621Q263 611 265 608L269 610L273 608Q272 606 275 599Q278 598 287 590Q295 589 308 584Z" />
<glyph unicode="#" glyph-name="numbersign" horiz-adv-x="490" d="M339 341L327 256H439V216H322L291 0H250L281 216H193L162 0H122L152 216H29V256H157L168 341H49V381H173L203 581H243L215 381H303L331 581H371L343 381H457V341H339ZM209 341L198 256H286L298
341H209Z" />
<glyph unicode="$" glyph-name="dollar" horiz-adv-x="537" d="M504 175Q495 164 486 140Q477 113 471 104Q472 100 465 81Q453 67 442 67L441 54Q432 47 427 38L409 28Q400 14 382 9T360 -1Q343 -5 301 -13Q301 -19 302 -36T303 -58Q303 -71 299 -80T290 -93T269
-99L256 -93Q254 -88 247 -73L248 -23Q248 -22 247 -16Q206 -11 146 8Q134 6 118 9L105 2Q100 -8 94 -13L82 -17L74 -16L62 -9Q57 -4 53 15Q49 34 53 41L52 47Q58 73 57 78Q64 90 67 105L75 110L70 121V126Q70 128 75 150T81 182L78 197L74 203L53 218L48 227Q47
232 47 240Q47 253 57 264T83 276Q97 276 104 272L118 260Q123 249 129 230Q136 204 134 198L140 189V185Q139 182 136 173L142 161Q141 157 141 155Q141 154 142 147L148 144Q152 137 157 119Q155 116 153 103L161 95L163 85Q191 51 201 48H206Q211 44 217 44L222
40L226 41L232 38Q236 39 244 37L249 38V76Q249 81 250 96T251 114L256 119Q256 120 255 124T252 132L254 230Q254 239 253 247V264Q244 270 240 280L224 271L220 275V282Q211 286 189 296Q169 313 119 343Q112 357 111 365Q107 373 93 386L91 390L92 400Q82 407
71 442T50 483L49 488Q51 493 61 502Q75 534 97 574Q110 598 140 620Q147 625 181 642Q205 647 247 657L248 665Q244 673 244 680Q244 695 247 704Q246 709 245 712Q245 714 246 724L257 737Q268 741 280 741L290 737Q299 729 298 710Q296 688 299 683Q296 673
301 656H318Q338 653 379 639Q388 636 392 636Q395 637 406 639Q418 656 431 657L441 656Q451 651 457 639V630Q457 603 436 568Q437 564 437 558L432 548Q430 531 422 516V508Q421 504 421 500Q421 499 422 491Q425 488 428 485Q434 478 442 470L446 451L441 434L434
426Q428 423 408 420L395 424Q379 436 373 460Q371 468 367 503L369 512Q363 538 347 574Q321 604 301 606Q305 533 299 500Q302 491 304 483Q301 476 301 437Q301 434 299 416Q298 402 301 397L307 400L322 399Q344 389 376 368L385 367L402 358L405 354L407 346Q428
328 459 290L464 286Q465 276 472 271L474 263L478 259Q478 240 492 212Q491 194 504 175ZM251 482Q251 484 249 494L251 504L247 514Q250 524 249 553Q248 576 248 593L250 598L248 606Q226 597 208 574T189 529Q189 532 193 484Q195 475 205 462L209 448Q228
429 240 420L246 419Q245 424 245 427Q245 433 248 454T251 482ZM373 151L368 164Q369 171 366 184Q356 187 346 203L339 206L337 218L333 225Q322 237 305 242Q305 228 306 217V192Q306 206 304 142Q303 101 305 95Q302 76 302 52Q303 50 305 39L317 45L328 44L333
50L337 51L339 57L351 67Q355 74 364 91L363 96Q365 106 369 110L367 121Q370 132 373 151Z" />
<glyph unicode="%" glyph-name="percent" horiz-adv-x="584" d="M313 506Q300 487 301 468Q298 451 288 425Q282 421 274 398Q242 366 231 359Q207 342 176 342Q147 342 131 352H122Q118 355 89 367V373Q64 397 59 405Q44 442 32 495L27 502Q47 562 62 586Q83
618 130 646L137 645Q145 652 179 652H183Q240 642 266 612Q289 586 302 526Q312 516 313 506ZM497 617Q497 592 483 568T439 492L415 452L406 447Q400 438 390 424L393 420L390 412Q380 402 346 349Q339 341 318 313Q311 300 294 282Q290 275 285 257L269 245Q267
239 259 221Q253 214 239 193Q179 104 152 54Q148 42 136 25L135 14Q126 -2 109 -4Q106 -2 97 0L88 10Q88 12 87 14T85 18Q84 24 84 36Q84 47 203 232Q214 248 236 280Q298 372 342 436Q346 452 367 478H370L382 487L390 503L388 512L396 523L397 527Q405 541 426
569Q451 632 459 636L463 637L467 640Q478 637 484 638L495 629Q496 622 497 617ZM558 149Q548 123 536 72Q530 62 507 25L501 21L498 15Q485 8 462 -6Q444 -6 433 -12L430 -11L425 -13H422Q416 -11 412 -10L409 -14H402L396 -9Q368 -13 329 21L328 25Q313 38 285
121Q282 129 279 139Q277 143 273 147L272 153Q283 169 294 200Q306 236 313 249Q334 267 373 293Q376 292 393 296T413 301Q460 301 497 270H504Q503 265 506 252L515 248L528 232Q532 220 532 216L535 211L536 205L540 203Q541 194 548 164Q555 159 558 149ZM231
466V493Q231 584 193 610Q184 614 169 614Q168 614 159 613Q149 607 142 604L135 596V591Q126 585 121 568T119 539L113 524Q113 520 115 505T117 484Q117 482 116 475T115 465Q115 437 121 423Q125 421 138 392Q149 383 163 379Q168 381 179 379Q183 381 194 383Q212
399 218 416Q221 425 227 455Q228 457 229 460T231 466ZM471 112V136L470 178Q465 190 465 210L462 222L455 226Q452 239 434 254Q427 258 418 258Q418 258 394 250Q384 244 375 231Q367 201 367 199Q363 192 363 169Q363 167 362 158T361 145L355 141V132Q356
131 357 126H360Q360 109 367 84Q366 72 380 42Q391 31 398 28L407 27L413 24Q422 28 446 37Q453 46 466 89Q469 103 471 112Z" />
<glyph unicode="&amp;" glyph-name="ampersand" horiz-adv-x="678" d="M670 365Q666 358 666 353L652 335Q641 329 612 321L608 324Q602 322 593 313Q566 311 542 276Q532 257 511 218Q503 206 494 189Q505 187 519 172T536 157L541 151Q545 150 558 141Q568 135
577 135Q582 135 600 144T626 154Q631 153 639 150L643 144L644 131Q639 119 624 102T607 81L596 79L588 66L582 65Q574 60 565 54T552 38L561 24L560 16L562 10Q553 -3 547 -4H539Q536 -4 528 -2T517 0Q509 10 485 11L480 20L475 23L463 25L459 32L453 33Q444
45 424 69L417 70Q417 62 390 32L387 24L371 12Q354 5 337 -2Q314 -11 305 -11Q299 -11 296 -10Q287 -14 272 -14Q262 -14 256 -12L249 -13L244 -11Q235 -12 229 -12Q225 -12 213 -9T198 -6Q188 1 179 0Q114 28 103 63Q97 70 83 86Q81 90 76 101V113L68 120Q57
144 40 197Q53 229 81 274Q83 295 99 307L103 306L109 318Q116 325 131 335L127 332L134 329L139 330Q142 333 148 341Q152 342 161 349H168Q174 351 203 357L205 363Q199 373 183 399Q181 404 176 415Q172 423 161 436Q159 445 147 474V481L152 486L150 494Q143
501 137 506Q138 510 135 516Q136 523 145 539L144 535Q170 592 185 599L189 609Q194 613 203 613L206 617Q235 635 240 640H247Q265 650 277 651L283 650Q297 652 322 659L327 655L338 661L352 654Q362 658 369 657Q377 657 397 652L403 646L415 647Q480 618 494
586Q500 571 516 530L523 523V514Q509 497 509 483Q505 478 496 465V456Q491 451 480 431L472 426Q456 399 440 398Q424 374 371 374Q369 375 358 377L362 369H368L370 357Q371 356 387 338L391 336Q390 332 393 316Q399 316 403 312Q404 304 409 287H417L423 282Q424
280 427 274T430 266Q435 264 447 259L449 249Q450 248 454 244T461 236Q469 244 487 289V297Q487 299 486 308L479 316Q474 319 462 324L452 334L447 349Q448 359 458 367L473 373H496Q490 373 531 369Q534 369 543 370T554 371Q557 371 570 369Q576 371 580 372L590
370L609 373Q613 379 625 395L644 399L654 396Q666 388 668 383L670 365ZM395 512L392 515L394 523L391 527V534L394 543Q390 557 372 595Q339 615 328 613L323 611Q311 612 285 597Q279 588 268 551L272 545V541Q273 534 280 505Q290 489 302 461L311 452Q321
430 340 409Q375 413 386 454L395 512ZM386 103Q382 109 362 135Q346 155 346 170L326 185Q322 195 312 206T302 217Q282 248 266 268Q256 278 249 287Q247 293 232 320L228 321Q227 318 218 311Q206 292 203 270Q206 254 206 250L202 240V225Q202 183 203 186Q207
181 207 176L205 163Q207 148 212 130L207 131L210 122L217 118Q223 102 229 84Q234 79 245 64Q256 58 269 48L294 40Q300 41 316 46L320 42L338 45Q339 48 364 69Q384 86 386 103Z" />
<glyph unicode="&apos;" glyph-name="quotesingle" horiz-adv-x="208" d="M175 584L173 575L165 568Q157 551 150 510L146 508Q145 504 143 483Q145 482 149 478Q145 474 138 447T132 416L130 414Q129 410 127 402L125 401Q123 379 114 364Q107 361 103 362Q93
369 90 377Q73 422 73 442L75 447V452L73 456L68 459L65 463V466L69 472L68 476L63 482Q64 485 65 489Q65 496 58 507V518L54 526Q59 555 33 577L34 584Q39 589 41 590L50 589Q54 590 64 597Q70 608 75 620T101 655Q107 655 115 651L117 648L119 647Q120 643 127
633Q127 616 133 608L137 610L141 608Q140 606 143 599Q146 598 155 590Q160 589 175 584Z" />
<glyph unicode="(" glyph-name="parenleft" horiz-adv-x="320" d="M278 657L275 649Q276 643 262 602Q246 558 245 546L239 538L233 535V531L237 529L239 523Q234 499 229 476Q222 446 225 429Q219 421 213 412Q217 401 217 393Q217 391 216 381T214 366H219Q223
338 223 311Q223 310 222 305T220 297Q221 295 222 282L228 274L229 269Q228 261 221 233L223 226L229 223Q228 216 228 192Q240 111 252 69Q261 53 272 11L269 2Q267 -1 255 -6L245 -7L235 -4L214 11L212 17Q208 18 195 30Q191 41 167 74Q148 101 148 121Q145
123 137 128L134 135V144L130 148Q130 153 128 160L123 163L118 173V181L113 187Q102 233 94 244Q93 249 87 272V277Q79 295 77 316L72 325L58 337Q57 341 57 347L81 371Q92 407 111 438V444Q135 497 179 580Q183 586 190 602Q197 608 208 628Q220 644 249 675Q252
676 259 677L273 672Q276 667 278 657Z" />
<glyph unicode=")" glyph-name="parenright" horiz-adv-x="320" d="M264 345L261 337L254 334Q240 318 223 270Q215 246 198 198L194 196L195 188Q194 182 185 159T175 133Q166 125 162 116L157 115V102Q138 75 119 40Q104 21 76 -5Q68 -8 57 -7L51 -3L44 7V17Q44
16 49 31Q64 74 77 113Q86 161 97 205Q107 245 106 249L109 254L110 261L106 269Q108 280 111 286L110 304Q99 317 99 361V420L102 428V438L96 442Q93 454 95 465L92 473L96 489L92 503L87 506Q82 550 68 587Q63 599 52 622Q40 649 40 656Q40 658 41 665L47 674L53
677H58Q63 676 75 672Q84 663 92 661Q113 641 129 615L127 619Q131 609 153 575Q175 538 180 536V528L174 523V518Q177 506 184 501L193 498Q197 495 204 479T211 455L216 451Q224 422 234 395Q234 393 248 359L264 345Z" />
<glyph unicode="*" glyph-name="asterisk" horiz-adv-x="278" d="M238 484Q238 483 236 476Q229 466 223 465T212 463Q200 462 164 498Q165 490 162 475L165 470V467Q165 444 159 435L152 428Q145 424 135 424L125 428Q117 436 113 448Q114 464 117 496Q100 483
68 463Q59 463 50 467L43 475L40 485Q42 499 57 512L84 530L90 541Q77 544 43 573Q41 591 41 591L48 603L53 607L62 609L82 606Q103 586 119 575Q118 582 117 587V627Q118 629 119 636Q127 650 136 655H142Q145 655 158 650Q165 638 166 619Q168 596 164 587L166
583Q197 610 210 610Q211 610 217 609L227 602L231 594L232 584Q229 570 221 564L217 562L214 558Q204 556 189 545L186 536L189 532Q206 526 230 510Q232 503 238 495V484Z" />
<glyph unicode="+" glyph-name="plus" horiz-adv-x="682" d="M382 277V0H312V277H32V346H312V622H382V346H658V277H382Z" />
<glyph unicode="," glyph-name="comma" horiz-adv-x="233" d="M193 80L192 69L185 61Q174 57 162 48Q156 35 142 5V1L140 -3L135 -5L132 -13Q130 -15 124 -22T113 -32T97 -41H94Q91 -41 81 -39L77 -35H72Q68 -26 68 -21Q68 -20 69 -14Q75 -1 85 8L86 23Q85 26
64 50Q56 53 42 68L39 76Q38 83 46 96Q58 106 72 108L74 115L82 123L84 131L82 147L84 152L92 160Q98 160 103 164Q107 164 110 165L137 146Q137 146 143 132L147 129L150 123Q162 111 182 98L190 90L193 80Z" />
<glyph unicode="-" glyph-name="hyphen" horiz-adv-x="365" d="M325 331Q315 317 287 279L283 264Q285 256 285 247Q285 242 275 229Q257 221 209 221Q180 221 159 222L148 229Q147 229 141 228T130 225L117 227L113 224L105 222L100 223L87 216V212Q80 205 57
195L45 198L41 207Q41 213 40 218Q43 241 71 272Q73 279 72 287Q72 288 70 292T67 300Q70 313 76 319Q93 325 117 323L122 319Q136 319 143 320L155 316H187Q189 317 197 319Q199 319 207 318T218 317Q243 317 269 336T305 356Q307 356 316 353L321 348L325 331Z"
/>
<glyph unicode="." glyph-name="period" horiz-adv-x="233" d="M193 78Q190 75 169 57Q153 43 152 33Q153 29 153 27Q153 16 142 5Q141 5 136 3T128 0L119 2L98 21L94 33Q84 39 61 58L52 61L42 75L40 87Q45 98 55 108Q72 114 83 134L81 144Q84 153 86 160L91 166L107
172H119L129 165Q136 157 143 139L150 135L151 129L155 127Q167 115 175 106Q185 105 193 87V78Z" />
<glyph unicode="/" glyph-name="slash" horiz-adv-x="394" d="M381 684Q381 673 358 622Q302 496 244 375Q243 371 224 325T203 275T193 255T177 226V218L166 192L157 187L154 183Q154 174 150 159Q123 110 81 14Q78 6 69 -13V-18L66 -19Q62 -38 46 -46H33Q23
-42 17 -33L13 -22Q13 -20 15 -6Q44 58 58 84Q62 97 76 127T104 187L110 189V203Q117 220 135 266Q150 276 167 320Q187 371 194 381L192 386Q216 424 225 458L224 467L226 473Q234 481 237 488L238 495Q240 498 258 520Q258 532 269 543Q276 558 279 571L283 575Q287
603 299 611Q303 618 308 636L312 640Q312 646 326 671T346 701L358 705L368 703Q381 691 381 684Z" />
<glyph unicode="0" glyph-name="zero" horiz-adv-x="597" d="M577 324Q565 314 555 281Q549 256 543 231Q534 198 535 196L530 188L523 186V179L527 171Q521 157 520 149Q518 147 509 125Q482 84 460 63Q444 47 420 22L416 21Q379 -10 309 -10Q303 -10 275 -7Q251
-4 244 -5Q218 5 173 28L171 32L163 35Q133 59 129 81H121Q114 87 109 101L105 103Q102 110 94 126L91 129Q91 134 85 144Q87 149 92 153L93 157Q83 161 79 167Q64 199 64 231L57 236Q52 257 46 280T32 315H23L20 319L21 329Q30 335 43 366Q54 394 57 409Q63 417
69 427Q71 443 78 477Q81 486 89 508L92 511Q100 545 137 583T209 634T293 654Q296 654 303 653T312 652Q314 652 325 653T340 654Q345 651 367 646Q397 639 428 616L436 614L441 609L454 607Q457 599 456 594Q467 584 492 556Q493 552 502 537Q502 531 506 524L510
520L512 505L516 504Q519 485 531 451L528 434Q528 433 529 428L538 419Q551 376 552 373Q562 347 575 335L577 324ZM406 336L399 349Q398 352 398 360Q398 361 399 364L402 368L403 375L399 382L398 397L402 410L397 415L398 422L396 428Q398 436 398 446Q398
507 383 544Q377 553 367 577L354 592Q339 597 333 603Q330 604 322 606L309 604L304 606Q289 602 269 597Q243 581 229 540Q219 506 209 471L211 451L203 432V426Q203 423 204 412T206 396Q206 392 204 373L200 366L202 359L209 354L207 348L208 339Q207 334 198
327L197 323L198 316L204 306Q203 292 203 284Q203 278 204 249Q209 241 207 236L202 225V218Q203 215 203 211Q203 204 200 199L201 191L208 184Q214 156 216 122L220 121L229 93L228 87Q242 69 250 60Q260 56 275 44Q286 38 309 38Q327 38 346 52L353 53Q370
71 380 95V104L383 112V118L388 121Q391 137 394 164Q392 176 392 190Q402 203 401 212L398 218Q401 285 399 295L404 307L402 323Q404 327 406 336Z" />
<glyph unicode="1" glyph-name="one" horiz-adv-x="375" d="M368 27Q368 13 358 2Q333 -13 283 -13Q277 -13 270 -9L267 -3Q260 -3 243 -13L234 -9L223 -10L221 -4L210 0L202 -4Q154 10 145 10Q140 10 138 9Q135 10 127 12Q96 12 83 1L86 4Q74 -12 60 -23Q51 -25
40 -26L26 -20Q17 -13 13 0Q13 23 21 32T38 51Q51 58 65 67Q74 68 78 74Q87 76 99 89L100 92L104 96Q106 103 111 121Q115 125 122 134Q124 142 125 147Q125 149 124 158L117 164V173Q117 206 124 221Q121 230 122 240L116 243Q115 246 115 253Q115 253 117 259L123
266Q123 273 121 327L115 332V341L119 347Q120 354 118 388Q121 396 124 414L120 423V434Q120 439 123 452L120 456L118 464Q120 475 119 489L111 498Q99 502 70 509Q69 510 54 522L52 539Q55 545 60 555Q71 562 129 576Q145 580 171 585L184 595Q195 597 209 607T231
619V624L236 629L237 648L242 658Q257 673 266 674L301 656Q302 653 302 638Q302 620 290 596Q273 562 272 556L265 529Q264 513 256 484L259 478V475Q259 471 257 460T254 447Q257 437 256 390Q256 383 260 325Q255 317 255 310L259 304Q258 297 258 293Q258 287
259 267T260 240Q260 239 261 228T262 211L265 209Q270 194 270 186Q270 180 266 163L268 159L261 153L264 141L274 131Q279 121 277 116Q280 112 280 104L285 101Q293 89 291 78L294 70Q301 65 310 54Q321 51 353 44Q354 44 357 42T362 39L367 33Q368 29 368 27Z"
/>
<glyph unicode="2" glyph-name="two" horiz-adv-x="448" d="M420 132Q420 121 402 88L394 82L391 77Q382 68 366 60L362 55Q356 53 350 48L344 38L346 28Q355 18 356 11L355 0H352Q342 -15 304 -15Q300 -15 282 -11T258 -8L253 -5L236 -4Q227 1 188 6L178 13Q172
13 159 11L158 19L153 22Q136 21 88 6L89 2L85 0Q83 -11 71 -22Q57 -24 57 -24Q56 -24 48 -22L39 -15Q33 -6 28 47L31 51L30 58Q32 64 35 78L34 85Q37 105 46 115L47 122L49 125Q49 132 65 158Q65 165 66 170L68 173L74 176L75 181L80 185Q84 197 117 236T162 285L168
297Q202 315 205 341L215 348Q220 359 233 366Q245 382 254 410Q254 415 257 425Q264 428 270 443Q269 445 271 451L265 454Q266 459 264 469L267 474Q266 485 262 512L257 519Q253 531 253 537T241 552V556L238 564Q236 566 226 572Q223 579 217 582Q201 585 191
592Q182 593 176 593Q162 594 139 580L121 581Q121 581 117 580L110 573L109 564L97 559V537L90 531L85 521Q84 521 82 520T77 518Q76 511 76 503L80 502L84 498Q85 488 88 484L102 475Q115 460 113 441Q107 425 97 415Q82 405 66 407L62 409H54Q39 416 26 430Q12
469 12 493Q12 572 91 621Q100 627 123 637L127 641Q147 646 163 648Q196 652 247 653Q260 653 282 645T316 635L317 634H321L319 631Q323 629 347 613Q362 600 380 574Q379 570 383 560Q395 553 398 534Q402 512 407 504Q406 499 409 479Q412 456 412 451Q412
435 405 411Q396 384 386 377L384 371L385 367L389 364L393 355V348Q393 342 381 328T362 312L359 308Q348 300 319 286L312 279L311 274L304 270Q300 271 290 272L291 266L289 262Q282 259 279 253L274 252Q269 247 261 244L254 245L246 235L238 233Q230 225 222
221L216 211L210 209L193 215Q187 202 181 193Q174 189 168 189Q162 185 150 177Q113 145 104 128L103 119L97 112L95 104Q111 129 180 129Q197 129 231 125T282 120Q285 121 296 123L303 118Q321 120 323 120L328 117Q336 120 346 119Q346 119 366 127Q378 141
394 154H399Q401 154 411 152Q419 145 420 140V132Z" />
<glyph unicode="3" glyph-name="three" horiz-adv-x="407" d="M387 223Q386 213 368 182Q357 163 344 140L338 136Q335 123 320 110L314 109Q300 86 276 78Q275 74 266 61L249 50L248 46L242 40Q231 46 219 45Q217 31 210 25L202 20H197L193 22L182 9Q174 4 169
4L164 0Q143 0 108 -22H104Q97 -27 92 -28Q95 -29 74 -32Q66 -33 49 -30Q45 -24 42 -20L45 -8Q52 -1 92 26Q124 48 132 65Q146 74 147 80Q155 89 168 104Q175 115 183 138Q185 140 195 148Q201 162 201 172Q212 194 211 200L220 209L219 221L222 228V234Q222 242
219 246L216 249Q216 260 215 270Q214 284 215 291Q214 293 209 302Q208 305 203 321L189 328H199L189 342Q174 346 163 356Q157 357 141 362Q115 360 79 367L71 376L68 387Q72 424 121 444L122 449L131 458L142 459L147 470Q156 472 180 492T209 521L186 525Q178
523 175 522L162 527H153L148 532L143 534L139 533L137 528L123 522Q120 522 112 523T101 524Q96 524 91 523H81Q75 517 58 512Q54 509 44 501L41 496L24 489L15 491Q4 499 1 507L0 517Q6 540 28 577Q31 591 34 607Q33 615 30 633L34 641Q38 644 44 648L54 650L68
646L79 635Q97 628 112 626L121 629Q163 623 207 623H258Q260 623 271 624T286 625L293 628H297Q306 633 319 645Q334 651 344 650Q351 647 358 640Q360 634 360 623Q360 609 337 578T299 538L296 531Q273 518 271 507Q267 502 244 485Q242 478 213 456T172 426L170
421Q166 414 155 409Q184 407 226 403Q238 402 257 392T286 379L294 363Q300 365 314 360Q322 354 338 321T358 279T363 258Q366 252 374 235L383 229L387 223Z" />
<glyph unicode="4" glyph-name="four" horiz-adv-x="554" d="M534 282Q534 251 503 223Q498 212 500 207Q506 200 509 185L507 175L489 162Q466 165 428 173L422 172Q412 175 390 174L382 171V163Q382 160 384 148T387 131L385 125Q385 121 391 113L392 103L395
99L394 93L413 67L419 63H425Q436 52 447 49Q454 50 464 43L471 44Q478 39 481 39L486 35Q488 21 488 20Q488 9 477 1V-2L470 -3Q462 -9 455 -11Q431 -10 419 -13L404 -9L398 -11L385 -7Q379 -10 371 -10L366 -8L363 -4L357 -2Q350 -2 345 -6Q273 8 236 8Q213 8
196 -3Q189 -16 181 -21T163 -27Q144 -24 135 -15Q132 5 132 8V15L139 30Q143 33 156 45Q157 46 189 61L194 68Q200 70 214 75Q241 101 241 162Q241 164 239 172Q237 174 200 180L186 174L179 178Q163 173 154 173Q149 173 146 175Q141 174 127 171L110 175Q99
170 91 171Q84 170 60 173L55 170L47 169L42 171L38 175L34 176L28 175L24 179L22 189L15 195L13 200Q13 235 40 300Q63 356 74 364Q78 386 110 422T147 474Q150 475 181 507Q183 509 185 511T197 518L227 545Q229 548 232 556Q256 580 293 608Q341 644 359 644Q393
644 394 628T396 613Q396 601 392 580Q392 578 393 570T394 561Q394 557 392 552T387 540Q381 511 381 439V367Q381 348 382 343Q382 342 380 338T377 330L380 324Q382 306 382 262Q381 258 378 251L382 246L399 250L406 247Q429 249 457 254Q483 272 494 283Q496
290 505 296T521 302Q530 297 531 291T534 282ZM251 444Q251 445 248 468Q246 481 248 492L245 498L238 493L235 487L232 488Q209 465 186 434Q180 431 167 414T149 393L147 382L135 370Q134 364 124 352T112 336V329Q76 267 78 243Q92 242 100 242H185Q224 242
221 243L226 246L240 247L245 279L243 286Q245 291 245 299Q245 314 240 336Q245 348 245 353L249 360V367Q249 370 245 383T241 400Q245 409 250 416Q251 431 251 444Z" />
<glyph unicode="5" glyph-name="five" horiz-adv-x="394" d="M374 632Q375 616 363 603Q355 595 345 583Q327 573 308 557Q307 554 307 552Q307 550 309 541T310 527L301 515Q283 513 246 507L243 505Q201 514 180 512L173 515H166Q163 514 159 514Q156 514 147
516T135 518L130 516H125L119 520L113 517Q106 519 90 521L86 520L82 517Q82 507 77 479L80 473L74 440Q74 435 75 411L92 412L98 415Q101 415 118 417T140 420Q153 420 175 416T202 413Q222 403 238 403Q252 396 261 389L273 385Q276 382 280 378T286 373L287
369L298 361Q301 358 308 346Q320 337 325 329V324L328 316L335 311Q344 290 344 287L347 282Q349 269 354 255L363 247Q364 237 369 234V220Q369 208 350 175T320 131L318 125L307 115L306 108L294 102Q289 92 284 87L276 86Q267 77 253 60Q243 55 239 55Q223
44 179 14Q173 12 156 4L152 2L148 -6Q132 -11 112 -21L106 -22L101 -26Q87 -29 50 -36L42 -33L35 -25L32 -10L36 -6L37 -2Q54 8 70 23Q89 24 95 44L110 45L116 51L118 62L123 63L133 74L135 81Q138 85 143 93H149L159 106Q160 110 164 120Q174 122 183 127L184
135Q182 141 182 146L185 155L192 163Q198 176 204 194L210 198Q212 204 211 206L215 214L210 220V224L218 237L216 249L207 257Q207 264 200 287T189 315Q176 328 161 346L155 347Q139 362 86 362Q47 362 39 359Q30 361 25 366L20 375V385Q21 386 21 387Q23 436
29 481Q30 486 35 502Q33 512 32 524Q34 531 35 540L33 544V550Q33 581 39 603L38 608Q39 615 45 642L54 651Q59 654 70 656L87 646Q90 633 100 626Q108 627 131 625T162 622Q162 622 209 624Q232 625 256 623Q265 627 303 627Q305 628 312 629L324 641Q325 650
341 661Q348 662 358 662Q366 659 373 649Q374 639 374 632Z" />
<glyph unicode="6" glyph-name="six" horiz-adv-x="511" d="M504 185L503 178Q485 163 466 120L460 117L455 108L457 100Q457 92 453 87T441 79Q436 65 433 60Q427 49 419 44H413V37Q400 32 397 33Q389 26 377 14L375 6H372L368 4Q336 -12 287 -15Q283 -14 262
-16Q243 -13 202 -3Q188 1 171 8T144 27L135 30Q130 37 107 60Q92 82 78 108Q75 117 67 161L61 163Q53 192 53 199L50 205L49 212Q49 220 46 235T43 259Q43 275 27 303L30 312L36 318Q38 323 42 334L61 382Q62 388 67 401Q80 414 95 441Q101 445 104 457L115 464Q123
487 135 496Q135 500 150 518T168 543L176 546Q230 616 319 655Q324 653 332 650L335 645L336 637Q331 625 279 553Q237 496 224 462L223 445Q215 431 212 426Q212 395 202 367T191 342L194 332L191 325L198 310L192 287L200 276Q201 274 201 267Q198 235 198 221Q198
230 201 195L198 188L201 176Q201 175 200 173T198 168V164Q198 149 203 142Q204 136 208 119Q206 113 207 108L212 103V93L215 86L219 83Q220 79 221 72L227 66L229 57Q234 54 243 43Q248 41 254 39L259 34Q264 33 267 32Q270 32 283 33L292 39L297 38Q327 60
346 137L354 146L349 151L347 158Q349 168 349 188Q349 188 347 206L350 212Q350 217 346 224Q350 231 350 248Q350 251 347 269Q344 272 339 286Q340 291 341 298Q336 327 317 339L301 342L289 340Q263 321 254 316Q242 313 237 314L225 321Q218 332 218 341Q218
353 224 363Q238 375 261 386Q288 388 322 393L338 387L344 388Q358 379 372 381Q396 370 431 347L433 343Q450 331 466 294T481 234Q492 217 490 199Q497 197 502 191L504 185Z" />
<glyph unicode="7" glyph-name="seven" horiz-adv-x="377" d="M401 635Q390 601 366 546Q355 529 332 495Q331 487 321 469Q309 455 278 418L276 412L277 407Q276 395 267 385Q267 379 257 368Q256 358 248 335L241 329L236 331Q240 327 243 314L241 309V305Q223
254 223 220Q223 214 235 172L246 170Q249 167 251 156Q258 153 282 141L288 133L289 127Q283 105 241 78Q226 76 213 72L203 64L204 59Q174 52 163 27Q164 24 166 16Q166 14 165 3L157 -8Q150 -12 142 -12H137Q131 -9 115 -2Q107 3 95 17T82 38Q77 43 70 69T65
103L58 115Q56 133 64 162V176L67 183V195Q70 200 72 210L68 215V223Q73 230 86 234V245L91 258L89 265L91 272L95 276L97 281V287Q106 302 123 321L120 328L122 336Q129 345 146 368V373L152 380L159 382Q162 388 172 401L186 407Q189 412 201 422Q202 427 205
438Q231 447 241 470L247 472L274 499Q288 513 294 532Q280 521 254 520Q240 520 211 519Q204 521 194 520L181 524L165 521Q160 521 142 522T118 524Q102 524 78 509Q75 504 67 492L58 485L47 482L38 484Q27 494 26 499T24 508Q24 510 25 520Q68 599 68 607Q68
610 66 624L63 628L64 640L68 648Q76 656 86 656H97Q99 655 115 641L120 640L123 636Q158 631 186 631Q190 632 208 635L215 632Q211 631 267 631Q328 631 343 638Q343 638 359 656L368 660H381L391 656L401 643V635Z" />
<glyph unicode="8" glyph-name="eight" horiz-adv-x="513" d="M499 184L491 174Q488 161 471 116Q470 114 472 108Q469 105 465 102T459 97Q453 86 437 58Q419 46 411 34L401 30Q397 24 383 14T361 4Q354 -3 317 -9Q285 -15 269 -15Q210 -15 129 15Q115 28 95
43Q92 48 77 63Q77 70 76 76L68 77L64 93L57 97Q51 117 36 154Q32 158 13 181L25 184Q31 187 50 224T81 273L90 277L95 283L100 302Q109 302 128 310T151 318Q159 320 179 322L187 329Q180 329 164 340L151 363L136 361L133 364L132 369Q125 374 118 384L106 392Q101
400 99 407L95 408Q87 421 72 455Q57 493 58 501Q65 517 95 576Q106 587 122 609L126 611Q132 616 146 627Q199 641 214 652Q217 651 233 654T251 657Q254 657 284 654Q302 652 316 654Q352 641 371 632L378 623L394 617L396 611L401 608Q410 598 432 573Q438 561
452 531L460 523Q454 504 440 467Q428 435 405 420H398L392 408Q389 407 344 385L336 384Q365 368 395 347Q397 344 406 337L411 329L417 327Q422 320 437 312L439 304L456 282L461 280Q483 254 493 208V204Q497 195 499 184ZM331 496V525L324 572Q314 590 310
595Q301 607 288 614L281 613L277 615H258Q237 615 212 590Q199 561 199 534Q200 532 201 522Q203 516 200 509L203 506Q208 488 231 460L233 444L240 446L255 442L258 432Q261 430 295 407Q301 416 311 425Q331 483 331 496ZM351 183L343 184L339 189Q333 212
299 246Q293 252 264 275Q241 293 225 299L213 295Q197 284 189 257T184 208L181 199L185 193V187Q185 185 182 171L187 164V152L181 138Q183 119 190 93Q200 62 210 56L211 52L216 47L220 46L222 43Q227 43 235 38Q239 38 252 36T269 34Q278 34 282 38H290Q310
55 314 57Q321 64 333 82Q333 89 334 93L343 107Q342 119 346 128Q343 136 343 141Q343 147 344 152V164L351 183Z" />
<glyph unicode="9" glyph-name="nine" horiz-adv-x="497" d="M470 333Q465 322 453 294Q451 287 446 270Q445 267 436 258L435 245Q427 235 417 217Q416 211 407 189Q402 184 391 176L384 174Q383 164 375 153L365 147Q365 125 340 118Q325 100 307 91L306 86Q302
82 292 73Q268 54 191 7Q185 7 173 2L170 -1Q158 -3 154 -7Q141 -11 114 -14L107 -11L103 -7L100 2Q104 12 175 68L176 73L181 78L189 80L199 100Q217 108 240 146Q248 148 251 149L254 156L250 164Q256 177 270 191L276 209L281 214L283 231Q287 241 293 243L291
252L302 278L299 289Q312 305 315 365L306 380Q304 394 304 398Q304 406 310 415L307 425Q312 451 311 453Q309 457 309 481Q309 500 296 536L297 545Q292 552 281 579Q274 596 249 609Q238 606 224 610Q217 608 198 599Q178 571 179 563L171 551V541Q164 538 161
532Q162 524 162 518Q159 503 156 478L160 476Q163 470 162 466Q160 462 157 427Q156 426 152 423T144 418V410L152 403Q151 394 153 387L158 380L157 369L154 364L160 359Q162 347 163 340Q174 329 176 317L202 296L206 301L222 299L232 303Q246 333 259 344Q271
348 278 347Q282 345 288 340L291 334L292 316Q286 296 282 290T262 274Q254 268 230 253L198 250Q164 250 148 258L144 257Q108 277 102 281Q78 297 58 324L57 329Q42 349 42 365Q38 374 33 377L29 391Q26 402 16 432Q14 437 14 442L7 450Q16 466 21 469Q34 502
60 551L61 557Q87 599 144 636Q157 639 178 647H181Q192 655 237 655Q315 655 337 630L342 629Q348 616 373 610L382 602L383 595L394 591L406 577L408 571L413 566Q420 553 419 544Q425 540 432 524L433 517L437 511Q437 509 452 464Q453 454 458 380Q459 361
460 356Q463 343 470 333Z" />
<glyph unicode=":" glyph-name="colon" horiz-adv-x="233" d="M193 442Q188 434 156 409Q154 406 152 397Q153 393 153 391Q153 380 142 369Q141 369 136 367T128 364L119 366L98 385L94 397Q84 403 61 422L52 425L42 439L40 451Q45 462 55 472Q72 478 83 498L81
508Q84 517 86 524L91 530L107 536H119L129 529Q136 521 143 503L150 499L151 494Q154 493 175 470Q185 469 193 451V442ZM193 78Q190 75 169 57Q153 43 152 33Q153 29 153 27Q153 16 142 5Q141 5 136 3T128 0L119 2L98 21L94 33Q84 39 61 58L52 61L42 75L40 87Q45
98 55 108Q72 114 83 134L81 144Q84 153 86 160L91 166L107 172H119L129 165Q136 157 143 139L150 135L151 129L155 127Q167 115 175 106Q185 105 193 87V78Z" />
<glyph unicode=";" glyph-name="semicolon" horiz-adv-x="233" d="M192 442Q175 429 152 405V391Q152 380 141 369Q140 369 135 367T127 364L118 366L97 385L93 397Q83 403 60 422L51 425L41 439L39 451Q44 462 54 472Q60 477 75 488L81 498Q80 505 80 508Q80
510 82 516T84 524L90 530L106 536H118L128 529Q135 521 142 503L149 499L150 494Q153 493 174 470Q184 469 192 451V442ZM194 80L193 69L186 61Q172 55 169 53Q160 46 154 31T143 5V1L140 -3L136 -5L133 -13Q131 -15 125 -22T114 -33L110 -34Q104 -39 98 -41H94Q92
-41 82 -39L78 -35H73Q69 -26 69 -21Q69 -20 70 -14Q76 -1 86 8V23Q85 29 65 50Q57 52 42 68L40 76Q38 82 47 96Q59 105 72 108L74 115L83 123Q85 131 83 147Q85 155 93 160Q99 160 103 164Q106 163 110 165Q137 149 144 132L148 129L150 123Q163 110 183 98L191
90L194 80Z" />
<glyph unicode="&lt;" glyph-name="less" horiz-adv-x="726" d="M348 383L343 372Q335 361 294 342L282 329L277 314L272 308L262 304H252Q238 316 211 387L202 395Q195 410 191 423Q183 440 174 448L169 445L163 436L165 414Q182 384 176 359L180 353L179 349L181
337L177 328L179 325Q179 322 180 310T182 293Q182 290 179 279T176 263L180 260Q181 255 182 247L179 246Q180 249 180 207Q180 203 176 192T172 178L168 174L166 169L157 164L158 157Q165 139 202 131Q229 125 257 127V119Q262 120 269 129L276 131L278 136V140L281
146Q281 148 277 162T273 178L277 188Q285 192 298 199L319 189Q322 183 329 166V154Q329 120 306 95L300 92Q295 80 274 68Q247 53 243 49T237 35L241 26V12L233 2Q221 1 213 0Q204 3 159 14Q157 16 124 33T85 52L82 60L69 58L63 65H38Q37 65 32 66L28 69L24 78V84Q25
86 27 94Q33 101 38 108Q46 123 47 151Q48 187 51 194L57 200L51 215Q51 208 53 266Q51 283 52 300L50 305V309Q50 328 51 327L55 338Q53 344 54 347L56 351Q51 374 52 404L43 407L44 419H35Q31 425 29 433Q29 439 35 448L47 454Q49 453 62 452Q81 458 83 458Q88
462 129 473Q167 483 177 496Q184 496 211 517L212 525Q217 534 224 540L229 542H232L246 541L261 528Q264 521 272 502L280 501Q288 488 302 455Q302 450 305 441Q309 438 319 424L322 404Q327 404 337 402Q339 401 341 398T345 393L348 383ZM689 447Q687 442
678 433L682 438Q666 428 663 397Q664 402 664 347Q664 343 662 330T660 312Q660 306 661 301V290L664 285V278Q659 275 658 265L665 256V213Q665 194 666 185L668 181Q671 165 675 133L678 125L688 114L686 102L671 92L659 91Q650 84 626 74Q605 55 602 52Q591
37 591 10Q592 9 593 1L607 -16Q612 -18 617 -23Q618 -27 623 -33L626 -50L621 -70L609 -81Q609 -81 585 -86L568 -80L553 -64Q542 -31 542 -9Q542 19 554 46Q553 53 556 72T559 94Q559 102 555 128Q552 148 555 162L553 167Q550 193 546 247Q541 257 541 275Q541
286 543 299L540 306Q541 324 562 402Q543 413 511 429L506 436L491 426L492 422L489 424Q480 403 479 357Q479 356 480 351L483 346Q481 332 481 328Q481 322 483 302T485 277Q485 203 482 194L484 190Q481 172 500 141L501 134L514 133L528 126L532 118L531 113L532
108L529 101L525 98L522 91Q520 90 501 75L493 73L489 70Q479 68 473 62L469 53V47Q475 34 475 23Q475 21 473 10L464 2Q450 0 448 0Q433 0 407 23L411 22L403 28L399 29L394 34V38Q378 50 358 55L354 59L335 62Q328 67 327 73L326 87L328 94Q337 105 356 115Q356
117 360 134T365 158Q365 162 360 179Q360 179 363 192T365 214Q370 225 368 229L365 236Q367 256 358 274L361 288L367 296V304Q366 307 366 311Q366 306 369 337L363 358Q366 366 367 371Q367 405 366 402L364 408L365 412L361 418V424Q360 426 360 429Q360 443
365 451L366 488Q366 490 364 499T362 512Q362 537 368 546V556Q368 562 367 581T365 604T362 622T359 639Q352 649 333 665Q334 669 334 671Q334 672 333 677L334 682L338 684L342 689Q350 691 363 692Q363 692 372 688T386 684Q393 679 414 658H421Q436 688 448
700T490 721H504Q510 720 517 720Q518 720 524 721Q529 719 542 717L546 714L550 713L554 708L560 707Q572 698 588 676Q588 674 589 665T592 649L590 645Q590 637 589 632Q585 626 582 621L568 612L544 611L534 625L531 636Q537 650 535 660Q533 663 527 669Q523
670 515 671Q507 667 503 666Q488 653 482 629Q482 627 476 585L479 579Q479 569 475 561Q474 565 474 526Q474 495 483 483L497 482L509 495L511 500Q510 510 509 516Q509 526 518 536L524 539Q535 540 542 541Q543 541 548 540L554 536L560 535Q569 529 591 513L593
509Q605 504 615 496L633 492L640 487H643Q651 483 670 475L674 471L684 467L689 461V447Z" />
<glyph unicode="=" glyph-name="equal" horiz-adv-x="409" d="M379 407Q367 393 333 355L328 340Q331 334 331 323Q331 319 319 305Q298 297 239 297Q204 297 179 298L166 305Q160 304 145 301L129 303L124 300L115 298L109 299L93 292V288Q84 281 57 271L43 274L38
283Q38 289 37 294Q40 317 74 348Q76 355 75 363Q72 368 69 376Q72 388 80 395Q99 401 129 399L135 395Q151 395 160 396L175 392H213L225 395Q228 395 238 394T250 393Q279 393 311 412T355 432Q357 432 368 429L374 424L379 407ZM379 252Q367 238 333 200L328
185Q331 179 331 168Q331 164 319 150Q298 142 240 142Q205 142 180 143L166 150Q160 149 145 146L129 148L124 145L115 143L109 144L93 137V133Q84 126 57 116L43 119L38 128Q38 134 37 139Q40 162 74 193Q76 200 75 208Q72 213 69 221Q72 233 80 240Q99 246 129
244L135 240Q151 240 160 241L175 237H213L225 240Q228 240 238 239T250 238Q279 238 311 257T355 277Q357 277 368 274L374 269L379 252Z" />
<glyph unicode="&gt;" glyph-name="greater" horiz-adv-x="729" d="M348 383L343 372Q335 361 294 342L282 329L277 314L272 308L262 304H252Q238 316 211 387L202 395Q195 410 191 423Q183 440 174 448L169 445L163 436L165 414Q182 384 176 359L180 353L179
349L181 337L177 328L179 325Q179 322 180 310T182 293Q182 290 179 279T176 263L180 260Q181 255 182 247L179 246Q180 249 180 207Q180 203 176 192T172 178L168 174L166 169L157 164L158 157Q165 139 202 131Q229 125 257 127V119Q262 120 269 129L276 131L278
136V140L281 146Q281 148 277 162T273 178L277 188Q285 192 298 199L319 189Q322 183 329 166V154Q329 120 306 95L300 92Q295 80 274 68Q247 53 243 49T237 35L241 26V12L233 2Q221 1 213 0Q204 3 159 14Q157 16 124 33T85 52L82 60L69 58L63 65H38Q37 65 32 66L28
69L24 78V84Q25 86 27 94Q33 101 38 108Q46 123 47 151Q48 187 51 194L57 200L51 215Q51 208 53 266Q51 283 52 300L50 305V309Q50 328 51 327L55 338Q53 344 54 347L56 351Q51 374 52 404L43 407L44 419H35Q31 425 29 433Q29 439 35 448L47 454Q49 453 62 452Q81
458 83 458Q88 462 129 473Q167 483 177 496Q184 496 211 517L212 525Q217 534 224 540L229 542H232L246 541L261 528Q264 521 272 502L280 501Q288 488 302 455Q302 450 305 441Q309 438 319 424L322 404Q327 404 337 402Q339 401 341 398T345 393L348 383ZM710
115Q707 107 694 87Q690 84 678 84L679 75Q661 62 660 49L664 32L657 10L653 5L645 4Q635 5 617 16T592 37L591 41Q577 53 571 58L569 65L567 61L562 63H556Q543 69 533 79L534 94L543 103L542 107Q560 124 556 146L558 153Q553 188 553 202Q553 212 556 216Q554
231 561 236L567 256L558 264Q536 267 525 279L511 281L508 285L494 291Q485 304 487 312L490 318L497 324L501 325Q510 324 533 320L542 322Q548 329 558 332Q572 345 592 389L596 392L597 399L595 405H590L584 400H580L576 402Q561 400 543 410Q539 417 518 427T486
437L479 432Q478 424 474 403Q476 400 475 393Q475 391 474 380L466 375Q466 373 468 353L474 355Q474 348 472 330L474 326Q470 319 473 286Q476 252 477 241Q477 241 476 237L472 233V220Q472 210 479 192Q478 189 478 167Q478 167 480 155L484 151L489 139L495
136H502Q504 134 514 126L519 117Q508 87 475 76V71L463 62Q459 58 457 45L466 27V24L463 9Q459 5 448 0L427 5L424 9L411 16L408 23L401 30Q391 33 377 44Q357 60 356 61Q344 65 330 74Q330 80 329 85Q333 98 342 104L345 110L350 114Q356 129 356 153Q356 158
358 175T361 197V210Q360 216 360 223L357 229V239Q362 246 364 263Q358 278 363 301L360 306L358 331L362 339V361Q361 370 361 382Q361 414 366 434L375 445V448L370 451L368 460L371 465V476L364 480Q363 483 363 601Q363 591 358 638Q354 646 345 661L333 668V676Q338
688 344 693Q355 695 370 694L378 690H382Q396 681 413 656L418 659V666Q420 671 425 683Q445 703 457 708T479 719Q487 720 493 721Q542 721 565 694Q572 686 579 677Q581 672 583 655L578 647L572 643V639L582 629L580 619Q572 611 567 607T548 601L540 603Q531
609 524 622Q523 630 522 636Q522 639 525 651T527 669Q521 670 518 671Q517 671 508 670L497 664Q474 626 474 579Q474 575 473 560T471 540L469 535Q469 530 470 526Q469 523 469 521Q469 503 472 485L487 478Q494 480 504 493Q508 505 518 536L525 539H539Q545
539 568 525Q575 519 596 506Q600 503 628 494L631 493L639 486L662 478Q668 479 671 479Q673 479 680 477L686 473L691 455Q680 434 670 430Q657 403 632 366Q628 357 613 344L612 331L618 332Q628 328 633 325Q642 326 677 312L684 301V297Q670 276 670 252Q670
242 672 232L663 215V208L667 203Q666 200 666 191Q666 188 667 173T668 153L676 138L692 132H702L707 128L710 123V115Z" />
<glyph unicode="?" glyph-name="question" horiz-adv-x="382" d="M356 474Q353 469 344 460Q342 451 335 431T329 404Q320 386 296 353L283 349L279 340L282 333L278 324L271 320L270 310Q256 305 243 297L244 290L242 286L229 278H224L220 272Q221 271 221 268Q221
267 220 258L212 249Q206 231 201 207L195 196Q188 193 182 187Q176 185 165 186L154 191Q154 192 147 203Q146 204 146 230Q146 239 152 256T164 276V282Q190 331 198 347Q202 355 221 432Q212 448 208 479Q207 480 197 490T178 510L156 519Q145 519 138 520L132
523Q115 519 110 519L101 507L91 502L86 495L90 484L85 479L86 473Q79 466 74 454Q69 449 53 449L42 453L34 460Q27 470 27 487Q27 501 36 517L51 544L57 547Q64 560 73 566Q82 586 82 599L79 608L75 612Q72 639 72 645L82 658Q89 662 95 662Q97 662 107 661L125
647L127 643Q130 642 138 639Q197 651 200 651Q217 651 269 631L273 626L279 623L282 619H296L298 607Q321 590 332 557Q335 549 345 497Q348 491 356 474ZM261 87L250 63Q231 53 219 39Q218 34 214 8Q209 3 206 2L203 -1H198Q186 3 156 36L154 51L149 54L141 44Q132
52 107 73V86Q108 88 111 98Q130 113 149 133Q149 141 152 154L162 162Q168 164 173 164Q175 164 180 163H188L193 161L200 153L206 152Q207 148 210 133L222 121H227Q241 112 254 101L261 87Z" />
<glyph unicode="@" glyph-name="at" horiz-adv-x="681" d="M664 431Q664 292 527 204Q513 196 472 173Q443 157 426 153Q402 168 387 193Q382 207 376 235L274 152Q210 198 206 260Q201 324 281 410L210 536L222 535H247L256 537Q269 537 296 548Q314 553 329
569L337 567Q344 565 346 563L391 543Q411 534 440 534Q452 534 456 537Q465 543 473 553L496 541Q481 523 477 512L469 491L464 461L463 261L466 239Q467 234 477 232Q492 232 532 269Q615 346 615 427Q615 540 543 605T356 670Q239 670 152 587T70 388L71 366Q77
241 163 159Q238 88 352 88Q489 88 571 187L586 205L600 226L653 229Q637 184 620 171Q588 115 500 74Q425 39 349 39Q206 39 111 142Q19 242 19 386Q19 510 98 602T301 712L329 716L359 717Q486 721 575 640T664 431ZM379 472L377 467L254 506L305 415L373 385V472H379ZM379
361L377 355L299 388L287 352L283 310Q283 268 328 230L373 266V361H379Z" />
<glyph unicode="A" glyph-name="A" horiz-adv-x="760" d="M760 24Q760 23 759 18T756 10Q748 -2 729 -9Q704 -14 690 -11L682 -14H676Q666 -11 646 -5Q633 -7 618 3Q610 5 605 4L604 -2Q543 13 484 10L479 8H476L472 10L457 5L452 0L445 -1Q437 -9 425 -18L424
-22Q415 -25 399 -30Q392 -30 384 -26Q371 -16 367 -3Q365 17 380 33Q386 38 410 59L417 60Q439 70 455 93T469 137L464 149L466 168Q462 183 462 209Q462 229 452 263Q400 246 381 170L370 161L361 159L344 166Q343 168 335 196Q323 236 281 264H277L278 269L271
270L272 261L268 256Q263 243 263 238L265 235L267 225L265 216L261 212L248 207L254 194L253 189L246 183L255 172L256 164Q245 148 245 116V105Q247 102 255 78L260 72L261 68Q272 51 326 42Q329 40 337 33Q338 30 340 13L336 6L321 -5Q287 -12 264 -12Q245 -12
241 -10L228 -9L224 -2L217 0H183L179 3Q184 3 152 6L148 8Q104 4 69 -11L65 -19Q60 -21 51 -25T36 -31L32 -30L27 -31Q23 -31 14 -29Q10 -23 0 -6L1 10Q11 33 45 50Q83 69 91 77L93 85Q96 88 108 90L114 95Q117 107 130 114Q134 120 144 134L145 144Q159 163 165
182V185L169 193V199Q178 211 188 242Q197 270 204 287Q198 289 194 290Q177 292 156 278Q150 272 142 254V249Q139 244 127 232Q120 231 115 230Q112 231 98 232L82 248Q81 253 81 264Q81 307 128 331Q166 351 214 352L227 358L229 362L230 371L235 381L234 387Q236
392 242 397Q246 406 243 414Q248 427 260 459V469L273 489Q284 546 287 549L285 553V561L274 569L253 575Q239 579 232 576Q212 581 190 584Q185 590 173 597L166 607Q163 618 163 623Q163 634 181 659L186 662Q203 665 207 665Q208 665 213 664L217 661H223Q233
651 242 643L244 637L252 634Q307 634 329 628Q343 631 410 631Q412 631 421 628L425 618L432 625L441 623L445 630Q462 638 496 635L500 633Q538 633 557 645L570 663L582 668H597Q600 667 612 663Q620 653 624 649L626 637L622 619Q615 615 610 602Q580 579 561
578Q553 572 535 558Q532 555 532 547L529 543V538L541 478L540 469L547 463Q552 430 552 428T554 418L560 413Q571 397 567 381L569 368L579 354H583Q599 344 619 347L631 339Q645 339 664 327L667 317L675 320Q678 313 677 308L681 307Q690 302 698 288Q699 283
703 267L697 247Q690 239 676 234Q674 235 669 236T660 237L646 247Q643 256 629 278Q629 278 613 288Q606 287 589 295Q592 286 600 261L604 259L606 253L605 244Q610 239 614 227V221L621 211Q623 201 622 196Q629 174 638 149V145L630 134Q642 127 651 126Q663
109 664 97L670 89L673 77L686 73Q690 67 699 53Q699 53 715 48T742 43L755 35L760 24ZM449 313L448 322L433 330Q434 337 434 341Q434 346 428 361Q425 370 422 378Q424 386 427 389V404L410 423L407 434L411 441Q411 441 374 550L367 557L361 555Q348 530 327
463Q326 452 316 424V419Q309 411 303 383T287 344Q286 337 286 334Q287 333 288 325Q318 322 367 264Q373 272 393 294L397 295Q415 308 440 315L449 313Z" />
<glyph unicode="B" glyph-name="B" horiz-adv-x="622" d="M602 189Q602 189 588 168L587 160Q583 156 575 143L574 134L571 129V125L559 114L561 106Q559 101 537 89L544 77L537 68Q529 64 511 47T489 26L490 31L485 32L482 23Q446 3 419 -3Q412 -2 407 -2Q410
-2 362 -8L357 -6L351 -8Q312 -3 310 -5L299 -1L296 -2Q283 0 258 2L248 -1L242 4Q242 7 240 21Q234 20 226 8L215 5L207 11Q196 11 176 17L171 15Q166 16 163 17H135Q123 14 110 15Q94 8 83 3Q81 1 63 -21L55 -26L30 -30Q21 -24 8 -4L7 11L17 36Q25 48 34 52L39
53Q47 62 77 75L79 78L93 88Q113 128 112 133Q111 137 108 144Q108 150 114 159Q114 161 113 172T111 187Q111 199 114 209L120 213V216L122 213V212Q126 223 126 235Q126 236 125 241L118 245L116 257Q119 271 119 279Q119 281 117 288T115 297Q115 300 118 308T122
319L121 357L125 364L126 399Q126 404 125 419T123 438Q124 445 124 469L122 474Q124 489 122 500L119 505L118 514L120 522Q118 537 110 567Q107 570 103 574T97 579H93L77 586Q70 593 62 602T53 627Q54 634 61 653Q72 658 76 662L113 656Q119 649 135 630Q140
627 164 627Q177 627 234 637Q239 640 266 644Q290 648 300 648H365Q357 648 399 645L397 637L404 634L407 641H411Q416 641 431 637T449 632Q451 629 465 624L473 615L480 616L487 607Q501 603 523 569T543 521Q547 514 555 492L547 479Q546 476 540 440Q514 389
465 360L435 353L419 340Q432 339 466 329L469 330L476 327Q483 327 489 328L492 323L503 317L511 318L514 314L513 310L533 297L541 298L544 294V288Q566 271 592 209Q595 205 602 189ZM422 184L415 191Q414 206 411 240Q407 253 397 286Q365 318 355 317L345
326L341 325L330 331H322Q310 349 292 361V378Q292 393 306 405T336 416L351 409L360 395L365 364Q381 371 392 394T403 437L405 441Q406 455 403 463L405 472L410 479V483L409 499L398 513L397 521L399 527L394 539L391 542Q391 549 385 559L391 569L378 568L356
588Q334 595 328 595Q327 595 320 594L316 591L301 588Q296 581 279 566L275 549L278 534Q271 513 271 498V489L275 480Q272 472 270 442Q268 412 271 403Q266 401 261 395L269 388Q268 381 268 377Q268 344 272 313L278 300V287Q271 278 271 255Q271 246 272 234Q268
228 266 221V215Q270 213 277 208Q277 204 276 192T275 176Q275 174 277 165T280 152Q280 151 279 146V140L283 138Q286 125 295 96L294 81L305 75L306 64L311 62L316 51Q327 42 343 42Q345 42 350 43H358L361 46Q368 46 378 54T389 70L395 75Q399 88 409 122L419
121L411 130Q409 142 409 142Q409 147 412 151Q411 153 411 164Q411 172 414 179L413 185L422 184Z" />
<glyph unicode="C" glyph-name="C" horiz-adv-x="613" d="M646 -77Q646 -80 633 -102L629 -104L624 -103L627 -109L624 -113L614 -118H608L603 -121H585Q581 -120 566 -115Q556 -109 544 -103L529 -87Q524 -85 518 -78Q514 -67 503 -46V-42Q491 -24 485 0L473
45Q466 39 452 30L450 27Q447 26 435 18L430 19L429 14L417 5L413 8L407 5V0Q399 0 376 -10L367 -6L353 -12Q347 -11 344 -11Q337 -11 329 -16L315 -11Q290 -15 275 -15Q250 -15 240 -5Q224 -6 197 8H191Q183 14 178 18Q165 20 138 46Q134 53 134 62Q119 77 106
88Q104 94 98 103L97 115L93 116Q80 125 73 145T60 172Q61 176 58 187Q59 193 60 207Q59 214 53 224L38 237L42 253Q39 262 41 270L35 277Q36 282 37 295Q34 300 32 316Q26 331 20 345Q26 351 39 369L54 416Q53 420 56 432T60 447L64 453L65 463Q91 506 87 531Q92
545 95 547L108 548Q115 557 119 566Q131 573 156 605Q167 611 172 611L175 615L192 623V628Q197 631 224 645Q241 648 267 658H273L280 661Q307 661 356 664L360 662H379Q384 659 423 649T485 623H491L501 631L503 635Q524 656 539 664Q550 665 557 665Q569 659
572 652L574 641L569 614V618L565 609L560 607V602Q534 582 536 553L532 546Q533 540 534 537Q534 488 533 495Q533 493 535 480T538 462Q535 458 535 451Q535 447 538 431T541 410Q541 392 530 375Q513 362 495 361Q486 364 477 373Q476 376 474 381T469 388Q468
398 468 405Q468 396 473 431Q471 444 464 466L468 476Q465 480 462 493L465 498L460 507V517L457 523L450 528Q453 549 423 585Q417 589 404 600H397Q392 605 365 615Q350 614 339 616L321 611L317 608L311 607Q288 595 277 580Q259 555 255 551Q252 540 240 510Q241
508 234 477T224 443L225 436Q224 429 220 410L225 398Q225 392 219 377L221 369Q219 365 216 355L218 350Q217 346 219 325Q225 323 228 320L229 316Q228 310 225 292L226 289L231 288V264Q231 262 230 253L235 239Q231 217 232 209Q234 204 239 200Q238 192 233
175Q233 171 241 139T249 101L255 98Q263 82 269 69Q279 60 301 45Q306 46 309 46Q311 46 323 43T338 40L344 43H360Q360 43 374 50L383 51Q389 55 402 63Q410 70 433 105V109Q439 119 442 131Q446 147 448 156L447 162L448 165L453 171Q454 172 454 190Q454 192
455 200Q458 204 460 216L459 222L461 231L468 238V245L464 250L466 279Q476 300 493 308L504 306L509 307L520 299Q528 285 528 253Q528 249 527 237T526 220Q520 207 520 201L524 189Q524 185 522 175L529 177L522 170L527 158Q526 157 526 146Q526 145 527 141L520
137V128L525 123Q524 115 527 106L524 99L530 94Q528 62 534 55L531 49V45Q531 44 532 39V33L535 37L538 36Q548 -8 561 -30Q568 -37 572 -43L580 -44Q594 -42 604 -34Q613 -35 621 -32Q624 -34 637 -41L646 -57V-77Z" />
<glyph unicode="D" glyph-name="D" horiz-adv-x="665" d="M645 337Q639 328 631 300T623 259Q614 250 610 230Q604 202 603 198L604 191Q598 185 594 180L597 173Q592 161 584 144L574 137L572 126L567 123V119Q560 105 542 83T518 49Q514 48 502 45L495 34Q492
34 485 32L479 26Q475 25 467 21L463 16L457 13L453 8Q387 -12 357 -9L349 -13L338 -14L333 -10V-3L322 -11Q308 -8 301 -10L295 -7L289 -8Q285 -5 278 -5L274 -7Q256 -4 246 -5L238 0Q234 0 228 2Q210 6 182 7L178 11L165 14L161 13L145 17Q139 15 117 14Q101
13 84 0H74L72 -3L76 -5L77 -9L67 -20Q64 -21 56 -25H37Q32 -23 21 -17L9 -2L7 13Q9 18 10 27L30 54Q35 57 40 59L41 63L46 64Q59 75 76 81Q85 90 98 109L111 108L104 114L102 121Q104 127 104 130T110 158T113 190L111 194Q111 207 115 214L124 218Q118 220 114
219L113 226Q120 241 118 252Q114 257 108 263Q117 286 117 339V343L119 348Q118 359 121 366L126 367L127 371Q122 378 119 386Q120 399 129 462Q123 476 121 512T109 566L102 571L103 576L101 582L95 579Q92 581 71 590Q60 599 52 616L51 625Q54 632 53 637L59
650L74 660Q76 661 79 662T84 663Q99 663 109 660Q112 657 134 637L136 633L149 630L155 626H163Q166 625 170 625Q172 625 189 629T209 633Q212 636 249 643T291 649Q302 655 322 653L329 656L335 653Q353 655 377 655Q427 655 482 621L479 622Q482 621 487 619T494
614L493 610L494 604H498L505 607Q507 605 527 592Q529 586 533 580H540Q540 560 565 530T594 483L601 476Q607 461 607 429Q612 424 613 421Q613 391 626 358L633 359Q635 354 638 342L645 337ZM457 294V309Q457 313 454 325T451 341L457 350Q456 376 456 390T455
397L453 401Q453 443 452 440Q449 445 449 450Q445 454 440 469Q442 492 437 499Q434 502 429 507L427 523Q416 546 411 550L410 556Q406 562 399 565Q398 568 378 584Q367 592 322 600Q313 596 307 597Q278 571 282 547L277 537Q278 533 278 531Q278 524 276 510T274
489Q274 487 275 479T276 469Q276 467 274 459T271 449Q271 430 275 425Q274 423 273 385Q271 326 273 319L269 306Q270 299 270 296Q270 295 269 290Q274 278 273 270Q281 266 282 258Q282 230 283 217T285 208Q279 198 278 191L281 185V174Q280 168 280 164Q280
162 281 152L288 145Q294 132 292 102Q298 88 299 79Q307 66 326 50Q331 50 338 44H344Q346 43 349 43Q365 43 380 50Q389 56 405 74L407 87Q410 92 419 101L426 121Q431 123 436 126Q441 146 438 156Q460 218 451 281Q452 284 457 294Z" />
<glyph unicode="E" glyph-name="E" horiz-adv-x="600" d="M643 -79Q639 -94 630 -101L622 -103L615 -97Q617 -103 616 -106Q610 -112 604 -113L599 -111Q593 -112 578 -113Q567 -109 546 -93L541 -91Q534 -79 518 -55Q506 -33 506 -16L503 -12V-9Q499 8 491 39Q480
40 471 40Q463 23 434 10Q414 2 392 -8Q388 -7 386 -7Q376 -7 372 -9T331 -12Q330 -12 325 -13H319Q316 -13 302 -12T279 -9T247 -1L243 1L237 0Q218 6 183 24Q169 35 139 52L137 70L128 65Q122 73 110 85L108 91L110 98L106 109L95 114L97 121L96 127H93L87 131Q72
156 68 175L63 181Q57 192 61 205Q59 214 50 255L52 264Q39 288 35 318L29 323Q28 329 20 340L21 347Q37 380 63 430Q62 448 74 471V477L88 506L86 511Q90 514 99 519Q104 533 103 534Q112 546 115 558L127 562L131 566Q135 582 151 595T182 619L188 620Q199 624
225 640L237 642L241 646Q309 662 343 662Q378 662 418 650Q420 651 425 651Q426 651 429 650L431 645Q461 637 480 622H483Q485 622 493 623Q506 631 514 644T528 660T539 669L550 673Q556 671 569 670L573 667L577 658L576 642L567 626L555 617L558 609Q535 571
533 502L529 494L533 488V466L524 447Q517 438 506 438Q496 438 489 442Q487 447 481 452Q476 468 477 476Q476 489 468 513L465 517Q462 528 466 537L456 541L455 557Q452 562 438 582Q432 584 416 589L413 594Q407 598 391 604Q377 604 355 606L350 600L340 604Q314
600 283 582Q278 577 270 566L262 562Q255 550 242 517L233 487L229 486L232 476Q227 457 226 453L222 446L228 439Q226 416 227 414L219 410L214 399L220 393Q238 392 317 395Q321 395 337 396L339 391L344 395H365L376 402L370 394L379 396Q390 411 422 441Q426
442 435 443L445 438L451 427V415Q444 385 438 380V373Q439 366 444 326L437 321Q441 305 443 290L453 281Q451 261 446 240L436 227L421 221Q411 226 397 239L398 244Q395 252 395 266Q367 289 346 290L292 293Q288 291 242 291L238 289L229 290L226 296Q222 285
223 274Q223 272 224 259L229 253Q228 235 228 214L233 209L228 183H233Q234 178 237 166L241 161Q246 108 281 65Q284 62 296 55L331 40L337 41L341 39H348Q359 39 377 47L383 53Q390 53 395 54L402 60L407 61Q420 74 430 85L431 93Q437 102 449 112Q453 118 456
138Q461 143 464 145Q470 157 477 185Q484 217 488 226Q493 227 499 233L515 237L519 234L527 232L531 228Q538 214 539 194Q542 166 543 161L541 156Q541 162 547 118L545 114L543 88Q551 54 558 3L564 5L568 1Q569 -18 581 -30H598L633 -43L636 -46L643 -63V-79Z"
/>
<glyph unicode="F" glyph-name="F" horiz-adv-x="572" d="M552 391Q552 390 551 382Q545 376 542 369Q524 361 515 361Q497 361 484 374Q482 376 474 388Q471 398 466 424T457 477Q454 482 448 504Q437 518 428 541L423 542Q417 550 405 564Q365 588 337 583Q326
581 295 563L292 553L284 547Q281 542 275 514T269 478Q269 477 270 473T271 466L273 461Q272 460 272 442Q271 395 274 390H287Q293 389 300 389Q315 389 343 393L351 391L357 395H364Q387 409 406 431Q412 438 425 438Q434 438 442 430Q448 402 447 401Q432 355
435 336L432 329Q437 313 434 301L440 293Q446 274 446 264Q446 249 438 233Q429 213 416 212H410L398 217L388 227L386 234Q386 238 388 250T391 265Q391 283 365 298Q347 301 336 301Q289 301 277 297Q276 294 276 292Q276 290 277 279L284 272V265Q284 257 280
250Q280 236 286 213Q285 203 285 197Q286 194 289 180L288 175L283 170Q282 167 282 157Q283 155 287 141L297 135L300 129L298 123L300 108Q306 100 310 88L324 74L331 71L336 57L341 59Q345 57 349 51L358 49L385 60L391 58Q395 71 394 75Q398 82 400 89Q414
101 428 101H435Q440 99 454 91Q464 80 464 57Q464 61 456 34Q445 21 431 8Q418 2 378 -6L374 -8Q361 -7 352 -10Q321 -5 293 -2L288 1Q270 3 257 3Q255 3 249 5T242 7Q210 12 198 10Q191 16 178 17Q173 15 167 13Q151 16 136 16Q133 16 116 14T93 12Q87 6 76 2L71
-10L48 -28Q39 -27 23 -24L13 -16L7 -6V1Q7 36 29 49L31 53Q42 59 54 65Q54 65 77 81Q96 95 105 111L121 175L117 187L119 200L122 204Q119 212 119 229Q119 275 123 280Q121 302 121 294L119 299Q119 308 122 321L117 326Q115 332 116 337Q122 345 122 365Q122
378 126 387L124 392L125 397L123 401Q123 408 124 429T125 455Q125 462 123 490Q122 511 123 524L117 531Q125 542 122 551Q119 565 107 590Q92 592 86 595L85 599L81 602H72Q50 609 50 641Q51 643 52 649L64 664L79 671H86Q90 671 107 669L119 663Q129 651 133
646L143 640Q147 641 164 639T186 637T209 634T232 631Q234 631 239 632T246 634Q252 634 273 633T301 632Q303 632 311 633T322 634L331 628V623L345 632Q352 631 357 631Q382 631 401 632L406 634Q415 632 446 636T486 644Q491 652 498 656Q517 650 522 645Q522
643 529 609Q529 609 527 561L520 547Q520 544 525 537Q524 520 516 485L518 481Q517 474 517 469Q515 442 519 429Q522 430 538 425Q546 417 550 412Q550 409 551 401T552 391Z" />
<glyph unicode="G" glyph-name="G" horiz-adv-x="610" d="M590 199Q575 190 572 156Q567 148 567 144L563 142Q563 141 558 134V121Q555 117 554 107Q541 83 529 76L527 66Q519 58 498 38L492 40L488 32Q448 6 416 -6H411L407 -8L398 -9Q395 -11 387 -14Q375 -13
367 -12Q365 -12 359 -13H351L348 -18L343 -17L338 -18Q314 -14 308 -15L304 -17L290 -16L279 -10Q272 -13 257 -13Q255 -13 239 -9T218 -4L215 0H210Q203 2 198 6H194Q168 22 161 27Q143 41 138 54H129Q110 87 70 152Q69 165 64 172L58 180Q56 185 55 188T48 214Q47
219 45 233L50 244L47 249L41 253Q38 262 33 296T27 341Q21 350 20 361Q47 406 47 413L55 426Q55 434 59 443H63Q65 452 64 460Q72 474 74 485L73 493Q77 494 92 520T108 552L113 556L115 561L128 572L129 577L132 581Q136 585 141 585Q145 589 175 613L188 615Q203
632 215 636L219 641Q224 640 256 648T298 657Q304 657 308 657T336 655Q340 656 355 656Q413 649 443 623Q443 623 461 621L471 625Q479 637 488 649T510 665L540 655L543 644L540 628L516 586Q515 572 505 541L512 530Q514 522 511 513Q512 512 512 510T513 507Q513
504 510 492T508 475L505 471Q506 470 506 467L505 450Q503 448 495 434L488 429L469 430L459 438Q456 459 442 497Q441 502 443 508Q440 516 441 528Q436 536 421 552L419 557V563Q411 571 410 576Q401 585 396 592Q380 598 360 607L346 609L343 605Q332 603 304
597Q288 584 256 561L255 546L249 543Q240 516 231 504L234 495Q229 475 229 456L219 444L222 429Q222 416 218 399L219 394Q213 372 213 296Q214 293 216 276H221L226 269Q231 251 231 213Q231 195 227 190Q227 190 231 174Q230 172 230 161Q230 156 235 136T239
108L243 106Q243 105 244 101T247 93Q260 76 276 51Q300 42 311 34L315 35L320 34L325 35L330 33Q345 38 369 48Q375 61 383 69L395 96Q400 122 410 159L406 163L408 171L413 177L416 187L411 198Q413 216 412 243Q412 253 411 251L415 254L410 262L408 275Q399
293 388 313L374 325Q368 326 352 331Q342 326 337 321Q331 307 333 297Q336 290 349 286L360 268L356 255L357 245Q354 235 347 229Q332 221 315 219Q309 221 292 226Q287 234 272 252Q273 256 271 265T268 277Q268 278 270 288T271 302Q275 312 288 341Q290 342
298 350Q322 372 365 391L376 389L405 397L414 396L419 398L432 394L440 396Q447 395 473 384T504 369L507 363L513 358L515 352L538 345V337L548 324Q551 308 559 303L560 294L566 284L564 279V271L568 270Q569 262 576 243V224Q577 217 590 199Z" />
<glyph unicode="H" glyph-name="H" horiz-adv-x="637" d="M617 -68Q612 -82 614 -87Q589 -136 545 -136Q486 -136 443 -81Q440 -72 439 -65L434 -58L432 -46L426 -43Q427 -41 423 -22T419 1Q418 21 411 43L415 53L411 61Q412 67 413 76Q412 79 412 86Q412 99 416
127L423 135L419 143L425 152L421 158Q423 165 426 184L422 185Q411 193 411 216Q411 231 415 240Q413 248 416 260L413 271L419 280Q421 292 419 315Q419 315 427 325L423 327L420 333Q420 366 415 379L407 385V389L400 405L396 409L386 411L385 417H381L375 421Q367
422 362 422Q360 422 349 421Q343 415 329 413L327 409L321 410L309 401L304 389Q301 386 295 384Q293 382 289 379T284 374L287 368L282 363L283 359Q278 350 271 334L272 324Q266 314 266 279Q266 277 267 267T269 252L265 243V230Q260 222 260 208Q260 207 261
199L265 196V186H268L272 182Q273 179 273 172Q273 156 263 139L270 136Q281 69 312 53L319 55Q325 50 345 47T368 42L375 34L378 18Q375 13 367 0Q361 -4 340 -7L333 -13L329 -9Q314 -13 301 -8Q289 -8 279 -9Q278 -8 259 -3T238 2L231 -3Q131 10 125 9H100Q90
5 80 1T67 -10L60 -15L56 -23L45 -29H30Q12 -18 10 -12L7 1Q10 11 9 13Q14 26 38 50Q50 55 53 55Q62 63 74 68L77 73L88 80Q91 89 99 110V139L105 142L106 148L113 159Q113 162 106 181Q108 191 111 215L109 222Q109 231 112 244Q105 256 106 268L109 299Q109 300
111 307T114 316V393L116 398L113 404L115 409Q114 414 114 434L123 445L114 443Q111 445 108 449L107 453L108 460L112 463Q113 467 113 469Q113 473 110 491Q111 496 116 507L112 516Q113 526 114 533Q114 562 95 577Q85 582 57 594Q54 602 49 605L48 609Q49
625 53 630L67 640L83 642Q103 637 133 636Q169 634 181 632L185 635L195 634Q203 629 222 629Q242 629 251 633L256 631Q264 631 269 630L270 624L274 630L312 633L317 629H345Q347 629 357 631T372 632L379 627L387 626L394 632Q400 633 420 638Q437 642 447
642L459 648L468 649Q473 652 477 668L489 681Q500 689 515 687Q526 683 536 677Q541 664 541 656Q541 652 539 643T537 630L529 619Q528 618 508 604L476 595L465 597L462 593Q452 593 434 590L433 579L421 576L408 579Q402 576 388 576Q385 576 372 577T355 579Q300
579 286 571L277 562Q264 522 264 509Q264 501 267 495L262 446L265 435L263 430L268 427L270 436Q275 442 285 452T300 468Q320 486 336 492Q342 493 373 503Q377 503 390 506T406 509Q419 509 431 506L435 507Q449 503 467 497L473 498Q478 496 502 490Q508 484
513 483L516 476Q541 461 558 429L557 421Q560 418 578 398Q581 391 580 385Q595 369 595 331Q595 330 594 325T593 318Q593 242 589 230L578 196Q565 155 558 148L564 145L565 138L558 126V122Q535 75 528 69Q516 43 506 19T496 -49Q500 -53 505 -68Q513 -77 532
-89L527 -86L538 -90L545 -88L549 -81L540 -70Q540 -61 539 -54Q541 -44 549 -27Q555 -27 565 -20Q572 -20 589 -18Q607 -26 614 -45Q616 -60 617 -68Z" />
<glyph unicode="I" glyph-name="I" horiz-adv-x="406" d="M400 19L397 10L390 0Q373 -10 350 -10Q346 -10 336 -8T323 -6Q320 -6 307 -7T290 -9L288 -2Q278 -7 262 -7Q267 -7 192 2Q190 2 163 13L151 6H146Q142 10 136 10Q115 8 84 0Q78 -7 68 -19Q55 -28 46 -30Q33
-30 19 -22Q12 -16 8 -8V-1Q7 1 7 4Q7 25 20 38Q25 39 30 47H35L40 49L39 53L65 69Q76 73 87 82Q114 112 114 187Q114 193 117 220L112 226L113 232L116 236Q118 246 118 249Q118 251 117 258T115 267Q120 276 122 297L126 302L121 306L119 313L121 318Q123 354
122 360L116 369L124 383L117 392V427Q117 428 118 434T120 442L123 446Q120 454 120 475Q120 476 122 485T123 498L118 504Q120 518 120 526Q120 530 116 546T113 565Q104 570 103 576Q95 582 89 583L84 588L77 590Q71 604 65 608L58 612V626Q70 640 97 640Q115
640 151 635T206 630Q213 630 235 632T263 634Q296 634 321 658Q329 662 358 662Q364 656 370 649T378 634Q373 619 355 601Q339 597 311 575Q309 572 299 560L303 559Q300 556 292 519L278 504L286 502L290 494L289 461L293 455V450L292 423Q288 416 288 394Q288
331 290 317Q288 309 288 301Q288 291 295 283Q288 262 288 236Q289 232 290 215L297 205V199Q297 190 291 170L293 165Q292 161 294 153L291 143L297 136Q298 99 317 68L322 66L327 59L338 58L346 50Q358 49 386 44L393 38L399 27L400 19Z" />
<glyph unicode="J" glyph-name="J" horiz-adv-x="544" d="M537 627Q537 616 528 604L523 603L518 598Q487 597 467 570Q454 545 454 459Q454 458 453 452T452 443L446 439L452 435Q451 417 450 407Q447 366 457 344L454 332L455 319L459 314Q456 298 455 289Q455
296 457 247Q458 216 455 208Q457 204 461 202Q463 189 467 167L473 160L475 153L471 143V134Q473 130 482 108Q495 101 514 87Q514 86 516 68L513 60L504 51Q477 43 475 44L466 37H462L457 39L449 31L442 33L433 31L420 22Q414 20 410 21L405 17Q382 11 362 0L358
1L354 -1L345 0Q328 -10 282 -11L280 -5L276 -7L274 -13Q262 -14 255 -15Q267 -15 189 -13Q172 -10 133 -2Q124 9 91 12L90 17Q81 20 73 23L74 27L70 25V29Q52 37 33 71T13 126Q13 165 14 162Q16 166 19 197Q25 207 41 235T69 266Q80 286 104 290Q117 299 132 317L122
335H110L94 343L88 352Q86 362 86 370Q94 386 115 404Q117 404 124 405T132 406Q145 406 152 403Q156 398 170 393L176 386L185 383L192 372V366Q194 358 201 340Q203 336 204 331Q204 329 203 316L193 300L198 294V278Q198 277 199 269L192 263Q189 246 180 221L171
218Q174 209 174 198Q162 186 162 169L157 160L156 153L158 147Q157 136 156 129Q156 106 164 76L171 71L172 66L176 65L181 56L186 54L189 50Q210 43 230 43Q232 43 239 45T248 47L262 55Q271 66 278 79L283 80L289 91Q288 96 288 105Q289 108 291 121L294 125L290
131Q290 142 301 159V168L293 181V185Q293 187 294 195T295 207T298 223L296 233Q295 256 301 310L298 324Q299 328 299 330Q299 334 297 351Q292 358 292 374V382L298 386V397L300 402L299 406Q300 410 301 419Q295 435 294 446Q300 457 300 462L295 471Q295 474
296 482T297 492Q297 494 295 505Q291 509 291 514Q292 519 292 527Q292 527 290 543L279 561L276 562L271 572Q264 573 249 581L245 580L239 583Q232 584 224 581L217 584Q211 583 207 583Q205 584 193 586L188 584H170Q169 584 164 585H158L156 590Q153 589 137
594L136 590Q121 594 110 607T99 634Q99 637 100 650Q103 656 129 676Q138 674 167 667Q169 665 191 639Q196 635 245 631L255 635L263 628Q314 628 317 627L322 629Q345 624 363 630L367 628Q385 629 418 631T468 644L479 658L495 665Q513 665 522 661L534 652Q537
645 537 627Z" />
<glyph unicode="K" glyph-name="K" horiz-adv-x="655" d="M646 -119Q627 -136 589 -151H583Q572 -160 549 -157L547 -153L539 -147L534 -146L523 -149Q506 -138 473 -121L472 -115Q465 -106 459 -105L456 -97L447 -93L442 -82L433 -78Q431 -67 421 -43Q423 -35
418 -24L414 -20Q416 5 412 27L415 36L413 40L414 51Q394 83 394 89Q394 95 400 115T406 139L414 151L408 162L410 167Q410 172 411 188T413 209Q413 212 411 223T408 236Q405 246 396 262H400V269L397 277L392 266Q392 267 385 283Q359 300 345 300Q341 300 327
299T308 297Q305 298 289 300L279 296L276 292Q272 269 272 165Q273 162 275 154L283 153L286 131Q284 125 284 122Q284 119 285 107T286 90Q292 74 304 63T369 46L383 36L389 25V22Q389 18 386 9Q382 4 374 -2Q370 -2 362 -7H354L350 -10Q339 -10 331 -7L324 -9L310
-7L303 -9L294 -7L295 -4L288 -1L282 -4L277 -3L273 -8L263 -5Q262 -2 235 9Q231 3 230 0L218 2Q205 5 184 11L176 9L165 13Q155 12 148 12Q146 12 144 13H141Q98 13 74 -9Q55 -26 39 -28Q25 -24 19 -23L8 -6Q7 -4 7 2Q7 12 11 27Q20 36 24 45L32 50L35 54L44 53L49
55Q60 68 73 75L82 77Q100 103 109 139V145Q111 152 116 170Q113 176 110 189Q114 201 119 217L112 228Q111 233 111 235Q111 240 112 245V255L116 258Q116 263 118 299L124 308L119 313V322Q128 329 131 330L127 333L119 334Q119 337 121 371L112 394V397Q115
405 118 409Q121 452 123 462Q118 472 118 480Q120 487 123 507L119 514Q122 533 113 554L101 566Q100 566 91 570T78 573L61 580Q58 584 51 591T44 606Q45 616 52 624Q55 627 63 633Q67 634 77 638H81Q93 638 97 635H109L113 632L118 633L132 629Q135 630 137
630Q142 630 159 628T180 625Q183 626 196 628L206 624Q220 624 245 627L250 625Q273 627 291 638Q322 658 327 660L339 661Q350 654 359 645L363 642Q362 635 364 623L361 614L353 610L348 612L338 598L340 593L333 591Q327 585 313 580T293 571Q277 561 274 519Q271
488 270 460L264 454L263 446L267 444V437L269 432Q267 422 267 422Q267 418 270 406Q272 395 270 389Q275 379 275 374L279 372L282 368Q300 362 325 362Q365 362 387 396Q389 400 393 411Q408 450 400 487L404 495Q403 503 402 511Q404 518 409 535L413 537Q414
547 420 557H416Q417 559 436 604L440 606Q455 628 468 631L472 636Q472 636 507 650Q515 651 536 655Q561 653 576 644L578 640V632Q578 631 577 625Q562 610 550 597Q543 581 546 571L542 559Q544 544 547 504Q545 501 543 492L546 481Q544 458 534 446Q535 440
536 423Q519 373 482 355L480 351Q475 348 470 343Q430 337 423 337L417 333Q420 331 463 324L481 310L485 312Q497 305 527 287Q537 264 552 257V252Q563 248 576 201Q575 194 575 189Q574 182 581 171Q581 167 580 155T579 141Q579 132 581 110L575 101Q575 86
570 44Q563 29 555 -5L552 -10Q545 -48 545 -46Q545 -48 547 -57T548 -71L552 -74V-78Q555 -86 560 -93L575 -104H590Q596 -100 597 -94Q592 -79 587 -68Q587 -53 597 -36Q607 -26 626 -26Q633 -26 639 -28T655 -36Q655 -37 664 -56L663 -61Q664 -64 664 -66Q664
-83 646 -119Z" />
<glyph unicode="L" glyph-name="L" horiz-adv-x="546" d="M533 332Q533 326 528 316T516 304L511 305Q510 302 505 297L495 295L490 296L483 294L476 285Q473 270 470 265L469 249L464 243Q464 242 462 206L458 201L463 196L461 184Q462 178 463 175Q463 171 461
149Q464 142 463 136L473 114Q473 115 471 103Q471 93 483 64Q482 54 491 42L501 36Q501 36 497 12L492 11L481 3Q479 3 472 1T461 -1L458 -3L451 -2Q419 -13 408 -10L399 -12L392 -1V-5L382 -15Q360 -15 327 -9L315 -11L310 -8Q306 -7 300 -9Q280 -5 274 -5L267
0L254 -2L244 4L236 1Q212 9 190 9H192Q188 10 178 12H125Q135 12 103 7Q92 -4 59 -30Q54 -30 47 -34H39Q32 -34 21 -28L9 -12Q7 -2 7 0Q8 3 9 18Q13 30 31 45Q51 57 60 64Q62 66 71 75T83 99L82 103L86 109L87 117L93 125L90 133V143L87 147Q92 163 86 179Q92
190 92 247L97 248L99 252L100 262Q97 268 92 295Q98 316 97 321L103 325L106 331L97 334V339Q98 342 98 344Q98 356 95 369Q96 371 96 379Q96 381 94 388T91 398Q91 397 96 414Q96 425 97 434V453Q97 457 96 470T94 486Q94 488 95 494T97 501Q96 496 96 523Q96
537 91 559Q83 571 75 576Q58 581 54 580Q42 589 31 598L29 611L31 619L38 629Q48 634 55 637Q73 636 110 631Q111 632 136 632Q137 632 139 631Q146 634 174 629Q177 630 179 630Q182 630 192 629T204 627L213 621H218Q220 621 229 622L225 625Q228 627 233 629H240L244
631Q239 630 285 630Q340 630 365 645Q375 655 398 668Q410 667 423 666L435 657Q446 645 443 632Q441 621 429 608T407 593L402 588L394 589L391 586Q382 585 364 583L357 588H348L329 579Q304 579 279 575Q274 571 259 556Q253 538 253 509Q249 504 249 457Q249
429 253 422L249 418L250 409L248 403L252 387Q248 364 248 367Q248 370 252 351L248 332L251 328L248 320V301L251 295Q254 284 250 273Q255 258 253 244L256 241Q257 235 255 225Q257 215 258 211L255 207V204L263 201L262 183Q260 178 255 170L257 164L260 163Q263
156 263 131Q263 111 278 81Q291 67 300 65V60Q327 54 327 54Q361 63 361 111Q363 115 371 137L367 143V147Q367 149 368 156L373 159L374 171L379 176V185L376 194L380 204L377 209V214Q381 222 382 225L386 229Q384 243 397 261L398 268L402 275Q402 284 407
295T414 314T417 326L427 327L428 335L434 338Q438 345 444 348L447 354L456 357V361Q462 362 473 367Q476 366 482 366L484 371Q488 372 496 369L501 371Q518 366 526 357Q533 342 533 332Z" />
<glyph unicode="M" glyph-name="M" horiz-adv-x="874" d="M834 25Q834 21 829 6Q816 -10 767 -10Q764 -10 744 -7T721 -5L717 -2Q709 2 697 0L682 6Q675 17 667 22L666 27L659 30Q653 40 643 47Q641 52 629 77Q622 92 621 112L618 115Q617 121 619 131L616 137Q617
155 617 165Q617 174 613 190Q614 192 615 195T616 200Q614 220 621 228Q618 236 619 240Q622 259 624 270T627 286T628 288Q628 295 621 305V313Q632 365 628 379L635 387Q637 410 640 470L637 474L638 489L635 494L634 505L631 509L630 513L631 521Q627 540 618
545L617 551L612 553L608 563Q601 571 587 581L573 583L571 586Q562 589 554 588L546 585H542L534 580Q521 566 517 510Q512 446 508 435Q508 429 515 419L516 410L509 399L515 400L516 386L509 376L510 368L519 358Q521 342 519 337L522 319Q517 307 517 276Q517
274 522 258Q520 252 520 240L507 224H517L520 217V211Q519 208 519 205Q519 207 521 183L529 171Q531 162 532 151L530 142Q533 133 538 108L541 104Q543 88 565 69T604 45L610 46L614 41L619 38Q624 31 624 19Q623 16 619 10T614 0L607 -2L603 -6Q591 -11 572
-11Q568 -11 553 -9T533 -7Q527 -3 506 -1T480 4H467L460 7Q449 5 440 6L435 9L431 7H426L418 15H412L405 12Q392 13 380 10Q377 11 375 11Q373 11 363 10Q360 6 353 3L351 8L337 10L331 7H328Q313 1 294 -21Q284 -22 278 -23Q267 -23 258 -15T249 8Q249 11 250
22Q256 35 264 47Q275 53 290 62Q318 73 320 74Q336 82 346 93Q359 118 359 147L361 151Q360 155 360 157Q360 161 361 175T363 193L359 198L360 206L365 215L364 221Q365 222 365 253Q365 255 364 259V266Q367 271 367 277Q364 282 364 286L367 301L364 308V318L368
325Q366 341 367 356L369 387Q369 409 366 439L363 444Q366 465 366 468L364 473Q364 480 368 487Q367 494 364 509Q365 511 365 521V539L362 547V566Q355 577 351 581Q330 587 330 587L309 584Q296 582 284 564L266 537V527L254 514V504Q253 500 250 491L253 477Q251
474 245 466Q247 459 251 452L248 444Q247 417 252 408L247 407L248 400H253Q259 382 262 355Q281 327 281 302Q281 295 266 268L264 255Q266 250 271 227Q270 219 269 213Q270 212 271 203L264 196L267 190L275 188Q275 186 271 170T266 134L261 121V111Q259 107
253 100Q249 84 241 60Q235 49 226 34Q211 16 186 2Q157 -14 138 -11L131 -14H104Q87 -14 40 4Q22 17 15 36V43L9 47Q8 49 6 80Q8 86 14 101L25 111Q49 119 54 118Q62 117 77 102Q83 92 83 82Q83 73 76 56L77 49L83 40Q92 39 98 38Q100 38 110 39L119 44Q120 51
128 57L134 79Q134 82 132 103T130 131L127 136Q126 141 126 148Q119 159 117 181L112 187Q109 193 100 225T91 264Q80 289 80 359Q80 401 100 439L99 447Q100 455 110 475T127 499V513Q131 520 141 525L144 534Q151 537 176 573L184 577L191 586Q201 591 210 596L212
600Q224 608 236 611Q241 617 281 637H285L289 642L294 641Q310 643 323 650Q346 648 361 656L365 655Q375 656 397 660L411 663Q418 659 436 659Q438 659 445 660T456 662H467L476 658L483 660Q485 659 503 659Q504 659 507 660L514 656Q518 657 520 657Q522 657
533 656T548 655L552 653H560L562 652Q583 648 622 634Q633 627 645 623L651 619H660L664 603H669L683 594L701 592L704 580Q749 524 756 520L754 509L759 496L765 494Q785 474 798 416Q799 396 804 355L802 350Q804 331 794 286Q795 283 795 273Q790 265 786 254L788
248Q786 232 779 222L780 207Q778 204 773 196Q773 183 762 161Q763 156 763 153Q763 151 761 143T759 132Q759 120 762 115Q761 113 758 109T753 101V95L756 91Q756 85 757 80L764 72Q762 62 774 49L785 42H789L795 46Q803 47 808 47Q811 47 822 46L833 34Q834
28 834 25Z" />
<glyph unicode="N" glyph-name="N" horiz-adv-x="654" d="M614 360Q609 348 607 307Q603 303 601 293L591 282L589 274L590 266Q589 255 577 230Q576 221 574 203Q556 184 555 177V169Q544 155 537 135L531 129Q528 124 523 96L514 87V71L509 62L508 54Q497 40
490 -29Q487 -58 519 -78Q524 -79 527 -79Q528 -79 533 -78L540 -67Q535 -62 532 -50L534 -28Q540 -19 549 -12Q575 -4 578 -6Q583 -9 590 -9Q597 -16 602 -19Q603 -23 610 -41V-47Q610 -88 571 -119L554 -124V-128L549 -132Q531 -134 519 -134Q494 -134 477 -123L471
-122L467 -116L456 -108L454 -101L448 -99Q410 -39 416 -13L413 -8Q414 -2 411 10Q414 17 413 23L415 28L414 38L409 44Q408 49 408 56L411 61L413 78L410 84V94L415 106Q414 111 414 113L417 137L412 144Q413 148 409 160Q411 168 418 186L414 191V197L416 202V213Q409
220 406 226Q405 236 405 242Q405 234 416 292L421 296Q421 319 426 334L430 336Q431 340 428 351Q434 371 434 399V448Q434 449 435 455T436 465L433 470Q430 481 423 521L419 524L414 540L416 550L410 554H406L403 561Q397 568 375 585Q373 585 362 588T345 591Q326
591 315 587Q284 562 282 549Q277 520 272 512L273 515L274 505L271 497Q272 489 273 484Q273 477 272 471V458L269 450V432L272 426L271 413L273 408L272 412L274 394Q271 387 272 364L277 362V350Q277 345 269 324L274 306Q272 296 273 291L269 287Q272 277 277
271Q278 262 278 249L283 245Q283 237 282 231L285 224Q285 222 284 216T282 206V199L285 192L283 186Q284 184 285 179V172L279 162Q286 151 296 143L293 136Q296 120 305 94L313 87V83Q321 77 331 65L340 61L343 56Q347 57 358 54L364 55Q368 55 384 47L389 37V29Q389
26 386 19T382 10Q362 -11 332 -8L325 -2Q319 -7 312 -9L304 -7L300 -8Q297 -6 284 -4L280 0H251Q250 0 241 2T227 3L215 8Q209 7 202 10L190 9Q176 18 135 15Q133 15 122 14L118 12Q107 12 94 7L90 3H84Q77 -5 59 -22Q53 -22 48 -26H41Q12 -26 6 13Q8 22 12 33Q20
39 21 46Q32 53 46 64L57 63L60 59L59 65Q64 74 72 79L76 80Q111 106 111 149Q111 157 110 161Q113 167 113 179L117 185Q118 187 118 197Q118 202 117 217T115 237Q116 239 117 247L124 258Q121 267 121 298Q121 339 122 340L126 346L128 355L120 362Q123 374
122 384L119 390Q123 411 123 470Q123 485 121 513Q120 520 115 542Q111 561 112 571L101 576L97 581Q89 584 85 583Q57 593 41 615L36 631Q39 643 38 647L57 666Q64 670 80 670Q97 670 114 641L118 640L119 636L130 631Q142 630 152 630Q181 630 194 636L199 644L200
638L205 640H214Q218 639 222 639Q224 639 231 641T241 643H248Q253 646 291 651Q333 656 334 656Q340 656 369 654Q397 653 401 654L415 651L418 643H425L423 651Q437 641 458 640Q463 634 484 624T508 611H517L518 604L525 603Q530 600 537 593T577 544V539L583
535L585 522L592 513Q595 504 602 469L599 460Q599 460 607 448L608 444Q604 437 602 423L610 421V399Q610 392 611 384Q611 376 611 376Q611 366 614 360Z" />
<glyph unicode="O" glyph-name="O" horiz-adv-x="643" d="M623 350Q621 343 614 317Q601 271 597 228L592 219Q591 222 588 192Q583 183 579 182L577 178L578 173L576 164L568 159Q568 145 560 131Q555 128 549 124Q548 108 533 91Q514 69 511 62Q501 54 486 40L474
37L467 46L468 36L464 25Q446 6 414 -3L409 -7Q397 -9 379 -13Q372 -12 360 -15L356 -12L346 -17L331 -14L325 -18Q309 -17 278 -14T235 -2L222 -1Q176 19 154 41L150 42L146 47L145 52Q128 69 114 80Q113 82 111 87T107 95L102 98Q101 99 91 111L75 149L77 156L76
161L72 167L65 172L61 178L65 184L63 192L57 196Q52 214 53 218L48 219L46 226L48 233L47 242L43 248Q43 251 37 286T30 324T20 344V351Q20 360 26 364L44 374L46 395Q47 397 52 406V415Q58 427 62 455T73 499Q82 506 98 537T117 569L128 571L139 581L137 589Q146
601 171 615T205 638Q218 640 248 645Q283 651 294 655L300 652L313 651L314 656H324Q338 656 362 652T398 648L402 644Q416 646 421 641V633L430 632L435 634Q449 626 455 628L509 593L511 589L522 586L524 578L528 575Q539 563 550 546V541Q553 538 566 515Q584
483 600 374Q607 367 621 361L623 350ZM450 318L449 324L445 326Q445 342 441 362L435 364Q432 370 432 389L435 410Q434 414 430 422L434 428V442L429 453Q430 458 435 469V484L433 480Q432 485 424 489L425 496L419 508L418 521L413 530V536L409 546L405 549L401
569Q396 573 381 588L377 587L368 598L350 606L345 604L330 608L289 601Q288 601 251 572Q249 563 240 555Q239 548 236 530L227 523V508Q224 501 215 482L218 471Q217 463 210 443Q206 434 208 398L207 403V377Q203 373 203 337Q203 329 206 321L220 318Q217 281
229 255L225 242Q226 229 227 221Q227 219 224 208L228 188L234 179Q232 173 232 154Q232 161 237 135L245 94L249 91V83Q255 74 269 51Q282 47 288 38L295 37L301 33Q306 32 309 32Q329 32 327 33L332 35L342 33Q356 38 376 53H380Q383 57 395 69Q419 115 416
136Q427 153 427 176Q429 179 431 190L428 201Q436 219 435 229L438 226L441 239L437 237L435 245L437 253Q435 258 440 290L443 295Q444 301 442 313L447 311L450 318Z" />
<glyph unicode="P" glyph-name="P" horiz-adv-x="596" d="M580 445Q576 435 564 408Q565 403 559 376L556 372L554 360L550 354Q548 346 543 324L538 321H532Q522 313 515 291Q503 282 495 267Q486 261 476 249L469 248Q457 238 440 226L432 227Q429 225 421 219Q416
219 407 213L398 214Q390 207 375 207L369 212H359Q358 212 352 211T344 209L339 214Q317 215 297 239Q294 247 294 265Q294 271 301 285Q308 292 321 299L340 298L352 286Q353 280 356 265L365 267Q381 281 400 327Q399 326 399 344Q399 357 408 385L402 409L410
420L407 430L410 440Q405 448 403 466L407 480Q405 487 395 503L396 513Q391 541 371 569Q368 571 335 590Q330 590 310 588L297 579Q292 572 286 540L280 534Q281 530 279 509Q278 497 278 484Q278 404 276 398Q280 390 280 382L275 360L281 344V339L278 332L282
317Q280 305 280 300Q282 290 282 290Q279 276 279 273L282 264L281 248L285 241Q284 238 284 226Q284 202 293 170Q296 164 301 147L306 141Q307 137 304 131Q308 110 315 94H324Q327 91 329 85Q328 73 332 63L346 49L351 47L357 48L368 44Q368 44 384 54Q388
63 390 77L399 89L415 96H423Q425 96 429 95H435L446 88L445 80Q451 80 454 79Q459 67 459 62Q459 35 434 13Q429 11 409 -1Q405 -1 386 -6T362 -10Q355 -14 339 -13Q335 -13 316 -11Q297 -10 293 -11Q286 -6 258 -6L254 -3Q247 -2 222 2L211 13L202 5H198Q188
5 177 8L173 7L169 9L162 8Q158 10 141 10Q122 10 101 3Q75 -6 74 -21L68 -22Q59 -33 35 -33Q18 -33 6 -17Q5 -12 2 0Q1 17 28 46L32 47Q52 66 61 64Q68 68 83 78Q85 80 92 86T103 98T112 119Q120 180 120 173L116 181V192L123 205Q121 217 124 231L119 236Q120
245 128 259L133 263L124 284L126 289Q126 289 124 314Q124 315 125 318Q124 323 124 331L134 357Q133 364 123 380L126 386L127 396L123 410L126 433Q125 442 121 463L117 466L116 474L121 484L117 498L120 505Q114 513 115 519L119 527Q114 540 115 543Q112 552
110 560L106 564L105 572Q103 578 83 591T59 609T50 632Q52 638 51 640Q62 653 74 664Q92 667 104 666Q118 655 126 654Q131 648 143 633Q169 627 173 627L200 633L204 631Q254 634 276 643Q279 642 285 642Q298 644 329 646Q333 650 348 650Q364 647 369 647Q384
647 425 637L423 640Q435 634 468 620L472 617Q481 615 491 609L493 602L501 598L505 590L510 586L512 581L516 580L520 576L526 563L534 556L536 549Q545 542 546 534L553 529Q557 506 566 478Q568 475 580 445Z" />
<glyph unicode="Q" glyph-name="Q" horiz-adv-x="643" d="M728 -23Q723 -95 651 -104L645 -108L635 -107Q628 -110 624 -109L618 -106L614 -109H609Q605 -106 592 -104L588 -105Q580 -102 568 -103L558 -95L551 -97L546 -92L544 -85L538 -86Q529 -81 521 -83L515
-79L511 -68L505 -67L496 -71Q459 -52 401 -26Q381 -19 349 -11Q330 -11 294 -5L287 -6Q281 -5 270 0H254Q229 10 203 22L194 20L190 26L187 39L179 38L177 35L169 34Q168 40 151 54Q138 65 131 74L119 81Q114 86 79 146L77 156Q72 161 63 187T54 220Q54 221 47
232Q48 242 49 252L41 266Q43 279 37 301T23 332L20 341L22 354Q32 364 41 395L44 399Q50 422 56 446L53 451V455Q61 463 62 479Q68 484 70 493L77 501Q78 512 90 521L92 526L89 536L91 545L97 550L101 546L105 547Q112 562 119 574V580L123 587L130 589L165 620L181
616L183 629Q200 634 207 634Q214 645 276 656Q282 656 298 658T320 661Q316 661 328 660T361 658Q372 657 392 656Q397 654 421 648L425 645Q431 644 443 641L448 635Q477 634 502 601Q503 602 506 602Q508 602 516 601L520 599L531 584L532 576L536 569L549 565L554
561Q562 546 560 531L562 526Q569 520 576 518Q579 511 579 503L586 499L584 482L588 472L585 467L586 459H590Q590 435 598 402Q607 364 619 350V334L614 329Q609 275 590 227L592 221Q584 199 567 157Q552 120 528 101Q529 98 530 91L527 83L522 80Q499 63 447
22Q434 21 429 13L428 9Q432 5 437 5Q479 10 524 35L535 34Q538 39 547 44H550L557 41Q559 41 564 42T571 43Q582 43 607 34Q608 28 618 22L624 9Q616 -1 610 -2L618 -5L615 -21Q611 -31 593 -44L591 -50L607 -61Q612 -62 627 -62Q630 -62 641 -60L648 -56Q650
-31 653 -20Q667 5 693 3Q698 2 710 -1Q715 -5 723 -11V-15L728 -23ZM439 339Q432 351 427 375L431 386Q430 395 430 433Q430 450 434 463L425 471Q425 482 421 531L416 534Q412 542 412 549L408 552Q408 570 367 603Q363 604 352 607T335 613Q332 612 326 612L322
610L316 611Q274 597 263 578T230 520L229 510Q222 500 220 480T214 455Q215 449 211 432Q207 412 207 406V397Q208 393 208 388Q208 374 210 366Q209 359 202 351V345L205 330L209 326L214 324L219 319L226 259Q226 257 224 246T222 230Q222 228 227 218T232 203Q232
199 230 185T228 166Q228 152 234 146Q236 140 241 109L244 105Q244 87 267 61Q278 55 297 43Q313 39 326 39Q337 39 351 44Q351 44 375 52Q383 62 401 86Q406 99 403 109Q406 115 413 119Q421 148 421 151Q421 152 420 157L416 164L417 177L430 186Q429 192 429
199Q435 208 435 263Q435 267 436 282T438 302Q438 312 435 331L439 339Z" />
<glyph unicode="R" glyph-name="R" horiz-adv-x="644" d="M667 -70Q667 -72 665 -79T662 -89Q659 -92 655 -105Q639 -119 634 -126Q604 -143 596 -146Q578 -152 552 -152Q547 -152 525 -147T495 -143Q494 -137 487 -132Q473 -126 453 -118Q449 -108 447 -94L437
-91Q430 -78 422 -59L416 -54L414 -38L412 -35V-28L409 -23Q410 -18 408 -3T406 14Q406 20 409 37T413 58L394 72Q393 74 393 100Q393 103 397 117T400 136Q402 156 408 185L405 188L403 195L408 206Q404 212 403 222L393 233L388 246Q384 246 374 251L372 258Q359
264 341 268L339 276L334 275Q328 277 323 276L317 280H313Q309 283 295 293Q292 309 286 328Q286 336 298 348T324 362L335 359L349 341Q352 333 351 318L357 317L362 319L377 333L391 362Q392 359 399 423Q391 431 393 464L399 467L401 481Q393 492 387 539Q378
550 360 574Q345 589 319 589Q300 589 287 570Q286 559 278 536Q275 532 271 525L276 510Q275 489 275 476Q275 456 271 431Q273 418 277 398L275 389Q276 386 278 378Q278 375 277 359Q266 342 268 314Q270 282 270 290V247Q276 205 276 210Q276 210 275 206L269
199V190L280 188Q281 181 278 172Q279 167 286 158Q287 155 284 142Q286 125 298 83Q304 79 313 65Q319 61 332 52Q347 50 372 40L378 30L379 21L370 3Q345 -11 326 -10L315 -15L306 -12Q295 -17 293 -15L288 -12Q280 -14 274 -13L267 -8Q261 -8 239 -3Q235 -6
227 -6Q206 3 197 0Q174 10 118 10Q114 10 103 8T89 5L83 2L80 -3Q71 -12 40 -30L26 -27L14 -19Q8 -11 7 -5V11Q7 22 18 39L24 41Q26 43 33 50T47 63H57Q58 66 86 82Q100 90 104 104L112 130L110 139L114 148L112 158Q115 162 117 176H124L121 182L117 184L111
193Q117 210 122 215Q120 221 117 256L120 266L119 270L114 275Q115 277 116 280T118 284Q117 294 119 305L114 307L109 315Q116 335 113 346Q120 359 120 436Q120 444 117 450L121 458L122 474L113 481Q115 486 122 500Q119 505 119 510L124 520L123 526L117 531Q113
559 105 574Q103 577 75 596Q61 606 56 629L57 633L55 637L61 649Q73 661 88 664L116 655Q128 648 135 633L148 626Q164 626 167 625Q187 628 239 637Q254 641 293 647Q312 646 358 649Q368 644 375 641Q379 644 389 645L397 640Q427 635 464 612T520 563V559Q522
557 548 511Q555 499 571 477Q559 463 552 443Q544 420 539 405Q527 380 519 367Q505 343 495 337T471 314L459 313Q445 305 437 296Q474 281 489 272L506 271L510 258L518 251Q532 250 538 243Q539 238 543 232Q559 210 561 205T569 173Q571 168 574 155L572 147Q574
140 578 130Q568 98 574 73Q565 61 564 38L556 30L554 25Q553 22 556 13L550 -7L551 -12Q550 -22 546 -28V-41L548 -46V-54Q548 -58 545 -74H552L555 -78Q560 -80 565 -85Q566 -87 567 -89T568 -93L578 -97Q589 -97 597 -93L602 -88Q598 -81 591 -68V-56Q591 -43
601 -29Q614 -19 632 -17Q636 -18 642 -23L647 -24L655 -31Q656 -35 661 -49T667 -70Z" />
<glyph unicode="S" glyph-name="S" horiz-adv-x="563" d="M523 223L522 212Q514 202 512 188Q513 185 517 175L516 167L501 151V141Q502 139 504 128L496 117V113L490 109Q471 84 469 73Q463 70 460 63L459 58Q445 37 406 21L399 22L393 16L382 11Q374 -3 351
0L344 -5L332 -3Q331 -4 328 -5T323 -7H315L308 -10L301 -9L298 -7Q286 -10 259 -10H252Q244 -5 197 -2L182 -6L177 -1V6L171 7L161 2Q160 2 152 3T142 4Q132 -1 119 2Q118 2 106 -3Q99 -13 88 -16L82 -23V-28L73 -41Q70 -50 70 -59Q71 -62 72 -77L81 -91Q98 -96
101 -95L112 -88L114 -85L116 -75Q117 -74 121 -69T130 -60L137 -57Q142 -58 144 -58Q145 -58 151 -57L167 -63L174 -69L176 -73Q177 -91 177 -101Q177 -108 168 -126Q159 -134 141 -147Q137 -148 123 -155Q120 -156 101 -156Q95 -155 65 -150Q52 -142 23 -110Q21
-103 16 -88L17 -78L14 -71Q15 -67 13 -47Q15 -29 23 -5L22 0Q57 94 78 115Q90 151 90 159Q90 166 89 169L91 174Q91 176 80 197T68 234L71 244Q79 255 88 260Q93 261 112 261Q121 253 143 236Q143 233 146 225Q149 205 158 164L156 159L161 150V140Q163 138 174
111T202 69Q208 69 218 63L222 59Q238 56 260 47H282Q314 47 332 54Q334 56 337 60T342 65L346 67Q348 73 351 76Q358 77 370 86Q369 99 371 106Q379 120 384 125Q384 127 382 143Q385 152 388 164Q388 168 385 181T382 198L378 201Q378 208 368 224T352 244H348Q339
249 320 265Q310 268 284 276Q275 274 267 275L263 270L261 260Q258 257 254 254T249 249Q240 248 234 247Q229 247 226 248H217Q199 256 193 262L187 261L175 264L173 271L164 274L163 282Q149 289 131 299L118 316L113 318Q109 332 96 337L92 348L96 356L92 362L84
360Q83 361 77 369V373L74 377Q74 381 69 389Q65 408 61 441L66 446L72 448L69 455L65 456Q65 461 60 471L66 479Q69 511 83 538L82 542H86L90 553L96 559L97 566Q107 582 124 594V598Q144 613 203 647L209 646Q213 649 225 652L230 651Q248 660 289 660Q337 660
364 650T416 635L439 639Q445 648 454 662Q463 673 475 678Q478 677 480 677Q483 677 494 678L498 676Q512 662 512 650Q512 604 466 567L463 566L464 545L454 530Q455 523 452 505Q461 492 461 474V470Q461 469 450 450L439 444Q431 443 425 443Q422 444 414 446Q401
454 394 472Q393 495 379 544L370 550L368 556L371 567Q371 571 364 579Q361 581 348 587T324 597L321 601Q308 601 290 608H276Q272 608 259 605T243 602Q233 596 216 584Q203 565 185 543L184 532L188 521L181 510Q184 494 183 485Q197 450 212 438L217 436Q222
428 222 423L231 421L239 427L256 417Q268 417 277 413Q287 431 297 432Q376 431 421 393Q428 393 456 368L459 362V366Q461 363 463 353L470 350H476Q479 345 485 339L486 328L489 322L493 319Q503 304 505 298Q513 283 516 260Q521 229 523 223Z" />
<glyph unicode="T" glyph-name="T" horiz-adv-x="623" d="M592 630Q592 628 585 609T578 582Q578 576 580 554T583 525Q583 524 582 519Q587 485 586 446L590 437L589 405L585 402L582 394V387Q583 386 584 377L589 370V353L585 352Q581 314 572 297T536 251Q522
237 498 237Q494 239 484 241Q483 241 473 243Q471 245 459 274V278Q460 281 462 292Q465 295 469 298T474 303Q490 310 502 305L509 306Q519 313 525 335L524 342Q524 343 529 355L527 370L530 376Q527 384 525 401L514 404L505 422Q503 442 498 480Q493 514 475
532V537L469 539Q464 543 456 560Q452 563 442 570L435 571L429 576Q421 577 416 577Q414 577 407 575Q396 564 393 560Q386 542 385 495Q384 460 386 424Q386 424 378 412V394Q379 387 386 379Q386 361 384 347L393 329V323Q388 315 388 287Q388 286 386 273T385
255L389 249Q387 246 385 235Q387 233 392 226L389 214Q391 205 393 186Q389 182 389 176L391 172L395 176L405 173L403 168L406 153Q404 148 398 136L400 129L412 115Q412 109 411 105L419 97Q420 72 453 52Q459 51 482 44H488L496 49L499 54V72L504 83Q506 85
516 97L533 101Q549 100 558 94L567 82Q573 65 572 55L568 48Q566 29 539 9Q536 8 526 11L518 -3L509 -10H504L495 -14L485 -5Q480 -8 459 -13Q441 -13 406 -8T353 -3L347 1Q340 2 333 0L330 4Q330 4 312 6Q305 12 275 12Q224 12 231 11Q227 10 217 7Q210 7 203
11L194 4Q187 1 155 -12L151 -21Q139 -33 130 -37Q120 -36 110 -36L98 -23L94 -21Q94 -18 93 -10T91 1Q91 25 137 56L141 57L145 53L153 58L154 65Q181 80 197 85L203 91L205 98H210Q216 118 225 145L222 153Q225 162 224 176L219 184Q219 194 226 201V211L230
219V226Q230 228 229 235T227 244L233 262L232 274L229 279Q227 287 228 295L236 311V320Q229 322 222 326L225 335L232 340Q233 347 234 352L230 357Q231 362 231 364Q231 367 230 378Q234 382 236 391Q235 397 236 403Q236 407 234 414L236 421Q236 426 232 441T228
459Q232 468 233 477Q233 522 226 561L209 571Q194 564 163 541Q160 535 151 523L150 519Q141 509 139 503L134 512L128 509L131 500L129 489Q127 486 122 479Q124 469 125 463Q118 440 102 394Q103 388 103 385Q103 375 101 355T99 324Q102 318 107 302L116 295Q124
296 146 291L157 278Q159 266 159 260Q159 242 127 223Q125 223 120 222T114 221Q96 221 87 225Q73 236 58 254Q56 266 53 269L52 277L47 279V287Q38 296 36 331Q35 352 37 378L29 382Q27 387 22 399Q28 415 34 433Q34 435 36 447Q38 452 43 464Q43 477 47 494L44
503L47 509Q46 514 48 530T50 548Q50 582 42 598Q29 608 29 629Q29 630 30 634Q36 645 43 649L53 651L60 648L69 649Q87 636 112 636Q120 636 129 637Q135 634 166 634Q202 634 196 633L204 630L234 633Q244 633 285 629Q289 631 319 631Q335 631 342 626L345 630Q355
631 361 632Q367 632 389 631T417 630L421 622L436 630H442L446 637L452 640L461 634H476Q479 634 486 636T496 638Q553 641 566 651L573 648H578Q585 647 591 641Q592 634 592 630Z" />
<glyph unicode="U" glyph-name="U" horiz-adv-x="620" d="M614 29L612 9Q598 3 580 -3H588Q565 -3 520 -6Q507 -1 498 -4L493 -1Q465 4 436 4Q437 4 365 -6Q322 -12 278 -12Q205 -12 147 21Q141 25 124 34L121 39Q110 49 104 51Q91 70 81 78V82L68 101L69 108L68
112L47 133L54 162Q54 168 50 172L42 175Q41 176 41 210Q41 212 40 220L43 229L42 235Q43 251 53 288Q71 321 70 334L73 339Q74 340 78 343T85 350L91 344Q95 348 97 357L96 369L102 379Q104 380 107 381T111 383Q120 394 131 410Q147 429 157 433Q161 438 161
444Q169 449 186 471T206 503L214 510L220 523L218 528L221 543Q221 547 216 573Q214 584 204 601Q196 601 181 598L179 602L170 607Q159 600 147 592V586Q144 583 142 577L143 570Q161 542 161 534Q161 533 160 528L157 525L153 511Q139 496 111 497Q100 501 85
510Q82 519 78 523Q72 558 72 549L74 554Q72 563 78 592Q78 592 93 620Q96 622 102 628L107 630Q117 646 147 651Q164 653 196 655Q206 652 236 640Q269 605 279 578T290 502Q290 500 288 488L284 481Q283 478 283 471Q283 465 284 462Q284 461 279 454Q279 447
277 434Q267 421 268 397Q262 391 259 384Q258 372 248 348T237 322L247 311Q248 305 248 297L239 278Q238 272 240 266L232 259L230 250L226 248Q224 236 226 231Q224 223 223 220L218 216L216 212L215 197L221 187Q217 168 217 164Q222 96 256 58L261 57L267
52Q271 52 283 49T300 45Q305 45 318 48Q320 50 344 68Q344 71 351 89T359 117L355 123L354 128Q355 130 370 142Q371 145 371 151L368 156V160Q364 165 363 184L365 194L361 206Q365 245 365 239Q365 252 362 256L366 263Q367 271 368 283Q368 287 366 298Q370
303 370 310L365 320Q364 325 367 333L365 338Q366 341 367 358Q376 366 376 382Q374 387 369 389Q370 402 371 431Q371 431 369 441Q371 447 371 451V493L368 497Q369 523 369 539Q369 542 367 554L360 560Q357 570 347 577L351 573L336 576L331 588L315 594Q311
599 311 614Q311 623 317 630Q328 640 338 641Q352 641 363 640L372 636L377 638L381 635L391 636L405 632L412 633Q424 629 462 629Q465 630 476 633Q481 631 495 626Q505 626 514 625L505 629L502 632Q508 633 522 633Q541 645 568 656H589L599 651L607 639V620Q607
620 605 614L600 609L597 602L588 598L583 593Q570 586 562 587L558 585L555 581L547 579L532 568Q531 561 521 529L523 516Q522 512 520 492Q519 473 520 467L514 459L515 453L519 447L517 369L521 362Q520 359 520 341Q520 337 521 319T523 296Q523 293 520 278T517
259Q524 249 524 228Q523 221 517 211Q519 208 521 203T524 196Q523 195 523 186Q523 186 526 173Q528 166 524 159Q524 159 531 138Q534 85 555 64Q570 58 574 53Q589 55 607 42Q612 36 614 29Z" />
<glyph unicode="V" glyph-name="V" horiz-adv-x="650" d="M663 612Q659 607 635 585Q617 584 588 562Q579 551 571 531L565 528Q549 489 533 425L530 420Q528 399 512 356L514 351L510 343V338L505 332Q502 319 491 279L493 269Q491 263 487 259V252Q480 232 469
206L472 202L469 190L465 187Q446 129 444 90Q446 82 447 79L446 75L451 64L458 57Q465 55 469 50Q479 53 486 52L490 50H503Q507 48 521 46L529 41Q529 41 537 27Q534 21 533 12Q519 -2 488 -8Q463 -12 438 -16Q423 -12 384 -3L374 -12Q337 7 239 7Q238 7 219
5Q205 4 198 5L195 1Q190 0 178 -2L174 -7L170 -8L166 -14L162 -15L156 -20H150L144 -26L141 -27Q134 -27 115 -23L104 -14Q102 -10 97 2V7L99 12V17L102 22V27Q110 35 117 40H123V44Q127 47 137 55Q145 60 159 64L161 68L165 69Q203 95 198 132L196 135L194 144L197
148L195 155L188 161L187 170L189 173L194 174L195 183L190 193L183 197Q181 202 177 216L184 227Q179 235 166 256Q166 261 167 266Q165 275 158 298L154 302Q154 303 152 314T151 327L146 338L148 343Q143 358 134 370Q133 379 128 398L120 404Q119 409 119 411Q119
413 120 420T122 428L114 446V458L108 463Q105 483 86 523T53 571Q27 584 5 593Q-1 601 -10 610L-13 624L-11 636L0 650Q5 653 16 656Q29 654 43 648L51 640Q73 627 173 627Q185 627 197 626Q213 625 221 626L227 619Q233 618 240 617Q246 617 254 621L257 632L266
628H306Q326 628 341 613Q346 605 347 599Q346 589 338 581L329 575H325Q322 573 309 568H304Q288 557 272 547L273 542Q268 519 269 496L272 491Q270 478 271 464L280 445Q284 439 282 410Q284 397 286 394L291 389Q291 380 304 335L309 333Q310 308 311 304L308
289Q316 287 325 280Q328 255 337 205L336 200Q348 155 363 102L370 112L372 124L380 138L389 144Q391 150 393 165L388 173L392 183L389 187L390 199L400 207Q402 212 401 215Q409 230 408 238L420 250L424 261L420 269Q421 273 419 283L430 292V297L428 302L429
309L433 315L436 329L432 336Q445 356 443 380Q451 391 451 398L448 404L450 413Q451 414 463 463Q465 485 469 525Q469 527 468 533T465 543Q464 544 460 548T453 556L443 560Q439 568 431 572L427 573L422 569H419Q392 577 382 577L371 584L364 598Q364 605 371
618Q383 627 421 627Q423 627 430 629T439 631Q441 631 449 630L454 627Q495 625 512 627L516 629Q528 627 565 627Q569 628 588 632L593 636H597Q599 638 621 651Q626 652 634 652Q636 652 661 638Q661 638 663 612Z" />
<glyph unicode="W" glyph-name="W" horiz-adv-x="869" d="M852 16L851 21L849 11Q833 -5 794 -5H785L783 0L778 -1L773 -5L760 -3Q752 3 748 4L745 0H737Q730 1 707 3T681 4Q667 7 645 0L641 1Q614 -7 561 -12Q559 -13 552 -14Q536 -13 498 -16Q498 -16 457 -11L453
-9H447Q443 -7 403 9L399 13H396Q384 19 377 19L375 10L369 3Q360 -1 336 -10Q330 -11 315 -15Q308 -12 303 -12Q295 -12 290 -18Q286 -19 268 -19Q267 -19 263 -18L259 -11H253Q250 -12 236 -16Q220 -12 215 -13L205 -9Q205 -9 201 -8T181 -5Q178 -3 161 3L158
14Q151 16 140 14Q123 31 82 59Q81 62 65 99L60 101L59 113Q47 140 47 171Q47 174 51 181L52 190L47 199V204L50 222L53 227L56 229L57 234L52 246Q52 251 54 264Q55 273 69 302T89 335Q90 339 93 349T96 362L105 368Q108 376 117 389Q131 403 153 431L158 433L160
440L173 439L172 449Q179 458 191 474V478L195 483Q197 492 204 502Q212 553 212 560Q209 565 207 576L200 586L199 593L194 600L185 602L179 601L180 595L164 597Q158 595 147 588L139 575V567Q140 565 141 553Q159 535 160 526Q159 486 119 485Q114 487 99 492H95L91
497L84 500L81 510L74 518Q67 547 67 557Q67 575 100 624Q106 625 133 641L142 642Q150 647 174 647Q181 647 201 642T228 637V633L237 629L239 625L244 623Q278 579 277 567Q289 543 289 484Q289 480 286 466Q285 454 286 447Q279 432 270 389L258 356Q253 344
241 318Q244 307 243 304Q240 297 232 279V270Q226 260 216 227L218 221L215 213Q216 191 216 161Q216 146 213 137Q218 99 252 65Q261 60 273 54Q278 53 311 48L321 51L326 50L331 52L332 64L325 69L324 74L319 78L318 83L313 85Q309 96 298 115Q299 117 297 123L293
127V132Q291 138 290 142T285 161T282 181Q282 188 283 193V204Q283 207 280 218Q282 222 284 231L282 236Q283 253 312 303L309 307V316Q309 317 310 322L314 326L316 332L320 334Q323 339 331 351L332 357Q355 383 382 420L387 423L392 432L399 431Q402 443 416
459T435 484V489Q440 494 441 500L439 496L446 508L447 515Q452 523 460 536Q460 539 461 549T462 562Q462 564 461 575L445 597Q439 600 426 602L406 596Q397 587 395 579T390 555Q382 539 352 535Q348 537 330 550L325 578Q329 590 345 617Q372 648 415 648Q444
648 474 638Q479 635 491 627Q530 599 530 539Q530 467 507 393Q492 363 477 327L482 318V313Q482 311 481 305V297L474 280L475 275L474 269Q461 256 459 247V244L463 242Q464 240 464 233Q464 232 458 211T453 180L456 173Q456 169 455 160T454 148V144L459 140V132L456
124L460 118Q477 149 496 180L512 185L523 182Q529 177 534 160Q528 114 489 68Q487 58 486 55L491 50Q514 39 522 41L523 45Q545 43 544 43Q562 54 587 74L590 84L593 88Q595 99 599 105L601 119L597 131Q601 136 616 160L611 185L613 191Q612 194 597 205L600
219L615 232L617 240L613 248V272L610 277Q610 280 609 288T608 298Q608 301 609 308T611 318Q612 372 610 398Q612 404 606 452Q616 459 613 476L611 479Q611 485 610 488L611 493Q608 499 608 548Q602 554 601 566L594 576Q583 580 569 586T550 607Q552 625 562
634L563 637H573L578 639L579 633Q587 634 605 638L617 631Q624 630 636 631L639 629Q684 631 739 627L736 622Q743 622 748 621Q752 623 759 625L768 626L773 637L781 638Q807 652 823 652Q827 652 840 645L846 635L845 618L841 614L839 607L825 594Q808 585 794
583Q789 580 779 571T763 514Q759 474 760 456Q759 453 754 448Q754 445 752 438Q753 436 753 429T754 419L760 414Q759 409 759 406Q759 403 760 384L763 379V370Q763 366 755 352V336Q755 335 756 329L765 319L760 302Q761 295 761 292Q761 289 760 274Q767 261
761 245Q764 221 764 176L762 173Q766 162 769 131L773 126Q787 72 788 69Q799 52 841 46Q850 41 852 32V16Z" />
<glyph unicode="X" glyph-name="X" horiz-adv-x="692" d="M692 22Q692 21 691 17L684 6L670 -2Q668 -2 661 -4T647 -7L643 -6Q629 -8 612 -8Q589 -8 592 -7L586 -5Q574 -7 561 -8L557 -1V1L551 7Q540 3 532 3Q530 4 519 5L511 14L495 9Q465 14 454 11L450 13H447Q446
13 440 12T432 10L427 7L419 6Q401 -7 375 -23Q370 -24 361 -24Q359 -24 348 -22Q332 -13 332 12Q332 22 352 43T382 68L384 77L383 83Q386 91 385 101Q376 126 366 146Q365 153 365 159Q350 181 340 204L335 207Q329 229 304 265Q300 261 294 256T286 248Q280
222 274 210L271 207L269 198Q260 191 248 168L250 160L249 155Q238 142 234 136Q231 120 233 115Q226 102 226 96L236 93Q245 62 273 57Q285 56 297 53L301 47L306 44Q306 42 312 34Q313 19 295 2Q261 -7 248 -7Q246 -7 241 -6H233Q231 -5 216 4H201Q200 4 195
3V0Q171 8 158 8L153 11H141L136 14Q106 10 99 11Q87 4 77 -6H72Q54 -17 39 -28Q37 -29 24 -29Q23 -29 15 -27Q6 -18 2 -10L0 6L4 22L12 33Q21 38 28 47Q32 49 39 56L52 60L59 66H66Q84 77 103 90T133 118L134 124L139 128Q138 134 151 152T172 177L174 184L187
192L182 202L186 206Q188 214 204 241Q204 241 215 274Q216 275 219 280T224 288L230 289V294Q234 304 247 324L248 328L252 333L261 361L257 371H251Q238 382 240 406L235 405Q228 419 218 433L215 446Q209 452 204 455Q200 469 179 503L172 508Q171 521 162 528Q159
543 137 562Q133 565 109 571T80 576Q63 582 39 600V607L35 610Q35 610 30 625V630Q32 635 36 649L45 659Q48 660 54 664Q62 665 68 665Q72 665 85 661L88 658L93 657Q99 651 114 641Q122 640 135 635L138 636Q159 635 211 631Q219 634 222 633L231 627Q233 627
238 626T244 625Q256 625 270 627L273 631L280 634L287 631H321Q323 631 329 630H338Q348 625 356 622L365 604Q363 596 353 581Q345 577 332 561Q331 558 331 548Q331 542 337 525T344 502L337 505Q342 501 358 485Q360 476 369 459T382 437L381 430Q387 434 401
454T415 480L419 485L418 491L425 498Q437 525 447 551L441 571Q421 574 387 590L384 609L386 616L392 623Q406 633 428 633Q397 632 465 632H542Q547 633 576 639L579 638Q592 647 623 660Q624 659 640 659Q657 649 662 631Q660 613 649 599Q615 583 589 568Q578
560 561 553Q545 535 533 523V518L515 507Q512 478 475 444V434Q467 418 452 393L427 351L426 342L444 330Q466 297 475 272Q480 267 483 263L484 257Q481 249 482 243Q487 238 499 235Q502 226 501 213L508 204L513 205Q518 197 528 176L525 168V162H540L544 160L546
157Q547 150 545 142L547 132Q556 127 565 115Q577 98 580 95Q599 86 605 74Q619 66 673 53Q682 48 689 39L692 31V22Z" />
<glyph unicode="Y" glyph-name="Y" horiz-adv-x="620" d="M604 616Q597 597 568 580L561 579L557 575L546 571Q532 562 526 541Q526 541 523 522Q521 511 523 504Q521 496 521 477Q521 474 519 463Q518 453 519 449L512 441Q515 432 515 420L518 414V406Q519 401
519 397Q519 397 517 379L511 373L517 368L519 360Q519 355 517 340L512 332L513 322L517 321Q518 313 518 281Q518 223 513 208Q522 185 520 156L517 152V138L530 123L525 112V105Q524 102 524 98Q524 96 525 82Q533 77 540 63L552 59L556 55Q563 54 573 48L578
49Q592 45 597 29L596 16Q580 0 558 -4Q548 -6 513 -6Q408 -6 397 0Q391 -2 385 -2H380L376 1L369 4L360 0H314L309 1Q305 1 292 2T276 3Q230 3 226 1Q217 2 211 3Q184 3 160 -8L154 -15L150 -17Q137 -45 119 -53Q111 -53 106 -56L89 -55Q86 -53 77 -47Q75 -44
68 -36Q66 -25 62 -7Q63 -2 68 9Q84 29 101 37Q110 42 119 46L124 53Q128 52 157 55Q179 57 193 57Q210 57 223 51L226 56H301L311 61Q321 60 340 69L350 89V94L354 101Q358 135 360 196Q360 197 359 200Q347 185 321 162Q318 161 305 152H299Q294 149 284 145L277
149L267 141L248 140L244 138Q225 137 214 137Q180 136 161 148L156 147L147 150L143 159Q130 160 103 171Q102 179 92 197Q89 198 79 200Q69 214 64 222L63 235Q49 252 49 273Q40 282 40 323Q40 332 44 354T49 379L52 383Q52 398 73 428L71 442Q78 445 88 451L102
469L103 475Q110 482 116 485Q136 513 154 559V566Q155 569 155 573Q155 575 154 581T153 588L150 594V598L144 607L133 610L123 607Q118 602 117 598T115 591Q116 589 118 577Q117 562 108 550L98 545L95 541H73L59 550Q56 556 50 566Q50 583 49 586L52 589L51
598Q64 637 92 649Q112 659 158 659Q172 659 183 649L189 648Q194 645 207 637Q210 633 223 611Q227 601 237 575Q236 570 236 568Q236 564 238 548T241 526Q237 511 237 511V503Q238 499 238 495Q238 479 231 438Q224 393 218 386L212 381V376L215 372L216 365Q212
355 210 331L205 330V326Q205 323 208 317Q207 306 206 299Q206 293 213 276T219 254L230 243L231 239Q248 223 258 221Q264 220 291 218Q341 232 349 286L354 292Q361 316 361 319Q369 331 374 334L373 341L370 345L368 354Q370 358 373 399L369 413L371 419L382
430Q380 441 381 446L371 448L370 456L376 466Q374 472 374 476L377 485L374 494Q375 501 375 506Q377 527 362 560Q356 565 346 570L328 569L324 576L303 583L293 593Q288 608 289 609Q293 616 293 623Q313 637 342 637Q352 634 352 634Q364 634 395 631L403 630L405
624L415 623Q421 631 428 632H432Q427 632 444 628Q460 628 493 625Q504 627 537 636L544 643Q561 652 570 652Q573 652 587 649Q598 643 602 634L604 616Z" />
<glyph unicode="Z" glyph-name="Z" horiz-adv-x="610" d="M539 235Q534 227 534 222L529 218Q525 208 524 198L526 190Q525 186 525 180Q525 174 526 166Q528 144 528 143Q525 139 525 128Q526 126 527 116L531 115L538 106V102Q534 94 530 77L534 70L533 66Q534
62 536 47L534 43L537 33L541 28L546 26Q551 19 549 11L546 5L536 -1Q532 -2 504 -7Q488 -10 434 -11Q394 -12 363 -14L354 -3L339 -4V-11H333Q331 -11 322 -9T310 -7Q309 -7 304 -8T296 -9Q294 -9 285 -7L277 0L266 3L260 1L257 -2H245L241 0H238Q235 1 202 4T163
8Q143 8 116 2Q105 -16 91 -28Q83 -31 73 -30Q70 -27 59 -22Q46 -12 46 12Q46 25 57 74Q68 82 71 98L69 108Q74 113 81 135L89 142L95 143L98 149L97 156L105 166Q110 183 132 211T160 253L168 257Q175 269 179 270Q190 291 211 313L220 315L219 321Q227 337 249
362L251 370L266 388V394Q275 403 279 406L280 412Q290 427 306 446Q308 455 328 487T349 533Q349 550 347 562Q334 578 319 578Q306 578 290 576Q280 570 266 565L260 568L252 564Q245 549 239 544L235 543L224 534L228 538L221 536L215 538L205 525L208 515L207
510L201 502H195L194 491L187 482Q186 478 169 434V429Q168 427 165 423T160 415Q161 391 135 354T85 318Q82 318 66 319Q56 325 44 337Q40 349 40 358Q40 364 46 376L57 386L76 389L82 387L87 391L90 396Q89 406 95 428L93 433Q93 440 94 445Q88 460 93 477Q89
488 92 495Q91 504 86 510L87 515L85 525Q86 528 84 550Q82 576 82 579Q82 645 122 663H128Q147 657 150 639L155 635Q161 634 184 630L190 626L193 621L218 627Q237 625 256 624Q259 624 271 625T285 627Q353 627 363 625L369 626L374 621L410 619L415 626Q461
623 505 632Q510 633 525 638L530 643Q535 645 543 648L553 643L558 626Q555 611 548 605Q533 549 510 520L509 514Q493 490 475 472Q473 466 473 457Q463 449 459 434L455 432Q449 423 448 412L436 402Q436 402 428 386L430 381L428 368L420 363L413 348V345L409
338L398 331Q391 315 356 266Q342 252 315 222V216L324 215L326 210V206Q326 205 324 197Q315 192 291 169Q287 162 270 140Q268 132 253 97Q254 91 254 87Q254 85 253 74L256 66L268 54Q273 55 290 54T309 52L318 55L322 60L327 63H332L336 56L344 59L346 65Q360
71 390 93Q398 106 420 125L425 133V140L431 145V150Q469 209 471 235Q476 241 488 257L482 261Q482 274 500 293T531 314Q549 314 562 307Q570 299 570 282Q570 247 539 235Z" />
<glyph unicode="[" glyph-name="bracketleft" horiz-adv-x="373" d="M365 14Q365 7 358 -4Q354 -7 345 -13Q341 -14 321 -15Q305 -6 270 6L249 0Q246 0 229 1Q223 2 210 7L215 11H198L190 5Q174 3 165 2L160 3Q141 0 135 0H104Q103 0 95 1L89 0L84 2L79 9Q80 16
73 37Q75 67 83 101Q82 104 82 122Q82 124 81 133T80 146L83 306Q82 314 82 344Q77 354 77 365Q81 385 81 391Q81 396 79 407T77 421Q77 429 82 437Q83 430 83 476Q83 480 82 493T80 510Q80 512 81 517T83 524V535Q82 540 82 546Q82 548 83 554Q78 566 76 586L73
619Q80 640 79 647L84 654L89 656L95 654L104 657Q118 656 125 654L135 657Q153 653 160 652L165 654L190 650L198 644Q207 646 215 645L210 649Q216 654 225 652L229 654Q241 655 249 655Q261 656 270 650L287 655L297 663Q308 668 321 671Q331 671 342 669Q346
668 358 661Q367 645 365 635Q360 618 346 608Q339 603 324 592H317L313 596H307Q301 594 297 593L289 598L281 589L271 600L264 598Q259 595 245 579Q239 561 239 533Q233 523 233 513Q233 462 238 445L235 441Q236 434 233 426Q237 415 237 405Q237 403 234 391Q237
381 237 371Q237 369 233 355Q236 348 235 341L238 336Q236 330 234 221Q233 168 233 142Q233 134 239 123Q239 94 245 76Q252 67 264 58L271 56L281 66L289 57L297 63L307 59H313L317 63L324 64L329 59Q357 52 365 20V14Z" />
<glyph unicode="\" glyph-name="backslash" horiz-adv-x="313" d="M326 643Q326 642 325 636L322 632Q310 624 276 603Q270 596 270 573Q267 566 258 562L253 561Q223 562 201 622L193 621L186 626Q183 633 177 636L165 640Q160 640 156 636L158 608L168 602Q182
583 182 546Q182 543 178 520T174 490Q174 484 179 460T184 427L183 395Q180 313 187 298L192 294Q193 293 193 290Q193 259 187 246L190 235Q190 231 188 203Q186 194 182 180Q181 179 160 142L162 137L182 133L197 138L204 127Q234 121 243 120L246 118Q250 119
267 113L272 108L277 96Q273 84 254 66T230 36L232 30Q241 23 242 20V8Q238 2 223 -5Q217 -6 214 -6Q201 -6 179 3T156 12Q149 17 135 27Q133 28 126 31T113 36L108 42H104L101 46Q83 54 73 58H63Q56 61 42 74L43 88Q48 93 60 112L59 118Q65 132 65 186V194L62
198L61 202L62 206L68 211Q71 217 71 230Q71 238 69 264T67 299L62 310Q69 337 68 347L65 352V357Q66 360 68 374L66 381Q68 389 68 430L72 436Q70 436 61 437T49 438Q47 438 39 436T27 434Q25 434 19 436T10 438L6 447V451Q6 469 11 502Q6 501 50 501Q54 503 61
505L72 503L74 510Q68 518 68 549Q68 554 67 571T65 592Q62 598 51 609L40 614L34 622L30 636Q31 638 32 641T34 645L44 654H67Q92 654 131 668T184 699Q189 705 193 721L204 728H215Q217 728 228 725Q233 717 261 690T299 662T324 657Q325 649 326 643Z" />
<glyph unicode="]" glyph-name="bracketright" horiz-adv-x="373" d="M300 37Q300 33 297 22T294 9L290 2L284 0L278 1Q272 0 269 0H239Q226 1 214 3Q210 2 208 2Q206 2 196 3T183 5L175 11H159L163 7Q157 6 144 1Q132 0 125 0L104 6Q88 -2 53 -15Q41 -14 28 -13L16
-4Q6 8 8 20Q16 52 44 59L49 64L57 63L60 59H66Q68 60 77 63L84 57L92 66L102 56L109 58Q115 62 128 76Q137 91 137 105Q137 112 134 119Q140 145 140 142V307Q140 318 135 336L139 341L138 349L140 355L136 371Q137 377 140 391Q139 397 136 411L140 426L138 433L139
441L135 445Q139 456 139 497Q139 521 134 536Q135 539 135 552Q135 575 120 590Q114 591 109 598L102 600L92 589L84 598L77 593Q66 598 60 596L57 592H49Q42 598 28 608T8 635V641Q8 650 16 661Q20 664 28 669Q34 671 53 671Q58 668 76 663L86 655L104 650Q113
656 125 655Q128 655 144 654L148 652Q157 654 163 649L159 645Q168 646 175 644L183 650L208 654L214 652L239 657L248 654Q253 656 269 657L278 654L284 656L290 654L294 647Q294 645 297 634T300 619Q300 603 295 572T290 524Q290 523 291 518T293 510Q293 523
291 437Q296 429 296 417Q296 415 294 405T292 391Q292 388 294 377T296 361Q296 354 291 344Q292 289 293 146Q293 144 292 138T290 131Q290 115 295 84T300 37Z" />
<glyph unicode="^" glyph-name="asciicircum" horiz-adv-x="406" d="M340 619L335 611L333 601L326 592L311 589Q305 591 288 596Q283 602 245 622T200 642Q184 642 154 627T114 599H109L107 595L99 589Q93 588 89 588Q87 589 75 590Q67 598 67 612Q67 614 68
621Q74 635 86 645Q92 648 105 660L120 674Q125 678 126 680Q137 687 157 699Q183 725 195 725Q200 725 225 714L230 707Q235 705 294 666L301 665L304 661Q316 659 320 656V649Q331 641 337 632L340 619Z" />
<glyph unicode="_" glyph-name="underscore" horiz-adv-x="500" d="M500 -231H0V-132H500V-231Z" />
<glyph unicode="`" glyph-name="grave" horiz-adv-x="297" d="M230 719L228 709Q224 701 209 689Q199 681 188 670Q184 661 184 651Q184 647 188 634T192 615L188 603Q176 592 159 594Q139 611 126 631L127 641L122 644L103 678Q97 682 69 706L67 721L75 731Q78
733 83 735T90 738Q102 736 128 736Q130 736 135 737T142 739H169L174 736H193Q190 736 211 739L221 735L228 728L230 719Z" />
<glyph unicode="a" glyph-name="a" horiz-adv-x="409" d="M395 119Q395 109 377 89L373 90Q364 75 356 71L355 67L344 59L340 53L339 45L340 41Q343 38 348 26V30L345 11L338 3Q332 0 319 0Q290 8 273 17V21L249 37Q233 50 213 72Q207 78 198 79L191 78L179 71Q177
66 175 44L186 32L189 21L185 10Q167 2 157 2Q151 2 115 15Q102 28 85 45L79 47L76 52Q72 55 58 62H42L38 64H32Q24 70 20 80L23 92Q34 101 50 127Q50 128 52 140T53 156Q50 161 50 174L54 184V192Q51 197 51 209Q54 217 54 224L53 255L45 268V277Q52 289 65 292Q67
292 91 295L95 294Q103 294 116 296T146 301Q150 302 167 312H179Q193 322 207 336Q209 352 213 359V368L219 381Q219 408 195 429Q190 431 182 435H173Q156 446 141 446Q138 446 124 443L107 429L103 422V402L106 395L111 393Q124 398 127 397L131 395L140 394L153
384Q156 371 156 366Q156 364 155 350Q145 323 104 323Q100 323 89 327Q82 330 76 332Q61 347 57 352Q58 356 56 362L52 364Q52 367 50 375T48 386Q48 393 51 411T55 433Q62 442 74 463Q101 487 152 501L161 511Q165 520 166 530L178 539Q189 542 197 542Q211 542
232 527Q257 509 263 507L269 499L276 498L279 492Q284 486 304 481L309 477L316 475Q317 476 326 476Q328 476 338 474T353 472L359 468L363 461V453L360 444L352 435Q346 421 344 391Q343 372 344 344Q345 322 345 299V274L342 266Q341 256 344 232L349 227Q351
224 351 217Q351 209 349 198Q351 194 353 187Q354 192 355 149L358 144Q364 141 385 141L395 133V119ZM234 124Q233 130 228 135Q228 164 220 228Q225 233 226 285Q201 270 192 271L183 267L177 261Q171 263 166 262L160 257Q161 244 168 200L165 193Q166 186
166 181Q166 177 165 161T164 141L155 132Q178 132 234 124Z" />
<glyph unicode="b" glyph-name="b" horiz-adv-x="418" d="M390 465Q390 464 389 459Q385 450 373 438V433Q367 423 365 374Q365 371 364 353L353 344L357 343L363 338V281Q363 289 366 260L364 255V192L367 185V181Q367 175 361 161Q372 151 385 131L384 118L378
110L371 107Q362 106 341 103Q338 100 313 94T283 84Q264 81 232 60L231 55Q236 47 244 22Q242 12 236 6L230 2Q218 0 207 0L201 3H191Q189 5 181 9Q166 21 137 41Q137 49 138 54L132 58L120 55Q111 61 90 67Q65 74 43 87Q41 92 39 110Q48 123 55 129Q60 146 60
158L57 166L61 171Q60 176 60 179Q60 188 66 197L65 203L59 212Q59 220 60 227V258Q59 265 59 275L63 277L61 288Q63 303 67 333L64 338V353Q65 361 65 369Q65 387 64 388L61 392V399L59 403L64 415Q63 431 65 457Q63 461 63 473Q63 492 67 497Q67 516 68 531Q64
540 64 575Q64 579 65 590T66 605Q66 625 56 651Q55 652 51 655T44 662L40 663L35 668H32L21 676L19 682L22 699L27 703Q35 707 44 707Q59 707 62 706L80 695L86 687L98 685Q110 675 114 670L125 667Q131 677 145 701Q153 708 168 717Q168 717 189 724Q198 726
221 728Q230 728 257 725Q271 720 297 697L302 695Q304 684 310 673V669L314 660L313 654L314 650Q316 639 302 606Q297 601 286 593Q285 593 282 592Q267 592 261 598L256 599L249 605L242 618V632L244 635L246 646L253 657V665L242 672L215 671Q178 661 172 574Q170
550 172 547Q169 541 169 519Q169 517 170 509T171 499L177 487L186 486Q193 487 199 492Q209 507 210 513Q210 519 209 526Q212 531 212 537Q223 545 234 545Q241 545 256 540Q269 529 279 518Q303 508 317 494Q321 494 382 482L387 479Q390 472 390 465ZM266
139L254 154Q249 166 247 195T244 229L250 247Q248 275 243 305Q251 329 249 331L244 342L248 351Q252 366 253 383L256 387Q258 398 262 417Q254 419 231 424Q206 435 182 443L169 429L180 423Q186 363 186 341V337L181 324L184 317V313L181 305L188 300Q190 279
190 266Q190 261 189 233L187 229Q188 226 188 224Q188 216 184 192Q177 181 169 169L168 163L173 149Q178 142 203 138L209 139Q236 132 260 132L266 139Z" />
<glyph unicode="c" glyph-name="c" horiz-adv-x="357" d="M348 383L343 372Q335 361 294 342L282 329L277 314L272 308L262 304H252Q238 316 211 387L202 395Q195 410 191 423Q183 440 174 448L169 445L163 436L165 414Q182 384 176 359L180 353L179 349L181 337L177
328L179 325Q179 322 180 310T182 293Q182 290 179 279T176 263L180 260Q181 255 182 247L179 246Q180 249 180 207Q180 203 176 192T172 178L168 174L166 169L157 164L158 157Q165 139 202 131Q229 125 257 127V119Q262 120 269 129L276 131L278 136V140L281 146Q281
148 277 162T273 178L277 188Q285 192 298 199L319 189Q322 183 329 166V154Q329 120 306 95L300 92Q295 80 274 68Q247 53 243 49T237 35L241 26V12L233 2Q221 1 213 0Q204 3 159 14Q157 16 124 33T85 52L82 60L69 58L63 65H38Q37 65 32 66L28 69L24 78V84Q25
86 27 94Q33 101 38 108Q46 123 47 151Q48 187 51 194L57 200L51 215Q51 208 53 266Q51 283 52 300L50 305V309Q50 328 51 327L55 338Q53 344 54 347L56 351Q51 374 52 404L43 407L44 419H35Q31 425 29 433Q29 439 35 448L47 454Q49 453 62 452Q81 458 83 458Q88
462 129 473Q167 483 177 496Q184 496 211 517L212 525Q217 534 224 540L229 542H232L246 541L261 528Q264 521 272 502L280 501Q288 488 302 455Q302 450 305 441Q309 438 319 424L322 404Q327 404 337 402Q339 401 341 398T345 393L348 383Z" />
<glyph unicode="d" glyph-name="d" horiz-adv-x="409" d="M375 118L368 107L365 105Q343 102 289 91L286 88H282Q279 87 237 68L232 63L219 64L213 57L228 30L229 21L227 13L217 2Q207 1 200 0Q186 0 154 17T113 47L108 48Q99 56 69 65T34 80L30 89V94Q35 105
48 126Q51 131 50 152T53 181L51 197L54 210Q54 214 52 225T49 240Q49 244 52 258T56 278Q56 285 55 309T54 340Q54 365 50 373V378L54 381V385L52 390Q53 394 54 400L52 411L47 417L40 419L32 430V441Q37 450 43 451L47 450L51 452Q70 451 84 457L89 456Q103 457
128 473T167 491L175 487L181 479Q181 474 175 457T169 434Q169 388 176 378L173 370Q176 342 176 326Q176 307 169 297Q175 273 175 229Q175 214 173 196Q168 188 144 156V151Q149 152 157 150Q172 140 183 132Q202 134 237 121L243 123Q249 127 251 133V140L249
144L233 156Q225 182 225 266Q225 286 226 295L230 297L231 302L228 307Q226 325 226 333Q226 335 227 346T228 361Q234 375 234 380L231 389Q233 406 241 426L246 429L245 436Q231 440 214 448L211 454Q205 459 192 470Q186 484 153 528V535L142 539L144 551L133
552Q129 558 112 584Q100 591 99 595Q86 602 73 602Q66 598 49 590L40 589L24 599Q23 604 23 606Q23 625 28 633L33 634L37 639L53 646L55 650Q64 651 86 658L96 657L102 659Q111 659 124 654Q134 650 144 646L148 640L160 641L143 681Q144 683 142 698T139 714Q142
721 151 748Q157 749 164 758Q193 766 205 764L208 759L212 761Q215 758 225 743Q226 740 226 723Q226 722 224 714Q219 712 216 705L212 704Q203 694 202 688T200 676Q199 664 208 647T227 620L230 613Q242 607 255 588V584L252 576Q261 567 270 558T289 547Q308
517 321 506Q326 503 336 493L340 491Q341 488 359 475L366 464Q367 460 368 450L362 442L361 436L359 433Q353 388 353 377Q353 346 356 332V337Q351 323 353 314L349 312L354 309V295L358 290V285Q358 283 357 271L352 262V258Q352 253 357 246V228Q356 219 356
210Q356 210 358 186Q359 170 357 163L360 147Q373 132 375 118Z" />
<glyph unicode="e" glyph-name="e" horiz-adv-x="367" d="M353 341L351 332Q343 325 339 316Q314 304 276 277Q267 274 259 272Q250 267 228 254H224L217 248L213 247Q198 237 192 211L184 203L170 204Q171 198 171 193Q171 192 170 185Q164 179 163 170L158 164L156
158L157 149L161 142Q163 142 166 141T171 139H189Q194 136 223 132Q246 129 260 129Q262 130 273 131L279 135Q280 137 281 140T283 144Q281 149 282 152Q273 166 271 177Q272 186 281 200Q292 208 303 206Q314 201 319 200Q334 187 332 157Q331 146 323 121Q317
118 314 111L313 105Q280 77 250 47L248 34L251 29L252 20L250 12L244 4L223 0Q194 10 170 15L162 21Q153 21 109 46T42 71Q36 72 29 81L26 88Q29 97 39 110T50 126T53 142T56 161Q56 163 55 169V178L52 181L51 190L56 193L53 199L55 209Q55 214 50 226L54 231Q55
232 55 235Q55 220 53 295Q52 339 55 353L53 357Q49 386 51 394Q49 405 40 413T30 424T29 427Q29 429 30 436L36 445Q50 451 88 458T140 474H145Q146 475 148 477T152 482L159 480Q184 490 214 519Q218 526 218 533L224 540L230 543H244L253 537Q271 507 295 456L294
452Q296 446 299 431Q305 421 318 412Q318 408 327 386T337 362L350 351L353 341ZM228 320Q219 342 197 396L193 399Q189 408 169 446L164 445L161 437V429Q163 415 170 394Q171 385 176 353L173 346Q176 340 176 331L171 315L173 307Q170 294 174 282L172 273L175
268L188 285L202 290L204 295Q208 298 218 302Q221 306 228 320Z" />
<glyph unicode="f" glyph-name="f" horiz-adv-x="313" d="M326 643Q326 642 325 636L322 632Q310 624 276 603Q270 596 270 573Q267 566 258 562L253 561Q223 562 201 622L193 621L186 626Q183 633 177 636L165 640Q160 640 156 636L158 608L168 602Q182 583 182
546Q182 537 179 525L169 514Q166 504 157 490L181 505Q185 503 199 501Q217 501 219 500Q230 499 255 509L258 513Q268 521 287 520L295 511Q298 502 297 495Q293 484 284 468H279L283 467L282 457L285 450Q285 446 286 433T288 417Q288 415 287 409T286 402Q279
387 270 380H248L242 383Q240 390 241 425L229 432Q227 431 189 431L185 428L183 395Q179 323 187 298L192 294Q193 293 193 290Q193 259 187 246L190 235Q190 231 188 203Q186 194 182 180Q181 179 160 142L162 137L182 133L197 138L204 127Q234 121 243 120L246
118Q250 119 267 113L272 108L277 96Q273 84 254 66T230 36L232 30Q241 23 242 20V8Q238 2 223 -5Q217 -6 214 -6Q201 -6 179 3T156 12Q149 17 135 27Q133 28 126 31T113 36L108 42H104L101 46Q83 54 73 58H63Q56 61 42 74L43 88Q48 93 60 112L59 118Q65 132 65
186V194L62 198L61 202L62 206L68 211Q71 217 71 230Q71 238 69 264T67 299L62 310Q69 337 68 347L65 352V357Q66 360 68 374L66 381Q68 389 68 430L72 436Q70 436 61 437T49 438Q47 438 39 436T27 434Q25 434 19 436T10 438L6 447V451Q6 469 11 502Q6 501 50 501Q54
503 61 505L72 503L74 510Q68 518 68 549Q68 554 67 571T65 592Q62 598 51 609L40 614L34 622L30 636Q31 638 32 641T34 645L44 654H67Q92 654 131 668T184 699Q189 705 193 721L204 728H215Q217 728 228 725Q233 717 261 690T299 662T324 657Q325 649 326 643Z"
/>
<glyph unicode="g" glyph-name="g" horiz-adv-x="410" d="M406 65Q406 63 404 48T403 28L402 32Q389 -23 351 -41L343 -53Q330 -59 326 -66Q304 -77 260 -90L256 -93Q253 -92 234 -98Q223 -103 211 -106Q206 -114 201 -115L197 -126Q203 -137 205 -147Q202 -165
195 -171Q190 -171 179 -177Q173 -178 170 -178Q154 -178 102 -146H98Q88 -141 81 -131Q72 -125 50 -111L43 -112Q36 -108 31 -99Q30 -98 25 -95T16 -89T-22 -74Q-34 -76 -43 -75L-58 -83L-65 -95V-104L-61 -108Q-55 -109 -46 -109Q-42 -107 -36 -103H-29Q-28 -104
-19 -105Q-16 -110 -8 -116Q-7 -120 -7 -122Q-7 -142 -25 -158Q-32 -159 -41 -163H-57Q-52 -163 -90 -152Q-100 -144 -119 -113L-109 -109L-116 -107V-88Q-116 -62 -91 -41T-38 -19Q-31 -19 -16 -17L-4 -23L3 -22L14 -25L28 -13L29 -7Q36 3 56 9Q64 9 71 8Q82 4
101 -1L103 -5Q110 -10 123 -16L126 -20L131 -23L138 -32L146 -34Q160 -42 185 -58L192 -55Q200 -59 213 -59Q224 -59 266 -46Q272 -41 290 -15L291 -5L287 -1Q285 3 286 6L294 18V23L290 44Q281 53 271 70Q267 75 247 86Q238 83 216 75Q196 63 191 37Q196 5 196
11Q196 10 195 5L187 0L172 -1Q126 15 106 46H99L92 53L69 64H58Q52 71 38 79Q34 86 34 93L38 104L52 118Q51 124 54 135Q52 143 52 156Q52 159 54 171T56 187L52 194L50 207L56 222Q56 241 58 257Q56 263 56 269Q56 275 58 280Q55 290 56 296L58 300V341Q58 347
57 352V363L54 370Q55 373 55 391Q55 405 49 412L40 420L38 426L39 438L49 451H53L58 456H63Q67 457 82 462Q84 461 97 461Q99 461 110 464T122 469L133 470Q139 475 166 487Q171 484 176 484L177 496Q179 497 199 536L213 542H221Q231 542 277 504Q288 498 315
482Q320 481 328 481L338 474Q352 473 360 473T365 472L377 463L379 459V456L369 438Q354 410 349 340Q350 328 346 303Q351 298 352 283L348 277L347 267Q352 258 350 254L346 244V232L350 225V212Q348 206 347 202Q350 188 349 176Q353 170 355 156Q363 151 398
104Q406 93 406 65ZM262 404Q245 412 236 411Q188 444 175 444Q171 443 165 441L163 436V432Q171 414 171 381V343L174 338Q173 334 173 332Q173 329 175 313T177 291L170 273L180 269Q178 259 178 217Q178 209 173 187L169 182L166 165L149 148Q148 148 184 139T240
128L245 135Q240 145 236 163Q235 169 236 217Q236 221 234 236L239 245Q238 249 234 264Q234 263 239 295Q242 314 239 325L241 334L236 342V347Q242 361 257 400L262 404Z" />
<glyph unicode="h" glyph-name="h" horiz-adv-x="418" d="M383 448Q381 443 372 434L376 439Q360 429 357 398Q358 403 358 348Q358 344 356 331T354 313Q354 307 355 302V291L358 286V279Q353 276 352 266L359 257V214Q359 195 360 186L362 182Q365 166 369 134L372
126L382 115L380 103L365 93L353 92Q344 85 320 75Q299 56 296 53Q285 38 285 11Q286 10 287 2L301 -15Q306 -17 311 -22Q312 -26 317 -32L320 -49L315 -69L303 -80Q303 -80 279 -85L262 -79L247 -63Q236 -30 236 -8Q236 20 248 47Q247 54 250 73T253 95Q253 103
249 129Q246 149 249 163L247 168Q244 194 240 248Q235 258 235 276Q235 287 237 300L234 307Q235 325 256 403Q237 414 205 430L200 437L185 427L186 423L183 425Q174 404 173 358Q173 357 174 352L177 347Q175 333 175 329Q175 323 177 303T179 278Q179 204 176
195L178 191Q175 173 194 142L195 135L208 134L222 127L226 119L225 114L226 109L223 102L219 99L216 92Q214 91 195 76L187 74L183 71Q173 69 167 63L163 54V48Q169 35 169 24Q169 22 167 11L158 3Q144 1 142 1Q127 1 101 24L105 23L97 29L93 30L88 35V39Q72 51
52 56L48 60L29 63Q22 68 21 74L20 88L22 95Q31 106 50 116Q50 118 54 135T59 159Q59 163 54 180Q54 180 57 193T59 215Q64 226 62 230L59 237Q61 257 52 275L55 289L61 297V305Q60 308 60 312Q60 307 63 338L57 359Q60 367 61 372Q61 406 60 403L58 409L59 413L55
419V425Q54 427 54 430Q54 444 59 452L60 489Q60 491 58 500T56 513Q56 538 62 547V557Q62 563 61 582T59 605T56 623T53 640Q46 650 27 666Q28 670 28 672Q28 673 27 678L28 683L32 685L36 690Q44 692 57 693Q57 693 66 689T80 685Q87 680 108 659H115Q130 689
142 701T184 722H198Q204 721 211 721Q212 721 218 722Q223 720 236 718L240 715L244 714L248 709L254 708Q266 699 282 677Q282 675 283 666T286 650L284 646Q284 638 283 633Q279 627 276 622L262 613L238 612L228 626L225 637Q231 651 229 661Q227 664 221 670Q217
671 209 672Q201 668 197 667Q182 654 176 630Q176 628 170 586L173 580Q173 570 169 562Q168 566 168 527Q168 496 177 484L191 483L203 496L205 501Q204 511 203 517Q203 527 212 537L218 540Q229 541 236 542Q237 542 242 541L248 537L254 536Q263 530 285 514L287
510Q299 505 309 497L327 493L334 488H337Q345 484 364 476L368 472L378 468L383 462V448Z" />
<glyph unicode="i" glyph-name="i" horiz-adv-x="245" d="M200 646L197 628L176 614L167 619L163 615Q161 609 162 606Q159 603 157 596Q158 588 159 583Q159 582 158 577L154 574L150 567L138 562H128Q118 568 108 574T93 592L88 596L89 601L86 607L70 611Q65
614 51 630L49 643L57 657Q60 659 94 682V708Q99 718 106 722Q113 721 122 721L130 715L133 710L136 709Q147 698 163 678H167Q177 668 184 666Q190 660 200 646ZM225 114Q225 107 213 89Q200 83 185 67T169 39L175 24V16L172 9L161 0Q127 0 101 33L96 34Q83 49
31 66L29 72L25 76L23 83L25 95Q27 97 34 104T48 117Q48 122 52 133T55 153L58 164L55 176Q57 180 58 202Q59 222 57 229Q62 239 62 277Q62 288 56 304L57 310L61 317Q58 334 62 343Q61 348 58 360Q59 363 59 365Q59 395 49 405Q39 404 27 414L25 423L27 437Q36
446 40 451Q47 452 61 470L63 476Q67 483 73 486Q74 487 74 490Q74 492 71 505T69 522Q73 525 84 538L103 536L106 532H111Q120 527 127 518Q138 514 156 496T177 477Q185 477 207 468L214 459V456Q208 441 201 430Q198 429 190 426Q182 404 182 329Q182 327 180
301L177 297Q172 282 173 278L178 268L182 266L186 257V242Q186 240 185 227L177 222L186 216L184 201Q186 194 187 167T195 136T225 114Z" />
<glyph unicode="j" glyph-name="j" horiz-adv-x="245" d="M196 639L193 634L189 633Q186 626 169 609T149 589L152 576Q151 573 147 567L134 559Q118 559 109 572L101 575Q97 587 75 599L80 598Q78 602 58 619L50 620L41 635L44 650L49 654Q53 657 64 664Q68 670
74 676L79 677Q82 680 88 690L89 695Q87 701 88 704Q90 709 94 715Q105 721 118 721Q120 721 126 719L127 714L133 712L140 706Q142 702 144 693Q161 680 168 669L177 668Q180 662 186 659L187 655L191 654L196 649V639ZM218 451L214 441Q209 436 200 431Q197 427
182 386Q183 383 183 381L182 357L174 347L173 342L177 340L182 341Q182 335 184 321Q183 305 183 298T182 294Q182 282 183 272V186Q183 148 185 130V134Q186 120 187 111Q188 105 186 89T184 69L188 67Q189 64 189 38T198 -2Q204 -8 214 -12Q215 -17 216 -20Q216
-23 215 -35Q213 -42 202 -50T184 -64T170 -81L168 -91Q145 -130 87 -158L82 -157Q60 -162 47 -162Q41 -160 37 -159L33 -160L8 -151Q-14 -126 -14 -107Q-14 -85 -2 -70L19 -55L27 -54Q49 -60 57 -71L58 -98L64 -109L78 -108Q102 -96 102 -67Q102 -45 75 -6Q71
2 62 13Q61 36 54 49Q55 62 62 83Q61 88 64 96L58 112V118L66 134L60 162L62 167Q59 203 71 225L62 245L63 257L69 264L70 273Q69 276 65 287Q65 301 62 319V358Q62 386 57 401L52 408Q41 413 26 424L25 432L32 447Q35 449 73 477L74 481L81 488L82 498L81 501L74
505L70 518L71 523L79 534L83 536Q93 537 100 537Q102 537 109 535Q118 529 149 505Q151 498 173 479Q188 473 203 472L211 467L217 459Q219 453 218 451Z" />
<glyph unicode="k" glyph-name="k" horiz-adv-x="424" d="M407 112Q404 104 391 84Q387 81 375 81L376 72Q358 59 357 46L361 29L354 7L350 2L342 1Q332 2 314 13T289 34L288 38Q274 50 268 55L266 62L264 58L259 60H253Q240 66 230 76L231 91L240 100L239 104Q257
121 253 143L255 150Q250 185 250 199Q250 209 253 213Q251 228 258 233L264 253L255 261Q233 264 222 276L208 278L205 282L191 288Q182 301 184 309L187 315L194 321L198 322Q207 321 230 317L239 319Q245 326 255 329Q269 342 289 386L293 389L294 396L292 402H287L281
397H277L273 399Q258 397 240 407Q236 414 215 424T183 434L176 429Q175 421 171 400Q173 397 172 390Q172 388 171 377L163 372Q163 370 165 350L171 352Q171 345 169 327L171 323Q167 316 170 283Q173 249 174 238Q174 238 173 234L169 230V217Q169 207 176 189Q175
186 175 164Q175 164 177 152L181 148L186 136L192 133H199Q201 131 211 123L216 114Q205 84 172 73V68L160 59Q156 55 154 42L163 24V21L160 6Q155 1 145 -2L124 2L121 6L108 13L105 20L98 27Q88 30 74 41Q54 57 53 58Q41 62 27 71Q27 77 26 82Q30 95 39 101L42
107L47 111Q53 126 53 150Q53 155 55 172T58 194V207Q57 213 57 220L54 226V236Q59 243 61 260Q55 275 60 298L57 303L55 328L59 336V358Q58 367 58 379Q58 411 63 431L72 442V445L67 448L65 457L68 462V473L61 477Q60 480 60 598Q60 588 55 635Q51 643 42 658L30
665V673Q35 685 41 690Q52 692 67 691L75 687H79Q93 678 110 653L115 656V663Q117 668 122 680Q142 700 154 705T176 716Q184 717 190 718Q239 718 262 691Q269 683 276 674Q278 669 280 652L275 644L269 640V636L279 626L277 616Q269 608 264 604T245 598L237
600Q228 606 221 619Q220 627 219 633Q219 636 222 648T224 666Q218 667 215 668Q214 668 205 667L194 661Q171 623 171 576Q171 572 170 557T168 537L166 532Q166 527 167 523Q166 520 166 518Q166 500 169 482L184 475Q191 477 201 490Q205 502 215 533L222 536H236Q242
536 265 522Q272 516 293 503Q297 500 325 491L328 490L336 483L359 475Q365 476 368 476Q370 476 377 474L383 470L388 452Q377 431 367 427Q354 400 329 363Q325 354 310 341L309 328L315 329Q325 325 330 322Q339 323 374 309L381 298V294Q367 273 367 249Q367
239 369 229L360 212V205L364 200Q363 197 363 188Q363 185 364 170T365 150L373 135L389 129H399L404 125L407 120V112Z" />
<glyph unicode="l" glyph-name="l" horiz-adv-x="245" d="M244 688L240 679Q230 675 203 663Q200 660 184 631Q185 615 182 557T174 485L178 477L177 469L182 465Q182 455 183 450Q180 442 181 432Q174 420 175 408L177 403Q178 400 175 392Q182 376 181 330L178
327L176 322V311Q177 306 177 301Q177 293 172 283L179 282Q178 274 183 249Q182 247 182 224Q182 223 183 215Q182 210 178 198L192 137Q198 132 220 128L230 119Q232 113 231 105Q224 90 203 77L200 70L189 68Q172 57 169 43L175 30L180 25L182 15L177 2L169
-5L162 -6L153 -4L149 -1H144Q134 6 107 24L99 34Q42 57 29 70Q28 75 26 85Q30 96 50 107L57 121V142L60 148L57 153L55 164L58 169Q60 179 60 188Q60 197 58 204L63 207Q62 225 67 238L65 243L61 245Q63 259 56 272Q56 286 60 312T64 353L61 362L63 367L61 371Q60
387 59 397Q56 434 65 450L71 456Q59 467 59 486L60 490L59 494L61 499Q57 543 56 605Q55 615 51 639Q36 657 31 659L25 668L23 678L28 687L36 693Q46 694 52 694Q70 690 91 687Q111 677 140 647L146 649L148 654L144 660Q148 673 172 709Q199 720 202 720L206
718Q224 721 234 714L242 706Q243 689 244 688Z" />
<glyph unicode="m" glyph-name="m" horiz-adv-x="605" d="M585 117L584 107Q580 97 568 85L560 84Q557 77 539 59L536 43Q538 36 546 20L542 9L535 1H531Q498 1 481 28L473 32L476 37L470 49L462 42Q447 65 416 69L414 75L410 78L408 89L411 98Q416 101 427 107Q437
122 436 162L441 163L434 166Q436 180 436 195Q427 204 429 222L427 226V235L430 240V248Q425 256 427 268Q433 277 433 283L429 289V293L432 302Q429 308 429 319L432 327Q430 343 437 361Q445 384 447 393L455 401Q440 416 407 430L403 434L382 438L371 433L365
425V419Q365 417 370 401L367 393V382Q364 376 359 364L360 354L366 342Q366 341 367 330T369 313Q369 255 366 247Q368 241 368 232Q368 206 366 200L367 195L365 189Q371 146 369 135Q375 135 379 136L390 132L398 124L399 118L397 109Q379 92 352 60L348 43Q355
28 356 19L353 8L347 2Q341 1 336 0Q335 0 327 1Q309 9 292 22L290 27L261 53Q243 69 229 71Q222 78 222 92Q230 96 238 107Q251 147 252 168L250 172Q250 177 251 194T253 215V221L250 226L254 234Q250 243 250 259Q250 278 251 294Q252 317 251 329L256 345Q256
364 245 415Q238 419 204 435Q196 433 191 434Q186 432 181 423Q181 396 177 360Q178 350 182 325L176 304L178 296L176 290Q177 286 177 284Q177 278 176 254T175 222Q175 158 180 145L185 138Q185 138 203 136L207 131L213 128Q214 127 215 124T216 118L213 107Q200
94 190 83Q182 82 164 61L161 47L167 36L169 20L163 9L154 2L147 1Q141 4 128 7Q113 22 80 47Q41 76 30 74L24 81L22 92L23 97Q31 101 48 117Q49 120 53 130T61 149L58 153V169Q58 196 64 241L65 238Q59 252 59 258L65 263L71 261V272L63 278Q61 282 59 295L63
310Q64 307 64 341Q64 349 59 369L61 375L58 381V397Q52 403 51 406Q45 407 29 408L20 413L13 422L15 440L20 444L23 450Q53 472 59 502Q55 509 55 522Q55 523 56 527L61 533L70 537H89Q119 537 157 508Q159 503 175 482Q179 479 193 472H204Q221 472 241 491L242
495L249 504V512Q248 515 248 519Q248 523 255 533L264 539Q278 537 313 532Q328 520 339 515Q350 497 366 481L374 479Q376 480 378 481T382 482Q388 486 402 498L407 508L405 515L410 528Q416 534 425 535Q437 533 449 530L461 524L463 520Q471 517 484 508Q488
508 496 506Q508 501 536 487Q543 486 560 483L567 478L575 476Q578 472 582 465V459L572 440L565 437L561 421L556 416L554 409L555 404Q552 394 550 343L545 338L550 331Q549 321 545 295L542 290Q541 259 551 239Q549 222 546 203Q546 203 548 189L547 185L550
172L546 166L551 159Q551 145 555 138Q578 128 585 117Z" />
<glyph unicode="n" glyph-name="n" horiz-adv-x="425" d="M418 114L417 103Q408 98 383 79L373 76Q358 61 354 48Q354 41 358 34Q359 31 362 13L360 7L354 0L344 -3H333Q327 1 307 9Q302 18 296 19L291 26L280 29L279 38Q271 49 256 57T232 72L229 82L230 90Q243
103 247 104L253 114Q252 121 255 139L253 143Q249 162 250 199L248 203L249 221Q246 230 246 235Q246 225 251 258L256 261L250 262V277Q250 302 253 317L251 324Q256 341 253 351Q258 376 263 397L269 401Q259 402 227 424H223Q221 425 202 435Q194 440 177 442L171
439L168 432Q169 431 178 412Q183 402 184 361Q184 359 185 354L184 348Q186 342 186 327Q186 326 185 318Q181 312 175 311L181 307Q185 287 189 257L187 250Q188 246 188 244Q188 192 180 160L175 154Q172 146 173 139L178 136Q207 135 219 122V109L216 100Q194
80 181 67L175 65L170 51L164 44Q169 34 174 25L173 12L167 6L148 0Q135 3 125 9Q120 18 96 32L90 42Q79 53 62 59Q47 56 34 72L32 77L33 89L36 95Q43 103 52 107Q57 118 61 161L64 166Q65 171 63 177L65 185Q64 188 64 198Q64 199 65 202Q61 211 62 223L67 236Q68
246 66 257Q68 263 67 269L64 274Q67 283 67 326Q67 330 65 343T62 360Q62 364 65 368Q64 373 64 375Q64 376 65 380L60 399Q51 399 29 401L16 410L13 422Q17 438 25 444L29 445Q47 466 57 476L56 480Q58 482 60 487V491Q60 493 58 500T56 510Q56 512 57 519L69
532L75 534L78 532Q110 531 133 520H138Q150 509 181 480L186 479L199 481L214 494Q220 505 220 508L216 518L219 530L231 536H244L260 530L263 525Q268 524 278 520L285 514Q295 512 308 501T329 489T379 478L380 474L391 470Q392 465 392 463Q392 461 391 451Q375
434 372 396Q371 392 371 336Q371 331 363 310Q363 304 362 300L364 295V291Q364 287 361 264L364 261Q364 246 368 213Q367 219 367 170Q368 167 371 149Q372 148 384 134L414 124L418 114Z" />
<glyph unicode="o" glyph-name="o" horiz-adv-x="396" d="M368 121Q366 117 360 108Q354 107 334 98Q320 99 273 79T220 48L221 40Q228 33 228 19L224 11L207 0Q204 1 186 4Q185 7 170 15L159 17L157 21Q152 21 134 30Q128 38 100 53T57 74H53Q43 80 34 82L28
91L31 101L43 115Q58 171 58 201L63 205L57 211Q57 245 56 248L58 257Q58 262 56 276Q61 291 60 295L56 302Q57 307 60 318L56 322Q55 327 55 344L57 349Q55 356 55 380T48 415Q41 418 36 426L34 434Q36 439 40 446Q61 456 138 474Q149 482 160 490T175 512Q174
518 174 523Q174 526 179 534L187 540Q193 542 199 542Q201 542 210 541L233 530L238 522L247 519Q307 474 344 468L360 457Q361 450 362 446Q362 437 355 430L352 416Q353 413 353 404Q353 402 350 391T347 377L350 362Q346 352 348 340Q346 333 347 322L345 317V309Q346
306 346 302Q346 297 345 292V282Q348 278 348 270Q348 267 345 255Q348 248 348 236Q348 214 342 208L346 205L344 201Q349 176 350 162L348 159L349 153L348 148L351 139L360 136L368 125V121ZM248 140Q236 153 231 163L228 182Q229 186 231 208Q233 227 231
233L232 242L230 247L231 264L238 271L239 275L233 286Q231 295 239 306L232 314Q232 330 228 358Q228 369 232 385L231 394Q233 403 237 410V418L222 414Q208 419 188 434Q179 437 172 439L164 436V430Q164 426 169 418Q172 391 170 328Q174 323 174 292Q174 290
170 273L177 258V254L172 241Q173 236 173 234Q173 225 169 218L171 214Q169 199 165 173Q162 166 154 148L158 143Q190 128 236 128Q238 128 246 129Q249 137 248 140Z" />
<glyph unicode="p" glyph-name="p" horiz-adv-x="425" d="M398 83Q398 82 396 75Q389 68 386 64Q380 65 351 51Q335 43 320 33Q283 0 260 0Q257 1 244 2Q236 10 235 18L236 33Q238 39 247 46L248 56L246 63Q242 67 240 71L219 80Q209 80 201 77L194 72L187 60L182
59Q172 16 175 -17Q176 -21 177 -40L179 -44Q177 -55 189 -90Q200 -99 215 -117L218 -126L215 -139Q202 -145 197 -150Q187 -149 176 -149Q164 -144 159 -144Q150 -140 136 -127L131 -125L115 -105L106 -101L103 -102Q94 -137 76 -158Q70 -163 59 -172Q39 -177
28 -177Q14 -174 12 -172L1 -159L0 -144Q3 -129 13 -119L18 -117Q23 -112 28 -109L39 -106L46 -99Q64 -68 64 13Q64 13 62 25Q61 33 62 37L60 47Q66 62 66 79Q66 87 63 112T59 145Q59 159 63 164Q63 166 64 176T65 189L62 214Q62 215 63 220L69 221L65 223L60 235V246Q60
316 61 309L63 315Q64 312 64 336Q64 400 56 426Q54 430 34 446L30 460L32 467Q38 475 41 476Q66 479 110 495Q120 501 127 504Q143 513 186 537Q195 538 217 539Q225 536 234 524L235 516L232 503L234 494Q241 489 244 479Q249 478 253 470Q273 464 288 457H298Q312
449 380 448L388 444L392 437Q391 432 391 430Q391 429 392 425Q369 392 369 366V335Q365 330 365 324L368 318Q364 306 364 292Q364 290 365 283T366 274L368 271Q366 253 366 243Q366 141 376 112L384 102L390 101Q391 100 398 88V83ZM279 127V131Q279 132 278
138Q267 155 264 159T252 184L253 188Q248 197 248 202Q249 206 250 227Q252 228 258 230Q249 240 248 244L250 268L248 272Q247 296 247 311Q247 315 248 333T250 355Q250 379 257 420L256 424L248 433H241Q240 433 235 432T228 430L224 426Q201 418 194 419Q193
418 174 412Q179 392 179 365Q179 324 180 317L183 312L182 304L178 298L179 290Q181 288 183 281L180 273V264L182 259Q180 245 183 220Q187 191 187 181Q187 163 177 136L182 126H196Q198 127 207 129Q213 130 250 136Q255 135 265 133L273 127H279Z" />
<glyph unicode="q" glyph-name="q" horiz-adv-x="425" d="M425 -145Q425 -148 424 -160L413 -173Q405 -178 386 -178Q345 -178 322 -104L319 -102L310 -106L294 -126L289 -128Q285 -133 266 -145Q261 -145 249 -150Q244 -149 228 -152Q224 -146 210 -140L207 -127L210
-118Q214 -115 230 -100Q235 -95 241 -74T246 -46Q250 -42 250 -2Q250 2 248 19Q247 33 248 40Q244 52 243 58L238 59L231 71L224 76Q217 78 206 79L186 70Q184 67 179 62L177 55L179 45Q186 38 189 31L191 17Q187 7 181 1Q171 -2 165 -2Q152 -2 131 10T105 32Q87
41 70 54Q59 59 39 63Q26 78 27 87Q30 95 36 99L41 101Q58 115 58 180V269Q58 271 59 282T61 297Q61 308 57 316L60 323Q60 329 56 334Q56 389 45 411L41 413Q40 414 34 423V436L37 442L45 447L63 448Q72 448 96 449Q101 449 115 452T137 455L172 469Q177 478 183
479L185 485L191 492L193 502L190 515L192 523Q199 532 208 538H226Q251 538 298 503L315 494Q345 478 384 475Q387 474 393 466L395 458L391 444Q386 441 374 433Q372 427 369 424Q366 414 361 335L364 326Q364 322 362 313L364 308Q365 315 365 233Q364 230 361
222L356 220L362 219Q363 215 363 213L360 187Q360 184 361 175T362 163Q366 158 366 144Q366 132 363 109T359 74Q364 47 365 46L363 36Q365 30 364 24Q363 19 362 12Q362 -86 387 -108L397 -110Q406 -115 407 -119L412 -121L421 -131Q423 -136 425 -145ZM251
411Q241 413 231 418Q226 417 216 420L213 422Q201 424 197 428Q182 432 177 432L169 423L168 419Q174 392 174 349Q174 344 176 329T179 310Q179 272 176 267L177 243Q175 238 168 229Q170 229 172 228T176 226Q177 210 177 200Q177 194 172 187L173 183Q171 173
163 157Q157 152 147 137Q146 132 146 125L152 126L160 132Q165 134 176 135Q178 135 181 134T186 132L191 133Q228 125 229 125H243L248 134Q237 176 238 190Q244 280 245 272L242 279Q245 288 247 296L243 303L242 311L245 316Q245 353 251 411Z" />
<glyph unicode="r" glyph-name="r" horiz-adv-x="340" d="M350 468Q350 464 342 453T329 438L325 430L310 419Q310 419 296 395Q296 389 295 385Q296 382 296 380Q296 384 296 379T294 361Q290 354 274 343L258 345Q241 357 240 382V378Q239 406 214 418H207Q206
418 200 417L194 412Q190 403 190 394Q190 372 195 330L201 321Q196 300 193 295V288Q193 280 194 278L198 273V241Q198 239 197 231T195 222L200 205Q197 194 189 174L184 173L180 169L179 162Q175 158 173 147L180 144Q189 147 265 128L272 111L270 100L261 88Q244
74 205 64L200 59Q197 51 198 47Q203 37 203 19Q203 18 202 13Q195 6 179 0Q166 0 156 7Q139 19 135 20L129 28Q122 35 104 43H93L82 55Q74 56 64 62H57Q54 63 47 67T36 73L31 79L30 87Q31 94 39 103Q55 107 65 125Q64 137 67 148L65 167Q71 178 71 202Q71 204
70 211T69 221Q64 229 64 234Q64 248 70 258L68 272Q72 282 73 287Q72 295 67 312L75 317Q69 326 69 330L70 333Q71 350 66 390Q59 398 42 403T23 413T20 424Q20 437 53 470Q58 480 62 492Q61 497 54 513V521L62 535Q66 536 85 536Q125 536 162 504Q163 502 182
471L187 467H195Q197 468 204 469Q217 482 223 489L226 502Q225 504 225 512Q225 517 234 529L241 533Q246 532 252 534Q257 533 267 531Q279 519 287 517L296 508Q330 495 333 496L343 488Q350 478 350 468Z" />
<glyph unicode="s" glyph-name="s" horiz-adv-x="397" d="M380 489Q380 487 378 473Q373 464 351 447T318 428L317 421L313 417Q312 416 314 395L311 385L307 380L301 377Q295 376 290 376Q282 376 264 383L260 388L256 389Q223 411 191 441L187 442L174 454Q180
440 181 431Q181 424 180 409T179 387Q179 369 184 361L196 353L206 351L209 349Q233 342 273 337Q286 327 301 326L308 321Q313 320 337 311L348 297L351 282L349 276L352 269Q349 260 351 224Q350 210 345 183L346 178Q346 177 345 174Q345 137 348 132L356 126Q359
120 358 116Q355 105 344 97Q338 98 318 94T293 89Q279 84 270 78L259 81L255 73Q246 68 226 62Q220 59 211 43Q215 34 215 25L212 13L203 4L191 0Q186 1 183 1Q182 1 177 0Q156 7 111 40Q73 69 52 66L37 55Q31 40 31 36Q31 31 33 26Q36 16 46 13Q58 14 64 20H73L82
17Q84 15 94 3L95 -9Q92 -17 77 -38Q65 -42 52 -42H41Q36 -38 31 -38L27 -39Q10 -25 5 -19Q-7 -7 -12 8Q-11 13 -13 29T-16 48Q-16 59 3 98Q16 106 52 132Q64 150 61 162L64 172L77 185Q84 186 87 187Q91 187 108 185Q119 181 141 167Q144 164 166 148L175 151Q180
141 199 132T232 122Q233 122 239 123Q244 128 245 134Q226 151 223 167V206Q223 209 221 221Q211 230 173 239L170 243L155 246Q145 248 142 248T76 278Q56 295 56 349Q56 350 59 368T60 391L62 399L59 404Q59 411 64 419Q59 424 57 440L45 449L43 454L44 465Q52
483 72 478Q80 480 101 485L113 482Q124 487 137 490Q154 492 174 498L177 502L179 509L177 519Q178 522 180 530Q191 545 209 547Q230 545 317 494L328 493Q340 500 354 505Q361 504 368 504L374 500L380 489Z" />
<glyph unicode="t" glyph-name="t" horiz-adv-x="291" d="M308 532Q309 514 285 488Q284 485 277 478L273 477L262 467L261 454Q267 443 271 429Q271 415 252 408H248Q242 408 236 410Q226 424 213 434H195Q188 434 178 432Q176 426 176 419Q176 413 178 405L175
398Q177 361 182 325V315Q182 291 181 270L177 269L179 265Q182 230 181 184Q182 182 182 174L179 166Q173 158 161 150L160 143L166 141L169 138Q171 140 190 132L214 134Q227 126 233 127Q234 128 243 128Q253 128 260 124L268 113L266 96Q261 87 241 68T219
42V33L225 25Q227 15 226 9L220 -1L209 -6H204Q195 -6 175 4T150 15L148 19Q135 24 113 37L111 43Q108 44 97 48Q93 53 52 67L36 94L41 106L47 111Q46 119 51 131Q48 164 56 205L61 206V212L55 228Q58 234 58 277Q58 283 65 301L64 309L66 314V321L60 327V368Q61
370 62 377L59 390Q63 400 60 408L63 415L61 428L51 432Q28 432 14 429L9 437V471Q9 477 6 484L8 496L11 500L17 502L37 500L41 497Q54 497 62 504V525Q62 592 37 608L31 623L36 638L49 644Q65 641 70 642Q97 631 119 597L116 605L118 609Q148 689 193 695Q204
695 213 696L231 679L235 661L224 643Q212 639 198 623T180 594L181 586Q174 559 174 519V499Q181 498 205 498Q230 498 243 511Q252 527 259 547L268 556L282 560L292 558Q302 554 307 544Q308 537 308 532Z" />
<glyph unicode="u" glyph-name="u" horiz-adv-x="424" d="M404 109L398 94Q397 93 380 78T362 62Q360 56 355 45L361 40Q363 37 365 27Q363 12 357 6Q344 1 335 1Q331 1 320 4T306 8Q292 18 283 20Q281 22 259 46L258 51Q252 61 239 62Q237 72 210 75L196 70L191
65L186 52V44Q193 35 200 20Q200 9 191 1L179 -3Q155 -1 135 9Q133 10 98 36Q97 36 69 56H65Q58 60 39 65L33 71L31 78L32 87Q35 95 53 117Q62 129 61 157Q61 160 60 176L57 182Q58 187 59 196L57 204L62 208Q61 221 64 230L62 240L64 246V271L60 277Q60 279 61
284T62 290Q62 299 60 321L53 332Q54 342 59 348V360Q60 366 60 372Q60 375 58 383T56 394L51 398H46L43 403H32L21 414L20 421L25 438Q38 450 68 488V494Q63 500 61 510Q61 517 70 533Q80 535 90 535Q94 535 109 530Q131 513 149 496Q159 489 178 482L179 477H185L196
471Q198 461 197 454Q192 448 181 432Q181 428 178 417Q181 404 181 375Q181 373 178 361Q180 351 180 309T184 243L182 238Q186 208 177 175Q171 166 166 148L170 141Q178 141 190 137L205 136Q206 135 252 126L260 131L259 144Q251 149 247 162T241 185Q241 192
242 215T244 245Q244 255 250 280L256 288L249 290Q245 298 245 307Q245 313 247 334T249 362Q249 382 243 391Q236 395 218 405L212 414Q211 418 211 420Q212 423 213 435Q217 444 224 453L229 456Q231 458 241 472L249 478L264 482Q258 489 252 508Q254 513 255
520L264 531L271 535L289 537Q295 532 305 531Q318 516 322 509Q326 506 332 502Q335 494 344 489T356 480Q371 477 391 472L399 460L396 442Q389 435 371 423Q365 417 365 339Q365 337 363 326T361 310Q361 271 367 247Q363 240 365 236L369 226L365 220V214L372
204L368 197L367 187L371 179L368 171V164Q368 157 373 134Q379 133 395 128Q401 124 404 117V109Z" />
<glyph unicode="v" glyph-name="v" horiz-adv-x="418" d="M398 465Q399 450 376 434L368 415Q369 410 367 390T364 367L359 360Q359 359 360 354T361 346Q360 343 358 335L361 327V307Q362 298 362 288Q361 284 355 272V263Q355 260 356 242H361L365 230Q364 223
364 219Q364 213 365 195T367 173Q370 161 379 141Q379 140 381 128L379 121L367 109Q363 109 342 102T313 95Q310 88 304 85L295 82L289 77Q280 75 273 70L263 71L244 58L238 48Q238 42 243 34Q244 28 244 23L241 11L232 3Q226 0 211 0Q209 0 201 1T189 3L184
8L177 9Q167 14 160 18L157 22Q146 29 115 45V53L104 55L102 61L94 63L88 60Q81 67 44 70L37 73Q30 81 28 91L30 101Q52 128 58 136Q68 150 66 181L64 186Q67 212 65 223Q65 224 66 230T70 241Q67 255 67 336Q67 345 61 371T51 404Q38 411 24 421L20 435Q20 446
37 461L61 482Q65 488 71 494V500Q65 514 63 526L69 539L82 546H90Q91 546 94 545H98Q105 539 113 537Q142 514 147 501Q152 498 161 491Q178 487 194 486L202 474V467Q202 458 185 439Q177 412 177 399V389Q177 388 179 383T183 372Q179 364 179 355L187 350Q183
314 183 270Q183 264 185 244T187 217Q187 178 162 159Q163 158 164 156T165 151L174 145L182 144Q189 148 204 150L216 144L225 133Q245 128 257 127L263 131L266 137V142Q266 154 255 162Q249 175 248 188Q247 199 248 218Q249 233 249 246Q249 253 244 266Q244
293 253 306L248 320L253 332Q254 356 246 406Q239 409 220 417Q213 424 212 429L213 440L218 448Q227 453 230 460L228 468L235 473L247 475Q262 489 265 496V501L259 510Q259 515 257 526L263 537L272 543H284Q305 535 325 508Q330 505 368 483L385 481L396 473L398
465Z" />
<glyph unicode="w" glyph-name="w" horiz-adv-x="595" d="M575 449L570 441L565 440L564 435Q551 428 537 403L542 395Q542 396 540 378L543 371L539 353Q544 332 544 318Q544 309 542 302L550 280Q545 271 541 252V184Q541 182 539 171Q542 163 543 146Q549 135
557 129L560 118Q557 113 549 101Q536 97 509 89Q478 80 474 73H465L459 79Q444 73 424 78Q408 70 379 46L378 39Q380 30 385 23V16Q385 10 381 6L367 0H357Q350 0 342 4T325 12Q294 24 266 43Q249 57 231 67L215 68Q198 62 200 43L208 31L210 22Q210 20 209 16T207
8L202 4L198 3L195 0Q199 0 166 4Q163 7 147 16T129 26L127 30L119 36Q114 36 110 40L105 49L92 57Q86 57 63 64T33 72L24 81V94L29 105Q43 110 52 125L51 133L55 135L58 141Q55 153 56 157L59 163L56 174Q64 210 61 234L57 241Q57 248 54 252V265Q59 274 58 281V298L61
306Q62 316 59 328L60 333L59 336Q60 348 61 361L57 363Q56 375 51 400Q46 406 44 410Q38 411 20 429V435Q21 438 22 449Q23 450 26 454T33 461V464L50 476H53L58 481L61 488Q61 490 58 500T55 513Q56 516 57 527L64 535L72 539Q79 538 83 538Q84 538 89 539L101
530L108 529L118 522L121 516Q136 502 149 494T181 483L189 479Q196 470 195 457Q184 446 172 426Q173 419 170 404Q172 393 171 363Q175 339 176 304L173 299V280Q173 278 174 272T176 265Q178 243 178 216Q178 188 156 162L152 151Q170 148 193 140Q221 130 231
131L240 141L244 151V159Q248 164 248 169Q248 181 245 205Q248 213 249 240Q249 242 247 252L243 256L239 270L247 276V302Q248 307 251 315Q251 317 249 323T246 333L252 345L246 351Q246 369 248 375Q247 379 245 385Q235 394 213 414Q209 427 210 434Q211 440
218 448Q221 450 228 456T251 481Q252 486 252 488Q252 503 248 512L249 515L247 524L249 530L262 539L284 538Q292 529 315 512Q315 508 321 497H329Q335 492 356 480T382 461L383 456Q381 448 382 443Q375 438 359 415Q359 411 358 401T357 388Q357 377 359 292L361
197Q361 208 353 152L360 146L361 141Q367 141 395 135T437 128Q441 134 443 139L441 149L435 155L433 160V165L431 170V190L429 194V208Q428 215 428 222Q428 228 429 248T431 273Q431 275 429 282T426 290Q432 307 429 314Q432 326 431 329L427 339Q430 343 432
353L429 363Q431 370 433 386L432 390L433 396L431 404L427 405L425 412L421 410H417L410 414L405 420Q404 425 404 433V437L410 451Q423 461 447 488Q444 497 437 517Q437 526 445 534L458 538Q460 538 481 530Q484 524 490 521L492 516Q503 503 529 486L536 479Q550
479 571 472L575 465V449Z" />
<glyph unicode="x" glyph-name="x" horiz-adv-x="419" d="M409 116Q409 108 387 81L382 78L378 70L371 67Q364 59 361 49V46Q361 43 363 33T365 18Q364 18 363 7H359L353 2L347 0Q336 4 312 9Q273 49 233 58L225 66L223 71L226 84Q240 94 245 109Q244 129 210
176T171 244Q167 240 162 230L158 229Q146 219 139 216Q130 203 109 183Q105 179 100 161T95 134Q95 112 108 79T122 34Q122 6 88 -6Q55 -9 28 25L27 37L23 44L25 53Q20 70 20 91Q20 144 33 167L29 174L31 181L40 184L44 191L50 195Q59 212 75 234L86 241L89 249Q96
252 117 268T140 289L141 298Q128 324 115 332Q111 343 105 347Q102 361 71 399L59 402L41 400L26 407Q23 412 23 429Q23 432 40 455Q45 456 53 466V470L60 474L64 483V487L60 493Q55 511 57 515L62 527L68 533L81 538Q122 534 131 533L134 526L141 528L170 514Q174
499 172 478Q181 462 202 416L213 408L214 400Q220 393 226 381L227 375Q231 369 233 364L238 360L241 349L247 347L261 355Q294 405 293 429L297 434Q297 435 290 457L280 462Q273 473 271 480V511Q272 512 273 517Q282 529 295 536Q305 538 316 538Q317 538 324
537T333 536Q370 517 369 481L367 428Q367 427 364 418Q346 361 283 298L281 293Q294 277 309 244L308 236L316 220Q337 204 339 192Q349 182 355 169Q359 160 384 146L396 145L403 140L408 131Q409 122 409 116Z" />
<glyph unicode="y" glyph-name="y" horiz-adv-x="434" d="M410 75L407 42L409 38Q407 15 396 -1L395 -9Q391 -18 375 -35Q371 -38 362 -45L358 -46L340 -60L330 -61Q290 -78 250 -95Q192 -121 189 -141Q192 -154 191 -159L185 -171L172 -180H159Q154 -179 140
-175Q125 -167 84 -144L78 -136L75 -134Q64 -124 32 -104Q24 -103 5 -91Q2 -91 -17 -85T-42 -78Q-59 -78 -68 -87L-73 -96V-105L-66 -113Q-59 -112 -42 -108Q-37 -109 -31 -109L-25 -112L-17 -127V-140Q-18 -142 -19 -150Q-25 -156 -26 -159Q-36 -165 -38 -170Q-40
-170 -47 -172T-58 -175Q-78 -175 -110 -149Q-123 -119 -123 -96Q-123 -93 -119 -74Q-113 -67 -107 -51Q-90 -38 -59 -23Q-49 -23 -29 -20L-24 -22Q-13 -22 -3 -23L1 -26L12 -28L15 -24L17 -10Q18 -8 26 6L43 16L68 15L95 1L91 0Q97 -3 112 -11L116 -18L122 -19Q148
-42 160 -50Q180 -63 206 -63H218Q226 -57 236 -55Q242 -49 254 -44Q257 -41 282 -7Q282 1 285 14Q285 14 281 38L278 41L274 50L270 53L265 54L260 59L261 63Q248 68 226 74L220 72L206 73Q196 61 188 55L182 36L188 25L186 14L175 2L169 0Q153 5 150 4Q117 28
51 65H46L36 72L35 90Q38 103 57 113Q65 124 65 171Q65 173 64 178T62 184Q62 181 64 239Q60 250 60 254Q60 258 65 266V272Q65 287 59 296Q61 304 60 312Q66 321 66 332Q66 338 65 344V356L61 366V373L57 383Q44 399 26 404L22 413V429Q26 435 45 453T70 474L73
486Q66 496 66 507Q66 512 69 519L83 533L88 534Q97 532 121 524Q126 516 138 510L140 505Q175 470 195 467L203 458L202 446Q201 443 191 430T180 408Q180 392 182 361T184 313Q183 310 180 301L181 290L186 281V275L183 268Q186 261 186 239Q186 170 172 140L244
127Q246 127 257 128V137Q257 140 252 160T246 192Q246 230 247 243L254 250L256 255Q246 272 249 298L253 299Q248 313 251 326L247 331V346L252 356V359Q252 383 251 381L249 384Q236 392 220 406L218 411L219 430Q232 440 236 449Q254 461 261 473Q263 477 263
487Q263 491 261 500T258 512L262 520L273 528L280 530Q285 529 300 524L305 518V515H306Q320 511 346 485Q364 476 395 461Q397 458 400 449L399 439Q394 434 380 422Q373 412 373 386L376 381V372Q376 360 369 342L371 323Q369 320 360 308L365 306Q370 293 370
267Q370 261 369 240T368 212V183Q368 178 369 173V162L364 157L361 148L372 144Q375 130 383 122T393 111Q396 105 410 75Z" />
<glyph unicode="z" glyph-name="z" horiz-adv-x="363" d="M346 157Q330 118 302 85L297 83Q293 75 281 54L280 46Q285 44 290 35L292 25L289 14Q278 2 270 -1H256Q243 1 217 5L211 3L205 6L201 5Q192 8 170 16Q160 23 127 40H124L115 45L89 49Q83 45 78 42Q73
36 68 19Q65 15 57 3Q50 3 39 0Q30 0 17 19Q16 24 16 27Q16 40 24 76Q33 117 40 121L38 126L40 133L44 136Q47 145 70 180Q92 212 92 220Q104 242 120 254L121 260L109 263Q99 263 66 254L58 255Q45 260 37 272L35 280Q36 289 44 306Q45 307 61 317Q86 319 92 321Q107
321 120 320Q126 319 162 313L168 320L170 327Q173 330 175 336L181 339L184 347L188 351L190 358L197 363Q206 377 230 413V418Q217 414 212 415L207 413Q199 416 189 412Q137 423 113 423Q111 423 100 420Q92 414 84 411Q68 392 48 392Q47 392 42 393L35 397Q30
405 30 414Q31 417 33 433Q37 442 60 465T85 495Q79 522 80 527Q82 531 87 538L98 545Q105 546 108 546Q134 546 141 539L146 540Q149 539 155 531L162 536Q177 534 202 529Q249 519 255 519Q271 519 283 524Q292 535 306 545L320 546L331 536Q333 533 334 509Q333
502 330 484L332 480Q331 475 326 460L322 457Q296 379 243 326V322Q244 320 247 311Q265 314 288 320L302 318L310 313L318 299V286Q317 279 309 270Q298 261 275 259Q256 258 237 257Q230 260 208 260H200Q179 229 147 186Q147 176 130 156Q129 150 125 138Q133
147 160 147Q167 147 209 141Q228 138 242 138Q244 138 251 139T259 141Q273 147 293 163L295 168L311 185L329 193Q333 189 339 189L345 181Q347 172 346 157Z" />
<glyph unicode="{" glyph-name="braceleft" horiz-adv-x="992" d="M326 643Q326 642 325 636L322 632Q310 624 276 603Q270 596 270 573Q267 566 258 562L253 561Q223 562 201 622L193 621L186 626Q183 633 177 636L165 640Q160 640 156 636L158 608L168 602Q182
583 182 546Q182 543 178 520T174 490Q174 484 179 460T184 427L183 395Q180 313 187 298L192 294Q193 293 193 290Q193 259 187 246L190 235Q190 231 188 203Q186 194 182 180Q181 179 160 142L162 137L182 133L197 138L204 127Q234 121 243 120L246 118Q250 119
267 113L272 108L277 96Q273 84 254 66T230 36L232 30Q241 23 242 20V8Q238 2 223 -5Q217 -6 214 -6Q201 -6 179 3T156 12Q149 17 135 27Q133 28 126 31T113 36L108 42H104L101 46Q83 54 73 58H63Q56 61 42 74L43 88Q48 93 60 112L59 118Q65 132 65 186V194L62
198L61 202L62 206L68 211Q71 217 71 230Q71 238 69 264T67 299L62 310Q69 337 68 347L65 352V357Q66 360 68 374L66 381Q68 389 68 430L72 436Q70 436 61 437T49 438Q47 438 39 436T27 434Q25 434 19 436T10 438L6 447V451Q6 469 11 502Q6 501 50 501Q54 503 61
505L72 503L74 510Q68 518 68 549Q68 554 67 571T65 592Q62 598 51 609L40 614L34 622L30 636Q31 638 32 641T34 645L44 654H67Q92 654 131 668T184 699Q189 705 193 721L204 728H215Q217 728 228 725Q233 717 261 690T299 662T324 657Q325 649 326 643ZM617 383L612
372Q604 361 563 342L551 329L546 314L541 308L531 304H521Q507 316 480 387L471 395Q464 410 460 423Q452 440 443 448L438 445L432 436L434 414Q451 384 445 359L449 353L448 349L450 337L446 328L448 325Q448 322 449 310T451 293Q451 290 448 279T445 263L449
260Q450 255 451 247L448 246Q449 249 449 207Q449 203 445 192T441 178L437 174L435 169L426 164L427 157Q434 139 471 131Q498 125 526 127V119Q531 120 538 129L545 131L547 136V140L550 146Q550 148 546 162T542 178L546 188Q554 192 567 199L588 189Q591 183
598 166V154Q598 120 575 95L569 92Q564 80 543 68Q516 53 512 49T506 35L510 26V12L502 2Q490 1 482 0Q473 3 428 14Q426 16 393 33T354 52L351 60L338 58L332 65H307Q306 65 301 66L297 69L293 78V84Q294 86 296 94Q302 101 307 108Q315 123 316 151Q317 187
320 194L326 200L320 215Q320 208 322 266Q320 283 321 300L319 305V309Q319 328 320 327L324 338Q322 344 323 347L325 351Q320 374 321 404L312 407L313 419H304Q300 425 298 433Q298 439 304 448L316 454Q318 453 331 452Q350 458 352 458Q357 462 398 473Q436
483 446 496Q453 496 480 517L481 525Q486 534 493 540L498 542H501L515 541L530 528Q533 521 541 502L549 501Q557 488 571 455Q571 450 574 441Q578 438 588 424L591 404Q596 404 606 402Q608 401 610 398T614 393L617 383ZM958 447Q956 442 947 433L951 438Q935
428 932 397Q933 402 933 347Q933 343 931 330T929 312Q929 306 930 301V290L933 285V278Q928 275 927 265L934 256V213Q934 194 935 185L937 181Q940 165 944 133L947 125L957 114L955 102L940 92L928 91Q919 84 895 74Q874 55 871 52Q860 37 860 10Q861 9 862
1L876 -16Q881 -18 886 -23Q887 -27 892 -33L895 -50L890 -70L878 -81Q878 -81 854 -86L837 -80L822 -64Q811 -31 811 -9Q811 19 823 46Q822 53 825 72T828 94Q828 102 824 128Q821 148 824 162L822 167Q819 193 815 247Q810 257 810 275Q810 286 812 299L809 306Q810
324 831 402Q812 413 780 429L775 436L760 426L761 422L758 424Q749 403 748 357Q748 356 749 351L752 346Q750 332 750 328Q750 322 752 302T754 277Q754 203 751 194L753 190Q750 172 769 141L770 134L783 133L797 126L801 118L800 113L801 108L798 101L794 98L791
91Q789 90 770 75L762 73L758 70Q748 68 742 62L738 53V47Q744 34 744 23Q744 21 742 10L733 2Q719 0 717 0Q702 0 676 23L680 22L672 28L668 29L663 34V38Q647 50 627 55L623 59L604 62Q597 67 596 73L595 87L597 94Q606 105 625 115Q625 117 629 134T634 158Q634
162 629 179Q629 179 632 192T634 214Q639 225 637 229L634 236Q636 256 627 274L630 288L636 296V304Q635 307 635 311Q635 306 638 337L632 358Q635 366 636 371Q636 405 635 402L633 408L634 412L630 418V424Q629 426 629 429Q629 443 634 451L635 488Q635 490
633 499T631 512Q631 537 637 546V556Q637 562 636 581T634 604T631 622T628 639Q621 649 602 665Q603 669 603 671Q603 672 602 677L603 682L607 684L611 689Q619 691 632 692Q632 692 641 688T655 684Q662 679 683 658H690Q705 688 717 700T759 721H773Q779 720
786 720Q787 720 793 721Q798 719 811 717L815 714L819 713L823 708L829 707Q841 698 857 676Q857 674 858 665T861 649L859 645Q859 637 858 632Q854 626 851 621L837 612L813 611L803 625L800 636Q806 650 804 660Q802 663 796 669Q792 670 784 671Q776 667 772
666Q757 653 751 629Q751 627 745 585L748 579Q748 569 744 561Q743 565 743 526Q743 495 752 483L766 482L778 495L780 500Q779 510 778 516Q778 526 787 536L793 539Q804 540 811 541Q812 541 817 540L823 536L829 535Q838 529 860 513L862 509Q874 504 884 496L902
492L909 487H912Q920 483 939 475L943 471L953 467L958 461V447Z" />
<glyph unicode="|" glyph-name="bar" horiz-adv-x="602" d="M315 627Q302 620 276 603Q270 596 270 573Q267 566 258 562L253 561Q223 562 201 622L193 621L186 626Q183 633 177 636L165 640Q160 640 156 636L158 608L168 602Q182 583 182 546Q182 543 178 520T174
490Q174 484 179 460T184 427L183 395Q180 313 187 298L192 294Q193 293 193 290Q193 259 187 246L190 235Q190 231 188 203Q186 194 182 180Q181 179 160 142L162 137L182 133L197 138L204 127Q234 121 243 120L246 118Q250 119 267 113L272 108L277 96Q273 84
254 66T230 36L232 30Q241 23 242 20V8Q238 2 223 -5Q217 -6 214 -6Q201 -6 179 3T156 12Q149 17 135 27Q133 28 126 31T113 36L108 42H104L101 46Q83 54 73 58H63Q56 61 42 74L43 88Q48 93 60 112L59 118Q65 132 65 186V194L62 198L61 202L62 206L68 211Q71 217
71 230Q71 238 69 264T67 299L62 310Q69 337 68 347L65 352V357Q66 360 68 374L66 381Q68 389 68 430L72 436Q70 436 61 437T49 438Q47 438 39 436T27 434Q25 434 19 436T10 438L6 447V451Q6 469 11 502Q6 501 50 501Q54 503 61 505L72 503L74 510Q68 518 68 549Q68
554 67 571T65 592Q62 598 51 609L40 614L34 622L30 636Q31 638 32 641T34 645L44 654H67Q92 654 131 668T184 699Q189 705 193 721L204 728H215Q217 728 228 725Q233 717 261 690T299 662T324 657L325 653L326 654H349Q374 654 413 668T466 699Q471 705 475 721L486
728H497Q499 728 510 725Q515 717 543 690T581 662T606 657Q607 649 608 643Q608 642 607 636L604 632Q592 624 558 603Q552 596 552 573Q549 566 540 562L535 561Q505 562 483 622L475 621L468 626Q465 633 459 636L447 640Q442 640 438 636L440 608L450 602Q464
583 464 546Q464 543 460 520T456 490Q456 484 461 460T466 427L465 395Q462 313 469 298L474 294Q475 293 475 290Q475 259 469 246L472 235Q472 231 470 203Q468 194 464 180Q463 179 442 142L444 137L464 133L479 138L486 127Q516 121 525 120L528 118Q532 119
549 113L554 108L559 96Q555 84 536 66T512 36L514 30Q523 23 524 20V8Q520 2 505 -5Q499 -6 496 -6Q483 -6 461 3T438 12Q431 17 417 27Q415 28 408 31T395 36L390 42H386L383 46Q365 54 355 58H345Q338 61 324 74L325 88Q330 93 342 112L341 118Q347 132 347
186V194L344 198L343 202L344 206L350 211Q353 217 353 230Q353 238 351 264T349 299L344 310Q351 337 350 347L347 352V357Q348 360 350 374L348 381Q350 389 350 430L354 436Q352 436 343 437T331 438Q329 438 321 436T309 434Q307 434 301 436T292 438L288 447V451Q288
469 293 502Q288 501 332 501Q336 503 343 505L354 503L356 510Q350 518 350 549Q350 554 349 571T347 592Q344 598 333 609L322 614L316 622L315 627Z" />
<glyph unicode="}" glyph-name="braceright" horiz-adv-x="554" d="M581 532Q582 514 558 488Q557 485 550 478L546 477L535 467L534 454Q540 443 544 429Q544 415 525 408H521Q515 408 509 410Q499 424 486 434H468Q461 434 451 432Q449 426 449 419Q449 413
451 405L448 398Q450 361 455 325V315Q455 291 454 270L450 269L452 265Q455 230 454 184Q455 182 455 174L452 166Q446 158 434 150L433 143L439 141L442 138Q444 140 463 132L487 134Q500 126 506 127Q507 128 516 128Q526 128 533 124L541 113L539 96Q534 87
514 68T492 42V33L498 25Q500 15 499 9L493 -1L482 -6H477Q468 -6 448 4T423 15L421 19Q408 24 386 37L384 43Q381 44 370 48Q366 53 325 67L309 94L314 106L320 111Q319 119 324 131Q321 164 329 205L334 206V212L328 228Q331 234 331 277Q331 283 338 301L337
309L339 314V321L333 327V368Q334 370 335 377L332 390Q336 400 333 408L336 415L334 428L324 432Q301 432 287 429L282 437V471Q282 477 279 484L281 496L284 500L290 502L310 500L314 497Q327 497 335 504V525Q335 592 310 608L305 621Q297 616 276 603Q270 596
270 573Q267 566 258 562L253 561Q223 562 201 622L193 621L186 626Q183 633 177 636L165 640Q160 640 156 636L158 608L168 602Q182 583 182 546Q182 543 178 520T174 490Q174 484 179 460T184 427L183 395Q180 313 187 298L192 294Q193 293 193 290Q193 259 187
246L190 235Q190 231 188 203Q186 194 182 180Q181 179 160 142L162 137L182 133L197 138L204 127Q234 121 243 120L246 118Q250 119 267 113L272 108L277 96Q273 84 254 66T230 36L232 30Q241 23 242 20V8Q238 2 223 -5Q217 -6 214 -6Q201 -6 179 3T156 12Q149
17 135 27Q133 28 126 31T113 36L108 42H104L101 46Q83 54 73 58H63Q56 61 42 74L43 88Q48 93 60 112L59 118Q65 132 65 186V194L62 198L61 202L62 206L68 211Q71 217 71 230Q71 238 69 264T67 299L62 310Q69 337 68 347L65 352V357Q66 360 68 374L66 381Q68 389
68 430L72 436Q70 436 61 437T49 438Q47 438 39 436T27 434Q25 434 19 436T10 438L6 447V451Q6 469 11 502Q6 501 50 501Q54 503 61 505L72 503L74 510Q68 518 68 549Q68 554 67 571T65 592Q62 598 51 609L40 614L34 622L30 636Q31 638 32 641T34 645L44 654H67Q92
654 131 668T184 699Q189 705 193 721L204 728H215Q217 728 228 725Q233 717 261 690T299 662T324 657Q325 653 326 643Q339 641 343 642Q370 631 392 597L389 605L391 609Q421 689 466 695Q477 695 486 696L504 679L508 661L497 643Q485 639 471 623T453 594L454
586Q447 559 447 519V499Q454 498 478 498Q503 498 516 511Q525 527 532 547L541 556L555 560L565 558Q575 554 580 544Q581 537 581 532Z" />
<glyph unicode="~" glyph-name="asciitilde" horiz-adv-x="464" d="M397 708L392 694Q369 668 310 631L308 624L309 615L304 601Q296 590 283 587Q271 589 246 604L239 603L227 608H223Q216 612 209 612Q196 622 186 620L182 623H174Q170 626 160 626Q147 626
92 586L83 585L74 588L68 595L66 605Q69 622 99 644Q115 655 145 676L154 690Q154 690 152 708Q154 721 163 730L173 733Q185 732 205 722T237 710L240 702V695Q248 696 256 696Q263 700 268 700Q291 691 307 691Q321 691 344 706T377 723L388 721L397 708Z" />
</font>
</defs>
</svg>
