<?xml version="1.0" standalone="no"?>
<!DOCTYPE svg PUBLIC "-//W3C//DTD SVG 1.1//EN" "http://www.w3.org/Graphics/SVG/1.1/DTD/svg11.dtd" >
<svg>
<metadata>
Created by FontForge 20090914 at Fri Feb 24 04:17:57 2012
 By root
Crusades&#194;&#169; Fontsmith. 1999. All Rights Reserved
</metadata>
<defs>
<font id="Crusades" horiz-adv-x="682" >
  <font-face 
    font-family="Crusades"
    font-weight="400"
    font-stretch="normal"
    units-per-em="2048"
    panose-1="2 0 0 0 0 0 0 0 0 0"
    ascent="1638"
    descent="-410"
    x-height="940"
    cap-height="1450"
    bbox="-317 -845.443 2349.13 2380"
    underline-thickness="48"
    underline-position="-140"
    unicode-range="U+0020-U+F002"
  />
<missing-glyph horiz-adv-x="500" 
d="M256 0v1280h1024v-1280h-1024zM288 32h960v1216h-960v-1216z" />
    <glyph glyph-name=".notdef" horiz-adv-x="500" 
d="M256 0v1280h1024v-1280h-1024zM288 32h960v1216h-960v-1216z" />
    <glyph glyph-name=".null" horiz-adv-x="0" 
 />
    <glyph glyph-name="nonmarkingreturn" horiz-adv-x="390" 
 />
    <glyph glyph-name="space" unicode=" " horiz-adv-x="390" 
 />
    <glyph glyph-name="exclam" unicode="!" horiz-adv-x="352" 
d="M44 1322q-12 -43 -8 -78v-344v-171l30 -20l-34 -30v-130v-110q20 -55 59 -82q78 -20 137 20q20 39 24 70v686l-37 40l34 3v102l-24 72q-48 43 -103 35q-51 -20 -78 -63zM60 220q-44 -12 -63 -47l4 -63q27 -28 59 -36q86 -145 156 -3q79 23 71 102q-27 43 -71 51
q-19 66 -86 70q-59 -23 -70 -74z" />
    <glyph glyph-name="quotedbl" unicode="&#x22;" horiz-adv-x="659" 
d="M369 1351q-43 -12 -62 -47l4 -63q27 -27 58 -35q87 -564 157 -4q79 24 71 102q-27 43 -71 51q-19 67 -86 71q-59 -24 -71 -75zM67 1345q-43 -11 -62 -47l3 -62q28 -28 59 -36q87 -563 157 -4q79 24 71 102q-28 43 -71 51q-19 67 -86 71q-59 -24 -71 -75z" />
    <glyph glyph-name="numbersign" unicode="#" horiz-adv-x="1455" 
d="M520 1350q-8 -48 23 -75q0 -35 -2 -64q0 -4 -2 -15l-2 -14q0 -13 -2 -24.5t-4 -32.5q0 -14 -2 -37l-6 -4h-30l-6 -2l-6 2h-17l-4 -2l-39 2l-5 -4l-2 -17q0 -13 -2 -15v-6l-2 -14q-4 -27 -4 -46l8 -2q52 37 109 43l4 -4v-8l2 -27l-2 -19l4 -12l-2 -9q2 -29 -2 -48l-17 -2
h-29l-23 -2h-75l-4 -2l-62 2q-19 0 -34 -4h-79l-23 -2h-60l-15 -2l-14 -4q-29 -8 -46 -19q60 -25 119 -23l6 -2h50q33 -6 52 15q8 -11 21 -13l95 -2l7 -2l131 -2q2 -29 16 -46q-4 -6 -9 -10t-7 -9l2 -29l2 -8l-2 -10l2 -11v-150h-23l-10 2q-38 -6 -63 -2q-54 -4 -16 73
l-7 13q29 14 36 45l-7 3h-20l-7 -3l-14 -2l-19 -4q-19 0 -33 -4l-2 -6q2 -17 -2 -29l2 -4l2 -61q-2 -12 0 -23l-29 -2q-9 -2 -23 -4q-9 2 -15 0l-81 -2l-6 -2l-42 -2q-27 37 -71 27q-41 -23 -35 -67q13 -23 33 -35q48 -8 75 23l65 -2q4 0 14 -2l15 -2q12 0 23.5 -2.5
t32.5 -4.5q15 0 38 -2l4 -6v-29l2 -6l-2 -7v-16l2 -11q-2 -21 -2 -33l4 -4h6l13 -2q50 -9 81 -6v6q-38 52 -44 108l4 4q27 4 46 0q44 8 77 -2l4 -162l2 -6v-61q6 -8 13 -12l-15 -17v-50q-2 -17 2 -31l-2 -4l2 -13v-41l13 -42q4 -19 10 -31l4 4l9 21l2 10l10 36l4 185l2 14
v13l-2 6v50l2 10v84l2 16v25q30 -2 48 15q6 -4 10.5 -9.5t14.5 -7.5q25 4 42 2l16 2h107q25 4 45 -2v-12q2 -27 -2 -48q4 -31 -4 -54q-64 10 -108 43q-6 0 -8 -2v-6q0 -17 4 -29q0 -21 4 -35q0 -19 6 -32h9l27 3l10 -3q37 3 62 -2v-12l2 -8l3 -28v-16l2 -8q2 -13 4 -32v-14
l2 -7v-14q4 -27 2 -46q-31 -37 -23 -79q23 -37 62 -33q32 12 42 43q2 42 -29 63l2 25l2 23v43l2 13v29l2 6l2 44l2 13h7l10 -3q29 -2 48 3q33 -7 58 0q4 16 4 29l2 8v8l5 13q0 18 4 33q-4 6 -9 8q-31 -10 -39 -35l-15 6q-33 -16 -66 -14l-4 4q2 14 -1.5 25.5t-0.5 30.5v13
l-3 4q7 23 3 41q18 7 33 4h73l23 3h29l6 2h62q7 4 11 12l16 -14l82 2q74 -5 131 25q-13 6 -34 10q-12 6 -20 8l-5 2l-12 2l-160 3l-15 2l-12 2h-25q-32 -4 -54 0h-84l-14 2h-38l2 6q-4 31 -2 52l-6 204q0 10 -6 19l8 2h40l6 2l12 -4q25 4 44 0q8 0 15 -4q-11 -65 -44 -109
l2 -8h6q17 0 29 4q21 0 36 4q19 0 31 7v8l-2 27l2 10q-2 38 2 63h13l8 2l27 2h17l8 2q12 2 31 4h15l6 2h15q27 4 45 2q38 -31 79 -23q75 63 -10 105q-42 2 -62 -30l-25 2l-23 3h-44l-12 2h-30l-6 2l-44 2l-12 2v6l2 11q2 29 -2 47q6 34 0 59q-17 4 -29 4l-9 2h-8l-12 4
q-19 0 -34 4q-6 -4 -8 -8q10 -31 35 -40l-6 -14q17 -33 15 -67q-36 -10 -69 -6l-12 2q-25 -2 -42 0v33l-2 15v67q0 14 -2 24l-2 179l-2 17v63q-9 45 -25 74q-7 -12 -9 -20l-4 -17l-2 -4l-8 -38q0 -25 -2 -41v-92l14 -14q-10 -9 -12 -21v-48l-2 -13v-12q0 -19 -2 -33
q2 -13 0 -23v-63q-2 -23 -2 -37q-30 -6 -50 -4l-98 -2l-23 -2l-100 -3l-2 15l2 31q-8 42 2 77q21 17 69 -8l12 6q15 -29 46 -35l2 6v21l-2 6l-2 15l-4 18q0 19 -4 34q-5 2 -15 0q-21 4 -37 2l-9 -2q-37 4 -62 0l-2 29q-2 8 -4 23q2 8 0 14l-2 81l-3 7l-2 41q38 27 27 71
q-22 42 -66 35q-23 -12 -36 -33zM845 828h42l-7 -11v-137l-2 -14v-13q0 -19 -2 -33q13 -13 17 -25l-15 -11q2 -29 -2 -48q-12 11 -27 11q-6 2 -12 0l-15 2h-79l-8 2q-31 -2 -52 2l-92 2l6 11v6q0 17 3 27v48q-3 29 2 48v50l2 6v79q6 2 10 0l13 2l4 -2h129l6 -2l6 2l4 -2
l34 -2l18 16q13 -4 17 -14zM564 832q-14 -4 -27 0h27zM935 482q-15 -4 -27 0h27z" />
    <glyph glyph-name="dollar" unicode="$" horiz-adv-x="1067" 
d="M479 2159q-5 -82 34 -146l-4 -26l-5 -39l-4 -47v-30l-4 -13q-4 -47 -9 -86v-30q-13 -64 -8 -107q-26 -9 -43 -5l-168 5l-8 -9v-13l-9 -43v-13q-8 -64 -8 -107l12 -4l134 51l68 9q22 -13 35 -26l-5 -8q5 -35 -4 -65q-292 -86 -296 -356q4 -9 8 -30v-30l30 -99l9 -9l30 -51
q13 -13 17 -26q69 -73 95 -94l120 -91l4 -25v-116q0 -65 -4 -108v-116q8 -30 4 -55q9 -65 -4 -112q-180 -13 -262 129q-60 146 39 300l-5 17l-21 -4h-65l-17 4l-13 -4h-86v-26l9 -30v-73q4 -38 -4 -68q4 -189 -86 -331h26q55 -9 94 -4l65 4q-13 21 -5 43q172 -86 344 -64
q-17 -61 30 -86q-22 -18 -30 -39q-5 -34 0 -56v-107q4 -47 0 -82q47 -245 111 -21v111l5 30v146l4 31v77l13 8q99 13 172 61q305 214 133 536l-52 9q26 56 -56 107q-25 142 -158 129q-13 -4 -22 4l4 318q-4 60 5 99q171 -129 86 -387l17 -8l34 8l13 -4l34 4q39 -4 69 0v48
q-9 55 -9 94l-4 103q0 65 9 108l8 51l5 13q8 60 30 99q-65 8 -116.5 -4.5t-51.5 -77.5q-56 60 -124 82q8 64 4 107q64 22 129 9l17 21q34 -64 94 -69l-8 172l-26 -4l-133 4q-52 -4 -90 13l-5 210l-4 13l-4 168q60 51 56 120q-22 60 -73 82h-48q-68 -22 -98 -73zM492 1235
v-304q-39 42 -86 34l21 34q-64 163 60 262zM646 136q-17 -8 -13 26l13 13v129q0 34 4 60v129l18 8q227 -202 -22 -365z" />
    <glyph glyph-name="percent" unicode="%" horiz-adv-x="1365" 
d="M1210 1353q-20 -35 -14 -66l-72 -69q-14 -9 -20 -17l-106 -89q-20 11 -31 26q-15 8 -26 23q-32 34 -60 48l-9 -8q-9 -3 -11 -6q-18 -17 -43 -37q-26 -17 -38 -29q0 -11 9 -14q86 -17 146 -63q-14 -20 -26 -32l-17 -20q-17 -14 -26 -29l-48 -48q-15 -9 -26 -23l-6 -6
l-14 -17q-6 -3 -15 -15q-14 -20 -28 -31q5 -17 0 -32q-49 -6 -72 -46l-26 -28l-14 -15q-9 -8 -20 -23q-23 -20 -35 -37l-54 -54q-12 -18 -26 -26q-9 -17 -20 -26q-23 -20 -35 -37q-17 -15 -28 -32l-20 -20q-9 -11 -18 -17q-14 -20 -28 -32l-15 -17l-43 -46q-8 -14 -17 -23
l-17 -20q-23 -23 -37 -43l-3 -20h-26l-23 -26l-9 -8l-8 -9l-60 -63q-15 -20 -29 -32l-3 -8q-32 -49 -43 -89q17 6 26 14l20 9l40 23l14 14q20 17 32 32q23 17 49 45q20 18 31 35l9 6l14 17l46 37l6 9l57 63l9 6l112 109q14 14 17 20q20 11 31 25q43 41 55 58l155 155
q43 37 66 66l11 11q18 17 30.5 27t18.5 19q29 23 43 40l9 9l14 11l23 26q3 3 11 12l15 17l17 17q26 14 40 34q17 -8 26 -20l6 -5l8 -20q15 -21 20 -38l18 -5q-12 -38 5 -66q6 -9 18 -6l31 46l3 5q29 29 37 58l-5 8q-23 18 -32 32l-17 11l-3 6q-35 37 -63 55l11 17l38 43l5 9
l26 25q14 18 20 29l9 6l11 14l15 17l14 15l3 5q14 15 23 29q57 -11 89 35q34 106 -75 111q-31 -11 -52 -31zM106 928q12 -109 98 -160l8 17q9 -17 12 -35q43 -20 80 -20q232 6 238 233q-43 203 -235 203q-209 -43 -201 -238zM450 989q18 -3 29 -3l-6 -6l-17 -14
q0 -109 -89 -155q-106 -26 -158 66q-34 86 9 157l-11 29q17 0 28 -6q35 29 69 38q115 -3 146 -106zM665 286q12 -109 98 -161l9 17q8 -17 11 -34q43 -20 80 -20q233 6 238 232q-43 204 -235 204q-209 -43 -201 -238zM1010 346q17 -3 28 -3l-5 -6l-18 -14q0 -109 -89 -155
q-106 -26 -157 66q-35 86 8 158l-11 29q17 0 29 -6q34 29 68 37q115 -3 147 -106z" />
    <glyph glyph-name="ampersand" unicode="&#x26;" horiz-adv-x="1187" 
d="M418 1398q-54 -4 -92 -17q-401 -205 -138 -585l-25 -42q-12 -67 -71 -101q0 -25 13 -41q-34 -9 -51 -9q-71 -129 -54 -263q75 -264 318 -310l8 -8q21 0 34 -5q33 -8 58 -8q42 4 72 -4h46l20 4h34l13 4l25 -4l25 4q33 13 62 13l17 12l17 -8l-4 -29q-17 -38 -17 -71l-8 -26
h16l26 9l92 17l29 4l4 21q-8 46 -4 113q-4 41 0 71l4 92l17 63q-4 100 8 163q21 21 42 33h13l33 9h54l17 -5h25q50 -8 84 -8v13l-4 21l-13 46l-4 8q-8 46 -21 75l-29 -4l-25 -8q-38 0 -67 -13h-42q-13 0 -17 -4l-96 -4l-8 4l-26 -25l-20 33h-13l-25 9h-13l-29 4
q-54 12 -92 12q4 -25 0 -41v-17l4 -29v-76q59 0 101 -25q41 -92 29 -180q-21 34 -42 55q-4 8 -21 29l-33 38q-17 25 -34 41q-17 26 -50 63q-17 25 -34 42l-62 80q322 188 293 502q0 29 -9 46q-121 217 -347 221zM586 1068q-34 -55 -9 -105q-12 4 -26.5 4t-27.5 -8
q-92 -88 -192 -121q-17 25 -38 29l-4 8q-51 63 -71 134q-9 226 188 268q188 -21 180 -209zM423 515l33 -37l17 -21q25 -34 42 -50l8 -13l25 -29l21 -25l17 -21l54 -67q34 -46 67 -76q-243 -159 -452 59q-88 159 67 280q50 -4 88 17z" />
    <glyph glyph-name="quotesingle" unicode="'" horiz-adv-x="306" 
d="M62 1343q-43 -12 -63 -47l4 -63q28 -28 59 -35q86 -564 157 -4q78 23 71 102q-28 43 -71 51q-20 66 -86 70q-59 -23 -71 -74z" />
    <glyph glyph-name="parenleft" unicode="(" horiz-adv-x="571" 
d="M531 1545v-144q-100 -52 -181.5 -165t-109.5 -237l-75 -15l61 -47l-74 -15q61 -47 55 -148q87 -99 1 -186v-29l5 -40q0 -54 35.5 -183t112 -222t170.5 -150v-144q-317 186 -410 424l19 75l-56 -7q-45 105 -58 273q-90 100 -1 191q-1 213 136 442t370 327z" />
    <glyph glyph-name="parenright" unicode=")" horiz-adv-x="604" 
d="M-32 -185l3 143q102 51 186 162t114 234l75 14l-60 48l75 13q-60 49 -52 150q-85 100 3 186l1 29l-4 39q1 55 -31.5 184.5t-107 224.5t-167.5 153l-34 17v148l44 -21q306 -193 394 -433l-21 -74l56 5q43 -105 53 -274q87 -101 -4 -190q-3 -213 -145.5 -439t-377.5 -319z
" />
    <glyph glyph-name="asterisk" unicode="*" horiz-adv-x="968" 
d="M763 1237q-34 29 -74 26l-50 -38q-8 -38 3 -68q-422 -384 84 -133q63 -53 124 -3q20 47 3 87q45 54 11 111q-52 36 -101 18zM369 1351q-43 -12 -62 -47l4 -63q27 -27 58 -35q87 -564 157 -4q79 24 71 102q-27 43 -71 51q-19 67 -86 71q-59 -24 -71 -75zM879 830
q7 44 -17 76l-59 22q-36 -14 -56 -39q-550 152 -68 -142q-11 -81 64 -106q51 8 76 44q69 -9 99 50q3 63 -39 95zM100 662q30 -34 71 -35l54 32q12 37 5 68q463 333 -68 142q-57 59 -123 17q-26 -44 -13 -86q-51 -48 -24 -109q47 -42 98 -29zM54 1123q-17 -42 0 -78l53 -34
q39 6 63 26q506 -264 97 124q27 78 -41 118q-51 3 -83 -27q-65 24 -108 -28q-16 -61 19 -101zM553 512q43 14 61 50l-7 63q-29 26 -60 32q-112 559 -157 -3q-78 -27 -66 -105q29 -42 73 -48q22 -66 89 -66q58 26 67 77z" />
    <glyph glyph-name="plus" unicode="+" horiz-adv-x="1097" 
d="M431 1144q-56 -12 -68 -64q8 -64 60 -88l20 -28v-200l-12 -4h-44q-96 -4 -156 8q-16 16 -24 36t-24 32q-28 12 -52 12q-60 -20 -68 -76q-80 -28 -68 -108q32 -40 72 -52q12 -56 64 -68l48 8l20 20q20 32 44 48l16 4h180l4 -8v-104q16 -16 36 -20q-44 -16 -40 -88
q-148 -104 -4 -164q40 -92 128 -60q28 32 36 60q56 12 72 64q-4 32 -12 56l-12 12q-36 16 -56 32l-4 8l-8 24v184q24 8 40 4h176l28 -20q28 -56 84 -56q56 20 64 68q80 36 68 112q-24 36 -64 48q-16 56 -68 76q-72 -8 -88 -68l-20 -16q-52 -12 -96 -8l-16 -28l-16 28h-88
l-4 8v192l4 8q40 40 72 60q12 28 12 52q-20 60 -76 68q-28 80 -108 68q-40 -32 -52 -72z" />
    <glyph glyph-name="comma" unicode="," horiz-adv-x="317" 
d="M57 202q-43 -12 -62 -47l4 -63q27 -27 58 -35q-118 -486 157 -4q79 24 71 102q-28 43 -71 51q-19 67 -86 71q-59 -24 -71 -75z" />
    <glyph glyph-name="hyphen" unicode="-" horiz-adv-x="1079" 
d="M514 770l-64 2l-12 -4h-44q-96 -4 -156 8q-16 16 -24 36t-24 32q-28 12 -52 12q-60 -20 -68 -76q-80 -28 -68 -108q32 -40 72 -52q12 -56 64 -68l48 8l20 20q20 32 44 48l16 4h180q164 4 180 0h176l28 -20q28 -56 84 -56q56 20 64 68q80 36 68 112q-24 36 -64 48
q-16 56 -68 76q-72 -8 -88 -68l-20 -16q-52 -12 -96 -8l-16 -28l-16 28l-117 4z" />
    <glyph glyph-name="hyphen" unicode="&#x2010;" horiz-adv-x="1079" 
d="M514 770l-64 2l-12 -4h-44q-96 -4 -156 8q-16 16 -24 36t-24 32q-28 12 -52 12q-60 -20 -68 -76q-80 -28 -68 -108q32 -40 72 -52q12 -56 64 -68l48 8l20 20q20 32 44 48l16 4h180q164 4 180 0h176l28 -20q28 -56 84 -56q56 20 64 68q80 36 68 112q-24 36 -64 48
q-16 56 -68 76q-72 -8 -88 -68l-20 -16q-52 -12 -96 -8l-16 -28l-16 28l-117 4z" />
    <glyph glyph-name="period" unicode="." horiz-adv-x="362" 
d="M70 222q-64 -20 -68 -80q8 -64 64 -72q36 -84 116 -64q36 28 48 64q64 16 68 76q-8 68 -72 76q-28 80 -108 68q-40 -28 -48 -68z" />
    <glyph glyph-name="slash" unicode="/" horiz-adv-x="1418" 
d="M137 28q20 35 14 66l72 69q14 9 20 17l106 89q20 -12 31 -27q15 -8 26 -23q32 -34 60 -48l9 8q9 3 11 6q18 17 43 37q26 17 38 29q0 11 -9 14q-86 17 -146 63q14 20 26 32l18 20q17 14 26 29l48 48q15 9 26 23l6 6l14 17q6 3 15 15q14 20 28 31q-5 17 0 32q49 6 72 46
l26 28l14 15q9 8 20 23q23 20 35 36l54 54q13 18 27 26q9 17 20 26q23 20 35 37q17 15 28 32l20 20q9 11 18 17q14 20 28 32l15 17l43 46q8 14 17 23l17 20q23 23 37 43l3 20h26l23 25l9 8l8 9l61 63q15 20 29 32l3 8q32 49 43 89q-17 -6 -26 -14l-20 -9l-40 -23l-14 -14
q-20 -17 -32 -32q-23 -17 -49 -44q-20 -18 -31 -35l-10 -6l-14 -17l-46 -37l-6 -9l-57 -63l-9 -6l-112 -109q-14 -14 -17 -20q-20 -11 -31 -25q-43 -41 -55 -58l-156 -154q-43 -37 -66 -66l-11 -11q-18 -17 -30.5 -27t-18.5 -19q-29 -23 -43 -40l-9 -9l-14 -11l-23 -26
q-3 -3 -11 -12l-15 -17l-17 -17q-26 -13 -40 -33q-17 8 -26 20l-6 5l-8 20q-15 21 -20 38l-18 5q12 38 -5 66q-6 9 -18 6l-31 -46l-3 -5q-29 -29 -37 -58l5 -8q23 -18 32 -32l17 -11l3 -6q34 -37 62 -55l-11 -17l-38 -43l-5 -9l-26 -25q-14 -18 -20 -29l-9 -6l-11 -14
l-15 -17l-14 -15l-3 -5q-14 -15 -23 -29q-57 11 -89 -35q-34 -106 75 -111q31 11 52 31z" />
    <glyph glyph-name="zero" unicode="0" horiz-adv-x="1089" 
d="M212 995q7 -14 14 -22h-40q-113 -153 -131 -321q-66 -73 -55 -164q22 -48 55 -77q11 -98 65 -171l22 -4q-7 -22 -7 -40q391 -431 756 0q3 22 -4 40l22 4q55 80 62 168q117 124 7 226l-14 58q-29 165 -124 281h-37l15 19q-124 149 -311 157q-189 -26 -295 -154zM788 616
q15 -172 -40 -307q4 -18 15 -33q-29 -4 -48 -18q-204 -325 -401 -4q-26 22 -51 22q14 15 14 33l-7 15l-18 58l-4 22l-3 62l-4 7l7 150q11 201 128 336q62 44 131 58q252 -51 281 -401z" />
    <glyph glyph-name="one" unicode="1" horiz-adv-x="680" 
d="M345 1161q-49 -7 -79 -31l-11 4l-18 -4l-108 -7q-27 4 -49 -7l-3 -14q0 -21 -4 -24v-46q-3 -24 -3 -42q76 0 115 53q31 -24 49 6l17 -3q7 -14 15 -45v-25q-8 -35 -5 -59v-49q0 -41 -3 -70q-18 -21 -38 -27q-136 150 -164 3q-73 -24 -56 -97q24 -32 59 -43q78 -86 143 14
q21 4 35 -5t21 -22q0 -22 -3 -35v-133q-4 -42 28 -59q-22 -18 -4 -32l-7 -7l-21 -14q24 -209 -70 -195l-14 -24q-10 17 -10 35q-60 35 -105 35l-3 -11l3 -21l10 -59q0 -32 11 -53l11 -3h87l14 3l11 -3l70 3q38 -38 83 -52q66 14 105 52h139q25 0 63 4q7 14 7 25q0 38 7 62
q3 35 -3 59l-70 -27q-73 -49 -129 -25l-8 14q-6 32 -3 81q3 38 -3 62v172q35 51 41 108q-3 62 -38 107v262l42 63l-4 52q-21 25 -41 35q-35 63 -102 63z" />
    <glyph glyph-name="two" unicode="2" horiz-adv-x="1136" 
d="M628 1135q-126 -11 -215 -70l-8 7q-4 34 -15 60h-78l-29 -4q-15 4 -26 0v-11q14 -37 18 -67q11 -30 19 -78l3 -22q4 -23 4 -38l8 -26l3 -52v-96q-3 -45 -3 -74l22 -8l22 4l93 -8q7 8 4 19q-67 123 -30 241q-4 19 -19 34q26 0 41 -4q179 164 316 -22q111 -197 -111 -353
l-15 -11l-23 -15l-7 -4q-19 -18 -37 -29l-45 -38l-15 -11l-14 -15q-34 -18 -52 -37l-8 -7l-33 -26l-11 -11l-41 -30l-26 -26l-11 -7l-45 -41q0 -30 -11 -52q-22 7 -41 7l-11 -15l-15 -11q-19 -11 -33 -30l-8 -7q-26 -19 -41 -37l-104 -100v-15h19l11 3l74 38q41 22 71 29
l15 8l182 63l7 4q15 0 34 7q29 7 48 7l26 8l134 7l7 4h26l11 -4q41 0 71 -7q29 4 44 26q11 -19 15 -37q152 -52 152 -197q-48 -164 -289 -112v-26l-4 -11v-96h33l15 3h19q30 8 52 8h33l15 4h15q67 14 111 14q19 12 30 30l15 -33h11q37 3 63 11q19 -4 30 0l26 -4l-4 82
q4 30 -7 52q-45 -4 -74 0l3 11q11 33 15 59q-37 428 -524 376l26 26l8 3q18 19 30 26q18 11 26 23l14 3q41 30 56 34l8 7l78 48q22 12 37 23l48 26l11 11l19 11q48 30 70 52l-7 30q22 15 44 11q93 134 38 267q-112 242 -402 212z" />
    <glyph glyph-name="three" unicode="3" horiz-adv-x="964" 
d="M420 1085l-19 50h-29q-57 3 -95 -8v-11l38 -90l4 -15l3 -16l23 -100l4 -24v-29l3 -16v-15q8 -26 8 -48q7 -34 7 -60q8 -11 19 -11l42 3l11 4q30 0 49 7q-64 207 48 312l34 4q31 -11 45 -22l31 -53q22 -184 -31 -334l-3 -34q131 -241 -98 -399q-237 -162 -345 38
q-23 135 22 244l-11 4l-31 -11l-64 -11q-22 -5 -40 -16l3 -169l-3 -12q0 -40 -12 -67l-4 -26v-15q0 -23 -7 -38l-8 -23v-14q-15 -31 -19 -57l11 -8h19l26 5l84 3q7 23 7 45q106 -90 180 -22q11 -19 16 -34q251 3 421 150q3 42 -5 72q31 -16 53 -16q188 260 15 433l4 15
q7 37 18 64l12 83l-23 26l23 14q-12 113 -71 196q-102 113 -244 105q-72 -11 -121 -53z" />
    <glyph glyph-name="four" unicode="4" horiz-adv-x="1227" 
d="M7 1024q149 39 273 -21q39 -26 22 -75.5t-74 -132.5q-228 -305 14 -497q29 3 46 18q7 -28 14 -42q212 -40 362 138l24 13v-91q0 -33 -3 -57v-43l-7 -6q-25 -15 -43 -40q-6 -32 -6 -56q27 -54 78 -75q81 -117 177 4q46 11 70 49q4 81 -56 121q-8 46 0 85q-22 14 -35 28
l32 29v213l3 27l6 26q18 20 37 25q88 -124 159 -32q75 18 67 88q-21 39 -57 57q-46 153 -145 0q-24 -3 -43 0q-18 18 -24 38v40q3 46 0 49v121l17 24q36 -24 58 -3q56 -53 127 -64l3 8v56q-6 29 -11 75l-10 6l-22 5h-106q-28 -5 -53 0.5t-38 13.5q-51 39 -104 32
q-49 -22 -78 -54l-3 -10l3 -11q-11 -32 -6 -60q6 -21 21 -35v-15l3 -39v-29q-11 -38 -3 -70l-4 -29l-14 -31q-22 -18 -46 -18q-75 103 -142 7q-71 -36 -63 -103q20 -46 63 -49q78 -89 145 10q21 4 40 0q10 -18 13 -35q-105 -249 -333 -163l-3 10q-43 43 -61 96v31l18 89
q21 43 21 82l14 14q43 149 56 226q32 21 57 28v25l15 89q-8 3 -21 0l-11 3l-15 -3q-52 3 -89 0q-14 -28 -17 -50l-7 7q-11 21 -22 35h-32q-28 8 -49 8l-32 3q-25 0 -57 7h-38q-21 8 -40 8q-38 -64 -35 -128z" />
    <glyph glyph-name="five" unicode="5" horiz-adv-x="1181" 
d="M299 1117l-41 3h-52q-45 11 -83 5q-59 -177 19 -127q74 26 64 59q26 -26 60 -11l7 -3l19 -16l3 -15l4 -14l-4 -16v-138l-7 -59l-19 -26q-22 -8 -40 -4l-19 12q-42 74 -112 43q-18 -25 -26 -48q-150 -100 0 -164q82 -101 160 19q41 -30 45 -78q59 -19 93 22q45 -41 67 12
q15 -23 37 -26q71 145 213 145q126 -41 186 -145l30 -5l26 -6l-29 -57q59 -376 -302 -388l-16 4l-82 19q-175 146 -85 339l-8 4l-26 -4l-27 -7q-48 -5 -81 -23v-101q19 -171 -44 -313q3 -11 7 -14h14q8 3 16 0l26 3q25 0 67 4q11 30 11 59q149 -93 302 -71q287 0 410 243
q30 49 -4 97q19 11 37 11q8 201 -119 336q-101 122 -239 122q-133 27 -231 -48l-7 16l4 14v145q138 135 287 38q22 4 37 15q8 -23 8 -42l8 -7l40 -19q22 -14 45 -22q8 48 3 82l5 16q7 40 3 67l8 21l10 61q-63 14 -119 3q-11 -30 -14 -53q-142 79 -299 5q-53 96 -152 85
q-60 -18 -94 -59z" />
    <glyph glyph-name="six" unicode="6" horiz-adv-x="1024" 
d="M222 979q-4 -29 3 -53h-34l-18 -17l-3 -10l-17 -25l-4 -7q-25 -35 -35 -62l-14 -18l-21 -34l-10 -32q-21 -41 -25 -73q-93 -107 -6 -211v-10l14 -42q6 -32 21 -56q14 -45 35 -76l34 3q-21 -66 24 -111q115 -125 171 -76l24 -52q225 -80 406 24q135 66 181 191
q9 41 -26 56q32 10 35 38q-3 197 -128 326q-275 215 -465 -35q-132 -294 163 -406q32 11 48 27l8 15l31 7q65 76 -14 118q-38 129 -153 38q-21 0 -35 3q-21 29 -16 59q51 174 197 139q129 -52 163 -177q59 -277 -163 -357q-163 0 -267 166q0 18 -4 28h-62q21 17 27 35l-6 14
v10l-7 11v10q-14 41 -14 73l-18 45l4 11l3 79q14 201 139 331q80 107 195 141q226 25 194 -301l14 -4l27 4q45 6 74 3q6 10 6 17v18q4 27 0 45v59l-3 13l3 18l4 118l3 27l4 24q13 35 10 67l-97 -7q-13 -31 -13 -55q-80 59 -171 59q-13 -18 -17 -32q-25 45 -70 35
q-201 -35 -329 -166z" />
    <glyph glyph-name="seven" unicode="7" horiz-adv-x="1074" 
d="M605 1101q-134 70 -261 49l-24 -31l-17 20q-96 0 -166 -49l-7 8q-4 21 -14 35h-46l-11 -3q-32 6 -56 6q-3 -6 -3 -24l10 -14l22 -88l3 -28l7 -57l3 -39l4 -38v-102l4 -25q6 -10 14 -15h99l13 11q-117 331 170 346q193 -43 259 -205q0 -39 -9 -63q-22 -22 -50 -28
q-106 162 -148 14q-63 -35 -63 -95q21 -32 52 -39q81 -106 145 0l29 10q27 -17 44 -38v-123q0 -43 -3 -71l35 -31l-38 -36v-39q0 -52 -11 -87q-105 -127 28 -169q25 -71 96 -64q38 10 52 50q50 20 74 59q8 74 -38 124v35l3 17l-3 15l3 14v49q-3 39 0 63l3 95l-3 29l3 9
q-3 46 8 82q14 14 32 21q76 -138 151 -31q73 27 70 94q-24 36 -60 43q-56 140 -130 17l-25 -17q-28 6 -41 21q-11 25 -15 42l4 10v64q6 43 3 70q52 28 52 81q-49 95 -140 110q-74 -15 -113 -64z" />
    <glyph glyph-name="eight" unicode="8" horiz-adv-x="799" 
d="M198 1090q-18 11 -36 14q-245 -259 14 -522l-7 -7l-50 -28q-252 -317 43 -516q43 -32 68 4q3 -25 14 -39q199 -53 344 60q153 114 146 288q-96 274 -362 359q-71 43 -110 92l-43 -3q11 32 11 60q3 164 131 196q100 0 142 -82q43 -139 0 -256q-3 -18 0 -28h128v17
q0 29 4 50l3 107l4 7l3 71l7 25v35q11 25 7 46l8 8v10l21 71l-18 7l-14 -3l-82 -4l-7 -14q-18 -18 -28 -35q-118 85 -249 74q-75 -7 -92 -64zM418 454l21 -22q25 4 40 11l3 -7q-7 -25 -7 -43q110 -160 -75 -238q-199 -46 -281 89q-67 163 114 288z" />
    <glyph glyph-name="nine" unicode="9" horiz-adv-x="999" 
d="M7 873q17 -17 31 -24q-21 -14 -38 -17q3 -308 262 -425q173 -55 287 62q121 121 83 283l-7 14h-7q-24 73 -86 107q-87 93 -162 11l-21 -4q-69 -76 10 -124q11 -52 55 -73q28 0 52 7q52 52 97 10q-10 -169 -159 -186q-176 31 -207 224q-28 239 169 315q173 -7 266 -166
v-28l7 -3l55 3l-31 -27q131 -359 -117 -615q-111 -138 -259 -107l-25 3q-110 118 -76 294l-10 3q-10 -3 -14 -7l-103 -6l3 -177q0 -27 -3 -48v-48q-11 -31 -7 -55l-11 -45l-6 -21l6 -7h28q38 10 69 7q14 31 14 55q79 -59 166 -62l7 7l17 21l17 -28q232 10 380 169l-7 45
q17 4 35 -3q3 10 7 13l17 25q14 24 27 38q4 10 7 13l18 32q17 24 34 58q11 38 28 62l7 38q89 111 7 214l-4 25l-21 58l-3 7q-17 62 -48 100l-25 -3l14 45q-72 121 -186 155q-14 -10 -21 -20q-14 27 -14 48q-24 3 -41 14h-11l-58 17h-11l-20 7l-94 3q-300 -41 -369 -283z" />
    <glyph glyph-name="colon" unicode=":" horiz-adv-x="372" 
d="M99 872q-64 -20 -68 -80q8 -64 64 -72q36 -84 116 -64q36 28 48 64q64 16 68 76q-8 68 -72 76q-28 80 -108 68q-40 -28 -48 -68zM97 223q-64 -20 -68 -80q8 -64 64 -72q36 -84 116 -64q36 28 48 64q64 16 68 76q-8 68 -72 76q-28 80 -108 68q-40 -28 -48 -68z" />
    <glyph glyph-name="semicolon" unicode=";" horiz-adv-x="407" 
d="M113 870q-64 -20 -68 -80q8 -64 64 -72q36 -84 116 -64q36 28 48 64q64 16 68 76q-8 68 -72 76q-28 80 -108 68q-40 -28 -48 -68zM106 210q-43 -12 -62 -47l4 -63q27 -27 58 -35q-118 -486 157 -4q79 24 71 102q-28 43 -71 51q-19 67 -86 71q-59 -24 -71 -75z" />
    <glyph glyph-name="less" unicode="&#x3c;" horiz-adv-x="785" 
d="M556 1142l-24 -20q-60 -52 -84 -68l-28 -24q-12 -8 -16 -16l-64 -52l-28 -24l-24 -20l-36 -32l-8 -4q-28 -28 -52 -40q4 -32 -4 -60q-28 12 -48 16l-24 -20q-20 -12 -28 -24q-24 -16 -40 -32l-8 -4l-40 -32v-20q12 -8 28 -24l20 -16q24 -16 40 -32q12 -8 22 -14t14 -14
l20 -16l24 -20l8 -4l40 -32l8 -4q32 -32 80 -68l32 -28l16 -12l24 -20l64 -56l8 -4l48 -44l48 16q-24 -56 36 -88h12l84 84q28 32 48 48l-4 8q-20 0 -32 4q-48 4 -80 12q-248 108 -360 316v32q88 168 236 256q20 20 8 40l8 12q12 -16 24 -24l24 8q92 48 180 48l-8 16
l-124 124h-12z" />
    <glyph glyph-name="equal" unicode="=" horiz-adv-x="1112" 
d="M516 572l-64 2l-12 -4h-44q-96 -4 -156 8q-16 16 -24 36t-24 32q-28 12 -52 12q-60 -20 -68 -76q-80 -28 -68 -108q32 -40 72 -52q12 -56 64 -68l48 8l20 20q20 32 44 48l16 4h180q164 4 180 0h176l28 -20q28 -56 84 -56q56 20 64 68q80 36 68 112q-24 36 -64 48
q-16 56 -68 76q-72 -8 -88 -68l-20 -16q-52 -12 -96 -8l-16 -28l-16 28l-117 4zM516 960l-64 2l-12 -4h-44q-96 -4 -156 8q-16 16 -24 36t-24 32q-28 12 -52 12q-60 -20 -68 -76q-80 -28 -68 -108q32 -40 72 -52q12 -56 64 -68l48 8l20 20q20 32 44 48l16 4h180q164 4 180 0
h176l28 -20q28 -56 84 -56q56 20 64 68q80 36 68 112q-24 36 -64 48q-16 56 -68 76q-72 -8 -88 -68l-20 -16q-52 -12 -96 -8l-16 -28l-16 28l-117 4z" />
    <glyph glyph-name="greater" unicode="&#x3e;" horiz-adv-x="767" 
d="M188 207l24 20q60 52 84 68l28 24q12 8 16 16l64 52l28 24l24 20l36 32l8 4q28 28 52 40q-4 32 4 60q28 -12 48 -16l24 20q20 12 28 24q24 16 40 32l8 4l40 32v20q-12 8 -28 24l-20 16q-24 16 -40 32q-12 8 -22 14t-14 14l-20 16l-24 20l-8 4l-40 32l-8 4q-32 32 -80 68
l-32 28l-16 12l-24 20l-64 56l-8 4l-48 44l-48 -16q24 56 -36 88h-12l-84 -84q-28 -32 -48 -48l4 -8q20 0 32 -4q48 -4 80 -12q248 -108 360 -316v-32q-88 -168 -236 -256q-20 -20 -8 -40l-8 -12q-12 16 -24 24l-24 -8q-92 -48 -180 -48l8 -16l124 -124h12z" />
    <glyph glyph-name="question" unicode="?" horiz-adv-x="794" 
d="M217 1316q-13 26 -17 43l-5 9q-78 17 -138 4q-30 4 -52 0q17 -69 56 -113l5 -8l21 -83v-13l9 -21q0 -26 8 -48v-13l9 -34q-4 -13 50 -21l-50 -53l4 -13q-4 -9 -4 -30q0 -52 -4 -87q39 -13 73 -4l13 -5l126 -4l9 13q-104 152 -83 308q22 164 191 134q182 -61 182 -238
q-5 -39 -15.5 -71.5t-23.5 -50.5l-9 -30l-26 -43q-30 -65 -69 -109l-17 -22l-13 -21q-22 -26 -35 -47l-22 -22l-62 -117l50 -31l-66 -21q5 -108 100 -113q117 9 169 200q13 21 13 43q151 221 138 442q9 34 9 56q-9 22 -22 35q0 38 -8 64q-104 139 -243 195l-99 5
q-96 -5 -152 -65zM286 217q-64 -20 -68 -80q8 -64 64 -72q36 -84 116 -64q36 28 48 64q64 16 68 76q-8 68 -72 76q-28 80 -108 68q-40 -28 -48 -68z" />
    <glyph glyph-name="at" unicode="@" horiz-adv-x="1270" 
d="M270 909q-295 -70 -176 -267q21 -11 39 -14q36 0 36 36q65 -73 83 46q-36 65 -90 19q-11 3 -14 10q58 105 148 47q72 -104 -8 -176q-97 -76 -241 -62q-29 -14 -43 -39q-4 -29 0 -51q18 -32 39 -54q40 -148 -3 -278q-4 -29 3 -54q40 -50 101 -47q40 -28 83 -25l25 15
q18 36 18 64q29 36 65 33q29 -76 98 -65q65 -69 130 -7l3 14l1 1l34 132q-20 26 -53 47l-14 37l-8 162l4 14v33l4 25v65q0 11 3 14v11q18 43 26 76v25l-22 40l-61 68q-22 -7 -36 -3q3 21 3 36q-68 97 -133 111q-33 -14 -44 -39zM350 527l3 -170l4 -11v-93l-11 -26
q-25 -25 -50 -25q-76 61 -62 151l-28 29q28 36 36 76l25 22q47 32 76 65zM600 188q11 3 64 54.5t68.5 119t15.5 153.5l62 28l-62 29q0 144 -85 241.5t-146 131.5t-195 46q-260 -57 -354 -226t-94 -313t23 -235.5t107 -173.5l-17 -59l56 21q114 -78 315 -109
q164 -11 288.5 42.5t192.5 150.5h122q-56 -116 -209 -209.5t-386 -93.5q-327 0 -505 165.5t-178 440.5q0 277 175.5 484t493.5 207q259 0 417.5 -153.5t166.5 -399.5q-40 -222 -121.5 -309t-141.5 -120t-105 -43q28 110 32 130z" />
    <glyph glyph-name="A" unicode="A" horiz-adv-x="1437" 
d="M484 1192l-30 -1q-115 -145 -212 -331q-22 -40 -40 -62q-67 -40 -86.5 -83t5.5 -133q-22 -76 -36 -107l-4 -18l-27 -112v-14l-9 -22v-31q-9 -14 -9 -41l-9 -13v-23q-5 -44 -18 -76q-9 -58 -9 -98l18 -23h366l10 188v4q-139 -80 -251 -35l-4 9l4 14q0 22 5 53q9 27 9 50
l9 44l9 32l9 31l36 112l18 18q95 25 112 94l9 -4q71 22 134 -21v-71q-89 -21 -92.5 -93t79.5 -93q24 -68 83 -72.5t78.5 27t26.5 54.5q57 14 60 86.5t-83 88.5v65q12 49 157 47q23 -45 59 -67q58 -9 98 -9q27 -41 40.5 -70t44.5 -34q-18 -22 -6 -52q51 -136 47 -248l-5 -27
q-13 -9 -18 -18h-13q-63 18 -103 14q-9 18 -5 36l-27 9q-40 26 -71 35l22 -197h502v14q-36 348 -172 630.5t-306 478t-266 253.5q-168 -135 -139 -188zM533 1062l-9 -170q9 -14 23 -18l-23 -23q-9 -44 -35 -80q-67 -46 -117 -14l-18 32q45 143 166 282zM728 997
q114 -149 101 -195q-27 -27 -36 -54q-71 -9 -121 27l-4 14q-9 44 -5 80l-4 32q4 36 0 62l-8 115z" />
    <glyph glyph-name="B" unicode="B" horiz-adv-x="1243" 
d="M653 1924l-9 -25l-5 -17l-32 -106v-261q-5 -8 -5 -29q5 -59 -4 -97l-34 -3l-105 -5q-50 46 -105 59q-80 0 -127 -54l-16 -5l-211 -4v-143q-3 -34 5 -63q17 12 24 29q63 25 94 76q37 -17 75 -13l25 -21l9 -21v-176l-5 -46q9 -55 5 -94l12 -17l-8 -20q-38 -51 -55 -84
q5 -72 51 -118v-286l4 -25l-13 -34v-38q-8 -26 -8 -51q-21 -21 -34 -50q-12 -46 -4 -85q181 -184 307 -20q46 -17 84 -17l8 -9v-17l5 -8l4 -113q-12 -30 -12 -51l-38 -4q-68 25 -126 17q-30 67 -97 59l4 -26q4 -41 13 -71q0 -50 17 -93h55q32 0 54 4h12q51 -7 92 0h31v-55
l3 -15l17 -219q-3 -34 5 -64q-59 -46 -59 -118q63 -134 185 -63q76 97 -13 181l-4 22v25q26 251 21 299l17 3l206 9q4 12 9 34v29q3 59 12 92q25 80 -92 0q-76 -41 -147 -38l-5 30l5 13q-9 89 12 152q362 -5 421 310q17 177 -101 291l-25 -13l-31 63q-7 0 -29 13
q-25 12 -46 17l-66 25q100 17 163 59q50 58 9 114q33 12 58 16q30 160 -41 291q-148 118 -317 118l-7 3l-26 9q0 54 -30 93l22 21v303l-13 38q-13 58 -33 100h-14zM610 1263l-3 -38l3 -46l-3 -25v-80q0 -38 -5 -67q5 -63 0 -105l-46 29q-29 34 -63 51l8 -60q4 -50 9 -54
l12 -106q37 -8 71 0l9 -21q-9 -50 -4 -83l4 -22l-4 -21q0 -80 -5 -131v-134l-3 -8v-76q3 -55 -9 -92h-59q-21 58 -72 80l5 25v33q-8 63 -5 106l-12 29l4 8l8 26v163q5 85 -8 144l5 13l3 38v255q0 77 9 127q42 47 97 51zM900 1048q-12 -160 -163 -180l-4 17l-5 25l-4 46v114
q0 33 -4 58v127q172 -63 180 -207zM934 435q21 -161 -121 -207q-34 -13 -63 -17l-5 34l-4 67q-21 13 -30 30q9 21 26 33v131q0 12 -4 17v118l4 8v75q194 -97 197 -289z" />
    <glyph glyph-name="C" unicode="C" horiz-adv-x="1302" 
d="M587 2286v-13q-9 -40 -5 -71q18 -44 54 -76v-13q4 -49 -5 -80l5 -18l-5 -22q-4 -31 -9 -80l-9 -67q0 -75 -17 -128q-45 4 -76 -5l-18 5h-35l-9 -5l-85 5l-9 -14l-4 -31v-22l-4 -31l-5 -9v-18q-9 -44 -9 -75q0 -23 18 -23q111 76 227 94l13 -9v-31l4 -14q-8 -75 5 -129
q-31 -13 -62 0l-76 -31l-138 -89l-26 -22q-9 -35 -9 -66l-9 -9q-40 -18 -67 -36l-18 -22l-44 -71l-9 -9q-9 -22 -18 -36q-22 -44 -33 -75t-16 -58q-17 -40 -22 -71q-62 -85 -62 -178q13 -27 18 -49q26 -35 35 -66l31 -85q14 -71 40 -115h9q27 -14 49 -18q-4 -36 0 -62
q98 -129 222 -192q23 5 40 18q27 -80 183 -102q-5 -44 26 -62l-31 -36v-106q-4 -36 5 -67l-5 -9l5 -27v-89l26 -88q9 -40 23 -67l13 22q13 45 27 71q0 14 8 45l5 22v124l4 49l5 214q53 13 84 15t49 11q58 27 111 22l22 -35l5 -27l4 -31v-49l5 -13v-102q0 -40 -5 -71l49 -5
h156q-5 18 -18 13q-13 40 -36 63l-22 49l-18 57q-4 31 -17 49l4 9l-4 36q0 53 -9 89q-14 44 -36 66q-102 49 -191 -9q-31 -4 -53 -13q-49 0 -80 13q0 23 4 36l5 307l4 31v80q-9 22 -22 35q22 31 27 62q-5 45 0 76v133l4 31v80q0 14 4 18v187l5 9l4 120q200 -9 249 -191
q-9 -169 -98 -285h54l18 5l66 4h54l26 5l5 17l-5 71q-4 49 5 80v98q0 22 4 36v53q18 27 18 58l9 9q31 84 89 133q-27 0 -45 5h-106q-36 4 -67 -5l-5 -49q-115 71 -235 54q-22 22 -36 31l5 13q-9 84 13 151q45 5 80 -13q40 -5 71 -18l18 13q31 -62 98 -75l4 13v45l-4 13
l-5 31l-9 40q0 40 -8 71q-9 5 -32 0q-44 9 -80 5l-17 -5q-80 9 -134 0l-4 62q-5 18 -9 49q4 18 0 31l-4 174l-5 13l-4 89q80 58 57 151q-48 89 -142 76q-49 -27 -75 -72zM604 1238v-120q23 -14 32 -27q-18 -36 -36 -53l4 -36l5 -40l-5 -36q9 -35 5 -62l4 -253l-4 -27l4 -26
l-4 -14l4 -9v-151q9 -49 5 -84v-62q0 -27 4 -45q-9 -53 0 -89q-151 89 -222 231q-27 5 -40 18q-4 36 4 67l-31 89q-13 31 -17 53q44 44 57 98v40q-35 80 -31 155l-18 9l27 18q67 236 245 364z" />
    <glyph glyph-name="D" unicode="D" horiz-adv-x="1409" 
d="M412 1419q-43 -22 -64 -37h-77l-16 3l-13 -3h-124q-12 -14 -17 -26v-22l-8 -50l-4 -14v-34q-12 -33 -8 -63l51 22l98 46l3 9l9 25q29 -22 60 -8l29 -14l5 -17l4 -58l-4 -9v-68q8 -85 -26 -153l-55 -12q-17 93 -102 97q-81 -17 -72 -94q-85 -37 -75.5 -87t74.5 -73
q13 -85 92.5 -82t98.5 102q39 -12 60 -42l5 -22v-58q-5 -103 -5 -161q21 -35 43 -52l-26 -17q0 -34 -8 -46l-4 -34q-9 -52 -9 -86q-60 -50 -72 -114q12 -34 16 -56q26 -21 56 -24q170 -196 246 16q46 -42 102 -55q123 -21 220 39q26 0 48 7v31q24 -14 46 -17
q254 140 311 445q16 38 20 68q38 85 30 162q-30 110 -93 178l8 38q-217 527 -654 340q-64 106 -186 84zM938 1156q43 -4 72 -21l-8 -69l17 -37q5 -26 13 -43v-12l9 -26l3 -34l4 -9q0 -34 9 -60l-13 -29l-8 -34q0 -29 -4 -50q9 -48 21 -77q-5 -34 -5 -60q-21 -89 -7 -161
l-14 -17q-29 -21 -46 -42q-55 -178 -221 -204q-237 93 -191 360l-30 18l30 13v191q9 25 21 42q34 17 63 12q18 -37 22 -68q98 -84 148 26q64 22 89 77q-3 93 -92 101q-5 72 -69 81q-76 -4 -98 -76q-25 -5 -42 4l-21 22q-46 233 175 300q118 -21 173 -118z" />
    <glyph glyph-name="E" unicode="E" horiz-adv-x="1374" 
d="M571 1367l-27 22q-172 -48 -276 -169l5 -47q-26 -17 -57 -22l-8 -12l-22 -31l-61 -100q-3 -13 -8 -17l-9 -26q-17 -30 -34 -78q-14 -35 -26 -55q-14 -66 -43 -113q0 -39 -5 -69q17 -60 48 -96q12 -146 91 -251q26 5 47 0q-18 -103 78 -159q86 -109 164 -69q8 -17 8 -31
q252 -117 477 -17l51 -9l21 -31q0 -43 9 -72l5 -48q-5 -17 -5 -48q0 -65 10 -108l8 -12l18 3l17 5l17 -5h138l-13 35q-99 139 -95 290l-13 26q-17 43 -43 70q-61 25 -113 21q-398 -143 -544 229q-17 13 -35 13q4 43 -13 78q-57 121 95 108q4 21 13 35q17 -40 108 -35
q40 -126 -69 -272l47 8l26 4q99 13 130 27v155q-4 34 9 65q8 -5 17 0h22q12 5 34 8q40 0 69 9h14q26 0 43 5l8 4l65 5l13 3l31 5l47 4l30 8q74 -86 173 -51q125 139 -26 230q-99 12 -151 -70l-142 13l-26 4l-57 5l-65 3l-8 5h-26l-35 4l-30 5q-13 26 -9 48l5 72v74l-5 39
l-17 4l-31 5h-46l-36 5l-69 3q82 -121 82 -246l-30 -4l-143 -5l-38 5l-31 26v30l9 30v26l5 13l4 39l-26 18q34 8 51 25q143 329 429 308q285 -91 117 -446l12 -4l31 4h74q34 -4 64 5q8 29 13 86v177l5 17l4 22v39q8 26 8 52l9 13q22 86 69 146l-18 5h-63l-36 -5h-69
q-4 -34 -12 -56q-105 61 -208 61l-13 -13q-61 34 -131 31h-17q-38 -14 -64 -40z" />
    <glyph glyph-name="F" unicode="F" horiz-adv-x="1216" 
d="M296 1372h-224l-4 -29q-8 -26 -13 -60l-4 -17q0 -17 -5 -42l-12 -64q26 4 29 9q48 29 77 42l42 21q12 26 17 43l26 -26q97 30 76 -114q25 -186 -68 -199q-17 42 -42 71q-102 26 -123 -71q-85 -43 -68 -127q26 -38 63 -51q106 -110 191 26q22 -5 39 -17q8 -26 8 -47v-220
l29 -29q-25 -31 0 -52l-29 -21v-135q-42 -34 -59 -85q3 -51 25 -85q34 -25 67 -33q90 -132 187 0q43 8 68 33q17 47 12 85q-17 47 -54 76l-9 21v85l4 21v59q-4 39 0 68l-17 17l22 29q-9 51 0 99q-9 84 29 148q25 8 42 4q29 -85 106 -89q51 21 72 63q85 22 76 97
q-8 68 -72 73q-34 63 -97 72q-59 -17 -88 -68q-34 -4 -60 5q-42 75 -8 148q-9 20 -22 34h25q182 223 394 37q25 4 42 17l-20 -46q42 -161 -22 -292v-30q13 0 17 4q13 5 34 9l8 -4l34 7q51 0 85 14q-63 292 43 541l-22 5q-114 0 -152 -8l-8 -22q0 -29 -9 -55
q-187 140 -398 21q-68 76 -152 81q-77 -8 -128 -47z" />
    <glyph glyph-name="G" unicode="G" horiz-adv-x="1256" 
d="M274 1226v-52l-48 -4l-8 -23q-27 -34 -48 -82l-9 -12l-53 -105l-12 -26l-5 -22q-12 -22 -17 -39l-4 -9l-18 -68l-47 -83v-13q-10 -48 -5 -83l48 -96l4 -13l5 -21l30 -79l4 -17q17 -31 26 -69q27 -13 48 -13l-4 -52q108 -135 239 -200q17 5 25 22q14 -36 31 -53
q235 -86 439 0q31 0 52 -4q25 -30 35 -61l9 -60l4 -22v-131q8 -26 4 -51l9 -9h113q38 0 69 9l-9 34q-152 243 -99 504q-17 34 -44 48q56 34 30 108l-3 26q-27 70 -57 109l60 -5q31 96 14 182l-26 -3q-122 -70 -252 -62q-31 -8 -36 -34q-12 22 -17 34h-12q-27 -3 -44 0h-74
q-52 10 -91 0q-4 -21 0 -26q-17 -91 0 -159q156 68 300 29q117 -60 121 -178q4 -126 -99 -182q-291 -105 -470 238q-22 9 -39 5l9 9l4 31q0 8 -4 18.5t-9 15.5l-4 31l-18 94q39 48 48 96q-9 79 -48 136q61 355 365 473q343 60 296 -317q-27 -70 -65 -113q0 -14 4 -18h43
l18 4l126 5l5 39q0 30 -5 52l5 17l12 221l8 14v17l14 57l48 104l-5 22h-31q-17 0 -43 -5q-48 -8 -82 -5q-5 -25 -31 -38l-12 4l-22 14l-31 12q-65 31 -122 39l-12 -21q-70 52 -161 35q-221 -35 -369 -170z" />
    <glyph glyph-name="H" unicode="H" horiz-adv-x="1436" 
d="M359 1392h-44q-17 0 -43 -4q-86 -9 -151 4l-4 -25q-5 -27 -13 -44v-31q-9 -17 -5 -29q-12 -36 -12 -65q47 0 73 34q51 22 65 70q34 -31 69 -18q13 -4 26 -21l9 -27l-9 -17q4 -21 0 -34v-26q4 -39 0 -70q9 -60 -8 -103q-27 -26 -48 -40q-104 182 -194 5l-44 -25l-17 -22
q-9 -35 -9 -57q26 -51 78 -64q74 -152 160 -22q21 13 34 27l40 -14q3 -13 0 -17l-5 -26l13 -8v-19l4 -47l-4 -12v-138l21 -36l-29 -12q12 -22 25 -31l-25 -13q-5 -82 0 -133q-40 -48 -57 -92q0 -38 13 -68q30 -31 69 -48q113 -134 225 0q34 4 56 17q31 53 31 109l-9 8
q-22 57 -61 86q17 92 -17 134l17 31l-25 17l25 22q0 29 5 51q-13 147 34 259q91 101 212 121l30 -3q96 -14 164 -57l31 13q4 -30 -9 -57q186 -345 -60 -720l-5 -18q-13 -30 -30 -61l-39 -112q-30 -155 4 -290q160 -276 442 -211q34 21 59 48q18 -27 18 -53l13 -4q26 0 43 4
q39 -9 74 0q38 -9 69 0v13l-9 13q-22 52 -43 83l-35 82l5 17l-14 34l-8 48l-4 34l-5 39v70q-3 42 5 73l-5 39l-207 4l-4 -26q60 -77 73 -155q56 -212 -112 -273q-174 -5 -247 147q-21 129 35 233l21 36q22 38 27 51l21 34l22 31l8 8q14 22 26 35l117 190q-5 26 -5 43l26 10
q0 34 -12 60q26 5 43 13q82 350 -138 588q-14 21 -26 34q-337 216 -596 -60l-5 12v109q-4 77 8 130q31 20 53 47q8 30 8 52q-17 78 -83 99q-60 56 -133 52q-56 -25 -82 -65z" />
    <glyph glyph-name="I" unicode="I" horiz-adv-x="893" 
d="M381 1436l-27 -8q-40 -37 -85 -50l-18 5q-8 -5 -31 0q-14 -5 -32 0q-22 0 -35 -5q-55 10 -90 0q-10 -35 -10 -63l-8 -27v-27l-5 -8l-5 -37l-4 -31q215 140 257 50v-14q8 -26 8 -54v-14q5 -35 0 -63q9 -13 27 -22l-27 -13l-5 -50v-188q-53 -55 -63 -122q5 -76 55 -121
v-122q0 -13 -5 -18v-122q-5 -22 -5 -35v-72q-13 -45 -35 -76q-45 8 -72 -10l-18 32q-90 23 -153 68l5 -14l-5 -9l5 -36l3 -31l5 -37l5 -8q5 -50 18 -82h229q63 -40 126 -53q77 4 122 49l278 4q0 32 5 37v17l5 31l13 113l-23 5q-108 -94 -229 -81l-14 22l-4 198
q-18 18 -27 31q22 32 27 59l4 13v118q45 62 55 130q-10 22 -10 40l-4 10l-10 30q-26 42 -31 87l-27 3l27 23l-17 14q17 18 27 36q0 13 4 17v198l4 14q0 49 10 86q31 27 71 13q14 14 19 27q13 -23 13 -40l27 -14l63 -23l67 -40v36l-9 13v23l-9 36v14q-14 45 -14 80h-225
q-71 63 -143 72z" />
    <glyph glyph-name="J" unicode="J" horiz-adv-x="1264" 
d="M699 1380l-14 5h-105l-11 -5q-49 10 -93 -3q-21 -92 -13 -166h26q87 62 183 62l13 -18l14 -57v-48l4 -31q-13 -43 -9 -77l22 -14l-17 -9l-5 -14v-51l-4 -9l4 -99q-48 -48 -60 -106q0 -87 51 -138q-3 -62 31 -97q-22 -9 -34 -18q-16 -160 -98.5 -236t-198 -76t-201.5 98.5
t-51.5 231t132.5 179.5q132 35 306 -9l-2 15l-3 16q5 38 -3 72q0 37 -9 66q-8 5 -30 5q-31 0 -79 -5q-48 5 -82 0q-23 -22 -32 -39l-26 44q-29 0 -56 9l-44 5q-21 7 -52 4q-66 30 -127 35l-4 -13v-26q10 -79 0 -131q34 -9 57 -22q-118 -235 -65 -402q9 -20 18 -34l25 -51
q182 -230 584 -159q62 -48 118 -68q101 3 166 65h61l21 3q23 -8 44 -3l128 8l7 9l6 17l-6 9l6 9l4 52q3 27 3 44q-13 7 -25 7q-205 -135 -244 123q-26 12 -48 18l30 18q35 108 9 203q69 44 72 125t-55 133q0 34 4 61v65q5 26 5 43v75q5 56 -5 97l18 38q57 58 39 126
q-109 114 -209 101q-57 -27 -91 -62z" />
    <glyph glyph-name="K" unicode="K" horiz-adv-x="1684" 
d="M731 1448v-70q0 -38 -4 -68l9 -9q38 -8 60 -18q-91 -175 -22 -347q-111 -9 -176 69l-13 29q0 13 -4 18v13l4 47q0 31 -4 78q150 147 -82 253q-95 -7 -160 -60h-136l-57 -9q-34 9 -51 -26v-25q0 -78 -10 -129q53 4 87 38q65 13 51 69q26 -22 39 -39q43 14 77 -3l-3 -21
l-4 -17q7 -27 4 -58q-4 -133 0 -175q-31 -39 -65 -44q-125 189 -203 -8q-64 -30 -68 -98q27 -58 85 -65l22 -40q113 -55 160 53q26 4 47 0l22 -40v-72l3 -13q-3 -10 0 -17q-7 -69 -3 -108q13 -39 42 -65l-12 -17q-30 -64 -22 -125q-8 -31 -5 -55q-133 -121 31 -208
q99 -124 201 0q53 14 78 52q14 47 10 87l-18 38q-26 17 -39 38v17q-4 65 0 109q-35 34 -42 68l34 39v31l-6 12l6 13v138l21 55q82 61 177 44q121 -34 150 -156v-123q-8 -44 -8 -74v-17q-14 -39 -14 -74l34 -7l-38 -58q72 -382 443 -322l9 9q34 13 51 35q39 -9 48 -44h47
q65 -4 113 9q0 21 -14 47l-9 31l-8 13l-21 60l-6 8l-24 69l-6 51l-4 27q-7 34 -7 65q-17 64 -10 115v30l-34 5h-48l-94 -14v-25q111 -193 0 -357q-42 -13 -69 -30l-29 17l-40 34q-56 160 -4 301q0 48 9 82q-13 34 -47 51l25 27q5 48 -39 113q-25 45 -64 98l-17 17l-55 72
q-75 61 -105 142q-21 82 0 151q52 47 30 98q31 -11 58 -17q140 65 283 13q8 82 -17 157q-284 -53 -525 24z" />
    <glyph glyph-name="L" unicode="L" horiz-adv-x="1032" 
d="M375 1416q-48 -30 -82 -39q-26 4 -44 4h-163q-26 -55 -21 -108l-5 -7q-4 -43 -4 -74q22 -5 42 9q32 22 56 29l52 27l6 26q41 -35 89 -4l22 -17q13 -91 8 -152l30 -7q-38 -65 -38 -130q-30 -34 -65 -47q-111 177 -193 4q-65 -35 -65 -99q13 -65 72 -81q82 -126 202 33
q32 -12 43 -33l6 -32q-6 -11 0 -38v-120l4 -29v-281q-65 -51 -65 -124q22 -56 99 -81q9 -27 27 -44q105 -25 170 51l22 9h14l21 -4h133q34 9 52 24l22 -20q125 -13 215 49l4 -22q-17 -26 -4 -53h17l30 6l25 7q43 -13 82 0v26l-3 10l-14 29q-12 36 -22 91l-16 51l-5 86
q-15 14 -38 14q26 17 38 29v26l5 13v154q-107 19 -193 -7q133 -263 -74 -395q-220 -15 -279 200q-35 26 -32 65q-7 13 -16 16q21 27 35 53l-5 43l5 68q-5 65 0 108l13 26q16 17 37 22q118 -121 186 -14q108 31 72 133q-24 25 -46 39l-9 5q-21 72 -90 66t-86 -71
q-39 5 -64 25q-27 79 -18 144l-4 58l47 69l5 65q-78 121 -202 133z" />
    <glyph glyph-name="M" unicode="M" horiz-adv-x="1934" 
d="M782 1349q-172 104 -341 35q-299 -177 -368 -479l-8 -14l-13 -34q-52 -52 -52 -115q17 -62 52 -96l13 -38q69 -382 393 -524q26 -34 38 -65q-12 -34 -30 -55l-22 -14l-76 -73q-18 -17 -31 -26l-43 -38q43 -100 112 -152q43 161 164 247l5 9l42 55q10 35 10 64
q-6 48 -27 87l-21 31q-66 61 -104 113q-52 51 -78 111q-29 43 -43 78l-29 8l20 31v13l-12 65q-13 52 -8 90q29 31 43 66q0 90 -53 155l5 35l8 24q5 57 26 92l35 82l-9 38q26 9 52 5q43 52 86 78q22 21 52 35q216 17 247 -187q0 -72 -31 -129h-38q-45 82 -121 82
q-69 -13 -69 -78q-92 -39 -74 -125q29 -52 86 -56q99 -100 178 21l29 4q52 -46 35 -111v-62l5 -24l-5 -35q-5 -39 -5 -69l31 -22q-17 -21 0 -43q-17 -18 -38 -26q-5 -73 7 -121q-59 -48 -64 -108q12 -90 86 -113q43 -73 116 -73q66 26 83 86q78 18 99 91q0 82 -65 113v12
q-8 40 -8 69l3 23v90l10 31l-5 81q-22 17 -47 17q25 18 42 39q-3 86 23 151q64 27 86 -48l43 -34q83 -4 100 65q87 10 82 90q-13 52 -57 69q-64 191 -194 18l-31 -4l-24 26q-31 143 46 247q168 112 329 -75l29 -3q-3 -35 0 -61q79 -126 79 -255q-48 -48 -56 -107
q8 -62 39 -104l-10 -48l-4 -26q-17 -38 -21 -69q4 -30 25 -52q-25 -12 -42 -26l-27 -81q-7 -14 -7 -23q-10 -12 -18 -43l-39 -86l-5 -17q-12 -25 -17 -49l-8 -11l-13 -31q-21 -69 -42 -113v-17l-10 -30q-4 -47 -8 -86v-30q4 -65 0 -109q177 -388 514 -203q34 -25 52 -56
l24 4l22 6h26l35 4l31 4l3 17l-59 148l-13 25q0 21 -10 43l-8 60v14l-9 52q-18 12 -39 8q26 13 39 26v64l4 35l5 31l-13 7h-66l-29 -3l-26 3q-38 -7 -69 -3l-4 -35q86 -107 73 -230q-9 -159 -168 -166q-52 11 -86 28l-14 27q-112 99 -78 234q23 72 57 133q8 22 25 47l17 40
l10 8q7 34 25 52l22 48l39 73l4 17q22 34 30 60l108 199q-5 26 -22 40q22 8 35 17l5 12q12 26 17 43q43 48 60 100q-3 90 -65 146q-59 260 -233 416q-225 197 -474 86q-83 86 -191 83q-99 -27 -129 -93z" />
    <glyph glyph-name="N" unicode="N" horiz-adv-x="1588" 
d="M1054 2199q-22 -79 22 -134l-4 -22l-26 -71l-5 -21l-9 -25q-8 -45 -21 -74l-22 -79q-22 -57 -31 -95l-8 -5l-13 5l-39 4l-26 5q-43 12 -74 17h-14q-25 8 -51 8l-5 -8l-13 -66l-17 -48l-13 -74q134 61 252 26l-5 -12q0 -27 -3 -44q-14 -52 -14 -87q-187 -22 -304 -144
q-4 18 -4 48q-18 31 -18 52q-126 118 -252 19h-125q-23 0 -36 -5q-35 8 -66 5q-3 -10 -3 -31l-9 -17l-5 -31q0 -18 -3 -43q-14 -35 -14 -66h26q39 21 53 26q38 22 69 31v21q39 -30 79 -9q12 -17 17 -34v-191q4 -66 -48 -100l-22 4q-109 165 -186 0l-31 -13q-91 -101 31 -156
q29 -48 74 -74q69 9 91 65q17 17 38 26q48 -26 53 -74v-196q21 -31 38 -48q-26 -21 -12 -48q-48 -43 -26 -134l-9 -35q-70 -44 -65 -122q35 -60 91 -78q86 -87 191 -47l22 26q9 21 18 34q39 31 56 65v18l-8 74l-48 56v83q-5 48 0 77v148q39 48 51 101l-3 74q-23 38 -45 64
v57q9 65 22 110q66 220 279 208q4 -52 -9 -96l13 -30q-26 -36 -30 -65l-5 -17v-27l-8 -21v-18l-4 -8l-5 -27q0 -21 -4.5 -36.5t-9.5 -46.5l-3 -17q0 -17 -9 -40l-9 -69q-5 -13 -8 -39q0 -30 -9 -57q-5 -43 -13 -74q-4 -46 -13.5 -79t-12.5 -81l-5 -26q-9 -34 -13 -87
q-13 -35 -13 -66l-9 -48l-3 -17v-17l-9 -35v-13q-14 -47 -14 -78l18 -13q-9 -21 -26 -35l-9 -26v-17l-8 -31v-26q-9 -25 -9 -51l-9 -31v-14l-5 -21l-3 -30q-9 -66 -5 -109l5 -70l21 5q13 31 25 48q19 43 40 74q0 21 5 34l4 31l4 30q18 53 21 87l19 65v21l9 28l12 73l5 18
l12 47l5 39l12 34l5 36l14 52l4 17q8 57 30 139v14l9 26q0 12 4 17v12l27 97l-14 39l31 48l4 21l8 48l5 26q13 44 18 74q3 13 8 44q12 35 12 61l10 22l4 34l9 30l5 27l12 47v13q13 35 13 66q21 25 48 34q-17 -31 -17 -60q95 -183 47 -427l-9 -17v-13l-21 -47l-8 -14
q-9 -34 -22.5 -62.5t-30.5 -54.5l-26 -61q-17 -30 -22 -57l-52 -121q-4 -13 -9 -17v-19l-8 -12l-17 -87q3 -44 -5 -74q8 -4 8 -9q5 -126 79 -213q196 -217 426 -74l30 -60h144q17 8 30 8q-21 126 -100 196l27 12l-5 28l-5 25q-8 39 -12 100l4 13v61q13 48 8 91l-47 14l-61 4
l-30 4l-48 4l-5 -26q100 -182 26 -335q-86 -143 -243 -74q-99 100 -96 222q14 26 18 50t8 29q5 26 17 65l14 30q31 48 43 87l14 14q22 26 30 43l30 39l39 56q48 61 71 105q0 25 -10 43q22 13 36 17q-5 27 -18 44q38 26 64 52q66 444 -277 683l4 8q8 79 31 126q77 5 134 -38
q22 3 36 17q21 -91 82 -83l4 18q0 30 5 69q12 56 12 96l-17 8h-17l-61 14l-13 4l-61 8l-13 5l-78 17l9 30v22q4 9 6 20t2 32l18 79q3 34 5.5 49.5t6.5 37.5l5 30v26l4 13l5 31l3 26q88 57 79 148q-52 82 -143 77q-53 -20 -79 -60z" />
    <glyph glyph-name="O" unicode="O" horiz-adv-x="1453" 
d="M544 2269q2 -80 70 -113l-39 -422l-9 4q3 -8 -245 -5l-32 -207q45 33 95 42l14 46l45 -22q75 20 136 15l9 -200q-204 -57 -314 -177q0 -21 9 -40l-50 -5l-28 -40l-14 -29q-23 -31 -33.5 -61t-34.5 -61q-27 -60 -32 -106q-24 -50 -27 -95q-78 -83 -64 -183q27 -55 67 -87
q7 -32 15 -50l5 -10l23 -68l17 -27q14 -46 41 -77l33 -9q-4 -28 -4 -46q67 -101 165 -151l22 -18q31 -13 50 -37q23 0 31 14l20 -33l64 -17q45 -14 71 -28l6 -374l4 -20l14 -31l5 -19l42 -123l26 42q14 46 19 77l21 69v242l-31 41q37 40 41 86q302 74 462 306l-10 42
q27 0 46 -5l31 64l14 29l42 154q59 74 50 160l-5 9q-14 46 -41 68q-4 24 -18 38q-32 208 -192 391l-46 10l-9 45q-145 129 -314 136l8 200q148 9 245 -69l-38 200h-115l-99 4l-57 415q76 36 79 90.5t-20 85t-56 41t-58.5 10.5t-47.5 -8t-43 -29.5t-31 -73.5zM594 1212
l13 -575q9 -27 28 -45q-23 -23 -28 -46l5 -298q8 -67 -5 -117q-150 74 -214 210h-28q14 18 14 36q-60 128 5 223q10 32 14 90q-19 47 -60 98q14 50 -19 73q23 13 37 32q49 252 229 347zM969 1102.5q95 -127.5 104 -314.5q-50 -60 -50 -128q15 -74 55 -124l-14 -40l-5 -33
l-27 -100l18 -27h-32q-96 -174 -255 -229l4 33v492l4 24v50l-4 14l4 17v307q-14 23 -18 36l18 41q-4 69 10 119q93 -10 188 -137.5z" />
    <glyph glyph-name="P" unicode="P" horiz-adv-x="1360" 
d="M333 1379h-221l-30 -182h13l56 21q34 18 65 22q18 17 18 39q29 -17 56 -4q30 -5 43 -27v-245q-24 -62 -99 -47q-25 65 -87 58t-77 -68q-58 -21 -70 -70q-4 -89 77 -103q100 -120 183 14q24 0 42 -14l13 -31q2 -79 0 -238q14 -24 30 -42l-16 -22l12 -21l-26 -13v-70
q0 -39 -4 -69q-76 -77 -55 -138t76 -70q122 -129 234 5q69 10 73.5 87.5t-72.5 118.5l4 442q-1 46 25 67.5t57 7.5q37 -69 101 -69.5t89 60.5q72 17 75 78t-67 81q-16 58 -78 75t-117 -56q-38 0 -58 24q-31 227 148.5 252.5t281.5 -169.5h44l-26 -22v-12q13 -31 13 -58l3 -7
q10 -35 10 -66q9 -30 5 -56q-35 -347 -437 -255l-5 -17v-151q289 43 549 -39v146q-34 14 -61 9q134 108 172 269l-29 17l34 13q10 203 -99 345q-250 311 -591 147q-65 109 -177 105q-61 -14 -100 -52z" />
    <glyph glyph-name="Q" unicode="Q" horiz-adv-x="1459" 
d="M296 1231l10 -42h-50q-147 -179 -175 -385q-13 -17 -13 -36q-81 -57 -63 -152q31 -68 76 -113q19 -125 85 -210q23 0 37 -3q-14 -23 -14 -46q278 -328 631 -247l14 -35l36 -113q-30 -17 -85 -23l-35 -3h-96l-4 -27l20 -33q13 -21 17 -34l40 -68h17l13 9l86 31
q54 15 90 32l22 -42q120 -243 129 -275q-22 -72 0 -133l26 -28q208 -49 181 153q-46 44 -96 63q0 13 -3 17q-71 281 -84 311l23 14l130 50q43 13 71 31v27l-5 18l-3 23l-20 89q-70 0 -53 -67q-27 5 -44 5l-53 -40l-15 -6q-28 -17 -48 -27l-13 10l-7 13l-21 50l-14 30
q-5 28 -18 45l10 10q57 35 90 76q57 44 89 94q0 36 -13 59q30 13 53 13q71 107 77 219q148 130 3 265q-9 34 -23 57l-3 27l-45 100l-9 13l-13 27q-10 26 -40 68l-46 76q-27 7 -50 7v46q-196 197 -448 184q-209 -40 -354 -174zM938 1095l22 -35l36 -54v-14l9 -13l36 -95
l27 -8q-27 -45 -10 -89q-53 -63 -48 -136q13 -75 53 -130q0 -13 -5 -18l-4 -13l-4 -30q-22 -68 -22 -100l17 -13q-58 -23 -99 -99q-21 28 -31 59l-45 126q-50 53 -103 67l-10 -37q-27 18 -53 18q-21 -144 26 -144l-7 -7q4 -40 17 -67v-15l14 -48q18 -37 23 -68
q-23 -18 -47 -27q-218 32 -317 225q-31 7 -57 3q17 17 26 37q-41 80 -41 151q41 55 50 108q5 82 -50 139q9 400 349 480q163 -27 248 -153z" />
    <glyph glyph-name="R" unicode="R" horiz-adv-x="1620" 
d="M437 1415l-34 -10q-21 -15 -42 -25h-64l-13 -4l-16 4l-136 5l-35 -137l-4 -37l22 -4l42 16q47 10 76 31v29q42 -21 81 -13l12 -12l-4 -47l4 -13l-4 -13v-84q0 -39 -4 -68q8 -64 -39 -89l-36 7l-14 39q-123 89 -157 -39q-76 -29 -72 -100q25 -56 81 -64q72 -105 198 17
l22 -17l9 -18v-254l41 -37q-29 -26 -8 -56l-7 -8l-32 -14v-41q0 -30 -3 -77q-85 -67 -39 -157q27 -25 52 -37q111 -154 211 -10q51 18 80 47q10 39 10 71l-10 19l-54 67l5 161l-5 9q8 51 5 85l3 20l-3 26l3 13v111l10 50l20 25l31 13l20 -8q93 -115 179 -9q46 17 67 51
q9 81 -60 110q-63 115 -169 30h-37l-34 34q-14 169 140 230q189 0 287 -179h34l-17 -21q9 -55 22 -94q7 -75 0 -127q-76 -326 -416 -224l-9 -27v-46q0 -37 -4 -67q17 -17 39 -22h46l18 5l29 5q71 -19 131 -5q-21 -72 26 -98q-90 -195 79 -317q186 -120 378 -35
q38 -38 77 -38l118 5l-4 30q-12 29 -29 58l-14 38l-11 48q-35 93 -35 160l-9 22l-3 81q-10 32 0 63l-22 13l-34 -5q-63 5 -105 -8q97 -339 -72 -386q-59 26 -85 73v12l-5 20q-8 43 -8 75t8 53q0 26 5 43v25l4 12l3 30q4 56 19 95q-31 15 -56 25v12q110 118 156 250
q-21 20 -38 30l47 9q9 172 -67 308q-201 318 -598 200q-42 85 -132 85q-25 -9 -42 -4z" />
    <glyph glyph-name="S" unicode="S" horiz-adv-x="1057" 
d="M492 1403q-42 -3 -72 -22l-47 -12q-231 -150 -175.5 -384t294.5 -366q10 -47 39 -78q35 -12 52 -29q107 -9 159 -95q72 -163 -69 -256q-171 -121 -352 -48q-205 150 -60 412l-8 7q-18 -3 -48 -3q-86 3 -145 -10q48 -273 -64 -492v-21l30 -9h119q10 30 6 56
q410 -181 741 60l47 69q120 227 -9 412h-48q36 63 -50 109q-34 164 -181 116l-21 10l-12 12q-30 10 -47 21q-79 48 -121 100q-34 0 -55 -5q17 17 21 39q-40 97 4 184q65 134 220 86q188 -107 115 -399l18 -5l29 5q64 5 107 0l5 35l-5 33l-5 35v94l-3 13l3 158l10 13l30 133
q-142 26 -155 -77q-125 103 -270 103z" />
    <glyph glyph-name="T" unicode="T" horiz-adv-x="1457" 
d="M1 1366q81 -146 59 -296q3 -82 -22 -145q-4 -35 -4 -61l14 -9h12q42 -3 73 -13l39 -8q22 -4 34 8q-51 160 -12 301l-10 51q10 -4 29 -4q87 64 182 78q230 -52 167 -288q-26 -22 -56 -26q-111 150 -193 -3q-39 -14 -61 -36q-25 -107 78 -141q87 -104 181 17q34 0 55 -22
l5 -17l3 -17l-3 -39v-59q3 -44 0 -73q0 -22 3 -35l-3 -30q25 -40 17 -73l12 -8q-48 -26 -34 -142q-60 -61 -55 -138q25 -56 73 -73q48 -69 124 -69q52 22 77 66q69 29 90 86l-4 64l-17 25l-9 9q-21 25 -31 42v104l-3 9l3 185q-17 11 -32 16l25 30l4 34q3 65 17 108
q26 20 52 25q59 -30 91 -81q63 -4 98 44q81 29 77 109q-22 44 -57 66q-67 167 -196 17q-35 0 -48 26q-63 205 90 266q134 30 237 -65q22 4 34 13l4 -9l-13 -52q43 -153 -13 -287q87 -12 151 22q0 35 -6 86l6 12q-6 36 0 65q-6 26 0 48q0 51 9 85q3 112 42 189l15 44l-62 -9
l-99 -6q-8 -33 -30 -51q-176 87 -344 22q-171 124 -314 -9q-196 86 -368 -9l-8 9q-15 21 -27 46h-20q-66 2 -133 14q2 -22 5 -38z" />
    <glyph glyph-name="U" unicode="U" horiz-adv-x="1723" 
d="M948 1844l-13 -17l-12 -34l-13 -21q-13 -43 -30 -64l-4 -38l-4 -34l-5 -26l-8 -34q-4 -51 -13 -85l-17 -93v-30l-13 -60q0 -25 -8 -68l-4 -34l-5 -29q-8 -26 -12 -64l-5 -21l-8 -68q-9 -30 -9 -56l-8 -30q0 -17 -4 -42l-5 -34l-4 -30q21 -13 30 -25l-17 -13l-26 -17
q0 -38 -13 -98l-4 -30l-4 -25l-4 -21l-5 -22l-8 -72l-4 -21l-5 -17l-29 -200q-30 21 -47 43q-13 29 -26 46l-4 22l-8 21q-13 42 -26 64l4 8l-4 89l4 26l5 47q8 38 8 68l30 89v13q13 46 25 59q13 55 39 94l4 29l25 98q5 90 -17 153l-4 30q-178 319 -476 162l-8 8
q-5 34 -17 60l-56 -9h-25q-47 -8 -77 -8l-4 -26q21 -42 26 -76l21 -68l38 -17q-17 -17 -21 -39l4 -17v-34l4 -12v-60l5 -13v-25q-5 -17 -5 -47q-4 -47 0 -77h26l30 -8h29l22 -4l29 -5l26 -4l4 30q-136 353 136 408q140 -34 174 -161v-34q-4 -51 -12 -85l-9 -13l-8 -21
q-26 -34 -34 -60l-13 -13q-4 -13 -9 -17l-17 -30q-8 -25 -21 -38l-13 -21l-85 -174l-4 -22l-4 -34q-4 -38 -4 -68q12 -34 34 -55q-22 -8 -34 -17q25 -340 301 -489v-17l-4 -8l-4 -30l-9 -85q-85 -21 -148 25q-22 -4 -34 -21q-9 81 -85 81v-94l-5 -8q0 -38 -4 -68
q38 -13 94 -17l12 -4l30 -5q21 0 34 -4q51 0 89 -17q-8 -34 -12 -85l-5 -21v-17l-8 -72l-4 -39l-5 -25v-30q-12 -64 -12 -106q-51 -47 -60 -107q9 -72 64 -102q93 -25 144 47q22 85 -17 149l5 25l34 115q0 13 4 17v13l30 106q13 68 34 115q25 -4 30 -8l59 -5l106 -17l9 9v13
l17 55v13q17 38 17 68q4 17 -13 17q-115 -47 -221 -26l4 13l5 30l8 97q30 13 55 13q34 21 64 30q128 127 204 -4q123 -90 200 38q68 17 93 72q-12 85 -80 124l4 34q-9 63 -4 106l-17 4l4 26l-17 4l8 8l17 26l5 17v42q0 26 4 43v161q17 30 42 43q26 -9 39 -21q89 -107 166 0
q25 0 46 12q85 98 -34 162q-12 51 -55 68q-89 13 -132 -72h-21q-26 17 -43 34l-4 21q4 9 0 17v230l21 21q47 -13 73 4l8 -25l60 -26l30 -13l55 -29l13 8l-13 55q-9 77 -26 128l-8 4h-81l-30 -4h-93q-153 119 -272 -17q-102 -111 21 -200q-13 -76 30 -89q-26 -26 -30 -51
v-175q-13 -21 -17 -34l-43 -63l-8 -51q4 -39 13 -68q72 -102 38 -213q-89 -174 -264 -204q22 72 -12 128q21 25 29 51l5 34l4 29l4 56l4 34l5 29l4 30v34l4 26q9 38 9 68l4 17v21q0 30 8 55v47l9 30q0 29 4 76l9 60l4 21l17 204l4 26l4 29q9 56 9 94l-21 38l29 26l5 34l4 17
v46l4 22q4 51 13 85l-9 191l-8 4z" />
    <glyph glyph-name="V" unicode="V" horiz-adv-x="1460" 
d="M-4 1357q13 -31 13 -57q15 -28 15 -55q13 -27 17 -50l32 -105l4 -7l22 -73l5 -22l14 -46l8 -22q13 -36 20 -63l152 -362l9 -9l42 -82q30 -17 57 -23q-9 -27 45 -116l69 -86q14 -10 17 -18l20 -13l30 -27l23 -23q22 -23 36 -32q49 -27 81 -63q37 -10 63 -4
q150 129 115 197q48 5 80 33l8 23l10 7l54 82v19q9 14 28 36q18 36 36 53q4 20 27 50q17 23 23 37q13 31 35 50l40 18q27 30 47 63q13 68 -20 105q23 53 28 98l14 40l13 37q5 35 18 63l5 22q0 36 10 64q3 14 8 17l5 42l4 18l5 27l5 22q3 44 9 47v14l8 71l-14 30h-3l-27 3
h-78l-17 -3l-173 3q-36 -9 -67 -3l-6 -16q0 -35 -3 -62v-14q-10 -26 -12 -53.5t21 -41.5q112 63 227 49l13 -17l-10 -89l-10 -30l-3 -37l-14 -50q-9 -28 -9 -45l-40 -111q-87 -47 -123 -109q-31 4 -54 0q-50 -6 -85 14l-6 13q0 35 -4 62q149 113 19 195q-36 98 -127 81
q-40 -36 -54 -76q-159 -100 8 -180q6 -37 -4 -69l-10 -9l-17 -27l-50 -13q-41 9 -76 -7q-54 97 -150 78l-13 10q-32 85 -82 99q40 63 -8 139q0 22 -5 37l-5 22l-4 36l-4 28q-14 37 -19 67q64 32 113 0q22 0 37 10q17 -73 90 -73l10 27l-10 26q0 78 -17 132l-232 6
q-36 -10 -67 0l-9 -6l-96 6q-53 -10 -95 0q-30 0 -35 -29zM732 594l5 -49l3 -36v-50l-3 -32v-139l-82 158l-45 -1l14 37l-14 23l-40 76q27 40 58 53q64 0 104 -40zM1003 489l-18 -30q-18 -41 -40 -63l-23 -36l-10 -9l-40 -59l-4 14l4 35l5 145l-27 13l27 27q18 91 103 101
q118 -6 23 -138z" />
    <glyph glyph-name="W" unicode="W" horiz-adv-x="2220" 
d="M0 1535l22 -71v-13q22 -48 27 -93q22 -4 44 0q-14 -27 -31 -40l4 -44l5 -84q0 -13 3 -18v-141l5 -27l19 -4l140 -4l5 26q-57 164 -18 309q18 27 35 45q81 98 200 40q92 -72 110 -182q-8 -22 -18 -35q-9 -72 -34 -123l7 -37l-7 -8l-50 -22q-308 -495 10 -871q26 0 40 17
q7 -34 3 -61q191 -141 390 -66q57 30 92 56q274 -171 514 23l30 -3q124 -201 270 -46l41 14q92 96 -14 185v44l-6 10q10 53 0 93q-21 12 -38 12q21 32 -13 53l13 6q21 21 44 34l4 13v27q-4 56 3 97q-3 57 14 106q27 23 54 11q89 -99 192 0q51 19 52 85t-57 85
q-87 109 -188 2q-51 3 -53 65l-4 103v47l4 31v79q10 14 18 20q58 -20 88 17l10 -31l7 -10l45 -17h14q44 -31 81 -40q20 101 -14 181q-27 0 -45 5h-119l-9 -5l-71 -4q-56 84 -155 71q-58 -17 -78 -67q-164 -89 -37 -216q-14 -68 50 -88l-45 -24q-9 -69 -49 -113
q-22 -10 -39 -6q-83 105 -177 19q-44 -36 -67 -72q0 -97 89 -128q74 -101 163 31q22 -4 31 -18l13 -22v-35q9 -18 9 -30v-85l-4 -49l-5 -75q0 -65 -18 -114l-8 -10q-31 -30 -53 -44l-13 -22l-18 -13q-36 -18 -53 -35q-141 -63 -247 17q66 75 88 160q-49 44 -169 -93
q-30 35 -39 84l-9 9l-9 133q5 39 13 71q0 30 9 74l5 17l8 22q14 84 36 138l5 17q5 22 5 45l25 97q9 88 -18 159l-39 116l-9 7l-52 67q-31 19 -50 36l-8 9q-18 18 -50 31l-49 34h-20q-14 10 -17 18q-37 0 -64 -13q0 -22 5 -35q123 -71 182 -185q40 -310 -123 -566l-10 -36
q-14 -26 -17 -49q17 -30 44 -44l-41 -35q4 -186 102 -327q-31 -14 -54 -18q-228 40 -296 247l-4 37l9 157l9 19q5 27 13 44v13l9 9l5 18l17 54q27 56 30 100q174 371 -47 552q-191 133 -380 40q-18 23 -23 45l-14 22h-101q-39 -5 -66 -13z" />
    <glyph glyph-name="X" unicode="X" horiz-adv-x="2159" 
d="M296 1375v-13q22 -36 30 -69l19 -22v-13l22 -46v-13l10 -9v-13l18 -40v-14q9 -20 9 -33l8 -27q0 -54 18 -94v-72q0 -32 5 -54l51 -5l13 5q57 -5 108 13q-131 234 22 402l50 18l13 -5l41 -32l9 -3q68 -177 24 -344v-41q-14 -50 30 -67q-57 -73 55 -203l-18 -13l5 -37
q-59 -180 -186 -280q-136 -133 -299 -99l-57 17q-168 189 -55 402q-41 4 -72 0q-59 -17 -113 -13q-10 -27 -5 -47q55 -247 -45 -446q-9 -31 -9 -54l14 -4l13 4l32 5h31l13 5l42 3l27 5l23 42q131 -101 207 -42l13 -22q321 0 534 193q3 37 -10 64q23 10 41 0l54 81l10 23
l9 10l27 54q-9 -32 22 -37q-27 -27 -31 -57q57 -409 478 -336q46 19 73 41q31 -41 82 -27q62 -9 112 5l-10 44q-135 230 -85 483l-50 -4l-31 -3q-59 0 -99 -14l-6 -19q6 -44 19 -76l14 -50l3 -41l-3 -13q3 -54 0 -91q-60 -159 -158 -77l-45 50q-41 176 22 334l-5 10
q-27 44 -50 67q28 54 -4 100l-37 53l-13 32q82 290 298 438l19 5l102 27l10 -5l72 -8l9 -10l82 -54q94 -181 27 -348v-40h23l10 4h103l30 5v40l-3 18l-4 195l4 8v100l9 55q8 27 8 49l10 8l17 91q-27 5 -48 0q-105 0 -119 -68q-36 46 -90 51q-130 44 -150 -14l-20 22
q-312 14 -507 -198q0 -37 9 -60h-51l-17 -21l-58 -136q-19 27 -46 41l27 32q10 179 -116 283q-209 145 -399 10q-23 44 -27 63h-122q-44 -5 -71 -14z" />
    <glyph glyph-name="Y" unicode="Y" horiz-adv-x="1223" 
d="M777 1799q8 -65 47 -113l-3 -14l-4 -18l-3 -18v-15l-8 -18v-25q-11 -25 -11 -48l-10 -39q-4 -65 -23 -109h-89q-54 5 -91 -3v-36l-7 -44v-54q98 40 187 22l-10 -51q-68 -50 -101 -115q-4 -83 54 -137q12 -131 -41 -197.5t-161 -52t-133.5 68.5t-15 125.5t110 131
t104 132.5t-27 122t-79.5 65t-89.5 20t-174.5 -33l-18 36h-65q-54 4 -91 0q-3 -18 0 -28q112 -196 81 -327l14 -4l95 -4q24 -3 47 8v14l-8 7l-7 22q-61 94 -6.5 189t205.5 40q132 -113 -92 -238.5t-147 -322.5q26 -36 62 -54q-25 -22 -23 -16q102 -107 230 -98q149 8 180 68
q18 7 32 7v-90q-3 -29 0 -68q-3 -33 0 -58l-3 -12l3 -176q-55 -55 -47 -120q18 -47 57 -68q-24 -113 19 -119l-37 -23v-46l-21 -138v-10l8 -8v-26l7 -17q0 -25 6 -43v-23l18 -3l12 18l47 87l-4 18l4 11l3 19q0 31 8 57l3 32l4 18v29l3 18l11 90q51 23 80 62q44 8 57 47
q5 44 0 73l-7 7l-36 47v18q4 7 0 26v151q-18 18 -40 25q18 26 40 40v116q-3 29 4 54q21 18 44 18l24 -11q59 -120 145 -36v25q54 11 65 62q-7 57 -62 72q-57 127 -144 18l-22 -7q-24 15 -43 36l-4 21l4 29q-4 54 4 91q51 36 61 87q-10 54 -46 86l6 109q75 20 219 -43l-4 150
l-216 14l1 182l-3 11l-3 105q46 65 39 134q-29 46 -72 57h-33q-58 -21 -69 -71z" />
    <glyph glyph-name="Z" unicode="Z" horiz-adv-x="1771" 
d="M752 2228q-13 -84 35 -141l-4 -22l-5 -48q-4 -44 -4 -75l-4 -22q-5 -35 -5 -62l-4 -17q0 -31 -5 -35v-18q-8 -57 -8 -97q-40 -8 -75 0h-145l-5 -22l-4 -26v-40l-4 -22l-5 -22q-4 -39 -4 -70l13 4l44 22q61 18 97 36l70 8l9 -4l22 -18v-241l4 -14v-105l-9 -5l-17 -17
q-31 -22 -49 -40l-61 -52q-18 -18 -35.5 -29t-33 -22t-28.5 -15l-61 -44l-88 -44l-31 -9q-27 0 -44 -5q-145 36 -207 154q-9 36 -26 62q-9 31 -27 53l-30 -5q-27 -237 176 -347l8 -4q58 -22 97 -27h70q44 13 75 18l84 26l13 9l48 18l44 26q18 4 44 22q53 22 84 48
q9 -35 4 -61l5 -22l4 -431l-22 -18l-18 -17q-35 -27 -52 -44v-58q-27 14 -53 14l-18 -14l-110 -79q-22 -13 -30 -26l-71 -44l-26 -4l-9 -9l-66 -18q-149 35 -207 172l5 22q-13 79 -9 136q-13 0 -22 9q-75 -84 -57 -185l26 -92q49 -79 115 -123q35 -31 74 -40l57 -13
q234 -13 409 92l14 5l70 35l4 -49v-158l31 -17l-26 -18l-5 -35q0 -35 5 -62v-206l44 -119h17l14 31l8 13l35 83v145l5 22q-5 36 0 58l4 246q5 26 0 44q9 35 5 66q167 53 321 26q30 0 52 18l9 -35q220 -53 194 -256q-137 -202 -392 -87v-58l5 -17v-31q9 -48 9 -79h92
q26 4 44 4l31 5h140l44 44q0 -27 -8 -44l61 -5l9 -4q79 -5 136 4l-4 22q0 22 4 35l-4 14q0 52 -9 88l-66 17q66 229 -62 405q-171 233 -444 215l9 9q57 31 75 44l13 4l35 14l101 48l27 13l48 22l27 13l39 22l13 5l75 39l13 13l9 5l26 17q22 27 44 40q132 171 53 352l-13 31
l-9 8l-31 44q-316 269 -664 123l-4 -8l-18 -22l-4 44l4 22l-4 22l4 17v141q75 26 141 13l13 18l18 -27l13 -13q40 -22 66 -48l4 13l-4 17v58l-4 30q4 49 -5 80h-211l-26 4q-13 9 -18 18l-4 233l-5 13v110l-4 31q70 57 57 140q-48 88 -136 71q-62 -27 -88 -75zM1258 1120
l13 -5l48 -4l44 -13q57 -9 97 -31l44 18l-18 -31l5 -9q30 -57 35 -106q-22 -74 -70 -123l-27 -17l-220 -106l-17 -13l-22 -9l-13 -9l-62 -30l-31 -18q-26 -22 -53 -31l-79 -48l-9 9l5 145l-13 4q-22 9 -35 18l48 31v127q9 26 0 44l4 13l5 101q114 88 242 93h79z" />
    <glyph glyph-name="bracketleft" unicode="[" horiz-adv-x="751" 
d="M449 1650q-44 -60 -81 -87h-335v-1176l84 -27l-84 -56v-457h367q54 -102 156 -92q54 33 71 92q59 22 86 65q16 119 -92 151q-27 92 -113 97l-49 -16q-64 -146 -243 -103v1333q162 44 238 -97q38 -16 70 -16q81 27 92 103q59 16 92 64q16 119 -92 146q-38 108 -140 92z
" />
    <glyph glyph-name="backslash" unicode="\" horiz-adv-x="1447" 
d="M1353 149q-35 20 -66 14l-70 72q-9 14 -17 20l-89 105q11 20 26 31q8 15 23 26q34 33 48 61l-8 9q-3 9 -6 11q-17 18 -37 42q-17 26 -29 38q-11 0 -14 -9q-17 -86 -63 -146q-20 14 -32 26l-20 17q-14 17 -29 26l-48 48q-9 15 -23 26l-6 6l-17 14q-3 6 -15 15
q-20 14 -31 28q-17 -5 -32 0q-7 49 -47 72l-28 26l-15 14q-8 8 -23 19q-20 23 -37 35l-54 54q-18 12 -26 26q-17 9 -26 20q-20 23 -37 35q-15 17 -32 28l-20 20q-11 9 -17 18q-20 14 -32 28l-17 15l-46 43q-14 8 -23 17l-20 17q-24 23 -44 37l-20 2v26l-26 23l-8 9l-9 8
l-63 60q-20 15 -32 29l-8 3q-49 32 -89 43q6 -17 14 -26l9 -20l23 -40l14 -14q17 -20 32 -32q17 -23 45 -49q18 -20 35 -31l6 -9l17 -14l38 -46l9 -6l63 -56l6 -9l109 -112q14 -14 20 -17q11 -20 25 -31q41 -43 58 -55l156 -155q37 -42 66 -65l11 -11q17 -18 27 -30.5
t19 -18.5q23 -29 40 -43l9 -9l11 -14l26 -23q3 -3 12 -11l17 -15l17 -17q14 -26 34 -40q-8 -17 -20 -26l-5 -6l-20 -8q-21 -15 -38 -20l-5 -18q-38 12 -66 -5q-9 -6 -6 -18l47 -31l5 -3q29 -29 58 -37l8 5q18 23 32 32l10 17l6 3q37 35 55 63l17 -11l43 -38l9 -5l26 -26
q18 -14 29 -20l6 -9l14 -10l17 -15l15 -14l5 -3q15 -14 29 -23q-11 -57 35 -89q106 -34 111 75q-11 31 -31 52z" />
    <glyph glyph-name="bracketright" unicode="]" horiz-adv-x="740" 
d="M262 -224q44 59 81 86h335l-6 1184l-75 19l83 56l1 431l-367 27q-53 102 -156 92q-54 -33 -70 -92q-60 -22 -87 -65q-16 -118 92 -151q27 -92 113 -97l48 16q66 145 244 102l-3 -1333q-162 -43 -237 98q-38 16 -70 16q-81 -27 -92 -102q-60 -17 -92 -65q-17 -119 91 -146
q38 -108 140 -92z" />
    <glyph glyph-name="asciicircum" unicode="^" horiz-adv-x="1020" 
d="M953 832l-20 24q-52 59 -68 83l-24 28q-8 12 -16 16l-52 64l-24 28l-20 24l-33 36l-4 8q-28 28 -40 52q-32 -4 -60 4q12 28 16 48l-20 24q-12 20 -24 28q-16 24 -32 40l-4 8l-32 40l-20 -1q-8 -12 -24 -28l-16 -20q-16 -24 -32 -40q-8 -12 -14 -22t-14 -14l-16 -20
l-20 -24l-4 -8l-32 -40l-4 -8q-31 -32 -67 -80l-28 -32l-12 -16l-20 -24l-56 -64l-4 -8l-44 -49l16 -47q-56 23 -88 -37v-12l85 -83q32 -28 48 -48l8 4q0 20 4 32q3 48 11 80q108 248 315 360l32 1q169 -88 257 -236q20 -20 40 -8l12 -8q-16 -12 -24 -24l8 -24
q48 -92 49 -180l16 8l123 125v12z" />
    <glyph glyph-name="underscore" unicode="_" horiz-adv-x="1897" 
d="M85 -327q39 10 57 36l100 -4q16 -4 26 -3l138 -14q6 -23 3 -41q4 -16 1 -35q-2 -46 7 -76l12 -1q8 -4 12 -4q25 -1 57 -5q30 -7 47 -7q8 7 4 16q-48 74 -56 149q24 4 41 3l26 2q22 -3 39 1l68 -1q17 -4 34 -3h9l22 2q6 -2 21 -1q24 4 42 2q8 15 23 22q38 -31 83 -20l38 1
h21q12 -1 30 2q30 -3 51 0l76 -1q22 4 37 -1q19 5 33 4q30 -3 51 0q22 -2 42 2h28q14 1 25 -1q24 3 43 2l22 1l63 1q16 3 29 3l26 2q32 -1 56 3l17 12l18 -19l35 2l12 -1h12l87 1q24 3 43 1l8 3q57 11 94 31q-17 8 -29 9l-20 8l-44 13l-20 1q-26 2 -45 0q-29 5 -67 4
q-27 2 -46 -2l-11 3l-22 -2l-59 7l-10 -1l-85 -3l-11 2l-156 5q-20 1 -26 -1q-22 6 -40 5q-59 2 -79 -1l-220 4q-56 5 -93 2h-16q-24 1 -40 3t-27 0q-36 5 -58 4h-13l-18 2l-34 -1q-5 0 -17 -1l-22 -1l-24 1q-28 9 -53 5q-6 18 -3 33l-1 7l9 20q5 25 14 41l-9 16
q35 18 44 50q2 10 -8 17l-55 -10l-6 -1q-41 1 -67 -14l-2 -9q3 -29 -1 -45l4 -20l-3 -6q-2 -51 4 -84l-19 -4l-58 -2l-10 -3l-36 2q-22 -3 -35 -6l-10 2l-18 -2l-22 -1h-21l-6 -1q-20 -1 -36 -4q-32 49 -87 40q-100 -49 -28 -131q29 -15 58 -16z" />
    <glyph glyph-name="grave" unicode="`" horiz-adv-x="362" 
d="M63 1305q-43 -12 -62 -47l4 -63q27 -27 58 -35q253 -495 157 -4q79 24 71 102q-28 43 -71 51q-19 67 -86 71q-59 -24 -71 -75z" />
    <glyph glyph-name="a" unicode="a" horiz-adv-x="654" 
d="M270 909q-284 -36 -176 -267q21 -11 39 -14q36 0 36 36q65 -73 83 46q-36 65 -90 19q-11 3 -14 10q58 105 148 47q72 -104 -8 -176q-97 -76 -241 -62q-29 -14 -43 -39q-4 -29 0 -51q18 -32 39 -54q40 -148 -3 -278q-4 -29 3 -54q40 -50 101 -47q40 -28 83 -25l25 15
q18 36 18 64q29 36 65 33q29 -76 98 -65q65 -69 130 -7l3 14q7 22 4 40q29 40 29 76q-18 43 -51 64l-14 37l-8 162l4 14v33l4 25v65q0 11 3 14v11q18 43 26 76v25l-22 40l-61 68q-22 -7 -36 -3q3 21 3 36q-68 97 -133 111q-33 -14 -44 -39zM350 527l3 -170l4 -11v-93
l-11 -26q-25 -25 -50 -25q-76 61 -62 151l-28 29q28 36 36 76l25 22q47 32 76 65z" />
    <glyph glyph-name="b" unicode="b" horiz-adv-x="649" 
d="M422 1264l-16 -11q-27 -12 -42 -24q-112 -23 -186 -93l-85 62q11 39 -8 70q-42 16 -73 -12q-12 -30 -12 -58l12 -23l15 -15l35 -47l15 -23l24 -58v-124l3 -8q-3 -19 0 -31v-27q-3 -11 0 -23l-3 -8l3 -89l-3 -31l3 -7l-3 -8q3 -35 0 -62l3 -15q-3 -24 0 -58q-3 -4 0 -12
l-3 -8v-108q19 -16 38 -23q-19 -16 -38 -24v-42l3 -16q-7 -77 4 -124q-27 -50 -23 -96q47 -54 109 -62q119 -78 166 66q19 11 39 11q46 -69 108 -58q155 -116 151 70q27 35 35 69q-12 66 -66 86v236q-19 19 -31 27l8 8l23 19l4 77q42 39 39 89l-16 35l-8 12l-42 42
q-31 23 -47 43q-66 159 -162 15q-51 20 -93 4l-4 12l-4 77l-8 8l-23 19l27 24q39 135 159 181l73 55q39 112 -69 123q-62 -42 -31 -112zM352 759q12 -88 104 -92q-4 -40 0 -92q-4 -36 -4 -64v-220q-44 -108 -108 -28q-20 4 -32 12v512z" />
    <glyph glyph-name="c" unicode="c" horiz-adv-x="619" 
d="M218 952l-8 -7l-22 -18l-7 -4l-19 -26q-36 -33 -55 -63l11 -29q-74 0 -118 -104v-37l7 -29q15 -26 19 -41v-162l29 -15l-29 -33v-137q-56 -122 77 -111l23 -11q73 -55 114 -3q22 -93 111 -85q48 -78 133 -11q7 29 7 55q41 81 44 144q11 74 -62 81q-104 -44 -34 -122
q-121 -22 -206 63l-4 22q-11 37 -7 67q-8 55 0 96l-4 22l-4 74l4 29q0 23 4 37v41l11 59q66 151 210 92q19 -22 30 -48l-4 -7q-41 33 -78 7q-33 -37 -11 -81q41 -41 70 -4l8 -22q85 8 103 93q19 188 -255 188q-33 37 -70 44z" />
    <glyph glyph-name="d" unicode="d" horiz-adv-x="678" 
d="M440 1440q-23 -16 -35 -39q4 -42 20 -69l-4 -8q-4 -42 -12 -69l-11 3h-78l-15 -7h-12l-42 -16l-16 -4l-65 -23h-39q-27 58 -85 58q-34 -11 -46 -42q12 -50 46 -74l20 -3q31 -12 58 -12t46 4h11q93 0 151 -19l31 -20q8 -4 27 -23q15 -27 31 -42q27 -39 54 -62l-4 -16
q4 -19 0 -42q4 -43 -4 -70q-35 35 -81 24q-89 100 -166 -27l-58 -58q-54 -39 -81 -85q-8 -77 54 -120l-4 -19q8 -27 4 -50v-290l4 -23q-35 -62 -27 -124q39 -46 96 -42q20 -19 39 -27q46 -8 77 0l16 15q34 51 69 78q43 -16 62 -43q62 -11 100 -42q43 0 74 7q31 43 31 85v12
q23 15 34 35q0 69 -50 112q-19 57 -15 104l-27 27l27 23q4 12 0 23l4 124l-4 15q4 8 0 16l4 11l-4 12l4 127q3 31 0 54q7 27 3 50l8 35q35 46 27 97l-4 11l-23 43q-162 166 -150 366q-16 27 -39 39l-19 -4zM463 734v-182l-4 -19v-70q0 -23 -4 -38v-54l-3 -31q3 -35 -4 -62
q-20 -39 -47 -58q-50 4 -73 39l-4 34v58l4 12v54q-4 31 0 58q-11 15 -27 23l12 19q27 16 11 81l12 16q81 23 73 100q35 20 54 35q4 -8 0 -15z" />
    <glyph glyph-name="e" unicode="e" horiz-adv-x="631" 
d="M232 950l-19 -15l-78 -67q-38 -26 -56 -49q-53 -34 -75 -78l-4 -42q11 -33 26 -56v-30q4 -22 0 -37q0 -26 4 -45v-97l26 -11q-15 -4 -22 -12q-4 -30 -4 -52v-82q4 -41 -8 -71q30 -98 113 -68q56 -52 116 -7q22 -109 119 -86q60 -90 142 -4q4 37 -11 67q86 146 4 195
q-109 0 -60 -97l-11 -12q-232 -18 -206 214q34 -38 75 -19q37 37 19 82l18 26l15 15l12 8l7 11l97 86l12 8l14 15q30 18 49 37q19 34 23 60q-27 86 -86 134q-49 83 -135 57q-34 33 -75 37q-22 -11 -41 -15zM370 658l-30 -48l-41 -38l-11 -15q-37 -37 -56 -67q-19 127 19 232
q18 15 37 19q56 -34 82 -83z" />
    <glyph glyph-name="f" unicode="f" horiz-adv-x="571" 
d="M429 1360q-23 -23 -34 -49q-27 -23 -42 -46q-27 -20 -42 -39l-8 -7l-19 -20q-31 -15 -54 -42l-19 -38l-4 -35q54 -103 42 -199q-69 -31 -138 -19q-34 -19 -53 -54q-8 -107 88 -77q23 27 15 58q54 15 96 -8q-4 -46 -4 -111l4 -42q-8 -27 0 -50l-4 -15v-192q0 -23 -4 -38
q8 -43 0 -77q12 -15 27 -23l-19 -15v-196q-8 -34 -19 -57q-65 -69 -146 -46q84 42 23 107q-96 15 -115 -77v-34q100 -157 265 -73q42 15 69 42q57 -31 92 23l3 12q12 26 16 46l-4 30l-4 27l4 12v26q-8 46 -4 77v326l-4 42q4 12 0 16v76q-7 23 -4 46q0 157 119 92
q12 -11 16 -23q-46 -23 -39 -69q35 -38 77 -15q46 88 -12 165l4 11l16 19l38 50v19q-19 20 -46 20q-81 -58 -161 -58q-27 180 50 315q69 127 138 0q-130 27 -53 -99q96 -27 153 46q0 26 -15 42q23 30 19 57q-84 115 -212 122q-30 39 -76 31z" />
    <glyph glyph-name="g" unicode="g" horiz-adv-x="635" 
d="M208 942q-23 -19 -27 -27l-26 -26l-11 -15l-23 -19l-3 -7q-38 -34 -57 -60l-7 -4l-49 -60v-60l4 -7q22 -42 30 -72l-4 -19v-56q4 -7 0 -26l4 -19q-4 -22 0 -41v-131l-19 -79q4 -38 26 -64q42 -15 79 -8q60 -48 124 -18q49 -72 120 -83q22 -146 -41 -262
q-177 -113 -225 82l3 8q42 -53 87 -12q30 49 0 94q-87 41 -158 -11q-38 -86 -11 -165q90 -132 240 -158q67 -94 199 79q-4 23 -4 38q86 15 120 101q4 22 0 41l-26 68l-4 60l8 26v97q0 19 -4 30l4 31v108l-4 15l4 42v247q-15 15 -30 19l26 19v11q7 60 0 105q26 53 11 101
q-49 72 -113 30q-56 68 -120 19q-30 49 -78 56zM376 765v-401q0 -30 -3 -53l3 -7v-30l-3 -11q7 -34 0 -64l-15 -8q-117 38 -135 143q-19 4 -30 11l7 4l23 7v102q-34 266 127 315z" />
    <glyph glyph-name="h" unicode="h" horiz-adv-x="663" 
d="M436 1295l-12 -16q-24 -8 -36 -20l-56 -24q-92 -20 -156 -72q-32 44 -76 60q12 116 -92 64q-8 -28 -8 -52l24 -56l16 -24l44 -88l4 -52v-24q-4 -40 0 -96q-4 -60 0 -100v-396q20 -12 36 -12q-24 -16 -36 -32q-4 -32 0 -56l-4 -28v-32q-4 -48 0 -80q-12 -44 -8 -80
q40 -56 104 -48q80 -80 148 -8l4 72q28 48 20 92q-24 44 -68 68v264q-4 44 4 72l-4 12l4 32v92q32 -16 60 -16q-4 -80 72 -104q-12 -60 28 -96l-8 -8l-24 -16l4 -20v-488q8 -24 4 -48q12 -24 16 -40q48 -28 96 -16q116 -100 252 -76q156 100 44 232q-76 20 -104 -44
q-8 -64 52 -72q-84 -48 -152 28q-12 32 -16 60l4 28v364q4 32 0 56l4 8v112l4 8q40 36 56 72q-4 32 -12 52q-24 32 -44 48q-16 24 -40 40l-28 28l-8 12l-32 32q-24 32 -44 48l-24 8q-56 0 -84 -40q-48 0 -80 -8v32l4 12v96l-24 16q28 12 44 32q24 52 56 84l32 24l8 8l20 16
l24 16l8 8q60 40 92 80q24 88 -64 92q-64 -28 -48 -92z" />
    <glyph glyph-name="i" unicode="i" horiz-adv-x="361" 
d="M42 1190q-91 -128 61 -147q26 -34 60 -42q98 0 79 98q42 42 38 91q-38 61 -106 57q-30 38 -75 45q-83 -26 -57 -102zM23 843q-60 -95 38 -148q-8 -38 0 -68v-11q-11 -57 0 -98l34 -19q-23 -12 -38 -23v-125q0 -30 -4 -52q4 -23 0 -27l4 -7l-4 -12q4 -41 0 -68l-30 -56
q0 -27 8 -50q41 -49 102 -37q53 -53 117 -38q49 49 38 113q19 34 15 64q-12 53 -61 72q8 49 4 83v405l8 34l15 56q0 30 -12 57q-41 23 -79 19q-11 0 -15 -4q-34 38 -79 42q-76 -31 -61 -102z" />
    <glyph glyph-name="j" unicode="j" horiz-adv-x="341" 
d="M25 1187q-64 -118 73 -125l45 -38q121 -19 91 98q30 31 34 65q-22 64 -83 61q-31 38 -69 49q-110 -8 -91 -110zM18 861q-15 -23 -23 -42q0 -72 53 -110v-163q23 -8 34 -19q-41 -42 -34 -91v-92l4 -41l-4 -27q4 -34 0 -61v-296l-7 -30q-4 -45 -23 -80q-50 -56 -110 -79
q-88 41 -110 125q102 -30 79 87q-64 57 -136 8l-23 -38l-8 -30q46 -205 228 -259l42 -34q38 -3 68 4l46 46q34 41 64 64l-7 31l26 -4l99 98q0 72 -34 126q4 19 0 30v201l4 23l-4 72q4 19 0 30q4 19 4 46v398l3 8l19 76q0 34 -11 61q-42 37 -95 30q-38 23 -76 23
q-68 -27 -68 -91z" />
    <glyph glyph-name="k" unicode="k" horiz-adv-x="787" 
d="M347 1249l-12 -11l-66 -31q-85 -23 -143 -70q-31 35 -66 54q-31 97 -108 47l-4 -31l4 -16l58 -143v-23l4 -8l4 -19v-368q-4 -42 0 -70q-8 -46 0 -77l-4 -19l4 -240l-4 -8v-23q-23 -62 -16 -120q39 -58 97 -51q81 -62 147 0l8 39q-8 50 19 89v23q-19 55 -58 74q8 46 4 73
v299q-4 54 4 89q151 -24 197 -155q27 -116 -73 -128q35 139 -97 66q-23 -182 170 -140q-127 -278 20 -302q19 12 31 24q112 -116 251 -74q144 124 27 201q-127 12 -65 -104q-28 -19 -58 -12q-62 35 -82 101l-4 43q4 104 -34 189l15 20l15 38l24 109q35 31 35 77l-8 12
q-27 38 -51 62q-11 19 -38 46q-8 12 -27 31l-20 23q-11 31 -27 51q-89 42 -124 -39q-42 23 -81 4v46q-4 93 12 151q85 116 205 167l39 46q7 81 -74 74q-50 -31 -50 -86z" />
    <glyph glyph-name="l" unicode="l" horiz-adv-x="438" 
d="M-180 1224l8 -7q11 -23 30 -38q143 -75 188 -210l22 -11l-7 -8l-23 -15v-311q0 -41 -4 -64q8 -30 0 -53l4 -11l-4 -41v-176q12 -87 -11 -166v-37q45 -49 105 -49q83 -60 131 23v56q27 41 27 82l-8 23q-26 19 -41 38v15l-8 26v22l-7 45l-23 15q23 19 27 42l-4 45l4 26
l-4 60q4 38 0 64v308q4 11 7 37l23 64l11 22q53 75 68 154q-30 38 -68 27q-37 -27 -26 -64q-45 -30 -71 -68l-8 4l-56 37l-120 49q-42 15 -68 30q15 60 -19 102q-33 11 -60 7q-33 -45 -15 -94z" />
    <glyph glyph-name="m" unicode="m" horiz-adv-x="1005" 
d="M714 919l-15 -19q-27 -46 -62 -69q-69 88 -141 61q-100 89 -154 -38q-23 -19 -42 -27q-80 96 -130 50q-46 58 -111 38q-35 -38 -35 -84q-23 -34 -23 -73q12 -53 58 -73l15 -19v-145q-4 -12 0 -20q-4 -34 0 -57l-4 -42v-188l-4 -12v-30q-19 -39 -19 -73l12 -38
q42 -39 95 -31q54 -46 115 -27q58 46 35 107q19 23 19 46q-8 66 -61 89v23q-8 26 -4 49q4 31 0 54l4 8v107l-23 15l23 20v92l4 11q-4 31 0 46q19 31 38 46q111 -27 100 -130l23 -16l-23 -7v-119l-4 -42l4 -19q-4 -43 -4 -69v-46q4 -85 -19 -138v-58q38 -50 103 -46
q130 -88 142 65l31 39q0 84 -69 118v112q-4 72 3 118l-3 20l3 19l4 161l16 23l7 7l23 20q50 -27 81 -62q7 -23 7 -42v-188q0 -53 -3 -84q15 -19 30 -31l-30 -15v-38q-12 -54 0 -96q-31 -46 -16 -88q31 -58 85 -39q80 -84 145 -4q8 31 4 58q31 38 31 80q-23 46 -58 69v319
l4 11q-4 27 4 50q46 42 50 92q-12 15 -16 34l-19 20l-38 49l-15 20q-16 11 -23 23l-58 65q-34 7 -61 7z" />
    <glyph glyph-name="n" unicode="n" horiz-adv-x="686" 
d="M328 855q-19 -7 -30 -15q-88 80 -149 54q-73 72 -145 7q-8 -46 8 -84q-39 -103 49 -164q-11 -49 23 -76q-23 -15 -23 -61l-4 -12l4 -26q-7 -50 -4 -84l-3 -42q3 -153 -8 -207q-38 -110 99 -114q138 -84 145 72q19 23 31 54q-4 61 -69 99l-4 19l-4 19l4 245q4 23 0 42
l4 11v76q15 42 46 65q65 -30 95 -87q-3 -31 -3 -50v-42l-4 -12v-103q-4 -57 0 -95l19 -12q-19 -11 -27 -22q15 -100 -19 -187v-31q46 -61 107 -42q38 -50 99 -38q50 34 42 91q23 35 19 100q-34 34 -53 68v39l4 19q-4 11 0 23q-4 11 0 30l-4 12q7 34 4 61v168q45 49 53 103
q-11 23 -23 38q-19 27 -34 42l-54 61q-23 34 -42 53l-26 16l-42 3q-61 -26 -81 -84z" />
    <glyph glyph-name="o" unicode="o" horiz-adv-x="646" 
d="M222 927l-22 -19l-56 -48l-7 -11q-19 -11 -26 -26l-22 -18l-34 -30l-14 -18l-30 -37l4 -8q-11 -48 18 -88l4 -30v-48l-4 -30q-3 -37 4 -62l-4 -15v-93l-3 -11l3 -7v-30q0 -55 -3 -92q-26 -37 -30 -70q4 -19 15 -41q44 -41 92 -19q59 -48 126 -26q15 -51 55 -59l49 4
l59 41l85 85l22 18l15 19q29 26 44 51q4 56 -18 100l3 11q-3 23 0 41l-3 26l3 15v151q0 45 8 74q3 74 29 126q4 30 0 52q-37 48 -92 37q-52 66 -122 41q-30 66 -96 66q-26 -4 -52 -22zM362 698l4 -37l-4 -23q4 -37 0 -62l4 -12q-7 -22 -7 -59q0 -29 3 -48l-3 -15v-118
l-26 -74q-37 -52 -89 -70q-15 18 -22 37l-8 52l4 18v204l4 25q-4 23 0 37l-4 8q4 18 4 44l11 41q11 18 15 29l15 26q29 30 62 45q30 -19 37 -48z" />
    <glyph glyph-name="p" unicode="p" horiz-adv-x="708" 
d="M384 944l-8 -4q-35 -50 -81 -73q-65 54 -127 34q-46 58 -104 35q-50 -38 -35 -92q-27 -27 -34 -50q11 -70 61 -101l12 -23v-543q4 -69 0 -115q8 -19 23 -27q-8 -19 -23 -27l4 -12v-127q0 -34 -4 -61l4 -12l4 -46q7 -12 7 -23q50 -46 108 -23q112 -120 243 -62
q104 70 38 174q-73 65 -112 -12q-15 -54 35 -73q-181 -39 -131 289l31 30l27 39q8 23 19 38h23q50 -57 116 -38q58 -58 127 -31q46 50 19 108q19 23 23 50q-4 65 -57 96v147q7 50 3 84l4 170q27 27 39 54q-8 19 -8 34l-12 16q-19 30 -38 50q-8 7 -19 27l-16 15l-27 39
l-19 23l-8 3q-30 24 -54 31h-19zM395 686l4 -23l-4 -8q8 -19 4 -32.5t0 -17.5l-4 -23v-54l4 -27q-4 -39 0 -69q19 -8 31 -16q-23 -11 -39 -23q23 -112 -27 -185q-34 -15 -65 0q-19 20 -31 43l-11 61l3 20q-3 38 0 65l-3 8q3 19 0 50q3 27 0 50q7 42 3 73q-7 11 -23 19l23 23
q-3 73 43 120q57 -12 92 -54z" />
    <glyph glyph-name="q" unicode="q" horiz-adv-x="695" 
d="M391 942q-34 -61 -87 -91q-61 72 -133 38q-118 110 -133 -42q-30 -30 -38 -68q12 -69 65 -91l11 -23v-490l-19 -42q0 -30 8 -57q45 -57 106 -34q103 -95 144 34l19 19q31 4 54 -11q15 -38 7 -73q15 -19 31 -30l-27 -19q-30 -346 133 -300q83 -76 186 -68q118 26 84 140
q-38 76 -107 46q-30 -46 12 -80l-12 -11q-72 3 -102 57l-4 22l4 27l-4 11q4 19 0 31l4 7v585q0 23 3 38v145q0 19 4 30q50 42 31 103l-12 3l-4 8l-49 57l-8 -4l-18 -15q-4 34 3 61q-49 72 -110 98h-19zM395 676l4 -15q0 -30 4 -53l4 -15l-4 -38v-126l23 -19l-23 -19v-117
q-19 -38 -42 -61q-57 19 -84 68l-3 19l-4 42v258q-4 34 0 61q26 42 68 61q38 -15 57 -46z" />
    <glyph glyph-name="r" unicode="r" horiz-adv-x="652" 
d="M392 933q-38 -53 -84 -72l-34 4q-30 68 -91 42q-88 76 -156 -12q0 -30 7 -57q-38 -38 -34 -84q27 -45 65 -68v-461q-8 -26 -8 -45q-27 -42 -19 -84q34 -73 110 -57l27 -27q122 -27 114 95q23 19 31 42q-4 84 -69 126v110l8 23l-8 15l4 12v26l4 15q-4 31 0 54v11l-4 19
q8 50 4 84q19 42 49 65q23 11 46 7l11 -26l4 -76q46 -54 99 -39q61 -68 130 -15q26 46 7 92q65 87 -30 156q-19 -12 -31 -8q19 84 -99 149h-30z" />
    <glyph glyph-name="s" unicode="s" horiz-adv-x="733" 
d="M342 891l-31 -8q-92 50 -142 23q-54 47 -115 31q-46 -46 -23 -100q-54 -53 -12 -107q19 -19 42 -23l16 -19q0 -8 2 -15.5t5 -27.5q8 -30 8 -53l8 -23q0 -31 8 -58l3 -12l23 -42q27 -27 54 -42q23 -8 39 -23q107 -35 172 -108q-3 -19 -11 -30q-27 -27 -58 -31l-19 11
l-54 50q-23 39 -53 58h-31q-39 -8 -62 -8q-103 8 -80 -100q-54 -111 73 -107q153 -215 234 -58l31 12q69 -85 150 -50q61 -54 122 -8q16 35 8 65q65 96 -34 154q7 104 -31 184q-27 27 -81 58q-19 4 -38 15q-19 12 -43 16l-7 7l-58 23l-34 20q-43 46 -54 100q0 61 46 84
q81 -27 131 -104q42 -15 80 -4q50 -26 89 8q30 46 0 89q11 15 15 30q4 100 -88 69q-12 104 -108 112q-61 -16 -92 -58z" />
    <glyph glyph-name="t" unicode="t" horiz-adv-x="562" 
d="M32 1241q11 -23 26 -38q145 -88 186 -228q15 -8 23 -15q-8 -15 -23 -23q12 12 4 -26q-129 30 -196 -68q-15 -84 30 -141q46 -15 84 4q19 53 -23 87q49 38 83 0q19 -38 26 -64l3 -817q-1 -44 25 -63t74 6q76 -65 164 -69q110 -15 148 88q7 68 -27 117q-148 23 -83 -110
q-61 -4 -95 34q-19 35 -23 65q-4 319 4 365q-19 11 -34 15q15 15 30 23l4 350l4 22q27 42 68 54q38 -12 61 -31q8 -11 8 -23q-16 8 -27 8q-64 -95 53 -61q42 80 11 144q27 35 38 76q-15 35 -49 27q-190 -103 -167 38q4 64 87 155l-4 11q8 27 4 50q-64 53 -83 -53
q-50 -23 -80 -57l-12 11q-22 23 -41 32.5t-35 13.5l-41 22q-31 8 -46 23q-34 12 -57 31q12 91 -72 106q-46 -38 -30 -91z" />
    <glyph glyph-name="u" unicode="u" 
d="M26 849l-3 -8q-15 -15 -23 -26v-53q38 -42 53 -72l4 -23q-8 -26 -4 -49v-178l-4 -41l4 -8q-4 -15 0 -26q-8 -30 -4 -53l-45 -68q0 -30 4 -53q196 -306 294 -117l34 7q50 -64 118 -49q26 -19 52 -26q50 0 84 26q7 61 34 106q0 83 -76 121v215q0 23 4 38q-4 38 0 49v174
q87 193 -76 182q-45 37 -98 22q-53 -45 -42 -106q-41 -94 38 -162q0 -27 -4 -30v-144q4 -30 -3 -57l7 -7l27 -15q-19 -12 -31 -15l-3 -12v-64l-4 -8v-71q-27 -34 -61 -42q-68 53 -64 129l-26 11l22 15q8 42 4 72l8 170l-4 11l4 12l-4 7l4 27l3 83q19 38 23 68l-4 49
q-34 57 -94 45q-34 38 -80 42q-75 -27 -68 -98z" />
    <glyph glyph-name="v" unicode="v" horiz-adv-x="641" 
d="M34 849q-30 -34 -34 -68q15 -60 64 -94v-170l-4 -11q8 -53 0 -91q15 -15 34 -22l-34 -19v-76q12 -102 -18 -181q3 -30 11 -53q45 -34 90 -15q23 -34 57 -49q38 4 64 11l76 68l11 8l23 23l11 7l23 23l11 7l60 57l12 15l37 49q8 34 23 53v60l-4 19l4 61q-4 60 0 94l-23 19
q15 11 23 19v94q4 26 0 49q91 177 -60 177q-80 65 -140 -15q-8 -37 -8 -64q-30 -41 -30 -87q23 -45 57 -71l4 -19v-170q3 -38 -4 -68l4 -23l-4 -19l4 -22l-4 -30q0 -34 -4 -61q-19 -41 -45 -64q-49 23 -68 68l-4 23l-4 41v279q4 8 0 16v64q8 30 4 56q19 38 21 68t-6 53
q-38 45 -87 30q-34 49 -83 46q-71 -27 -60 -95z" />
    <glyph glyph-name="w" unicode="w" horiz-adv-x="996" 
d="M348 841q-22 -19 -30 -41q4 -70 52 -115v-366q4 -56 0 -93q-22 -29 -52 -37q-44 30 -66 63l-4 133q0 11 -4 15l4 15v126q-11 26 -26 37l26 22v11q-4 37 0 67q-4 74 19 129l3 23l-3 29q-41 52 -97 37q-37 48 -89 37q-55 -37 -40 -96q-30 -30 -41 -59q7 -59 56 -89l3 -152
l-3 -11l3 -11l-3 -7l3 -145l4 -18l-4 -15l4 -22v-134q-22 -33 -22 -92q7 -15 7 -26q45 -48 96 -26q97 -96 185 37q19 0 30 -4q48 -70 115 -37q89 -74 174 60l18 -8q37 -55 93 -63q22 11 37 15l15 15q15 22 29 37l26 37q11 18 22 29q23 41 45 63l4 34q-4 18 -11 29
q-41 30 -52 78v44q3 37 0 63v204q3 52 -4 85q26 59 15 115q-41 52 -96 33q-97 100 -145 -37l8 -37q-19 -44 -15 -81q22 -41 55 -59v-256l22 -11l-22 -11v-163q-18 -30 -44 -44q-93 33 -89 122l-22 15q22 14 26 33q-4 18 0 29v71l3 11l-7 22q7 41 0 74l4 152q7 30 3 48
q12 30 10 56t-10 40q-37 30 -74 23q-37 44 -85 51q-66 -37 -59 -103z" />
    <glyph glyph-name="x" unicode="x" horiz-adv-x="854" 
d="M53 846q-38 -57 -8 -113q34 -27 68 -27l12 -15l34 -49q26 -19 37 -45l19 -23q19 -30 38 -49l-4 -11q-22 -4 -38 -12q-79 19 -98 -37q-68 15 -105 -38q0 -11 -4 -15v-61l-4 -15v-68l4 -15q-4 -56 0 -94q19 -64 79 -57q128 -170 298 -60l23 34q19 75 -30 124
q-117 4 -64 -98l-12 -7q-26 -4 -45 3q-76 76 -57 170q23 121 129 174l19 -19l11 -15l11 -15l12 -15l11 -15l19 -23l4 -7l30 -38q4 -8 19 -27l19 -19l3 -7l49 -57q-26 -53 -11 -105q45 -38 94 -27q42 -41 95 -34q64 45 45 113q64 102 -38 129q-49 56 -64 72q-4 7 -15 22
q-19 19 -30 38q-23 15 -34 38l-42 4q19 49 -22 75q38 11 64 15q117 -7 211 34q27 53 -11 91q38 132 -19 241q-60 61 -136 38q-71 -30 -53 -102q53 -38 99 12q34 -50 15 -102q-23 -27 -46 -46l-26 -11q-23 -11 -38 -23q-72 -22 -117 -71l-23 26l-11 11l-4 8l-15 15
q-19 26 -30 38l-19 22l-60 80q38 75 -15 132q-46 7 -80 -4q-37 38 -79 42q-94 -23 -64 -110z" />
    <glyph glyph-name="y" unicode="y" horiz-adv-x="632" 
d="M33 847q-74 -48 15 -152l4 -22q-4 -56 3 -93q15 -4 26 -19l-26 -15l-3 -22l3 -11l-3 -41q0 -33 3 -56l-3 -7l3 -11q-3 -67 15 -119l11 -19q19 -37 52 -74l19 -15l18 -19l8 -3l7 -11l112 -101l11 -7l48 -49v-89l-3 -26l3 -7q-7 -34 -7 -60l-8 -18l-11 -30q-29 -26 -63 -33
q26 145 -97 66q-48 -89 23 -144q115 -26 208 26l7 22q56 -37 119 59l4 26l7 26l-3 26q3 19 0 30v45l3 22l-3 22v37q0 12 3 15l-3 19q7 45 5 74.5t-5 48.5l3 18v223q-22 11 -37 15q30 19 37 48l4 201l-4 15q8 56 4 93q31 41 36.5 75.5t-23 66.5t-87.5 14q-22 26 -52 33h-26
q-67 -29 -52 -96q-19 -15 -30 -30q-7 -30 -4 -56l26 -48l30 -37l-4 -26l4 -15l-4 -19q4 -29 0 -48v-193l-7 -82q-15 -52 -45 -86q-48 38 -70 82l-8 97l4 18v75l-4 22l4 19v137l-4 26l4 11l4 71q26 45 29 85q-29 53 -85 49q-41 52 -97 44q-63 -29 -48 -93z" />
    <glyph glyph-name="z" unicode="z" horiz-adv-x="776" 
d="M24 845q-61 -79 22 -121h31q37 -34 79 -34q45 15 72 46l22 3h64q91 4 148 -7l15 -19l-8 -23l-7 -7l-27 -46q-15 -26 -30 -41l-57 -57l-41 -4h-98q-8 -3 -27 -3q-49 0 -87 -12l-7 -3l-19 -15q-34 -91 57 -102q30 26 41 52l102 -3q-19 -19 -26 -31l-57 -60l-11 -15
l-117 -128l-19 -23l-27 -38q-7 -45 4 -79q19 -23 42 -30l45 -4q23 -27 49 -42h381q34 -15 57 -18q38 0 64 11q34 41 23 90q45 34 41 83q-15 42 -45 61l-41 4q-27 -8 -50 -4q-30 15 -60 11l-23 -11q-26 -23 -45 -34h-90q-57 -4 -95 0l-26 19l11 49l8 11l68 72q11 19 22 26
l4 8l41 45q12 19 27 30q102 19 162 -37l-4 -12q-60 4 -37 -53q34 -26 71 -15q46 91 -7 167q102 86 7 98q-52 -46 -109 -49q162 147 177 302l-30 45l-11 7q-30 8 -57 4q-30 27 -64 38q-49 0 -87 -15h-272q-30 15 -60 19q-83 -23 -79 -106z" />
    <glyph glyph-name="braceleft" unicode="{" horiz-adv-x="903" 
d="M583 1650q-43 -59 -81 -86q-334 0 -334 -514q-28 -255 -168 -348q162 -126 168 -295v-33l84 -13l-84 -56q0 -457 367 -457q54 -102 156 -92q54 33 70 92q60 22 87 65q16 119 -92 151q-27 92 -113 97l-49 -16q-65 -146 -154 -124.5t-82 146t-35.5 314t-112.5 214.5
q99 120 122 246t21 280t79 175.5t157 -118.5q38 -16 70 -16q81 27 92 102q59 17 91 65q17 119 -91 146q-38 108 -141 92z" />
    <glyph glyph-name="bar" unicode="|" horiz-adv-x="814" 
d="M488 -135q-10 39 -36 56l3 100q3 16 2 26l13 138q22 6 41 3q16 5 34 2q47 -2 77 8l1 12q4 8 3 12q1 24 5 56q7 31 7 48q-8 7 -16 3q-74 -48 -149 -57q-4 24 -3 41l-2 26q2 22 -2 39l1 68q4 17 2 35v8l-2 22q2 6 0 21q-4 24 -1 42q-16 9 -23 23q31 38 20 83l-1 38l-1 21
q1 12 -2 30q3 31 -1 51l1 77q-4 21 0 36q-5 19 -3 33q2 30 -1 51q1 22 -3 42v29q-1 14 1 24q-4 24 -2 43l-1 22l-2 63q-4 16 -4 29l-2 26q1 32 -3 56l-12 17l19 18l-2 35l1 12l-1 12l-1 87q-4 24 -2 43l-3 8q-12 57 -32 93q-8 -16 -9 -28l-8 -20l-12 -45v-20q-3 -26 -1 -45
q-4 -28 -3 -66q-2 -27 2 -47l-2 -10l2 -22l-7 -59l2 -11l3 -85l-2 -10l-4 -156q0 -20 2 -27q-6 -21 -5 -39q-2 -60 2 -80l-2 -219q-5 -57 -1 -94v-15q-1 -25 -3 -41t0 -26q-5 -37 -3 -59v-13l-2 -17l1 -35q0 -4 1 -16l1 -23v-24q-9 -28 -5 -52q-18 -6 -32 -4l-8 -1l-20 9
q-25 4 -41 13l-16 -9q-18 36 -50 44q-10 2 -17 -9l10 -54l1 -6q0 -41 15 -67l9 -2q29 3 45 -1l20 4l6 -2q51 -2 84 5l4 -20l3 -57l2 -10l-1 -36q3 -23 6 -35l-2 -11l2 -17l1 -23l1 -20l1 -6q1 -21 4 -37q-48 -32 -39 -87q50 -100 131 -27q15 30 16 59z" />
    <glyph glyph-name="braceright" unicode="}" horiz-adv-x="859" 
d="M253 -229q44 59 82 86q334 -1 336 513q28 255 169 347q-162 127 -168 296v33l-83 13l84 56q1 457 -366 458q-53 103 -156 92q-54 -32 -70 -91q-60 -22 -87 -65q-16 -119 91 -151q27 -92 113 -98l49 16q65 146 154 124t81.5 -146t34.5 -313.5t113 -215.5
q-100 -120 -123 -245.5t-22 -280t-80 -175.5t-156 119q-38 16 -70 16q-81 -26 -92 -102q-59 -16 -92 -64q-16 -119 91 -146q38 -108 140 -92z" />
    <glyph glyph-name="asciitilde" unicode="~" horiz-adv-x="1097" 
d="M798 794l-6 -23q-19 -26 -36 -37q-54 -11 -97 -2l-7 5l-62 26q-204 137 -396 19l-21 -6q-84 45 -131 -27q-9 -47 16 -78q-48 -75 24 -127q43 -4 77 13q147 -63 128 111q23 30 56 43l76 -4l24 -10l15 -5l27 -15l15 -6l96 -46l12 -1l20 -6l31 -7l28 -7q92 3 160 41l46 11
q178 -70 130 100q39 68 -8 121q-50 17 -96 2q-30 19 -62 22q-80 -32 -59 -107z" />
    <glyph glyph-name="Adieresis" unicode="&#xc4;" horiz-adv-x="1388" 
d="M484 1192l-30 -1q-115 -145 -212 -331q-22 -40 -40 -62q-67 -40 -86.5 -83t5.5 -133q-22 -76 -36 -107l-4 -18l-27 -112v-14l-9 -22v-31q-9 -14 -9 -41l-9 -13v-23q-5 -44 -18 -76q-9 -58 -9 -98l18 -23h366l10 188v4q-139 -80 -251 -35l-4 9l4 14q0 22 5 53q9 27 9 50
l9 44l9 32l9 31l36 112l18 18q95 25 112 94l9 -4q71 22 134 -21v-71q-89 -21 -92.5 -93t79.5 -93q24 -68 83 -72.5t78.5 27t26.5 54.5q57 14 60 86.5t-83 88.5v65q12 49 157 47q23 -45 59 -67q58 -9 98 -9q27 -41 40.5 -70t44.5 -34q-18 -22 -6 -52q51 -136 47 -248l-5 -27
q-13 -9 -18 -18h-13q-63 18 -103 14q-9 18 -5 36l-27 9q-40 26 -71 35l22 -197h502v14q-36 348 -172 630.5t-306 478t-266 253.5q-168 -135 -139 -188zM533 1062l-9 -170q9 -14 23 -18l-23 -23q-9 -44 -35 -80q-67 -46 -117 -14l-18 32q45 143 166 282zM728 997
q114 -149 101 -195q-27 -27 -36 -54q-71 -9 -121 27l-4 14q-9 44 -5 80l-4 32q4 36 0 62l-8 115zM909 1642q-20 64 -80 68q-64 -8 -72 -64q-84 -36 -64 -116q28 -36 64 -48q16 -64 76 -68q68 8 76 72q80 28 68 108q-28 40 -68 48zM482 1643q-20 64 -80 68q-64 -8 -72 -64
q-84 -36 -64 -116q28 -36 64 -48q16 -64 76 -68q68 8 76 72q80 28 68 108q-28 40 -68 48z" />
    <glyph glyph-name="Aring" unicode="&#xc5;" horiz-adv-x="1395" 
d="M484 1192l-30 -1q-115 -145 -212 -331q-22 -40 -40 -62q-67 -40 -86.5 -83t5.5 -133q-22 -76 -36 -107l-4 -18l-27 -112v-14l-9 -22v-31q-9 -14 -9 -41l-9 -13v-23q-5 -44 -18 -76q-9 -58 -9 -98l18 -23h366l10 188v4q-139 -80 -251 -35l-4 9l4 14q0 22 5 53q9 27 9 50
l9 44l9 32l9 31l36 112l18 18q95 25 112 94l9 -4q71 22 134 -21v-71q-89 -21 -92.5 -93t79.5 -93q24 -68 83 -72.5t78.5 27t26.5 54.5q57 14 60 86.5t-83 88.5v65q12 49 157 47q23 -45 59 -67q58 -9 98 -9q27 -41 40.5 -70t44.5 -34q-18 -22 -6 -52q51 -136 47 -248l-5 -27
q-13 -9 -18 -18h-13q-63 18 -103 14q-9 18 -5 36l-27 9q-40 26 -71 35l22 -197h502v14q-36 348 -172 630.5t-306 478t-266 253.5q-168 -135 -139 -188zM533 1062l-9 -170q9 -14 23 -18l-23 -23q-9 -44 -35 -80q-67 -46 -117 -14l-18 32q45 143 166 282zM728 997
q114 -149 101 -195q-27 -27 -36 -54q-71 -9 -121 27l-4 14q-9 44 -5 80l-4 32q4 36 0 62l-8 115zM404 1611q12 -109 98 -160l8 17q9 -17 12 -35q43 -20 80 -20q232 6 238 233q-43 203 -235 203q-209 -43 -201 -238zM748 1672q18 -3 29 -3l-6 -6l-17 -14q0 -109 -89 -155
q-106 -26 -158 66q-34 86 9 157l-11 29q17 0 28 -6q35 29 69 38q115 -3 146 -106z" />
    <glyph glyph-name="Ccedilla" unicode="&#xc7;" horiz-adv-x="1281" 
d="M398 1327l-31 -26l-22 -13l-44 -35q-8 -35 -8 -66l-9 -9q-44 -17 -75 -43l-83 -132q-4 -13 -9 -17l-21 -61l-5 -9l-22 -70q-13 -31 -17 -53l-5 -9q-30 -48 -43 -78q-5 -48 -5 -79l5 -9q17 -52 43 -87q5 -35 22 -57q31 -119 57 -158q31 -4 53 -17l-5 -53
q101 -136 237 -197l17 26q26 -35 40 -61l17 -9l83 -22q57 -13 105 -13l-48 -144q140 30 123 -88q-79 -52 -149 13l-4 -8q-22 -35 -27 -70q132 -101 250 13q70 149 -66 223q13 35 18 61l17 5l26 4q44 9 75 22l66 17q21 -17 30 -30l5 -31q8 -26 8 -44q0 -35 5 -61
q-5 -17 0 -48v-31l-5 -8v-79l35 4l13 -4h49l30 -5l9 5l13 -5q31 5 57 0q-123 175 -118 364q-18 43 -48 74q-53 22 -101 18q-368 -158 -543 205q-22 0 -39 13l4 71l-17 43l-5 18l-26 74q61 62 57 140q-13 40 -31 66q9 57 -13 92q18 13 31 35q52 210 210 315q149 118 306 53
q250 -132 40 -443l13 -4l22 4h26l35 5h35l9 4q44 -4 79 9q-5 35 0 57l-5 17l5 197l4 9l4 70l18 40q9 39 22 70l17 22l53 65h-149q-35 5 -66 -4q0 -26 -8 -44q-114 66 -228 48l-13 9h-188l-18 -13q-22 13 -44 13z" />
    <glyph glyph-name="Eacute" unicode="&#xc9;" horiz-adv-x="1371" 
d="M571 1367l-27 22q-172 -48 -276 -169l5 -47q-26 -17 -57 -22l-8 -12l-22 -31l-61 -100q-3 -13 -8 -17l-9 -26q-17 -30 -34 -78q-14 -35 -26 -55q-14 -66 -43 -113q0 -39 -5 -69q17 -60 48 -96q12 -146 91 -251q26 5 47 0q-18 -103 78 -159q86 -109 164 -69q8 -17 8 -31
q252 -117 477 -17l51 -9l21 -31q0 -43 9 -72l5 -48q-5 -17 -5 -48q0 -65 10 -108l8 -12l18 3l17 5l17 -5h138l-13 35q-99 139 -95 290l-13 26q-17 43 -43 70q-61 25 -113 21q-398 -143 -544 229q-17 13 -35 13q4 43 -13 78q-57 121 95 108q4 21 13 35q17 -40 108 -35
q40 -126 -69 -272l47 8l26 4q99 13 130 27v155q-4 34 9 65q8 -5 17 0h22q12 5 34 8q40 0 69 9h14q26 0 43 5l8 4l65 5l13 3l31 5l47 4l30 8q74 -86 173 -51q125 139 -26 230q-99 12 -151 -70l-142 13l-26 4l-57 5l-65 3l-8 5h-26l-35 4l-30 5q-13 26 -9 48l5 72v74l-5 39
l-17 4l-31 5h-46l-36 5l-69 3q82 -121 82 -246l-30 -4l-143 -5l-38 5l-31 26v30l9 30v26l5 13l4 39l-26 18q34 8 51 25q143 329 429 308q285 -91 117 -446l12 -4l31 4h74q34 -4 64 5q8 29 13 86v177l5 17l4 22v39q8 26 8 52l9 13q22 86 69 146l-18 5h-63l-36 -5h-69
q-4 -34 -12 -56q-105 61 -208 61l-13 -13q-61 34 -131 31h-17q-38 -14 -64 -40zM655 1830q-43 -12 -62 -47l4 -63q27 -27 58 -35q-118 -486 157 -4q79 24 71 102q-28 43 -71 51q-19 67 -86 71q-59 -24 -71 -75z" />
    <glyph glyph-name="Ntilde" unicode="&#xd1;" horiz-adv-x="1570" 
d="M952.5 1401.5q-17.5 -7.5 -37.5 -2.5q-187 -22 -304 -144q-4 18 -4 48q-18 31 -18 52q-126 118 -252 19h-125q-23 0 -36 -5q-35 8 -66 5q-3 -10 -3 -31l-9 -17l-5 -31q0 -18 -3 -43q-14 -35 -14 -66h26q39 21 53 26q38 22 69 31v21q39 -30 79 -9q12 -17 17 -34v-191
q4 -66 -48 -100l-22 4q-109 165 -186 0l-31 -13q-91 -101 31 -156q29 -48 74 -74q69 9 91 65q17 17 38 26q48 -26 53 -74v-196q21 -31 38 -48q-26 -21 -12 -48q-48 -43 -26 -134l-9 -35q-70 -44 -65 -122q35 -60 91 -78q86 -87 191 -47l22 26q9 21 18 34q39 31 56 65v18
l-8 74l-48 56v83q-5 48 0 77v148q39 48 51 101l-3 74q-23 38 -45 64v57q9 65 22 110q66 220 279 208q117 -7 198 -119q84 -155 36 -399l-9 -17v-13l-21 -47l-8 -14q-9 -34 -22.5 -62.5t-30.5 -54.5l-26 -61q-17 -30 -22 -57l-52 -121q-4 -13 -9 -17v-19l-8 -12l-17 -87
q3 -44 -5 -74q8 -4 8 -9q5 -126 79 -213q196 -217 426 -74l30 -60h144q17 8 30 8q-21 126 -100 196l27 12l-5 28l-5 25q-8 39 -12 100l4 13v61q13 48 8 91l-47 14l-61 4l-30 4l-48 4l-5 -26q100 -182 26 -335q-86 -143 -243 -74q-99 100 -96 222q14 26 18 50t8 29
q5 26 17 65l14 30q31 48 43 87l14 14q22 26 30 43l30 39l39 56q48 61 71 105q0 25 -10 43q22 13 36 17q-5 27 -18 44q38 26 64 52q35 315 -61 492.5t-236 203.5q-95 27 -112.5 19.5zM986 1658l-6 -18q-16 -20 -30 -27q-42 -6 -75 3l-6 4l-46 23q-152 116 -307 34l-16 -4
q-63 39 -103 -15q-9 -36 9 -61q-41 -57 12 -100q34 -5 61 6q110 -56 104 81q19 22 46 30l59 -6l17 -9l12 -5l20 -13l12 -5l72 -40l9 -1l15 -6l24 -7l21 -7q72 -2 127 24l36 7q135 -63 106 71q33 51 -1 95q-38 15 -74 5q-23 17 -47 21q-64 -22 -51 -80z" />
    <glyph glyph-name="Odieresis" unicode="&#xd6;" horiz-adv-x="1460" 
d="M296 1231l10 -42h-50q-147 -179 -175 -385q-13 -17 -13 -36q-81 -57 -63 -152q31 -68 76 -113q19 -125 85 -210q23 0 37 -3q-14 -23 -14 -46q278 -328 641 -287q201 90 188 107l60 40q7 5 40 46q57 44 89 94q0 36 -13 59q30 13 53 13q71 107 77 219q148 130 3 265
q-9 34 -23 57l-3 27l-45 100l-9 13l-13 27q-10 26 -40 68l-46 76q-27 7 -50 7v46q-196 197 -448 184q-209 -40 -354 -174zM938 1095l22 -35l36 -54v-14l9 -13l36 -95l27 -8q-27 -45 -10 -89q-53 -63 -48 -136q13 -75 53 -130q0 -13 -5 -18l-4 -13l-4 -30q-22 -68 -22 -100
l-3 -13q-18 -53 -49 -112t-129 -93q-93 -28 -117 -37q-218 32 -317 225q-31 7 -57 3q17 17 26 37q-41 80 -41 151q41 55 50 108q5 82 -50 139q9 400 349 480q163 -27 248 -153zM989 1662q-20 64 -80 68q-64 -8 -72 -64q-84 -36 -64 -116q28 -36 64 -48q16 -64 76 -68
q68 8 76 72q80 28 68 108q-28 40 -68 48zM562 1663q-20 64 -80 68q-64 -8 -72 -64q-84 -36 -64 -116q28 -36 64 -48q16 -64 76 -68q68 8 76 72q80 28 68 108q-28 40 -68 48z" />
    <glyph glyph-name="Udieresis" unicode="&#xdc;" horiz-adv-x="1669" 
d="M705 234l-50 37q-30 21 -47 43q-13 29 -26 46l-4 22l-8 21q-13 42 -26 64l4 8l-4 89l4 26l5 47q8 38 8 68l30 89v13q13 46 25 59q13 55 39 94l4 29l25 98q5 90 -17 153l-4 30q-178 319 -476 162l-8 8q-5 34 -17 60l-56 -9h-25q-47 -8 -77 -8l-4 -26q21 -42 26 -76l21 -68
l38 -17q-17 -17 -21 -39l4 -17v-34l4 -12v-60l5 -13v-25q-5 -17 -5 -47q-4 -47 0 -77h26l30 -8h29l22 -4l29 -5l26 -4l4 30q-136 353 136 408q140 -34 174 -161v-34q-4 -51 -12 -85l-9 -13l-8 -21q-26 -34 -34 -60l-13 -13q-4 -13 -9 -17l-17 -30q-8 -25 -21 -38l-13 -21
l-85 -174l-4 -22l-4 -34q-4 -38 -4 -68q12 -34 34 -55q-22 -8 -34 -17q25 -340 301 -489l19 -9l34 -11l102 -5q47 1 80 15t66 33q125 117 201 -14q123 -90 200 38q68 17 93 72q-12 85 -80 124l4 34q-9 63 -4 106l-17 4l4 26l-17 4l8 8l17 26l5 17v42q0 26 4 43v161
q17 30 42 43q26 -9 39 -21q89 -107 166 0q25 0 46 12q85 98 -34 162q-12 51 -55 68q-89 13 -132 -72h-21q-26 17 -43 34l-4 21q4 9 0 17v230l21 21q47 -13 73 4l8 -25l60 -26l30 -13l55 -29l13 8l-13 55q-9 77 -26 128l-8 4h-81l-30 -4h-93q-153 119 -272 -17
q-72 -91 21 -200q-13 -76 30 -89q-26 -26 -30 -51v-175q-13 -21 -17 -34l-43 -63l-8 -51q4 -39 13 -68q72 -102 38 -213q-89 -174 -264 -204l-86 19zM1142 1684q-20 64 -80 68q-64 -8 -72 -64q-84 -36 -64 -116q28 -36 64 -48q16 -64 76 -68q68 8 76 72q80 28 68 108
q-28 40 -68 48zM715 1685q-20 64 -80 68q-64 -8 -72 -64q-84 -36 -64 -116q28 -36 64 -48q16 -64 76 -68q68 8 76 72q80 28 68 108q-28 40 -68 48z" />
    <glyph glyph-name="aacute" unicode="&#xe1;" horiz-adv-x="647" 
d="M270 909q-284 -36 -176 -267q21 -11 39 -14q36 0 36 36q65 -73 83 46q-36 65 -90 19q-11 3 -14 10q58 105 148 47q72 -104 -8 -176q-97 -76 -241 -62q-29 -14 -43 -39q-4 -29 0 -51q18 -32 39 -54q40 -148 -3 -278q-4 -29 3 -54q40 -50 101 -47q40 -28 83 -25l25 15
q18 36 18 64q29 36 65 33q29 -76 98 -65q65 -69 130 -7l3 14q7 22 4 40q29 40 29 76q-18 43 -51 64l-14 37l-8 162l4 14v33l4 25v65q0 11 3 14v11q18 43 26 76v25l-22 40l-61 68q-22 -7 -36 -3q3 21 3 36q-68 97 -133 111q-33 -14 -44 -39zM350 527l3 -170l4 -11v-93
l-11 -26q-25 -25 -50 -25q-76 61 -62 151l-28 29q28 36 36 76l25 22q47 32 76 65zM236 1330q-43 -12 -62 -47l4 -63q27 -27 58 -35q-118 -486 157 -4q79 24 71 102q-28 43 -71 51q-19 67 -86 71q-59 -24 -71 -75z" />
    <glyph glyph-name="agrave" unicode="&#xe0;" horiz-adv-x="651" 
d="M270 909q-284 -36 -176 -267q21 -11 39 -14q36 0 36 36q65 -73 83 46q-36 65 -90 19q-11 3 -14 10q58 105 148 47q72 -104 -8 -176q-97 -76 -241 -62q-29 -14 -43 -39q-4 -29 0 -51q18 -32 39 -54q40 -148 -3 -278q-4 -29 3 -54q40 -50 101 -47q40 -28 83 -25l25 15
q18 36 18 64q29 36 65 33q29 -76 98 -65q65 -69 130 -7l3 14q7 22 4 40q29 40 29 76q-18 43 -51 64l-14 37l-8 162l4 14v33l4 25v65q0 11 3 14v11q18 43 26 76v25l-22 40l-61 68q-22 -7 -36 -3q3 21 3 36q-68 97 -133 111q-33 -14 -44 -39zM350 527l3 -170l4 -11v-93
l-11 -26q-25 -25 -50 -25q-76 61 -62 151l-28 29q28 36 36 76l25 22q47 32 76 65zM163 1366q-43 -12 -62 -47l4 -63q27 -27 58 -35q253 -495 157 -4q79 24 71 102q-28 43 -71 51q-19 67 -86 71q-59 -24 -71 -75z" />
    <glyph glyph-name="acircumflex" unicode="&#xe2;" horiz-adv-x="651" 
d="M270 909q-284 -36 -176 -267q21 -11 39 -14q36 0 36 36q65 -73 83 46q-36 65 -90 19q-11 3 -14 10q58 105 148 47q72 -104 -8 -176q-97 -76 -241 -62q-29 -14 -43 -39q-4 -29 0 -51q18 -32 39 -54q40 -148 -3 -278q-4 -29 3 -54q40 -50 101 -47q40 -28 83 -25l25 15
q18 36 18 64q29 36 65 33q29 -76 98 -65q65 -69 130 -7l3 14q7 22 4 40q29 40 29 76q-18 43 -51 64l-14 37l-8 162l4 14v33l4 25v65q0 11 3 14v11q18 43 26 76v25l-22 40l-61 68q-22 -7 -36 -3q3 21 3 36q-68 97 -133 111q-33 -14 -44 -39zM350 527l3 -170l4 -11v-93
l-11 -26q-25 -25 -50 -25q-76 61 -62 151l-28 29q28 36 36 76l25 22q47 32 76 65zM525 1012l-9 10q-23 27 -30 37l-11 13q-3 5 -7 7l-23 28l-11 13l-9 11l-14 16l-2 3q-13 13 -18 23q-14 -2 -27 2q6 12 7 21l-8 11q-6 9 -11 13q-7 10 -14 17l-2 4l-14 18l-9 -1
q-4 -5 -11 -12l-7 -9q-7 -11 -14 -18q-4 -5 -6.5 -9.5t-6.5 -6.5l-7 -9l-9 -11l-2 -3l-14 -18l-2 -3q-13 -15 -29 -36l-13 -14l-5 -7l-9 -11l-25 -29l-2 -3l-19 -22l7 -21q-25 10 -40 -16v-6l38 -37q15 -12 22 -21l3 2q0 9 2 14q1 21 5 36q48 110 140 160h14
q76 -39 115 -105q9 -9 18 -3l5 -4q-7 -5 -11 -11l4 -10q21 -41 22 -80l7 3l54 56v5z" />
    <glyph glyph-name="adieresis" unicode="&#xe4;" horiz-adv-x="658" 
d="M270 909q-284 -36 -176 -267q21 -11 39 -14q36 0 36 36q65 -73 83 46q-36 65 -90 19q-11 3 -14 10q58 105 148 47q72 -104 -8 -176q-97 -76 -241 -62q-29 -14 -43 -39q-4 -29 0 -51q18 -32 39 -54q40 -148 -3 -278q-4 -29 3 -54q40 -50 101 -47q40 -28 83 -25l25 15
q18 36 18 64q29 36 65 33q29 -76 98 -65q65 -69 130 -7l3 14q7 22 4 40q29 40 29 76q-18 43 -51 64l-14 37l-8 162l4 14v33l4 25v65q0 11 3 14v11q18 43 26 76v25l-22 40l-61 68q-22 -7 -36 -3q3 21 3 36q-68 97 -133 111q-33 -14 -44 -39zM350 527l3 -170l4 -11v-93
l-11 -26q-25 -25 -50 -25q-76 61 -62 151l-28 29q28 36 36 76l25 22q47 32 76 65zM589 1172q-20 64 -80 68q-64 -8 -72 -64q-84 -36 -64 -116q28 -36 64 -48q16 -64 76 -68q68 8 76 72q80 28 68 108q-28 40 -68 48zM194 1173q-20 64 -80 68q-64 -8 -72 -64q-84 -36 -64 -116
q28 -36 64 -48q16 -64 76 -68q68 8 76 72q80 28 68 108q-28 40 -68 48z" />
    <glyph glyph-name="atilde" unicode="&#xe3;" horiz-adv-x="668" 
d="M270 909q-284 -36 -176 -267q21 -11 39 -14q36 0 36 36q65 -73 83 46q-36 65 -90 19q-11 3 -14 10q58 105 148 47q72 -104 -8 -176q-97 -76 -241 -62q-29 -14 -43 -39q-4 -29 0 -51q18 -32 39 -54q40 -148 -3 -278q-4 -29 3 -54q40 -50 101 -47q40 -28 83 -25l25 15
q18 36 18 64q29 36 65 33q29 -76 98 -65q65 -69 130 -7l3 14q7 22 4 40q29 40 29 76q-18 43 -51 64l-14 37l-8 162l4 14v33l4 25v65q0 11 3 14v11q18 43 26 76v25l-22 40l-61 68q-22 -7 -36 -3q3 21 3 36q-68 97 -133 111q-33 -14 -44 -39zM350 527l3 -170l4 -11v-93
l-11 -26q-25 -25 -50 -25q-76 61 -62 151l-28 29q28 36 36 76l25 22q47 32 76 65zM454 1073l-5 -15q-13 -16 -24 -22q-34 -5 -62 2l-4 4l-39 19q-124 95 -251 27l-13 -3q-52 32 -85 -12q-7 -30 8 -50q-34 -46 10 -82q27 -4 50 5q90 -45 85 66q16 19 38 25l48 -5l14 -7l10 -4
l16 -11l10 -4l59 -33l8 -1l12 -5l20 -5l17 -6q59 -2 104 20l29 5q111 -51 87 59q27 42 0 77q-32 13 -62 5q-18 13 -38 16q-52 -17 -42 -65z" />
    <glyph glyph-name="aring" unicode="&#xe5;" horiz-adv-x="655" 
d="M270 909q-284 -36 -176 -267q21 -11 39 -14q36 0 36 36q65 -73 83 46q-36 65 -90 19q-11 3 -14 10q58 105 148 47q72 -104 -8 -176q-97 -76 -241 -62q-29 -14 -43 -39q-4 -29 0 -51q18 -32 39 -54q40 -148 -3 -278q-4 -29 3 -54q40 -50 101 -47q40 -28 83 -25l25 15
q18 36 18 64q29 36 65 33q29 -76 98 -65q65 -69 130 -7l3 14q7 22 4 40q29 40 29 76q-18 43 -51 64l-14 37l-8 162l4 14v33l4 25v65q0 11 3 14v11q18 43 26 76v25l-22 40l-61 68q-22 -7 -36 -3q3 21 3 36q-68 97 -133 111q-33 -14 -44 -39zM350 527l3 -170l4 -11v-93
l-11 -26q-25 -25 -50 -25q-76 61 -62 151l-28 29q28 36 36 76l25 22q47 32 76 65zM116 1111q9 -84 76 -123l6 13q7 -13 9 -27q33 -16 62 -16q179 5 183 180q-33 156 -181 156q-161 -33 -155 -183zM381 1158q14 -2 23 -2l-5 -5l-13 -11q0 -84 -69 -119q-81 -20 -121 51
q-27 66 6 121l-8 22q13 0 22 -5q27 23 53 30q88 -3 112 -82z" />
    <glyph glyph-name="ccedilla" unicode="&#xe7;" horiz-adv-x="540" 
d="M218 952l-8 -7l-22 -18l-7 -4l-19 -26q-36 -33 -55 -63l11 -29q-74 0 -118 -104v-37l7 -29q15 -26 19 -41v-162l29 -15l-29 -33v-137q-56 -122 77 -111l23 -11q67 -66 114 -3q22 -93 111 -85q48 -78 133 -11q7 29 7 55q41 81 44 144q11 74 -62 81q-104 -44 -34 -122
q-121 -22 -206 63l-4 22q-11 37 -7 67q-8 55 0 96l-4 22l-4 74l4 29q0 23 4 37v41l11 59q66 151 210 92q19 -22 30 -48l-4 -7q-41 33 -78 7q-33 -37 -11 -81q41 -41 70 -4l8 -22q85 8 103 93q19 188 -255 188q-33 37 -70 44zM247 125q-44 7 -68 -69l-49 -154q140 30 122 -88
q-78 -52 -148 13l-5 -9q-22 -35 -26 -70q131 -100 250 14q70 148 -66 223l29 73z" />
    <glyph glyph-name="eacute" unicode="&#xe9;" horiz-adv-x="626" 
d="M232 950l-19 -15l-78 -67q-38 -26 -56 -49q-53 -34 -75 -78l-4 -42q11 -33 26 -56v-30q4 -22 0 -37q0 -26 4 -45v-97l26 -11q-15 -4 -22 -12q-4 -30 -4 -52v-82q4 -41 -8 -71q30 -98 113 -68q56 -52 116 -7q22 -109 119 -86q60 -90 142 -4q4 37 -11 67q86 146 4 195
q-109 0 -60 -97l-11 -12q-232 -18 -206 214q34 -38 75 -19q37 37 19 82l18 26l15 15l12 8l7 11l97 86l12 8l14 15q30 18 49 37q19 34 23 60q-27 86 -86 134q-49 83 -135 57q-34 33 -75 37q-22 -11 -41 -15zM370 658l-30 -48l-41 -38l-11 -15q-37 -37 -56 -67q-19 127 19 232
q18 15 37 19q56 -34 82 -83zM236 1330q-43 -12 -62 -47l4 -63q27 -27 58 -35q-118 -486 157 -4q79 24 71 102q-28 43 -71 51q-19 67 -86 71q-59 -24 -71 -75z" />
    <glyph glyph-name="egrave" unicode="&#xe8;" horiz-adv-x="610" 
d="M232 950l-19 -15l-78 -67q-38 -26 -56 -49q-53 -34 -75 -78l-4 -42q11 -33 26 -56v-30q4 -22 0 -37q0 -26 4 -45v-97l26 -11q-15 -4 -22 -12q-4 -30 -4 -52v-82q4 -41 -8 -71q30 -98 113 -68q56 -52 116 -7q22 -109 119 -86q60 -90 142 -4q4 37 -11 67q86 146 4 195
q-109 0 -60 -97l-11 -12q-232 -18 -206 214q34 -38 75 -19q37 37 19 82l18 26l15 15l12 8l7 11l97 86l12 8l14 15q30 18 49 37q19 34 23 60q-27 86 -86 134q-49 83 -135 57q-34 33 -75 37q-22 -11 -41 -15zM370 658l-30 -48l-41 -38l-11 -15q-37 -37 -56 -67q-19 127 19 232
q18 15 37 19q56 -34 82 -83zM163 1366q-43 -12 -62 -47l4 -63q27 -27 58 -35q253 -495 157 -4q79 24 71 102q-28 43 -71 51q-19 67 -86 71q-59 -24 -71 -75z" />
    <glyph glyph-name="ecircumflex" unicode="&#xea;" horiz-adv-x="630" 
d="M232 950l-19 -15l-78 -67q-38 -26 -56 -49q-53 -34 -75 -78l-4 -42q11 -33 26 -56v-30q4 -22 0 -37q0 -26 4 -45v-97l26 -11q-15 -4 -22 -12q-4 -30 -4 -52v-82q4 -41 -8 -71q30 -98 113 -68q56 -52 116 -7q22 -109 119 -86q60 -90 142 -4q4 37 -11 67q86 146 4 195
q-109 0 -60 -97l-11 -12q-232 -18 -206 214q34 -38 75 -19q37 37 19 82l18 26l15 15l12 8l7 11l97 86l12 8l14 15q30 18 49 37q19 34 23 60q-27 86 -86 134q-49 83 -135 57q-34 33 -75 37q-22 -11 -41 -15zM370 658l-30 -48l-41 -38l-11 -15q-37 -37 -56 -67q-19 127 19 232
q18 15 37 19q56 -34 82 -83zM525 1012l-9 10q-23 27 -30 37l-11 13q-3 5 -7 7l-23 28l-11 13l-9 11l-14 16l-2 3q-13 13 -18 23q-14 -2 -27 2q6 12 7 21l-8 11q-6 9 -11 13q-7 10 -14 17l-2 4l-14 18l-9 -1q-4 -5 -11 -12l-7 -9q-7 -11 -14 -18q-4 -5 -6.5 -9.5t-6.5 -6.5
l-7 -9l-9 -11l-2 -3l-14 -18l-2 -3q-13 -15 -29 -36l-13 -14l-5 -7l-9 -11l-25 -29l-2 -3l-19 -22l7 -21q-25 10 -40 -16v-6l38 -37q15 -12 22 -21l3 2q0 9 2 14q1 21 5 36q48 110 140 160h14q76 -39 115 -105q9 -9 18 -3l5 -4q-7 -5 -11 -11l4 -10q21 -41 22 -80l7 3l54 56
v5z" />
    <glyph glyph-name="edieresis" unicode="&#xeb;" horiz-adv-x="606" 
d="M232 950l-19 -15l-78 -67q-38 -26 -56 -49q-53 -34 -75 -78l-4 -42q11 -33 26 -56v-30q4 -22 0 -37q0 -26 4 -45v-97l26 -11q-15 -4 -22 -12q-4 -30 -4 -52v-82q4 -41 -8 -71q30 -98 113 -68q56 -52 116 -7q22 -109 119 -86q60 -90 142 -4q4 37 -11 67q86 146 4 195
q-109 0 -60 -97l-11 -12q-232 -18 -206 214q34 -38 75 -19q37 37 19 82l18 26l15 15l12 8l7 11l97 86l12 8l14 15q30 18 49 37q19 34 23 60q-27 86 -86 134q-49 83 -135 57q-34 33 -75 37q-22 -11 -41 -15zM370 658l-30 -48l-41 -38l-11 -15q-37 -37 -56 -67q-19 127 19 232
q18 15 37 19q56 -34 82 -83zM589 1172q-20 64 -80 68q-64 -8 -72 -64q-84 -36 -64 -116q28 -36 64 -48q16 -64 76 -68q68 8 76 72q80 28 68 108q-28 40 -68 48zM194 1173q-20 64 -80 68q-64 -8 -72 -64q-84 -36 -64 -116q28 -36 64 -48q16 -64 76 -68q68 8 76 72
q80 28 68 108q-28 40 -68 48z" />
    <glyph glyph-name="iacute" unicode="&#xed;" horiz-adv-x="364" 
d="M23 843q-60 -95 38 -148q-8 -38 0 -68v-11q-11 -57 0 -98l34 -19q-23 -12 -38 -23v-125q0 -30 -4 -52q4 -23 0 -27l4 -7l-4 -12q4 -41 0 -68l-30 -56q0 -27 8 -50q41 -49 102 -37q53 -53 117 -38q49 49 38 113q19 34 15 64q-12 53 -61 72q8 49 4 83v405l8 34l15 56
q0 30 -12 57q-41 23 -79 19q-11 0 -15 -4q-34 38 -79 42q-76 -31 -61 -102zM64 1343q-43 -12 -62 -47l4 -63q27 -27 58 -35q-118 -486 157 -4q79 24 71 102q-28 43 -71 51q-19 67 -86 71q-59 -24 -71 -75z" />
    <glyph glyph-name="igrave" unicode="&#xec;" horiz-adv-x="332" 
d="M23 843q-60 -95 38 -148q-8 -38 0 -68v-11q-11 -57 0 -98l34 -19q-23 -12 -38 -23v-125q0 -30 -4 -52q4 -23 0 -27l4 -7l-4 -12q4 -41 0 -68l-30 -56q0 -27 8 -50q41 -49 102 -37q53 -53 117 -38q49 49 38 113q19 34 15 64q-12 53 -61 72q8 49 4 83v405l8 34l15 56
q0 30 -12 57q-41 23 -79 19q-11 0 -15 -4q-34 38 -79 42q-76 -31 -61 -102zM51 1338q-43 -12 -62 -47l4 -63q27 -27 58 -35q253 -495 157 -4q79 24 71 102q-28 43 -71 51q-19 67 -86 71q-59 -24 -71 -75z" />
    <glyph glyph-name="icircumflex" unicode="&#xee;" horiz-adv-x="396" 
d="M23 843q-60 -95 38 -148q-8 -38 0 -68v-11q-11 -57 0 -98l34 -19q-23 -12 -38 -23v-125q0 -30 -4 -52q4 -23 0 -27l4 -7l-4 -12q4 -41 0 -68l-30 -56q0 -27 8 -50q41 -49 102 -37q53 -53 117 -38q49 49 38 113q19 34 15 64q-12 53 -61 72q8 49 4 83v405l8 34l15 56
q0 30 -12 57q-41 23 -79 19q-11 0 -15 -4q-34 38 -79 42q-76 -31 -61 -102zM335 1004l-9 11q-24 26 -31 37l-10 12q-4 6 -7 7l-24 29l-10 12l-9 11l-15 16l-2 4q-12 12 -17 23q-15 -2 -27 1q5 13 7 22l-9 10q-5 9 -11 13q-7 11 -14 18l-2 3l-14 18h-9q-3 -6 -10 -13l-8 -9
q-7 -10 -14 -17q-3 -6 -6 -10.5t-6 -6.5l-7 -8l-9 -11l-2 -4l-14 -17l-2 -4q-14 -14 -30 -36l-12 -14l-6 -7l-9 -11l-25 -28l-1 -4l-20 -22l7 -20q-25 10 -39 -17v-5l38 -37q14 -13 21 -22l4 2q0 9 2 14q1 22 4 36q49 110 141 160l14 1q75 -39 114 -105q9 -9 18 -4l5 -3
q-7 -6 -10 -11l3 -11q22 -41 22 -80l7 4l55 55v6z" />
    <glyph glyph-name="idieresis" unicode="&#xef;" horiz-adv-x="684" 
d="M230 843q-60 -95 38 -148q-8 -38 0 -68v-11q-11 -57 0 -98l34 -19q-23 -12 -38 -23v-125q0 -30 -4 -52q4 -23 0 -27l4 -7l-4 -12q4 -41 0 -68l-30 -56q0 -27 8 -50q41 -49 102 -37q53 -53 117 -38q49 49 38 113q19 34 15 64q-12 53 -61 72q8 49 4 83v405l8 34l15 56
q0 30 -12 57q-41 23 -79 19q-11 0 -15 -4q-34 38 -79 42q-76 -31 -61 -102zM608 1177q-20 64 -80 68q-64 -8 -72 -64q-84 -36 -64 -116q28 -36 64 -48q16 -64 76 -68q68 8 76 72q80 28 68 108q-28 40 -68 48zM209 1177q-20 64 -80 68q-64 -8 -72 -64q-84 -36 -64 -116
q28 -36 64 -48q16 -64 76 -68q68 8 76 72q80 28 68 108q-28 40 -68 48z" />
    <glyph glyph-name="ntilde" unicode="&#xf1;" horiz-adv-x="701" 
d="M328 855q-19 -7 -30 -15q-88 80 -149 54q-73 72 -145 7q-8 -46 8 -84q-39 -103 49 -164q-11 -49 23 -76q-23 -15 -23 -61l-4 -12l4 -26q-7 -50 -4 -84l-3 -42q3 -153 -8 -207q-38 -110 99 -114q138 -84 145 72q19 23 31 54q-4 61 -69 99l-4 19l-4 19l4 245q4 23 0 42
l4 11v76q15 42 46 65q65 -30 95 -87q-3 -31 -3 -50v-42l-4 -12v-103q-4 -57 0 -95l19 -12q-19 -11 -27 -22q15 -100 -19 -187v-31q46 -61 107 -42q38 -50 99 -38q50 34 42 91q23 35 19 100q-34 34 -53 68v39l4 19q-4 11 0 23q-4 11 0 30l-4 12q7 34 4 61v168q45 49 53 103
q-11 23 -23 38q-19 27 -34 42l-54 61q-23 34 -42 53l-26 16l-42 3q-61 -26 -81 -84zM454 1073l-5 -15q-13 -16 -24 -22q-34 -5 -62 2l-4 4l-39 19q-124 95 -251 27l-13 -3q-52 32 -85 -12q-7 -30 8 -50q-34 -46 10 -82q27 -4 50 5q90 -45 85 66q16 19 38 25l48 -5l14 -7
l10 -4l16 -11l10 -4l59 -33l8 -1l12 -5l20 -5l17 -6q59 -2 104 20l29 5q111 -51 87 59q27 42 0 77q-32 13 -62 5q-18 13 -38 16q-52 -17 -42 -65z" />
    <glyph glyph-name="oacute" unicode="&#xf3;" horiz-adv-x="634" 
d="M222 927l-22 -19l-56 -48l-7 -11q-19 -11 -26 -26l-22 -18l-34 -30l-14 -18l-30 -37l4 -8q-11 -48 18 -88l4 -30v-48l-4 -30q-3 -37 4 -62l-4 -15v-93l-3 -11l3 -7v-30q0 -55 -3 -92q-26 -37 -30 -70q4 -19 15 -41q44 -41 92 -19q59 -48 126 -26q15 -51 55 -59l49 4
l59 41l85 85l22 18l15 19q29 26 44 51q4 56 -18 100l3 11q-3 23 0 41l-3 26l3 15v151q0 45 8 74q3 74 29 126q4 30 0 52q-37 48 -92 37q-52 66 -122 41q-30 66 -96 66q-26 -4 -52 -22zM362 698l4 -37l-4 -23q4 -37 0 -62l4 -12q-7 -22 -7 -59q0 -29 3 -48l-3 -15v-118
l-26 -74q-37 -52 -89 -70q-15 18 -22 37l-8 52l4 18v204l4 25q-4 23 0 37l-4 8q4 18 4 44l11 41q11 18 15 29l15 26q29 30 62 45q30 -19 37 -48zM236 1330q-43 -12 -62 -47l4 -63q27 -27 58 -35q-118 -486 157 -4q79 24 71 102q-28 43 -71 51q-19 67 -86 71q-59 -24 -71 -75
z" />
    <glyph glyph-name="ograve" unicode="&#xf2;" horiz-adv-x="634" 
d="M222 927l-22 -19l-56 -48l-7 -11q-19 -11 -26 -26l-22 -18l-34 -30l-14 -18l-30 -37l4 -8q-11 -48 18 -88l4 -30v-48l-4 -30q-3 -37 4 -62l-4 -15v-93l-3 -11l3 -7v-30q0 -55 -3 -92q-26 -37 -30 -70q4 -19 15 -41q44 -41 92 -19q59 -48 126 -26q15 -51 55 -59l49 4
l59 41l85 85l22 18l15 19q29 26 44 51q4 56 -18 100l3 11q-3 23 0 41l-3 26l3 15v151q0 45 8 74q3 74 29 126q4 30 0 52q-37 48 -92 37q-52 66 -122 41q-30 66 -96 66q-26 -4 -52 -22zM362 698l4 -37l-4 -23q4 -37 0 -62l4 -12q-7 -22 -7 -59q0 -29 3 -48l-3 -15v-118
l-26 -74q-37 -52 -89 -70q-15 18 -22 37l-8 52l4 18v204l4 25q-4 23 0 37l-4 8q4 18 4 44l11 41q11 18 15 29l15 26q29 30 62 45q30 -19 37 -48zM163 1366q-43 -12 -62 -47l4 -63q27 -27 58 -35q253 -495 157 -4q79 24 71 102q-28 43 -71 51q-19 67 -86 71q-59 -24 -71 -75z
" />
    <glyph glyph-name="ocircumflex" unicode="&#xf4;" horiz-adv-x="638" 
d="M222 927l-22 -19l-56 -48l-7 -11q-19 -11 -26 -26l-22 -18l-34 -30l-14 -18l-30 -37l4 -8q-11 -48 18 -88l4 -30v-48l-4 -30q-3 -37 4 -62l-4 -15v-93l-3 -11l3 -7v-30q0 -55 -3 -92q-26 -37 -30 -70q4 -19 15 -41q44 -41 92 -19q59 -48 126 -26q15 -51 55 -59l49 4
l59 41l85 85l22 18l15 19q29 26 44 51q4 56 -18 100l3 11q-3 23 0 41l-3 26l3 15v151q0 45 8 74q3 74 29 126q4 30 0 52q-37 48 -92 37q-52 66 -122 41q-30 66 -96 66q-26 -4 -52 -22zM362 698l4 -37l-4 -23q4 -37 0 -62l4 -12q-7 -22 -7 -59q0 -29 3 -48l-3 -15v-118
l-26 -74q-37 -52 -89 -70q-15 18 -22 37l-8 52l4 18v204l4 25q-4 23 0 37l-4 8q4 18 4 44l11 41q11 18 15 29l15 26q29 30 62 45q30 -19 37 -48zM525 1012l-9 10q-23 27 -30 37l-11 13q-3 5 -7 7l-23 28l-11 13l-9 11l-14 16l-2 3q-13 13 -18 23q-14 -2 -27 2q6 12 7 21
l-8 11q-6 9 -11 13q-7 10 -14 17l-2 4l-14 18l-9 -1q-4 -5 -11 -12l-7 -9q-7 -11 -14 -18q-4 -5 -6.5 -9.5t-6.5 -6.5l-7 -9l-9 -11l-2 -3l-14 -18l-2 -3q-13 -15 -29 -36l-13 -14l-5 -7l-9 -11l-25 -29l-2 -3l-19 -22l7 -21q-25 10 -40 -16v-6l38 -37q15 -12 22 -21l3 2
q0 9 2 14q1 21 5 36q48 110 140 160h14q76 -39 115 -105q9 -9 18 -3l5 -4q-7 -5 -11 -11l4 -10q21 -41 22 -80l7 3l54 56v5z" />
    <glyph glyph-name="odieresis" unicode="&#xf6;" horiz-adv-x="646" 
d="M222 927l-22 -19l-56 -48l-7 -11q-19 -11 -26 -26l-22 -18l-34 -30l-14 -18l-30 -37l4 -8q-11 -48 18 -88l4 -30v-48l-4 -30q-3 -37 4 -62l-4 -15v-93l-3 -11l3 -7v-30q0 -55 -3 -92q-26 -37 -30 -70q4 -19 15 -41q44 -41 92 -19q59 -48 126 -26q15 -51 55 -59l49 4
l59 41l85 85l22 18l15 19q29 26 44 51q4 56 -18 100l3 11q-3 23 0 41l-3 26l3 15v151q0 45 8 74q3 74 29 126q4 30 0 52q-37 48 -92 37q-52 66 -122 41q-30 66 -96 66q-26 -4 -52 -22zM362 698l4 -37l-4 -23q4 -37 0 -62l4 -12q-7 -22 -7 -59q0 -29 3 -48l-3 -15v-118
l-26 -74q-37 -52 -89 -70q-15 18 -22 37l-8 52l4 18v204l4 25q-4 23 0 37l-4 8q4 18 4 44l11 41q11 18 15 29l15 26q29 30 62 45q30 -19 37 -48zM589 1172q-20 64 -80 68q-64 -8 -72 -64q-84 -36 -64 -116q28 -36 64 -48q16 -64 76 -68q68 8 76 72q80 28 68 108
q-28 40 -68 48zM194 1173q-20 64 -80 68q-64 -8 -72 -64q-84 -36 -64 -116q28 -36 64 -48q16 -64 76 -68q68 8 76 72q80 28 68 108q-28 40 -68 48z" />
    <glyph glyph-name="otilde" unicode="&#xf5;" horiz-adv-x="642" 
d="M222 927l-22 -19l-56 -48l-7 -11q-19 -11 -26 -26l-22 -18l-34 -30l-14 -18l-30 -37l4 -8q-11 -48 18 -88l4 -30v-48l-4 -30q-3 -37 4 -62l-4 -15v-93l-3 -11l3 -7v-30q0 -55 -3 -92q-26 -37 -30 -70q4 -19 15 -41q44 -41 92 -19q59 -48 126 -26q15 -51 55 -59l49 4
l59 41l85 85l22 18l15 19q29 26 44 51q4 56 -18 100l3 11q-3 23 0 41l-3 26l3 15v151q0 45 8 74q3 74 29 126q4 30 0 52q-37 48 -92 37q-52 66 -122 41q-30 66 -96 66q-26 -4 -52 -22zM362 698l4 -37l-4 -23q4 -37 0 -62l4 -12q-7 -22 -7 -59q0 -29 3 -48l-3 -15v-118
l-26 -74q-37 -52 -89 -70q-15 18 -22 37l-8 52l4 18v204l4 25q-4 23 0 37l-4 8q4 18 4 44l11 41q11 18 15 29l15 26q29 30 62 45q30 -19 37 -48zM454 1073l-5 -15q-13 -16 -24 -22q-34 -5 -62 2l-4 4l-39 19q-124 95 -251 27l-13 -3q-52 32 -85 -12q-7 -30 8 -50
q-34 -46 10 -82q27 -4 50 5q90 -45 85 66q16 19 38 25l48 -5l14 -7l10 -4l16 -11l10 -4l59 -33l8 -1l12 -5l20 -5l17 -6q59 -2 104 20l29 5q111 -51 87 59q27 42 0 77q-32 13 -62 5q-18 13 -38 16q-52 -17 -42 -65z" />
    <glyph glyph-name="uacute" unicode="&#xfa;" 
d="M26 849l-3 -8q-15 -15 -23 -26v-53q38 -42 53 -72l4 -23q-8 -26 -4 -49v-178l-4 -41l4 -8q-4 -15 0 -26q-8 -30 -4 -53l-45 -68q0 -30 4 -53q196 -306 294 -117l34 7q50 -64 118 -49q26 -19 52 -26q50 0 84 26q7 61 34 106q0 83 -76 121v215q0 23 4 38q-4 38 0 49v174
q87 193 -76 182q-45 37 -98 22q-53 -45 -42 -106q-41 -94 38 -162q0 -27 -4 -30v-144q4 -30 -3 -57l7 -7l27 -15q-19 -12 -31 -15l-3 -12v-64l-4 -8v-71q-27 -34 -61 -42q-68 53 -64 129l-26 11l22 15q8 42 4 72l8 170l-4 11l4 12l-4 7l4 27l3 83q19 38 23 68l-4 49
q-34 57 -94 45q-34 38 -80 42q-75 -27 -68 -98zM236 1330q-43 -12 -62 -47l4 -63q27 -27 58 -35q-118 -486 157 -4q79 24 71 102q-28 43 -71 51q-19 67 -86 71q-59 -24 -71 -75z" />
    <glyph glyph-name="ugrave" unicode="&#xf9;" 
d="M26 849l-3 -8q-15 -15 -23 -26v-53q38 -42 53 -72l4 -23q-8 -26 -4 -49v-178l-4 -41l4 -8q-4 -15 0 -26q-8 -30 -4 -53l-45 -68q0 -30 4 -53q196 -306 294 -117l34 7q50 -64 118 -49q26 -19 52 -26q50 0 84 26q7 61 34 106q0 83 -76 121v215q0 23 4 38q-4 38 0 49v174
q87 193 -76 182q-45 37 -98 22q-53 -45 -42 -106q-41 -94 38 -162q0 -27 -4 -30v-144q4 -30 -3 -57l7 -7l27 -15q-19 -12 -31 -15l-3 -12v-64l-4 -8v-71q-27 -34 -61 -42q-68 53 -64 129l-26 11l22 15q8 42 4 72l8 170l-4 11l4 12l-4 7l4 27l3 83q19 38 23 68l-4 49
q-34 57 -94 45q-34 38 -80 42q-75 -27 -68 -98zM163 1366q-43 -12 -62 -47l4 -63q27 -27 58 -35q253 -495 157 -4q79 24 71 102q-28 43 -71 51q-19 67 -86 71q-59 -24 -71 -75z" />
    <glyph glyph-name="ucircumflex" unicode="&#xfb;" 
d="M26 849l-3 -8q-15 -15 -23 -26v-53q38 -42 53 -72l4 -23q-8 -26 -4 -49v-178l-4 -41l4 -8q-4 -15 0 -26q-8 -30 -4 -53l-45 -68q0 -30 4 -53q196 -306 294 -117l34 7q50 -64 118 -49q26 -19 52 -26q50 0 84 26q7 61 34 106q0 83 -76 121v215q0 23 4 38q-4 38 0 49v174
q87 193 -76 182q-45 37 -98 22q-53 -45 -42 -106q-41 -94 38 -162q0 -27 -4 -30v-144q4 -30 -3 -57l7 -7l27 -15q-19 -12 -31 -15l-3 -12v-64l-4 -8v-71q-27 -34 -61 -42q-68 53 -64 129l-26 11l22 15q8 42 4 72l8 170l-4 11l4 12l-4 7l4 27l3 83q19 38 23 68l-4 49
q-34 57 -94 45q-34 38 -80 42q-75 -27 -68 -98zM525 1012l-9 10q-23 27 -30 37l-11 13q-3 5 -7 7l-23 28l-11 13l-9 11l-14 16l-2 3q-13 13 -18 23q-14 -2 -27 2q6 12 7 21l-8 11q-6 9 -11 13q-7 10 -14 17l-2 4l-14 18l-9 -1q-4 -5 -11 -12l-7 -9q-7 -11 -14 -18
q-4 -5 -6.5 -9.5t-6.5 -6.5l-7 -9l-9 -11l-2 -3l-14 -18l-2 -3q-13 -15 -29 -36l-13 -14l-5 -7l-9 -11l-25 -29l-2 -3l-19 -22l7 -21q-25 10 -40 -16v-6l38 -37q15 -12 22 -21l3 2q0 9 2 14q1 21 5 36q48 110 140 160h14q76 -39 115 -105q9 -9 18 -3l5 -4q-7 -5 -11 -11
l4 -10q21 -41 22 -80l7 3l54 56v5z" />
    <glyph glyph-name="udieresis" unicode="&#xfc;" horiz-adv-x="686" 
d="M26 849l-3 -8q-15 -15 -23 -26v-53q38 -42 53 -72l4 -23q-8 -26 -4 -49v-178l-4 -41l4 -8q-4 -15 0 -26q-8 -30 -4 -53l-45 -68q0 -30 4 -53q196 -306 294 -117l34 7q50 -64 118 -49q26 -19 52 -26q50 0 84 26q7 61 34 106q0 83 -76 121v215q0 23 4 38q-4 38 0 49v174
q87 193 -76 182q-45 37 -98 22q-53 -45 -42 -106q-41 -94 38 -162q0 -27 -4 -30v-144q4 -30 -3 -57l7 -7l27 -15q-19 -12 -31 -15l-3 -12v-64l-4 -8v-71q-27 -34 -61 -42q-68 53 -64 129l-26 11l22 15q8 42 4 72l8 170l-4 11l4 12l-4 7l4 27l3 83q19 38 23 68l-4 49
q-34 57 -94 45q-34 38 -80 42q-75 -27 -68 -98zM589 1172q-20 64 -80 68q-64 -8 -72 -64q-84 -36 -64 -116q28 -36 64 -48q16 -64 76 -68q68 8 76 72q80 28 68 108q-28 40 -68 48zM194 1173q-20 64 -80 68q-64 -8 -72 -64q-84 -36 -64 -116q28 -36 64 -48q16 -64 76 -68
q68 8 76 72q80 28 68 108q-28 40 -68 48z" />
    <glyph glyph-name="dagger" unicode="&#x2020;" horiz-adv-x="538" 
d="M192 1215q10 -25 35 -35l-3 -64q-3 -10 -2 -16l-12 -87q-21 -4 -39 -2q-16 -3 -33 -2q-46 2 -74 -5l-1 -7q-4 -5 -3 -8q-1 -15 -5 -35q-7 -20 -7 -31q8 -4 16 -2q71 31 143 37q4 -15 3 -26l2 -17q-2 -13 2 -24l-1 -43q-3 -11 -1 -22v-5l2 -14q-2 -4 0 -13q4 -16 1 -27
q15 -6 22 -14q-30 -25 -19 -53l1 -24l1 -13q-1 -8 2 -19q-3 -20 1 -32l-1 -49q4 -13 0 -23q5 -12 3 -21q-2 -19 1 -32q-1 -14 3 -26v-19q1 -9 -1 -15q4 -15 2 -27l1 -14l2 -40q4 -10 4 -18l2 -16q-1 -21 3 -36l12 -11l-19 -11l2 -22l-1 -8l1 -7l1 -55q4 -15 2 -27l3 -5
q12 -36 31 -59q8 10 9 18l8 12l11 29v12q3 17 1 29q4 18 3 42q2 17 -2 29l2 7l-2 13l6 38l-2 7l-3 53l2 7l4 98q0 13 -2 17q6 14 5 25q2 38 -2 51l1 138q5 36 1 59v10q1 16 3 26t0 16q5 23 3 37v9l1 10l-1 22q0 3 -1 11l-1 14v15q9 18 5 33q17 4 31 3h8l19 -5q24 -3 40 -8
l15 5q17 -22 48 -27q10 -2 17 5l-10 34l-1 4q0 26 -15 43l-8 1q-28 -2 -44 0l-19 -2l-6 1q-49 1 -81 -3l-4 12l-3 36l-2 7l1 22q-3 15 -6 22l2 7l-2 11l-1 15l-1 12l-1 4q-1 13 -3 23q46 21 37 55q-48 64 -126 17q-15 -19 -16 -37z" />
    <glyph glyph-name="degree" unicode="&#xb0;" horiz-adv-x="475" 
d="M1 1148q12 -109 98 -160l8 17q9 -17 12 -35q43 -20 80 -20q232 6 238 233q-43 203 -235 203q-209 -43 -201 -238zM345 1209q18 -3 29 -3l-6 -6l-17 -14q0 -109 -89 -155q-106 -26 -158 66q-34 86 9 157l-11 29q17 0 28 -6q35 29 69 38q115 -3 146 -106z" />
    <glyph glyph-name="cent" unicode="&#xa2;" horiz-adv-x="712" 
d="M218 952l-8 -7l-22 -18l-7 -4l-19 -26q-36 -33 -55 -63l11 -29q-74 0 -118 -104v-37l7 -29q15 -26 19 -41v-162l29 -15l-29 -33v-137q-56 -122 77 -111l23 -11q73 -55 114 -3q22 -93 111 -85q48 -78 133 -11q7 29 7 55q41 81 44 144q11 74 -62 81q-104 -44 -34 -122
q-121 -22 -206 63l-4 22q-11 37 -7 67q-8 55 0 96l-4 22l-4 74l4 29q0 23 4 37v41l11 59q66 151 210 92q19 -22 30 -48l-4 -7q-41 33 -78 7q-33 -37 -11 -81q41 -41 70 -4l8 -22q85 8 103 93q19 188 -255 188q-33 37 -70 44zM460 1235q2 -26 23 -44l-22 -59q-5 -9 -6 -15
l-38 -80q-21 3 -38 10q-16 1 -32 8q-43 15 -72 17l-4 -6q-5 -4 -5 -7q-5 -14 -15 -32q-12 -17 -15 -27q6 -7 14 -7q77 8 148 -8q-1 -15 -5 -25l-3 -17q-6 -12 -5 -24l-14 -40q-7 -10 -8 -21l-2 -5l-2 -14q-3 -3 -4 -12q-1 -16 -7 -26q13 -10 17 -20q-36 -14 -34 -45l-6 -23
l-3 -13q-3 -7 -4 -19q-8 -17 -8 -31l-16 -46q0 -14 -6 -22q1 -13 -4 -20q-7 -18 -8 -31q-5 -13 -5 -27l-6 -17q-2 -9 -5 -14q-1 -16 -6 -27l-4 -13l-10 -39q1 -11 -1 -19l-3 -16q-7 -19 -8 -35l8 -13l-21 -6l-5 -21l-3 -7l-1 -8l-54 -162q0 -16 -6 -27l2 -5q0 -38 12 -66
q10 8 13 15l11 9l20 24l3 12q8 15 10 27q9 16 53 149q7 15 7 29l4 5l2 14l17 33l1 8l13 52l3 5l33 93q4 12 3 17q10 11 12 22q13 36 13 49l43 132q15 33 19 56l2 9q6 15 11 24t5 16q11 21 13 35l3 7l5 10l5 22q1 2 2 10l4 14l4 14q14 15 15 30q17 -1 30 -7l7 -1l17 -11
q22 -10 36 -20l16 1q10 -27 38 -41q9 -4 17 1l1 35v4q8 25 -1 45l-8 4q-27 6 -41 13l-19 3l-6 3q-46 16 -78 21v13l8 36v6l8 22q1 14 1 23l4 6l1 10l3 15l3 12v4q3 13 3 23q51 6 53 42q-28 74 -116 53q-19 -13 -26 -31z" />
    <glyph glyph-name="sterling" unicode="&#xa3;" horiz-adv-x="1039" 
d="M768 1319q-114 59 -239 28l-20 -20q-173 -63 -192 -236v-47q12 -47 8 -82l31 -110l4 -16l24 -63q7 -31 19 -51l4 -8l32 -94l3 -27q12 -36 12 -67l12 -59l-4 -8q0 -39 -4 -63q-12 -35 -16 -62l-31 -36q-129 157 -298 122q-185 -122 -83 -314l36 -31q0 -16 11 -24
q228 -114 405 35q161 -110 322 -51q133 55 188 173q0 63 -43 90q-24 0 -39 -4q-16 -15 -20 -31q-12 -31 -24 -51q-145 -122 -294 -35q204 345 -43 726l-47 20q4 15 0 51q-28 58 -32 106q-11 102 67.5 159t164.5 21q130 -137 43 -373q8 -4 28 0l117 4l8 16v16l4 43v98l4 16
l4 98l-24 23l32 4q16 43 20 75q23 51 27 94l-149 8q-20 -35 -28 -63zM313 216q-90 -67 -173 -8q-39 75 43 106q91 -24 130 -98zM728 701l-6 -17q-16 -18 -29 -25q-40 -4 -71 5l-6 4l-43 24q-141 114 -290 41l-16 -3q-59 39 -99 -11q-9 -34 7 -58q-40 -53 9 -95q32 -7 58 3
q103 -56 101 74q19 20 45 27l56 -7l16 -10l11 -5l18 -12l12 -6l67 -40l9 -2l14 -5l22 -8l20 -7q69 -4 121 19l34 5q126 -63 103 65q34 48 3 90q-36 16 -71 7q-21 17 -44 21q-61 -18 -51 -74z" />
    <glyph glyph-name="section" unicode="&#xa7;" horiz-adv-x="878" 
d="M210 1292q-74 -71 -70 -163q3 -183 137 -282q-155 -113 -130 -269q28 -212 233 -321l14 -22q18 -45 46 -67q49 -24 95 -24l7 -7l22 -18q67 -71 60 -152q-53 -117 -173 -159l-25 3q-131 -28 -219 57q-99 138 3 290l-3 14l-18 -4h-46l-14 4l-25 -4h-63v-21l7 -25v-28
q3 -53 -4 -88q4 -156 -70 -272l21 -4l131 4q-11 17 -4 35l81 -39q212 -39 389 14q314 142 184 463q-29 18 -53 18q21 53 -39 78q194 183 88 413l-21 14h-21l-11 4q21 46 -46 88q-28 134 -162 102q-22 15 -36 18l-7 7l-35 21l-7 7q-43 29 -67 57h-43l18 28q-49 127 42 212
l39 18q272 0 191 -339l11 -4l14 4l49 3q39 -3 64 4l-4 14l-7 92q-17 173 39 314q-71 7 -124 -10l-14 -57q-99 99 -229 88q-128 -17 -195 -109zM532 652l25 -21q14 -21 31 -35q22 -32 32 -57q11 -134 -67 -120l-39 -3l-78 46l-7 7q-42 28 -67 56h-42l18 28q-50 128 42 212
q42 -116 152 -113z" />
    <glyph glyph-name="bullet" unicode="&#x2022;" horiz-adv-x="613" 
d="M61 678q12 -109 98 -160l8 17q9 -17 12 -35q43 -20 80 -20q232 6 238 233q-43 203 -235 203q-209 -43 -201 -238z" />
    <glyph glyph-name="paragraph" unicode="&#xb6;" horiz-adv-x="1156" 
d="M403 -300v923q-171 7 -255 71l15 88l-81 -28q-58 95 -53 249q0 164 106.5 275.5t331.5 111.5h364l49 -60l30 60h143v-160h-133v-1530h-155v1090l71 57l-71 39v344h-206v-1530h-156z" />
    <glyph glyph-name="germandbls" unicode="&#xdf;" horiz-adv-x="1229" 
d="M176 1330q4 -55 21 -93l-4 -25v-84l25 -21q-42 -88 -13 -167l-4 -34q17 -13 25 -25q-29 -55 -58 -88l-5 -25l5 -47q37 -54 37 -113v-29q-12 -51 -4 -97q-8 -63 13 -113l4 -8q-29 -101 -4 -181l-9 -4l-37 13l-30 4l-50 21l-34 21q-25 21 -50 29l4 -101l4 -12l5 -84l12 -8
h164q17 -17 38 -17q29 -34 62 -46q151 -9 143 58l21 5q164 -21 285 25l26 -21l46 4q109 8 188 50q89 72 122 164l17 25l8 8l26 38q0 172 -97 298q-21 8 -42 4q-34 80 -168 105q4 9 13 9q88 12 147 54q33 46 25 97l50 46l4 46l-4 29v46l-4 13q-4 76 -29 130l-47 21
q-33 50 -83 71l-21 5q-68 21 -122 16l-17 5l-29 12h-13q-38 13 -71 13l-9 12q-33 -8 -58 -4h-34l-17 -4h-71l-38 -4q-67 63 -151 58q-79 -33 -113 -100zM784 1187q67 -33 101 -80q8 -251 -260 -277q-17 -25 -13 -50q46 -25 76 -50q285 -126 205 -399v-46q-25 -21 -54 -21
l-29 -17q-38 -16 -59 -37q-9 4 -30 -5l-21 -4q-46 -17 -79 -17q-63 -21 -118 -16q-21 58 -71 79l8 51q-12 37 0 67q-4 38 -16 63q-5 21 4 33l8 34v80l4 12v84l-4 17q0 63 -8 105l4 25l8 29q0 34 4 55q0 33 5 54q-5 47 0 76q-5 25 0 42v38l4 12q-4 51 8 88q25 46 76 51
q151 8 247 -76z" />
    <glyph glyph-name="registered" unicode="&#xae;" horiz-adv-x="1600" 
d="M551 1120l-18 -5q-12 -9 -23 -14h-35l-7 -2l-9 2l-74 3l-19 -75l-2 -20l12 -2l23 9q25 5 41 16v16q23 -11 44 -7l7 -6l-2 -26l2 -7l-2 -7v-46q0 -21 -3 -37q5 -34 -21 -48l-19 4l-8 21q-67 48 -85 -21q-42 -16 -39 -54q13 -31 44 -35q39 -57 107 9l12 -9l5 -10v-138
l22 -20q-15 -14 -4 -31l-4 -4l-17 -8v-22q0 -16 -2 -42q-46 -36 -21 -85q15 -13 28 -20q60 -84 115 -5q28 9 43 25q6 21 6 39l-6 10l-29 36l3 88l-3 5q4 27 3 46l1 11l-1 14l1 7v60l6 27l11 14l16 7l11 -4q51 -63 98 -5q25 9 36 28q5 44 -33 59q-34 63 -91 17h-21l-18 18
q-8 92 76 125q103 0 156 -97h18l-9 -12q5 -29 12 -51q4 -40 0 -69q-41 -177 -226 -121l-5 -15v-25q0 -20 -2 -36q9 -10 21 -12h25l10 2l16 3q38 -10 71 -3q-11 -39 14 -53q-49 -106 43 -172q101 -65 205 -19q21 -21 42 -21l64 3l-2 16q-6 16 -16 32l-7 20l-6 26
q-19 51 -19 87l-5 12l-2 44q-5 18 0 35l-12 7l-18 -3q-34 3 -57 -4q52 -185 -39 -210q-32 14 -47 40v6l-2 11q-5 23 -5 40.5t5 28.5q0 15 2 24v13l3 7l1 16q2 31 11 52q-17 8 -31 13v7q60 64 85 136q-11 11 -21 16l26 5q5 93 -37 167q-109 173 -324 109q-23 46 -72 46
q-14 -5 -23 -2zM764 1456q190 0 368.5 -96.5t282 -277t103.5 -381.5q0 -312 -220.5 -533.5t-533.5 -221.5t-534 221.5t-221 533.5q0 203 103 381t280 276t372 98zM763 1330q-137 0 -267.5 -80.5t-206.5 -230.5t-76 -318q0 -260 161.5 -444.5t388.5 -184.5q228 0 389 184.5
t161 444.5q0 261 -161.5 445t-388.5 184z" />
    <glyph glyph-name="copyright" unicode="&#xa9;" horiz-adv-x="1560" 
d="M757 1450q190 0 368.5 -96.5t282 -277t103.5 -381.5q0 -312 -220.5 -533.5t-533.5 -221.5t-534 221.5t-221 533.5q0 203 103 381t280 276t372 98zM772 1322q-140 0 -272.5 -80.5t-210 -230.5t-77.5 -318q0 -260 164 -444.5t396 -184.5t395.5 184.5t163.5 444.5
q0 261 -164.5 445t-394.5 184zM680 1236l-9 -8l-24 -20l-8 -5l-22 -29q-40 -37 -61 -71l12 -33q-83 0 -133 -117v-41l8 -33q17 -29 21 -46v-182l33 -17l-33 -37v-154q-63 -138 87 -125l26 -13q82 -62 128 -3q25 -105 125 -96q54 -87 150 -12q8 33 8 62q46 91 49 162
q12 83 -70 91q-117 -50 -38 -137q-136 -25 -232 71l-4 24q-13 42 -8 76q-9 62 0 108l-5 24l-4 84l4 32q0 26 5 42v46l12 66q75 170 237 104q21 -25 33 -54l-4 -8q-46 37 -88 8q-37 -42 -12 -91q46 -46 78 -5l9 -24q96 9 116 104q22 212 -287 212q-37 41 -78 49z" />
    <glyph glyph-name="trademark" unicode="&#x2122;" horiz-adv-x="1629" 
d="M0 978q39 -69 28 -139q2 -39 -10 -69q-2 -16 -2 -28l7 -4h5q20 -2 35 -7l18 -3q10 -2 16 3q-24 76 -6 142l-4 24q4 -2 13 -2q41 30 86 37q108 -25 78 -136q-12 -10 -26 -12q-52 71 -91 -1q-18 -7 -28 -17q-12 -51 36 -67q41 -48 85 8q16 0 26 -10l3 -8l1 -8l-1 -18v-28
q1 -21 0 -34q0 -11 1 -17l-1 -14q11 -19 8 -34l5 -4q-22 -12 -16 -67q-28 -28 -26 -65q12 -26 35 -34q22 -32 58 -32q24 10 36 31q33 13 43 40l-2 30l-8 12l-5 4q-9 12 -14 20v49l-2 4l2 87q-8 5 -15 8l12 14l1 16q2 30 8 50q13 10 25 12q28 -14 43 -38q29 -2 46 21
q38 13 36 51q-10 21 -27 31q-31 79 -92 8q-16 0 -23 12q-29 97 43 125q63 15 111 -30q11 2 16 6l2 -4l-6 -25q20 -72 -6 -135q41 -5 71 11q0 16 -3 40l3 6q-3 17 0 30q-3 13 0 23q0 24 4 40q1 53 20 89l7 20l-29 -4l-47 -3q-4 -15 -14 -24q-83 41 -162 11q-80 58 -147 -4
q-93 40 -173 -5l-4 5q-7 9 -13 21h-9q-31 1 -63 7q1 -11 2 -18zM993 970q-81 49 -160 16q-141 -83 -173 -225l-4 -7l-6 -16q-25 -24 -25 -54q8 -29 25 -45l6 -18q33 -179 185 -246q12 -16 18 -31q-6 -16 -14 -26l-11 -6l-35 -34l-15 -13l-20 -18q20 -47 52 -71q21 76 78 116
l2 4l20 26q4 17 4 30q-2 23 -12 41l-10 15q-31 29 -49 53q-25 24 -37 52q-13 20 -20 37l-14 4l10 14v6l-6 31q-6 24 -4 42q14 15 21 31q0 43 -25 73l2 17l4 11q2 27 12 43l16 39l-4 18q12 4 25 2q20 24 40 37q10 10 25 16q101 8 116 -88q0 -34 -15 -61h-18q-21 39 -57 39
q-32 -6 -32 -37q-43 -18 -35 -58q14 -25 41 -27q46 -47 83 10l14 2q24 -22 16 -52v-29l3 -12l-3 -16q-2 -18 -2 -33l15 -10q-8 -10 0 -20q-8 -9 -18 -12q-3 -35 3 -57q-28 -23 -30 -51q6 -42 40 -53q21 -35 55 -35q31 13 39 41q37 8 47 43q0 38 -31 53v6q-4 18 -4 32l2 11
v42l4 15l-2 38q-10 8 -22 8q12 8 20 18q-2 41 10 71q31 13 41 -22l20 -16q39 -2 47 30q41 5 39 42q-6 25 -27 33q-30 90 -91 8l-15 -2l-11 13q-15 67 21 116q79 53 155 -35l14 -2q-2 -16 0 -28q37 -60 37 -120q-23 -23 -26 -51q3 -29 18 -49l-5 -22l-2 -12q-8 -18 -10 -33
q2 -14 12 -24q-12 -6 -20 -13l-12 -38q-4 -6 -4 -10q-4 -6 -8 -21l-18 -40l-3 -8q-5 -12 -8 -23l-3 -5l-7 -15q-9 -32 -19 -53v-8l-5 -14q-2 -22 -4 -41v-14q2 -30 0 -51q83 -182 242 -95q16 -12 24 -27l12 2l10 3h12l17 2l14 2l2 8l-28 69l-6 12q0 10 -5 20l-4 28v7l-4 24
q-8 6 -18 4q12 6 18 12v31l2 16l2 15l-6 3h-31l-13 -2l-13 2q-17 -3 -32 -2l-2 -16q40 -50 34 -108q-4 -75 -79 -78q-24 5 -40 13l-7 13q-52 46 -36 110q10 34 26 62q4 11 12 22l8 19l5 4q3 16 12 24l10 23l18 34l2 8q11 16 14 29l51 93q-2 12 -10 19q10 4 16 8l3 6
q5 12 8 20q20 22 28 47q-2 42 -31 68q-27 123 -109 196q-106 93 -223 41q-39 40 -90 39q-47 -13 -61 -44z" />
    <glyph glyph-name="acute" unicode="&#xb4;" horiz-adv-x="354" 
d="M80 1298q-43 -12 -62 -47l4 -63q27 -27 58 -35q-118 -486 157 -4q79 24 71 102q-28 43 -71 51q-19 67 -86 71q-59 -24 -71 -75z" />
    <glyph glyph-name="dieresis" unicode="&#xa8;" horiz-adv-x="730" 
d="M609 1312q-20 64 -80 68q-64 -8 -72 -64q-84 -36 -64 -116q28 -36 64 -48q16 -64 76 -68q68 8 76 72q80 28 68 108q-28 40 -68 48zM214 1313q-20 64 -80 68q-64 -8 -72 -64q-84 -36 -64 -116q28 -36 64 -48q16 -64 76 -68q68 8 76 72q80 28 68 108q-28 40 -68 48z" />
    <glyph glyph-name="AE" unicode="&#xc6;" horiz-adv-x="2411" 
d="M1617 1349l-30 21l-8 -4q-34 -4 -86 -30q-30 -13 -68 -43l-26 -17q-38 -34 -73 -55q-8 -35 0 -65l-25 -17l-9 9l-21 38l-17 30l-9 5l-43 64l-21 17q-30 43 -60 64q-47 -8 -77 -34l-17 -17l-9 -5q-30 -21 -43 -34q-51 -38 -77 -77l4 -26l-12 -8q-43 -9 -69 -26l-30 -30
l-8 -4l-82 -81q-25 -35 -47 -52l-8 -4q-17 -26 -39 -39l-115 -124l-22 -17q-73 -30 -115 -85q-9 -22 -18 -35l-8 -30q-4 -42 -22 -77q-21 -25 -47 -64l-90 -137l-12 -30l-60 -98q-22 -35 -30 -60q-13 -17 -30 -47l-43 -82l9 -34h17l25 4h304l64 142q18 25 9 47
q-73 -34 -124 -47h-13l-21 -5q-47 -4 -77 0l-9 18q9 25 21 42q22 47 39 73l30 51l13 18l38 64l22 25q30 52 60 82q90 30 141 90q26 0 43 4q55 17 90 -21l-22 -60q-90 -52 -124 -133q4 -47 39 -64q4 -184 179 8q43 13 66.5 41t32.5 53q-4 52 -52 65q9 47 30 77q73 55 163 47
q13 -94 111 -73v-13l13 -47q-4 -38 9 -68q-9 -30 -11 -41t-2 -41q-4 -25 -9 -30q0 -30 -8 -77q-17 -47 -13 -85q-17 -26 -30 -39l-13 -4q-43 0 -73 17l-30 -4q-4 21 5 34q-56 38 -73 47l-13 -34v-13l-8 -26l-5 -17l-8 -21q-5 -47 -22 -86h261l18 -4l17 4l13 -4q25 4 47 0
h154l21 107q64 -69 141 -43l5 -9l8 -25q244 -111 463 -13l12 -4q22 4 35 0q47 -65 34 -146l4 -34q-4 -77 4 -129q22 -12 35 0l8 -4l9 4l4 -8h73q34 -4 64 4l-8 26q-43 51 -60 107l-9 13q-4 34 -17 55q4 210 -133 232l-64 -5q-372 -132 -514 223q-17 17 -38 21q4 52 -26 90
q0 34 4 60l5 34q81 -25 111 35l21 -35h90q26 -145 -73 -265h30l13 4l60 9l13 4q47 4 77 13l9 13v197q13 8 38 17q34 0 60 4q13 4 43 9h38l65 12q30 0 51 5q56 4 94 17q82 -81 176 -52q81 78 43 172q-13 21 -26 30q-52 34 -111 25q-52 -25 -78 -68l-89 4l-18 4h-21
q-38 9 -66 9t-32 4q-26 0 -47 5l-22 4l-94 8l-4 22v43q4 34 0 55q8 64 -5 112q-34 8 -90 8l-12 4l-86 5q81 -124 73 -249h-30l-17 -4h-146l-47 26l4 30l5 30l12 77l-25 21q34 9 51 26q141 334 437 304q261 -94 107 -441q81 -4 111 4q34 -4 64 0l9 22q0 34 4 60l-4 17l4 167
l4 17l5 21v39q8 25 8 51l9 13v13l26 60q25 38 38 68l-17 4l-17 -4l-22 4l-30 -4h-94q-4 -34 -13 -56q-111 73 -218 48q-81 38 -163 25q-30 -17 -47 -34zM890 1049l-13 -30l-17 -30q-17 -60 -39 -98l13 -26l-39 -30q-64 -111 -175 -81l4 9q-8 21 0 38l43 47q9 13 17 17
l171 167l30 30zM1014 1015l21 -56l17 -47q5 -8 9 -25l17 -90q-34 -26 -56 -56q-64 -8 -107 26l5 34l4 17q17 30 21 56l13 38l9 13l38 99z" />
    <glyph glyph-name="Oslash" unicode="&#xd8;" horiz-adv-x="1634" 
d="M296 1231l10 -42h-50q-147 -179 -175 -385q-13 -17 -13 -36q-81 -57 -63 -152q31 -68 76 -113q19 -125 85 -210q23 0 37 -3q-14 -23 -14 -46q278 -328 641 -287q201 90 188 107l60 40q7 5 40 46q57 44 89 94q0 36 -13 59q30 13 53 13q71 107 77 219q148 130 3 265
q-9 34 -23 57l-3 27l-45 100l-9 13l-13 27q-10 26 -40 68l-46 76q-27 7 -50 7v46q-196 197 -448 184q-209 -40 -354 -174zM938 1095l22 -35l36 -54v-14l9 -13l36 -95l27 -8q-27 -45 -10 -89q-53 -63 -48 -136q13 -75 53 -130q0 -13 -5 -18l-4 -13l-4 -30q-22 -68 -22 -100
l-3 -13q-18 -53 -49 -112t-129 -93q-93 -28 -117 -37q-218 32 -317 225q-31 7 -57 3q17 17 26 37q-41 80 -41 151q41 55 50 108q5 82 -50 139q9 400 349 480q163 -27 248 -153zM-47 -258q22 39 15 74l81 77q15 10 22 19l118 100q23 -14 35 -31q17 -9 29 -25q36 -38 67 -54
l10 9q10 3 13 7q20 19 48 41q29 19 42 32q0 13 -10 16q-96 19 -163 70q15 23 29 36l20 23q19 15 29 32l54 54q16 10 29 25l6 7l16 19q7 3 17 17q15 22 31 34q-5 19 0 36q55 7 81 51l29 32l15 16q10 9 23 26q25 23 39 40l60 61q14 20 30 29q10 19 22 29q26 22 40 41
q19 17 31 36l22 22q10 13 20 19q16 23 32 36l16 19l48 51q9 16 19 26l19 22q26 26 42 48l3 23h29l26 28l10 9l9 10l68 70q17 22 32 36l4 9q35 54 48 99q-19 -7 -29 -15l-23 -11l-44 -25l-16 -16q-22 -19 -36 -36q-25 -19 -54 -49q-23 -20 -35 -39l-11 -7l-16 -19l-51 -41
l-7 -10l-64 -70l-10 -7l-125 -122q-16 -15 -19 -22q-22 -12 -34 -28q-49 -46 -62 -65l-174 -172q-48 -41 -74 -74l-12 -12q-20 -19 -34 -30t-21 -21q-32 -26 -48 -45l-10 -10l-16 -12l-25 -29q-4 -4 -13 -14l-16 -19l-19 -19q-29 -14 -45 -37q-19 9 -29 23l-7 5l-9 23
q-17 23 -22 42l-20 6q13 42 -6 73q-7 10 -20 7l-35 -51l-3 -6q-32 -32 -41 -65l5 -9q26 -20 36 -35l19 -13l3 -6q38 -42 70 -62l-13 -19l-42 -48l-6 -10l-29 -28q-15 -20 -22 -32l-10 -7l-12 -16l-17 -18l-16 -17l-3 -6q-16 -17 -26 -32q-63 12 -99 -39q-38 -119 84 -124
q34 12 58 34z" />
    <glyph glyph-name="plusminus" unicode="&#xb1;" horiz-adv-x="1110" 
d="M441 1274q-56 -12 -68 -64q8 -64 60 -88l20 -28v-200l-12 -4h-44q-96 -4 -156 8q-16 16 -24 36t-24 32q-28 12 -52 12q-60 -20 -68 -76q-80 -28 -68 -108q32 -40 72 -52q12 -56 64 -68l48 8l20 20q20 32 44 48l16 4h180l4 -8v-104q16 -16 36 -20q-44 -16 -40 -88
q-148 -104 -4 -164q40 -92 128 -60q28 32 36 60q56 12 72 64q-4 32 -12 56l-12 12q-36 16 -56 32l-4 8l-8 24v184q24 8 40 4h176l28 -20q28 -56 84 -56q56 20 64 68q80 36 68 112q-24 36 -64 48q-16 56 -68 76q-72 -8 -88 -68l-20 -16q-52 -12 -96 -8l-16 -28l-16 28h-88
l-4 8v192l4 8q40 40 72 60q12 28 12 52q-20 60 -76 68q-28 80 -108 68q-40 -32 -52 -72zM524 270l-64 2l-12 -4h-44q-96 -4 -156 8q-16 16 -24 36t-24 32q-28 12 -52 12q-60 -20 -68 -76q-80 -28 -68 -108q32 -40 72 -52q12 -56 64 -68l48 8l20 20q20 32 44 48l16 4h180
q164 4 180 0h176l28 -20q28 -56 84 -56q56 20 64 68q80 36 68 112q-24 36 -64 48q-16 56 -68 76q-72 -8 -88 -68l-20 -16q-52 -12 -96 -8l-16 -28l-16 28l-117 4z" />
    <glyph glyph-name="yen" unicode="&#xa5;" horiz-adv-x="1211" 
d="M777 1799q8 -65 47 -113l-3 -14l-4 -18l-3 -18v-15l-8 -18v-25q-11 -25 -11 -48l-10 -39q-4 -65 -23 -109h-89q-54 5 -91 -3v-36l-7 -44v-54q98 40 187 22l-10 -51q-68 -50 -101 -115q-4 -83 54 -137q12 -131 -41 -197.5t-161 -52t-133.5 68.5t-15 125.5t110 131
t104 132.5t-27 122t-79.5 65t-89.5 20t-174.5 -33l-18 36h-65q-54 4 -91 0q-3 -18 0 -28q112 -196 81 -327l14 -4l95 -4q24 -3 47 8v14l-8 7l-7 22q-61 94 -6.5 189t205.5 40q132 -113 -92 -238.5t-147 -322.5q26 -36 62 -54q-25 -22 -23 -16q102 -107 230 -98q149 8 180 68
q18 7 32 7v-90q-3 -29 0 -68q-3 -33 0 -58l-3 -12l3 -176q-55 -55 -47 -120q18 -47 57 -68q-24 -113 19 -119l-37 -23v-46l-21 -138v-10l8 -8v-26l7 -17q0 -25 6 -43v-23l18 -3l12 18l47 87l-4 18l4 11l3 19q0 31 8 57l3 32l4 18v29l3 18l11 90q51 23 80 62q44 8 57 47
q5 44 0 73l-7 7l-36 47v18q4 7 0 26v151q-18 18 -40 25q18 26 40 40v116q-3 29 4 54q21 18 23.5 87t-16.5 90l-4 21l4 29q-4 54 4 91q51 36 61 87q-10 54 -46 86l6 109q75 20 219 -43l-4 150l-216 14l1 182l-3 11l-3 105q46 65 39 134q-29 46 -72 57h-33q-58 -21 -69 -71z
M775 227l-49 1l-9 -3h-34q-74 -3 -120 6q-13 13 -19 28.5t-18 24.5q-22 9 -40 9q-47 -15 -53 -59q-62 -21 -52 -83q24 -31 55 -40q9 -43 50 -52l37 6l15 15q15 25 34 37l12 3h139q126 3 139 0h136l21 -15q22 -43 65 -43q43 15 49 52q62 28 53 87q-19 27 -50 37
q-12 43 -52 58q-56 -6 -68 -52l-15 -13q-40 -9 -74 -6l-13 -21l-12 21l-90 3zM767 467l-49 2l-9 -3h-34q-74 -3 -120 6q-13 12 -19 27.5t-18 24.5q-22 10 -41 10q-46 -16 -52 -59q-62 -22 -52 -83q24 -31 55 -40q9 -43 49 -53l37 6l16 16q15 25 34 37l12 3h139q126 3 139 0
h135l22 -15q22 -44 65 -44q43 16 49 53q62 28 53 86q-19 28 -50 37q-12 43 -52 59q-56 -6 -68 -53l-16 -12q-40 -9 -74 -6l-12 -22l-12 22l-90 3z" />
    <glyph glyph-name="mu" unicode="&#xb5;" horiz-adv-x="670" 
d="M26 849l-3 -8q-15 -15 -23 -26v-53q38 -42 53 -72l4 -23q-8 -26 -4 -49v-178l-4 -41l4 -8q-4 -15 0 -26q-8 -30 -4 -53l-45 -68q0 -30 4 -53q41 -176 86 -476t94.5 47.5t113.5 311.5l34 7q50 -64 118 -49q26 -19 52 -26q50 0 84 26q7 61 34 106q0 83 -76 121v215
q0 23 4 38q-4 38 0 49v174q87 193 -76 182q-45 37 -98 22q-53 -45 -42 -106q-41 -94 38 -162q0 -27 -4 -30v-144q4 -30 -3 -57l7 -7l27 -15q-19 -12 -31 -15l-3 -12v-64l-4 -8v-71q-27 -34 -61 -42q-68 53 -64 129l-26 11l22 15q8 42 4 72l8 170l-4 11l4 12l-4 7l4 27l3 83
q19 38 23 68l-4 49q-34 57 -94 45q-34 38 -80 42q-75 -27 -68 -98z" />
    <glyph glyph-name="mu" unicode="&#x3bc;" horiz-adv-x="670" 
d="M26 849l-3 -8q-15 -15 -23 -26v-53q38 -42 53 -72l4 -23q-8 -26 -4 -49v-178l-4 -41l4 -8q-4 -15 0 -26q-8 -30 -4 -53l-45 -68q0 -30 4 -53q41 -176 86 -476t94.5 47.5t113.5 311.5l34 7q50 -64 118 -49q26 -19 52 -26q50 0 84 26q7 61 34 106q0 83 -76 121v215
q0 23 4 38q-4 38 0 49v174q87 193 -76 182q-45 37 -98 22q-53 -45 -42 -106q-41 -94 38 -162q0 -27 -4 -30v-144q4 -30 -3 -57l7 -7l27 -15q-19 -12 -31 -15l-3 -12v-64l-4 -8v-71q-27 -34 -61 -42q-68 53 -64 129l-26 11l22 15q8 42 4 72l8 170l-4 11l4 12l-4 7l4 27l3 83
q19 38 23 68l-4 49q-34 57 -94 45q-34 38 -80 42q-75 -27 -68 -98z" />
    <glyph glyph-name="ordfeminine" unicode="&#xaa;" horiz-adv-x="305" 
d="M119 1361q-128 -16 -79 -120q9 -5 17 -7q17 0 17 17q29 -33 37 20q-16 30 -40 9q-5 1 -7 4q27 48 67 22q33 -47 -3 -80q-44 -34 -109 -28q-14 -6 -20 -18q-2 -13 0 -23q8 -14 18 -24q18 -67 -2 -126q-1 -13 2 -24q18 -23 45 -22q19 -12 38 -11l11 7q8 16 8 29
q14 16 30 15q13 -35 44 -30q30 -31 59 -3l1 6q4 10 2 19q13 18 13 34q-8 19 -23 29q-2 5 -6 17l-4 73l2 6v15l2 12v29q0 5 1 6v5q8 20 12 35v11l-10 18l-27 31q-10 -3 -17 -1q2 9 2 16q-31 44 -61 50q-15 -6 -20 -18zM156 1189l1 -77l2 -5v-42l-5 -12q-11 -12 -23 -12
q-34 28 -28 69l-12 13q12 16 16 34l11 10q21 15 35 30z" />
    <glyph glyph-name="ordmasculine" unicode="&#xba;" horiz-adv-x="475" 
d="M1 1148q12 -109 98 -160l8 17q9 -17 12 -35q43 -20 80 -20q232 6 238 233q-43 203 -235 203q-209 -43 -201 -238zM345 1209q18 -3 29 -3l-6 -6l-17 -14q0 -109 -89 -155q-106 -26 -158 66q-34 86 9 157l-11 29q17 0 28 -6q35 29 69 38q115 -3 146 -106z" />
    <glyph glyph-name="ae" unicode="&#xe6;" horiz-adv-x="940" 
d="M270 909q-284 -36 -176 -267q21 -11 39 -14q36 0 36 36q65 -73 83 46q-36 65 -90 19q-11 3 -14 10q58 105 148 47q72 -104 -8 -176q-97 -76 -241 -62q-29 -14 -43 -39q-4 -29 0 -51q18 -32 39 -54q40 -148 -3 -278q-4 -29 3 -54q40 -50 101 -47q40 -28 83 -25l25 15
q18 36 18 64q29 36 65 33q29 -76 98 -65q65 -69 130 -7l3 14q7 22 4 40q29 40 29 76q-18 43 -51 64l-14 37l-8 162l4 14v33l4 25v65q0 11 3 14v11q18 43 26 76v25l-22 40l-61 68q-22 -7 -36 -3q3 21 3 36q-68 97 -133 111q-33 -14 -44 -39zM350 527l3 -170l4 -11v-93
l-11 -26q-25 -25 -50 -25q-76 61 -62 151l-28 29q28 36 36 76l25 22q47 32 76 65zM552 920l-19 -15l-78 -67q-38 -26 -56 -49q-53 -34 -75 -78l-4 -42q11 -33 26 -56v-30q4 -22 0 -37q0 -26 4 -45v-97l26 -11q-15 -4 -22 -12q-4 -30 -4 -52v-82q4 -41 -8 -71q30 -98 113 -68
q56 -52 116 -7q22 -109 119 -86q60 -90 142 -4q4 37 -11 67q86 146 4 195q-109 0 -60 -97l-11 -12q-232 -18 -206 214q34 -38 75 -19q37 37 19 82l18 26l15 15l12 8l7 11l97 86l12 8l14 15q30 18 49 37q19 34 23 60q-27 86 -86 134q-49 83 -135 57q-34 33 -75 37
q-22 -11 -41 -15zM690 628l-30 -48l-41 -38l-11 -15q-37 -37 -56 -67q-19 127 19 232q18 15 37 19q56 -34 82 -83z" />
    <glyph glyph-name="oslash" unicode="&#xf8;" horiz-adv-x="813" 
d="M222 927l-22 -19l-56 -48l-7 -11q-19 -11 -26 -26l-22 -18l-34 -30l-14 -18l-30 -37l4 -8q-11 -48 18 -88l4 -30v-48l-4 -30q-3 -37 4 -62l-4 -15v-93l-3 -11l3 -7v-30q0 -55 -3 -92q-26 -37 -30 -70q4 -19 15 -41q44 -41 92 -19q59 -48 126 -26q15 -51 55 -59l49 4
l59 41l85 85l22 18l15 19q29 26 44 51q4 56 -18 100l3 11q-3 23 0 41l-3 26l3 15v151q0 45 8 74q3 74 29 126q4 30 0 52q-37 48 -92 37q-52 66 -122 41q-30 66 -96 66q-26 -4 -52 -22zM362 698l4 -37l-4 -23q4 -37 0 -62l4 -12q-7 -22 -7 -59q0 -29 3 -48l-3 -15v-118
l-26 -74q-37 -52 -89 -70q-15 18 -22 37l-8 52l4 18v204l4 25q-4 23 0 37l-4 8q4 18 4 44l11 41q11 18 15 29l15 26q29 30 62 45q30 -19 37 -48zM-3 -284q4 30 -16 55l36 63q9 9 11 16l60 83q24 -8 42 -20q17 -5 34 -16q46 -26 79 -35l5 8q7 3 7 6q9 15 24 34q17 16 23 27
q-5 9 -15 10q-89 7 -167 40q5 18 11 29l7 18q10 13 11 26l24 43q10 9 14 22l3 5l6 16q4 2 7 13q4 18 13 28q-13 14 -15 27q44 8 48 43l12 26l6 14q5 7 8 20q14 19 16 34l28 49q3 16 12 24q1 15 8 23q12 18 16 33q9 14 12 29l9 19q4 9 10 15q4 17 12 29l7 15l19 41q1 13 6 21
l7 18q12 21 16 38l-6 17l25 2l9 24l5 7l4 9l28 57q4 17 13 28l-1 7q8 43 0 77q-13 -6 -18 -13l-15 -9l-27 -23l-7 -13q-12 -15 -16 -29q-13 -16 -25 -41q-12 -17 -14 -32l-6 -5l-5 -15l-27 -35l-2 -8l-26 -57l-5 -5l-57 -100q-7 -13 -7 -18q-13 -11 -18 -23q-23 -38 -26 -53
l-76 -141q-24 -34 -33 -60l-5 -10q-9 -16 -16.5 -25t-8.5 -17q-18 -21 -23 -37l-5 -8l-8 -10l-11 -23q-1 -3 -4 -11l-7 -16l-8 -15q-18 -14 -22 -31q-20 5 -34 14l-8 3l-17 16q-23 16 -36 30l-19 2q-5 33 -34 55q-10 6 -20 3l-9 -40l-1 -5q-14 -26 -8 -51l9 -6
q29 -13 44 -24l21 -8l5 -4q50 -28 85 -40l-3 -15l-16 -39l-1 -8l-13 -22q-5 -17 -6 -26l-6 -6l-4 -12l-7 -16l-6 -13l-1 -5q-6 -14 -8 -26q-59 4 -68 -36q15 -91 120 -85q25 11 36 30z" />
    <glyph glyph-name="questiondown" unicode="&#xbf;" horiz-adv-x="750" 
d="M510 63q13 -26 16 -43l5 -9q78 -17 138 -5q30 -4 52 0q-16 69 -55 113l-5 8l-21 84l1 13l-9 21q0 26 -8 48v13l-9 34q4 13 -50 21l51 53l-4 13q4 9 4 30q0 52 4 87q-39 13 -73 4l-13 5l-126 5l-9 -13q103 -153 82 -309q-23 -163 -192 -133q-182 62 -181 239q5 39 16 71.5
t24 50.5l9 30l26 43q31 65 70 109l17 21l13 21q22 26 35 47l22 22l63 117l-50 31l66 21q-4 108 -99 113q-117 -8 -170 -199q-13 -21 -13 -43q-153 -220 -141 -441q-9 -34 -9 -56q9 -22 22 -35q0 -38 7 -64q104 -140 242 -196l99 -6q96 5 153 64zM446 1163q65 19 69 79
q-8 64 -64 73q-35 84 -115 64q-37 -28 -49 -64q-64 -15 -68 -75q8 -68 71 -77q28 -80 108 -68q40 28 48 68z" />
    <glyph glyph-name="exclamdown" unicode="&#xa1;" horiz-adv-x="360" 
d="M226 78q12 43 8 78v344v171l-30 20l34 30v130v110q-20 55 -59 82q-78 20 -137 -20q-20 -39 -24 -70v-686l37 -40l-34 -3v-102l24 -72q48 -43 103 -35q51 20 78 63zM210 1180q44 12 63 47l-4 63q-27 28 -59 36q-86 145 -156 3q-79 -23 -71 -102q27 -43 71 -51
q19 -66 86 -70q59 23 70 74z" />
    <glyph glyph-name="logicalnot" unicode="&#xac;" horiz-adv-x="1395" 
d="M1315 577q-60 44 -87 81v335l-1216 -1l-3 -180l1030 -2q44 -162 -97 -238q-16 -38 -16 -70q27 -81 103 -92q16 -59 64 -92q119 -16 146 92q108 38 92 140z" />
    <glyph glyph-name="florin" unicode="&#x192;" horiz-adv-x="1106" 
d="M743 1351q-46 -62 -97 -90l-12 -11q-23 -20 -42 -31l-66 -47l-8 -8q-24 -31 -35 -54q0 -58 19 -105l-8 -23q-3 -51 -23 -94q-70 -27 -140 -15q-43 -24 -70 -59q-27 -112 78 -70q23 32 27 59q55 8 93 -12l-27 -93l-4 -39l-7 -23l-4 -16l-24 -97l-4 -16l-19 -66l-4 -19
l-8 -39l-3 -16l-4 -15l-12 -47q-4 -31 -12 -50l12 -28q-8 -3 -19 -19l-39 -167q-8 -31 -20 -55q-78 -97 -179 -70q66 24 66 90q-108 70 -155 -82q31 -171 260 -81l12 7q31 12 51 28q70 -20 108 35q20 35 28 62v23q7 31 15 47q0 23 8 43v11l8 20q4 35 11 58l4 8l8 42l4 16
q12 39 16 66l15 58l4 16q4 43 16 70l3 23l4 24l4 23l12 54l4 31l11 43l4 8q12 50 31 82q74 62 121 -20l-16 -8q-101 -81 20 -85q70 70 43 151q0 59 69 98q8 19 8 35q-23 11 -46 7q-86 -58 -171 -54l-4 19q11 70 31 109q27 109 93 187q171 120 202 -12q-116 20 -85 -93
q101 -39 171 39q8 27 -8 42q109 125 -183 191q-39 39 -85 39q-31 -16 -51 -35z" />
    <glyph glyph-name="guillemotleft" unicode="&#xab;" horiz-adv-x="1155" 
d="M906 952l-24 -20q-60 -52 -84 -68l-28 -24q-12 -8 -16 -16l-64 -52l-28 -24l-24 -20l-36 -32l-8 -4q-28 -28 -52 -40q4 -32 -4 -60q-28 12 -48 16l-24 -20q-20 -12 -28 -24q-24 -16 -40 -32l-8 -4l-40 -32v-20q12 -8 28 -24l20 -16q24 -16 40 -32q12 -8 22 -14t14 -14
l20 -16l24 -20l8 -4l40 -32l8 -4q32 -32 80 -68l32 -28l16 -12l24 -20l64 -56l8 -4l48 -44l48 16q-24 -56 36 -88h12l84 84q28 32 48 48l-4 8q-20 0 -32 4q-48 4 -80 12q-248 108 -360 316v32q88 168 236 256q20 20 8 40l8 12q12 -16 24 -24l24 8q92 48 180 48l-8 16
l-124 124h-12zM566 952l-24 -20q-60 -52 -84 -68l-28 -24q-12 -8 -16 -16l-64 -52l-28 -24l-24 -20l-36 -32l-8 -4q-28 -28 -52 -40q4 -32 -4 -60q-28 12 -48 16l-24 -20q-20 -12 -28 -24q-24 -16 -40 -32l-8 -4l-40 -32v-20q12 -8 28 -24l20 -16q24 -16 40 -32
q12 -8 22 -14t14 -14l20 -16l24 -20l8 -4l40 -32l8 -4q32 -32 80 -68l32 -28l16 -12l24 -20l64 -56l8 -4l48 -44l48 16q-24 -56 36 -88h12l84 84q28 32 48 48l-4 8q-20 0 -32 4q-48 4 -80 12q-248 108 -360 316v32q88 168 236 256q20 20 8 40l8 12q12 -16 24 -24l24 8
q92 48 180 48l-8 16l-124 124h-12z" />
    <glyph glyph-name="guillemotright" unicode="&#xbb;" horiz-adv-x="1099" 
d="M167 26l24 20q59 52 83 68l28 25q12 8 16 16l64 52l28 24l23 20l36 33l8 4q28 28 52 40q-4 32 4 60q28 -12 48 -16l24 20q20 13 27 25q24 16 40 32l8 4l40 32v20q-12 8 -28 24l-20 16q-24 16 -41 32q-12 8 -22 13.5t-14 13.5l-20 16l-24 20l-8 4l-40 32l-8 4
q-32 32 -81 67l-32 28l-16 12l-24 20l-64 55l-8 4l-49 44l-47 -16q23 56 -37 88h-12l-83 -85q-28 -32 -48 -48l4 -8q20 0 32 -4q48 -4 80 -12q249 -106 362 -313v-32q-87 -169 -234 -258q-20 -20 -8 -40l-8 -12q-12 16 -24 24l-24 -8q-92 -49 -180 -49l8 -16l125 -123h12z
M507 28l24 20q59 52 83 68l28 25q12 8 16 16l64 52l28 24l23 20l36 33l8 4q28 28 52 40q-4 32 4 60q28 -12 48 -16l24 20q20 13 27 25q24 16 40 32l8 4l40 32v20q-12 8 -28 24l-20 16q-24 16 -41 32q-12 8 -22 13.5t-14 13.5l-20 16l-24 20l-8 4l-40 32l-8 4q-32 32 -81 67
l-32 28l-16 12l-24 20l-64 56l-8 3l-49 44l-47 -16q23 56 -37 88h-12l-83 -85q-28 -32 -48 -48l4 -8q20 0 32 -4q48 -4 80 -12q249 -106 362 -313v-32q-87 -169 -234 -258q-20 -20 -8 -40l-8 -12q-12 16 -24 24l-24 -8q-92 -49 -180 -49l8 -16l125 -123h12z" />
    <glyph glyph-name="ellipsis" unicode="&#x2026;" horiz-adv-x="1325" 
d="M565 218q-64 -20 -68 -80q8 -64 64 -72q36 -84 116 -64q36 28 48 64q64 16 68 76q-8 68 -72 76q-28 80 -108 68q-40 -28 -48 -68zM1037 220q-64 -20 -68 -80q8 -64 64 -72q36 -84 116 -64q36 28 48 64q64 16 68 76q-8 68 -72 76q-28 80 -108 68q-40 -28 -48 -68zM70 218
q-64 -20 -68 -80q8 -64 64 -72q36 -84 116 -64q36 28 48 64q64 16 68 76q-8 68 -72 76q-28 80 -108 68q-40 -28 -48 -68z" />
    <glyph glyph-name="nonbreakingspace" unicode="&#xa0;" horiz-adv-x="498" 
 />
    <glyph glyph-name="Agrave" unicode="&#xc0;" horiz-adv-x="1390" 
d="M484 1192l-30 -1q-115 -145 -212 -331q-22 -40 -40 -62q-67 -40 -86.5 -83t5.5 -133q-22 -76 -36 -107l-4 -18l-27 -112v-14l-9 -22v-31q-9 -14 -9 -41l-9 -13v-23q-5 -44 -18 -76q-9 -58 -9 -98l18 -23h366l10 188v4q-139 -80 -251 -35l-4 9l4 14q0 22 5 53q9 27 9 50
l9 44l9 32l9 31l36 112l18 18q95 25 112 94l9 -4q71 22 134 -21v-71q-89 -21 -92.5 -93t79.5 -93q24 -68 83 -72.5t78.5 27t26.5 54.5q57 14 60 86.5t-83 88.5v65q12 49 157 47q23 -45 59 -67q58 -9 98 -9q27 -41 40.5 -70t44.5 -34q-18 -22 -6 -52q51 -136 47 -248l-5 -27
q-13 -9 -18 -18h-13q-63 18 -103 14q-9 18 -5 36l-27 9q-40 26 -71 35l22 -197h502v14q-36 348 -172 630.5t-306 478t-266 253.5q-168 -135 -139 -188zM533 1062l-9 -170q9 -14 23 -18l-23 -23q-9 -44 -35 -80q-67 -46 -117 -14l-18 32q45 143 166 282zM728 997
q114 -149 101 -195q-27 -27 -36 -54q-71 -9 -121 27l-4 14q-9 44 -5 80l-4 32q4 36 0 62l-8 115zM473 1775q-43 -12 -62 -47l4 -63q27 -27 58 -35q253 -495 157 -4q79 24 71 102q-28 43 -71 51q-19 67 -86 71q-59 -24 -71 -75z" />
    <glyph glyph-name="Atilde" unicode="&#xc3;" horiz-adv-x="1410" 
d="M484 1192l-30 -1q-115 -145 -212 -331q-22 -40 -40 -62q-67 -40 -86.5 -83t5.5 -133q-22 -76 -36 -107l-4 -18l-27 -112v-14l-9 -22v-31q-9 -14 -9 -41l-9 -13v-23q-5 -44 -18 -76q-9 -58 -9 -98l18 -23h366l10 188v4q-139 -80 -251 -35l-4 9l4 14q0 22 5 53q9 27 9 50
l9 44l9 32l9 31l36 112l18 18q95 25 112 94l9 -4q71 22 134 -21v-71q-89 -21 -92.5 -93t79.5 -93q24 -68 83 -72.5t78.5 27t26.5 54.5q57 14 60 86.5t-83 88.5v65q12 49 157 47q23 -45 59 -67q58 -9 98 -9q27 -41 40.5 -70t44.5 -34q-18 -22 -6 -52q51 -136 47 -248l-5 -27
q-13 -9 -18 -18h-13q-63 18 -103 14q-9 18 -5 36l-27 9q-40 26 -71 35l22 -197h502v14q-36 348 -172 630.5t-306 478t-266 253.5q-168 -135 -139 -188zM533 1062l-9 -170q9 -14 23 -18l-23 -23q-9 -44 -35 -80q-67 -46 -117 -14l-18 32q45 143 166 282zM728 997
q114 -149 101 -195q-27 -27 -36 -54q-71 -9 -121 27l-4 14q-9 44 -5 80l-4 32q4 36 0 62l-8 115zM794 1503l-5 -15q-13 -16 -24 -22q-34 -5 -62 2l-4 4l-39 19q-124 95 -251 27l-13 -3q-52 32 -85 -12q-7 -30 8 -50q-34 -46 10 -82q27 -4 50 5q90 -45 85 66q16 19 38 25
l48 -5l14 -7l10 -4l16 -11l10 -4l59 -33l8 -1l12 -5l20 -5l17 -6q59 -2 104 20l29 5q111 -51 87 59q27 42 0 77q-32 13 -62 5q-18 13 -38 16q-52 -17 -42 -65z" />
    <glyph glyph-name="Otilde" unicode="&#xd5;" horiz-adv-x="1410" 
d="M834 1593l-5 -15q-13 -16 -24 -22q-34 -5 -62 2l-4 4l-39 19q-124 95 -251 27l-13 -3q-52 32 -85 -12q-7 -30 8 -50q-34 -46 10 -82q27 -4 50 5q90 -45 85 66q16 19 38 25l48 -5l14 -7l10 -4l16 -11l10 -4l59 -33l8 -1l12 -5l20 -5l17 -6q59 -2 104 20l29 5
q111 -51 87 59q27 42 0 77q-32 13 -62 5q-18 13 -38 16q-52 -17 -42 -65zM296 1231l10 -42h-50q-147 -179 -175 -385q-13 -17 -13 -36q-81 -57 -63 -152q31 -68 76 -113q19 -125 85 -210q23 0 37 -3q-14 -23 -14 -46q278 -328 641 -287q201 90 188 107l60 40q7 5 40 46
q57 44 89 94q0 36 -13 59q30 13 53 13q71 107 77 219q148 130 3 265q-9 34 -23 57l-3 27l-45 100l-9 13l-13 27q-10 26 -40 68l-46 76q-27 7 -50 7v46q-196 197 -448 184q-209 -40 -354 -174zM938 1095l22 -35l36 -54v-14l9 -13l36 -95l27 -8q-27 -45 -10 -89
q-53 -63 -48 -136q13 -75 53 -130q0 -13 -5 -18l-4 -13l-4 -30q-22 -68 -22 -100l-3 -13q-18 -53 -49 -112t-129 -93q-93 -28 -117 -37q-218 32 -317 225q-31 7 -57 3q17 17 26 37q-41 80 -41 151q41 55 50 108q5 82 -50 139q9 400 349 480q163 -27 248 -153z" />
    <glyph glyph-name="OE" unicode="&#x152;" horiz-adv-x="2378" 
d="M296 1231l10 -42h-50q-147 -179 -175 -385q-13 -17 -13 -36q-81 -57 -63 -152q31 -68 76 -113q19 -125 85 -210q23 0 37 -3q-14 -23 -14 -46q278 -328 641 -287q201 90 188 107l60 40q7 5 40 46q57 44 89 94q0 36 -13 59q30 13 53 13q71 107 77 219q148 130 3 265
q-9 34 -23 57l-3 27l-45 100l-9 13l-13 27q-10 26 -40 68l-46 76q-27 7 -50 7v46q-196 197 -448 184q-209 -40 -354 -174zM938 1095l22 -35l36 -54v-14l9 -13l36 -95l27 -8q-27 -45 -10 -89q-53 -63 -48 -136q13 -75 53 -130q0 -13 -5 -18l-4 -13l-4 -30q-22 -68 -22 -100
l-3 -13q-18 -53 -49 -112t-129 -93q-93 -28 -117 -37q-218 32 -317 225q-31 7 -57 3q17 17 26 37q-41 80 -41 151q41 55 50 108q5 82 -50 139q9 400 349 480q163 -27 248 -153zM1594 1349l-27 22q-172 -48 -276 -169l5 -47q-26 -17 -57 -22l-8 -12l-22 -31l-61 -100
q-3 -13 -8 -17l-9 -26q-17 -30 -34 -78q-14 -35 -26 -55q-14 -66 -43 -113q0 -39 -5 -69q17 -60 48 -96q12 -146 91 -251q26 5 47 0q-18 -103 78 -159q86 -109 164 -69q8 -17 8 -31q252 -117 477 -17l51 -9l21 -31q0 -43 9 -72l5 -48q-5 -17 -5 -48q0 -65 10 -108l8 -12
l18 3l17 5l17 -5h138l-13 35q-99 139 -95 290l-13 26q-17 43 -43 70q-61 25 -113 21q-398 -143 -544 229q-17 13 -35 13q4 43 -13 78q-57 121 95 108q4 21 13 35q17 -40 108 -35q40 -126 -69 -272l47 8l26 4q99 13 130 27v155q-4 34 9 65q8 -5 17 0h22q12 5 34 8q40 0 69 9
h14q26 0 43 5l8 4l65 5l13 3l31 5l47 4l30 8q74 -86 173 -51q125 139 -26 230q-99 12 -151 -70l-142 13l-26 4l-57 5l-65 3l-8 5h-26l-35 4l-30 5q-13 26 -9 48l5 72v74l-5 39l-17 4l-31 5h-46l-36 5l-69 3q82 -121 82 -246l-30 -4l-143 -5l-38 5l-31 26v30l9 30v26l5 13
l4 39l-26 18q34 8 51 25q143 329 429 308q285 -91 117 -446l12 -4l31 4h74q34 -4 64 5q8 29 13 86v177l5 17l4 22v39q8 26 8 52l9 13q22 86 69 146l-18 5h-63l-36 -5h-69q-4 -34 -12 -56q-105 61 -208 61l-13 -13q-61 34 -131 31h-17q-38 -14 -64 -40z" />
    <glyph glyph-name="oe" unicode="&#x153;" horiz-adv-x="963" 
d="M222 927l-22 -19l-56 -48l-7 -11q-19 -11 -26 -26l-22 -18l-34 -30l-14 -18l-30 -37l4 -8q-11 -48 18 -88l4 -30v-48l-4 -30q-3 -37 4 -62l-4 -15v-93l-3 -11l3 -7v-30q0 -55 -3 -92q-26 -37 -30 -70q4 -19 15 -41q44 -41 92 -19q59 -48 126 -26q15 -51 55 -59l49 4
l59 41l85 85l22 18l15 19q29 26 44 51q4 56 -18 100l3 11q-3 23 0 41l-3 26l3 15v151q0 45 8 74q3 74 29 126q4 30 0 52q-37 48 -92 37q-52 66 -122 41q-30 66 -96 66q-26 -4 -52 -22zM362 698l4 -37l-4 -23q4 -37 0 -62l4 -12q-7 -22 -7 -59q0 -29 3 -48l-3 -15v-118
l-26 -74q-37 -52 -89 -70q-15 18 -22 37l-8 52l4 18v204l4 25q-4 23 0 37l-4 8q4 18 4 44l11 41q11 18 15 29l15 26q29 30 62 45q30 -19 37 -48zM572 940l-19 -15l-78 -67q-38 -26 -56 -49q-53 -34 -75 -78l-4 -42q11 -33 26 -56v-30q4 -22 0 -37q0 -26 4 -45v-97l26 -11
q-15 -4 -22 -12q-4 -30 -4 -52v-82q4 -41 -8 -71q30 -98 113 -68q56 -52 116 -7q22 -109 119 -86q60 -90 142 -4q4 37 -11 67q86 146 4 195q-109 0 -60 -97l-11 -12q-232 -18 -206 214q34 -38 75 -19q37 37 19 82l18 26l15 15l12 8l7 11l97 86l12 8l14 15q30 18 49 37
q19 34 23 60q-27 86 -86 134q-49 83 -135 57q-34 33 -75 37q-22 -11 -41 -15zM710 648l-30 -48l-41 -38l-11 -15q-37 -37 -56 -67q-19 127 19 232q18 15 37 19q56 -34 82 -83z" />
    <glyph glyph-name="endash" unicode="&#x2013;" horiz-adv-x="894" 
d="M71 462q17 8 24 27l45 -1q7 -3 11 -2l61 -9q3 -16 2 -31q2 -12 1 -25q-1 -36 4 -58l5 -1q4 -3 5 -2q11 -1 25 -3q14 -6 22 -5q3 6 1 12q-22 55 -26 111q10 3 18 3l11 1q10 -1 18 2l30 -1q7 -3 15 -1h4l9 2q3 -2 10 0q10 3 18 1q4 12 10 17q17 -23 37 -15l17 1l9 1
q6 -1 13 2q14 -3 23 1l34 -1q9 3 16 0q8 4 15 3q13 -2 22 1q10 -1 19 2h13q6 1 10 -1q11 3 19 2l10 1l28 2q7 3 13 3l11 1q14 0 25 3l7 9l8 -14l16 1h5h5l39 2q10 3 19 1l3 2q25 10 41 25q-7 6 -12 7l-9 5l-20 9h-9q-11 2 -20 1q-12 3 -29 2q-12 1 -21 -2l-4 2l-10 -2l-26 5
l-5 -2l-37 -2l-5 1l-69 3q-9 0 -12 -2q-9 4 -17 4q-27 1 -35 -2l-97 1q-26 3 -42 0h-7q-11 0 -18 1.5t-11 0.5q-17 3 -26 2h-6l-8 1l-15 -1h-7l-10 -1h-11q-12 6 -23 3q-3 14 -2 24v6l4 15q1 19 5 31l-4 12q16 14 19 38q1 7 -4 12l-24 -7l-2 -1q-18 0 -30 -12l-1 -6
q2 -22 0 -34l2 -15l-1 -5q-1 -38 3 -63l-9 -3l-25 -2l-5 -2l-16 1q-10 -3 -15 -5l-5 2l-7 -2l-11 -1l-8 -1h-3q-9 -1 -16 -4q-15 36 -39 29q-44 -37 -11 -98q13 -11 26 -12z" />
    <glyph glyph-name="emdash" unicode="&#x2014;" horiz-adv-x="1490" 
d="M65 444q30 10 43 35l78 -2q13 -3 21 -2l107 -12q5 -21 3 -39q4 -16 2 -33q-1 -45 7 -74l9 -1q7 -4 10 -3q18 -1 43 -5q25 -6 38 -6q5 8 2 15q-38 72 -46 144q19 4 32 3l20 2q18 -2 31 2h53q13 -4 27 -2h6l17 2q5 -2 17 0q18 4 32 1q7 16 18 22q30 -29 65 -18l30 1l16 1
q9 -1 23 2q25 -3 40 1l60 -1q16 4 28 1q15 5 26 3q23 -2 40 1q17 -1 32 3h23q11 1 19 -1q18 4 33 3l17 1l49 2q13 4 23 4l20 2q25 -1 44 3l13 12l14 -18l27 2l10 -1l9 1l68 1q18 4 33 2l6 3q45 12 73 32q-13 7 -22 8l-16 8l-35 11h-16q-20 3 -35 1q-22 3 -51 2q-21 2 -37 -2
l-8 2l-17 -2l-46 6l-8 -2l-67 -3l-7 2l-122 3q-16 0 -21 -2q-16 6 -31 5q-46 1 -62 -3l-170 1q-45 5 -74 1l-11 -1q-20 1 -32.5 3t-20.5 0q-29 5 -46 3h-10l-13 1l-27 -1q-3 0 -13 -1l-18 -1h-18q-22 9 -41 5q-5 17 -3 30l-1 8l7 19q2 25 9 40l-7 15q28 18 34 49q1 10 -7 16
l-42 -10l-5 -1q-32 0 -52 -14l-1 -9q2 -28 -1 -44l4 -19l-2 -6q-1 -49 5 -81l-16 -4l-44 -3l-8 -2l-28 1q-18 -3 -27 -6l-9 2l-13 -2l-18 -1l-16 -1l-4 -1q-17 -1 -29 -4q-25 46 -68 37q-78 -49 -20 -127q24 -14 46 -15z" />
    <glyph glyph-name="quotedblleft" unicode="&#x201c;" horiz-adv-x="683" 
d="M220 1009q43 12 62 47l-3 63q-27 27 -58 35q76 515 -157 5q-79 -23 -72 -101q27 -43 71 -52q18 -67 85 -71q60 24 72 74zM522 1014q43 10 62 46l-2 62q-28 28 -59 37q76 513 -157 5q-79 -24 -72 -102q28 -43 71 -51q18 -68 85 -72q60 24 72 75z" />
    <glyph glyph-name="quotedblright" unicode="&#x201d;" horiz-adv-x="640" 
d="M329 1351q-43 -12 -62 -47l4 -63q27 -27 58 -35q-74 -515 157 -4q79 24 71 102q-27 43 -71 51q-19 67 -86 71q-59 -24 -71 -75zM27 1345q-43 -11 -62 -47l3 -62q28 -28 59 -36q-74 -514 157 -4q79 24 71 102q-28 43 -71 51q-19 67 -86 71q-59 -24 -71 -75z" />
    <glyph glyph-name="quoteleft" unicode="&#x2018;" horiz-adv-x="360" 
d="M220 1009q43 12 62 47l-3 63q-27 27 -58 35q76 515 -157 5q-79 -23 -72 -101q27 -43 71 -52q18 -67 85 -71q60 24 72 74z" />
    <glyph glyph-name="quoteright" unicode="&#x2019;" horiz-adv-x="350" 
d="M27 1345q-43 -11 -62 -47l3 -62q28 -28 59 -36q-74 -514 157 -4q79 24 71 102q-28 43 -71 51q-19 67 -86 71q-59 -24 -71 -75z" />
    <glyph glyph-name="divide" unicode="&#xf7;" horiz-adv-x="1110" 
d="M514 770l-64 2l-12 -4h-44q-96 -4 -156 8q-16 16 -24 36t-24 32q-28 12 -52 12q-60 -20 -68 -76q-80 -28 -68 -108q32 -40 72 -52q12 -56 64 -68l48 8l20 20q20 32 44 48l16 4h180q164 4 180 0h176l28 -20q28 -56 84 -56q56 20 64 68q80 36 68 112q-24 36 -64 48
q-16 56 -68 76q-72 -8 -88 -68l-20 -16q-52 -12 -96 -8l-16 -28l-16 28l-117 4zM419 1102q-64 -20 -68 -80q8 -64 64 -72q36 -84 116 -64q36 28 48 64q64 16 68 76q-8 68 -72 76q-28 80 -108 68q-40 -28 -48 -68zM417 453q-64 -20 -68 -80q8 -64 64 -72q36 -84 116 -64
q36 28 48 64q64 16 68 76q-8 68 -72 76q-28 80 -108 68q-40 -28 -48 -68z" />
    <glyph glyph-name="ydieresis" unicode="&#xff;" horiz-adv-x="720" 
d="M33 847q-74 -48 15 -152l4 -22q-4 -56 3 -93q15 -4 26 -19l-26 -15l-3 -22l3 -11l-3 -41q0 -33 3 -56l-3 -7l3 -11q-3 -67 15 -119l11 -19q19 -37 52 -74l19 -15l18 -19l8 -3l7 -11l112 -101l11 -7l48 -49v-89l-3 -26l3 -7q-7 -34 -7 -60l-8 -18l-11 -30q-29 -26 -63 -33
q26 145 -97 66q-48 -89 23 -144q115 -26 208 26l7 22q56 -37 119 59l4 26l7 26l-3 26q3 19 0 30v45l3 22l-3 22v37q0 12 3 15l-3 19q7 45 5 74.5t-5 48.5l3 18v223q-22 11 -37 15q30 19 37 48l4 201l-4 15q8 56 4 93q31 41 36.5 75.5t-23 66.5t-87.5 14q-22 26 -52 33h-26
q-67 -29 -52 -96q-19 -15 -30 -30q-7 -30 -4 -56l26 -48l30 -37l-4 -26l4 -15l-4 -19q4 -29 0 -48v-193l-7 -82q-15 -52 -45 -86q-48 38 -70 82l-8 97l4 18v75l-4 22l4 19v137l-4 26l4 11l4 71q26 45 29 85q-29 53 -85 49q-41 52 -97 44q-63 -29 -48 -93zM569 1212
q-20 64 -80 68q-64 -8 -72 -64q-84 -36 -64 -116q28 -36 64 -48q16 -64 76 -68q68 8 76 72q80 28 68 108q-28 40 -68 48zM174 1213q-20 64 -80 68q-64 -8 -72 -64q-84 -36 -64 -116q28 -36 64 -48q16 -64 76 -68q68 8 76 72q80 28 68 108q-28 40 -68 48z" />
    <glyph glyph-name="Ydieresis" unicode="&#x178;" horiz-adv-x="1159" 
d="M788 1218l-36 -2q-68 -50 -101 -115q-4 -83 54 -137q12 -131 -41 -197.5t-161 -52t-133.5 68.5t-15 125.5t110 131t104 132.5t-27 122t-79.5 65t-89.5 20t-174.5 -33l-18 36h-65q-54 4 -91 0q-3 -18 0 -28q112 -196 81 -327l14 -4l95 -4q24 -3 47 8v14l-8 7l-7 22
q-61 94 -6.5 189t205.5 40q132 -113 -92 -238.5t-147 -322.5q26 -36 62 -54q-25 -22 -23 -16q102 -107 230 -98q149 8 180 68q18 7 32 7v-90q-3 -29 0 -68q-3 -33 0 -58l-3 -12l3 -176q-55 -55 -47 -120q18 -47 57 -68q142 -36 171 3q44 8 57 47q5 44 0 73l-7 7l-36 47v18
q4 7 0 26v151q-18 18 -40 25q18 26 40 40v116q-3 29 4 54q21 18 44 18l24 -11q59 -120 145 -36v25q54 11 65 62q-7 57 -62 72q-57 127 -144 18l-22 -7q-24 15 -43 36l-4 21l4 29q-4 54 4 91q51 36 61 87q-10 54 -41 99l-38 29q-32 28 -91 25zM888 1654q-20 64 -80 68
q-64 -8 -72 -64q-84 -36 -64 -116q28 -36 64 -48q16 -64 76 -68q68 8 76 72q80 28 68 108q-28 40 -68 48zM493 1654q-20 64 -80 68q-64 -8 -72 -64q-84 -36 -64 -116q28 -36 64 -48q16 -64 76 -68q68 8 76 72q80 28 68 108q-28 40 -68 48z" />
    <glyph glyph-name="currency" unicode="&#xa4;" horiz-adv-x="810" 
d="M93 634q17 -151 136 -221l11 23q13 -23 17 -48q60 -28 111 -28q321 8 330 323q-60 281 -326 281q-290 -59 -279 -330zM570 719q25 -4 40 -4l-8 -8l-23 -20q0 -151 -124 -215q-147 -36 -219 92q-47 119 13 217l-16 41q24 0 39 -9q49 41 96 53q159 -4 202 -147zM532 862
q-21 -41 7 -72q35 -26 66 -2q58 -23 86 26q4 31 -8 54q22 39 -6 70q-37 28 -71 1q-53 24 -85 -21q-5 -33 11 -56zM106 862q-20 -41 7 -72q36 -26 66 -2q59 -23 87 26q3 31 -9 54q23 39 -5 70q-37 28 -72 1q-52 24 -84 -21q-6 -33 10 -56zM115 442q-20 -41 7 -72
q36 -26 66 -2q59 -23 87 26q3 31 -9 54q23 39 -5 70q-37 28 -72 1q-52 24 -84 -21q-6 -33 10 -56zM516 452q-21 -41 7 -72q35 -26 66 -2q58 -23 86 26q4 31 -8 54q22 39 -6 70q-37 28 -71 1q-53 24 -85 -21q-5 -33 11 -56z" />
    <glyph glyph-name="guilsinglleft" unicode="&#x2039;" horiz-adv-x="802" 
d="M566 952l-24 -20q-60 -52 -84 -68l-28 -24q-12 -8 -16 -16l-64 -52l-28 -24l-24 -20l-36 -32l-8 -4q-28 -28 -52 -40q4 -32 -4 -60q-28 12 -48 16l-24 -20q-20 -12 -28 -24q-24 -16 -40 -32l-8 -4l-40 -32v-20q12 -8 28 -24l20 -16q24 -16 40 -32q12 -8 22 -14t14 -14
l20 -16l24 -20l8 -4l40 -32l8 -4q32 -32 80 -68l32 -28l16 -12l24 -20l64 -56l8 -4l48 -44l48 16q-24 -56 36 -88h12l84 84q28 32 48 48l-4 8q-20 0 -32 4q-48 4 -80 12q-248 108 -360 316v32q88 168 236 256q20 20 8 40l8 12q12 -16 24 -24l24 8q92 48 180 48l-8 16
l-124 124h-12z" />
    <glyph glyph-name="guilsinglright" unicode="&#x203a;" horiz-adv-x="321" 
d="M167 26l24 20q59 52 83 68l28 25q12 8 16 16l64 52l28 24l23 20l36 33l8 4q28 28 52 40q-4 32 4 60q28 -12 48 -16l24 20q20 13 27 25q24 16 40 32l8 4l40 32v20q-12 8 -28 24l-20 16q-24 16 -41 32q-12 8 -22 13.5t-14 13.5l-20 16l-24 20l-8 4l-40 32l-8 4
q-32 32 -81 67l-32 28l-16 12l-24 20l-64 55l-8 4l-49 44l-47 -16q23 56 -37 88h-12l-83 -85q-28 -32 -48 -48l4 -8q20 0 32 -4q48 -4 80 -12q249 -106 362 -313v-32q-87 -169 -234 -258q-20 -20 -8 -40l-8 -12q-12 16 -24 24l-24 -8q-92 -49 -180 -49l8 -16l125 -123h12z
" />
    <glyph glyph-name="daggerdbl" unicode="&#x2021;" horiz-adv-x="501" 
d="M229 770q-3 -10 -2 -17l-12 -87q-21 -4 -40 -2q-15 -3 -32 -1q-46 1 -75 -6l-1 -7q-3 -5 -2 -8q-1 -15 -5 -35q-7 -20 -7 -31q8 -4 16 -1q71 30 143 36q4 -15 3 -26l2 -16q-2 -14 2 -25l-1 -43q-4 -11 -2 -22v-5l2 -14q-1 -4 0 -13q4 -15 1 -27q16 -5 23 -14
q-30 -24 -19 -53l1 -24l1 -13q-1 -8 2 -19q-3 -20 1 -32l-1 -49q4 -13 0 -23q5 -12 3 -20q-2 -19 1 -33q-1 -14 3 -26v-18q1 -9 -1 -16q4 -15 2 -27l1 -14l2 -39q4 -11 4 -19l2 -16q-1 -20 3 -36l11 -10l-18 -12l2 -22l-1 -7l1 -8l1 -55q4 -15 2 -27l3 -5q12 -36 31 -59
q8 10 9 18l8 13l11 28v13q3 16 1 28q4 18 3 42q2 17 -2 29l2 7l-2 14l6 37l-2 7l-3 54l2 6l4 98q0 13 -2 18q6 13 5 24q1 38 -2 51l1 138q5 36 1 60v9q1 16 3 26t0 16q4 24 2 38v8l2 11l-1 22q0 2 -1 10l-1 14v15q9 18 5 33q17 4 31 3l8 1l19 -6q24 -3 39 -8l16 6
q17 -23 48 -28q10 -1 17 6l-10 34l-1 4q0 25 -15 42l-8 1q-28 -2 -44 1l-19 -3l-6 1q-49 1 -81 -3l-4 12l-3 36l-2 7l1 23q-3 14 -6 22l2 7l-2 10l-5 21q-65 46 -74 -30zM192 1215q10 -25 35 -35l-3 -64q-3 -10 -2 -16l-12 -87q-21 -4 -39 -2q-16 -3 -33 -2q-46 2 -74 -5
l-1 -7q-4 -5 -3 -8q-1 -15 -5 -35q-7 -20 -7 -31q8 -4 16 -2q71 31 143 37q4 -15 3 -26l2 -17q-2 -13 2 -24l-1 -43q-3 -11 -1 -22v-5l2 -14q-2 -4 0 -13q4 -16 1 -27q15 -6 22 -14q-30 -25 -19 -53l1 -24l1 -13q-1 -8 2 -19q-3 -20 1 -32l-1 -49q4 -13 0 -23q5 -12 3 -21
q-2 -19 1 -32q-1 -14 3 -26v-19q1 -9 -1 -15q4 -15 2 -27l1 -14l2 -40q4 -10 4 -18l2 -16q-1 -21 3 -36l12 -11l-19 -11l2 -22l-1 -8l1 -7l1 -55q4 -15 2 -27l3 -5q12 -36 31 -59q8 10 9 18l8 12l11 29v12q3 17 1 29q4 18 3 42q2 17 -2 29l2 7l-2 13l6 38l-2 7l-3 53l2 7
l4 98q0 13 -2 17q6 14 5 25q2 38 -2 51l1 138q5 36 1 59v10q1 16 3 26t0 16q5 23 3 37v9l1 10l-1 22q0 3 -1 11l-1 14v15q9 18 5 33q17 4 31 3h8l19 -5q24 -3 40 -8l15 5q17 -22 48 -27q10 -2 17 5l-10 34l-1 4q0 26 -15 43l-8 1q-28 -2 -44 0l-19 -2l-6 1q-49 1 -81 -3
l-4 12l-3 36l-2 7l1 22q-3 15 -6 22l2 7l-2 11l-1 15l-1 12l-1 4q-1 13 -3 23q46 21 37 55q-48 64 -126 17q-15 -19 -16 -37z" />
    <glyph glyph-name="periodcentered" unicode="&#xb7;" horiz-adv-x="350" 
d="M229 782q-20 64 -80 68q-64 -8 -72 -64q-84 -36 -64 -116q28 -36 64 -48q16 -64 76 -68q68 8 76 72q80 28 68 108q-28 40 -68 48z" />
    <glyph glyph-name="periodcentered" unicode="&#x2219;" horiz-adv-x="350" 
d="M229 782q-20 64 -80 68q-64 -8 -72 -64q-84 -36 -64 -116q28 -36 64 -48q16 -64 76 -68q68 8 76 72q80 28 68 108q-28 40 -68 48z" />
    <glyph glyph-name="quotesinglbase" unicode="&#x201a;" horiz-adv-x="340" 
d="M87 205q-43 -11 -62 -47l3 -62q28 -28 59 -36q-74 -514 157 -4q79 24 71 102q-28 43 -71 51q-19 67 -86 71q-59 -24 -71 -75z" />
    <glyph glyph-name="quotedblbase" unicode="&#x201e;" horiz-adv-x="674" 
d="M389 211q-43 -12 -62 -47l4 -63q27 -27 58 -35q-74 -515 157 -4q79 24 71 102q-27 43 -71 51q-19 67 -86 71q-59 -24 -71 -75zM87 205q-43 -11 -62 -47l3 -62q28 -28 59 -36q-74 -514 157 -4q79 24 71 102q-28 43 -71 51q-19 67 -86 71q-59 -24 -71 -75z" />
    <glyph glyph-name="perthousand" unicode="&#x2030;" horiz-adv-x="1560" 
d="M137 28q20 35 14 66l72 69q14 9 20 17l106 89q20 -12 31 -27q15 -8 26 -23q32 -34 60 -48l9 8q9 3 11 6q18 17 43 37q26 17 38 29q0 11 -9 14q-86 17 -146 63q14 20 26 32l18 20q17 14 26 29l48 48q15 9 26 23l6 6l14 17q6 3 15 15q14 20 28 31q-5 17 0 32q49 6 72 46
l26 28l14 15q9 8 20 23q23 20 35 36l54 54q13 18 27 26q9 17 20 26q23 20 35 37q17 15 28 32l20 20q9 11 18 17q14 20 28 32l15 17l43 46q8 14 17 23l17 20q23 23 37 43l3 20h26l23 25l9 8l8 9l61 63q15 20 29 32l3 8q32 49 43 89q-17 -6 -26 -14l-20 -9l-40 -23l-14 -14
q-20 -17 -32 -32q-23 -17 -49 -44q-20 -18 -31 -35l-10 -6l-14 -17l-46 -37l-6 -9l-57 -63l-9 -6l-112 -109q-14 -14 -17 -20q-20 -11 -31 -25q-43 -41 -55 -58l-156 -154q-43 -37 -66 -66l-11 -11q-18 -17 -30.5 -27t-18.5 -19q-29 -23 -43 -40l-9 -9l-14 -11l-23 -26
q-3 -3 -11 -12l-15 -17l-17 -17q-26 -13 -40 -33q-17 8 -26 20l-6 5l-8 20q-15 21 -20 38l-18 5q12 38 -5 66q-6 9 -18 6l-31 -46l-3 -5q-29 -29 -37 -58l5 -8q23 -18 32 -32l17 -11l3 -6q34 -37 62 -55l-11 -17l-38 -43l-5 -9l-26 -25q-14 -18 -20 -29l-9 -6l-11 -14
l-15 -17l-14 -15l-3 -5q-14 -15 -23 -29q-57 11 -89 -35q-34 -106 75 -111q31 11 52 31zM1 828q12 -109 98 -160l8 17q9 -17 12 -35q43 -20 80 -20q232 6 238 233q-43 203 -235 203q-209 -43 -201 -238zM345 889q18 -3 29 -3l-6 -6l-17 -14q0 -109 -89 -155
q-106 -26 -158 66q-34 86 9 157l-11 29q17 0 28 -6q35 29 69 38q115 -3 146 -106zM591 198q12 -109 98 -160l8 17q9 -17 12 -35q43 -20 80 -20q232 6 238 233q-43 203 -235 203q-209 -43 -201 -238zM935 259q18 -3 29 -3l-6 -6l-17 -14q0 -109 -89 -155q-106 -26 -158 66
q-34 86 9 157l-11 29q17 0 28 -6q35 29 69 38q115 -3 146 -106zM1051 198q12 -109 98 -160l8 17q9 -17 12 -35q43 -20 80 -20q232 6 238 233q-43 203 -235 203q-209 -43 -201 -238zM1395 259q18 -3 29 -3l-6 -6l-17 -14q0 -109 -89 -155q-106 -26 -158 66q-34 86 9 157
l-11 29q17 0 28 -6q35 29 69 38q115 -3 146 -106z" />
    <glyph glyph-name="Acircumflex" unicode="&#xc2;" horiz-adv-x="1400" 
d="M484 1192l-30 -1q-115 -145 -212 -331q-22 -40 -40 -62q-67 -40 -86.5 -83t5.5 -133q-22 -76 -36 -107l-4 -18l-27 -112v-14l-9 -22v-31q-9 -14 -9 -41l-9 -13v-23q-5 -44 -18 -76q-9 -58 -9 -98l18 -23h366l10 188v4q-139 -80 -251 -35l-4 9l4 14q0 22 5 53q9 27 9 50
l9 44l9 32l9 31l36 112l18 18q95 25 112 94l9 -4q71 22 134 -21v-71q-89 -21 -92.5 -93t79.5 -93q24 -68 83 -72.5t78.5 27t26.5 54.5q57 14 60 86.5t-83 88.5v65q12 49 157 47q23 -45 59 -67q58 -9 98 -9q27 -41 40.5 -70t44.5 -34q-18 -22 -6 -52q51 -136 47 -248l-5 -27
q-13 -9 -18 -18h-13q-63 18 -103 14q-9 18 -5 36l-27 9q-40 26 -71 35l22 -197h502v14q-36 348 -172 630.5t-306 478t-266 253.5q-168 -135 -139 -188zM533 1062l-9 -170q9 -14 23 -18l-23 -23q-9 -44 -35 -80q-67 -46 -117 -14l-18 32q45 143 166 282zM728 997
q114 -149 101 -195q-27 -27 -36 -54q-71 -9 -121 27l-4 14q-9 44 -5 80l-4 32q4 36 0 62l-8 115zM815 1402l-9 10q-23 27 -30 37l-11 13q-3 5 -7 7l-23 28l-11 13l-9 11l-14 16l-2 3q-13 13 -18 23q-14 -2 -27 2q6 12 7 21l-8 11q-6 9 -11 13q-7 10 -14 17l-2 4l-14 18
l-9 -1q-4 -5 -11 -12l-7 -9q-7 -11 -14 -18q-4 -5 -6.5 -9.5t-6.5 -6.5l-7 -9l-9 -11l-2 -3l-14 -18l-2 -3q-13 -15 -29 -36l-13 -14l-5 -7l-9 -11l-25 -29l-2 -3l-19 -22l7 -21q-25 10 -40 -16v-6l38 -37q15 -12 22 -21l3 2q0 9 2 14q1 21 5 36q48 110 140 160h14
q76 -39 115 -105q9 -9 18 -3l5 -4q-7 -5 -11 -11l4 -10q21 -41 22 -80l7 3l54 56v5z" />
    <glyph glyph-name="Ecircumflex" unicode="&#xca;" horiz-adv-x="1340" 
d="M571 1367l-27 22q-172 -48 -276 -169l5 -47q-26 -17 -57 -22l-8 -12l-22 -31l-61 -100q-3 -13 -8 -17l-9 -26q-17 -30 -34 -78q-14 -35 -26 -55q-14 -66 -43 -113q0 -39 -5 -69q17 -60 48 -96q12 -146 91 -251q26 5 47 0q-18 -103 78 -159q86 -109 164 -69q8 -17 8 -31
q252 -117 477 -17l51 -9l21 -31q0 -43 9 -72l5 -48q-5 -17 -5 -48q0 -65 10 -108l8 -12l18 3l17 5l17 -5h138l-13 35q-99 139 -95 290l-13 26q-17 43 -43 70q-61 25 -113 21q-398 -143 -544 229q-17 13 -35 13q4 43 -13 78q-57 121 95 108q4 21 13 35q17 -40 108 -35
q40 -126 -69 -272l47 8l26 4q99 13 130 27v155q-4 34 9 65q8 -5 17 0h22q12 5 34 8q40 0 69 9h14q26 0 43 5l8 4l65 5l13 3l31 5l47 4l30 8q74 -86 173 -51q125 139 -26 230q-99 12 -151 -70l-142 13l-26 4l-57 5l-65 3l-8 5h-26l-35 4l-30 5q-13 26 -9 48l5 72v74l-5 39
l-17 4l-31 5h-46l-36 5l-69 3q82 -121 82 -246l-30 -4l-143 -5l-38 5l-31 26v30l9 30v26l5 13l4 39l-26 18q34 8 51 25q143 329 429 308q285 -91 117 -446l12 -4l31 4h74q34 -4 64 5q8 29 13 86v177l5 17l4 22v39q8 26 8 52l9 13q22 86 69 146l-18 5h-63l-36 -5h-69
q-4 -34 -12 -56q-105 61 -208 61l-13 -13q-61 34 -131 31h-17q-38 -14 -64 -40zM825 1492l-9 10q-23 27 -30 37l-11 13q-3 5 -7 7l-23 28l-11 13l-9 11l-14 16l-2 3q-13 13 -18 23q-14 -2 -27 2q6 12 7 21l-8 11q-6 9 -11 13q-7 10 -14 17l-2 4l-14 18l-9 -1q-4 -5 -11 -12
l-7 -9q-7 -11 -14 -18q-4 -5 -6.5 -9.5t-6.5 -6.5l-7 -9l-9 -11l-2 -3l-14 -18l-2 -3q-13 -15 -29 -36l-13 -14l-5 -7l-9 -11l-25 -29l-2 -3l-19 -22l7 -21q-25 10 -40 -16v-6l38 -37q15 -12 22 -21l3 2q0 9 2 14q1 21 5 36q48 110 140 160h14q76 -39 115 -105q9 -9 18 -3
l5 -4q-7 -5 -11 -11l4 -10q21 -41 22 -80l7 3l54 56v5z" />
    <glyph glyph-name="Aacute" unicode="&#xc1;" horiz-adv-x="1400" 
d="M484 1192l-30 -1q-115 -145 -212 -331q-22 -40 -40 -62q-67 -40 -86.5 -83t5.5 -133q-22 -76 -36 -107l-4 -18l-27 -112v-14l-9 -22v-31q-9 -14 -9 -41l-9 -13v-23q-5 -44 -18 -76q-9 -58 -9 -98l18 -23h366l10 188v4q-139 -80 -251 -35l-4 9l4 14q0 22 5 53q9 27 9 50
l9 44l9 32l9 31l36 112l18 18q95 25 112 94l9 -4q71 22 134 -21v-71q-89 -21 -92.5 -93t79.5 -93q24 -68 83 -72.5t78.5 27t26.5 54.5q57 14 60 86.5t-83 88.5v65q12 49 157 47q23 -45 59 -67q58 -9 98 -9q27 -41 40.5 -70t44.5 -34q-18 -22 -6 -52q51 -136 47 -248l-5 -27
q-13 -9 -18 -18h-13q-63 18 -103 14q-9 18 -5 36l-27 9q-40 26 -71 35l22 -197h502v14q-36 348 -172 630.5t-306 478t-266 253.5q-168 -135 -139 -188zM533 1062l-9 -170q9 -14 23 -18l-23 -23q-9 -44 -35 -80q-67 -46 -117 -14l-18 32q45 143 166 282zM728 997
q114 -149 101 -195q-27 -27 -36 -54q-71 -9 -121 27l-4 14q-9 44 -5 80l-4 32q4 36 0 62l-8 115zM577 1785q-43 -11 -62 -47l3 -62q28 -28 59 -36q-74 -514 157 -4q79 24 71 102q-28 43 -71 51q-19 67 -86 71q-59 -24 -71 -75z" />
    <glyph glyph-name="Edieresis" unicode="&#xcb;" horiz-adv-x="1360" 
d="M571 1367l-27 22q-172 -48 -276 -169l5 -47q-26 -17 -57 -22l-8 -12l-22 -31l-61 -100q-3 -13 -8 -17l-9 -26q-17 -30 -34 -78q-14 -35 -26 -55q-14 -66 -43 -113q0 -39 -5 -69q17 -60 48 -96q12 -146 91 -251q26 5 47 0q-18 -103 78 -159q86 -109 164 -69q8 -17 8 -31
q252 -117 477 -17l51 -9l21 -31q0 -43 9 -72l5 -48q-5 -17 -5 -48q0 -65 10 -108l8 -12l18 3l17 5l17 -5h138l-13 35q-99 139 -95 290l-13 26q-17 43 -43 70q-61 25 -113 21q-398 -143 -544 229q-17 13 -35 13q4 43 -13 78q-57 121 95 108q4 21 13 35q17 -40 108 -35
q40 -126 -69 -272l47 8l26 4q99 13 130 27v155q-4 34 9 65q8 -5 17 0h22q12 5 34 8q40 0 69 9h14q26 0 43 5l8 4l65 5l13 3l31 5l47 4l30 8q74 -86 173 -51q125 139 -26 230q-99 12 -151 -70l-142 13l-26 4l-57 5l-65 3l-8 5h-26l-35 4l-30 5q-13 26 -9 48l5 72v74l-5 39
l-17 4l-31 5h-46l-36 5l-69 3q82 -121 82 -246l-30 -4l-143 -5l-38 5l-31 26v30l9 30v26l5 13l4 39l-26 18q34 8 51 25q143 329 429 308q285 -91 117 -446l12 -4l31 4h74q34 -4 64 5q8 29 13 86v177l5 17l4 22v39q8 26 8 52l9 13q22 86 69 146l-18 5h-63l-36 -5h-69
q-4 -34 -12 -56q-105 61 -208 61l-13 -13q-61 34 -131 31h-17q-38 -14 -64 -40zM909 1652q-20 64 -80 68q-64 -8 -72 -64q-84 -36 -64 -116q28 -36 64 -48q16 -64 76 -68q68 8 76 72q80 28 68 108q-28 40 -68 48zM514 1653q-20 64 -80 68q-64 -8 -72 -64q-84 -36 -64 -116
q28 -36 64 -48q16 -64 76 -68q68 8 76 72q80 28 68 108q-28 40 -68 48z" />
    <glyph glyph-name="Egrave" unicode="&#xc8;" horiz-adv-x="1360" 
d="M571 1367l-27 22q-172 -48 -276 -169l5 -47q-26 -17 -57 -22l-8 -12l-22 -31l-61 -100q-3 -13 -8 -17l-9 -26q-17 -30 -34 -78q-14 -35 -26 -55q-14 -66 -43 -113q0 -39 -5 -69q17 -60 48 -96q12 -146 91 -251q26 5 47 0q-18 -103 78 -159q86 -109 164 -69q8 -17 8 -31
q252 -117 477 -17l51 -9l21 -31q0 -43 9 -72l5 -48q-5 -17 -5 -48q0 -65 10 -108l8 -12l18 3l17 5l17 -5h138l-13 35q-99 139 -95 290l-13 26q-17 43 -43 70q-61 25 -113 21q-398 -143 -544 229q-17 13 -35 13q4 43 -13 78q-57 121 95 108q4 21 13 35q17 -40 108 -35
q40 -126 -69 -272l47 8l26 4q99 13 130 27v155q-4 34 9 65q8 -5 17 0h22q12 5 34 8q40 0 69 9h14q26 0 43 5l8 4l65 5l13 3l31 5l47 4l30 8q74 -86 173 -51q125 139 -26 230q-99 12 -151 -70l-142 13l-26 4l-57 5l-65 3l-8 5h-26l-35 4l-30 5q-13 26 -9 48l5 72v74l-5 39
l-17 4l-31 5h-46l-36 5l-69 3q82 -121 82 -246l-30 -4l-143 -5l-38 5l-31 26v30l9 30v26l5 13l4 39l-26 18q34 8 51 25q143 329 429 308q285 -91 117 -446l12 -4l31 4h74q34 -4 64 5q8 29 13 86v177l5 17l4 22v39q8 26 8 52l9 13q22 86 69 146l-18 5h-63l-36 -5h-69
q-4 -34 -12 -56q-105 61 -208 61l-13 -13q-61 34 -131 31h-17q-38 -14 -64 -40zM483 1826q-43 -12 -62 -47l4 -63q27 -27 58 -35q253 -495 157 -4q79 24 71 102q-28 43 -71 51q-19 67 -86 71q-59 -24 -71 -75z" />
    <glyph glyph-name="Iacute" unicode="&#xcd;" horiz-adv-x="878" 
d="M381 1436l-27 -8q-40 -37 -85 -50l-18 5q-8 -5 -31 0q-14 -5 -32 0q-22 0 -35 -5q-55 10 -90 0q-10 -35 -10 -63l-8 -27v-27l-5 -8l-5 -37l-4 -31q215 140 257 50v-14q8 -26 8 -54v-14q5 -35 0 -63q9 -13 27 -22l-27 -13l-5 -50v-188q-53 -55 -63 -122q5 -76 55 -121
v-122q0 -13 -5 -18v-122q-5 -22 -5 -35v-72q-13 -45 -35 -76q-45 8 -72 -10l-18 32q-90 23 -153 68l5 -14l-5 -9l5 -36l3 -31l5 -37l5 -8q5 -50 18 -82h229q63 -40 126 -53q77 4 122 49l278 4q0 32 5 37v17l5 31l13 113l-23 5q-108 -94 -229 -81l-14 22l-4 198
q-18 18 -27 31q22 32 27 59l4 13v118q45 62 55 130q-10 22 -10 40l-4 10l-10 30q-26 42 -31 87l-27 3l27 23l-17 14q17 18 27 36q0 13 4 17v198l4 14q0 49 10 86q31 27 71 13q14 14 19 27q13 -23 13 -40l27 -14l63 -23l67 -40v36l-9 13v23l-9 36v14q-14 45 -14 80h-225
q-71 63 -143 72zM351 1842q-43 -11 -62 -47l3 -62q28 -28 59 -36q-74 -514 157 -4q79 24 71 102q-28 43 -71 51q-19 67 -86 71q-59 -24 -71 -75z" />
    <glyph glyph-name="Icircumflex" unicode="&#xce;" horiz-adv-x="871" 
d="M381 1436l-27 -8q-40 -37 -85 -50l-18 5q-8 -5 -31 0q-14 -5 -32 0q-22 0 -35 -5q-55 10 -90 0q-10 -35 -10 -63l-8 -27v-27l-5 -8l-5 -37l-4 -31q215 140 257 50v-14q8 -26 8 -54v-14q5 -35 0 -63q9 -13 27 -22l-27 -13l-5 -50v-188q-53 -55 -63 -122q5 -76 55 -121
v-122q0 -13 -5 -18v-122q-5 -22 -5 -35v-72q-13 -45 -35 -76q-45 8 -72 -10l-18 32q-90 23 -153 68l5 -14l-5 -9l5 -36l3 -31l5 -37l5 -8q5 -50 18 -82h229q63 -40 126 -53q77 4 122 49l278 4q0 32 5 37v17l5 31l13 113l-23 5q-108 -94 -229 -81l-14 22l-4 198
q-18 18 -27 31q22 32 27 59l4 13v118q45 62 55 130q-10 22 -10 40l-4 10l-10 30q-26 42 -31 87l-27 3l27 23l-17 14q17 18 27 36q0 13 4 17v198l4 14q0 49 10 86q31 27 71 13q14 14 19 27q13 -23 13 -40l27 -14l63 -23l67 -40v36l-9 13v23l-9 36v14q-14 45 -14 80h-225
q-71 63 -143 72zM624 1523l-9 11q-23 26 -30 37l-11 12q-4 5 -7 7l-23 29l-11 12l-9 11l-15 16l-1 3q-13 13 -18 24q-14 -2 -27 1q6 13 7 22l-9 10q-5 9 -10 13q-7 10 -15 18l-1 3l-15 18h-8q-4 -6 -11 -13l-7 -9q-7 -11 -15 -18l-5.5 -9.5t-6.5 -6.5l-7 -9l-9 -10l-2 -4
l-14 -18l-2 -3q-14 -14 -30 -36l-12 -14l-5 -7l-9 -11l-25 -28l-2 -4l-20 -22l8 -21q-25 11 -40 -16v-5l38 -37q14 -13 22 -22l3 2q0 9 2 14q1 22 5 36q48 110 140 160l14 1q75 -40 115 -105q8 -9 17 -4l6 -4q-7 -5 -11 -10l4 -11q21 -41 21 -80l8 4l54 55v5z" />
    <glyph glyph-name="Idieresis" unicode="&#xcf;" horiz-adv-x="859" 
d="M381 1436l-27 -8q-40 -37 -85 -50l-18 5q-8 -5 -31 0q-14 -5 -32 0q-22 0 -35 -5q-55 10 -90 0q-10 -35 -10 -63l-8 -27v-27l-5 -8l-5 -37l-4 -31q215 140 257 50v-14q8 -26 8 -54v-14q5 -35 0 -63q9 -13 27 -22l-27 -13l-5 -50v-188q-53 -55 -63 -122q5 -76 55 -121
v-122q0 -13 -5 -18v-122q-5 -22 -5 -35v-72q-13 -45 -35 -76q-45 8 -72 -10l-18 32q-90 23 -153 68l5 -14l-5 -9l5 -36l3 -31l5 -37l5 -8q5 -50 18 -82h229q63 -40 126 -53q77 4 122 49l278 4q0 32 5 37v17l5 31l13 113l-23 5q-108 -94 -229 -81l-14 22l-4 198
q-18 18 -27 31q22 32 27 59l4 13v118q45 62 55 130q-10 22 -10 40l-4 10l-10 30q-26 42 -31 87l-27 3l27 23l-17 14q17 18 27 36q0 13 4 17v198l4 14q0 49 10 86q31 27 71 13q14 14 19 27q13 -23 13 -40l27 -14l63 -23l67 -40v36l-9 13v23l-9 36v14q-14 45 -14 80h-225
q-71 63 -143 72zM708 1671q-20 64 -80 68q-64 -8 -72 -64q-84 -36 -64 -116q28 -36 64 -48q16 -64 76 -68q68 8 76 72q80 28 68 108q-28 40 -68 48zM313 1672q-20 64 -80 68q-64 -8 -72 -64q-84 -36 -64 -116q28 -36 64 -48q16 -64 76 -68q68 8 76 72q80 28 68 108
q-28 40 -68 48z" />
    <glyph glyph-name="Igrave" unicode="&#xcc;" horiz-adv-x="882" 
d="M381 1436l-27 -8q-40 -37 -85 -50l-18 5q-8 -5 -31 0q-14 -5 -32 0q-22 0 -35 -5q-55 10 -90 0q-10 -35 -10 -63l-8 -27v-27l-5 -8l-5 -37l-4 -31q215 140 257 50v-14q8 -26 8 -54v-14q5 -35 0 -63q9 -13 27 -22l-27 -13l-5 -50v-188q-53 -55 -63 -122q5 -76 55 -121
v-122q0 -13 -5 -18v-122q-5 -22 -5 -35v-72q-13 -45 -35 -76q-45 8 -72 -10l-18 32q-90 23 -153 68l5 -14l-5 -9l5 -36l3 -31l5 -37l5 -8q5 -50 18 -82h229q63 -40 126 -53q77 4 122 49l278 4q0 32 5 37v17l5 31l13 113l-23 5q-108 -94 -229 -81l-14 22l-4 198
q-18 18 -27 31q22 32 27 59l4 13v118q45 62 55 130q-10 22 -10 40l-4 10l-10 30q-26 42 -31 87l-27 3l27 23l-17 14q17 18 27 36q0 13 4 17v198l4 14q0 49 10 86q31 27 71 13q14 14 19 27q13 -23 13 -40l27 -14l63 -23l67 -40v36l-9 13v23l-9 36v14q-14 45 -14 80h-225
q-71 63 -143 72zM339 1845q-43 -12 -62 -47l4 -63q27 -27 58 -35q253 -495 157 -4q79 24 71 102q-28 43 -71 51q-19 67 -86 71q-59 -24 -71 -75z" />
    <glyph glyph-name="Oacute" unicode="&#xd3;" horiz-adv-x="1433" 
d="M296 1231l10 -42h-50q-147 -179 -175 -385q-13 -17 -13 -36q-81 -57 -63 -152q31 -68 76 -113q19 -125 85 -210q23 0 37 -3q-14 -23 -14 -46q278 -328 641 -287q201 90 188 107l60 40q7 5 40 46q57 44 89 94q0 36 -13 59q30 13 53 13q71 107 77 219q148 130 3 265
q-9 34 -23 57l-3 27l-45 100l-9 13l-13 27q-10 26 -40 68l-46 76q-27 7 -50 7v46q-196 197 -448 184q-209 -40 -354 -174zM938 1095l22 -35l36 -54v-14l9 -13l36 -95l27 -8q-27 -45 -10 -89q-53 -63 -48 -136q13 -75 53 -130q0 -13 -5 -18l-4 -13l-4 -30q-22 -68 -22 -100
l-3 -13q-18 -53 -49 -112t-129 -93q-93 -28 -117 -37q-218 32 -317 225q-31 7 -57 3q17 17 26 37q-41 80 -41 151q41 55 50 108q5 82 -50 139q9 400 349 480q163 -27 248 -153zM640 1829q-43 -11 -62 -47l3 -62q28 -28 59 -36q-74 -514 157 -4q79 24 71 102q-28 43 -71 51
q-19 67 -86 71q-59 -24 -71 -75z" />
    <glyph glyph-name="Ocircumflex" unicode="&#xd4;" horiz-adv-x="1424" 
d="M296 1231l10 -42h-50q-147 -179 -175 -385q-13 -17 -13 -36q-81 -57 -63 -152q31 -68 76 -113q19 -125 85 -210q23 0 37 -3q-14 -23 -14 -46q278 -328 641 -287q201 90 188 107l60 40q7 5 40 46q57 44 89 94q0 36 -13 59q30 13 53 13q71 107 77 219q148 130 3 265
q-9 34 -23 57l-3 27l-45 100l-9 13l-13 27q-10 26 -40 68l-46 76q-27 7 -50 7v46q-196 197 -448 184q-209 -40 -354 -174zM938 1095l22 -35l36 -54v-14l9 -13l36 -95l27 -8q-27 -45 -10 -89q-53 -63 -48 -136q13 -75 53 -130q0 -13 -5 -18l-4 -13l-4 -30q-22 -68 -22 -100
l-3 -13q-18 -53 -49 -112t-129 -93q-93 -28 -117 -37q-218 32 -317 225q-31 7 -57 3q17 17 26 37q-41 80 -41 151q41 55 50 108q5 82 -50 139q9 400 349 480q163 -27 248 -153zM887 1498l-9 10q-23 27 -30 37l-11 13q-3 5 -7 7l-23 28l-11 13l-8 11l-15 16l-2 3
q-12 13 -18 23q-14 -2 -26 2q5 12 7 21l-9 11q-6 9 -11 13q-7 10 -14 17l-2 4l-14 18l-9 -1q-4 -5 -11 -12l-7 -9q-7 -11 -14 -18q-4 -5 -6.5 -9.5t-6.5 -6.5l-7 -9l-9 -11l-1 -3l-15 -18l-1 -3q-14 -15 -30 -36l-13 -14l-5 -7l-9 -11l-25 -29l-2 -3l-19 -22l7 -21
q-25 10 -39 -16v-6l38 -37q14 -12 21 -21l3 2q0 9 2 14q2 21 5 36q48 110 140 160h15q75 -39 114 -105q9 -9 18 -3l5 -4q-7 -5 -11 -11l4 -10q21 -41 22 -80l7 3l55 56v5z" />
    <glyph glyph-name="Ograve" unicode="&#xd2;" horiz-adv-x="1443" 
d="M296 1231l10 -42h-50q-147 -179 -175 -385q-13 -17 -13 -36q-81 -57 -63 -152q31 -68 76 -113q19 -125 85 -210q23 0 37 -3q-14 -23 -14 -46q278 -328 641 -287q201 90 188 107l60 40q7 5 40 46q57 44 89 94q0 36 -13 59q30 13 53 13q71 107 77 219q148 130 3 265
q-9 34 -23 57l-3 27l-45 100l-9 13l-13 27q-10 26 -40 68l-46 76q-27 7 -50 7v46q-196 197 -448 184q-209 -40 -354 -174zM938 1095l22 -35l36 -54v-14l9 -13l36 -95l27 -8q-27 -45 -10 -89q-53 -63 -48 -136q13 -75 53 -130q0 -13 -5 -18l-4 -13l-4 -30q-22 -68 -22 -100
l-3 -13q-18 -53 -49 -112t-129 -93q-93 -28 -117 -37q-218 32 -317 225q-31 7 -57 3q17 17 26 37q-41 80 -41 151q41 55 50 108q5 82 -50 139q9 400 349 480q163 -27 248 -153zM565 1826q-43 -12 -62 -47l4 -63q27 -27 58 -35q253 -495 157 -4q79 24 71 102q-28 43 -71 51
q-19 67 -86 71q-59 -24 -71 -75z" />
    <glyph glyph-name="Uacute" unicode="&#xda;" horiz-adv-x="1685" 
d="M705 234l-50 37q-30 21 -47 43q-13 29 -26 46l-4 22l-8 21q-13 42 -26 64l4 8l-4 89l4 26l5 47q8 38 8 68l30 89v13q13 46 25 59q13 55 39 94l4 29l25 98q5 90 -17 153l-4 30q-178 319 -476 162l-8 8q-5 34 -17 60l-56 -9h-25q-47 -8 -77 -8l-4 -26q21 -42 26 -76l21 -68
l38 -17q-17 -17 -21 -39l4 -17v-34l4 -12v-60l5 -13v-25q-5 -17 -5 -47q-4 -47 0 -77h26l30 -8h29l22 -4l29 -5l26 -4l4 30q-136 353 136 408q140 -34 174 -161v-34q-4 -51 -12 -85l-9 -13l-8 -21q-26 -34 -34 -60l-13 -13q-4 -13 -9 -17l-17 -30q-8 -25 -21 -38l-13 -21
l-85 -174l-4 -22l-4 -34q-4 -38 -4 -68q12 -34 34 -55q-22 -8 -34 -17q25 -340 301 -489l19 -9l34 -11l102 -5q47 1 80 15t66 33q125 117 201 -14q123 -90 200 38q68 17 93 72q-12 85 -80 124l4 34q-9 63 -4 106l-17 4l4 26l-17 4l8 8l17 26l5 17v42q0 26 4 43v161
q17 30 42 43q26 -9 39 -21q89 -107 166 0q25 0 46 12q85 98 -34 162q-12 51 -55 68q-89 13 -132 -72h-21q-26 17 -43 34l-4 21q4 9 0 17v230l21 21q47 -13 73 4l8 -25l60 -26l30 -13l55 -29l13 8l-13 55q-9 77 -26 128l-8 4h-81l-30 -4h-93q-153 119 -272 -17
q-72 -91 21 -200q-13 -76 30 -89q-26 -26 -30 -51v-175q-13 -21 -17 -34l-43 -63l-8 -51q4 -39 13 -68q72 -102 38 -213q-89 -174 -264 -204l-86 19zM762 1863q-43 -11 -62 -47l3 -62q28 -28 59 -36q-74 -514 157 -4q79 24 71 102q-28 43 -71 51q-18 67 -85 71
q-59 -24 -72 -75z" />
    <glyph glyph-name="Ucircumflex" unicode="&#xdb;" horiz-adv-x="1692" 
d="M705 234l-50 37q-30 21 -47 43q-13 29 -26 46l-4 22l-8 21q-13 42 -26 64l4 8l-4 89l4 26l5 47q8 38 8 68l30 89v13q13 46 25 59q13 55 39 94l4 29l25 98q5 90 -17 153l-4 30q-178 319 -476 162l-8 8q-5 34 -17 60l-56 -9h-25q-47 -8 -77 -8l-4 -26q21 -42 26 -76l21 -68
l38 -17q-17 -17 -21 -39l4 -17v-34l4 -12v-60l5 -13v-25q-5 -17 -5 -47q-4 -47 0 -77h26l30 -8h29l22 -4l29 -5l26 -4l4 30q-136 353 136 408q140 -34 174 -161v-34q-4 -51 -12 -85l-9 -13l-8 -21q-26 -34 -34 -60l-13 -13q-4 -13 -9 -17l-17 -30q-8 -25 -21 -38l-13 -21
l-85 -174l-4 -22l-4 -34q-4 -38 -4 -68q12 -34 34 -55q-22 -8 -34 -17q25 -340 301 -489l19 -9l34 -11l102 -5q47 1 80 15t66 33q125 117 201 -14q123 -90 200 38q68 17 93 72q-12 85 -80 124l4 34q-9 63 -4 106l-17 4l4 26l-17 4l8 8l17 26l5 17v42q0 26 4 43v161
q17 30 42 43q26 -9 39 -21q89 -107 166 0q25 0 46 12q85 98 -34 162q-12 51 -55 68q-89 13 -132 -72h-21q-26 17 -43 34l-4 21q4 9 0 17v230l21 21q47 -13 73 4l8 -25l60 -26l30 -13l55 -29l13 8l-13 55q-9 77 -26 128l-8 4h-81l-30 -4h-93q-153 119 -272 -17
q-72 -91 21 -200q-13 -76 30 -89q-26 -26 -30 -51v-175q-13 -21 -17 -34l-43 -63l-8 -51q4 -39 13 -68q72 -102 38 -213q-89 -174 -264 -204l-86 19zM1031 1531l-9 11q-23 26 -30 37l-11 13q-4 5 -7 7l-23 28l-11 13l-9 10l-15 16l-1 4q-13 12 -18 23q-14 -2 -27 2
q5 12 7 21l-9 11q-5 9 -10 12q-7 11 -15 18l-1 4l-15 17h-9q-3 -5 -10 -12l-7 -9q-7 -11 -15 -18q-3 -6 -5.5 -10t-6.5 -6l-7 -9l-9 -11l-2 -3l-14 -18l-2 -4q-14 -14 -30 -35l-12 -15l-5 -7l-9 -10l-25 -29l-2 -3l-20 -22l7 -21q-24 10 -39 -17v-5l38 -37q14 -12 21 -21
l4 2q0 8 2 14q1 21 5 35q48 111 140 161h14q75 -39 115 -105q8 -9 17 -4l6 -3q-7 -5 -11 -11l4 -10q21 -41 21 -81l7 4l55 56v5z" />
    <glyph glyph-name="Ugrave" unicode="&#xd9;" horiz-adv-x="1740" 
d="M705 234l-50 37q-30 21 -47 43q-13 29 -26 46l-4 22l-8 21q-13 42 -26 64l4 8l-4 89l4 26l5 47q8 38 8 68l30 89v13q13 46 25 59q13 55 39 94l4 29l25 98q5 90 -17 153l-4 30q-178 319 -476 162l-8 8q-5 34 -17 60l-56 -9h-25q-47 -8 -77 -8l-4 -26q21 -42 26 -76l21 -68
l38 -17q-17 -17 -21 -39l4 -17v-34l4 -12v-60l5 -13v-25q-5 -17 -5 -47q-4 -47 0 -77h26l30 -8h29l22 -4l29 -5l26 -4l4 30q-136 353 136 408q140 -34 174 -161v-34q-4 -51 -12 -85l-9 -13l-8 -21q-26 -34 -34 -60l-13 -13q-4 -13 -9 -17l-17 -30q-8 -25 -21 -38l-13 -21
l-85 -174l-4 -22l-4 -34q-4 -38 -4 -68q12 -34 34 -55q-22 -8 -34 -17q25 -340 301 -489l19 -9l34 -11l102 -5q47 1 80 15t66 33q125 117 201 -14q123 -90 200 38q68 17 93 72q-12 85 -80 124l4 34q-9 63 -4 106l-17 4l4 26l-17 4l8 8l17 26l5 17v42q0 26 4 43v161
q17 30 42 43q26 -9 39 -21q89 -107 166 0q25 0 46 12q85 98 -34 162q-12 51 -55 68q-89 13 -132 -72h-21q-26 17 -43 34l-4 21q4 9 0 17v230l21 21q47 -13 73 4l8 -25l60 -26l30 -13l55 -29l13 8l-13 55q-9 77 -26 128l-8 4h-81l-30 -4h-93q-153 119 -272 -17
q-72 -91 21 -200q-13 -76 30 -89q-26 -26 -30 -51v-175q-13 -21 -17 -34l-43 -63l-8 -51q4 -39 13 -68q72 -102 38 -213q-89 -174 -264 -204l-86 19zM674 1819q-43 -12 -62 -47l4 -63q27 -27 58 -35q253 -495 157 -4q79 24 71 102q-28 43 -71 51q-19 67 -86 71
q-59 -24 -71 -75z" />
    <glyph glyph-name="circumflex" unicode="&#x2c6;" horiz-adv-x="480" 
d="M425 1142l-9 10q-23 27 -30 37l-11 13q-3 5 -7 7l-23 28l-11 13l-9 11l-14 16l-2 3q-13 13 -18 23q-14 -2 -27 2q6 12 7 21l-8 11q-6 9 -11 13q-7 10 -14 17l-2 4l-14 18l-9 -1q-4 -5 -11 -12l-7 -9q-7 -11 -14 -18q-4 -5 -6.5 -9.5t-6.5 -6.5l-7 -9l-9 -11l-2 -3
l-14 -18l-2 -3q-13 -15 -29 -36l-13 -14l-5 -7l-9 -11l-25 -29l-2 -3l-19 -22l7 -21q-25 10 -40 -16v-6l38 -37q15 -12 22 -21l3 2q0 9 2 14q1 21 5 36q48 110 140 160h14q76 -39 115 -105q9 -9 18 -3l5 -4q-7 -5 -11 -11l4 -10q21 -41 22 -80l7 3l54 56v5z" />
    <glyph glyph-name="tilde" unicode="&#x2dc;" horiz-adv-x="720" 
d="M494 1323l-5 -15q-13 -16 -24 -22q-34 -5 -62 2l-4 4l-39 19q-124 95 -251 27l-13 -3q-52 32 -85 -12q-7 -30 8 -50q-34 -46 10 -82q27 -4 50 5q90 -45 85 66q16 19 38 25l48 -5l14 -7l10 -4l16 -11l10 -4l59 -33l8 -1l12 -5l20 -5l17 -6q59 -2 104 20l29 5
q111 -51 87 59q27 42 0 77q-32 13 -62 5q-18 13 -38 16q-52 -17 -42 -65z" />
    <glyph glyph-name="macron" unicode="&#xaf;" horiz-adv-x="450" 
d="M10 1269v99h632v-99h-632z" />
    <glyph glyph-name="macron" unicode="&#x2c9;" horiz-adv-x="450" 
d="M10 1269v99h632v-99h-632z" />
    <glyph glyph-name="cedilla" unicode="&#xb8;" horiz-adv-x="511" 
d="M320 -2l-27 1l-48 -144q140 30 122 -88q-78 -53 -148 13l-5 -9q-22 -35 -26 -70q131 -100 249 13q70 149 -65 224q13 35 17 61h-13z" />
    <glyph glyph-name="Scaron" unicode="&#x160;" horiz-adv-x="1075" 
d="M492 1403q-42 -3 -72 -22l-47 -12q-231 -150 -175.5 -384t294.5 -366q10 -47 39 -78q35 -12 52 -29q107 -9 159 -95q72 -163 -69 -256q-171 -121 -352 -48q-205 150 -60 412l-8 7q-18 -3 -48 -3q-86 3 -145 -10q48 -273 -64 -492v-21l30 -9h119q10 30 6 56
q410 -181 741 60l47 69q120 227 -9 412h-48q36 63 -50 109q-34 164 -181 116l-21 10l-12 12q-30 10 -47 21q-79 48 -121 100q-34 0 -55 -5q17 17 21 39q-40 97 4 184q65 134 220 86q188 -107 115 -399l18 -5l29 5q64 5 107 0l5 35l-5 33l-5 35v94l-3 13l3 158l10 13l30 133
q-142 26 -155 -77q-125 103 -270 103zM349 1687l9 -11q23 -26 30 -36l11 -13q3 -5 7 -7l23 -28l11 -12l9 -11l15 -16l2 -4q12 -12 18 -23q14 2 26 -1q-5 -13 -7 -22l9 -10q6 -9 11 -13q7 -10 15 -17l1 -4l15 -18l9 1q3 5 10 13l7 8q7 11 14 18q4 6 6.5 10.5t6.5 5.5l7 9
l9 11l1 4l15 18l1 3q14 15 30 36l12 14l5 8l9 10l25 29l2 3l19 22l-7 21q25 -10 39 17v5l-38 37q-14 12 -22 21l-3 -2q0 -8 -2 -14q-1 -21 -5 -35q-47 -111 -139 -162h-14q-75 38 -115 104q-9 9 -18 3l-5 4q7 5 10 11l-3 10q-22 41 -23 80l-7 -3l-54 -56v-6z" />
    <glyph glyph-name="scaron" unicode="&#x161;" horiz-adv-x="739" 
d="M342 891l-31 -8q-92 50 -142 23q-54 47 -115 31q-46 -46 -23 -100q-54 -53 -12 -107q19 -19 42 -23l16 -19q0 -8 2 -15.5t5 -27.5q8 -30 8 -53l8 -23q0 -31 8 -58l3 -12l23 -42q27 -27 54 -42q23 -8 39 -23q107 -35 172 -108q-3 -19 -11 -30q-27 -27 -58 -31l-19 11
l-54 50q-23 39 -53 58h-31q-39 -8 -62 -8q-103 8 -80 -100q-54 -111 73 -107q153 -215 234 -58l31 12q69 -85 150 -50q61 -54 122 -8q16 35 8 65q65 96 -34 154q7 104 -31 184q-27 27 -81 58q-19 4 -38 15q-19 12 -43 16l-7 7l-58 23l-34 20q-43 46 -54 100q0 61 46 84
q81 -27 131 -104q42 -15 80 -4q50 -26 89 8q30 46 0 89q11 15 15 30q4 100 -88 69q-12 104 -108 112q-61 -16 -92 -58zM109 1217l9 -11q23 -26 30 -36l11 -13q3 -5 7 -7l23 -28l11 -12l9 -11l15 -16l2 -4q12 -12 18 -23q14 2 26 -1q-5 -13 -7 -22l9 -10q6 -9 11 -13
q7 -10 15 -17l1 -4l15 -18l9 1q3 5 10 13l7 8q7 11 14 18q4 6 6.5 10.5t6.5 5.5l7 9l9 11l1 4l15 18l1 3q14 15 30 36l12 14l5 8l9 10l25 29l2 3l19 22l-7 21q25 -10 39 17v5l-38 37q-14 12 -22 21l-3 -2q0 -8 -2 -14q-1 -21 -5 -35q-47 -111 -139 -162h-14q-75 38 -115 104
q-9 9 -18 3l-5 4q7 5 10 11l-3 10q-22 41 -23 80l-7 -3l-54 -56v-6z" />
    <glyph glyph-name="brokenbar" unicode="&#xa6;" horiz-adv-x="540" 
d="M323 971l2 51l-3 10v35q-3 77 7 125q13 13 29 19t26 19q10 23 10 42q-16 48 -61 55q-22 64 -86 55q-33 -26 -42 -58q-45 -9 -55 -51l6 -38l16 -17q26 -16 38 -35l3 -13v-144q2 -132 -1 -145l-1 -141l-16 -22q-45 -22 -45 -67q16 -45 54 -52q29 -64 90 -55q29 19 38 51
q45 13 62 54q-6 58 -55 71l-12 16q-10 42 -6 77l-23 13l23 13l3 94zM319 -19l2 51l-3 10v35q-3 77 7 126q13 12 29 18.5t26 19.5q9 22 10 41q-16 49 -61 55q-22 65 -86 55q-33 -25 -42 -57q-45 -10 -55 -51l6 -39l16 -16q25 -16 38 -35l3 -13v-145q2 -131 -1 -144l-1 -141
l-16 -23q-45 -22 -45 -67q16 -45 54 -51q29 -65 90 -55q29 19 38 51q45 12 62 54q-7 58 -55 71l-12 16q-10 42 -6 77l-23 13l23 13l3 93z" />
    <glyph glyph-name="Eth" unicode="&#xd0;" horiz-adv-x="1524" 
d="M930 6l27 -22q172 47 277 168l-5 47q26 17 57 21l8 12l22 31l62 100q3 13 8 17l9 26q17 30 34 78q15 35 27 55q14 66 43 112q0 39 5 69q-16 60 -47 97q-11 146 -90 251q-26 -5 -47 0q19 103 -77 160q-86 109 -164 69q-8 17 -8 31q-251 119 -476 20l-13 -117
q399 141 543 -232q17 -13 35 -13q-4 -43 12 -78q57 -121 8 -320v-30l-9 -30l-1 -26l-5 -13l-4 -39l26 -18q-34 -8 -51 -25q-145 -328 -430 -306q-118 -35 -1 -116l13 13q61 -34 131 -32h17q38 14 64 40zM571 1367l-27 22q-172 -48 -276 -169l5 -47q-26 -17 -57 -22l-8 -12
l-22 -31l-61 -100q-3 -13 -8 -17l-9 -26q-17 -30 -34 -78q-14 -35 -26 -55q-14 -66 -43 -113q0 -39 -5 -69q17 -60 48 -96q12 -146 91 -251q26 5 47 0q-18 -103 78 -159q86 -109 164 -69q8 -17 8 -31q252 -117 477 -17l12 117q-398 -143 -544 229q-17 13 -35 13q4 43 -13 78
q-57 121 95 108q4 21 13 35q17 -40 108 -35q40 -126 -69 -272l47 8l26 4q99 13 130 27v155q-4 34 9 65q8 -5 17 0h22q12 5 34 8q40 0 129 35l30 8q74 -86 173 -51q125 139 -26 230q-99 12 -151 -70l-129 25l-8 5h-26l-35 4l-30 5q-13 26 -9 48l5 72v74l-5 39l-17 4l-31 5
h-46l-36 5l-69 3q82 -121 82 -246l-30 -4l-143 -5l-38 5l-31 26v30l9 30v26l5 13l4 39l-26 18q34 8 51 25q143 329 429 308q118 36 0 116l-13 -13q-61 34 -131 31h-17q-38 -14 -64 -40z" />
    <glyph glyph-name="eth" unicode="&#xf0;" horiz-adv-x="634" 
d="M222 927l-22 -19l-56 -48l-7 -11q-19 -11 -26 -26l-22 -18l-34 -30l-14 -18l-30 -37l4 -8q-11 -48 18 -88l4 -30v-48l-4 -30q-3 -37 4 -62l-4 -15v-93l-3 -11l3 -7v-30q0 -55 -3 -92q-26 -37 -30 -70q4 -19 15 -41q44 -41 92 -19q59 -48 126 -26q15 -51 55 -59l49 4
l59 41l85 85l22 18l15 19q29 26 44 51q4 56 -18 100l3 11q-3 23 0 41l-3 26l3 15v151q0 45 8 74q3 74 12 120.5t-7.5 100t-60.5 111.5t-160 175l120 78l-43 20l-125 -77l-57 37q-14 9 -71 27l-34 -48l106 -52l-204 -134l59 -29l166 111q25 12 99.5 -49t134.5 -166t-43 -7
q-9 55 -77 38q-30 66 -96 66q-26 -4 -52 -22zM362 698l4 -37l-4 -23q4 -37 0 -62l4 -12q-7 -22 -7 -59q0 -29 3 -48l-3 -15v-118l-26 -74q-37 -52 -89 -70q-15 18 -22 37l-8 52l4 18v204l4 25q-4 23 0 37l-4 8q4 18 4 44l11 41q11 18 15 29l15 26q29 30 62 45q30 -19 37 -48
z" />
    <glyph glyph-name="Yacute" unicode="&#xdd;" horiz-adv-x="1193" 
d="M788 1218l-36 -2q-68 -50 -101 -115q-4 -83 54 -137q12 -131 -41 -197.5t-161 -52t-133.5 68.5t-15 125.5t110 131t104 132.5t-27 122t-79.5 65t-89.5 20t-174.5 -33l-18 36h-65q-54 4 -91 0q-3 -18 0 -28q112 -196 81 -327l14 -4l95 -4q24 -3 47 8v14l-8 7l-7 22
q-61 94 -6.5 189t205.5 40q132 -113 -92 -238.5t-147 -322.5q26 -36 62 -54q-25 -22 -23 -16q102 -107 230 -98q149 8 180 68q18 7 32 7v-90q-3 -29 0 -68q-3 -33 0 -58l-3 -12l3 -176q-55 -55 -47 -120q18 -47 57 -68q142 -36 171 3q44 8 57 47q5 44 0 73l-7 7l-36 47v18
q4 7 0 26v151q-18 18 -40 25q18 26 40 40v116q-3 29 4 54q21 18 44 18l24 -11q59 -120 145 -36v25q54 11 65 62q-7 57 -62 72q-57 127 -144 18l-22 -7q-24 15 -43 36l-4 21l4 29q-4 54 4 91q51 36 61 87q-10 54 -41 99l-38 29q-32 28 -91 25zM577 1785q-43 -11 -62 -47
l3 -62q28 -28 59 -36q-74 -514 157 -4q79 24 71 102q-28 43 -71 51q-19 67 -86 71q-59 -24 -71 -75z" />
    <glyph glyph-name="yacute" unicode="&#xfd;" horiz-adv-x="645" 
d="M33 847q-74 -48 15 -152l4 -22q-4 -56 3 -93q15 -4 26 -19l-26 -15l-3 -22l3 -11l-3 -41q0 -33 3 -56l-3 -7l3 -11q-3 -67 15 -119l11 -19q19 -37 52 -74l19 -15l18 -19l8 -3l7 -11l112 -101l11 -7l48 -49v-89l-3 -26l3 -7q-7 -34 -7 -60l-8 -18l-11 -30q-29 -26 -63 -33
q26 145 -97 66q-48 -89 23 -144q115 -26 208 26l7 22q56 -37 119 59l4 26l7 26l-3 26q3 19 0 30v45l3 22l-3 22v37q0 12 3 15l-3 19q7 45 5 74.5t-5 48.5l3 18v223q-22 11 -37 15q30 19 37 48l4 201l-4 15q8 56 4 93q31 41 36.5 75.5t-23 66.5t-87.5 14q-22 26 -52 33h-26
q-67 -29 -52 -96q-19 -15 -30 -30q-7 -30 -4 -56l26 -48l30 -37l-4 -26l4 -15l-4 -19q4 -29 0 -48v-193l-7 -82q-15 -52 -45 -86q-48 38 -70 82l-8 97l4 18v75l-4 22l4 19v137l-4 26l4 11l4 71q26 45 29 85q-29 53 -85 49q-41 52 -97 44q-63 -29 -48 -93zM267 1375
q-43 -11 -62 -47l3 -62q28 -28 59 -36q-74 -514 157 -4q79 24 71 102q-28 43 -71 51q-19 67 -86 71q-59 -24 -71 -75z" />
    <glyph glyph-name="Thorn" unicode="&#xde;" horiz-adv-x="1110" 
d="M713 265l17 -14q111 30 178 108l-3 30q17 11 37 13l5 8l14 20l40 64q2 9 5 11l6 17q11 19 22 50q9 23 17 35q9 43 28 72q0 25 3 45q-10 38 -30 62q-7 94 -58 161q-17 -3 -30 0q12 67 -50 103q-55 70 -105 45q-5 10 -5 19q-162 77 -306 13l-9 -75q257 91 349 -149
q11 -8 23 -8q-3 -28 8 -50q36 -78 5 -206v-19l-6 -20l-1 -16l-3 -9l-2 -25l16 -11q-22 -5 -32 -16q-94 -211 -277 -197q-196 -33 0 -75l8 9q39 -22 84 -21h11q24 9 41 26zM381 1436l-27 -8q-40 -37 -85 -50l-18 5q-8 -5 -31 0q-14 -5 -32 0q-22 0 -35 -5q-55 10 -90 0
q-10 -35 -10 -63l-8 -27v-27l-5 -8l-5 -37l-4 -31q215 140 257 50v-14q8 -26 8 -54v-14q5 -35 0 -63q9 -13 27 -22l-27 -13l-5 -50v-188q-53 -55 -63 -122q5 -76 55 -121v-122q0 -13 -5 -18v-122q-5 -22 -5 -35v-72q-13 -45 -35 -76q-45 8 -72 -10l-18 32q-90 23 -153 68
l5 -14l-5 -9l5 -36l3 -31l5 -37l5 -8q5 -50 18 -82h229q63 -40 126 -53q77 4 122 49l278 4q0 32 5 37v17l5 31l13 113l-23 5q-108 -94 -229 -81l-14 22l-4 198q-18 18 -27 31q22 32 27 59l4 13v118q45 62 55 130q-10 22 -10 40l-4 10l-10 30q-26 42 -31 87l-27 3l27 23
l-17 14q17 18 27 36q0 13 4 17v198l4 14q0 49 10 86q31 27 71 13q14 14 19 27q13 -23 13 -40l27 -14l63 -23l67 -40v36l-9 13v23l-9 36v14q-14 45 -14 80h-225q-71 63 -143 72z" />
    <glyph glyph-name="thorn" unicode="&#xfe;" horiz-adv-x="348" 
d="M713 265l17 -14q111 30 178 108l-3 30q17 11 37 13l5 8l14 20l40 64q2 9 5 11l6 17q11 19 22 50q9 23 17 35q9 43 28 72q0 25 3 45q-10 38 -30 62q-7 94 -58 161q-17 -3 -30 0q12 67 -50 103q-55 70 -105 45q-5 10 -5 19q-162 77 -306 13l-9 -75q257 91 349 -149
q11 -8 23 -8q-3 -28 8 -50q36 -78 5 -206v-19l-6 -20l-1 -16l-3 -9l-2 -25l16 -11q-22 -5 -32 -16q-94 -211 -277 -197q-196 -33 0 -75l8 9q39 -22 84 -21h11q24 9 41 26zM381 1436l-27 -8q-40 -37 -85 -50l-18 5q-8 -5 -31 0q-14 -5 -32 0q-22 0 -35 -5q-55 10 -90 0
q-10 -35 -10 -63l-8 -27v-27l-5 -8l-5 -37l-4 -31q215 140 257 50v-14q8 -26 8 -54v-14q5 -35 0 -63q9 -13 27 -22l-27 -13l-5 -50v-188q-53 -55 -63 -122q5 -76 55 -121v-122q0 -13 -5 -18l5 -589q5 -74 -37 -62t-69 -6l-18 32q-90 23 -153 68l5 -14l-5 -9l5 -36l3 -31
l5 -37l5 -8q5 -50 18 -82h229q63 -40 126 -53q77 4 122 49l278 4q0 32 5 37v17l5 31l13 113l-23 5q-108 -94 -251 -86l-3 369l-4 198q-18 18 -27 31q22 32 27 59l4 13v118q45 62 55 130q-10 22 -10 40l-4 10l-10 30q-26 42 -31 87l-27 3l27 23l-17 14q17 18 27 36q0 13 4 17
v198l4 14q0 49 10 86q31 27 71 13q14 14 19 27q13 -23 13 -40l27 -14l63 -23l67 -40v36l-9 13v23l-9 36v14q-14 45 -14 80h-225q-71 63 -143 72z" />
    <glyph glyph-name="minus" unicode="&#xad;" horiz-adv-x="1250" 
d="M621 770l-64 2l-12 -4h-44q-96 -4 -156 8q-16 16 -24 36t-24 32q-28 12 -52 12q-60 -20 -68 -76q-80 -28 -68 -108q32 -40 72 -52q12 -56 64 -68l48 8l20 20q20 32 44 48l16 4h180q164 4 180 0h176l28 -20q28 -56 84 -56q56 20 64 68q80 36 68 112q-24 36 -64 48
q-16 56 -68 76q-72 -8 -88 -68l-20 -16q-52 -12 -96 -8l-16 -28l-16 28l-117 4z" />
    <glyph glyph-name="minus" unicode="&#x2212;" horiz-adv-x="1250" 
d="M621 770l-64 2l-12 -4h-44q-96 -4 -156 8q-16 16 -24 36t-24 32q-28 12 -52 12q-60 -20 -68 -76q-80 -28 -68 -108q32 -40 72 -52q12 -56 64 -68l48 8l20 20q20 32 44 48l16 4h180q164 4 180 0h176l28 -20q28 -56 84 -56q56 20 64 68q80 36 68 112q-24 36 -64 48
q-16 56 -68 76q-72 -8 -88 -68l-20 -16q-52 -12 -96 -8l-16 -28l-16 28l-117 4z" />
    <glyph glyph-name="multiply" unicode="&#xd7;" horiz-adv-x="1184" 
d="M768 1065q-48 31 -93 3q-40 -50 -20 -104l-6 -34l-142 -141l-11 6l-31 31q-71 65 -105 117q1 22 9.5 42t5.5 39q-11 29 -28 46q-56 28 -102 -5q-76 37 -124 -28q-6 -51 13 -88q-31 -48 -3 -93l39 -29h29q37 9 65 3l14 -9l127 -128l-3 -8l-74 -73q0 -23 11 -40
q-42 20 -91 -33q-178 32 -119 -113q-37 -93 47 -133q43 2 68 16q48 -31 96 -6q20 26 32 48v17q-14 37 -17 63l3 8l12 23l130 129q23 -11 31 -25l124 -126l6 -33q-20 -60 19 -100q54 -25 93 3q82 -32 128 30q8 43 -11 80q28 50 6 101q-56 46 -110 15l-26 3q-45 28 -73 63
l-31 -9l8 31l-61 63l2 8l137 135l8 3q57 0 94 -9q28 11 45 28q29 57 -5 102q37 76 -28 125q-51 6 -88 -14z" />
    <glyph glyph-name="onesuperior" unicode="&#xb9;" horiz-adv-x="372" 
d="M186 1387q-20 -3 -32 -13l-5 2l-7 -2l-45 -3q-11 2 -20 -3l-1 -6q0 -8 -2 -9v-19q-1 -10 -1 -18q31 0 47 22q13 -10 20 3l7 -2q3 -5 7 -18v-10q-4 -15 -2 -25v-20q0 -17 -2 -29q-7 -8 -15 -11q-56 62 -68 2q-30 -10 -23 -40q10 -14 24 -18q33 -35 59 6q9 1 14.5 -2.5
t8.5 -8.5q0 -9 -1 -15v-54q-2 -18 12 -25q-9 -7 -2 -13l-3 -3l-9 -6q10 -86 -28 -80l-6 -10q-4 7 -4 15q-25 14 -43 14l-2 -4l2 -9l4 -24q0 -13 4 -22l5 -1h36l5 1l5 -1l29 1q15 -16 34 -21q27 5 43 21h57q10 0 26 2q3 5 3 10q0 15 3 25q1 15 -1 25l-29 -11q-30 -21 -53 -11
l-4 6q-2 13 -1 33q1 16 -1 26v71q14 21 17 44q-1 25 -16 44v108l17 26l-1 21q-9 10 -17 14q-14 26 -42 26z" />
    <glyph glyph-name="twosuperior" unicode="&#xb2;" horiz-adv-x="509" 
d="M293 1384q-52 -4 -88 -28l-3 2q-2 14 -6 25h-32l-12 -2q-6 2 -10 0v-4q5 -15 7 -28q4 -12 8 -31l1 -9q1 -10 1 -16l4 -10l1 -21v-40q-1 -18 -1 -30l9 -3l9 2l37 -4q3 4 2 8q-27 50 -12 98q-2 8 -8 14q11 0 17 -1q73 66 129 -9q45 -81 -46 -144l-6 -5l-9 -6l-3 -1
q-8 -8 -15 -12l-18 -16l-7 -4l-5 -6q-14 -8 -21 -15l-4 -3l-13 -11l-5 -4l-16 -12l-11 -11l-4 -3l-19 -17q0 -12 -4 -21q-9 3 -17 3l-4 -6l-6 -4q-8 -5 -14 -13l-3 -3q-11 -7 -17 -15l-42 -40v-6h8l4 1l30 15q17 9 29 12l6 3l74 26l3 2q6 0 14 2q12 3 20 3l10 4l55 2l3 2h10
l5 -2q16 0 29 -2q11 1 17 10q5 -8 7 -15q61 -21 61 -80q-19 -67 -117 -46v-10l-2 -5v-39h14l6 1h7q13 4 22 4h13l6 1h6q28 6 45 6q8 5 13 12l6 -13h4q15 1 26 4q8 -1 12 0l11 -1l-2 33q2 12 -3 21q-18 -1 -30 0l1 5q5 13 6 24q-15 174 -213 153l11 10l3 2q7 7 12 10
q7 5 11 9l5 2q17 12 23 14l3 2l32 20q9 5 15 9l20 11l4 4l8 5q20 12 29 21l-3 12q9 6 18 5q37 54 15 108q-46 99 -164 87z" />
    <glyph glyph-name="threesuperior" unicode="&#xb3;" horiz-adv-x="405" 
d="M217 1350l-7 20h-11q-23 1 -38 -3v-5l15 -35l2 -6l1 -6l9 -39l2 -10v-11l1 -6v-6q3 -11 3 -19q3 -14 3 -24q3 -4 7 -4l17 1l4 2q12 0 19 2q-25 82 19 123l13 1q12 -4 18 -8l12 -21q9 -72 -12 -131l-1 -13q51 -95 -39 -157q-93 -64 -135 15q-9 53 8 96l-4 1l-12 -4l-25 -4
q-9 -2 -16 -7l1 -66l-1 -5q0 -16 -5 -26l-1 -10v-6q0 -9 -3 -15l-3 -9v-6q-6 -12 -7 -22l4 -3h7l11 2l33 1q2 9 2 18q42 -36 71 -9q4 -7 6 -13q99 1 165 59q2 16 -1 28q12 -6 20 -6q74 102 6 170l2 5q3 15 7 26l5 32l-9 10l9 6q-5 44 -28 77q-40 44 -96 41q-28 -4 -48 -21z
" />
    <glyph glyph-name="onehalf" unicode="&#xbd;" horiz-adv-x="1336" 
d="M137 28q20 35 14 66l72 69q14 9 20 17l106 89q20 -12 31 -27q15 -8 26 -23q32 -34 60 -48l9 8q9 3 11 6q18 17 43 37q26 17 38 29q0 11 -9 14q-86 17 -146 63q14 20 26 32l18 20q17 14 26 29l48 48q15 9 26 23l6 6l14 17q6 3 15 15q14 20 28 31q-5 17 0 32q49 6 72 46
l26 28l14 15q9 8 20 23q23 20 35 36l54 54q13 18 27 26q9 17 20 26q23 20 35 37q17 15 28 32l20 20q9 11 18 17q14 20 28 32l15 17l43 46q8 14 17 23l17 20q23 23 37 43l3 20h26l23 25l9 8l8 9l61 63q15 20 29 32l3 8q32 49 43 89q-17 -6 -26 -14l-20 -9l-40 -23l-14 -14
q-20 -17 -32 -32q-23 -17 -49 -44q-20 -18 -31 -35l-10 -6l-14 -17l-46 -37l-6 -9l-57 -63l-9 -6l-112 -109q-14 -14 -17 -20q-20 -11 -31 -25q-43 -41 -55 -58l-156 -154q-43 -37 -66 -66l-11 -11q-18 -17 -30.5 -27t-18.5 -19q-29 -23 -43 -40l-9 -9l-14 -11l-23 -26
q-3 -3 -11 -12l-15 -17l-17 -17q-26 -13 -40 -33q-17 8 -26 20l-6 5l-8 20q-15 21 -20 38l-18 5q12 38 -5 66q-6 9 -18 6l-31 -46l-3 -5q-29 -29 -37 -58l5 -8q23 -18 32 -32l17 -11l3 -6q34 -37 62 -55l-11 -17l-38 -43l-5 -9l-26 -25q-14 -18 -20 -29l-9 -6l-11 -14
l-15 -17l-14 -15l-3 -5q-14 -15 -23 -29q-57 11 -89 -35q-34 -106 75 -111q31 11 52 31zM383 1301q-27 -4 -43 -17l-6 2l-10 -2l-59 -4q-15 2 -27 -4l-1 -8q0 -11 -3 -13v-25q-1 -13 -1 -23q41 0 63 29q17 -13 27 3l9 -1q4 -8 8 -25v-14q-4 -19 -3 -32v-27q0 -22 -1 -38
q-10 -11 -21 -15q-74 82 -90 2q-40 -13 -30 -53q13 -18 32 -24q42 -47 78 8q12 2 19.5 -3t11.5 -12q0 -12 -2 -19v-73q-2 -23 15 -32q-12 -10 -2 -17l-4 -4l-11 -8q13 -114 -38 -106l-8 -14q-6 10 -6 20q-32 19 -57 19l-2 -6l2 -12l5 -32q0 -18 6 -29l7 -2h47l8 2l6 -2l38 2
q21 -21 45 -28q36 7 58 28h76q13 0 34 2q4 8 4 14q0 21 4 34q2 19 -2 32l-38 -15q-40 -27 -71 -13l-4 7q-3 18 -2 45q2 20 -1 33v94q19 28 22 60q-1 33 -21 58v143l23 35l-2 28q-11 14 -22 19q-19 35 -56 35zM945 579q-64 -5 -109 -35l-4 3q-3 18 -8 31h-40l-14 -2
q-8 2 -14 0v-6q7 -19 9 -34q6 -15 10 -40l2 -11q2 -11 2 -19l4 -13l1 -27v-48q-1 -23 -1 -38l11 -4l11 2l47 -4q4 4 2 10q-34 62 -15 122q-2 10 -10 17q14 0 21 -2q91 84 161 -11q56 -100 -57 -179l-7 -6l-12 -8l-3 -2q-10 -9 -19 -14l-23 -20l-8 -5l-7 -8q-17 -9 -26 -19
l-4 -3l-17 -13l-6 -6l-20 -15l-14 -13l-5 -4l-23 -21q0 -15 -6 -26q-11 3 -21 3l-5 -7l-8 -6q-9 -5 -17 -15l-4 -4q-13 -9 -20 -18l-53 -51v-8h9l6 2l38 19q20 11 36 15l7 4l93 32l3 2q8 0 18 3q14 4 24 4l13 4l68 3l4 3h13l6 -3q20 0 36 -3q14 2 22 13q6 -10 8 -19
q77 -26 77 -100q-25 -83 -147 -57v-13l-2 -5v-49h17l7 1h10q15 4 26 4h17l8 2h7q35 8 57 8q10 6 15 15l8 -17h5q19 2 32 6q10 -2 16 0l13 -2l-2 41q2 15 -4 27q-23 -2 -37 0l1 5q6 17 8 30q-19 218 -266 191l13 13l4 2q9 10 15 13q9 6 13 12l7 1q21 16 29 18l4 3l40 25
q11 6 18 11l25 13l5 6l10 6q24 15 35 26l-3 15q11 8 22 6q48 68 20 136q-57 123 -205 107z" />
    <glyph glyph-name="onequarter" unicode="&#xbc;" horiz-adv-x="1349" 
d="M137 28q20 35 14 66l72 69q14 9 20 17l106 89q20 -12 31 -27q15 -8 26 -23q32 -34 60 -48l9 8q9 3 11 6q18 17 43 37q26 17 38 29q0 11 -9 14q-86 17 -146 63q14 20 26 32l18 20q17 14 26 29l48 48q15 9 26 23l6 6l14 17q6 3 15 15q14 20 28 31q-5 17 0 32q49 6 72 46
l26 28l14 15q9 8 20 23q23 20 35 36l54 54q13 18 27 26q9 17 20 26q23 20 35 37q17 15 28 32l20 20q9 11 18 17q14 20 28 32l15 17l43 46q8 14 17 23l17 20q23 23 37 43l3 20h26l23 25l9 8l8 9l61 63q15 20 29 32l3 8q32 49 43 89q-17 -6 -26 -14l-20 -9l-40 -23l-14 -14
q-20 -17 -32 -32q-23 -17 -49 -44q-20 -18 -31 -35l-10 -6l-14 -17l-46 -37l-6 -9l-57 -63l-9 -6l-112 -109q-14 -14 -17 -20q-20 -11 -31 -25q-43 -41 -55 -58l-156 -154q-43 -37 -66 -66l-11 -11q-18 -17 -30.5 -27t-18.5 -19q-29 -23 -43 -40l-9 -9l-14 -11l-23 -26
q-3 -3 -11 -12l-15 -17l-17 -17q-26 -13 -40 -33q-17 8 -26 20l-6 5l-8 20q-15 21 -20 38l-18 5q12 38 -5 66q-6 9 -18 6l-31 -46l-3 -5q-29 -29 -37 -58l5 -8q23 -18 32 -32l17 -11l3 -6q34 -37 62 -55l-11 -17l-38 -43l-5 -9l-26 -25q-14 -18 -20 -29l-9 -6l-11 -14
l-15 -17l-14 -15l-3 -5q-14 -15 -23 -29q-57 11 -89 -35q-34 -106 75 -111q31 11 52 31zM383 1301q-27 -4 -43 -17l-6 2l-10 -2l-59 -4q-15 2 -27 -4l-1 -8q0 -11 -3 -13v-25q-1 -13 -1 -23q41 0 63 29q17 -13 27 3l9 -1q4 -8 8 -25v-14q-4 -19 -3 -32v-27q0 -22 -1 -38
q-10 -11 -21 -15q-74 82 -90 2q-40 -13 -30 -53q13 -18 32 -24q42 -47 78 8q12 2 19.5 -3t11.5 -12q0 -12 -2 -19v-73q-2 -23 15 -32q-12 -10 -2 -17l-4 -4l-11 -8q13 -114 -38 -106l-8 -14q-6 10 -6 20q-32 19 -57 19l-2 -6l2 -12l5 -32q0 -18 6 -29l7 -2h47l8 2l6 -2l38 2
q21 -21 45 -28q36 7 58 28h76q13 0 34 2q4 8 4 14q0 21 4 34q2 19 -2 32l-38 -15q-40 -27 -71 -13l-4 7q-3 18 -2 45q2 20 -1 33v94q19 28 22 60q-1 33 -21 58v143l23 35l-2 28q-11 14 -22 19q-19 35 -56 35zM729 540q80 21 147 -11q21 -14 12 -40.5t-40 -71.5
q-123 -164 8 -268q15 2 24 10q4 -15 8 -22q114 -22 195 74l13 7v-49q0 -18 -2 -31v-23l-4 -3q-13 -8 -23 -22q-3 -17 -3 -30q15 -29 42 -40q44 -63 95 2q25 6 38 26q2 44 -30 65q-4 25 0 46q-12 8 -19 15l17 16v115l2 14l3 14q10 11 20 14q47 -67 86 -18q40 10 36 48
q-12 21 -31 30q-25 83 -78 0q-13 -1 -23 0q-10 10 -13 21v21q2 25 0 27v65l9 13q19 -13 31 -2q30 -28 69 -34l1 4v30q-3 16 -6 41l-5 3l-12 3h-57q-15 -3 -28.5 0t-20.5 7q-27 21 -56 17q-26 -12 -42 -29l-2 -5l2 -6q-6 -17 -3 -32q3 -12 11 -19v-8l2 -21v-16q-6 -20 -2 -38
l-2 -15l-8 -17q-11 -10 -24 -10q-41 56 -77 4q-38 -19 -34 -55q11 -25 34 -27q42 -48 78 6q12 2 22 0q5 -10 7 -19q-57 -134 -179 -88l-2 5q-23 24 -33 52v17l10 48q11 23 11 44l8 7q23 81 30 122q17 11 30 15v14l9 48q-5 1 -12 0l-6 1l-8 -1q-28 1 -48 0q-7 -15 -9 -27
l-4 3q-6 12 -11 19h-18q-15 5 -26 5l-17 1q-14 0 -31 4h-20q-12 4 -22 4q-20 -34 -19 -69z" />
    <glyph glyph-name="threequarters" unicode="&#xbe;" horiz-adv-x="1355" 
d="M137 28q20 35 14 66l72 69q14 9 20 17l106 89q20 -12 31 -27q15 -8 26 -23q32 -34 60 -48l9 8q9 3 11 6q18 17 43 37q26 17 38 29q0 11 -9 14q-86 17 -146 63q14 20 26 32l18 20q17 14 26 29l48 48q15 9 26 23l6 6l14 17q6 3 15 15q14 20 28 31q-5 17 0 32q49 6 72 46
l26 28l14 15q9 8 20 23q23 20 35 36l54 54q13 18 27 26q9 17 20 26q23 20 35 37q17 15 28 32l20 20q9 11 18 17q14 20 28 32l15 17l43 46q8 14 17 23l17 20q23 23 37 43l3 20h26l23 25l9 8l8 9l61 63q15 20 29 32l3 8q32 49 43 89q-17 -6 -26 -14l-20 -9l-40 -23l-14 -14
q-20 -17 -32 -32q-23 -17 -49 -44q-20 -18 -31 -35l-10 -6l-14 -17l-46 -37l-6 -9l-57 -63l-9 -6l-112 -109q-14 -14 -17 -20q-20 -11 -31 -25q-43 -41 -55 -58l-156 -154q-43 -37 -66 -66l-11 -11q-18 -17 -30.5 -27t-18.5 -19q-29 -23 -43 -40l-9 -9l-14 -11l-23 -26
q-3 -3 -11 -12l-15 -17l-17 -17q-26 -13 -40 -33q-17 8 -26 20l-6 5l-8 20q-15 21 -20 38l-18 5q12 38 -5 66q-6 9 -18 6l-31 -46l-3 -5q-29 -29 -37 -58l5 -8q23 -18 32 -32l17 -11l3 -6q34 -37 62 -55l-11 -17l-38 -43l-5 -9l-26 -25q-14 -18 -20 -29l-9 -6l-11 -14
l-15 -17l-14 -15l-3 -5q-14 -15 -23 -29q-57 11 -89 -35q-34 -106 75 -111q31 11 52 31zM729 540q80 21 147 -11q21 -14 12 -40.5t-40 -71.5q-123 -164 8 -268q15 2 24 10q4 -15 8 -22q114 -22 195 74l13 7v-49q0 -18 -2 -31v-23l-4 -3q-13 -8 -23 -22q-3 -17 -3 -30
q15 -29 42 -40q44 -63 95 2q25 6 38 26q2 44 -30 65q-4 25 0 46q-12 8 -19 15l17 16v115l2 14l3 14q10 11 20 14q47 -67 86 -18q40 10 36 48q-12 21 -31 30q-25 83 -78 0q-13 -1 -23 0q-10 10 -13 21v21q2 25 0 27v65l9 13q19 -13 31 -2q30 -28 69 -34l1 4v30q-3 16 -6 41
l-5 3l-12 3h-57q-15 -3 -28.5 0t-20.5 7q-27 21 -56 17q-26 -12 -42 -29l-2 -5l2 -6q-6 -17 -3 -32q3 -12 11 -19v-8l2 -21v-16q-6 -20 -2 -38l-2 -15l-8 -17q-11 -10 -24 -10q-41 56 -77 4q-38 -19 -34 -55q11 -25 34 -27q42 -48 78 6q12 2 22 0q5 -10 7 -19
q-57 -134 -179 -88l-2 5q-23 24 -33 52v17l10 48q11 23 11 44l8 7q23 81 30 122q17 11 30 15v14l9 48q-5 1 -12 0l-6 1l-8 -1q-28 1 -48 0q-7 -15 -9 -27l-4 3q-6 12 -11 19h-18q-15 5 -26 5l-17 1q-14 0 -31 4h-20q-12 4 -22 4q-20 -34 -19 -69zM413 1262l-10 26h-15
q-30 1 -49 -5v-5l19 -47l2 -8l2 -8l12 -52l2 -12v-15l1 -9v-7q5 -14 5 -25q3 -18 3 -31q4 -6 10 -6l22 2l5 2q16 0 26 3q-33 108 25 162l17 2q16 -6 24 -11l16 -28q11 -95 -16 -173l-2 -18q68 -125 -51 -206q-122 -84 -178 19q-12 70 11 127l-6 2l-16 -6l-33 -6
q-11 -2 -21 -8l2 -87l-2 -7q0 -20 -6 -34l-2 -14v-8q0 -12 -4 -19l-4 -12v-8q-8 -16 -10 -29l6 -4h10l13 2l44 2q4 12 4 23q54 -46 93 -11q6 -10 8 -18q130 2 218 78q2 22 -2 37q16 -8 27 -8q98 135 8 224l2 8q4 19 9 33l7 43l-12 14l12 7q-7 59 -37 102q-53 58 -127 54
q-37 -6 -62 -27z" />
    <glyph glyph-name="Lslash" unicode="&#x141;" horiz-adv-x="1215" 
d="M375 1416q-48 -30 -82 -39q-26 4 -44 4h-163q-26 -55 -21 -108l-5 -7q-4 -43 -4 -74q22 -5 42 9q32 22 56 29l52 27l6 26q41 -35 89 -4l22 -17q13 -91 8 -152l-8 -550l4 -29v-281q-65 -51 -65 -124q22 -56 99 -81q9 -27 27 -44q105 -25 170 51l22 9h14l21 -4h133
q34 9 52 24l22 -20q125 -13 215 49l4 -22q-17 -26 -4 -53h17l30 6l25 7q43 -13 82 0v26l-3 10l-14 29q-12 36 -22 91l-16 51l-5 86q-15 14 -38 14q26 17 38 29v26l5 13v154q-107 19 -193 -7q133 -263 -74 -395q-220 -15 -279 200q-35 26 -32 65q-7 13 -16 16q21 27 35 53
l-5 43v551l-4 58l47 69l5 65q-78 121 -202 133zM969 1317q-15 -26 -11 -50l-54 -52q-10 -6 -15 -13l-80 -66q-15 9 -23 20q-11 6 -20 17q-24 26 -45 36l-6 -6q-7 -2 -9 -4q-13 -13 -32 -28q-20 -13 -29 -22q0 -8 7 -10q65 -13 110 -48q-11 -15 -20 -24l-13 -15
q-13 -11 -20 -22l-36 -36q-11 -7 -19 -17l-5 -5l-10 -13q-5 -2 -12 -11q-10 -15 -21 -23q4 -13 0 -24q-37 -5 -54 -35l-20 -21l-10 -11q-7 -6 -15 -18q-17 -15 -26 -27l-41 -40q-10 -14 -20 -20q-7 -13 -15 -19q-18 -15 -27 -28q-13 -12 -21 -24l-15 -15q-7 -9 -13 -13
q-11 -15 -22 -24l-11 -13l-32 -35q-6 -10 -13 -17l-13 -15q-17 -17 -28 -32l-2 -15h-19l-18 -19l-6 -6l-7 -7l-45 -47q-12 -15 -22 -24l-2 -6q-25 -37 -33 -67q13 4 20 10l15 7l30 17l10 11q15 12 24 24q18 13 37 33q15 13 24 26l7 5l11 13l34 27l5 7l43 48l7 4l84 82
q10 11 13 15q15 8 23 19q32 31 41 44l118 115q32 28 49 50l9 8q13 13 22.5 20.5t14.5 14.5q21 17 32 30l7 7l10 8l17 20q3 2 9 9l11 13l13 12q19 10 30 25q13 -6 19 -15l5 -4l6 -15q11 -15 15 -28l14 -4q-9 -29 3 -50q5 -6 14 -4l23 34l3 4q21 22 27 44l-3 6q-18 13 -24 24
l-13 8l-3 5q-25 28 -46 41l8 13l29 32l3 7l20 19q11 13 15 22l7 4l8 11l11 12l11 12l2 4q11 11 17 21q43 -8 67 27q26 79 -56 83q-23 -8 -39 -23z" />
    </font>
</defs>
</svg>
