<?xml version="1.0" standalone="no"?> <!DOCTYPE svg PUBLIC "-//W3C//DTD SVG 1.0//EN" "http://www.w3.org/TR/2001/REC-SVG-20010904/DTD/svg10.dtd" > <svg xmlns="http://www.w3.org/2000/svg" width="100%" height="100%">
<defs >
<font horiz-adv-x="1059" ><font-face
    font-family="Cyrodiil"
    units-per-em="2048"
    panose-1="2 0 5 0 0 0 0 0 0 0"
    ascent="1953"
    descent="-733"
    alphabetic="0" />
<missing-glyph horiz-adv-x="1600" d="M0 0T0 200V1300Q0 1500 200 1500H1300Q1500 1500 1500 1300V200Q1500 0 1300 0H200Q0 0 0 200ZM1475 25T1475 201V1300Q1475 1475 1300 1475H200Q26 1475 25 1300V200Q26 25 200 25H1301Q1475 25 1475 201Z" />
<glyph unicode=" " glyph-name="space" horiz-adv-x="1000" />
<glyph unicode="!" glyph-name="exclam" horiz-adv-x="433" d="M166 1460Q147 1447 147 1442Q147 1439 154 1439Q206 1439 304 1307V483L220 365L70 459L43 1241L-37 1286L166 1472V1460ZM358 148Q358 120 313 55Q268 -6 233 -26Q220 -29 209 -29Q190 -29 161
-21L32 122L165 271L223 290L358 148Z" />
<glyph unicode="&quot;" glyph-name="quotedbl" horiz-adv-x="913" d="M413 1154Q496 1310 639 1412Q712 1333 843 1178Q816 1147 775 1070Q734 991 661 842L542 815L551 1051Q539 1072 514 1109Q487 1145 462 1179L413 1154ZM-15 1224Q27 1307 172 1421Q228 1360
270 1309Q312 1257 369 1184Q347 1156 304 1077Q261 998 188 847L71 819L80 1053Q67 1072 41 1110Q16 1147 -25 1202V1217L-15 1224Z" />
<glyph unicode="#" glyph-name="numbersign" horiz-adv-x="1135" d="M501 894H547L543 1106L626 1239Q655 1239 804 1110L801 894H1075L964 715H800L798 605H1073L962 425H796L794 243L710 125L560 219L556 425H496L494 243L410 125L260 219L256 425H-37Q-5 480
23 515Q49 551 95 605H253L250 715H-23V742Q1 778 28 812Q55 847 97 894H247L243 1106L326 1239Q355 1239 504 1110L501 894ZM550 715H500L498 605H553L550 715Z" />
<glyph unicode="$" glyph-name="dollar" horiz-adv-x="1310" d="M524 181Q601 145 762 145Q984 145 984 426Q984 498 900 585Q809 679 709 679Q626 679 615 676L524 181ZM371 765Q482 765 482 764L556 1134Q561 1133 563 1133Q564 1133 564 1134L555 1136Q537
1141 513 1151Q496 1157 479 1161Q464 1164 456 1164Q346 1164 304 1132Q251 1092 251 971Q251 856 307 799Q345 761 370 761L371 765ZM656 842Q761 902 847 902Q938 902 1067 811Q1235 691 1235 515Q1235 270 1021 122Q809 -24 485 -24L460 -148Q379 -198 274
-209L322 16Q256 42 168 88Q79 133 -39 201Q13 240 57 274Q101 309 176 369Q289 268 380 237L450 575Q425 558 333 558H314Q177 568 92 655Q7 744 7 853Q7 1071 214 1210Q373 1316 543 1316H604L625 1429Q680 1471 795 1515L748 1296Q818 1274 905 1236Q995 1197
1115 1133L915 993H861L701 1078L656 842Z" />
<glyph unicode="%" glyph-name="percent" horiz-adv-x="1193" d="M159 1014L160 1013Q160 680 309 680Q346 680 346 757Q346 900 290 995Q245 1070 202 1070Q159 1070 159 1014ZM735 503L736 502Q736 169 884 169Q921 169 921 246Q921 389 865 484Q821 559 778
559Q735 559 735 503ZM449 579Q375 491 256 491Q116 491 40 623Q-20 727 -20 847L-25 846Q-25 1020 44 1128Q121 1249 247 1249Q365 1249 450 1155Q542 1053 542 887Q542 798 523 727L791 1263Q834 1288 977 1314L685 691Q745 738 823 738Q939 738 1026 644Q1118
542 1118 376Q1118 201 1046 95Q968 -20 831 -20Q692 -20 615 112Q555 215 555 335L551 334Q551 376 555 413L354 -15Q255 -69 126 -69L449 579Z" />
<glyph unicode="&amp;" glyph-name="ampersand" horiz-adv-x="1527" d="M250 634Q281 461 406 329Q569 155 821 155Q951 155 1026 212Q1096 265 1096 374Q1096 555 912 625Q906 626 899 626Q864 626 804 596L706 708L676 728Q924 856 1246 856Q1350 856 1456 831L1423
708Q1321 732 1248 732Q1118 732 1098 724Q1012 717 1012 716Q1012 715 1022 715H1123Q1192 715 1259 642Q1332 557 1332 445Q1332 -24 540 -24Q324 -24 146 203Q-25 420 -25 646Q-25 909 140 1093Q257 1223 451 1304Q581 1360 637 1360Q828 1360 942 1321Q1096
1273 1247 1123L950 1023Q790 1188 536 1188Q403 1188 319 1052Q242 923 240 758V752Q240 729 241 706L301 818H689L568 634H250Z" />
<glyph unicode="&apos;" glyph-name="quotesingle" horiz-adv-x="442" d="M-11 1228Q28 1307 174 1421Q230 1360 272 1309Q314 1257 370 1185Q353 1156 334 1129Q317 1103 291 1067L188 849L71 820L80 1055Q67 1074 41 1112Q16 1149 -25 1203V1225L-11 1228Z" />
<glyph unicode="(" glyph-name="parenleft" horiz-adv-x="655" d="M489 26Q489 27 569 44L581 -57Q439 -119 306 -119Q142 -119 51 45Q-25 188 -25 393Q-25 649 54 860Q145 1113 352 1254L449 1172Q341 1104 279 895Q249 795 234 690Q219 584 219 473Q219 291
281 165Q351 28 489 28V26Z" />
<glyph unicode=")" glyph-name="parenright" horiz-adv-x="708" d="M-55 1207Q5 1261 37 1279Q70 1297 107 1308Q142 1321 178 1328Q216 1337 245 1337Q418 1337 529 1215Q633 1099 633 952Q633 217 186 -89L175 99Q286 162 347 334Q399 484 399 659Q399 857 315
1025Q236 1175 158 1175Q128 1175 62 1147L-19 1218V1207H-55Z" />
<glyph unicode="*" glyph-name="asterisk" horiz-adv-x="932" d="M303 1120L293 1273L393 1424L554 1318L547 1119L687 1175L861 1125L813 950L615 893L718 770L725 597L531 588L422 750L343 625L169 561L104 736L230 897L77 935L-31 1073L116 1189L303 1120Z" />
<glyph unicode="+" glyph-name="plus" horiz-adv-x="786" d="M239 677H-21V679H-42Q-1 740 27 774Q53 809 95 856H231L223 1033L323 1184L484 1078V856H726L614 677H484V453L400 359L251 433L239 677Z" />
<glyph unicode="," glyph-name="comma" horiz-adv-x="467" d="M0 159Q52 267 194 369Q304 252 395 137Q308 -17 222 -151Q138 -283 13 -453L-26 -257L151 8Q87 52 0 159Z" />
<glyph unicode="-" glyph-name="hyphen" horiz-adv-x="786" d="M-42 679Q-1 740 27 774Q53 809 95 856H726L614 677H-21V679H-42Z" />
<glyph unicode="." glyph-name="period" horiz-adv-x="406" d="M-23 161Q30 255 172 364Q236 282 271 236Q305 189 336 147Q291 97 246 60Q205 27 138 -19Q78 29 44 67Q8 107 -23 151V161Z" />
<glyph unicode="/" glyph-name="slash" horiz-adv-x="875" d="M629 1329Q672 1355 815 1381L192 52Q94 -3 -36 -3L629 1329Z" />
<glyph unicode="0" glyph-name="zero" horiz-adv-x="987" d="M206 907L207 905Q207 145 574 145Q686 145 686 342Q686 669 558 885Q451 1067 334 1067Q206 1067 206 907ZM-25 589Q-25 866 90 1048Q219 1249 424 1249Q617 1249 759 1093Q912 922 912 642Q912 345
792 166Q663 -24 439 -24Q210 -24 85 193Q-17 368 -17 591L-25 589Z" />
<glyph unicode="1" glyph-name="one" horiz-adv-x="516" d="M441 1249V-16H120L148 103V974Q119 985 76 985Q42 985 -31 964L-10 1071H19Q59 1071 140 1123Q185 1153 226 1184Q269 1214 322 1249H441Z" />
<glyph unicode="2" glyph-name="two" horiz-adv-x="928" d="M728 188Q768 210 815 245L855 170L770 -22H-26Q-1 86 98 191Q156 254 309 387Q462 524 529 597Q587 698 587 792V798Q585 904 500 981Q418 1057 319 1057Q244 1057 194 1009Q142 959 75 785L-28 961Q48
1079 164 1152Q295 1238 422 1238Q580 1238 706 1135Q842 1023 842 838Q842 761 797 646Q474 415 253 194V187H712V180L728 188Z" />
<glyph unicode="3" glyph-name="three" horiz-adv-x="970" d="M857 952Q857 781 696 728Q783 676 839 592Q895 509 895 388Q895 217 760 93Q627 -31 428 -31Q152 -31 -30 170Q40 263 148 299Q189 250 220 217Q249 184 280 149Q347 88 431 88Q631 88 631 325Q631
429 578 493Q500 582 294 582L330 683Q484 718 542 778Q594 830 594 882Q594 940 531 1008Q472 1073 428 1073Q402 1073 361 1081Q326 1088 312 1088Q222 1088 118 875L-21 952Q28 1026 78 1074Q126 1124 185 1163Q324 1253 462 1253Q603 1253 720 1181L855 1097L805
1108L857 952Z" />
<glyph unicode="4" glyph-name="four" horiz-adv-x="949" d="M452 992Q423 938 394 887Q363 829 337 776Q268 647 229 559Q189 474 183 451H452V992ZM675 453H874V280H720V-20H403L452 131L445 299H-30Q6 458 181 762Q304 975 372 1093Q441 1213 462 1254Q614
1226 719 1144V631L675 453Z" />
<glyph unicode="5" glyph-name="five" horiz-adv-x="957" d="M177 764Q289 867 443 867H454Q630 866 754 740Q882 613 882 426Q882 232 759 106Q618 -35 390 -35Q141 -35 -28 118Q3 191 107 279Q173 180 253 132Q329 85 403 85Q617 85 617 346Q617 465 534 570Q455
670 348 670Q209 670 60 499L74 1228H825L704 1010H202Q179 828 177 764Z" />
<glyph unicode="6" glyph-name="six" horiz-adv-x="940" d="M244 583Q244 359 336 243Q417 142 547 142Q613 142 636 166Q661 192 661 276Q661 474 556 583Q473 672 363 672Q323 672 287 649Q244 623 244 583ZM359 879V878Q359 862 494 862Q655 862 761 743Q865
627 865 450Q865 234 718 92Q593 -29 464 -29Q249 -29 108 141Q-25 306 -25 555Q-25 829 152 1035Q331 1246 593 1246H629Q650 1246 693 1241L676 1126Q630 1130 612 1130Q446 1130 352 1013Q249 893 247 693L359 879Z" />
<glyph unicode="7" glyph-name="seven" horiz-adv-x="925" d="M55 1213H859L796 1052Q735 968 682 877Q627 786 578 685Q466 454 466 321Q466 187 536 187Q603 187 656 205L553 -29Q521 -33 504 -33Q432 -33 365 0Q228 71 228 247Q228 354 412 659Q470 752 528
845Q584 934 625 1001Q484 1014 319 1014Q195 1014 81 1007L-46 932L55 1192V1213Z" />
<glyph unicode="8" glyph-name="eight" horiz-adv-x="951" d="M206 1003Q206 895 362 808Q481 740 523 740Q557 740 584 762Q619 794 619 849Q619 976 492 1052Q397 1111 325 1111Q258 1111 235 1090Q204 1066 204 1005L206 1003ZM179 356Q179 261 317 178Q436
104 549 104Q669 104 669 230Q669 339 567 415Q557 424 495 461Q429 499 313 563Q287 563 245 525L185 470L135 356H179ZM836 938Q836 842 762 774Q749 763 713 739Q679 715 646 693Q743 640 790 596Q876 518 876 416Q876 223 741 99Q604 -29 420 -29Q251 -29 124
54Q-25 148 -25 291Q-25 438 47 531Q123 627 195 631Q192 632 148 660Q102 689 79 714Q0 793 0 899Q0 1070 162 1167Q285 1244 439 1244Q459 1244 481 1242Q615 1233 725 1146Q836 1055 836 938Z" />
<glyph unicode="9" glyph-name="nine" horiz-adv-x="959" d="M185 951H188Q190 778 273 666Q360 546 486 546Q532 546 561 564Q575 576 591 588Q605 599 613 607Q613 1067 262 1067Q188 1067 185 951ZM-25 789Q-25 1006 142 1141Q275 1251 395 1251Q630 1251 767
1068Q884 904 884 675Q884 339 701 155Q525 -22 205 -24L233 81Q385 81 500 167Q629 262 629 414Q629 450 622 471Q515 377 340 377H329Q170 379 64 526Q-23 649 -23 787L-25 789Z" />
<glyph unicode=":" glyph-name="colon" horiz-adv-x="404" d="M-27 168Q35 279 168 372Q219 311 253 265Q287 219 334 159Q289 109 246 73Q202 38 134 -4Q36 80 -27 168ZM-27 677Q29 782 167 885Q211 836 244 791Q279 743 334 672Q289 622 246 586Q203 551 135
504Q40 586 -27 677Z" />
<glyph unicode=";" glyph-name="semicolon" horiz-adv-x="469" d="M20 745Q59 818 194 917Q253 848 288 800Q322 755 356 701Q312 653 271 616Q230 581 161 534Q66 613 20 745ZM0 160Q57 266 193 370Q248 310 294 258Q340 207 397 135Q312 -19 227 -153Q144 -285
13 -453L-26 -259L151 7Q126 24 88 62Q49 101 0 160Z" />
<glyph unicode="&lt;" glyph-name="less" horiz-adv-x="754" d="M241 837L689 309L446 182L-9 690L-26 811L496 1253L589 1154L241 837Z" />
<glyph unicode="=" glyph-name="equal" horiz-adv-x="735" d="M-23 742Q1 778 28 812Q55 847 97 894H675L564 715H-23V742ZM-37 425Q-5 480 23 515Q49 551 95 605H673L562 425H-37Z" />
<glyph unicode="&gt;" glyph-name="greater" horiz-adv-x="744" d="M678 687H657L670 593Q560 501 438 396Q316 294 151 150L66 253Q135 317 219 393Q302 471 406 566Q344 641 234 770Q123 901 -34 1093L204 1220L678 687Z" />
<glyph unicode="?" glyph-name="question" horiz-adv-x="925" d="M-41 1052Q60 1206 178 1284Q310 1371 452 1371Q602 1371 719 1290Q850 1202 850 1064Q850 949 734 834Q632 727 495 676Q488 657 470 618Q451 580 426 526Q382 497 351 478Q321 459 247 414L320
781Q579 825 579 1003Q579 1097 489 1154Q409 1207 300 1207Q250 1207 210 1150Q189 1116 166 1082Q144 1047 108 994L-5 1052H-41ZM209 147Q285 263 404 324Q446 284 479 243Q515 199 566 136Q517 82 472 45Q431 12 370 -27Q276 49 209 147Z" />
<glyph unicode="@" glyph-name="at" horiz-adv-x="1375" d="M589 774Q589 661 660 569Q730 471 849 471Q903 471 928 483Q932 486 947 496Q961 505 974 518L969 989Q912 1027 875 1038Q827 1055 750 1055L734 1056Q722 1058 713 1058H593L543 763L589 774ZM624
1146Q594 1152 488 1152Q359 1152 294 1053L236 962L186 773L234 797Q234 505 391 343Q554 170 880 170Q994 170 1066 238L1247 278Q1179 207 1152 185Q921 -24 659 -24Q368 -24 170 182Q-25 388 -25 692Q-25 938 182 1138Q391 1339 650 1339Q913 1339 1140 1170Q1162
1153 1182 1137Q1208 1120 1235 1094V1088Q1235 1087 1243 1074L1235 1062V457L1254 470L1310 451Q1232 339 1131 296Q1028 346 980 400Q861 310 741 310Q563 310 455 429Q355 539 355 698Q355 950 561 1101Q620 1144 624 1146Z" />
<glyph unicode="A" glyph-name="A" horiz-adv-x="1377" d="M490 1146Q366 1139 323 1056Q287 992 287 842V758Q287 689 285 672H914L875 1006Q618 1145 490 1145V1146ZM1218 124L1314 77L1148 -86H1085L949 3L915 522H272L164 47L-44 -100L36 151L70 929Q177 1064
249 1149Q322 1236 365 1278Q457 1369 543 1369Q709 1369 889 1299Q974 1263 1048 1221Q1123 1178 1192 1116L1218 124Z" />
<glyph unicode="B" glyph-name="B" horiz-adv-x="1362" d="M320 153Q514 81 650 81Q799 81 902 152Q1026 237 1026 403Q1026 573 911 677Q804 767 675 767Q583 767 440 733L466 831L813 1032Q790 1096 708 1140Q635 1179 549 1179Q459 1179 358 1114L320 153ZM1104
893Q1104 871 1147 835Q1287 719 1287 551Q1287 254 1039 104Q819 -26 454 -26Q418 -26 336 -16Q256 -7 107 15L61 1105L-28 1177Q20 1294 121 1377H176Q295 1317 352 1236Q365 1243 400 1267Q433 1289 472 1312Q575 1369 678 1369Q779 1369 934 1298Q992 1271
1034 1247Q1078 1223 1109 1198L1125 1104L861 956L870 919L1104 893Z" />
<glyph unicode="C" glyph-name="C" horiz-adv-x="1147" d="M-23 703Q-23 898 137 1104Q330 1360 661 1360Q823 1360 924 1302Q981 1270 1081 1159L864 1028Q658 1166 447 1166Q328 1166 270 1056Q217 963 217 827Q217 509 382 349Q523 212 754 206H792Q861 206
913 212Q976 219 1099 275L858 -33Q788 -35 737 -35H650Q290 -35 107 224Q-25 411 -25 646V705L-23 703Z" />
<glyph unicode="D" glyph-name="D" horiz-adv-x="1403" d="M339 121Q439 96 733 96Q869 96 956 204Q1058 336 1058 580Q1058 803 925 960Q777 1131 528 1131Q450 1131 418 1115Q401 1107 379 1089Q359 1072 339 1049V121ZM241 1105Q187 1107 118 1121Q-7 1147
-25 1198V1281L102 1384H127Q140 1384 159 1380Q206 1338 219 1335L217 1334Q292 1346 380 1352Q468 1358 580 1358Q858 1358 1067 1212Q1328 1031 1328 694Q1328 399 1137 195Q1033 81 893 26Q755 -29 581 -29Q370 -29 81 1V1006L241 1105Z" />
<glyph unicode="E" glyph-name="E" horiz-adv-x="1223" d="M834 206Q1007 206 1086 252Q1101 252 1114 249Q1120 248 1167 248L947 -23Q816 -35 682 -35Q351 -35 162 153Q-25 341 -25 663Q-25 996 206 1192Q407 1361 682 1361Q837 1361 1161 1193Q1066 1106 943
1036Q855 1081 808 1104Q762 1126 742 1132Q616 1173 435 1173Q257 1173 234 888H920L811 712H225Q225 208 834 208V206Z" />
<glyph unicode="F" glyph-name="F" horiz-adv-x="1042" d="M253 902H901L772 714L251 737L245 -18H-25V1341Q78 1342 200 1342Q325 1342 493 1341Q666 1333 780 1329Q896 1325 981 1313L857 1140Q568 1228 329 1228H251V1227L253 902Z" />
<glyph unicode="G" glyph-name="G" horiz-adv-x="1421" d="M234 784L238 782Q238 505 415 322Q586 144 819 144Q935 144 1020 203Q1109 269 1109 386Q1109 535 998 639Q899 725 785 725Q744 725 583 671L560 774L917 998Q900 1077 781 1136Q669 1194 559 1194Q419
1194 324 1060Q235 933 234 784ZM968 917Q1080 917 1188 842Q1346 741 1346 549Q1346 278 1132 118Q939 -28 656 -28Q383 -28 179 169Q-25 365 -25 635Q-25 984 257 1195Q476 1361 711 1361Q857 1361 999 1302Q1146 1241 1242 1129L968 917Z" />
<glyph unicode="H" glyph-name="H" horiz-adv-x="1215" d="M229 881L233 890Q303 957 411 1000Q511 1040 583 1040Q818 1040 972 917Q1140 781 1140 545Q1140 273 989 103Q857 -47 703 -47Q611 -47 481 35L620 223Q776 132 815 132Q850 132 879 200Q906 269 906
374Q906 581 778 720Q653 856 479 856Q343 856 261 774L225 -27L-25 -19V1346L1004 1330L898 1185Q872 1181 859 1181Q815 1181 780 1208L260 1240L229 881Z" />
<glyph unicode="I" glyph-name="I" horiz-adv-x="326" d="M251 -32L-25 -23V1350H249L251 -32Z" />
<glyph unicode="J" glyph-name="J" horiz-adv-x="828" d="M488 1146Q362 1084 213 1084Q113 1084 -34 1136L100 1355Q267 1293 409 1293Q482 1293 571 1315Q608 1324 643 1336Q682 1347 768 1370L656 1110V-8Q656 -43 603 -122Q538 -211 441 -271Q320 -347 169
-347Q109 -347 30 -330V-252Q196 -239 245 -217Q376 -156 376 27V966L488 1146Z" />
<glyph unicode="K" glyph-name="K" horiz-adv-x="1276" d="M1104 838L1099 820Q1042 738 936 663Q912 647 866 621Q819 592 777 566Q1091 381 1205 82L963 -40Q892 96 765 231Q600 402 483 402H385V482L799 701Q774 786 681 834Q592 877 479 877Q324 877 244 790L242
-18H-25V1362Q77 1367 200 1367Q321 1367 486 1363Q657 1360 769 1356Q881 1352 968 1338L845 1164Q563 1255 329 1255H253L251 916Q466 1056 597 1056Q917 1056 1104 838Z" />
<glyph unicode="L" glyph-name="L" horiz-adv-x="1103" d="M209 175Q347 256 585 256Q834 256 1039 170L872 -30Q787 -26 658 13Q599 32 541 44Q487 54 432 56H395Q197 56 56 -19Q30 -24 -25 -24L-2 939Q2 1092 183 1228Q359 1361 545 1361Q654 1361 889 1267L676
1107Q496 1202 400 1207H393Q358 1207 322 1192Q281 1172 278 1137L247 260L209 175Z" />
<glyph unicode="M" glyph-name="M" horiz-adv-x="2114" d="M1261 1329T1408 1329Q1669 1329 1855 1139Q2039 948 2039 682Q2039 472 1863 228Q1805 149 1747 85Q1689 23 1623 -29H1529Q1759 313 1759 597Q1759 784 1635 953Q1505 1131 1321 1145H1309Q1271 1145
1230 1125Q1203 1114 1182 1102Q1158 1091 1144 1084L1098 -18H843L836 996Q812 1028 666 1095Q528 1158 481 1158Q375 1158 299 1029Q225 906 225 770Q225 604 316 425Q401 250 537 147L331 -23Q151 88 61 261Q-25 424 -25 606V614Q-21 867 150 1081Q337 1310
576 1310Q738 1310 861 1259Q911 1236 962 1213Q1016 1190 1054 1174Q1261 1329 1408 1329Z" />
<glyph unicode="N" glyph-name="N" horiz-adv-x="1360" d="M382 1178L398 1228Q557 1339 695 1339Q925 1339 1099 1192Q1285 1036 1285 811Q1285 574 1190 401Q1162 350 1022 173Q1064 155 1085 155Q1084 155 1091 157Q1105 162 1124 167Q1142 171 1162 176Q1183
180 1201 180Q1221 180 1266 170L1147 19Q1080 2 1028 -7Q978 -14 938 -16Q859 -16 783 18V102Q1014 319 1014 627Q1014 853 869 1012Q733 1156 566 1156Q542 1156 375 1084L356 -18H81L74 1092L-29 1136L-4 1221L130 1342H193L382 1178Z" />
<glyph unicode="O" glyph-name="O" horiz-adv-x="1472" d="M-25 692Q-25 938 182 1138Q391 1339 650 1339Q913 1339 1140 1170Q1397 978 1397 684Q1397 403 1153 185Q921 -24 659 -24Q368 -24 170 182Q-25 388 -25 692ZM234 797Q234 505 391 343Q554 170 880 170Q1163
170 1163 568Q1163 860 958 1016Q777 1152 488 1152Q359 1152 294 1053L236 962L234 797Z" />
<glyph unicode="P" glyph-name="P" horiz-adv-x="1434" d="M325 1191Q518 1335 749 1335Q1039 1335 1216 1121Q1359 950 1359 773Q1359 437 1184 223Q1000 -10 680 -10Q525 -10 349 77L324 -271Q141 -318 103 -318Q66 -318 66 1120L-33 1174Q41 1277 160 1368Q304
1297 325 1264V1191ZM512 280Q560 256 603 234Q643 212 686 188Q759 153 823 153Q836 153 849 155Q973 168 1039 294Q1098 413 1098 568Q1098 819 941 991Q789 1160 566 1160Q453 1160 363 1068L349 191L461 278H477V280H512Z" />
<glyph unicode="Q" glyph-name="Q" horiz-adv-x="1479" d="M211 749Q211 482 380 317Q551 153 836 153Q972 153 1052 265Q1128 370 1128 524Q1128 817 926 993Q736 1154 462 1154Q349 1154 280 1026L215 912L211 749ZM1287 102H1423L1328 -26Q1300 -33 1273 -33Q1248
-33 1212 -28Q1149 0 1100 32Q1051 63 1028 84Q879 -18 657 -18Q332 -18 145 180Q-25 358 -25 650Q-25 912 134 1086Q248 1211 437 1278Q559 1322 638 1322Q933 1322 1149 1156Q1380 977 1380 716Q1380 592 1329 443Q1271 275 1207 217L1287 102Z" />
<glyph unicode="R" glyph-name="R" horiz-adv-x="1483" d="M1025 689T1182 497Q1349 293 1410 81Q1343 24 1192 -87Q982 489 519 640L581 727L984 952Q965 1009 848 1066Q728 1124 610 1124Q454 1124 371 1028L307 -31H74L55 1082L-31 1120Q17 1223 135 1311L242
1282L355 1140Q383 1154 429 1181Q474 1207 524 1235Q585 1266 644 1279Q704 1291 764 1291Q1094 1291 1295 1059L1235 981L898 769Q1025 689 1182 497Z" />
<glyph unicode="S" glyph-name="S" horiz-adv-x="1312" d="M435 761Q490 761 630 825Q788 896 847 896Q1004 896 1120 780Q1237 663 1237 511Q1237 302 1040 140Q842 -18 566 -18Q291 -18 -37 206L172 371Q305 283 440 223Q605 149 699 149Q855 149 912 203Q982
263 982 426Q982 513 861 607Q746 693 697 693Q690 693 532 626Q369 558 306 558Q185 558 91 644Q2 732 2 846Q2 1059 173 1190Q332 1314 559 1314Q666 1314 817 1267Q966 1221 1111 1132L913 993H858Q556 1160 405 1160Q323 1160 280 1091Q245 1034 245 960Q245
868 299 814Q354 759 406 759V761H435Z" />
<glyph unicode="T" glyph-name="T" horiz-adv-x="1232" d="M258 1324L338 1318Q393 1314 506 1310Q624 1304 721 1301Q820 1297 893 1295H984Q1104 1295 1157 1303Q1157 1252 1142 1222Q1130 1195 1103 1168Q1080 1145 1049 1124Q1016 1105 979 1095H618Q505 1030
443 905Q382 783 382 638Q382 419 540 308Q674 212 893 212Q1015 212 1151 242L992 -16Q962 -20 912 -20H779Q487 -20 315 135Q129 296 129 578Q129 913 459 1110Q412 1118 321 1118Q121 1118 -51 998Q12 1154 95 1231Q190 1314 258 1314V1324Z" />
<glyph unicode="U" glyph-name="U" horiz-adv-x="1396" d="M1263 166L1330 89L1131 -34Q1014 37 938 119L665 -21Q624 -28 557 -28Q312 -28 151 152Q2 319 2 538Q2 884 258 1105Q218 1145 131 1145Q86 1145 -67 1102L109 1295Q196 1327 228 1327Q259 1327 353
1287Q401 1267 435 1248Q472 1231 524 1197Q251 955 251 614Q251 412 386 289Q520 163 722 163Q870 163 946 262L898 1102L835 1139L1049 1324L1204 1214L1221 143V166H1263Z" />
<glyph unicode="V" glyph-name="V" horiz-adv-x="1381" d="M739 193Q744 203 768 241Q795 284 843 348Q940 487 986 585Q1058 738 1058 876Q1058 955 1012 1023Q969 1090 918 1090Q908 1090 859 1075V1167L1002 1327Q1306 1287 1306 996Q1306 878 1163 637Q1116
563 1050 464Q982 362 888 233Q807 123 765 61Q724 -2 713 -26Q678 -33 665 -33Q564 -33 425 111L78 1084L-29 1125L-4 1216L126 1341Q144 1346 156 1346Q206 1346 257 1317Q325 1282 351 1214L739 193Z" />
<glyph unicode="W" glyph-name="W" horiz-adv-x="2065" d="M1676 1318Q1727 1314 1769 1299Q1813 1283 1865 1256Q1990 1184 1990 1104Q1990 892 1822 538Q1666 204 1475 -20Q1366 12 1290 48L1024 691L668 -14Q595 -6 550 10Q502 25 465 53Q432 75 339 337Q248
597 83 1092Q57 1116 27 1116Q19 1116 -25 1104V1193L127 1341Q196 1341 256 1306Q324 1264 345 1204L670 271L685 260L959 922L852 1112H790V1200L923 1333Q1013 1321 1109 1276Q1191 1214 1533 223H1534Q1801 660 1801 1001Q1801 1042 1718 1070Q1646 1093 1526
1093L1544 1178L1676 1318Z" />
<glyph unicode="X" glyph-name="X" horiz-adv-x="1479" d="M795 1140T886 1215Q1035 1331 1167 1331Q1233 1331 1419 1256L1217 1073Q1132 1126 1068 1126Q939 1126 863 997Q791 876 791 714Q791 522 894 368Q997 214 1142 214H1387L1210 -19Q1178 -22 1157 -22Q953
-22 786 110Q640 228 616 310Q587 232 492 124Q370 -18 236 -18Q124 -18 -25 31V109L144 258Q220 204 325 204Q431 204 488 310Q547 420 547 618V633Q545 851 421 987Q299 1124 110 1124Q68 1124 -49 1103L156 1329H179Q364 1329 493 1262Q643 1176 755 962Q795
1140 886 1215Z" />
<glyph unicode="Y" glyph-name="Y" horiz-adv-x="1362" d="M732 218Q745 244 779 304Q813 365 869 450Q914 517 944 574Q975 630 993 677Q1045 814 1045 982Q1045 1024 993 1070Q937 1118 891 1118Q889 1118 811 1092L988 1326V1342H1001Q1004 1346 1032 1346Q1089
1346 1182 1291Q1287 1228 1287 1165Q1287 929 1125 640Q1105 609 1033 498Q961 388 828 194Q671 -32 671 -144Q671 -152 791 -197L541 -313Q509 -233 509 -179Q509 -83 568 37L558 42Q539 50 515 60Q489 71 469 80Q451 89 429 98L80 1080L-25 1126V1210L110 1344Q185
1344 264 1284Q347 1223 374 1143L700 220Q716 218 732 218Z" />
<glyph unicode="Z" glyph-name="Z" horiz-adv-x="1324" d="M769 1102Q744 1098 709 1095Q662 1092 627 1092Q622 1092 578 1095Q537 1099 449 1107Q363 1114 298 1118Q235 1122 186 1122Q96 1122 -22 1036L-9 1160Q285 1341 450 1341Q497 1341 555 1337Q613 1333
685 1325Q826 1314 885 1314Q907 1314 943 1316Q978 1318 1028 1322Q1077 1325 1116 1327Q1154 1329 1230 1329L1140 1211L754 967Q960 948 1092 842Q1249 724 1249 523Q1249 328 1036 153Q816 -24 547 -24Q472 -24 390 -16Q310 -9 220 11Q149 25 91 40Q33 57 -36
82L141 306Q411 144 650 144Q820 144 891 198Q974 262 976 420V426Q976 563 878 654Q772 753 600 753Q560 753 486 728Q399 704 325 704V809L769 1102Z" />
<glyph unicode="[" glyph-name="bracketleft" horiz-adv-x="826" d="M762 1460L660 1219L327 1212L304 130L227 -61L764 -14L640 -244L-34 -264L61 -10L87 1103L399 1425L762 1460Z" />
<glyph unicode="\" glyph-name="backslash" horiz-adv-x="875" d="M811 -3Q682 -3 583 52L-40 1381Q103 1355 146 1329L811 -3Z" />
<glyph unicode="]" glyph-name="bracketright" horiz-adv-x="830" d="M110 1430L764 1450L669 1202L643 81L364 -232L-37 -275L69 -33L404 -26L425 1052L517 1273L518 1279L-37 1200L87 1412V1390L110 1430Z" />
<glyph unicode="^" glyph-name="asciicircum" horiz-adv-x="1166" d="M788 1872L1097 1610L934 1389Q797 1497 588 1670L382 1449L270 1543L611 1923L788 1872Z" />
<glyph unicode="_" glyph-name="underscore" horiz-adv-x="1185" d="M-12 -216T3 -192Q22 -162 67 -94L1123 -74L1037 -237L-25 -256V-221Q-12 -216 3 -192Z" />
<glyph unicode="`" glyph-name="grave" horiz-adv-x="1020" d="M271 1775Q359 1857 493 1969L958 1420L844 1384Q705 1462 569 1556Q434 1648 271 1775Z" />
<glyph unicode="a" glyph-name="a" horiz-adv-x="995" d="M873 142L929 121Q853 3 751 -44Q647 11 600 69Q481 -29 361 -29Q183 -29 74 101Q-25 220 -25 393Q-25 667 180 831Q334 955 477 955Q574 955 677 927Q790 895 855 825V130L873 142ZM209 481Q209 353 280
250Q351 144 469 144Q522 144 548 158Q553 160 566 171Q580 180 594 196L589 713Q531 754 494 769Q447 786 369 786L354 788Q343 789 333 789Q213 789 209 481Z" />
<glyph unicode="b" glyph-name="b" horiz-adv-x="921" d="M222 210H208Q372 130 483 130Q556 130 586 170Q632 233 632 399Q632 542 548 667Q468 786 357 786Q287 786 240 744L222 210ZM359 961T445 961Q621 959 734 833Q846 709 846 534Q846 230 659 81Q527 -24
369 -24Q150 -24 -25 117L2 1286L249 1370V891Q359 961 445 961Z" />
<glyph unicode="c" glyph-name="c" horiz-adv-x="799" d="M-25 441Q-25 672 124 827Q250 957 380 957Q571 957 730 830Q656 730 569 668Q345 807 315 807Q260 807 231 731Q202 664 202 562Q202 170 568 170Q720 190 720 207Q720 214 740 224Q665 95 530 -28Q292
-28 145 82Q-25 211 -25 439V441Z" />
<glyph unicode="d" glyph-name="d" horiz-adv-x="1004" d="M236 460L238 454Q238 315 338 222Q437 132 566 132Q731 132 731 374Q731 504 639 641Q560 763 445 843Q239 784 236 460ZM-22 1158Q24 1224 62 1266Q101 1308 155 1357Q929 899 929 477Q929 284 771
131Q616 -26 407 -26Q239 -26 105 119Q-25 258 -25 424Q-25 597 98 735Q212 869 351 914Q176 1058 -22 1158Z" />
<glyph unicode="e" glyph-name="e" horiz-adv-x="885" d="M357 789L358 788Q206 788 206 574L568 564Q545 788 357 789ZM-25 372Q-25 607 92 774Q218 945 409 945Q563 945 684 854Q810 757 810 612Q810 541 795 453L207 461Q220 166 583 166Q670 166 784 232Q707
51 597 -19Q557 -24 530 -28Q502 -31 485 -31Q285 -31 129 89Q-25 207 -25 371V372Z" />
<glyph unicode="f" glyph-name="f" horiz-adv-x="564" d="M77 1200Q184 1348 253 1348Q293 1348 499 1226L357 1074Q322 1089 298 1106Q276 1120 242 1141Q206 1164 202 1164V1051Q202 990 289 946Q364 911 433 911H478L469 769H344L337 -26H55L74 778H-31L-2
879L29 886L53 1173L77 1200Z" />
<glyph unicode="g" glyph-name="g" horiz-adv-x="991" d="M608 551L670 668Q622 715 488 751Q382 780 314 780Q230 780 230 538Q230 157 490 157Q570 157 633 210L608 544V551ZM648 90Q645 87 639 81Q616 57 589 34Q507 -22 331 -22Q231 -22 106 100Q-25 231 -25
371Q-25 609 158 786Q328 951 517 951Q590 951 686 915Q725 900 758 884Q792 871 834 854Q883 815 903 768L848 693H859L916 44Q892 -120 766 -239Q636 -358 479 -358H459Q337 -352 -8 -256Q66 -139 175 -72Q229 -105 386 -150Q546 -195 595 -195Q669 -195 669
-66Q669 -64 663 -13Q655 35 648 90Z" />
<glyph unicode="h" glyph-name="h" horiz-adv-x="949" d="M295 858Q300 858 320 868Q413 913 466 913Q662 913 775 766Q874 644 874 473Q874 298 800 165Q740 60 647 -4Q571 -58 521 -58Q433 -58 349 6Q394 104 501 189Q543 107 602 107Q612 107 631 197Q650 274
650 333Q650 478 556 609Q465 740 353 740Q254 740 219 661L187 -29H-25V1258Q86 1321 232 1338V774L295 858Z" />
<glyph unicode="i" glyph-name="i" horiz-adv-x="450" d="M310 166L386 122L237 -26Q219 -29 207 -29Q188 -29 161 -21Q98 30 44 100L-25 772L-8 842L140 949L186 920Q214 902 283 857L310 160V166ZM120 1346Q141 1346 159 1344Q177 1342 192 1342L326 1222L190
1059H133L-7 1170Q33 1272 120 1346Z" />
<glyph unicode="j" glyph-name="j" horiz-adv-x="438" d="M41 1057Q104 1170 199 1246Q295 1188 368 1096L245 947H184L54 1044L41 1057ZM152 828Q183 837 192 837Q201 837 223 829L335 709L310 -292Q195 -399 180 -407Q100 -461 -25 -461Q-25 -384 74 -293L81
603L-2 655Q62 765 152 822V828Z" />
<glyph unicode="k" glyph-name="k" horiz-adv-x="953" d="M605 489Q878 280 878 97V85L676 -34Q627 137 530 264Q438 383 380 383H285V463Q342 492 382 512Q418 530 452 548Q607 636 622 663Q492 820 355 820H352Q307 820 257 788L214 -20L-25 18L-19 1290L249
1391L242 885Q245 886 283 902Q323 916 359 928Q447 961 517 961Q683 961 868 781L846 665Q767 631 709 596Q651 560 605 529V489Z" />
<glyph unicode="l" glyph-name="l" horiz-adv-x="347" d="M240 1315L272 25Q191 -29 95 -51Q30 -27 -17 24L-25 1268L240 1348V1315Z" />
<glyph unicode="m" glyph-name="m" horiz-adv-x="1462" d="M1283 176L1397 102L1244 -43H1194L1072 39L1026 710Q1026 716 992 726Q948 740 922 740Q893 740 845 719Q804 705 804 699L793 -37L545 -16L530 711Q530 726 494 742Q453 757 420 757H413Q397 755 376
749Q354 742 327 733Q289 719 289 711L274 -41L38 -20L45 754L-28 768L-16 833L119 963Q233 887 284 810Q474 942 536 942Q569 942 782 782Q963 932 1022 932Q1081 932 1298 782L1283 176Z" />
<glyph unicode="n" glyph-name="n" horiz-adv-x="955" d="M761 166H794L892 117L718 -50Q615 9 562 70L536 716Q536 722 500 738Q452 757 420 757Q383 757 327 736Q283 719 283 716L272 -37L32 -16L24 756L-32 771Q16 876 103 949H169L282 813Q453 936 515 936Q563
936 669 887Q785 837 785 792L761 166Z" />
<glyph unicode="o" glyph-name="o" horiz-adv-x="999" d="M-25 417Q-25 629 117 783Q256 932 420 932Q620 932 764 823Q924 700 924 490Q924 279 794 126Q661 -28 462 -28Q206 -28 76 133Q-23 256 -23 417H-25ZM194 390T304 258Q414 121 574 121Q714 121 714 355Q714
525 584 641Q458 751 291 751Q194 751 194 555Q194 390 304 258Z" />
<glyph unicode="p" glyph-name="p" horiz-adv-x="1014" d="M325 152Q457 100 547 100Q712 100 712 353Q712 527 639 637Q561 748 431 748Q392 748 325 708V152ZM303 829Q492 936 534 936Q691 936 817 819Q939 702 939 555Q939 267 777 111Q630 -29 391 -29Q364
-29 336 -28Q309 -26 308 -26L282 -289Q181 -351 71 -368L59 44Q27 62 -25 62V128L68 200L53 726L-6 768Q61 878 142 942H191L315 816L303 829Z" />
<glyph unicode="q" glyph-name="q" horiz-adv-x="923" d="M213 469Q213 326 292 221Q367 113 490 113Q527 113 598 161L591 662Q438 742 344 742H333Q281 742 246 665Q213 586 213 473V469ZM572 30Q568 28 553 22Q526 11 500 -1Q466 -15 435 -20Q405 -24 376 -24Q207
-24 93 89Q-19 200 -19 324L-25 319Q-25 626 159 784Q310 917 481 917Q689 917 848 778L806 -322Q737 -366 658 -366L641 -354Q632 -350 597 -336L572 30Z" />
<glyph unicode="r" glyph-name="r" horiz-adv-x="721" d="M279 801Q308 828 331 851Q353 872 376 895Q441 951 490 951Q535 951 577 915Q583 910 647 846Q640 807 625 782Q610 755 587 734Q566 713 536 699Q506 685 477 685Q437 685 391 721Q361 746 357 746Q350
746 342 725V192Q342 173 365 161Q389 149 463 149L276 -43Q81 25 80 129L68 719L-29 770L-3 846L138 958Q262 894 279 869V801Z" />
<glyph unicode="s" glyph-name="s" horiz-adv-x="955" d="M254 541Q363 544 436 583Q529 632 581 632H587Q693 632 782 570Q880 499 880 391Q880 189 700 69Q560 -26 407 -26Q282 -26 163 31Q111 53 -35 149Q52 236 178 286Q362 134 568 134Q632 134 655 273Q655
344 612 396Q572 444 504 444Q478 444 459 430Q409 396 380 388Q319 368 203 368Q127 368 65 428Q5 487 5 574Q5 728 153 848Q286 955 418 955Q573 955 806 792Q733 709 622 655Q600 665 558 684Q515 705 443 743Q392 769 358 779Q323 789 306 789Q273 789 244
763Q213 739 213 705Q213 573 254 541Z" />
<glyph unicode="t" glyph-name="t" horiz-adv-x="590" d="M515 915V757H375V178L454 128L326 -20Q235 -9 173 28Q100 77 100 144V755H-29L-4 892Q23 901 43 904Q61 908 72 910Q225 1101 262 1285H333L375 913H460V915H515Z" />
<glyph unicode="u" glyph-name="u" horiz-adv-x="961" d="M849 150T901 140L768 -25Q750 -31 732 -31Q663 -31 564 91L321 -24Q254 -24 205 -3Q156 18 121 56Q86 94 65 140Q45 187 43 238L29 704H30Q30 707 -10 723Q-25 765 -25 790V808L134 930Q205 914 245 868Q287
820 291 765L318 217Q318 202 326 188Q335 175 350 165Q366 154 383 147Q396 142 410 142Q476 142 551 198L545 706L498 727L685 915H821L829 163Q849 150 901 140Z" />
<glyph unicode="v" glyph-name="v" horiz-adv-x="938" d="M604 912Q632 917 644 917Q726 917 791 865Q863 806 863 724Q863 406 473 -31L239 86L4 718L-34 731L72 898Q72 915 135 915Q233 915 288 783Q296 763 319 688Q341 614 377 485Q442 259 501 139Q542 203
577 256Q611 307 614 318Q684 441 684 559Q684 659 645 691Q615 715 506 715L604 912Z" />
<glyph unicode="w" glyph-name="w" horiz-adv-x="1451" d="M1026 169L1176 456Q1185 471 1185 559Q1185 652 1154 683Q1122 715 993 715L1132 931Q1376 911 1376 690Q1376 595 1336 518L1062 25Q1034 -33 944 -33Q913 -33 885 -23Q794 44 749 145Q746 155 723
218Q698 281 673 348L489 -27Q458 -31 443 -31Q420 -31 398 -28Q361 -21 322 -4Q241 35 215 109L25 719L-25 740V827L74 940Q150 940 202 904Q254 870 271 814L477 188Q551 334 580 419Q595 460 604 505Q613 549 617 598L556 685Q523 732 462 748L585 932H619Q752
932 792 824L1026 169Z" />
<glyph unicode="x" glyph-name="x" horiz-adv-x="963" d="M553 839H548Q595 918 664 931Q677 934 707 934H779Q883 934 888 808L764 685Q673 715 652 715Q620 715 582 667Q540 615 540 561Q540 471 607 377Q633 340 681 289Q729 238 791 178L875 164L736 -21Q719
-28 697 -28Q583 -28 416 203Q414 199 382 138Q350 79 312 -3Q247 -146 203 -200Q133 -293 14 -334L-32 -249Q68 -206 190 19Q306 234 306 295Q306 568 104 738H32Q59 872 156 950Q286 941 368 836Q397 786 427 739Q458 690 463 681L553 839Z" />
<glyph unicode="y" glyph-name="y" horiz-adv-x="982" d="M543 789Q567 911 647 1016Q781 1016 849 934Q907 865 907 775Q907 726 888 688L552 21L615 -252L461 -316Q391 -107 384 -30L399 73Q363 83 312 120L22 808L-35 829L95 1018H125Q179 1018 227 991Q279
960 301 905L546 278L690 560Q707 593 707 638Q707 671 700 699Q690 728 677 751Q664 770 647 781Q629 793 610 793Q599 793 553 779V789H543Z" />
<glyph unicode="z" glyph-name="z" horiz-adv-x="894" d="M647 560T734 447Q819 336 819 177Q819 -13 662 -172Q504 -335 314 -335Q144 -335 -33 -203L126 -34Q260 -189 426 -193Q491 -193 534 -114Q574 -40 574 59Q574 196 505 313Q436 430 350 430Q337 430 155
388L175 484Q339 584 493 753H357Q331 753 302 768Q287 774 278 777Q267 781 262 782Q251 784 241 784H219Q153 784 55 713V815Q205 972 298 972Q316 972 356 968Q396 964 458 957Q520 949 583 945Q647 942 713 942Q727 942 809 972L770 842Q498 604 463 598Q647
560 734 447Z" />
<glyph unicode="{" glyph-name="braceleft" horiz-adv-x="832" d="M443 1429L768 1460L666 1219L333 1212L321 684Q321 644 286 601Q271 586 259 569Q244 552 240 548Q314 460 314 416L310 136L233 -55L770 -8L646 -238L-28 -258L66 -5L74 409Q74 454 -35 546Q12
581 33 603Q81 656 81 688L93 1111L443 1472V1429Z" />
<glyph unicode="|" glyph-name="bar" horiz-adv-x="275" d="M200 -32L-25 -23V1342H200V-32Z" />
<glyph unicode="}" glyph-name="braceright" horiz-adv-x="832" d="M658 790Q658 745 767 653Q719 617 698 596Q650 545 650 513L639 88L325 -232L-36 -267L66 -26L399 -19L410 507Q410 555 493 646Q418 735 418 783L422 1063L499 1258L-38 1209L86 1439L760 1459L665
1207L658 792V790Z" />
<glyph unicode="~" glyph-name="asciitilde" horiz-adv-x="1267" d="M1073 1850L1200 1740L880 1414L783 1430Q732 1477 663 1537Q597 1600 525 1666L328 1461L232 1548L560 1892L661 1876L904 1646L1073 1801V1850Z" />
</font>
</defs>
</svg>
