<?xml version="1.0" standalone="no"?>
<!DOCTYPE svg PUBLIC "-//W3C//DTD SVG 1.1//EN" "http://www.w3.org/Graphics/SVG/1.1/DTD/svg11.dtd" >
<svg>
<metadata>
Created by FontForge 20090914 at Fri Feb 24 04:28:28 2012
 By root
Generated by Fontographer 4.0
</metadata>
<defs>
<font id="CatharsisRequiemBold" horiz-adv-x="350" >
  <font-face 
    font-family="Catharsis Requiem"
    font-weight="700"
    font-stretch="normal"
    units-per-em="1000"
    panose-1="0 0 7 0 0 0 0 0 0 0"
    ascent="800"
    descent="-200"
    x-height="625"
    cap-height="626"
    bbox="-301 -224 735 800"
    underline-thickness="20"
    underline-position="-123"
    unicode-range="U+0020-U+F002"
  />
<missing-glyph horiz-adv-x="500" 
d="M63 0v800h375v-800h-375zM125 63h250v675h-250v-675z" />
    <glyph glyph-name=".notdef" horiz-adv-x="500" 
d="M63 0v800h375v-800h-375zM125 63h250v675h-250v-675z" />
    <glyph glyph-name=".null" horiz-adv-x="0" 
 />
    <glyph glyph-name="nonmarkingreturn" horiz-adv-x="200" 
 />
    <glyph glyph-name="space" unicode=" " horiz-adv-x="200" 
 />
    <glyph glyph-name="exclam" unicode="!" horiz-adv-x="150" 
d="M99 150h-49v426h-29v50h110v-50h-31zM75 -54l26 54l-26 54l-26 -54z" />
    <glyph glyph-name="quotedbl" unicode="&#x22;" horiz-adv-x="175" 
d="M58 800l20 -49l-42 -151l1 151zM130 800l20 -49l-42 -151l1 151z" />
    <glyph glyph-name="numbersign" unicode="#" 
d="M200 475v49h-50v-49h50zM250 574h50v-50h-50v-49h50v-50h-50v-50h-50v50h-50v-50h-50v50h-50v50h50v49h-50v50h50v50h50v-50h50v50h50v-50z" />
    <glyph glyph-name="dollar" unicode="$" 
d="M149 570q-49 -17 -49 -70v-100q0 -53 49 -70v240zM199 29q51 17 51 71v100q0 54 -51 71v-242zM300 100q0 -45 -28.5 -79.5t-72.5 -43.5v-52h-50v53q-27 5 -49 22v-25h-50v150h50q0 -39 7 -57q11 -27 42 -38v248q-43 9 -71 43.5t-28 78.5v100q0 44 28 78.5t71 43.5v53h50
v-52q28 -6 51 -23v25h50v-150h-50q0 39 -8 58q-11 27 -43 38v-248q44 -9 72.5 -43.5t28.5 -79.5v-100z" />
    <glyph glyph-name="percent" unicode="%" 
d="M176 227q52 0 89 -37t37 -89t-37 -89t-89 -37t-89 37t-37 89t37 89t89 37zM176 177q-31 0 -53.5 -22.5t-22.5 -53.5t22.5 -53.5t53.5 -22.5t53.5 22.5t22.5 53.5t-22.5 53.5t-53.5 22.5zM175 624q52 0 88.5 -36.5t36.5 -88.5t-36.5 -88.5t-88.5 -36.5t-88.5 36.5
t-36.5 88.5t36.5 88.5t88.5 36.5zM175 574q-31 0 -53 -22t-22 -53t22 -53t53 -22t53 22t22 53t-22 53t-53 22zM286 383l22 -44l-244 -121l-22 44z" />
    <glyph glyph-name="ampersand" unicode="&#x26;" 
d="M175 -25q-52 0 -88.5 36.5t-36.5 88.5v200q0 63 50 100q-50 37 -50 100q0 52 36.5 88.5t88.5 36.5q42 0 75 -25v24h50v-149h-50q0 100 -75 100q-31 0 -53 -22t-22 -53q0 -75 100 -75v-50q-100 0 -100 -75v-200q0 -31 22 -53t53 -22t53 22t22 53v175h-100v50h175v-50h-25
v-175q0 -52 -36.5 -88.5t-88.5 -36.5z" />
    <glyph glyph-name="quotesingle" unicode="'" horiz-adv-x="150" 
d="M48 597l53 149l-26 54l-26 -54z" />
    <glyph glyph-name="parenleft" unicode="(" horiz-adv-x="200" 
d="M70 600v-600q0 -75 100 -75v-50h-25q-52 0 -88.5 36.5t-36.5 88.5v600q0 52 36.5 88.5t88.5 36.5h25v-50q-100 0 -100 -75z" />
    <glyph glyph-name="parenright" unicode=")" horiz-adv-x="200" 
d="M55 725q52 0 88.5 -36.5t36.5 -88.5v-600q0 -52 -36.5 -88.5t-88.5 -36.5h-25v50h25q31 0 53 22t22 53v600q0 31 -22 53t-53 22h-25v50h25z" />
    <glyph glyph-name="asterisk" unicode="*" 
d="M174 325l43 73l43 -25l-42 -72h82v-50h-83l40 -68l-43 -25l-40 68l-40 -69l-43 25l40 69h-81v50h80l-42 72l43 25z" />
    <glyph glyph-name="plus" unicode="+" 
d="M198 303h102v-50h-102v-103h-50v103h-98v50h98v96h50v-96z" />
    <glyph glyph-name="comma" unicode="," horiz-adv-x="150" 
d="M48 -149l53 149l-26 54l-26 -54z" />
    <glyph glyph-name="hyphen" unicode="-" 
d="M300 301v-50h-250v50h250z" />
    <glyph glyph-name="period" unicode="." horiz-adv-x="150" 
d="M75 -54l26 54l-26 54l-26 -54z" />
    <glyph glyph-name="slash" unicode="/" 
d="M299 694l-206 -824l-48 12l212 848l48 -12z" />
    <glyph glyph-name="zero" unicode="0" 
d="M50 100v400q0 52 36.5 88.5t88.5 36.5t88.5 -36.5t36.5 -88.5v-400q0 -52 -36.5 -88.5t-88.5 -36.5t-88.5 36.5t-36.5 88.5zM249 512q-4 27 -25 45t-49 18q-31 0 -53 -22t-22 -53v-291zM100 94q2 -29 23.5 -49t51.5 -20q31 0 53 22t22 53v297z" />
    <glyph glyph-name="one" unicode="1" horiz-adv-x="299" 
d="M170 24h31v-50h-110v50h29v552h-29v50h79v-602z" />
    <glyph glyph-name="two" unicode="2" 
d="M100 200q0 31 22 53t53 22q52 0 88.5 36.5t36.5 88.5v100q0 52 -36.5 88.5t-88.5 36.5q-42 0 -75 -25v25h-50v-150h50v25q0 31 22 53t53 22t53 -22t22 -53v-100q0 -31 -22 -53t-53 -22q-52 0 -88.5 -36.5t-36.5 -88.5l1 -175h-30v-50h280v150h-50v-100h-150z" />
    <glyph glyph-name="three" unicode="3" 
d="M151 175h50v100h49v-175q0 -31 -22 -53t-53 -22t-53 22t-22 53v25h-50v-150h50v25q33 -25 75 -25q52 0 88.5 36.5t36.5 88.5v400q0 52 -36.5 88.5t-88.5 36.5q-42 0 -75 -25v25h-50v-150h50v25q0 31 22 53t53 22t53 -22t22 -53v-175h-49v100h-50v-250zM50 475h50v25z
M100 100v25h-50z" />
    <glyph glyph-name="four" unicode="4" 
d="M250 201q-33 -26 -76 -26q-52 0 -88.5 36.5t-36.5 88.5l-1 276h-27v50h110v-50h-33l1 -276q0 -31 22 -53t53 -22t53 22t22 53v25h1v251h-29v50h110v-50h-31v-552h31v-50h-110v50h29v177z" />
    <glyph glyph-name="five" unicode="5" 
d="M50 125h50q0 -100 75 -100q31 0 53 22t22 53v200q0 31 -22 53t-53 22h-125v199h-26v50h276v-149h-50v99h-150v-149h75q52 0 88.5 -36.5t36.5 -88.5v-200q0 -52 -36.5 -88.5t-88.5 -36.5q-42 0 -75 25v-25h-50v150z" />
    <glyph glyph-name="six" unicode="6" 
d="M306 76h-2q-9 -44 -44 -72.5t-79 -28.5q-45 0 -80 28.5t-44 72.5h-2v423q0 52 37 89t89 37q42 0 75 -26v26h50v-151h-50v25q0 31 -22 53.5t-53 22.5q-32 0 -54 -22.5t-22 -53.5v-99q33 26 76 26q44 0 79 -28.5t44 -72.5h2v-249zM256 101v199q0 31 -22 53.5t-53 22.5
q-32 0 -54 -22.5t-22 -53.5v-199q0 -31 22 -53t54 -22q31 0 53 22t22 53z" />
    <glyph glyph-name="seven" unicode="7" 
d="M239 574h-147v-100h-50v150h280v-50h-30l-189 -550h28v-50h-81v50z" />
    <glyph glyph-name="eight" unicode="8" 
d="M255 400v100q0 31 -22 53t-53 22t-53 -22t-22 -53v-100q0 -31 22 -53t53 -22t53 22t22 53zM255 100v100q0 31 -22 53t-53 22t-53 -22t-22 -53v-100q0 -31 22 -53t53 -22t53 22t22 53zM305 100q0 -52 -36.5 -88.5t-88.5 -36.5t-88.5 36.5t-36.5 88.5v100q0 63 50 100
q-50 37 -50 100v100q0 52 36.5 88.5t88.5 36.5t88.5 -36.5t36.5 -88.5v-100q0 -63 -50 -100q50 -37 50 -100v-100z" />
    <glyph glyph-name="nine" unicode="9" 
d="M306 102q0 -52 -37 -89t-88 -37q-43 0 -76 25v-26h-50v152h50v-25q0 -32 22 -54t54 -22q31 0 53 22t22 54v98q-33 -25 -75 -25q-45 0 -80 28.5t-44 72.5h-2v249h2q9 43 44 71.5t80 28.5q44 0 79 -28.5t44 -71.5h2v-423zM256 301v199q0 31 -22 53t-53 22q-32 0 -54 -22
t-22 -53v-199q0 -32 22 -54t54 -22q31 0 53 22t22 54z" />
    <glyph glyph-name="colon" unicode=":" horiz-adv-x="150" 
d="M75 -54l26 54l-26 54l-26 -54zM75 247l26 54l-26 54l-26 -54z" />
    <glyph glyph-name="semicolon" unicode=";" horiz-adv-x="150" 
d="M48 -149l53 149l-26 54l-26 -54zM77 349l20 -49l-21 -50l-20 50z" />
    <glyph glyph-name="less" unicode="&#x3c;" 
d="M117 300l193 -146l-30 -40l-247 186l247 184l30 -40z" />
    <glyph glyph-name="equal" unicode="=" 
d="M300 251v-50h-250v50h250zM300 351v-50h-250v50h250z" />
    <glyph glyph-name="greater" unicode="&#x3e;" 
d="M237 298l-194 146l30 40l247 -186l-247 -184l-30 40z" />
    <glyph glyph-name="question" unicode="?" 
d="M100 200q0 31 22 53t53 22q52 0 88.5 36.5t36.5 88.5v100q0 52 -36.5 88.5t-88.5 36.5q-42 0 -75 -25v25h-50v-150h50v25q0 31 22 53t53 22t53 -22t22 -53v-100q0 -31 -22 -53t-53 -22q-52 0 -88.5 -36.5t-36.5 -88.5v-49h50v49zM75 -54l26 54l-26 54l-26 -54z" />
    <glyph glyph-name="at" unicode="@" 
d="M273 94v355q0 39 -27.5 66.5t-66.5 27.5q-32 0 -57 -19v91q24 14 51 14q51 0 87 -44t36 -106v-351q0 -21 -3 -34h-20zM173 -22q-51 0 -86.5 44t-35.5 106v351q0 61 34 104v-152h37v18q0 24 16.5 40.5t40.5 16.5q23 0 39.5 -16.5t16.5 -40.5v-74q-25 19 -56 19
q-34 0 -60 -21.5t-33 -53.5h-1v-187h1q7 -33 33 -54t60 -21q31 0 56 19v-20l46 1q-35 -79 -108 -79zM122 300v-149q0 -24 16.5 -40.5t40.5 -16.5q23 0 39.5 16.5t16.5 40.5v149q0 23 -16.5 40t-39.5 17q-24 0 -40.5 -17t-16.5 -40z" />
    <glyph glyph-name="A" unicode="A" 
d="M100 300v-199q0 -31 22 -53t53 -22t53.5 22t22.5 53v199q0 31 -22.5 53.5t-53.5 22.5t-53 -22.5t-22 -53.5zM301 25h30v-50h-80v26q-34 -26 -76 -26q-45 0 -79.5 28.5t-43.5 72.5h-2v249h2q9 44 43.5 72.5t79.5 28.5q42 0 76 -26v99q0 31 -22.5 53.5t-53.5 22.5
t-53 -22.5t-22 -53.5v-25h-50v151h50v-26q33 26 75 26q52 0 89 -37t37 -89v-474z" />
    <glyph glyph-name="B" unicode="B" 
d="M50 25v75l1 475h-30v50h280v-150h-50v100h-150v-175q33 25 75 25q52 0 88.5 -36.5t36.5 -88.5l-1 -200q0 -52 -36.5 -88.5t-88.5 -36.5q-42 0 -75 25v-25h-80v50h30zM101 300l-1 -200q0 -31 22 -53t53 -22t53 22t22 53l1 200q0 31 -22 53t-53 22q-32 0 -53.5 -22
t-21.5 -53z" />
    <glyph glyph-name="C" unicode="C" 
d="M175 25q-31 0 -53 22t-22 53v400q0 31 22 53t53 22t53 -22t22 -53v-25h50v150h-50v-25q-33 25 -75 25q-52 0 -88.5 -36.5t-36.5 -88.5v-400q0 -52 36.5 -88.5t88.5 -36.5q42 0 75 25v-25h50v150h-50v-25q0 -31 -22 -53t-53 -22zM300 125h-50v-25z" />
    <glyph glyph-name="D" unicode="D" 
d="M99 300v-199q0 -31 22 -53t54 -22q31 0 53 22t22 53v199q0 31 -22 53.5t-53 22.5q-32 0 -54 -22.5t-22 -53.5zM300 25h30v-50h-80v26q-33 -26 -75 -26q-45 0 -80 28.5t-44 72.5v249q9 44 44 72.5t80 28.5q42 0 75 -26v175h-31v50h110v-50h-29v-550z" />
    <glyph glyph-name="E" unicode="E" 
d="M199 175h-50v100h-49v-175q0 -31 22 -53t53 -22t53 22t22 53v25h50v-150h-50v25q-33 -25 -75 -25q-52 0 -88.5 36.5t-36.5 88.5v400q0 52 36.5 88.5t88.5 36.5q42 0 75 -25v25h50v-150h-50v25q0 31 -22 53t-53 22t-53 -22t-22 -53v-175h49v100h50v-250zM300 475h-50v25z
M250 100v25h50z" />
    <glyph glyph-name="F" unicode="F" 
d="M209 175h-50v100h-48v-250h30v-50h-110v50h30v550h-30v50h280v-150h-50v100h-150v-250h48v100h50v-250z" />
    <glyph glyph-name="G" unicode="G" 
d="M250 475v-375v375zM300 -200q-147 73 -180 73q-20 0 -20 -33v-40h-50v40q0 82 68 82q46 0 132 -42v120q-33 -25 -75 -25q-52 0 -88.5 36.5t-36.5 88.5v400q0 52 36.5 88.5t88.5 36.5q42 0 75 -25v25h50v-825zM250 100v400q0 31 -22 53t-53 22t-53 -22t-22 -53v-400
q0 -31 22 -53t53 -22t53 22t22 53z" />
    <glyph glyph-name="H" unicode="H" 
d="M331 -26h-110v50h29v251h-150v-251h31v-50h-110v50h29v552h-29v50h110v-50h-31v-251h150v251h-29v50h110v-50h-31v-552h31v-50z" />
    <glyph glyph-name="I" unicode="I" horiz-adv-x="150" 
d="M100 24h31v-50h-110v50h29v552h-29v50h110v-50h-31v-552z" />
    <glyph glyph-name="J" unicode="J" horiz-adv-x="300" 
d="M204 576h-29v50h110v-50h-31v-776q-147 73 -180 73q-20 0 -20 -33v-40h-50v40q0 82 68 82q46 0 132 -41v695zM229 677l26 54l-26 54l-26 -54z" />
    <glyph glyph-name="K" unicode="K" 
d="M100 24h31v-50h-110v50h29v552h-29v50h110v-50h-31v-202l137 202h-16v50h110v-50h-31l-189 -274l188 -278h32v-50h-110v50h15l-136 205v-205z" />
    <glyph glyph-name="L" unicode="L" 
d="M101 575h30v50h-110v-50h30v-550h-30v-50h280v150h-50v-100h-150v550z" />
    <glyph glyph-name="M" unicode="M" horiz-adv-x="550" 
d="M301 575v-550h29v-50h-110v50h31v550h-76q-31 0 -53 -22t-22 -53v-525h-79v50h29v475q0 52 36.5 88.5t88.5 36.5h200q52 0 88.5 -36.5t36.5 -88.5v-475h31v-50h-81v525q0 31 -22 53t-53 22h-74z" />
    <glyph glyph-name="N" unicode="N" 
d="M130 -25h-110v50h30v550h-30v50h80v-25q33 25 75 25q52 0 88.5 -36.5t36.5 -88.5v-475h30v-50h-110v50h30v475q0 31 -22 53t-53 22t-53 -22t-22 -53v-475h30v-50z" />
    <glyph glyph-name="O" unicode="O" 
d="M50 100v400q0 52 36.5 88.5t88.5 36.5t88.5 -36.5t36.5 -88.5v-400q0 -52 -36.5 -88.5t-88.5 -36.5t-88.5 36.5t-36.5 88.5zM100 100q0 -31 22 -53t53 -22t53 22t22 53v400q0 31 -22 53t-53 22t-53 -22t-22 -53v-400z" />
    <glyph glyph-name="P" unicode="P" 
d="M300 100q0 -52 -36.5 -88.5t-88.5 -36.5q-42 0 -75 25v-200h-50v775h-31v50h81v-25q33 25 75 25q52 0 88.5 -36.5t36.5 -88.5v-400zM250 100v400q0 31 -22 53t-53 22t-53 -22t-22 -53v-400q0 -31 22 -53t53 -22t53 22t22 53z" />
    <glyph glyph-name="Q" unicode="Q" 
d="M50 100q0 -52 36.5 -88.5t88.5 -36.5q42 0 75 25v-200h50v775h31v50h-81v-25q-33 25 -75 25q-52 0 -88.5 -36.5t-36.5 -88.5v-400zM100 100v400q0 31 22 53t53 22t53 -22t22 -53v-400q0 -31 -22 -53t-53 -22t-53 22t-22 53z" />
    <glyph glyph-name="R" unicode="R" 
d="M185 225q31 0 53 22t22 53v199q0 31 -22 53t-54 23h-43v-1h-31v-349h75zM110 175v-153h31v-50h-110v50h29v552h-29v50h19h135q52 0 88.5 -36.5t36.5 -88.5v-199q0 -42 -24.5 -75t-63.5 -45l80 -158h37v-50h-110v50h17l-77 153h-59z" />
    <glyph glyph-name="S" unicode="S" 
d="M250 600v25h50v-150h-50v25q0 31 -22 53t-53 22t-53 -22t-22 -53v-100q0 -31 22 -53t53 -22q52 0 88.5 -36.5t36.5 -88.5v-100q0 -52 -36.5 -88.5t-88.5 -36.5q-42 0 -75 25v-25h-50v150h50v-25q0 -31 22 -53t53 -22t53 22t22 53v100q0 31 -22 53t-53 22
q-52 0 -88.5 36.5t-36.5 88.5v100q0 52 36.5 88.5t88.5 36.5q42 0 75 -25z" />
    <glyph glyph-name="T" unicode="T" 
d="M250 300v100h50v-250h-50v100h-50v-226h31v-50h-110v50h29v226h-50v-100h-50v250h50v-100h50v276h-29v50h110v-50h-31v-276h50z" />
    <glyph glyph-name="U" unicode="U" 
d="M220 625h110v-50h-30v-550h30v-50h-80v25q-33 -25 -75 -25q-52 0 -88.5 36.5t-36.5 88.5v475h-30v50h110v-50h-30v-475q0 -31 22 -53t53 -22t53 22t22 53v475h-30v50z" />
    <glyph glyph-name="V" unicode="V" 
d="M175 -34l-125 610h-29v50h110v-50l-25 1l69 -353q75 376 75 352h-29v50h110v-50l-35 1q4 21 -121 -611z" />
    <glyph glyph-name="W" unicode="W" horiz-adv-x="550" 
d="M251 25v550h-29v50h110v-50h-31v-550h76q31 0 53 22t22 53v525h79v-50h-29v-475q0 -52 -36.5 -88.5t-88.5 -36.5h-200q-52 0 -88.5 36.5t-36.5 88.5v475h-31v50h81v-525q0 -31 22 -53t53 -22h74z" />
    <glyph glyph-name="X" unicode="X" 
d="M331 -24h-110v50h29l-74 204l-73 -204h28v-50h-110v50h29l99 277l-99 273h-29v50h110v-50h-28l73 -199l71 199h-26v50h110v-50h-31l-98 -273l101 -277h28v-50z" />
    <glyph glyph-name="Y" unicode="Y" 
d="M250 0q-33 -25 -75 -25q-52 0 -88.5 36.5t-36.5 88.5v475h-30v50h110v-50h-30v-475q0 -31 22 -53t53 -22t53 22t22 53v475h-30v50h110v-50h-30l-1 -775q-147 73 -180 73q-20 0 -20 -33v-40h-50v40q0 82 69 82q46 0 132 -41v119z" />
    <glyph glyph-name="Z" unicode="Z" 
d="M274 274h-81l-83 -249h140v100h50v-150h-260l100 299h-67v50h84l83 251h-140v-100h-50v150h260l-101 -301h65v-50z" />
    <glyph glyph-name="bracketleft" unicode="[" horiz-adv-x="200" 
d="M70 675v-750h100v-50h-150v850h150v-50h-100z" />
    <glyph glyph-name="backslash" unicode="\" 
d="M99 706l206 -824l-48 -12l-212 848l48 12z" />
    <glyph glyph-name="bracketright" unicode="]" horiz-adv-x="200" 
d="M180 725v-850h-150v50h100v750h-100v50h150z" />
    <glyph glyph-name="asciicircum" unicode="^" 
d="M176 722l-112 -57l-23 45l135 68l132 -68l-23 -45z" />
    <glyph glyph-name="underscore" unicode="_" 
d="M357 25v-50h-364v50h364z" />
    <glyph glyph-name="grave" unicode="`" horiz-adv-x="0" 
d="M-178 795l-40 -30l82 -111l40 30z" />
    <glyph glyph-name="a" unicode="a" 
d="M100 300v-199q0 -31 22 -53t53 -22t53.5 22t22.5 53v199q0 31 -22.5 53.5t-53.5 22.5t-53 -22.5t-22 -53.5zM301 25h30v-50h-80v26q-34 -26 -76 -26q-45 0 -79.5 28.5t-43.5 72.5h-2v249h2q9 44 43.5 72.5t79.5 28.5q42 0 76 -26v99q0 31 -22.5 53.5t-53.5 22.5
t-53 -22.5t-22 -53.5v-25h-50v151h50v-26q33 26 75 26q52 0 89 -37t37 -89v-474z" />
    <glyph glyph-name="b" unicode="b" 
d="M50 25v75l1 475h-30v50h280v-150h-50v100h-150v-175q33 25 75 25q52 0 88.5 -36.5t36.5 -88.5l-1 -200q0 -52 -36.5 -88.5t-88.5 -36.5q-42 0 -75 25v-25h-80v50h30zM101 300l-1 -200q0 -31 22 -53t53 -22t53 22t22 53l1 200q0 31 -22 53t-53 22q-32 0 -53.5 -22
t-21.5 -53z" />
    <glyph glyph-name="c" unicode="c" 
d="M175 25q-31 0 -53 22t-22 53v400q0 31 22 53t53 22t53 -22t22 -53v-25h50v150h-50v-25q-33 25 -75 25q-52 0 -88.5 -36.5t-36.5 -88.5v-400q0 -52 36.5 -88.5t88.5 -36.5q42 0 75 25v-25h50v150h-50v-25q0 -31 -22 -53t-53 -22zM300 125h-50v-25z" />
    <glyph glyph-name="d" unicode="d" 
d="M55 25v550h-29v50h154q52 0 88.5 -36.5t36.5 -88.5v-400q0 -52 -36.5 -88.5t-88.5 -36.5h-154v50h29zM105 575v-550h75q31 0 53 22t22 53v400q0 31 -22 53t-53 22h-75z" />
    <glyph glyph-name="e" unicode="e" 
d="M199 175h-50v100h-49v-175q0 -31 22 -53t53 -22t53 22t22 53v25h50v-150h-50v25q-33 -25 -75 -25q-52 0 -88.5 36.5t-36.5 88.5v400q0 52 36.5 88.5t88.5 36.5q42 0 75 -25v25h50v-150h-50v25q0 31 -22 53t-53 22t-53 -22t-22 -53v-175h49v100h50v-250zM300 475h-50v25z
M250 100v25h50z" />
    <glyph glyph-name="f" unicode="f" 
d="M209 175h-50v100h-48v-250h30v-50h-110v50h30v550h-30v50h280v-150h-50v100h-150v-250h48v100h50v-250z" />
    <glyph glyph-name="g" unicode="g" 
d="M300 300h-50v-200q0 -31 -22 -53t-53 -22t-53 22t-22 53v400q0 31 22 53t53 22t53 -22t22 -53v-25h50v150h-50v-25q-33 25 -75 25q-52 0 -88.5 -36.5t-36.5 -88.5v-400q0 -52 36.5 -88.5t88.5 -36.5q42 0 75 25v-120q-86 42 -132 42q-68 0 -68 -82v-40h50v40q0 33 20 33
q33 0 180 -73v500zM300 300h-50v-200z" />
    <glyph glyph-name="h" unicode="h" 
d="M331 -26h-110v50h29v251h-150v-251h31v-50h-110v50h29v552h-29v50h110v-50h-31v-251h150v251h-29v50h110v-50h-31v-552h31v-50z" />
    <glyph glyph-name="i" unicode="i" horiz-adv-x="150" 
d="M100 24h31v-50h-110v50h29v552h-29v50h110v-50h-31v-552zM75 677l26 54l-26 54l-26 -54z" />
    <glyph glyph-name="j" unicode="j" horiz-adv-x="150" 
d="M50 576h-29v50h110v-50h-31v-776q-147 73 -180 73q-20 0 -20 -33v-40h-50v40q0 82 68 82q46 0 132 -41v695zM75 677l26 54l-26 54l-26 -54z" />
    <glyph glyph-name="k" unicode="k" 
d="M100 24h31v-50h-110v50h29v552h-29v50h110v-50h-31v-202l137 202h-16v50h110v-50h-31l-189 -274l188 -278h32v-50h-110v50h15l-136 205v-205z" />
    <glyph glyph-name="l" unicode="l" 
d="M101 575h30v50h-110v-50h30v-550h-30v-50h280v150h-50v-100h-150v550z" />
    <glyph glyph-name="m" unicode="m" 
d="M175 327l75 299h81v-50h-31v-552h31v-50h-110v50h29v396l-75 -299l-75 301v-398h31v-50h-110v50h29v552h-29v50h79z" />
    <glyph glyph-name="n" unicode="n" 
d="M130 -25h-110v50h30v550h-30v50h80v-25q33 25 75 25q52 0 88.5 -36.5t36.5 -88.5v-475h30v-50h-110v50h30v475q0 31 -22 53t-53 22t-53 -22t-22 -53v-475h30v-50z" />
    <glyph glyph-name="o" unicode="o" 
d="M50 100v400q0 52 36.5 88.5t88.5 36.5t88.5 -36.5t36.5 -88.5v-400q0 -52 -36.5 -88.5t-88.5 -36.5t-88.5 36.5t-36.5 88.5zM100 100q0 -31 22 -53t53 -22t53 22t22 53v400q0 31 -22 53t-53 22t-53 -22t-22 -53v-400zM175 246l26 54l-26 54l-26 -54z" />
    <glyph glyph-name="p" unicode="p" 
d="M300 100q0 -52 -36.5 -88.5t-88.5 -36.5q-42 0 -75 25v-200h-50v775h-31v50h81v-25q33 25 75 25q52 0 88.5 -36.5t36.5 -88.5v-400zM250 100v400q0 31 -22 53t-53 22t-53 -22t-22 -53v-400q0 -31 22 -53t53 -22t53 22t22 53z" />
    <glyph glyph-name="q" unicode="q" 
d="M50 100q0 -52 36.5 -88.5t88.5 -36.5q42 0 75 25v-200h50v775h31v50h-81v-25q-33 25 -75 25q-52 0 -88.5 -36.5t-36.5 -88.5v-400zM100 100v400q0 31 22 53t53 22t53 -22t22 -53v-400q0 -31 -22 -53t-53 -22t-53 22t-22 53z" />
    <glyph glyph-name="r" unicode="r" 
d="M185 225q31 0 53 22t22 53v199q0 31 -22 53t-54 23h-43v-1h-31v-349h75zM110 175v-153h31v-50h-110v50h29v552h-29v50h77h77q52 0 88.5 -36.5t36.5 -88.5v-199q0 -42 -24.5 -75t-63.5 -45l80 -158h37v-50h-110v50h17l-77 153h-59z" />
    <glyph glyph-name="s" unicode="s" 
d="M250 600v25h50v-150h-50v25q0 31 -22 53t-53 22t-53 -22t-22 -53v-100q0 -31 22 -53t53 -22q52 0 88.5 -36.5t36.5 -88.5v-100q0 -52 -36.5 -88.5t-88.5 -36.5q-42 0 -75 25v-25h-50v150h50v-25q0 -31 22 -53t53 -22t53 22t22 53v100q0 31 -22 53t-53 22
q-52 0 -88.5 36.5t-36.5 88.5v100q0 52 36.5 88.5t88.5 36.5q42 0 75 -25z" />
    <glyph glyph-name="t" unicode="t" 
d="M316 476h-50v100h-65v-552h31v-50h-110v50h29v552h-62v-100h-50v150h277v-150z" />
    <glyph glyph-name="u" unicode="u" 
d="M220 625h110v-50h-30v-550h30v-50h-80v25q-33 -25 -75 -25q-52 0 -88.5 36.5t-36.5 88.5v475h-30v50h110v-50h-30v-475q0 -31 22 -53t53 -22t53 22t22 53v475h-30v50z" />
    <glyph glyph-name="v" unicode="v" 
d="M175 -34l-125 610h-29v50h110v-50l-25 1l69 -353q75 376 75 352h-29v50h110v-50l-35 1q4 21 -121 -611z" />
    <glyph glyph-name="w" unicode="w" 
d="M177 273l-75 -299h-81v50h31v552h-31v50h110v-50h-29v-396l75 299l75 -301v398h-31v50h110v-50h-29v-552h29v-50h-79z" />
    <glyph glyph-name="x" unicode="x" 
d="M331 -24h-110v50h29l-74 204l-73 -204h28v-50h-110v50h29l99 277l-99 273h-29v50h110v-50h-28l73 -199l71 199h-26v50h110v-50h-31l-98 -273l101 -277h28v-50z" />
    <glyph glyph-name="y" unicode="y" 
d="M250 0q-33 -25 -75 -25q-52 0 -88.5 36.5t-36.5 88.5v475h-30v50h110v-50h-30v-475q0 -31 22 -53t53 -22t53 22t22 53v475h-30v50h110v-50h-30l-1 -775q-89 44 -89 45q-63 28 -91 28q-18 0 -21 -29q1 10 1 -44h-50v40q0 82 69 82q46 0 132 -41v119z" />
    <glyph glyph-name="z" unicode="z" 
d="M50 625h260l-200 -600h140v100h50v-150h-260l200 600h-140v-100h-50v150z" />
    <glyph glyph-name="braceleft" unicode="{" horiz-adv-x="200" 
 />
    <glyph glyph-name="bar" unicode="|" horiz-adv-x="200" 
d="M125 -125h-50v850h50v-850z" />
    <glyph glyph-name="braceright" unicode="}" horiz-adv-x="200" 
 />
    <glyph glyph-name="asciitilde" unicode="~" 
d="M50 275q0 76 56 76q26 0 74.5 -25.5t63.5 -25.5q6 7 6 49h50v-25q0 -74 -55 -74q-26 0 -74 25t-67 25q-4 -8 -4 -50h-50v25z" />
    <glyph glyph-name="dagger" unicode="&#x2020;" 
d="M151 525v100h50v-100h99v-50h-99v-300h-50v300h-101v50h101z" />
    <glyph glyph-name="cent" unicode="&#xa2;" 
d="M300 -25h-50v25q-24 -18 -53 -23v-53h-50v54q-42 10 -69.5 44t-27.5 78v400q0 44 27.5 78t69.5 44v53h50v-52q29 -5 53 -23v25h50v-150h-50v25q0 56 -53 72v-544q53 16 53 72v25h50v-150zM250 100v25h50zM147 30v540q-47 -19 -47 -70v-400q0 -51 47 -70z" />
    <glyph glyph-name="sterling" unicode="&#xa3;" 
d="M196 274h-96v-249h151v100h50v-150h-280v50h29v249h-29v50h29v176q0 52 36.5 88.5t88.5 36.5q42 0 75 -25v25h50v-150h-50v25q0 31 -22 53t-53 22t-53 -22t-22 -53v-176h96v-50z" />
    <glyph glyph-name="section" unicode="&#xa7;" 
d="M100 -25h-50v150h50v-25q0 -31 22 -53t53 -22t53 22t22 53v101q-33 -25 -75 -25q-52 0 -88.5 36.5t-36.5 88.5v199q0 52 36.5 88.5t88.5 36.5q42 0 75 -25v25h50v-150h-50v25q0 31 -22 53t-53 22t-53 -22t-22 -53v-99q33 25 75 25q52 0 88.5 -36.5t36.5 -88.5v-201
q0 -52 -36.5 -88.5t-88.5 -36.5q-42 0 -75 25v-25zM250 301q0 31 -22 53t-53 22t-53 -22t-22 -53t22 -53t53 -22t53 22t22 53z" />
    <glyph glyph-name="bullet" unicode="&#x2022;" horiz-adv-x="200" 
d="M0 301q0 41 29.5 70.5t70.5 29.5t70.5 -29.5t29.5 -70.5t-29.5 -70.5t-70.5 -29.5t-70.5 29.5t-29.5 70.5z" />
    <glyph glyph-name="paragraph" unicode="&#xb6;" horiz-adv-x="200" 
 />
    <glyph glyph-name="germandbls" unicode="&#xdf;" 
d="M17 374v50h31v150h-30v50h80v-24q33 24 74 24q52 0 88.5 -36.5t36.5 -88.5q0 -63 -50 -100q49 -37 50 -100q1 -46 1 -199q0 -52 -36.5 -88.5t-88.5 -36.5v50q31 0 53 22t22 53l-1 199q0 31 -22 53t-53 22h-25v50h25q31 0 53 22t22 53t-22 53t-53 22q-25 0 -49.5 -19
t-24.5 -44v-711h-50v574h-31z" />
    <glyph glyph-name="acute" unicode="&#xb4;" horiz-adv-x="0" 
d="M-136 795l40 -30l-82 -111l-40 30z" />
    <glyph glyph-name="dieresis" unicode="&#xa8;" horiz-adv-x="0" 
d="M-249 677l26 54l-26 54l-26 -54zM-99 677l26 54l-26 54l-26 -54z" />
    <glyph glyph-name="AE" unicode="&#xc6;" horiz-adv-x="559" 
d="M251 300q0 31 -22.5 53.5t-53.5 22.5t-53 -22.5t-22 -53.5v-199q0 -31 22 -53t53 -22t53.5 21.5t22.5 52.5v200zM278 21q-8 -5 -27 -20q-30 -26 -76 -26q-45 0 -79.5 28.5t-43.5 72.5h-2v249h2q9 44 43.5 72.5t79.5 28.5q42 0 76 -26v100q0 31 -22.5 53t-53.5 22
t-53 -22.5t-22 -53.5v-25h-50v151h50v-26q33 26 75 26q62 0 100 -50q37 50 101 50q41 0 75 -25v25h50v-150h-50v25q0 31 -22 53t-53 22q-32 0 -53.5 -22t-21.5 -53v-175h49v100h50v-250h-50v100h-49v-175q0 -31 21.5 -53t53.5 -22q31 0 53 22t22 53v25h50v-150h-50v25
q-34 -25 -75 -25q-60 0 -98 46zM501 475h-50v25zM451 100v25h50z" />
    <glyph glyph-name="Oslash" unicode="&#xd8;" 
d="M100 153l133 395q-23 27 -58 27q-31 0 -53 -22t-22 -53v-347zM250 443l-132 -392q23 -26 57 -26q31 0 53 22t22 53v343zM308 615l-20 -60q12 -26 12 -55v-400q0 -52 -36.5 -88.5t-88.5 -36.5q-41 0 -74 24l-10 -31l-48 16l20 60q-13 26 -13 56v400q0 52 36.5 88.5
t88.5 36.5q42 0 75 -25l10 31z" />
    <glyph glyph-name="yen" unicode="&#xa5;" horiz-adv-x="200" 
 />
    <glyph glyph-name="ordfeminine" unicode="&#xaa;" horiz-adv-x="200" 
 />
    <glyph glyph-name="ordmasculine" unicode="&#xba;" horiz-adv-x="200" 
 />
    <glyph glyph-name="ae" unicode="&#xe6;" horiz-adv-x="559" 
d="M251 300q0 31 -22.5 53.5t-53.5 22.5t-53 -22.5t-22 -53.5v-199q0 -31 22 -53t53 -22t53.5 21.5t22.5 52.5v200zM278 21q-8 -5 -27 -20q-30 -26 -76 -26q-45 0 -79.5 28.5t-43.5 72.5h-2v249h2q9 44 43.5 72.5t79.5 28.5q42 0 76 -26v100q0 31 -22.5 53t-53.5 22
t-53 -22.5t-22 -53.5v-25h-50v151h50v-26q33 26 75 26q62 0 100 -50q37 50 101 50q41 0 75 -25v25h50v-150h-50v25q0 31 -22 53t-53 22q-32 0 -53.5 -22t-21.5 -53v-175h49v100h50v-250h-50v100h-49v-175q0 -31 21.5 -53t53.5 -22q31 0 53 22t22 53v25h50v-150h-50v25
q-34 -25 -75 -25q-60 0 -98 46zM501 475h-50v25zM451 100v25h50z" />
    <glyph glyph-name="oslash" unicode="&#xf8;" 
d="M100 153l133 395q-23 27 -58 27q-31 0 -53 -22t-22 -53v-347zM250 443l-132 -392q23 -26 57 -26q31 0 53 22t22 53v343zM308 615l-20 -60q12 -26 12 -55v-400q0 -52 -36.5 -88.5t-88.5 -36.5q-41 0 -74 24l-10 -31l-48 16l20 60q-13 26 -13 56v400q0 52 36.5 88.5
t88.5 36.5q42 0 75 -25l10 31z" />
    <glyph glyph-name="questiondown" unicode="&#xbf;" 
d="M249 401q0 -31 -22 -53t-53 -22q-52 0 -88.5 -36.5t-36.5 -88.5v-100q0 -52 36.5 -88.5t88.5 -36.5q42 0 75 25v-25h50v150h-50v-25q0 -31 -22 -53t-53 -22t-53 22t-22 53v100q0 31 22 53t53 22q52 0 88.5 36.5t36.5 88.5v49h-50v-49zM274 655l-26 -54l26 -54l26 54z" />
    <glyph glyph-name="exclamdown" unicode="&#xa1;" horiz-adv-x="150" 
d="M53 452h49v-426h29v-50h-110v50h31zM77 656l-26 -54l26 -54l26 54z" />
    <glyph glyph-name="florin" unicode="&#x192;" horiz-adv-x="200" 
d="M-54 -224h110v50h-110v-50zM0 0h60h-60zM178 -38h-38l38 38h76l-38 -38h-38z" />
    <glyph glyph-name="guillemotleft" unicode="&#xab;" horiz-adv-x="200" 
 />
    <glyph glyph-name="guillemotright" unicode="&#xbb;" horiz-adv-x="200" 
 />
    <glyph glyph-name="ellipsis" unicode="&#x2026;" horiz-adv-x="200" 
 />
    <glyph glyph-name="OE" unicode="&#x152;" horiz-adv-x="556" 
d="M250 100v400q0 31 -22 53t-53 22t-53 -22t-22 -53v-400q0 -31 22 -53t53 -22t53 22t22 53zM399 175h-50v100h-49v-175q0 -31 22 -53t53 -22t53 22t22 53v25h50v-150h-50v25q-33 -25 -75 -25q-63 0 -100 50q-37 -50 -100 -50q-52 0 -88.5 36.5t-36.5 88.5v400
q0 52 36.5 88.5t88.5 36.5q63 0 100 -50q37 50 100 50q42 0 75 -25v25h50v-150h-50v25q0 31 -22 53t-53 22t-53 -22t-22 -53v-175h49v100h50v-250zM175 246l-26 54l26 54l26 -54zM500 475h-50v25zM450 100v25h50z" />
    <glyph glyph-name="oe" unicode="&#x153;" horiz-adv-x="556" 
d="M250 100v400q0 31 -22 53t-53 22t-53 -22t-22 -53v-400q0 -31 22 -53t53 -22t53 22t22 53zM399 175h-50v100h-49v-175q0 -31 22 -53t53 -22t53 22t22 53v25h50v-150h-50v25q-33 -25 -75 -25q-63 0 -100 50q-37 -50 -100 -50q-52 0 -88.5 36.5t-36.5 88.5v400
q0 52 36.5 88.5t88.5 36.5q63 0 100 -50q37 50 100 50q42 0 75 -25v25h50v-150h-50v25q0 31 -22 53t-53 22t-53 -22t-22 -53v-175h49v100h50v-250zM175 246l-26 54l26 54l26 -54zM500 475h-50v25zM450 100v25h50z" />
    <glyph glyph-name="endash" unicode="&#x2013;" horiz-adv-x="200" 
 />
    <glyph glyph-name="emdash" unicode="&#x2014;" horiz-adv-x="200" 
 />
    <glyph glyph-name="quotedblleft" unicode="&#x201c;" horiz-adv-x="200" 
 />
    <glyph glyph-name="quotedblright" unicode="&#x201d;" horiz-adv-x="200" 
 />
    <glyph glyph-name="quoteleft" unicode="&#x2018;" horiz-adv-x="200" 
 />
    <glyph glyph-name="quoteright" unicode="&#x2019;" horiz-adv-x="200" 
 />
    <glyph glyph-name="fraction" unicode="&#x2215;" horiz-adv-x="200" 
 />
    <glyph glyph-name="currency" unicode="&#xa4;" 
 />
    <glyph glyph-name="guilsinglleft" unicode="&#x2039;" horiz-adv-x="200" 
 />
    <glyph glyph-name="guilsinglright" unicode="&#x203a;" horiz-adv-x="200" 
 />
    <glyph glyph-name="fi" unicode="&#xf001;" horiz-adv-x="200" 
 />
    <glyph glyph-name="fl" unicode="&#xf002;" horiz-adv-x="200" 
 />
    <glyph glyph-name="daggerdbl" unicode="&#x2021;" horiz-adv-x="200" 
 />
    <glyph glyph-name="periodcentered" unicode="&#x2219;" horiz-adv-x="200" 
 />
    <glyph glyph-name="quotesinglbase" unicode="&#x201a;" horiz-adv-x="200" 
 />
    <glyph glyph-name="quotedblbase" unicode="&#x201e;" horiz-adv-x="200" 
 />
    <glyph glyph-name="perthousand" unicode="&#x2030;" horiz-adv-x="200" 
 />
    <glyph glyph-name="dotlessi" unicode="&#x131;" horiz-adv-x="150" 
d="M100 24h31v-50h-110v50h29v552h-29v50h110v-50h-31v-552z" />
    <glyph glyph-name="circumflex" unicode="&#x2c6;" horiz-adv-x="200" 
 />
    <glyph glyph-name="tilde" unicode="&#x2dc;" horiz-adv-x="200" 
 />
    <glyph glyph-name="macron" unicode="&#xaf;" horiz-adv-x="0" 
d="M-52 750v-50h-249v50h249z" />
    <glyph glyph-name="breve" unicode="&#x2d8;" horiz-adv-x="0" 
d="M-180 736l22 29l22 30l40 -30l-82 -111l-89 110l39 31z" />
    <glyph glyph-name="dotaccent" unicode="&#x2d9;" horiz-adv-x="200" 
 />
    <glyph glyph-name="ring" unicode="&#x2da;" horiz-adv-x="200" 
 />
    <glyph glyph-name="cedilla" unicode="&#xb8;" horiz-adv-x="200" 
 />
    <glyph glyph-name="hungarumlaut" unicode="&#x2dd;" horiz-adv-x="200" 
 />
    <glyph glyph-name="ogonek" unicode="&#x2db;" horiz-adv-x="200" 
 />
    <glyph glyph-name="Lslash" unicode="&#x141;" 
d="M174 314l-63 -32v-257h150v100h50v-150h-280v50h30v231l-36 -19l-23 45l59 30v263h-30v50h110v-50h-30v-237l41 21z" />
    <glyph glyph-name="lslash" unicode="&#x142;" 
d="M174 314l-63 -32v-257h150v100h50v-150h-280v50h30v231l-36 -19l-23 45l59 30v263h-30v50h110v-50h-30v-237l41 21z" />
    <glyph glyph-name="Eth" unicode="&#xd0;" 
d="M105 326h79v-50h-79v-251h75q31 0 53 22t22 53v400q0 31 -22 53t-53 22h-75v-249zM55 326v249h-29v50h154q52 0 88.5 -36.5t36.5 -88.5v-400q0 -52 -36.5 -88.5t-88.5 -36.5h-154v50h29v251h-34v50h34z" />
    <glyph glyph-name="eth" unicode="&#xf0;" 
d="M99 300v-199q0 -31 22 -53t54 -22q31 0 53 22t22 53v199q0 31 -22 53.5t-53 22.5q-32 0 -54 -22.5t-22 -53.5zM300 25h30v-50h-80v26q-33 -26 -75 -26q-45 0 -80 28.5t-44 72.5v249q9 44 44 72.5t80 28.5q42 0 75 -26v75h-170v50h170v50h-31v50h110v-50h-29v-50h29v-50
h-29v-450z" />
    <glyph glyph-name="Scaron" unicode="&#x160;" 
d="M250 600v25h50v-150h-50v25q0 31 -22 53t-53 22t-53 -22t-22 -53v-100q0 -31 22 -53t53 -22q52 0 88.5 -36.5t36.5 -88.5v-100q0 -52 -36.5 -88.5t-88.5 -36.5q-42 0 -75 25v-25h-50v150h50v-25q0 -31 22 -53t53 -22t53 22t22 53v100q0 31 -22 53t-53 22
q-52 0 -88.5 36.5t-36.5 88.5v100q0 52 36.5 88.5t88.5 36.5q42 0 75 -25zM180 736l22 29l22 30l40 -30l-82 -111l-89 110l39 31z" />
    <glyph glyph-name="scaron" unicode="&#x161;" 
d="M250 600v25h50v-150h-50v25q0 31 -22 53t-53 22t-53 -22t-22 -53v-100q0 -31 22 -53t53 -22q52 0 88.5 -36.5t36.5 -88.5v-100q0 -52 -36.5 -88.5t-88.5 -36.5q-42 0 -75 25v-25h-50v150h50v-25q0 -31 22 -53t53 -22t53 22t22 53v100q0 31 -22 53t-53 22
q-52 0 -88.5 36.5t-36.5 88.5v100q0 52 36.5 88.5t88.5 36.5q42 0 75 -25zM180 736l22 29l22 30l40 -30l-82 -111l-89 110l39 31z" />
    <glyph glyph-name="Yacute" unicode="&#xdd;" 
d="M250 0q-33 -25 -75 -25q-52 0 -88.5 36.5t-36.5 88.5v475h-30v50h110v-50h-30v-475q0 -31 22 -53t53 -22t53 22t22 53v475h-30v50h110v-50h-30l-1 -775q-89 44 -89 45q-63 28 -91 28q-18 0 -21 -29q1 10 1 -44h-50v40q0 82 69 82q46 0 132 -41v119zM220 795l40 -30
l-82 -111l-40 30z" />
    <glyph glyph-name="yacute" unicode="&#xfd;" 
d="M250 0q-33 -25 -75 -25q-52 0 -88.5 36.5t-36.5 88.5v475h-30v50h110v-50h-30v-475q0 -31 22 -53t53 -22t53 22t22 53v475h-30v50h110v-50h-30l-1 -775q-89 44 -89 45q-63 28 -91 28q-18 0 -21 -29q1 10 1 -44h-50v40q0 82 69 82q46 0 132 -41v119zM220 795l40 -30
l-82 -111l-40 30z" />
    <glyph glyph-name="LF" horiz-adv-x="200" 
 />
    <glyph glyph-name="Thorn" unicode="&#xde;" 
d="M300 100q0 -52 -36.5 -88.5t-88.5 -36.5q-42 0 -75 25v-200h-50v947h-31v50h81v-197q33 25 75 25q52 0 88.5 -36.5t36.5 -88.5v-400zM250 100v400q0 31 -22 53t-53 22t-53 -22t-22 -53v-400q0 -31 22 -53t53 -22t53 22t22 53z" />
    <glyph glyph-name="thorn" unicode="&#xfe;" 
d="M300 100q0 -52 -36.5 -88.5t-88.5 -36.5q-42 0 -75 25v-200h-50v947h-31v50h81v-197q33 25 75 25q52 0 88.5 -36.5t36.5 -88.5v-400zM250 100v400q0 31 -22 53t-53 22t-53 -22t-22 -53v-400q0 -31 22 -53t53 -22t53 22t22 53z" />
    <glyph glyph-name="Zcaron" unicode="&#x17d;" 
d="M50 625h260l-200 -600h140v100h50v-150h-260l200 600h-140v-100h-50v150zM180 736l22 29l22 30l40 -30l-82 -111l-89 110l39 31z" />
    <glyph glyph-name="zcaron" unicode="&#x17e;" 
d="M50 625h260l-200 -600h140v100h50v-150h-260l200 600h-140v-100h-50v150zM180 736l22 29l22 30l40 -30l-82 -111l-89 110l39 31z" />
    <glyph glyph-name="DLE" horiz-adv-x="200" 
 />
    <glyph glyph-name="DC1" horiz-adv-x="200" 
 />
    <glyph glyph-name="DC2" horiz-adv-x="200" 
 />
    <glyph glyph-name="DC3" horiz-adv-x="200" 
 />
    <glyph glyph-name="DC4" horiz-adv-x="200" 
 />
    <glyph glyph-name="onehalf" unicode="&#xbd;" horiz-adv-x="200" 
 />
    <glyph glyph-name="onequarter" unicode="&#xbc;" horiz-adv-x="200" 
 />
    <glyph glyph-name="onesuperior" unicode="&#xb9;" horiz-adv-x="200" 
 />
    <glyph glyph-name="threequarters" unicode="&#xbe;" horiz-adv-x="200" 
 />
    <glyph glyph-name="threesuperior" unicode="&#xb3;" horiz-adv-x="200" 
 />
    <glyph glyph-name="twosuperior" unicode="&#xb2;" horiz-adv-x="200" 
 />
    <glyph glyph-name="brokenbar" unicode="&#xa6;" horiz-adv-x="200" 
 />
    <glyph glyph-name="minus" unicode="&#xad;" horiz-adv-x="200" 
 />
    <glyph glyph-name="multiply" unicode="&#xd7;" horiz-adv-x="200" 
 />
    <glyph glyph-name="RS" horiz-adv-x="200" 
 />
    <glyph glyph-name="US" horiz-adv-x="200" 
 />
    <glyph glyph-name="DEL" horiz-adv-x="200" 
 />
    <glyph glyph-name="Adieresis" unicode="&#xc4;" 
d="M100 300v-199q0 -31 22 -53t53 -22t53.5 22t22.5 53v199q0 31 -22.5 53.5t-53.5 22.5t-53 -22.5t-22 -53.5zM301 25h30v-50h-80v26q-34 -26 -76 -26q-45 0 -79.5 28.5t-43.5 72.5h-2v249h2q9 44 43.5 72.5t79.5 28.5q42 0 76 -26v99q0 31 -22.5 53.5t-53.5 22.5
t-53 -22.5t-22 -53.5v-25h-50v151h50v-26q33 26 75 26q52 0 89 -37t37 -89v-474zM101 677l26 54l-26 54l-26 -54zM251 677l26 54l-26 54l-26 -54z" />
    <glyph glyph-name="Aring" unicode="&#xc5;" 
d="M100 300v-199q0 -31 22 -53t53 -22t53.5 22t22.5 53v199q0 31 -22.5 53.5t-53.5 22.5t-53 -22.5t-22 -53.5zM301 25h30v-50h-80v26q-34 -26 -76 -26q-45 0 -79.5 28.5t-43.5 72.5h-2v249h2q9 44 43.5 72.5t79.5 28.5q42 0 76 -26v99q0 31 -22.5 53.5t-53.5 22.5
t-53 -22.5t-22 -53.5v-25h-50v151h50v-26q33 26 75 26q52 0 89 -37t37 -89v-474zM175 798q31 0 53 -22t22 -53t-22 -53t-53 -22t-53 22t-22 53t22 53t53 22zM175 748q-25 0 -25 -25t25 -25t25 25t-25 25z" />
    <glyph glyph-name="Ccedilla" unicode="&#xc7;" 
d="M300 -25h-50v25q-22 -17 -50 -23v-26q79 0 79 -46q0 -63 -137 -104l-14 48q69 20 96 50q-11 2 -25 2q-7 0 -49 -3v79q-44 9 -72 44t-28 79v400q0 52 36.5 88.5t88.5 36.5q42 0 75 -25v25h50v-150h-50v25q0 31 -22 53t-53 22t-53 -22t-22 -53v-400q0 -31 22 -53t53 -22
t53 22t22 53v25h50v-150zM250 100v25h50z" />
    <glyph glyph-name="Eacute" unicode="&#xc9;" 
d="M199 175h-50v100h-49v-175q0 -31 22 -53t53 -22t53 22t22 53v25h50v-150h-50v25q-33 -25 -75 -25q-52 0 -88.5 36.5t-36.5 88.5v400q0 52 36.5 88.5t88.5 36.5q42 0 75 -25v25h50v-150h-50v25q0 31 -22 53t-53 22t-53 -22t-22 -53v-175h49v100h50v-250zM300 475h-50v25z
M250 100v25h50zM220 795l40 -30l-82 -111l-40 30z" />
    <glyph glyph-name="Ntilde" unicode="&#xd1;" 
d="M130 -25h-110v50h30v550h-30v50h80v-25q33 25 75 25q52 0 88.5 -36.5t36.5 -88.5v-475h30v-50h-110v50h30v475q0 31 -22 53t-53 22t-53 -22t-22 -53v-475h30v-50zM50 697q0 76 56 76q26 0 74.5 -25.5t63.5 -25.5q6 7 6 49h50v-25q0 -74 -55 -74q-26 0 -74 25t-67 25
q-4 -8 -4 -50h-50v25z" />
    <glyph glyph-name="Odieresis" unicode="&#xd6;" 
d="M50 100v400q0 52 36.5 88.5t88.5 36.5t88.5 -36.5t36.5 -88.5v-400q0 -52 -36.5 -88.5t-88.5 -36.5t-88.5 36.5t-36.5 88.5zM100 100q0 -31 22 -53t53 -22t53 22t22 53v400q0 31 -22 53t-53 22t-53 -22t-22 -53v-400zM175 246l26 54l-26 54l-26 -54zM101 677l26 54
l-26 54l-26 -54zM251 677l26 54l-26 54l-26 -54z" />
    <glyph glyph-name="Udieresis" unicode="&#xdc;" 
d="M101 677l26 54l-26 54l-26 -54zM251 677l26 54l-26 54l-26 -54zM220 625h110v-50h-30v-550h30v-50h-80v25q-33 -25 -75 -25q-52 0 -88.5 36.5t-36.5 88.5v475h-30v50h110v-50h-30v-475q0 -31 22 -53t53 -22t53 22t22 53v475h-30v50z" />
    <glyph glyph-name="aacute" unicode="&#xe1;" 
d="M100 300v-199q0 -31 22 -53t53 -22t53.5 22t22.5 53v199q0 31 -22.5 53.5t-53.5 22.5t-53 -22.5t-22 -53.5zM301 25h30v-50h-80v26q-34 -26 -76 -26q-45 0 -79.5 28.5t-43.5 72.5h-2v249h2q9 44 43.5 72.5t79.5 28.5q42 0 76 -26v99q0 31 -22.5 53.5t-53.5 22.5
t-53 -22.5t-22 -53.5v-25h-50v151h50v-26q33 26 75 26q52 0 89 -37t37 -89v-474zM220 795l40 -30l-82 -111l-40 30z" />
    <glyph glyph-name="agrave" unicode="&#xe0;" 
d="M100 300v-199q0 -31 22 -53t53 -22t53.5 22t22.5 53v199q0 31 -22.5 53.5t-53.5 22.5t-53 -22.5t-22 -53.5zM301 25h30v-50h-80v26q-34 -26 -76 -26q-45 0 -79.5 28.5t-43.5 72.5h-2v249h2q9 44 43.5 72.5t79.5 28.5q42 0 76 -26v99q0 31 -22.5 53.5t-53.5 22.5
t-53 -22.5t-22 -53.5v-25h-50v151h50v-26q33 26 75 26q52 0 89 -37t37 -89v-474zM142 795l-40 -30l82 -111l40 30z" />
    <glyph glyph-name="acircumflex" unicode="&#xe2;" 
d="M176 722l-112 -57l-23 45l135 68l132 -68l-23 -45zM100 300v-199q0 -31 22 -53t53 -22t53.5 22t22.5 53v199q0 31 -22.5 53.5t-53.5 22.5t-53 -22.5t-22 -53.5zM301 25h30v-50h-80v26q-34 -26 -76 -26q-45 0 -79.5 28.5t-43.5 72.5h-2v249h2q9 44 43.5 72.5t79.5 28.5
q42 0 76 -26v99q0 31 -22.5 53.5t-53.5 22.5t-53 -22.5t-22 -53.5v-25h-50v151h50v-26q33 26 75 26q52 0 89 -37t37 -89v-474z" />
    <glyph glyph-name="adieresis" unicode="&#xe4;" 
d="M100 300v-199q0 -31 22 -53t53 -22t53.5 22t22.5 53v199q0 31 -22.5 53.5t-53.5 22.5t-53 -22.5t-22 -53.5zM301 25h30v-50h-80v26q-34 -26 -76 -26q-45 0 -79.5 28.5t-43.5 72.5h-2v249h2q9 44 43.5 72.5t79.5 28.5q42 0 76 -26v99q0 31 -22.5 53.5t-53.5 22.5
t-53 -22.5t-22 -53.5v-25h-50v151h50v-26q33 26 75 26q52 0 89 -37t37 -89v-474zM101 677l26 54l-26 54l-26 -54zM251 677l26 54l-26 54l-26 -54z" />
    <glyph glyph-name="atilde" unicode="&#xe3;" 
d="M50 697q0 76 56 76q26 0 74.5 -25.5t63.5 -25.5q6 7 6 49h50v-25q0 -74 -55 -74q-26 0 -74 25t-67 25q-4 -8 -4 -50h-50v25zM100 300v-199q0 -31 22 -53t53 -22t53.5 22t22.5 53v199q0 31 -22.5 53.5t-53.5 22.5t-53 -22.5t-22 -53.5zM301 25h30v-50h-80v26
q-34 -26 -76 -26q-45 0 -79.5 28.5t-43.5 72.5h-2v249h2q9 44 43.5 72.5t79.5 28.5q42 0 76 -26v99q0 31 -22.5 53.5t-53.5 22.5t-53 -22.5t-22 -53.5v-25h-50v151h50v-26q33 26 75 26q52 0 89 -37t37 -89v-474z" />
    <glyph glyph-name="aring" unicode="&#xe5;" 
d="M100 300v-199q0 -31 22 -53t53 -22t53.5 22t22.5 53v199q0 31 -22.5 53.5t-53.5 22.5t-53 -22.5t-22 -53.5zM301 25h30v-50h-80v26q-34 -26 -76 -26q-45 0 -79.5 28.5t-43.5 72.5h-2v249h2q9 44 43.5 72.5t79.5 28.5q42 0 76 -26v99q0 31 -22.5 53.5t-53.5 22.5
t-53 -22.5t-22 -53.5v-25h-50v151h50v-26q33 26 75 26q52 0 89 -37t37 -89v-474zM175 798q31 0 53 -22t22 -53t-22 -53t-53 -22t-53 22t-22 53t22 53t53 22zM175 748q-25 0 -25 -25t25 -25t25 25t-25 25z" />
    <glyph glyph-name="ccedilla" unicode="&#xe7;" 
d="M300 -25h-50v25q-22 -17 -50 -23v-26q79 0 79 -46q0 -63 -137 -104l-14 48q69 20 96 50q-11 2 -25 2q-7 0 -49 -3v79q-44 9 -72 44t-28 79v400q0 52 36.5 88.5t88.5 36.5q42 0 75 -25v25h50v-150h-50v25q0 31 -22 53t-53 22t-53 -22t-22 -53v-400q0 -31 22 -53t53 -22
t53 22t22 53v25h50v-150zM250 100v25h50z" />
    <glyph glyph-name="eacute" unicode="&#xe9;" 
d="M199 175h-50v100h-49v-175q0 -31 22 -53t53 -22t53 22t22 53v25h50v-150h-50v25q-33 -25 -75 -25q-52 0 -88.5 36.5t-36.5 88.5v400q0 52 36.5 88.5t88.5 36.5q42 0 75 -25v25h50v-150h-50v25q0 31 -22 53t-53 22t-53 -22t-22 -53v-175h49v100h50v-250zM300 475h-50v25z
M250 100v25h50zM220 795l40 -30l-82 -111l-40 30z" />
    <glyph glyph-name="egrave" unicode="&#xe8;" 
d="M199 175h-50v100h-49v-175q0 -31 22 -53t53 -22t53 22t22 53v25h50v-150h-50v25q-33 -25 -75 -25q-52 0 -88.5 36.5t-36.5 88.5v400q0 52 36.5 88.5t88.5 36.5q42 0 75 -25v25h50v-150h-50v25q0 31 -22 53t-53 22t-53 -22t-22 -53v-175h49v100h50v-250zM300 475h-50v25z
M250 100v25h50zM142 795l-40 -30l82 -111l40 30z" />
    <glyph glyph-name="ecircumflex" unicode="&#xea;" 
d="M199 175h-50v100h-49v-175q0 -31 22 -53t53 -22t53 22t22 53v25h50v-150h-50v25q-33 -25 -75 -25q-52 0 -88.5 36.5t-36.5 88.5v400q0 52 36.5 88.5t88.5 36.5q42 0 75 -25v25h50v-150h-50v25q0 31 -22 53t-53 22t-53 -22t-22 -53v-175h49v100h50v-250zM300 475h-50v25z
M250 100v25h50zM176 722l-112 -57l-23 45l135 68l132 -68l-23 -45z" />
    <glyph glyph-name="edieresis" unicode="&#xeb;" 
d="M101 677l26 54l-26 54l-26 -54zM251 677l26 54l-26 54l-26 -54zM199 175h-50v100h-49v-175q0 -31 22 -53t53 -22t53 22t22 53v25h50v-150h-50v25q-33 -25 -75 -25q-52 0 -88.5 36.5t-36.5 88.5v400q0 52 36.5 88.5t88.5 36.5q42 0 75 -25v25h50v-150h-50v25q0 31 -22 53
t-53 22t-53 -22t-22 -53v-175h49v100h50v-250zM300 475h-50v25zM250 100v25h50z" />
    <glyph glyph-name="iacute" unicode="&#xed;" horiz-adv-x="150" 
d="M100 24h31v-50h-110v50h29v552h-29v50h110v-50h-31v-552zM114 795l40 -30l-82 -111l-40 30z" />
    <glyph glyph-name="igrave" unicode="&#xec;" horiz-adv-x="150" 
d="M100 24h31v-50h-110v50h29v552h-29v50h110v-50h-31v-552zM39 795l-40 -30l82 -111l40 30z" />
    <glyph glyph-name="icircumflex" unicode="&#xee;" horiz-adv-x="265" 
d="M157 24h31v-50h-110v50h29v552h-29v50h110v-50h-31v-552zM132 722l-112 -57l-22 45l134 68l132 -68l-23 -45z" />
    <glyph glyph-name="idieresis" unicode="&#xef;" horiz-adv-x="150" 
d="M100 24h31v-50h-110v50h29v552h-29v50h110v-50h-31v-552zM34 677l26 54l-26 54l-26 -54zM118 677l26 54l-26 54l-26 -54z" />
    <glyph glyph-name="ntilde" unicode="&#xf1;" 
d="M130 -25h-110v50h30v550h-30v50h80v-25q33 25 75 25q52 0 88.5 -36.5t36.5 -88.5v-475h30v-50h-110v50h30v475q0 31 -22 53t-53 22t-53 -22t-22 -53v-475h30v-50zM50 697q0 76 56 76q26 0 74.5 -25.5t63.5 -25.5q6 7 6 49h50v-25q0 -74 -55 -74q-26 0 -74 25t-67 25
q-4 -8 -4 -50h-50v25z" />
    <glyph glyph-name="oacute" unicode="&#xf3;" 
d="M50 100v400q0 52 36.5 88.5t88.5 36.5t88.5 -36.5t36.5 -88.5v-400q0 -52 -36.5 -88.5t-88.5 -36.5t-88.5 36.5t-36.5 88.5zM100 100q0 -31 22 -53t53 -22t53 22t22 53v400q0 31 -22 53t-53 22t-53 -22t-22 -53v-400zM175 246l26 54l-26 54l-26 -54zM220 795l40 -30
l-82 -111l-40 30z" />
    <glyph glyph-name="ograve" unicode="&#xf2;" 
d="M50 100v400q0 52 36.5 88.5t88.5 36.5t88.5 -36.5t36.5 -88.5v-400q0 -52 -36.5 -88.5t-88.5 -36.5t-88.5 36.5t-36.5 88.5zM100 100q0 -31 22 -53t53 -22t53 22t22 53v400q0 31 -22 53t-53 22t-53 -22t-22 -53v-400zM175 246l26 54l-26 54l-26 -54zM142 795l-40 -30
l82 -111l40 30z" />
    <glyph glyph-name="ocircumflex" unicode="&#xf4;" 
d="M50 100v400q0 52 36.5 88.5t88.5 36.5t88.5 -36.5t36.5 -88.5v-400q0 -52 -36.5 -88.5t-88.5 -36.5t-88.5 36.5t-36.5 88.5zM100 100q0 -31 22 -53t53 -22t53 22t22 53v400q0 31 -22 53t-53 22t-53 -22t-22 -53v-400zM175 246l26 54l-26 54l-26 -54zM176 722l-112 -57
l-23 45l135 68l132 -68l-23 -45z" />
    <glyph glyph-name="odieresis" unicode="&#xf6;" 
d="M50 100v400q0 52 36.5 88.5t88.5 36.5t88.5 -36.5t36.5 -88.5v-400q0 -52 -36.5 -88.5t-88.5 -36.5t-88.5 36.5t-36.5 88.5zM100 100q0 -31 22 -53t53 -22t53 22t22 53v400q0 31 -22 53t-53 22t-53 -22t-22 -53v-400zM175 246l26 54l-26 54l-26 -54zM101 677l26 54
l-26 54l-26 -54zM251 677l26 54l-26 54l-26 -54z" />
    <glyph glyph-name="otilde" unicode="&#xf5;" 
d="M50 100v400q0 52 36.5 88.5t88.5 36.5t88.5 -36.5t36.5 -88.5v-400q0 -52 -36.5 -88.5t-88.5 -36.5t-88.5 36.5t-36.5 88.5zM100 100q0 -31 22 -53t53 -22t53 22t22 53v400q0 31 -22 53t-53 22t-53 -22t-22 -53v-400zM175 246l26 54l-26 54l-26 -54zM50 697q0 76 56 76
q26 0 74.5 -25.5t63.5 -25.5q6 7 6 49h50v-25q0 -74 -55 -74q-26 0 -74 25t-67 25q-4 -8 -4 -50h-50v25z" />
    <glyph glyph-name="uacute" unicode="&#xfa;" 
d="M220 625h110v-50h-30v-550h30v-50h-80v25q-33 -25 -75 -25q-52 0 -88.5 36.5t-36.5 88.5v475h-30v50h110v-50h-30v-475q0 -31 22 -53t53 -22t53 22t22 53v475h-30v50zM220 795l40 -30l-82 -111l-40 30z" />
    <glyph glyph-name="ugrave" unicode="&#xf9;" 
d="M220 625h110v-50h-30v-550h30v-50h-80v25q-33 -25 -75 -25q-52 0 -88.5 36.5t-36.5 88.5v475h-30v50h110v-50h-30v-475q0 -31 22 -53t53 -22t53 22t22 53v475h-30v50zM142 795l-40 -30l82 -111l40 30z" />
    <glyph glyph-name="ucircumflex" unicode="&#xfb;" 
d="M220 625h110v-50h-30v-550h30v-50h-80v25q-33 -25 -75 -25q-52 0 -88.5 36.5t-36.5 88.5v475h-30v50h110v-50h-30v-475q0 -31 22 -53t53 -22t53 22t22 53v475h-30v50zM176 722l-112 -57l-23 45l135 68l132 -68l-23 -45z" />
    <glyph glyph-name="udieresis" unicode="&#xfc;" 
d="M101 677l26 54l-26 54l-26 -54zM251 677l26 54l-26 54l-26 -54zM220 625h110v-50h-30v-550h30v-50h-80v25q-33 -25 -75 -25q-52 0 -88.5 36.5t-36.5 88.5v475h-30v50h110v-50h-30v-475q0 -31 22 -53t53 -22t53 22t22 53v475h-30v50z" />
    <glyph glyph-name="degree" unicode="&#xb0;" 
d="M175 625q52 0 88.5 -36.5t36.5 -88.5t-36.5 -88.5t-88.5 -36.5t-88.5 36.5t-36.5 88.5t36.5 88.5t88.5 36.5zM175 575q-31 0 -53 -22t-22 -53t22 -53t53 -22t53 22t22 53t-22 53t-53 22z" />
    <glyph glyph-name="registered" unicode="&#xae;" 
d="M231 300q0 -24 -16.5 -40.5t-39.5 -16.5h-56v262h23v1q41 0 60 -8q29 -13 29 -49v-149zM63 543q15 37 44.5 61.5t66.5 24.5q55 0 90 -49q33 -44 33 -101v-352q0 -19 -4 -37zM292 91h-29q-1 1 -60 119q29 9 47.5 34t18.5 56v149q0 39 -27.5 66.5t-66.5 27.5h-111zM53 505
h28v-414h-26q-3 17 -3 36v352q0 13 1 25v1zM280 53q-35 -76 -106 -76t-107 76l75 1v37h-23v114h44l58 -114h-13v-37z" />
    <glyph glyph-name="copyright" unicode="&#xa9;" 
d="M293 131q0 -57 -31 -100v137h-38q0 -75 -56 -75q-23 0 -39.5 16.5t-16.5 39.5v300q0 23 16.5 39.5t39.5 16.5q56 0 56 -75h38v152q31 -43 31 -100v-351zM225 -3q-26 -16 -55 -16q-55 0 -91 49q-32 44 -32 101v351q0 57 32 101q36 49 91 49q29 0 54 -15v-93q-25 19 -56 19
q-39 0 -66.5 -27.5t-27.5 -66.5v-300q0 -39 27.5 -66.5t66.5 -27.5q31 0 56 19zM224 149v19h38z" />
    <glyph glyph-name="trademark" unicode="&#x2122;" horiz-adv-x="200" 
 />
    <glyph glyph-name="notequal" unicode="&#x2260;" horiz-adv-x="200" 
 />
    <glyph glyph-name="infinity" unicode="&#x221e;" horiz-adv-x="200" 
 />
    <glyph glyph-name="plusminus" unicode="&#xb1;" 
d="M198 383h102v-50h-102v-103h-50v103h-98v50h98v96h50v-96zM300 181v-50h-250v50h250z" />
    <glyph glyph-name="lessequal" unicode="&#x2264;" horiz-adv-x="200" 
 />
    <glyph glyph-name="greaterequal" unicode="&#x2265;" horiz-adv-x="200" 
 />
    <glyph glyph-name="mu" unicode="&#xb5;" 
d="M100 -200h-50v775h-30v50h110v-50h-30v-475q0 -31 22 -53t53 -22t53 22t22 53v475h-30v50h110v-50h-30v-550h30v-50h-80v25q-33 -25 -75 -25t-75 25v-200z" />
    <glyph glyph-name="partialdiff" unicode="&#x2202;" horiz-adv-x="200" 
d="M219 648v-206l-35 -35q-125 62 -163 57q-2 -9 -2 -22l-38 -38q0 38 14 52l35 36q12 11 32 11q36 0 119 -40v147zM225 -200q-147 73 -180 73q-20 0 -20 -33v-40h-50v40q0 82 68 82q46 0 132 -42v145h50v-225z" />
    <glyph glyph-name="summation" unicode="&#x3a3;" horiz-adv-x="200" 
 />
    <glyph glyph-name="product" unicode="&#x220f;" horiz-adv-x="200" 
 />
    <glyph glyph-name="pi" unicode="&#x3c0;" horiz-adv-x="200" 
 />
    <glyph glyph-name="integral" unicode="&#x222b;" horiz-adv-x="200" 
d="M0 600q0 42 29 71t71 29t71 -29t29 -71t-29 -71t-71 -29zM0 100q0 -42 29 -71t71 -29t71 29t29 71l-1 199q0 42 -29 71t-71 29zM-12 305l-1 -393z" />
    <glyph glyph-name="Omega" unicode="&#x3a9;" horiz-adv-x="200" 
 />
    <glyph glyph-name="logicalnot" unicode="&#xac;" horiz-adv-x="200" 
 />
    <glyph glyph-name="radical" unicode="&#x221a;" horiz-adv-x="200" 
 />
    <glyph glyph-name="approxequal" unicode="&#x2248;" horiz-adv-x="200" 
 />
    <glyph glyph-name="Delta" unicode="&#x2206;" horiz-adv-x="200" 
 />
    <glyph glyph-name="nonbreakingspace" unicode="&#xa0;" horiz-adv-x="115" 
 />
    <glyph glyph-name="Agrave" unicode="&#xc0;" 
d="M100 300v-199q0 -31 22 -53t53 -22t53.5 22t22.5 53v199q0 31 -22.5 53.5t-53.5 22.5t-53 -22.5t-22 -53.5zM301 25h30v-50h-80v26q-34 -26 -76 -26q-45 0 -79.5 28.5t-43.5 72.5h-2v249h2q9 44 43.5 72.5t79.5 28.5q42 0 76 -26v99q0 31 -22.5 53.5t-53.5 22.5
t-53 -22.5t-22 -53.5v-25h-50v151h50v-26q33 26 75 26q52 0 89 -37t37 -89v-474zM142 795l-40 -30l82 -111l40 30z" />
    <glyph glyph-name="Atilde" unicode="&#xc3;" 
d="M50 697q0 76 56 76q26 0 74.5 -25.5t63.5 -25.5q6 7 6 49h50v-25q0 -74 -55 -74q-26 0 -74 25t-67 25q-4 -8 -4 -50h-50v25zM100 300v-199q0 -31 22 -53t53 -22t53.5 22t22.5 53v199q0 31 -22.5 53.5t-53.5 22.5t-53 -22.5t-22 -53.5zM301 25h30v-50h-80v26
q-34 -26 -76 -26q-45 0 -79.5 28.5t-43.5 72.5h-2v249h2q9 44 43.5 72.5t79.5 28.5q42 0 76 -26v99q0 31 -22.5 53.5t-53.5 22.5t-53 -22.5t-22 -53.5v-25h-50v151h50v-26q33 26 75 26q52 0 89 -37t37 -89v-474z" />
    <glyph glyph-name="Otilde" unicode="&#xd5;" 
d="M50 100v400q0 52 36.5 88.5t88.5 36.5t88.5 -36.5t36.5 -88.5v-400q0 -52 -36.5 -88.5t-88.5 -36.5t-88.5 36.5t-36.5 88.5zM100 100q0 -31 22 -53t53 -22t53 22t22 53v400q0 31 -22 53t-53 22t-53 -22t-22 -53v-400zM175 246l26 54l-26 54l-26 -54zM50 697q0 76 56 76
q26 0 74.5 -25.5t63.5 -25.5q6 7 6 49h50v-25q0 -74 -55 -74q-26 0 -74 25t-67 25q-4 -8 -4 -50h-50v25z" />
    <glyph glyph-name="divide" unicode="&#xf7;" horiz-adv-x="200" 
 />
    <glyph glyph-name="lozenge" unicode="&#x25ca;" horiz-adv-x="200" 
 />
    <glyph glyph-name="ydieresis" unicode="&#xff;" 
d="M101 677l26 54l-26 54l-26 -54zM251 677l26 54l-26 54l-26 -54zM250 0q-33 -25 -75 -25q-52 0 -88.5 36.5t-36.5 88.5v475h-30v50h110v-50h-30v-475q0 -31 22 -53t53 -22t53 22t22 53v475h-30v50h110v-50h-30l-1 -775q-89 44 -89 45q-63 28 -91 28q-18 0 -21 -29
q1 10 1 -44h-50v40q0 82 69 82q46 0 132 -41v119z" />
    <glyph glyph-name="Ydieresis" unicode="&#x178;" horiz-adv-x="200" 
 />
    <glyph glyph-name="Acircumflex" unicode="&#xc2;" 
d="M176 722l-112 -57l-23 45l135 68l132 -68l-23 -45zM100 300v-199q0 -31 22 -53t53 -22t53.5 22t22.5 53v199q0 31 -22.5 53.5t-53.5 22.5t-53 -22.5t-22 -53.5zM301 25h30v-50h-80v26q-34 -26 -76 -26q-45 0 -79.5 28.5t-43.5 72.5h-2v249h2q9 44 43.5 72.5t79.5 28.5
q42 0 76 -26v99q0 31 -22.5 53.5t-53.5 22.5t-53 -22.5t-22 -53.5v-25h-50v151h50v-26q33 26 75 26q52 0 89 -37t37 -89v-474z" />
    <glyph glyph-name="Ecircumflex" unicode="&#xca;" 
d="M199 175h-50v100h-49v-175q0 -31 22 -53t53 -22t53 22t22 53v25h50v-150h-50v25q-33 -25 -75 -25q-52 0 -88.5 36.5t-36.5 88.5v400q0 52 36.5 88.5t88.5 36.5q42 0 75 -25v25h50v-150h-50v25q0 31 -22 53t-53 22t-53 -22t-22 -53v-175h49v100h50v-250zM300 475h-50v25z
M250 100v25h50zM176 722l-112 -57l-23 45l135 68l132 -68l-23 -45z" />
    <glyph glyph-name="Aacute" unicode="&#xc1;" 
d="M100 300v-199q0 -31 22 -53t53 -22t53.5 22t22.5 53v199q0 31 -22.5 53.5t-53.5 22.5t-53 -22.5t-22 -53.5zM301 25h30v-50h-80v26q-34 -26 -76 -26q-45 0 -79.5 28.5t-43.5 72.5h-2v249h2q9 44 43.5 72.5t79.5 28.5q42 0 76 -26v99q0 31 -22.5 53.5t-53.5 22.5
t-53 -22.5t-22 -53.5v-25h-50v151h50v-26q33 26 75 26q52 0 89 -37t37 -89v-474zM220 795l40 -30l-82 -111l-40 30z" />
    <glyph glyph-name="Edieresis" unicode="&#xcb;" 
d="M101 677l26 54l-26 54l-26 -54zM251 677l26 54l-26 54l-26 -54zM199 175h-50v100h-49v-175q0 -31 22 -53t53 -22t53 22t22 53v25h50v-150h-50v25q-33 -25 -75 -25q-52 0 -88.5 36.5t-36.5 88.5v400q0 52 36.5 88.5t88.5 36.5q42 0 75 -25v25h50v-150h-50v25q0 31 -22 53
t-53 22t-53 -22t-22 -53v-175h49v100h50v-250zM300 475h-50v25zM250 100v25h50z" />
    <glyph glyph-name="Egrave" unicode="&#xc8;" 
d="M199 175h-50v100h-49v-175q0 -31 22 -53t53 -22t53 22t22 53v25h50v-150h-50v25q-33 -25 -75 -25q-52 0 -88.5 36.5t-36.5 88.5v400q0 52 36.5 88.5t88.5 36.5q42 0 75 -25v25h50v-150h-50v25q0 31 -22 53t-53 22t-53 -22t-22 -53v-175h49v100h50v-250zM300 475h-50v25z
M250 100v25h50zM142 795l-40 -30l82 -111l40 30z" />
    <glyph glyph-name="Iacute" unicode="&#xcd;" horiz-adv-x="150" 
d="M100 24h31v-50h-110v50h29v552h-29v50h110v-50h-31v-552zM114 795l40 -30l-82 -111l-40 30z" />
    <glyph glyph-name="Icircumflex" unicode="&#xce;" horiz-adv-x="265" 
d="M157 24h31v-50h-110v50h29v552h-29v50h110v-50h-31v-552zM132 722l-112 -57l-22 45l134 68l132 -68l-23 -45z" />
    <glyph glyph-name="Idieresis" unicode="&#xcf;" horiz-adv-x="150" 
d="M100 24h31v-50h-110v50h29v552h-29v50h110v-50h-31v-552zM34 677l26 54l-26 54l-26 -54zM118 677l26 54l-26 54l-26 -54z" />
    <glyph glyph-name="Igrave" unicode="&#xcc;" horiz-adv-x="150" 
d="M100 24h31v-50h-110v50h29v552h-29v50h110v-50h-31v-552zM39 795l-40 -30l82 -111l40 30z" />
    <glyph glyph-name="Oacute" unicode="&#xd3;" 
d="M50 100v400q0 52 36.5 88.5t88.5 36.5t88.5 -36.5t36.5 -88.5v-400q0 -52 -36.5 -88.5t-88.5 -36.5t-88.5 36.5t-36.5 88.5zM100 100q0 -31 22 -53t53 -22t53 22t22 53v400q0 31 -22 53t-53 22t-53 -22t-22 -53v-400zM175 246l26 54l-26 54l-26 -54zM220 795l40 -30
l-82 -111l-40 30z" />
    <glyph glyph-name="Ocircumflex" unicode="&#xd4;" 
d="M50 100v400q0 52 36.5 88.5t88.5 36.5t88.5 -36.5t36.5 -88.5v-400q0 -52 -36.5 -88.5t-88.5 -36.5t-88.5 36.5t-36.5 88.5zM100 100q0 -31 22 -53t53 -22t53 22t22 53v400q0 31 -22 53t-53 22t-53 -22t-22 -53v-400zM175 246l26 54l-26 54l-26 -54zM176 722l-112 -57
l-23 45l135 68l132 -68l-23 -45z" />
    <glyph glyph-name="apple" unicode="&#xf000;" horiz-adv-x="790" 
d="M408 594q4 -1 8 -1h4q51 0 100.5 52t49.5 113v19q-1 9 -1 11q-70 -14 -116 -64t-46 -112v-12q1 -5 1 -6zM735 197q-114 52 -114 165q0 99 98 160q-67 80 -175 80q-22 0 -73.5 -17t-60.5 -17q-8 0 -59.5 17t-76.5 17q-96 0 -157.5 -67.5t-61.5 -174.5q0 -152 104 -291
q63 -85 126 -85q14 0 62.5 15.5t63.5 15.5q12 0 59 -15.5t65 -15.5q55 0 100.5 47.5t99.5 165.5z" />
    <glyph glyph-name="Ograve" unicode="&#xd2;" 
d="M50 100v400q0 52 36.5 88.5t88.5 36.5t88.5 -36.5t36.5 -88.5v-400q0 -52 -36.5 -88.5t-88.5 -36.5t-88.5 36.5t-36.5 88.5zM100 100q0 -31 22 -53t53 -22t53 22t22 53v400q0 31 -22 53t-53 22t-53 -22t-22 -53v-400zM175 246l26 54l-26 54l-26 -54zM142 795l-40 -30
l82 -111l40 30z" />
    <glyph glyph-name="Uacute" unicode="&#xda;" 
d="M220 625h110v-50h-30v-550h30v-50h-80v25q-33 -25 -75 -25q-52 0 -88.5 36.5t-36.5 88.5v475h-30v50h110v-50h-30v-475q0 -31 22 -53t53 -22t53 22t22 53v475h-30v50zM220 795l40 -30l-82 -111l-40 30z" />
    <glyph glyph-name="Ucircumflex" unicode="&#xdb;" 
d="M220 625h110v-50h-30v-550h30v-50h-80v25q-33 -25 -75 -25q-52 0 -88.5 36.5t-36.5 88.5v475h-30v50h110v-50h-30v-475q0 -31 22 -53t53 -22t53 22t22 53v475h-30v50zM176 722l-112 -57l-23 45l135 68l132 -68l-23 -45z" />
    <glyph glyph-name="Ugrave" unicode="&#xd9;" 
d="M220 625h110v-50h-30v-550h30v-50h-80v25q-33 -25 -75 -25q-52 0 -88.5 36.5t-36.5 88.5v475h-30v50h110v-50h-30v-475q0 -31 22 -53t53 -22t53 22t22 53v475h-30v50zM142 795l-40 -30l82 -111l40 30z" />
  </font>
</defs>
</svg>
